%TF.GenerationSoftware,KiCad,Pcbnew,7.0.10*%
%TF.CreationDate,2025-01-30T23:30:39+01:00*%
%TF.ProjectId,Panel,50616e65-6c2e-46b6-9963-61645f706362,rev?*%
%TF.SameCoordinates,Original*%
%TF.FileFunction,Copper,L2,Bot*%
%TF.FilePolarity,Positive*%
%FSLAX46Y46*%
G04 Gerber Fmt 4.6, Leading zero omitted, Abs format (unit mm)*
G04 Created by KiCad (PCBNEW 7.0.10) date 2025-01-30 23:30:39*
%MOMM*%
%LPD*%
G01*
G04 APERTURE LIST*
%TA.AperFunction,ComponentPad*%
%ADD10R,1.500000X1.500000*%
%TD*%
%TA.AperFunction,ComponentPad*%
%ADD11C,1.800000*%
%TD*%
%TA.AperFunction,ComponentPad*%
%ADD12C,2.775000*%
%TD*%
%TA.AperFunction,ComponentPad*%
%ADD13C,4.700000*%
%TD*%
%TA.AperFunction,ComponentPad*%
%ADD14R,1.700000X1.700000*%
%TD*%
%TA.AperFunction,ComponentPad*%
%ADD15O,1.700000X1.700000*%
%TD*%
%TA.AperFunction,ComponentPad*%
%ADD16R,1.446000X1.446000*%
%TD*%
%TA.AperFunction,ComponentPad*%
%ADD17C,1.446000*%
%TD*%
%TA.AperFunction,ViaPad*%
%ADD18C,0.600000*%
%TD*%
%TA.AperFunction,ViaPad*%
%ADD19C,0.800000*%
%TD*%
%TA.AperFunction,Conductor*%
%ADD20C,0.700000*%
%TD*%
%TA.AperFunction,Conductor*%
%ADD21C,0.500000*%
%TD*%
G04 APERTURE END LIST*
D10*
%TO.P,D3,1,DO*%
%TO.N,unconnected-(D3-DO-Pad1)*%
X171000000Y-94238500D03*
D11*
%TO.P,D3,2,GND*%
%TO.N,GND1*%
X171000000Y-92079500D03*
%TO.P,D3,3,VDD*%
%TO.N,+5V*%
X171000000Y-89920500D03*
%TO.P,D3,4,DI*%
%TO.N,OUT_1*%
X171000000Y-87761500D03*
%TD*%
D10*
%TO.P,D1,1,DO*%
%TO.N,unconnected-(D1-DO-Pad1)*%
X153000000Y-94238500D03*
D11*
%TO.P,D1,2,GND*%
%TO.N,GND1*%
X153000000Y-92079500D03*
%TO.P,D1,3,VDD*%
%TO.N,+5V*%
X153000000Y-89920500D03*
%TO.P,D1,4,DI*%
%TO.N,OUT_1*%
X153000000Y-87761500D03*
%TD*%
D12*
%TO.P,S1,1,NO*%
%TO.N,IN1*%
X162000000Y-95700000D03*
%TO.P,S1,2,COM*%
%TO.N,GND1*%
X162000000Y-91000000D03*
%TO.P,S1,3,NO*%
%TO.N,IN2*%
X162000000Y-86300000D03*
%TD*%
D13*
%TO.P,H3,1*%
%TO.N,N/C*%
X171000000Y-98000000D03*
%TD*%
%TO.P,H1,1*%
%TO.N,N/C*%
X171000000Y-70000000D03*
%TD*%
%TO.P,H2,1*%
%TO.N,N/C*%
X153000000Y-98000000D03*
%TD*%
D14*
%TO.P,J2,1,Pin_1*%
%TO.N,GND1*%
X171000000Y-83800000D03*
D15*
%TO.P,J2,2,Pin_2*%
%TO.N,OUT2*%
X171000000Y-81260000D03*
%TO.P,J2,3,Pin_3*%
%TO.N,IN3*%
X171000000Y-78720000D03*
%TO.P,J2,4,Pin_4*%
%TO.N,IN4*%
X171000000Y-76180000D03*
%TD*%
D16*
%TO.P,J1,1*%
%TO.N,GND1*%
X163730000Y-72150000D03*
D17*
%TO.P,J1,2*%
%TO.N,OUT1*%
X162460000Y-69610000D03*
%TO.P,J1,3*%
%TO.N,OUT2*%
X161190000Y-72150000D03*
%TO.P,J1,4*%
%TO.N,IN1*%
X159920000Y-69610000D03*
%TO.P,J1,5*%
%TO.N,IN2*%
X158650000Y-72150000D03*
%TO.P,J1,6*%
%TO.N,IN3*%
X157380000Y-69610000D03*
%TO.P,J1,7*%
%TO.N,IN4*%
X156110000Y-72150000D03*
%TO.P,J1,8*%
%TO.N,V_IN*%
X154840000Y-69610000D03*
%TD*%
D18*
%TO.N,GND1*%
X151000000Y-77000000D03*
X168000000Y-68000000D03*
X151000000Y-84500000D03*
X173000000Y-91000000D03*
X173000000Y-94000000D03*
X168000000Y-82500000D03*
X159000000Y-80500000D03*
X164076000Y-89662000D03*
X159000000Y-76500000D03*
X164250000Y-83000000D03*
X156000000Y-97000000D03*
X153250000Y-68000000D03*
X160000000Y-81500000D03*
X154424000Y-73787000D03*
X160000000Y-80500000D03*
X151000000Y-94000000D03*
X159000000Y-97000000D03*
X151000000Y-80750000D03*
X173000000Y-73000000D03*
X163250000Y-83000000D03*
X173000000Y-80500000D03*
X159000000Y-77500000D03*
X160000000Y-77500000D03*
X173000000Y-77000000D03*
X151000000Y-88000000D03*
X168000000Y-94000000D03*
X163700000Y-73800000D03*
X173000000Y-83750000D03*
X168000000Y-73500000D03*
X160012000Y-89662000D03*
X165300000Y-73800000D03*
X165000000Y-97000000D03*
X153535000Y-72898000D03*
X151000000Y-86000000D03*
X160012000Y-92202000D03*
X168000000Y-97000000D03*
X173000000Y-88000000D03*
X151000000Y-91000000D03*
X164076000Y-92202000D03*
X161000000Y-80500000D03*
X169000000Y-83750000D03*
X165300000Y-72135000D03*
%TO.N,+5V*%
X165600000Y-93218000D03*
X158488000Y-93218000D03*
X157085600Y-83500000D03*
X157085600Y-86500000D03*
%TO.N,OUT1*%
X167000000Y-75000000D03*
X161028000Y-81534000D03*
D19*
%TO.N,IN3*%
X169500000Y-74500000D03*
%TO.N,IN4*%
X161950000Y-73398959D03*
D18*
%TO.N,OUT_1*%
X162500000Y-88646000D03*
X166500000Y-88646000D03*
%TD*%
D20*
%TO.N,+5V*%
X157085600Y-86500000D02*
X157085600Y-83500000D01*
X158488000Y-93218000D02*
X165600000Y-93218000D01*
D21*
%TO.N,OUT1*%
X167125000Y-75125000D02*
X167125000Y-79380204D01*
X164971204Y-81534000D02*
X161028000Y-81534000D01*
X167125000Y-79380204D02*
X164971204Y-81534000D01*
X167000000Y-75000000D02*
X167125000Y-75125000D01*
%TO.N,IN3*%
X169500000Y-74500000D02*
X169500000Y-78000000D01*
X170220000Y-78720000D02*
X171000000Y-78720000D01*
X169500000Y-78000000D02*
X170220000Y-78720000D01*
%TO.N,IN4*%
X161530959Y-73818000D02*
X156772000Y-73818000D01*
X156110000Y-72150000D02*
X156325000Y-72150000D01*
X156110000Y-73156000D02*
X156110000Y-72150000D01*
X161950000Y-73398959D02*
X161530959Y-73818000D01*
X156772000Y-73818000D02*
X156110000Y-73156000D01*
%TO.N,OUT_1*%
X162500000Y-88646000D02*
X166500000Y-88646000D01*
%TO.N,OUT2*%
X170000000Y-81260000D02*
X169980000Y-81280000D01*
%TD*%
%TA.AperFunction,Conductor*%
%TO.N,GND1*%
G36*
X169270549Y-67520185D02*
G01*
X169316304Y-67572989D01*
X169326248Y-67642147D01*
X169297223Y-67705703D01*
X169283216Y-67719489D01*
X169133127Y-67845427D01*
X169040553Y-67923107D01*
X168812690Y-68164629D01*
X168812687Y-68164632D01*
X168812685Y-68164635D01*
X168812678Y-68164643D01*
X168614406Y-68430968D01*
X168448385Y-68718525D01*
X168448379Y-68718538D01*
X168316866Y-69023419D01*
X168221634Y-69341518D01*
X168221631Y-69341532D01*
X168163977Y-69668504D01*
X168163976Y-69668515D01*
X168144669Y-69999996D01*
X168144669Y-70000003D01*
X168163976Y-70331484D01*
X168163977Y-70331495D01*
X168221631Y-70658467D01*
X168221634Y-70658481D01*
X168221635Y-70658485D01*
X168231255Y-70690618D01*
X168316866Y-70976580D01*
X168448379Y-71281461D01*
X168448385Y-71281474D01*
X168614406Y-71569031D01*
X168812678Y-71835356D01*
X168812683Y-71835362D01*
X168812690Y-71835371D01*
X169040553Y-72076893D01*
X169167758Y-72183630D01*
X169294912Y-72290325D01*
X169294920Y-72290331D01*
X169572330Y-72472787D01*
X169572334Y-72472789D01*
X169869061Y-72621811D01*
X170181082Y-72735377D01*
X170181088Y-72735378D01*
X170181090Y-72735379D01*
X170504161Y-72811949D01*
X170504168Y-72811950D01*
X170504177Y-72811952D01*
X170833977Y-72850500D01*
X170833984Y-72850500D01*
X171166016Y-72850500D01*
X171166023Y-72850500D01*
X171495823Y-72811952D01*
X171495832Y-72811949D01*
X171495838Y-72811949D01*
X171757219Y-72750000D01*
X171818918Y-72735377D01*
X172130939Y-72621811D01*
X172427666Y-72472789D01*
X172705085Y-72290327D01*
X172959447Y-72076893D01*
X173187310Y-71835371D01*
X173187322Y-71835354D01*
X173187327Y-71835349D01*
X173276037Y-71716191D01*
X173331859Y-71674171D01*
X173401537Y-71669002D01*
X173462949Y-71702325D01*
X173496596Y-71763559D01*
X173499500Y-71790238D01*
X173499500Y-96209761D01*
X173479815Y-96276800D01*
X173427011Y-96322555D01*
X173357853Y-96332499D01*
X173294297Y-96303474D01*
X173276037Y-96283809D01*
X173187321Y-96164643D01*
X173187314Y-96164635D01*
X173187310Y-96164629D01*
X172959447Y-95923107D01*
X172797153Y-95786926D01*
X172705087Y-95709674D01*
X172705079Y-95709668D01*
X172427672Y-95527214D01*
X172228864Y-95427368D01*
X172177790Y-95379690D01*
X172160601Y-95311968D01*
X172182754Y-95245703D01*
X172185252Y-95242244D01*
X172193796Y-95230831D01*
X172244091Y-95095983D01*
X172250500Y-95036373D01*
X172250499Y-93440628D01*
X172244091Y-93381017D01*
X172193796Y-93246169D01*
X172193795Y-93246168D01*
X172193793Y-93246164D01*
X172107548Y-93130957D01*
X172107546Y-93130954D01*
X172107542Y-93130951D01*
X172101807Y-93125215D01*
X172068325Y-93063890D01*
X172073312Y-92994199D01*
X172098269Y-92953547D01*
X172108581Y-92942346D01*
X172108584Y-92942342D01*
X172235482Y-92748111D01*
X172328682Y-92535635D01*
X172385638Y-92310718D01*
X172404798Y-92079505D01*
X172404798Y-92079494D01*
X172385638Y-91848281D01*
X172328682Y-91623364D01*
X172328680Y-91623360D01*
X172321359Y-91606667D01*
X171087680Y-92840346D01*
X171026357Y-92873831D01*
X170956665Y-92868847D01*
X170912318Y-92840346D01*
X170117465Y-92045492D01*
X170546190Y-92045492D01*
X170556327Y-92180765D01*
X170605887Y-92307041D01*
X170690465Y-92413099D01*
X170802547Y-92489516D01*
X170932173Y-92529500D01*
X171033724Y-92529500D01*
X171134138Y-92514365D01*
X171256357Y-92455507D01*
X171355798Y-92363240D01*
X171423625Y-92245760D01*
X171453810Y-92113508D01*
X171443673Y-91978235D01*
X171394113Y-91851959D01*
X171309535Y-91745901D01*
X171197453Y-91669484D01*
X171067827Y-91629500D01*
X170966276Y-91629500D01*
X170865862Y-91644635D01*
X170743643Y-91703493D01*
X170644202Y-91795760D01*
X170576375Y-91913240D01*
X170546190Y-92045492D01*
X170117465Y-92045492D01*
X169678640Y-91606667D01*
X169671318Y-91623361D01*
X169614361Y-91848281D01*
X169595202Y-92079494D01*
X169595202Y-92079505D01*
X169614361Y-92310718D01*
X169671317Y-92535635D01*
X169764516Y-92748109D01*
X169891417Y-92942346D01*
X169901738Y-92953558D01*
X169932659Y-93016213D01*
X169924796Y-93085639D01*
X169898195Y-93125212D01*
X169892452Y-93130955D01*
X169806206Y-93246164D01*
X169806202Y-93246171D01*
X169755908Y-93381017D01*
X169749501Y-93440616D01*
X169749500Y-93440629D01*
X169749500Y-95036370D01*
X169749501Y-95036376D01*
X169755908Y-95095983D01*
X169806202Y-95230828D01*
X169806204Y-95230831D01*
X169814750Y-95242247D01*
X169839168Y-95307711D01*
X169824317Y-95375985D01*
X169774912Y-95425390D01*
X169771135Y-95427369D01*
X169572330Y-95527212D01*
X169294920Y-95709668D01*
X169294912Y-95709674D01*
X169088936Y-95882508D01*
X169040553Y-95923107D01*
X168812690Y-96164629D01*
X168812687Y-96164632D01*
X168812685Y-96164635D01*
X168812678Y-96164643D01*
X168614406Y-96430968D01*
X168448385Y-96718525D01*
X168448379Y-96718538D01*
X168316866Y-97023419D01*
X168221634Y-97341518D01*
X168221631Y-97341532D01*
X168163977Y-97668504D01*
X168163976Y-97668515D01*
X168144669Y-97999996D01*
X168144669Y-98000003D01*
X168163976Y-98331484D01*
X168163977Y-98331495D01*
X168221631Y-98658467D01*
X168221634Y-98658481D01*
X168316866Y-98976580D01*
X168448379Y-99281461D01*
X168448385Y-99281474D01*
X168614406Y-99569031D01*
X168812678Y-99835356D01*
X168812683Y-99835362D01*
X168812690Y-99835371D01*
X169040553Y-100076893D01*
X169210724Y-100219683D01*
X169283216Y-100280511D01*
X169321918Y-100338682D01*
X169323026Y-100408543D01*
X169286189Y-100467913D01*
X169223102Y-100497942D01*
X169203510Y-100499500D01*
X154796490Y-100499500D01*
X154729451Y-100479815D01*
X154683696Y-100427011D01*
X154673752Y-100357853D01*
X154702777Y-100294297D01*
X154716784Y-100280511D01*
X154767341Y-100238087D01*
X154959447Y-100076893D01*
X155187310Y-99835371D01*
X155385594Y-99569030D01*
X155551617Y-99281470D01*
X155683133Y-98976581D01*
X155778365Y-98658485D01*
X155836024Y-98331484D01*
X155855331Y-98000000D01*
X155836024Y-97668516D01*
X155778365Y-97341515D01*
X155683133Y-97023419D01*
X155551617Y-96718530D01*
X155417546Y-96486312D01*
X155385593Y-96430968D01*
X155187321Y-96164643D01*
X155187314Y-96164635D01*
X155187310Y-96164629D01*
X154959447Y-95923107D01*
X154797153Y-95786926D01*
X154705087Y-95709674D01*
X154705079Y-95709668D01*
X154427672Y-95527214D01*
X154228864Y-95427368D01*
X154177790Y-95379690D01*
X154160601Y-95311968D01*
X154182754Y-95245703D01*
X154185252Y-95242244D01*
X154193796Y-95230831D01*
X154244091Y-95095983D01*
X154250500Y-95036373D01*
X154250499Y-93440628D01*
X154244091Y-93381017D01*
X154193796Y-93246169D01*
X154193795Y-93246168D01*
X154193793Y-93246164D01*
X154138037Y-93171685D01*
X157633740Y-93171685D01*
X157643755Y-93356406D01*
X157643755Y-93356411D01*
X157693244Y-93534656D01*
X157693247Y-93534662D01*
X157779898Y-93698102D01*
X157842540Y-93771850D01*
X157899663Y-93839100D01*
X158046936Y-93951054D01*
X158214833Y-94028732D01*
X158214834Y-94028732D01*
X158214836Y-94028733D01*
X158269648Y-94040797D01*
X158395503Y-94068500D01*
X160662102Y-94068500D01*
X160729141Y-94088185D01*
X160774896Y-94140989D01*
X160784840Y-94210147D01*
X160755815Y-94273703D01*
X160749783Y-94280181D01*
X160569509Y-94460454D01*
X160569493Y-94460472D01*
X160407657Y-94676660D01*
X160407652Y-94676668D01*
X160278230Y-94913687D01*
X160278228Y-94913691D01*
X160183848Y-95166736D01*
X160126443Y-95430617D01*
X160107177Y-95699998D01*
X160107177Y-95700001D01*
X160126443Y-95969382D01*
X160183848Y-96233263D01*
X160183850Y-96233270D01*
X160220300Y-96330996D01*
X160278228Y-96486308D01*
X160278230Y-96486312D01*
X160407652Y-96723331D01*
X160407657Y-96723339D01*
X160569493Y-96939527D01*
X160569509Y-96939545D01*
X160760454Y-97130490D01*
X160760472Y-97130506D01*
X160976660Y-97292342D01*
X160976668Y-97292347D01*
X161213687Y-97421769D01*
X161213691Y-97421771D01*
X161213693Y-97421772D01*
X161466730Y-97516150D01*
X161598676Y-97544853D01*
X161730617Y-97573556D01*
X161730619Y-97573556D01*
X161730623Y-97573557D01*
X161970007Y-97590677D01*
X161999999Y-97592823D01*
X162000000Y-97592823D01*
X162000001Y-97592823D01*
X162026987Y-97590892D01*
X162269377Y-97573557D01*
X162533270Y-97516150D01*
X162786307Y-97421772D01*
X163023337Y-97292344D01*
X163239535Y-97130500D01*
X163430500Y-96939535D01*
X163592344Y-96723337D01*
X163721772Y-96486307D01*
X163816150Y-96233270D01*
X163873557Y-95969377D01*
X163892823Y-95700000D01*
X163873557Y-95430623D01*
X163816150Y-95166730D01*
X163721772Y-94913693D01*
X163592344Y-94676663D01*
X163592342Y-94676660D01*
X163430506Y-94460472D01*
X163430490Y-94460454D01*
X163250217Y-94280181D01*
X163216732Y-94218858D01*
X163221716Y-94149166D01*
X163263588Y-94093233D01*
X163329052Y-94068816D01*
X163337898Y-94068500D01*
X165646107Y-94068500D01*
X165646113Y-94068500D01*
X165783910Y-94053514D01*
X165959221Y-93994444D01*
X166117736Y-93899070D01*
X166252041Y-93771849D01*
X166355858Y-93618730D01*
X166424331Y-93446875D01*
X166454260Y-93264317D01*
X166444245Y-93079593D01*
X166444244Y-93079588D01*
X166394755Y-92901343D01*
X166394752Y-92901337D01*
X166308101Y-92737897D01*
X166188337Y-92596900D01*
X166109449Y-92536931D01*
X166041064Y-92484946D01*
X165873167Y-92407268D01*
X165873163Y-92407266D01*
X165692497Y-92367500D01*
X163581802Y-92367500D01*
X163514763Y-92347815D01*
X163469008Y-92295011D01*
X163459064Y-92225853D01*
X163482535Y-92169189D01*
X163591924Y-92023061D01*
X163591925Y-92023060D01*
X163721313Y-91786104D01*
X163721315Y-91786100D01*
X163815670Y-91533123D01*
X163873059Y-91269310D01*
X163892321Y-91000001D01*
X163892321Y-90999998D01*
X163873059Y-90730689D01*
X163815670Y-90466876D01*
X163721317Y-90213905D01*
X163721315Y-90213900D01*
X163690698Y-90157828D01*
X162925000Y-90923526D01*
X162925000Y-90902779D01*
X162884573Y-90712585D01*
X162805486Y-90534953D01*
X162691195Y-90377645D01*
X162546696Y-90247537D01*
X162378304Y-90150316D01*
X162193378Y-90090230D01*
X162073809Y-90077662D01*
X162230965Y-89920506D01*
X169594700Y-89920506D01*
X169613864Y-90151797D01*
X169613866Y-90151808D01*
X169670842Y-90376800D01*
X169764075Y-90589348D01*
X169891016Y-90783647D01*
X169891019Y-90783651D01*
X169891021Y-90783653D01*
X170048216Y-90954413D01*
X170048219Y-90954415D01*
X170048222Y-90954418D01*
X170231365Y-91096964D01*
X170231371Y-91096968D01*
X170231374Y-91096970D01*
X170435497Y-91207436D01*
X170549487Y-91246568D01*
X170655015Y-91282797D01*
X170655017Y-91282797D01*
X170655019Y-91282798D01*
X170883951Y-91321000D01*
X170883952Y-91321000D01*
X171116048Y-91321000D01*
X171116049Y-91321000D01*
X171344981Y-91282798D01*
X171564503Y-91207436D01*
X171768626Y-91096970D01*
X171951784Y-90954413D01*
X172108979Y-90783653D01*
X172235924Y-90589349D01*
X172329157Y-90376800D01*
X172386134Y-90151805D01*
X172386162Y-90151472D01*
X172405300Y-89920506D01*
X172405300Y-89920493D01*
X172386135Y-89689202D01*
X172386133Y-89689191D01*
X172329157Y-89464199D01*
X172235924Y-89251651D01*
X172108983Y-89057352D01*
X172108980Y-89057349D01*
X172108979Y-89057347D01*
X171987128Y-88924980D01*
X171956207Y-88862328D01*
X171964067Y-88792902D01*
X171987127Y-88757020D01*
X172108979Y-88624653D01*
X172235924Y-88430349D01*
X172329157Y-88217800D01*
X172386134Y-87992805D01*
X172386135Y-87992797D01*
X172405300Y-87761506D01*
X172405300Y-87761493D01*
X172386135Y-87530202D01*
X172386133Y-87530191D01*
X172329157Y-87305199D01*
X172235924Y-87092651D01*
X172108983Y-86898352D01*
X172108980Y-86898349D01*
X172108979Y-86898347D01*
X171951784Y-86727587D01*
X171951779Y-86727583D01*
X171951777Y-86727581D01*
X171768634Y-86585035D01*
X171768628Y-86585031D01*
X171564504Y-86474564D01*
X171564495Y-86474561D01*
X171344984Y-86399202D01*
X171173282Y-86370550D01*
X171116049Y-86361000D01*
X170883951Y-86361000D01*
X170838164Y-86368640D01*
X170655015Y-86399202D01*
X170435504Y-86474561D01*
X170435495Y-86474564D01*
X170231371Y-86585031D01*
X170231365Y-86585035D01*
X170048222Y-86727581D01*
X170048219Y-86727584D01*
X169891016Y-86898352D01*
X169764075Y-87092651D01*
X169670842Y-87305199D01*
X169613866Y-87530191D01*
X169613864Y-87530202D01*
X169594700Y-87761493D01*
X169594700Y-87761506D01*
X169613864Y-87992797D01*
X169613866Y-87992808D01*
X169670842Y-88217800D01*
X169764075Y-88430348D01*
X169787858Y-88466750D01*
X169891021Y-88624653D01*
X169910675Y-88646003D01*
X170012870Y-88757018D01*
X170043792Y-88819673D01*
X170035931Y-88889099D01*
X170012870Y-88924982D01*
X169891019Y-89057349D01*
X169764075Y-89251651D01*
X169670842Y-89464199D01*
X169613866Y-89689191D01*
X169613864Y-89689202D01*
X169594700Y-89920493D01*
X169594700Y-89920506D01*
X162230965Y-89920506D01*
X162718652Y-89432819D01*
X162779975Y-89399334D01*
X162806333Y-89396500D01*
X166200028Y-89396500D01*
X166240983Y-89403458D01*
X166320745Y-89431368D01*
X166320750Y-89431369D01*
X166499996Y-89451565D01*
X166500000Y-89451565D01*
X166500004Y-89451565D01*
X166679249Y-89431369D01*
X166679252Y-89431368D01*
X166679255Y-89431368D01*
X166849522Y-89371789D01*
X167002262Y-89275816D01*
X167129816Y-89148262D01*
X167225789Y-88995522D01*
X167285368Y-88825255D01*
X167285997Y-88819673D01*
X167305565Y-88646003D01*
X167305565Y-88645996D01*
X167285369Y-88466750D01*
X167285368Y-88466745D01*
X167225788Y-88296476D01*
X167153748Y-88181826D01*
X167129816Y-88143738D01*
X167002262Y-88016184D01*
X166849523Y-87920211D01*
X166679254Y-87860631D01*
X166679249Y-87860630D01*
X166500004Y-87840435D01*
X166499996Y-87840435D01*
X166320750Y-87860630D01*
X166320745Y-87860631D01*
X166240983Y-87888542D01*
X166200028Y-87895500D01*
X163373898Y-87895500D01*
X163306859Y-87875815D01*
X163261104Y-87823011D01*
X163251160Y-87753853D01*
X163280185Y-87690297D01*
X163286217Y-87683819D01*
X163430490Y-87539545D01*
X163430500Y-87539535D01*
X163592344Y-87323337D01*
X163721772Y-87086307D01*
X163816150Y-86833270D01*
X163873557Y-86569377D01*
X163892823Y-86300000D01*
X163873557Y-86030623D01*
X163816150Y-85766730D01*
X163721772Y-85513693D01*
X163592344Y-85276663D01*
X163592342Y-85276660D01*
X163430506Y-85060472D01*
X163430490Y-85060454D01*
X163239545Y-84869509D01*
X163239527Y-84869493D01*
X163023339Y-84707657D01*
X163023331Y-84707652D01*
X162786312Y-84578230D01*
X162786308Y-84578228D01*
X162690377Y-84542448D01*
X162533270Y-84483850D01*
X162533266Y-84483849D01*
X162533263Y-84483848D01*
X162269382Y-84426443D01*
X162000001Y-84407177D01*
X161999999Y-84407177D01*
X161730617Y-84426443D01*
X161466736Y-84483848D01*
X161466731Y-84483849D01*
X161466730Y-84483850D01*
X161405551Y-84506668D01*
X161213691Y-84578228D01*
X161213687Y-84578230D01*
X160976668Y-84707652D01*
X160976660Y-84707657D01*
X160760472Y-84869493D01*
X160760454Y-84869509D01*
X160569509Y-85060454D01*
X160569493Y-85060472D01*
X160407657Y-85276660D01*
X160407652Y-85276668D01*
X160278230Y-85513687D01*
X160278228Y-85513691D01*
X160183848Y-85766736D01*
X160126443Y-86030617D01*
X160107177Y-86299998D01*
X160107177Y-86300001D01*
X160126443Y-86569382D01*
X160170774Y-86773163D01*
X160183850Y-86833270D01*
X160224055Y-86941063D01*
X160278228Y-87086308D01*
X160278230Y-87086312D01*
X160407652Y-87323331D01*
X160407657Y-87323339D01*
X160569493Y-87539527D01*
X160569509Y-87539545D01*
X160760454Y-87730490D01*
X160760472Y-87730506D01*
X160976660Y-87892342D01*
X160976668Y-87892347D01*
X161213687Y-88021769D01*
X161213691Y-88021771D01*
X161213693Y-88021772D01*
X161466730Y-88116150D01*
X161564490Y-88137416D01*
X161674112Y-88161264D01*
X161735435Y-88194749D01*
X161768920Y-88256072D01*
X161764795Y-88323385D01*
X161714633Y-88466737D01*
X161714630Y-88466750D01*
X161694435Y-88645996D01*
X161694435Y-88646003D01*
X161714630Y-88825249D01*
X161714632Y-88825257D01*
X161767563Y-88976526D01*
X161771124Y-89046305D01*
X161736395Y-89106932D01*
X161676879Y-89138646D01*
X161466877Y-89184329D01*
X161213905Y-89278682D01*
X161213900Y-89278684D01*
X161157829Y-89309301D01*
X161157828Y-89309301D01*
X161926190Y-90077662D01*
X161806622Y-90090230D01*
X161621696Y-90150316D01*
X161453304Y-90247537D01*
X161308805Y-90377645D01*
X161194514Y-90534952D01*
X161115427Y-90712585D01*
X161075000Y-90902779D01*
X161075000Y-90923527D01*
X160309301Y-90157828D01*
X160309301Y-90157829D01*
X160278684Y-90213900D01*
X160278682Y-90213905D01*
X160184329Y-90466876D01*
X160126940Y-90730689D01*
X160107679Y-90999998D01*
X160107679Y-91000001D01*
X160126940Y-91269310D01*
X160184329Y-91533123D01*
X160278684Y-91786100D01*
X160278686Y-91786104D01*
X160408074Y-92023060D01*
X160408075Y-92023061D01*
X160517465Y-92169189D01*
X160541882Y-92234654D01*
X160527030Y-92302927D01*
X160477625Y-92352332D01*
X160418198Y-92367500D01*
X158441883Y-92367500D01*
X158304088Y-92382486D01*
X158128776Y-92441557D01*
X158128774Y-92441558D01*
X157970262Y-92536931D01*
X157970261Y-92536932D01*
X157835959Y-92664149D01*
X157732138Y-92817276D01*
X157663669Y-92989122D01*
X157633740Y-93171685D01*
X154138037Y-93171685D01*
X154107548Y-93130957D01*
X154107546Y-93130954D01*
X154107542Y-93130951D01*
X154101807Y-93125215D01*
X154068325Y-93063890D01*
X154073312Y-92994199D01*
X154098269Y-92953547D01*
X154108581Y-92942346D01*
X154108584Y-92942342D01*
X154235482Y-92748111D01*
X154328682Y-92535635D01*
X154385638Y-92310718D01*
X154404798Y-92079505D01*
X154404798Y-92079494D01*
X154385638Y-91848281D01*
X154328682Y-91623364D01*
X154328680Y-91623360D01*
X154321359Y-91606667D01*
X153087680Y-92840346D01*
X153026357Y-92873831D01*
X152956665Y-92868847D01*
X152912318Y-92840346D01*
X152117465Y-92045492D01*
X152546190Y-92045492D01*
X152556327Y-92180765D01*
X152605887Y-92307041D01*
X152690465Y-92413099D01*
X152802547Y-92489516D01*
X152932173Y-92529500D01*
X153033724Y-92529500D01*
X153134138Y-92514365D01*
X153256357Y-92455507D01*
X153355798Y-92363240D01*
X153423625Y-92245760D01*
X153453810Y-92113508D01*
X153443673Y-91978235D01*
X153394113Y-91851959D01*
X153309535Y-91745901D01*
X153197453Y-91669484D01*
X153067827Y-91629500D01*
X152966276Y-91629500D01*
X152865862Y-91644635D01*
X152743643Y-91703493D01*
X152644202Y-91795760D01*
X152576375Y-91913240D01*
X152546190Y-92045492D01*
X152117465Y-92045492D01*
X151678640Y-91606667D01*
X151671318Y-91623361D01*
X151614361Y-91848281D01*
X151595202Y-92079494D01*
X151595202Y-92079505D01*
X151614361Y-92310718D01*
X151671317Y-92535635D01*
X151764516Y-92748109D01*
X151891417Y-92942346D01*
X151901738Y-92953558D01*
X151932659Y-93016213D01*
X151924796Y-93085639D01*
X151898195Y-93125212D01*
X151892452Y-93130955D01*
X151806206Y-93246164D01*
X151806202Y-93246171D01*
X151755908Y-93381017D01*
X151749501Y-93440616D01*
X151749500Y-93440629D01*
X151749500Y-95036370D01*
X151749501Y-95036376D01*
X151755908Y-95095983D01*
X151806202Y-95230828D01*
X151806204Y-95230831D01*
X151814750Y-95242247D01*
X151839168Y-95307711D01*
X151824317Y-95375985D01*
X151774912Y-95425390D01*
X151771135Y-95427369D01*
X151572330Y-95527212D01*
X151294920Y-95709668D01*
X151294912Y-95709674D01*
X151088936Y-95882508D01*
X151040553Y-95923107D01*
X150812690Y-96164629D01*
X150812687Y-96164632D01*
X150812685Y-96164635D01*
X150812678Y-96164643D01*
X150723963Y-96283809D01*
X150668140Y-96325828D01*
X150598462Y-96330996D01*
X150537051Y-96297674D01*
X150503404Y-96236439D01*
X150500500Y-96209761D01*
X150500500Y-89920506D01*
X151594700Y-89920506D01*
X151613864Y-90151797D01*
X151613866Y-90151808D01*
X151670842Y-90376800D01*
X151764075Y-90589348D01*
X151891016Y-90783647D01*
X151891019Y-90783651D01*
X151891021Y-90783653D01*
X152048216Y-90954413D01*
X152048219Y-90954415D01*
X152048222Y-90954418D01*
X152231365Y-91096964D01*
X152231371Y-91096968D01*
X152231374Y-91096970D01*
X152435497Y-91207436D01*
X152549487Y-91246568D01*
X152655015Y-91282797D01*
X152655017Y-91282797D01*
X152655019Y-91282798D01*
X152883951Y-91321000D01*
X152883952Y-91321000D01*
X153116048Y-91321000D01*
X153116049Y-91321000D01*
X153344981Y-91282798D01*
X153564503Y-91207436D01*
X153768626Y-91096970D01*
X153951784Y-90954413D01*
X154108979Y-90783653D01*
X154235924Y-90589349D01*
X154329157Y-90376800D01*
X154386134Y-90151805D01*
X154386162Y-90151472D01*
X154405300Y-89920506D01*
X154405300Y-89920493D01*
X154386135Y-89689202D01*
X154386133Y-89689191D01*
X154329157Y-89464199D01*
X154235924Y-89251651D01*
X154108983Y-89057352D01*
X154108980Y-89057349D01*
X154108979Y-89057347D01*
X153987128Y-88924980D01*
X153956207Y-88862328D01*
X153964067Y-88792902D01*
X153987127Y-88757020D01*
X154108979Y-88624653D01*
X154235924Y-88430349D01*
X154329157Y-88217800D01*
X154386134Y-87992805D01*
X154386135Y-87992797D01*
X154405300Y-87761506D01*
X154405300Y-87761493D01*
X154386135Y-87530202D01*
X154386133Y-87530191D01*
X154329157Y-87305199D01*
X154235924Y-87092651D01*
X154108983Y-86898352D01*
X154108980Y-86898349D01*
X154108979Y-86898347D01*
X153951784Y-86727587D01*
X153951779Y-86727583D01*
X153951777Y-86727581D01*
X153768634Y-86585035D01*
X153768628Y-86585031D01*
X153696720Y-86546116D01*
X156235100Y-86546116D01*
X156250086Y-86683911D01*
X156309157Y-86859223D01*
X156309158Y-86859225D01*
X156404531Y-87017737D01*
X156404532Y-87017738D01*
X156531749Y-87152040D01*
X156570030Y-87177995D01*
X156684870Y-87255858D01*
X156684873Y-87255859D01*
X156684876Y-87255861D01*
X156854215Y-87323331D01*
X156856725Y-87324331D01*
X157039283Y-87354260D01*
X157224007Y-87344245D01*
X157224011Y-87344244D01*
X157402256Y-87294755D01*
X157402256Y-87294754D01*
X157402259Y-87294754D01*
X157565704Y-87208100D01*
X157706700Y-87088337D01*
X157818654Y-86941064D01*
X157896332Y-86773167D01*
X157936100Y-86592497D01*
X157936100Y-84400000D01*
X169650000Y-84400000D01*
X169650000Y-84697844D01*
X169656401Y-84757372D01*
X169656403Y-84757379D01*
X169706645Y-84892086D01*
X169706649Y-84892093D01*
X169792809Y-85007187D01*
X169792812Y-85007190D01*
X169907906Y-85093350D01*
X169907913Y-85093354D01*
X170042620Y-85143596D01*
X170042627Y-85143598D01*
X170102155Y-85149999D01*
X170102172Y-85150000D01*
X170400000Y-85150000D01*
X170400000Y-84400000D01*
X171600000Y-84400000D01*
X171600000Y-85150000D01*
X171897828Y-85150000D01*
X171897844Y-85149999D01*
X171957372Y-85143598D01*
X171957379Y-85143596D01*
X172092086Y-85093354D01*
X172092093Y-85093350D01*
X172207187Y-85007190D01*
X172207190Y-85007187D01*
X172293350Y-84892093D01*
X172293354Y-84892086D01*
X172343596Y-84757379D01*
X172343598Y-84757372D01*
X172349999Y-84697844D01*
X172350000Y-84697827D01*
X172350000Y-84400000D01*
X171600000Y-84400000D01*
X170400000Y-84400000D01*
X169650000Y-84400000D01*
X157936100Y-84400000D01*
X157936100Y-83871889D01*
X170500000Y-83871889D01*
X170540507Y-84009844D01*
X170618239Y-84130798D01*
X170726900Y-84224952D01*
X170857685Y-84284680D01*
X170964237Y-84300000D01*
X171035763Y-84300000D01*
X171142315Y-84284680D01*
X171273100Y-84224952D01*
X171381761Y-84130798D01*
X171459493Y-84009844D01*
X171500000Y-83871889D01*
X171500000Y-83728111D01*
X171459493Y-83590156D01*
X171381761Y-83469202D01*
X171273100Y-83375048D01*
X171142315Y-83315320D01*
X171035763Y-83300000D01*
X170964237Y-83300000D01*
X170857685Y-83315320D01*
X170726900Y-83375048D01*
X170618239Y-83469202D01*
X170540507Y-83590156D01*
X170500000Y-83728111D01*
X170500000Y-83871889D01*
X157936100Y-83871889D01*
X157936100Y-83453887D01*
X157921114Y-83316090D01*
X157862044Y-83140779D01*
X157766670Y-82982264D01*
X157690803Y-82902172D01*
X157639450Y-82847959D01*
X157556765Y-82791898D01*
X157486330Y-82744142D01*
X157486327Y-82744140D01*
X157486323Y-82744138D01*
X157314477Y-82675669D01*
X157241451Y-82663697D01*
X157131917Y-82645740D01*
X157131914Y-82645740D01*
X156947193Y-82655755D01*
X156947188Y-82655755D01*
X156768943Y-82705244D01*
X156768937Y-82705247D01*
X156605497Y-82791898D01*
X156464500Y-82911662D01*
X156352546Y-83058936D01*
X156274868Y-83226832D01*
X156274866Y-83226836D01*
X156235100Y-83407502D01*
X156235100Y-86546116D01*
X153696720Y-86546116D01*
X153564504Y-86474564D01*
X153564495Y-86474561D01*
X153344984Y-86399202D01*
X153173282Y-86370550D01*
X153116049Y-86361000D01*
X152883951Y-86361000D01*
X152838164Y-86368640D01*
X152655015Y-86399202D01*
X152435504Y-86474561D01*
X152435495Y-86474564D01*
X152231371Y-86585031D01*
X152231365Y-86585035D01*
X152048222Y-86727581D01*
X152048219Y-86727584D01*
X151891016Y-86898352D01*
X151764075Y-87092651D01*
X151670842Y-87305199D01*
X151613866Y-87530191D01*
X151613864Y-87530202D01*
X151594700Y-87761493D01*
X151594700Y-87761506D01*
X151613864Y-87992797D01*
X151613866Y-87992808D01*
X151670842Y-88217800D01*
X151764075Y-88430348D01*
X151787858Y-88466750D01*
X151891021Y-88624653D01*
X151910675Y-88646003D01*
X152012870Y-88757018D01*
X152043792Y-88819673D01*
X152035931Y-88889099D01*
X152012870Y-88924982D01*
X151891019Y-89057349D01*
X151764075Y-89251651D01*
X151670842Y-89464199D01*
X151613866Y-89689191D01*
X151613864Y-89689202D01*
X151594700Y-89920493D01*
X151594700Y-89920506D01*
X150500500Y-89920506D01*
X150500500Y-81534003D01*
X160222435Y-81534003D01*
X160242630Y-81713249D01*
X160242631Y-81713254D01*
X160302211Y-81883523D01*
X160340897Y-81945091D01*
X160398184Y-82036262D01*
X160525738Y-82163816D01*
X160598025Y-82209237D01*
X160668809Y-82253714D01*
X160678478Y-82259789D01*
X160836368Y-82315037D01*
X160848745Y-82319368D01*
X160848750Y-82319369D01*
X161027996Y-82339565D01*
X161028000Y-82339565D01*
X161028004Y-82339565D01*
X161207249Y-82319369D01*
X161207252Y-82319368D01*
X161207255Y-82319368D01*
X161287017Y-82291457D01*
X161327972Y-82284500D01*
X164907499Y-82284500D01*
X164925469Y-82285809D01*
X164949227Y-82289289D01*
X164998573Y-82284971D01*
X165009380Y-82284500D01*
X165014908Y-82284500D01*
X165014913Y-82284500D01*
X165045760Y-82280893D01*
X165049234Y-82280539D01*
X165124001Y-82273999D01*
X165124009Y-82273996D01*
X165131070Y-82272539D01*
X165131082Y-82272598D01*
X165138447Y-82270965D01*
X165138433Y-82270906D01*
X165145453Y-82269241D01*
X165145459Y-82269241D01*
X165215983Y-82243572D01*
X165219321Y-82242412D01*
X165290538Y-82218814D01*
X165290546Y-82218808D01*
X165297086Y-82215760D01*
X165297112Y-82215816D01*
X165303894Y-82212532D01*
X165303867Y-82212478D01*
X165310317Y-82209238D01*
X165310321Y-82209237D01*
X165373041Y-82167984D01*
X165375936Y-82166140D01*
X165439860Y-82126712D01*
X165439866Y-82126705D01*
X165445529Y-82122229D01*
X165445566Y-82122277D01*
X165451408Y-82117518D01*
X165451368Y-82117471D01*
X165456890Y-82112835D01*
X165456900Y-82112830D01*
X165508389Y-82058253D01*
X165510836Y-82055734D01*
X167610638Y-79955931D01*
X167624267Y-79944154D01*
X167643530Y-79929814D01*
X167675366Y-79891873D01*
X167682683Y-79883888D01*
X167683992Y-79882577D01*
X167686591Y-79879980D01*
X167705853Y-79855617D01*
X167708076Y-79852890D01*
X167756302Y-79795418D01*
X167756304Y-79795413D01*
X167760274Y-79789379D01*
X167760325Y-79789412D01*
X167764369Y-79783064D01*
X167764317Y-79783032D01*
X167768106Y-79776886D01*
X167768111Y-79776881D01*
X167799832Y-79708851D01*
X167801358Y-79705700D01*
X167835040Y-79638637D01*
X167835041Y-79638632D01*
X167837508Y-79631854D01*
X167837566Y-79631875D01*
X167840043Y-79624748D01*
X167839986Y-79624730D01*
X167842256Y-79617880D01*
X167847723Y-79591401D01*
X167857439Y-79544343D01*
X167858187Y-79540966D01*
X167875500Y-79467925D01*
X167875500Y-79467921D01*
X167875501Y-79467917D01*
X167876339Y-79460752D01*
X167876398Y-79460758D01*
X167877164Y-79453258D01*
X167877105Y-79453253D01*
X167877734Y-79446063D01*
X167876330Y-79397828D01*
X167875552Y-79371073D01*
X167875500Y-79367466D01*
X167875500Y-75188705D01*
X167876809Y-75170735D01*
X167877129Y-75168547D01*
X167880289Y-75146977D01*
X167879810Y-75141506D01*
X167875972Y-75097630D01*
X167875500Y-75086822D01*
X167875500Y-75081296D01*
X167875500Y-75081291D01*
X167871901Y-75050509D01*
X167871536Y-75046929D01*
X167864999Y-74972201D01*
X167863539Y-74965129D01*
X167863597Y-74965116D01*
X167861965Y-74957757D01*
X167861906Y-74957772D01*
X167860241Y-74950751D01*
X167860241Y-74950745D01*
X167834569Y-74880212D01*
X167833421Y-74876909D01*
X167809814Y-74805666D01*
X167809810Y-74805659D01*
X167806760Y-74799118D01*
X167806815Y-74799091D01*
X167803533Y-74792313D01*
X167803480Y-74792340D01*
X167800235Y-74785880D01*
X167759016Y-74723209D01*
X167757076Y-74720164D01*
X167748184Y-74705747D01*
X167736683Y-74681608D01*
X167725790Y-74650480D01*
X167725789Y-74650478D01*
X167631237Y-74500000D01*
X168594540Y-74500000D01*
X168614326Y-74688256D01*
X168614327Y-74688259D01*
X168672818Y-74868277D01*
X168672821Y-74868284D01*
X168732817Y-74972201D01*
X168732887Y-74972321D01*
X168749500Y-75034321D01*
X168749500Y-77936294D01*
X168748191Y-77954263D01*
X168744710Y-77978025D01*
X168749028Y-78027368D01*
X168749500Y-78038176D01*
X168749500Y-78043711D01*
X168753098Y-78074495D01*
X168753464Y-78078083D01*
X168760000Y-78152791D01*
X168761461Y-78159867D01*
X168761403Y-78159878D01*
X168763034Y-78167237D01*
X168763092Y-78167224D01*
X168764757Y-78174249D01*
X168790400Y-78244705D01*
X168791582Y-78248107D01*
X168815182Y-78319326D01*
X168818236Y-78325874D01*
X168818182Y-78325898D01*
X168821470Y-78332688D01*
X168821521Y-78332663D01*
X168824761Y-78339114D01*
X168865979Y-78401784D01*
X168867889Y-78404782D01*
X168884259Y-78431320D01*
X168907289Y-78468658D01*
X168911766Y-78474319D01*
X168911719Y-78474356D01*
X168916482Y-78480202D01*
X168916528Y-78480164D01*
X168921173Y-78485699D01*
X168975707Y-78537149D01*
X168978295Y-78539663D01*
X169644270Y-79205638D01*
X169656051Y-79219270D01*
X169670388Y-79238528D01*
X169708337Y-79270372D01*
X169716310Y-79277679D01*
X169720218Y-79281587D01*
X169720222Y-79281590D01*
X169720223Y-79281591D01*
X169744571Y-79300843D01*
X169747317Y-79303080D01*
X169782876Y-79332917D01*
X169815551Y-79375499D01*
X169825963Y-79397828D01*
X169825965Y-79397831D01*
X169961501Y-79591395D01*
X169961506Y-79591402D01*
X170128597Y-79758493D01*
X170128603Y-79758498D01*
X170314158Y-79888425D01*
X170357783Y-79943002D01*
X170364977Y-80012500D01*
X170333454Y-80074855D01*
X170314158Y-80091575D01*
X170128597Y-80221505D01*
X169961508Y-80388595D01*
X169961503Y-80388601D01*
X169899796Y-80476726D01*
X169845218Y-80520350D01*
X169837225Y-80523307D01*
X169680669Y-80575183D01*
X169531345Y-80667287D01*
X169418410Y-80780221D01*
X169336887Y-80883325D01*
X169262742Y-81042328D01*
X169227266Y-81214141D01*
X169227266Y-81214143D01*
X169227266Y-81214144D01*
X169232369Y-81389512D01*
X169232369Y-81389515D01*
X169232370Y-81389516D01*
X169277776Y-81558975D01*
X169277777Y-81558976D01*
X169361041Y-81713400D01*
X169477674Y-81844459D01*
X169621388Y-81945088D01*
X169621393Y-81945090D01*
X169621395Y-81945091D01*
X169784430Y-82009861D01*
X169784433Y-82009862D01*
X169833990Y-82017121D01*
X169897467Y-82046312D01*
X169917588Y-82068682D01*
X169961505Y-82131401D01*
X169961509Y-82131405D01*
X170083818Y-82253714D01*
X170117303Y-82315037D01*
X170112319Y-82384729D01*
X170070447Y-82440662D01*
X170039471Y-82457577D01*
X169907912Y-82506646D01*
X169907906Y-82506649D01*
X169792812Y-82592809D01*
X169792809Y-82592812D01*
X169706649Y-82707906D01*
X169706645Y-82707913D01*
X169656403Y-82842620D01*
X169656401Y-82842627D01*
X169650000Y-82902155D01*
X169650000Y-83200000D01*
X172350000Y-83200000D01*
X172350000Y-82902172D01*
X172349999Y-82902155D01*
X172343598Y-82842627D01*
X172343596Y-82842620D01*
X172293354Y-82707913D01*
X172293350Y-82707906D01*
X172207190Y-82592812D01*
X172207187Y-82592809D01*
X172092093Y-82506649D01*
X172092088Y-82506646D01*
X171960528Y-82457577D01*
X171904595Y-82415705D01*
X171880178Y-82350241D01*
X171895030Y-82281968D01*
X171916175Y-82253720D01*
X172038495Y-82131401D01*
X172174035Y-81937830D01*
X172273903Y-81723663D01*
X172335063Y-81495408D01*
X172355659Y-81260000D01*
X172335063Y-81024592D01*
X172273903Y-80796337D01*
X172174035Y-80582171D01*
X172132819Y-80523307D01*
X172038494Y-80388597D01*
X171871402Y-80221506D01*
X171871396Y-80221501D01*
X171685842Y-80091575D01*
X171642217Y-80036998D01*
X171635023Y-79967500D01*
X171666546Y-79905145D01*
X171685842Y-79888425D01*
X171804665Y-79805224D01*
X171871401Y-79758495D01*
X172038495Y-79591401D01*
X172174035Y-79397830D01*
X172273903Y-79183663D01*
X172335063Y-78955408D01*
X172355659Y-78720000D01*
X172335063Y-78484592D01*
X172273903Y-78256337D01*
X172174035Y-78042171D01*
X172167449Y-78032764D01*
X172038494Y-77848597D01*
X171871402Y-77681506D01*
X171871396Y-77681501D01*
X171685842Y-77551575D01*
X171642217Y-77496998D01*
X171635023Y-77427500D01*
X171666546Y-77365145D01*
X171685842Y-77348425D01*
X171759170Y-77297080D01*
X171871401Y-77218495D01*
X172038495Y-77051401D01*
X172174035Y-76857830D01*
X172273903Y-76643663D01*
X172335063Y-76415408D01*
X172355659Y-76180000D01*
X172335063Y-75944592D01*
X172273903Y-75716337D01*
X172174035Y-75502171D01*
X172157728Y-75478881D01*
X172038494Y-75308597D01*
X171871402Y-75141506D01*
X171871395Y-75141501D01*
X171677834Y-75005967D01*
X171677830Y-75005965D01*
X171590229Y-74965116D01*
X171463663Y-74906097D01*
X171463659Y-74906096D01*
X171463655Y-74906094D01*
X171235413Y-74844938D01*
X171235403Y-74844936D01*
X171000001Y-74824341D01*
X170999999Y-74824341D01*
X170764596Y-74844936D01*
X170764586Y-74844938D01*
X170536344Y-74906094D01*
X170536323Y-74906102D01*
X170533797Y-74907280D01*
X170532581Y-74907464D01*
X170531256Y-74907947D01*
X170531158Y-74907680D01*
X170464719Y-74917764D01*
X170400938Y-74889237D01*
X170362706Y-74830756D01*
X170362159Y-74760888D01*
X170363465Y-74756604D01*
X170385674Y-74688256D01*
X170405460Y-74500000D01*
X170385674Y-74311744D01*
X170327179Y-74131716D01*
X170232533Y-73967784D01*
X170105871Y-73827112D01*
X170105870Y-73827111D01*
X169952734Y-73715851D01*
X169952729Y-73715848D01*
X169779807Y-73638857D01*
X169779802Y-73638855D01*
X169634001Y-73607865D01*
X169594646Y-73599500D01*
X169405354Y-73599500D01*
X169372897Y-73606398D01*
X169220197Y-73638855D01*
X169220192Y-73638857D01*
X169047270Y-73715848D01*
X169047265Y-73715851D01*
X168894129Y-73827111D01*
X168767466Y-73967785D01*
X168672821Y-74131715D01*
X168672818Y-74131722D01*
X168614885Y-74310024D01*
X168614326Y-74311744D01*
X168594540Y-74500000D01*
X167631237Y-74500000D01*
X167629816Y-74497738D01*
X167502262Y-74370184D01*
X167448702Y-74336530D01*
X167349523Y-74274211D01*
X167179254Y-74214631D01*
X167179249Y-74214630D01*
X167000004Y-74194435D01*
X166999996Y-74194435D01*
X166820750Y-74214630D01*
X166820745Y-74214631D01*
X166650476Y-74274211D01*
X166497737Y-74370184D01*
X166370184Y-74497737D01*
X166274211Y-74650476D01*
X166214631Y-74820745D01*
X166214630Y-74820750D01*
X166194435Y-74999996D01*
X166194435Y-75000003D01*
X166214630Y-75179249D01*
X166214631Y-75179254D01*
X166274211Y-75349524D01*
X166355493Y-75478881D01*
X166374500Y-75544854D01*
X166374500Y-76935737D01*
X166354815Y-77002776D01*
X166302011Y-77048531D01*
X166232853Y-77058475D01*
X166169297Y-77029450D01*
X166167754Y-77028090D01*
X166149327Y-77011580D01*
X166149324Y-77011578D01*
X166149323Y-77011577D01*
X165920359Y-76860096D01*
X165671779Y-76743567D01*
X165524362Y-76699216D01*
X165408879Y-76664472D01*
X165267425Y-76643655D01*
X165137269Y-76624500D01*
X164931453Y-76624500D01*
X164931435Y-76624500D01*
X164726195Y-76639523D01*
X164726185Y-76639524D01*
X164458229Y-76699214D01*
X164458224Y-76699216D01*
X164201799Y-76797290D01*
X163962392Y-76931652D01*
X163962387Y-76931655D01*
X163745097Y-77099441D01*
X163745088Y-77099450D01*
X163554549Y-77297080D01*
X163554547Y-77297082D01*
X163394805Y-77520361D01*
X163394802Y-77520366D01*
X163269275Y-77764515D01*
X163269271Y-77764525D01*
X163180632Y-78024344D01*
X163180629Y-78024358D01*
X163130765Y-78294314D01*
X163130763Y-78294334D01*
X163120737Y-78568678D01*
X163150762Y-78841559D01*
X163150763Y-78841569D01*
X163220202Y-79107178D01*
X163316130Y-79332917D01*
X163327577Y-79359852D01*
X163438046Y-79540862D01*
X163470592Y-79594191D01*
X163470599Y-79594201D01*
X163646199Y-79805207D01*
X163646204Y-79805212D01*
X163646209Y-79805218D01*
X163646216Y-79805224D01*
X163850672Y-79988419D01*
X163850674Y-79988420D01*
X163850677Y-79988423D01*
X164079641Y-80139904D01*
X164328221Y-80256433D01*
X164591119Y-80335527D01*
X164797892Y-80365957D01*
X164861350Y-80395193D01*
X164898929Y-80454096D01*
X164898698Y-80523966D01*
X164867518Y-80576317D01*
X164696655Y-80747181D01*
X164635332Y-80780666D01*
X164608974Y-80783500D01*
X161327972Y-80783500D01*
X161287017Y-80776542D01*
X161207254Y-80748631D01*
X161207249Y-80748630D01*
X161028004Y-80728435D01*
X161027996Y-80728435D01*
X160848750Y-80748630D01*
X160848745Y-80748631D01*
X160678476Y-80808211D01*
X160525737Y-80904184D01*
X160398184Y-81031737D01*
X160302211Y-81184476D01*
X160242631Y-81354745D01*
X160242630Y-81354750D01*
X160222435Y-81533996D01*
X160222435Y-81534003D01*
X150500500Y-81534003D01*
X150500500Y-78568678D01*
X151690737Y-78568678D01*
X151720762Y-78841559D01*
X151720763Y-78841569D01*
X151790202Y-79107178D01*
X151886130Y-79332917D01*
X151897577Y-79359852D01*
X152008046Y-79540862D01*
X152040592Y-79594191D01*
X152040599Y-79594201D01*
X152216199Y-79805207D01*
X152216204Y-79805212D01*
X152216209Y-79805218D01*
X152216216Y-79805224D01*
X152420672Y-79988419D01*
X152420674Y-79988420D01*
X152420677Y-79988423D01*
X152649641Y-80139904D01*
X152898221Y-80256433D01*
X153161119Y-80335527D01*
X153432731Y-80375500D01*
X153432736Y-80375500D01*
X153638545Y-80375500D01*
X153638547Y-80375500D01*
X153638552Y-80375499D01*
X153638564Y-80375499D01*
X153676614Y-80372713D01*
X153843805Y-80360477D01*
X154111775Y-80300784D01*
X154368198Y-80202711D01*
X154607609Y-80068347D01*
X154824904Y-79900557D01*
X155015454Y-79702916D01*
X155175196Y-79479637D01*
X155300727Y-79235479D01*
X155389370Y-78975646D01*
X155439236Y-78705674D01*
X155449262Y-78431320D01*
X155419236Y-78158429D01*
X155349796Y-77892818D01*
X155242423Y-77640148D01*
X155099405Y-77405804D01*
X155065568Y-77365145D01*
X154923800Y-77194792D01*
X154923795Y-77194787D01*
X154923791Y-77194782D01*
X154771664Y-77058475D01*
X154719327Y-77011580D01*
X154719324Y-77011578D01*
X154719323Y-77011577D01*
X154490359Y-76860096D01*
X154241779Y-76743567D01*
X154094362Y-76699216D01*
X153978879Y-76664472D01*
X153837425Y-76643655D01*
X153707269Y-76624500D01*
X153501453Y-76624500D01*
X153501435Y-76624500D01*
X153296195Y-76639523D01*
X153296185Y-76639524D01*
X153028229Y-76699214D01*
X153028224Y-76699216D01*
X152771799Y-76797290D01*
X152532392Y-76931652D01*
X152532387Y-76931655D01*
X152315097Y-77099441D01*
X152315088Y-77099450D01*
X152124549Y-77297080D01*
X152124547Y-77297082D01*
X151964805Y-77520361D01*
X151964802Y-77520366D01*
X151839275Y-77764515D01*
X151839271Y-77764525D01*
X151750632Y-78024344D01*
X151750629Y-78024358D01*
X151700765Y-78294314D01*
X151700763Y-78294334D01*
X151690737Y-78568678D01*
X150500500Y-78568678D01*
X150500500Y-69610000D01*
X153611826Y-69610000D01*
X153630484Y-69823265D01*
X153630486Y-69823275D01*
X153685891Y-70030052D01*
X153685893Y-70030056D01*
X153685894Y-70030060D01*
X153776370Y-70224087D01*
X153776372Y-70224091D01*
X153899160Y-70399450D01*
X153899165Y-70399456D01*
X154050543Y-70550834D01*
X154050549Y-70550839D01*
X154225908Y-70673627D01*
X154225910Y-70673628D01*
X154225913Y-70673630D01*
X154419940Y-70764106D01*
X154626730Y-70819515D01*
X154797346Y-70834442D01*
X154839999Y-70838174D01*
X154840000Y-70838174D01*
X154840001Y-70838174D01*
X154875545Y-70835064D01*
X155053270Y-70819515D01*
X155260060Y-70764106D01*
X155454087Y-70673630D01*
X155629455Y-70550836D01*
X155780836Y-70399455D01*
X155903630Y-70224087D01*
X155994106Y-70030060D01*
X155994106Y-70030059D01*
X155996394Y-70025153D01*
X155997858Y-70025835D01*
X156034904Y-69975521D01*
X156100172Y-69950585D01*
X156168561Y-69964894D01*
X156218357Y-70013906D01*
X156223513Y-70025196D01*
X156223606Y-70025153D01*
X156225893Y-70030059D01*
X156225894Y-70030060D01*
X156316370Y-70224087D01*
X156316372Y-70224091D01*
X156439160Y-70399450D01*
X156439165Y-70399456D01*
X156590543Y-70550834D01*
X156590549Y-70550839D01*
X156765908Y-70673627D01*
X156765910Y-70673628D01*
X156765913Y-70673630D01*
X156959940Y-70764106D01*
X157166730Y-70819515D01*
X157337346Y-70834442D01*
X157379999Y-70838174D01*
X157380000Y-70838174D01*
X157380001Y-70838174D01*
X157415545Y-70835064D01*
X157593270Y-70819515D01*
X157800060Y-70764106D01*
X157994087Y-70673630D01*
X158169455Y-70550836D01*
X158320836Y-70399455D01*
X158443630Y-70224087D01*
X158534106Y-70030060D01*
X158534106Y-70030059D01*
X158536394Y-70025153D01*
X158537858Y-70025835D01*
X158574904Y-69975521D01*
X158640172Y-69950585D01*
X158708561Y-69964894D01*
X158758357Y-70013906D01*
X158763513Y-70025196D01*
X158763606Y-70025153D01*
X158765893Y-70030059D01*
X158765894Y-70030060D01*
X158856370Y-70224087D01*
X158856372Y-70224091D01*
X158979160Y-70399450D01*
X158979165Y-70399456D01*
X159130543Y-70550834D01*
X159130549Y-70550839D01*
X159305908Y-70673627D01*
X159305910Y-70673628D01*
X159305913Y-70673630D01*
X159499940Y-70764106D01*
X159706730Y-70819515D01*
X159877346Y-70834442D01*
X159919999Y-70838174D01*
X159920000Y-70838174D01*
X159920001Y-70838174D01*
X159955545Y-70835064D01*
X160133270Y-70819515D01*
X160340060Y-70764106D01*
X160534087Y-70673630D01*
X160709455Y-70550836D01*
X160860836Y-70399455D01*
X160983630Y-70224087D01*
X161074106Y-70030060D01*
X161074106Y-70030059D01*
X161076394Y-70025153D01*
X161077858Y-70025835D01*
X161114904Y-69975521D01*
X161180172Y-69950585D01*
X161248561Y-69964894D01*
X161298357Y-70013906D01*
X161303513Y-70025196D01*
X161303606Y-70025153D01*
X161305893Y-70030059D01*
X161305894Y-70030060D01*
X161396370Y-70224087D01*
X161396372Y-70224091D01*
X161519160Y-70399450D01*
X161519165Y-70399456D01*
X161670543Y-70550834D01*
X161670549Y-70550839D01*
X161845908Y-70673627D01*
X161845910Y-70673628D01*
X161845913Y-70673630D01*
X162039940Y-70764106D01*
X162246730Y-70819515D01*
X162417346Y-70834442D01*
X162459999Y-70838174D01*
X162460000Y-70838174D01*
X162460001Y-70838174D01*
X162510857Y-70833724D01*
X162591922Y-70826632D01*
X162660422Y-70840398D01*
X162710605Y-70889014D01*
X162726539Y-70957042D01*
X162703164Y-71022886D01*
X162677042Y-71049426D01*
X162649809Y-71069812D01*
X162563649Y-71184906D01*
X162563645Y-71184913D01*
X162513403Y-71319620D01*
X162513401Y-71319627D01*
X162507000Y-71379155D01*
X162507000Y-71519939D01*
X162487315Y-71586978D01*
X162434511Y-71632733D01*
X162365353Y-71642677D01*
X162301797Y-71613652D01*
X162270618Y-71572344D01*
X162269073Y-71569030D01*
X162253630Y-71535913D01*
X162253627Y-71535909D01*
X162253627Y-71535908D01*
X162130839Y-71360549D01*
X162130834Y-71360543D01*
X161979456Y-71209165D01*
X161979450Y-71209160D01*
X161804091Y-71086372D01*
X161804087Y-71086370D01*
X161724860Y-71049426D01*
X161610060Y-70995894D01*
X161610056Y-70995893D01*
X161610052Y-70995891D01*
X161403275Y-70940486D01*
X161403265Y-70940484D01*
X161190001Y-70921826D01*
X161189999Y-70921826D01*
X160976734Y-70940484D01*
X160976724Y-70940486D01*
X160769947Y-70995891D01*
X160769938Y-70995895D01*
X160575912Y-71086370D01*
X160575908Y-71086372D01*
X160400549Y-71209160D01*
X160400543Y-71209165D01*
X160249165Y-71360543D01*
X160249160Y-71360549D01*
X160126372Y-71535908D01*
X160126370Y-71535912D01*
X160126370Y-71535913D01*
X160040545Y-71719967D01*
X160033606Y-71734847D01*
X160032143Y-71734165D01*
X159995087Y-71784485D01*
X159929816Y-71809415D01*
X159861429Y-71795099D01*
X159811637Y-71746083D01*
X159806486Y-71734803D01*
X159806394Y-71734847D01*
X159804105Y-71729938D01*
X159713630Y-71535913D01*
X159713628Y-71535910D01*
X159713627Y-71535908D01*
X159590839Y-71360549D01*
X159590834Y-71360543D01*
X159439456Y-71209165D01*
X159439450Y-71209160D01*
X159264091Y-71086372D01*
X159264087Y-71086370D01*
X159184860Y-71049426D01*
X159070060Y-70995894D01*
X159070056Y-70995893D01*
X159070052Y-70995891D01*
X158863275Y-70940486D01*
X158863265Y-70940484D01*
X158650001Y-70921826D01*
X158649999Y-70921826D01*
X158436734Y-70940484D01*
X158436724Y-70940486D01*
X158229947Y-70995891D01*
X158229938Y-70995895D01*
X158035912Y-71086370D01*
X158035908Y-71086372D01*
X157860549Y-71209160D01*
X157860543Y-71209165D01*
X157709165Y-71360543D01*
X157709160Y-71360549D01*
X157586372Y-71535908D01*
X157586370Y-71535912D01*
X157586370Y-71535913D01*
X157500545Y-71719967D01*
X157493606Y-71734847D01*
X157492143Y-71734165D01*
X157455087Y-71784485D01*
X157389816Y-71809415D01*
X157321429Y-71795099D01*
X157271637Y-71746083D01*
X157266486Y-71734803D01*
X157266394Y-71734847D01*
X157264105Y-71729938D01*
X157173630Y-71535913D01*
X157173628Y-71535910D01*
X157173627Y-71535908D01*
X157050839Y-71360549D01*
X157050834Y-71360543D01*
X156899456Y-71209165D01*
X156899450Y-71209160D01*
X156724091Y-71086372D01*
X156724087Y-71086370D01*
X156644860Y-71049426D01*
X156530060Y-70995894D01*
X156530056Y-70995893D01*
X156530052Y-70995891D01*
X156323275Y-70940486D01*
X156323265Y-70940484D01*
X156110001Y-70921826D01*
X156109999Y-70921826D01*
X155896734Y-70940484D01*
X155896724Y-70940486D01*
X155689947Y-70995891D01*
X155689938Y-70995895D01*
X155495912Y-71086370D01*
X155495908Y-71086372D01*
X155320549Y-71209160D01*
X155320543Y-71209165D01*
X155169165Y-71360543D01*
X155169160Y-71360549D01*
X155046372Y-71535908D01*
X155046370Y-71535912D01*
X155029382Y-71572344D01*
X154960545Y-71719967D01*
X154955895Y-71729938D01*
X154955891Y-71729947D01*
X154900486Y-71936724D01*
X154900484Y-71936734D01*
X154881826Y-72149999D01*
X154881826Y-72150000D01*
X154900484Y-72363265D01*
X154900486Y-72363275D01*
X154955891Y-72570052D01*
X154955893Y-72570056D01*
X154955894Y-72570060D01*
X154980026Y-72621811D01*
X155046370Y-72764087D01*
X155046372Y-72764091D01*
X155168553Y-72938583D01*
X155169164Y-72939455D01*
X155260384Y-73030675D01*
X155321933Y-73092224D01*
X155355417Y-73153547D01*
X155357779Y-73169094D01*
X155359028Y-73183365D01*
X155359500Y-73194176D01*
X155359500Y-73199711D01*
X155363098Y-73230495D01*
X155363464Y-73234083D01*
X155370000Y-73308791D01*
X155371461Y-73315867D01*
X155371403Y-73315878D01*
X155373034Y-73323237D01*
X155373092Y-73323224D01*
X155374757Y-73330249D01*
X155374758Y-73330254D01*
X155374759Y-73330255D01*
X155399764Y-73398959D01*
X155400400Y-73400705D01*
X155401582Y-73404107D01*
X155425182Y-73475326D01*
X155428236Y-73481874D01*
X155428182Y-73481898D01*
X155431470Y-73488688D01*
X155431521Y-73488663D01*
X155434761Y-73495114D01*
X155475979Y-73557784D01*
X155477889Y-73560782D01*
X155508972Y-73611174D01*
X155517289Y-73624658D01*
X155521766Y-73630319D01*
X155521719Y-73630356D01*
X155526482Y-73636202D01*
X155526528Y-73636164D01*
X155531173Y-73641699D01*
X155585709Y-73693151D01*
X155588297Y-73695665D01*
X156196268Y-74303635D01*
X156208049Y-74317267D01*
X156222390Y-74336530D01*
X156260343Y-74368376D01*
X156268319Y-74375686D01*
X156272219Y-74379587D01*
X156296544Y-74398821D01*
X156299340Y-74401099D01*
X156327062Y-74424360D01*
X156356786Y-74449302D01*
X156356794Y-74449306D01*
X156362824Y-74453273D01*
X156362790Y-74453323D01*
X156369137Y-74457366D01*
X156369169Y-74457316D01*
X156375321Y-74461110D01*
X156443294Y-74492806D01*
X156446510Y-74494362D01*
X156513567Y-74528040D01*
X156513576Y-74528042D01*
X156520355Y-74530510D01*
X156520334Y-74530567D01*
X156527451Y-74533040D01*
X156527470Y-74532984D01*
X156534324Y-74535255D01*
X156534325Y-74535255D01*
X156534327Y-74535256D01*
X156607848Y-74550436D01*
X156611209Y-74551181D01*
X156684279Y-74568500D01*
X156684285Y-74568500D01*
X156691452Y-74569338D01*
X156691445Y-74569397D01*
X156698946Y-74570163D01*
X156698952Y-74570104D01*
X156706141Y-74570733D01*
X156706143Y-74570732D01*
X156706144Y-74570733D01*
X156781111Y-74568552D01*
X156784717Y-74568500D01*
X161467254Y-74568500D01*
X161485224Y-74569809D01*
X161508982Y-74573289D01*
X161558328Y-74568971D01*
X161569135Y-74568500D01*
X161574663Y-74568500D01*
X161574668Y-74568500D01*
X161605515Y-74564893D01*
X161608989Y-74564539D01*
X161683756Y-74557999D01*
X161683764Y-74557996D01*
X161690825Y-74556539D01*
X161690837Y-74556598D01*
X161698202Y-74554965D01*
X161698188Y-74554906D01*
X161705208Y-74553241D01*
X161705214Y-74553241D01*
X161775738Y-74527572D01*
X161779076Y-74526412D01*
X161850293Y-74502814D01*
X161850301Y-74502808D01*
X161856841Y-74499760D01*
X161856867Y-74499816D01*
X161863649Y-74496532D01*
X161863622Y-74496478D01*
X161870072Y-74493238D01*
X161870076Y-74493237D01*
X161932796Y-74451984D01*
X161935691Y-74450140D01*
X161999615Y-74410712D01*
X161999621Y-74410705D01*
X162005284Y-74406229D01*
X162005321Y-74406277D01*
X162011163Y-74401518D01*
X162011123Y-74401471D01*
X162016645Y-74396835D01*
X162016655Y-74396830D01*
X162068129Y-74342269D01*
X162070610Y-74339716D01*
X162102770Y-74307556D01*
X162164093Y-74274071D01*
X162164671Y-74273947D01*
X162194101Y-74267691D01*
X162229803Y-74260103D01*
X162229806Y-74260101D01*
X162229808Y-74260101D01*
X162331931Y-74214632D01*
X162402730Y-74183110D01*
X162555871Y-74071847D01*
X162682533Y-73931175D01*
X162777179Y-73767243D01*
X162835674Y-73587215D01*
X162846518Y-73484035D01*
X162873101Y-73419424D01*
X162930398Y-73379439D01*
X162969838Y-73373000D01*
X163130000Y-73373000D01*
X163130000Y-72750000D01*
X164330000Y-72750000D01*
X164330000Y-73373000D01*
X164500828Y-73373000D01*
X164500844Y-73372999D01*
X164560372Y-73366598D01*
X164560379Y-73366596D01*
X164695086Y-73316354D01*
X164695093Y-73316350D01*
X164810187Y-73230190D01*
X164810190Y-73230187D01*
X164896350Y-73115093D01*
X164896354Y-73115086D01*
X164946596Y-72980379D01*
X164946598Y-72980372D01*
X164952999Y-72920844D01*
X164953000Y-72920827D01*
X164953000Y-72750000D01*
X164330000Y-72750000D01*
X163130000Y-72750000D01*
X163130000Y-72116370D01*
X163281232Y-72116370D01*
X163291257Y-72250140D01*
X163340266Y-72375013D01*
X163423905Y-72479892D01*
X163534741Y-72555459D01*
X163662927Y-72595000D01*
X163763346Y-72595000D01*
X163862647Y-72580033D01*
X163983509Y-72521829D01*
X164081844Y-72430587D01*
X164148917Y-72314413D01*
X164178768Y-72183630D01*
X164168743Y-72049860D01*
X164119734Y-71924987D01*
X164036095Y-71820108D01*
X163925259Y-71744541D01*
X163797073Y-71705000D01*
X163696654Y-71705000D01*
X163597353Y-71719967D01*
X163476491Y-71778171D01*
X163378156Y-71869413D01*
X163311083Y-71985587D01*
X163281232Y-72116370D01*
X163130000Y-72116370D01*
X163130000Y-70927000D01*
X164330000Y-70927000D01*
X164330000Y-71550000D01*
X164953000Y-71550000D01*
X164953000Y-71379172D01*
X164952999Y-71379155D01*
X164946598Y-71319627D01*
X164946596Y-71319620D01*
X164896354Y-71184913D01*
X164896350Y-71184906D01*
X164810190Y-71069812D01*
X164810187Y-71069809D01*
X164695093Y-70983649D01*
X164695086Y-70983645D01*
X164560379Y-70933403D01*
X164560372Y-70933401D01*
X164500844Y-70927000D01*
X164330000Y-70927000D01*
X163130000Y-70927000D01*
X163090060Y-70927000D01*
X163023021Y-70907315D01*
X162977266Y-70854511D01*
X162967322Y-70785353D01*
X162996347Y-70721797D01*
X163037656Y-70690618D01*
X163074087Y-70673630D01*
X163249455Y-70550836D01*
X163400836Y-70399455D01*
X163523630Y-70224087D01*
X163614106Y-70030060D01*
X163669515Y-69823270D01*
X163688174Y-69610000D01*
X163669515Y-69396730D01*
X163627443Y-69239718D01*
X163614108Y-69189947D01*
X163614107Y-69189946D01*
X163614106Y-69189940D01*
X163523630Y-68995913D01*
X163523628Y-68995910D01*
X163523627Y-68995908D01*
X163400839Y-68820549D01*
X163400834Y-68820543D01*
X163249456Y-68669165D01*
X163249450Y-68669160D01*
X163074091Y-68546372D01*
X163074087Y-68546370D01*
X162880060Y-68455894D01*
X162880056Y-68455893D01*
X162880052Y-68455891D01*
X162673275Y-68400486D01*
X162673265Y-68400484D01*
X162460001Y-68381826D01*
X162459999Y-68381826D01*
X162246734Y-68400484D01*
X162246724Y-68400486D01*
X162039947Y-68455891D01*
X162039938Y-68455895D01*
X161845912Y-68546370D01*
X161845908Y-68546372D01*
X161670549Y-68669160D01*
X161670543Y-68669165D01*
X161519165Y-68820543D01*
X161519160Y-68820549D01*
X161396372Y-68995908D01*
X161396370Y-68995912D01*
X161303606Y-69194847D01*
X161302143Y-69194165D01*
X161265087Y-69244485D01*
X161199816Y-69269415D01*
X161131429Y-69255099D01*
X161081637Y-69206083D01*
X161076486Y-69194803D01*
X161076394Y-69194847D01*
X160996456Y-69023419D01*
X160983630Y-68995913D01*
X160983628Y-68995910D01*
X160983627Y-68995908D01*
X160860839Y-68820549D01*
X160860834Y-68820543D01*
X160709456Y-68669165D01*
X160709450Y-68669160D01*
X160534091Y-68546372D01*
X160534087Y-68546370D01*
X160340060Y-68455894D01*
X160340056Y-68455893D01*
X160340052Y-68455891D01*
X160133275Y-68400486D01*
X160133265Y-68400484D01*
X159920001Y-68381826D01*
X159919999Y-68381826D01*
X159706734Y-68400484D01*
X159706724Y-68400486D01*
X159499947Y-68455891D01*
X159499938Y-68455895D01*
X159305912Y-68546370D01*
X159305908Y-68546372D01*
X159130549Y-68669160D01*
X159130543Y-68669165D01*
X158979165Y-68820543D01*
X158979160Y-68820549D01*
X158856372Y-68995908D01*
X158856370Y-68995912D01*
X158763606Y-69194847D01*
X158762143Y-69194165D01*
X158725087Y-69244485D01*
X158659816Y-69269415D01*
X158591429Y-69255099D01*
X158541637Y-69206083D01*
X158536486Y-69194803D01*
X158536394Y-69194847D01*
X158456456Y-69023419D01*
X158443630Y-68995913D01*
X158443628Y-68995910D01*
X158443627Y-68995908D01*
X158320839Y-68820549D01*
X158320834Y-68820543D01*
X158169456Y-68669165D01*
X158169450Y-68669160D01*
X157994091Y-68546372D01*
X157994087Y-68546370D01*
X157800060Y-68455894D01*
X157800056Y-68455893D01*
X157800052Y-68455891D01*
X157593275Y-68400486D01*
X157593265Y-68400484D01*
X157380001Y-68381826D01*
X157379999Y-68381826D01*
X157166734Y-68400484D01*
X157166724Y-68400486D01*
X156959947Y-68455891D01*
X156959938Y-68455895D01*
X156765912Y-68546370D01*
X156765908Y-68546372D01*
X156590549Y-68669160D01*
X156590543Y-68669165D01*
X156439165Y-68820543D01*
X156439160Y-68820549D01*
X156316372Y-68995908D01*
X156316370Y-68995912D01*
X156223606Y-69194847D01*
X156222143Y-69194165D01*
X156185087Y-69244485D01*
X156119816Y-69269415D01*
X156051429Y-69255099D01*
X156001637Y-69206083D01*
X155996486Y-69194803D01*
X155996394Y-69194847D01*
X155916456Y-69023419D01*
X155903630Y-68995913D01*
X155903628Y-68995910D01*
X155903627Y-68995908D01*
X155780839Y-68820549D01*
X155780834Y-68820543D01*
X155629456Y-68669165D01*
X155629450Y-68669160D01*
X155454091Y-68546372D01*
X155454087Y-68546370D01*
X155260060Y-68455894D01*
X155260056Y-68455893D01*
X155260052Y-68455891D01*
X155053275Y-68400486D01*
X155053265Y-68400484D01*
X154840001Y-68381826D01*
X154839999Y-68381826D01*
X154626734Y-68400484D01*
X154626724Y-68400486D01*
X154419947Y-68455891D01*
X154419938Y-68455895D01*
X154225912Y-68546370D01*
X154225908Y-68546372D01*
X154050549Y-68669160D01*
X154050543Y-68669165D01*
X153899165Y-68820543D01*
X153899160Y-68820549D01*
X153776372Y-68995908D01*
X153776370Y-68995912D01*
X153685895Y-69189938D01*
X153685891Y-69189947D01*
X153630486Y-69396724D01*
X153630484Y-69396734D01*
X153611826Y-69609999D01*
X153611826Y-69610000D01*
X150500500Y-69610000D01*
X150500500Y-67624500D01*
X150520185Y-67557461D01*
X150572989Y-67511706D01*
X150624500Y-67500500D01*
X169203510Y-67500500D01*
X169270549Y-67520185D01*
G37*
%TD.AperFunction*%
%TD*%
M02*
