%TF.GenerationSoftware,KiCad,Pcbnew,7.0.10*%
%TF.CreationDate,2025-01-30T23:30:39+01:00*%
%TF.ProjectId,Panel,50616e65-6c2e-46b6-9963-61645f706362,rev?*%
%TF.SameCoordinates,Original*%
%TF.FileFunction,Copper,L1,Top*%
%TF.FilePolarity,Positive*%
%FSLAX46Y46*%
G04 Gerber Fmt 4.6, Leading zero omitted, Abs format (unit mm)*
G04 Created by KiCad (PCBNEW 7.0.10) date 2025-01-30 23:30:39*
%MOMM*%
%LPD*%
G01*
G04 APERTURE LIST*
G04 Aperture macros list*
%AMRoundRect*
0 Rectangle with rounded corners*
0 $1 Rounding radius*
0 $2 $3 $4 $5 $6 $7 $8 $9 X,Y pos of 4 corners*
0 Add a 4 corners polygon primitive as box body*
4,1,4,$2,$3,$4,$5,$6,$7,$8,$9,$2,$3,0*
0 Add four circle primitives for the rounded corners*
1,1,$1+$1,$2,$3*
1,1,$1+$1,$4,$5*
1,1,$1+$1,$6,$7*
1,1,$1+$1,$8,$9*
0 Add four rect primitives between the rounded corners*
20,1,$1+$1,$2,$3,$4,$5,0*
20,1,$1+$1,$4,$5,$6,$7,0*
20,1,$1+$1,$6,$7,$8,$9,0*
20,1,$1+$1,$8,$9,$2,$3,0*%
%AMFreePoly0*
4,1,9,3.862500,-0.866500,0.737500,-0.866500,0.737500,-0.450000,-0.737500,-0.450000,-0.737500,0.450000,0.737500,0.450000,0.737500,0.866500,3.862500,0.866500,3.862500,-0.866500,3.862500,-0.866500,$1*%
G04 Aperture macros list end*
%TA.AperFunction,ComponentPad*%
%ADD10R,1.500000X1.500000*%
%TD*%
%TA.AperFunction,ComponentPad*%
%ADD11C,1.800000*%
%TD*%
%TA.AperFunction,ComponentPad*%
%ADD12C,2.775000*%
%TD*%
%TA.AperFunction,ComponentPad*%
%ADD13C,4.700000*%
%TD*%
%TA.AperFunction,SMDPad,CuDef*%
%ADD14R,1.300000X0.900000*%
%TD*%
%TA.AperFunction,SMDPad,CuDef*%
%ADD15FreePoly0,0.000000*%
%TD*%
%TA.AperFunction,SMDPad,CuDef*%
%ADD16RoundRect,0.250000X0.250000X-0.250000X0.250000X0.250000X-0.250000X0.250000X-0.250000X-0.250000X0*%
%TD*%
%TA.AperFunction,SMDPad,CuDef*%
%ADD17RoundRect,0.218750X-0.218750X-0.381250X0.218750X-0.381250X0.218750X0.381250X-0.218750X0.381250X0*%
%TD*%
%TA.AperFunction,SMDPad,CuDef*%
%ADD18RoundRect,0.225000X-0.225000X-0.250000X0.225000X-0.250000X0.225000X0.250000X-0.225000X0.250000X0*%
%TD*%
%TA.AperFunction,SMDPad,CuDef*%
%ADD19RoundRect,0.150000X-0.512500X-0.150000X0.512500X-0.150000X0.512500X0.150000X-0.512500X0.150000X0*%
%TD*%
%TA.AperFunction,ComponentPad*%
%ADD20R,1.700000X1.700000*%
%TD*%
%TA.AperFunction,ComponentPad*%
%ADD21O,1.700000X1.700000*%
%TD*%
%TA.AperFunction,ComponentPad*%
%ADD22R,1.446000X1.446000*%
%TD*%
%TA.AperFunction,ComponentPad*%
%ADD23C,1.446000*%
%TD*%
%TA.AperFunction,ViaPad*%
%ADD24C,0.600000*%
%TD*%
%TA.AperFunction,ViaPad*%
%ADD25C,0.800000*%
%TD*%
%TA.AperFunction,Conductor*%
%ADD26C,0.700000*%
%TD*%
%TA.AperFunction,Conductor*%
%ADD27C,0.500000*%
%TD*%
G04 APERTURE END LIST*
D10*
%TO.P,D3,1,DO*%
%TO.N,unconnected-(D3-DO-Pad1)*%
X171000000Y-94238500D03*
D11*
%TO.P,D3,2,GND*%
%TO.N,GND1*%
X171000000Y-92079500D03*
%TO.P,D3,3,VDD*%
%TO.N,+5V*%
X171000000Y-89920500D03*
%TO.P,D3,4,DI*%
%TO.N,OUT_1*%
X171000000Y-87761500D03*
%TD*%
D10*
%TO.P,D1,1,DO*%
%TO.N,unconnected-(D1-DO-Pad1)*%
X153000000Y-94238500D03*
D11*
%TO.P,D1,2,GND*%
%TO.N,GND1*%
X153000000Y-92079500D03*
%TO.P,D1,3,VDD*%
%TO.N,+5V*%
X153000000Y-89920500D03*
%TO.P,D1,4,DI*%
%TO.N,OUT_1*%
X153000000Y-87761500D03*
%TD*%
D12*
%TO.P,S1,1,NO*%
%TO.N,IN1*%
X162000000Y-95700000D03*
%TO.P,S1,2,COM*%
%TO.N,GND1*%
X162000000Y-91000000D03*
%TO.P,S1,3,NO*%
%TO.N,IN2*%
X162000000Y-86300000D03*
%TD*%
D13*
%TO.P,H3,1*%
%TO.N,N/C*%
X171000000Y-98000000D03*
%TD*%
D14*
%TO.P,U1,1,VIN*%
%TO.N,Net-(U1-VIN)*%
X157300000Y-77239000D03*
D15*
%TO.P,U1,2,GND*%
%TO.N,GND1*%
X157387500Y-78739000D03*
D14*
%TO.P,U1,3,VOUT*%
%TO.N,+5V*%
X157300000Y-80239000D03*
%TD*%
D16*
%TO.P,D2,1,K*%
%TO.N,Net-(D2-K)*%
X151970000Y-71750000D03*
%TO.P,D2,2,A*%
%TO.N,V_IN*%
X151970000Y-69250000D03*
%TD*%
D17*
%TO.P,L1,1,1*%
%TO.N,Net-(D2-K)*%
X152937500Y-75438000D03*
%TO.P,L1,2,2*%
%TO.N,Net-(U1-VIN)*%
X155062500Y-75438000D03*
%TD*%
D18*
%TO.P,C2,1*%
%TO.N,+5V*%
X157225000Y-82000000D03*
%TO.P,C2,2*%
%TO.N,GND1*%
X158775000Y-82000000D03*
%TD*%
%TO.P,C3,1*%
%TO.N,Net-(D2-K)*%
X151998000Y-73787000D03*
%TO.P,C3,2*%
%TO.N,GND1*%
X153548000Y-73787000D03*
%TD*%
D13*
%TO.P,H1,1*%
%TO.N,N/C*%
X171000000Y-70000000D03*
%TD*%
D19*
%TO.P,U2,1,NC*%
%TO.N,unconnected-(U2-NC-Pad1)*%
X152862500Y-83550000D03*
%TO.P,U2,2,A*%
%TO.N,OUT1*%
X152862500Y-84500000D03*
%TO.P,U2,3,GND*%
%TO.N,GND1*%
X152862500Y-85450000D03*
%TO.P,U2,4,Y*%
%TO.N,OUT_1*%
X155137500Y-85450000D03*
%TO.P,U2,5,VCC*%
%TO.N,+5V*%
X155137500Y-83550000D03*
%TD*%
D13*
%TO.P,H2,1*%
%TO.N,N/C*%
X153000000Y-98000000D03*
%TD*%
D18*
%TO.P,C1,1*%
%TO.N,Net-(U1-VIN)*%
X157225000Y-75438000D03*
%TO.P,C1,2*%
%TO.N,GND1*%
X158775000Y-75438000D03*
%TD*%
D20*
%TO.P,J2,1,Pin_1*%
%TO.N,GND1*%
X171000000Y-83800000D03*
D21*
%TO.P,J2,2,Pin_2*%
%TO.N,OUT2*%
X171000000Y-81260000D03*
%TO.P,J2,3,Pin_3*%
%TO.N,IN3*%
X171000000Y-78720000D03*
%TO.P,J2,4,Pin_4*%
%TO.N,IN4*%
X171000000Y-76180000D03*
%TD*%
D22*
%TO.P,J1,1*%
%TO.N,GND1*%
X163730000Y-72150000D03*
D23*
%TO.P,J1,2*%
%TO.N,OUT1*%
X162460000Y-69610000D03*
%TO.P,J1,3*%
%TO.N,OUT2*%
X161190000Y-72150000D03*
%TO.P,J1,4*%
%TO.N,IN1*%
X159920000Y-69610000D03*
%TO.P,J1,5*%
%TO.N,IN2*%
X158650000Y-72150000D03*
%TO.P,J1,6*%
%TO.N,IN3*%
X157380000Y-69610000D03*
%TO.P,J1,7*%
%TO.N,IN4*%
X156110000Y-72150000D03*
%TO.P,J1,8*%
%TO.N,V_IN*%
X154840000Y-69610000D03*
%TD*%
D24*
%TO.N,GND1*%
X151000000Y-77000000D03*
X168000000Y-68000000D03*
X151000000Y-84500000D03*
X173000000Y-91000000D03*
X173000000Y-94000000D03*
X168000000Y-82500000D03*
X159000000Y-80500000D03*
X164076000Y-89662000D03*
X159000000Y-76500000D03*
X164250000Y-83000000D03*
X156000000Y-97000000D03*
X153250000Y-68000000D03*
X160000000Y-81500000D03*
X154424000Y-73787000D03*
X160000000Y-80500000D03*
X151000000Y-94000000D03*
X159000000Y-97000000D03*
X151000000Y-80750000D03*
X173000000Y-73000000D03*
X163250000Y-83000000D03*
X173000000Y-80500000D03*
X159000000Y-77500000D03*
X160000000Y-77500000D03*
X173000000Y-77000000D03*
X151000000Y-88000000D03*
X168000000Y-94000000D03*
X163700000Y-73800000D03*
X173000000Y-83750000D03*
X168000000Y-73500000D03*
X160012000Y-89662000D03*
X165300000Y-73800000D03*
X165000000Y-97000000D03*
X153535000Y-72898000D03*
X151000000Y-86000000D03*
X160012000Y-92202000D03*
X168000000Y-97000000D03*
X173000000Y-88000000D03*
X151000000Y-91000000D03*
X164076000Y-92202000D03*
X161000000Y-80500000D03*
X169000000Y-83750000D03*
X165300000Y-72135000D03*
%TO.N,+5V*%
X165600000Y-93218000D03*
X158488000Y-93218000D03*
X157085600Y-83500000D03*
X157085600Y-86500000D03*
%TO.N,OUT1*%
X167000000Y-75000000D03*
X161028000Y-81534000D03*
D25*
%TO.N,IN3*%
X169500000Y-74500000D03*
%TO.N,IN4*%
X161950000Y-73398959D03*
D24*
%TO.N,OUT_1*%
X162500000Y-88646000D03*
X166500000Y-88646000D03*
%TD*%
D26*
%TO.N,+5V*%
X157225000Y-82000000D02*
X157225000Y-83360600D01*
X157035600Y-83550000D02*
X155137500Y-83550000D01*
X157225000Y-83360600D02*
X157035600Y-83550000D01*
X157300000Y-80239000D02*
X157300000Y-81925000D01*
X157300000Y-81925000D02*
X157225000Y-82000000D01*
X157085600Y-86500000D02*
X157085600Y-91815600D01*
X157085600Y-91815600D02*
X158488000Y-93218000D01*
D27*
%TO.N,OUT_1*%
X162500000Y-88646000D02*
X160774000Y-88646000D01*
X155187500Y-85500000D02*
X155137500Y-85450000D01*
X160774000Y-88646000D02*
X157628000Y-85500000D01*
X157628000Y-85500000D02*
X155187500Y-85500000D01*
X155137500Y-85450000D02*
X155000000Y-85587500D01*
X155000000Y-85587500D02*
X155000000Y-87761500D01*
X155000000Y-87761500D02*
X153000000Y-87761500D01*
%TO.N,OUT1*%
X161028000Y-81534000D02*
X161028000Y-81746000D01*
X158274000Y-84500000D02*
X152862500Y-84500000D01*
X161028000Y-81746000D02*
X158274000Y-84500000D01*
D26*
%TO.N,+5V*%
X157085600Y-83500000D02*
X155187500Y-83500000D01*
X155187500Y-83500000D02*
X155137500Y-83550000D01*
X157085600Y-90000000D02*
X157006100Y-89920500D01*
X157006100Y-89920500D02*
X153000000Y-89920500D01*
D27*
%TO.N,OUT_1*%
X166500000Y-88646000D02*
X170115500Y-88646000D01*
X170115500Y-88646000D02*
X171000000Y-87761500D01*
D26*
%TO.N,+5V*%
X165600000Y-93218000D02*
X168897500Y-89920500D01*
X168897500Y-89920500D02*
X170555500Y-89920500D01*
X170555500Y-89920500D02*
X171000000Y-90365000D01*
%TO.N,GND1*%
X158775000Y-78046000D02*
X158775000Y-75437000D01*
X158082000Y-78739000D02*
X158775000Y-78046000D01*
X157387500Y-78739000D02*
X158082000Y-78739000D01*
D27*
%TO.N,OUT1*%
X166551167Y-71507367D02*
X164653800Y-69610000D01*
X164653800Y-69610000D02*
X162460000Y-69610000D01*
X166551167Y-74551167D02*
X166551167Y-71507367D01*
X167000000Y-75000000D02*
X166551167Y-74551167D01*
D26*
%TO.N,Net-(D2-K)*%
X151970000Y-74470500D02*
X152937500Y-75438000D01*
X151970000Y-72150000D02*
X151970000Y-74470500D01*
%TO.N,V_IN*%
X152330000Y-69610000D02*
X154555000Y-69610000D01*
X151970000Y-69250000D02*
X152330000Y-69610000D01*
D27*
%TO.N,IN1*%
X165500000Y-92048000D02*
X162348000Y-95200000D01*
X159823000Y-73561800D02*
X162750000Y-76488800D01*
X165500000Y-82500000D02*
X165500000Y-92048000D01*
X162750000Y-76500000D02*
X162875000Y-76625000D01*
X162875000Y-76625000D02*
X162875000Y-79875000D01*
X162750000Y-76488800D02*
X162750000Y-76500000D01*
X162348000Y-95200000D02*
X162000000Y-95200000D01*
X162875000Y-79875000D02*
X165500000Y-82500000D01*
X159635000Y-69610000D02*
X159823000Y-69798000D01*
X159823000Y-69798000D02*
X159823000Y-73561800D01*
%TO.N,IN2*%
X158574000Y-73505950D02*
X162000000Y-76931950D01*
X158574000Y-72359000D02*
X158574000Y-73505950D01*
X162000000Y-76931950D02*
X162000000Y-85800000D01*
X158365000Y-72150000D02*
X158574000Y-72359000D01*
%TO.N,IN3*%
X169500000Y-73200000D02*
X164300000Y-68000000D01*
X169500000Y-74500000D02*
X169500000Y-73200000D01*
X164300000Y-68000000D02*
X158990000Y-68000000D01*
X158990000Y-68000000D02*
X157380000Y-69610000D01*
%TO.N,IN4*%
X163800000Y-75500000D02*
X166389949Y-75500000D01*
X166389949Y-75500000D02*
X167089949Y-76200000D01*
X170980000Y-76200000D02*
X171000000Y-76180000D01*
X161950000Y-73650000D02*
X163800000Y-75500000D01*
X167089949Y-76200000D02*
X170980000Y-76200000D01*
X161950000Y-73398959D02*
X161950000Y-73650000D01*
D26*
%TO.N,Net-(U1-VIN)*%
X157225000Y-75437000D02*
X157250000Y-75462000D01*
X157250000Y-75462000D02*
X157250000Y-77189000D01*
X157250000Y-77189000D02*
X157300000Y-77239000D01*
X155063500Y-75057000D02*
X155063500Y-75437000D01*
X155063500Y-75437000D02*
X157225000Y-75437000D01*
D27*
%TO.N,OUT2*%
X163500000Y-76200000D02*
X160900000Y-73600000D01*
X160900000Y-73600000D02*
X160900000Y-72440000D01*
X170000000Y-81260000D02*
X167500000Y-78760000D01*
X167500000Y-78760000D02*
X167500000Y-77600000D01*
X171000000Y-81260000D02*
X170000000Y-81260000D01*
X166100000Y-76200000D02*
X163500000Y-76200000D01*
X167500000Y-77600000D02*
X166100000Y-76200000D01*
X160900000Y-72440000D02*
X161190000Y-72150000D01*
%TD*%
%TA.AperFunction,Conductor*%
%TO.N,GND1*%
G36*
X158195810Y-67520185D02*
G01*
X158241565Y-67572989D01*
X158251509Y-67642147D01*
X158222484Y-67705703D01*
X158216452Y-67712181D01*
X157574272Y-68354358D01*
X157512949Y-68387843D01*
X157475785Y-68390205D01*
X157380003Y-68381826D01*
X157379999Y-68381826D01*
X157166734Y-68400484D01*
X157166724Y-68400486D01*
X156959947Y-68455891D01*
X156959938Y-68455895D01*
X156765912Y-68546370D01*
X156765908Y-68546372D01*
X156590549Y-68669160D01*
X156590543Y-68669165D01*
X156439165Y-68820543D01*
X156439160Y-68820549D01*
X156316372Y-68995908D01*
X156316370Y-68995912D01*
X156223606Y-69194847D01*
X156222143Y-69194165D01*
X156185087Y-69244485D01*
X156119816Y-69269415D01*
X156051429Y-69255099D01*
X156001637Y-69206083D01*
X155996486Y-69194803D01*
X155996394Y-69194847D01*
X155916456Y-69023419D01*
X155903630Y-68995913D01*
X155903628Y-68995910D01*
X155903627Y-68995908D01*
X155780839Y-68820549D01*
X155780834Y-68820543D01*
X155629456Y-68669165D01*
X155629450Y-68669160D01*
X155454091Y-68546372D01*
X155454087Y-68546370D01*
X155260060Y-68455894D01*
X155260056Y-68455893D01*
X155260052Y-68455891D01*
X155053275Y-68400486D01*
X155053265Y-68400484D01*
X154840001Y-68381826D01*
X154839999Y-68381826D01*
X154626734Y-68400484D01*
X154626724Y-68400486D01*
X154419947Y-68455891D01*
X154419938Y-68455895D01*
X154225912Y-68546370D01*
X154225908Y-68546372D01*
X154050549Y-68669160D01*
X154050543Y-68669165D01*
X153996528Y-68723181D01*
X153935205Y-68756666D01*
X153908847Y-68759500D01*
X153020478Y-68759500D01*
X152953439Y-68739815D01*
X152907684Y-68687011D01*
X152907213Y-68685813D01*
X152904815Y-68680670D01*
X152904814Y-68680666D01*
X152812712Y-68531344D01*
X152688656Y-68407288D01*
X152539334Y-68315186D01*
X152372797Y-68260001D01*
X152372795Y-68260000D01*
X152270010Y-68249500D01*
X151669998Y-68249500D01*
X151669980Y-68249501D01*
X151567203Y-68260000D01*
X151567200Y-68260001D01*
X151400668Y-68315185D01*
X151400663Y-68315187D01*
X151251342Y-68407289D01*
X151127289Y-68531342D01*
X151035187Y-68680663D01*
X151035186Y-68680666D01*
X150980001Y-68847203D01*
X150980001Y-68847204D01*
X150980000Y-68847204D01*
X150969500Y-68949983D01*
X150969500Y-69550001D01*
X150969501Y-69550019D01*
X150980000Y-69652796D01*
X150980001Y-69652799D01*
X151035185Y-69819331D01*
X151035186Y-69819334D01*
X151127288Y-69968656D01*
X151251344Y-70092712D01*
X151400666Y-70184814D01*
X151567203Y-70239999D01*
X151669991Y-70250500D01*
X151725400Y-70250499D01*
X151792439Y-70270182D01*
X151800440Y-70275781D01*
X151804805Y-70279099D01*
X151807412Y-70281137D01*
X151858484Y-70322191D01*
X151869247Y-70330843D01*
X151870211Y-70331459D01*
X151887969Y-70342473D01*
X151888931Y-70343051D01*
X151888933Y-70343052D01*
X151888936Y-70343054D01*
X151960913Y-70376354D01*
X151963912Y-70377791D01*
X152034983Y-70413039D01*
X152036019Y-70413419D01*
X152055853Y-70420402D01*
X152056830Y-70420730D01*
X152056833Y-70420732D01*
X152056835Y-70420732D01*
X152056837Y-70420733D01*
X152134253Y-70437773D01*
X152137514Y-70438536D01*
X152214506Y-70457684D01*
X152214508Y-70457684D01*
X152214512Y-70457685D01*
X152215604Y-70457833D01*
X152236375Y-70460377D01*
X152237502Y-70460499D01*
X152237503Y-70460500D01*
X152316773Y-70460500D01*
X152320130Y-70460545D01*
X152399432Y-70462693D01*
X152399432Y-70462692D01*
X152399435Y-70462693D01*
X152400479Y-70462608D01*
X152422648Y-70460500D01*
X153908847Y-70460500D01*
X153975886Y-70480185D01*
X153996528Y-70496819D01*
X154050543Y-70550834D01*
X154050549Y-70550839D01*
X154225908Y-70673627D01*
X154225910Y-70673628D01*
X154225913Y-70673630D01*
X154419940Y-70764106D01*
X154626730Y-70819515D01*
X154797346Y-70834442D01*
X154839999Y-70838174D01*
X154840000Y-70838174D01*
X154840001Y-70838174D01*
X154876884Y-70834947D01*
X155053270Y-70819515D01*
X155260060Y-70764106D01*
X155454087Y-70673630D01*
X155629455Y-70550836D01*
X155780836Y-70399455D01*
X155903630Y-70224087D01*
X155994106Y-70030060D01*
X155994106Y-70030059D01*
X155996394Y-70025153D01*
X155997858Y-70025835D01*
X156034904Y-69975521D01*
X156100172Y-69950585D01*
X156168561Y-69964894D01*
X156218357Y-70013906D01*
X156223513Y-70025196D01*
X156223606Y-70025153D01*
X156316370Y-70224087D01*
X156316372Y-70224091D01*
X156439160Y-70399450D01*
X156439165Y-70399456D01*
X156590543Y-70550834D01*
X156590549Y-70550839D01*
X156765908Y-70673627D01*
X156765910Y-70673628D01*
X156765913Y-70673630D01*
X156959940Y-70764106D01*
X157166730Y-70819515D01*
X157337346Y-70834442D01*
X157379999Y-70838174D01*
X157380000Y-70838174D01*
X157380001Y-70838174D01*
X157416884Y-70834947D01*
X157593270Y-70819515D01*
X157800060Y-70764106D01*
X157994087Y-70673630D01*
X158169455Y-70550836D01*
X158320836Y-70399455D01*
X158443630Y-70224087D01*
X158534106Y-70030060D01*
X158534106Y-70030059D01*
X158536394Y-70025153D01*
X158537858Y-70025835D01*
X158574904Y-69975521D01*
X158640172Y-69950585D01*
X158708561Y-69964894D01*
X158758357Y-70013906D01*
X158763513Y-70025196D01*
X158763606Y-70025153D01*
X158856370Y-70224087D01*
X158856372Y-70224091D01*
X158979160Y-70399450D01*
X158979165Y-70399456D01*
X159036181Y-70456472D01*
X159069666Y-70517795D01*
X159072500Y-70544153D01*
X159072500Y-70834947D01*
X159052815Y-70901986D01*
X159000011Y-70947741D01*
X158930853Y-70957685D01*
X158916409Y-70954722D01*
X158863281Y-70940487D01*
X158863265Y-70940484D01*
X158650001Y-70921826D01*
X158649999Y-70921826D01*
X158436734Y-70940484D01*
X158436724Y-70940486D01*
X158229947Y-70995891D01*
X158229938Y-70995895D01*
X158035912Y-71086370D01*
X158035908Y-71086372D01*
X157860549Y-71209160D01*
X157860543Y-71209165D01*
X157709165Y-71360543D01*
X157709160Y-71360549D01*
X157586372Y-71535908D01*
X157586370Y-71535912D01*
X157586370Y-71535913D01*
X157500545Y-71719967D01*
X157493606Y-71734847D01*
X157492143Y-71734165D01*
X157455087Y-71784485D01*
X157389816Y-71809415D01*
X157321429Y-71795099D01*
X157271637Y-71746083D01*
X157266486Y-71734803D01*
X157266394Y-71734847D01*
X157264105Y-71729938D01*
X157173630Y-71535913D01*
X157173628Y-71535910D01*
X157173627Y-71535908D01*
X157050839Y-71360549D01*
X157050834Y-71360543D01*
X156899456Y-71209165D01*
X156899450Y-71209160D01*
X156724091Y-71086372D01*
X156724087Y-71086370D01*
X156644860Y-71049426D01*
X156530060Y-70995894D01*
X156530056Y-70995893D01*
X156530052Y-70995891D01*
X156323275Y-70940486D01*
X156323265Y-70940484D01*
X156110001Y-70921826D01*
X156109999Y-70921826D01*
X155896734Y-70940484D01*
X155896724Y-70940486D01*
X155689947Y-70995891D01*
X155689938Y-70995895D01*
X155495912Y-71086370D01*
X155495908Y-71086372D01*
X155320549Y-71209160D01*
X155320543Y-71209165D01*
X155169165Y-71360543D01*
X155169160Y-71360549D01*
X155046372Y-71535908D01*
X155046370Y-71535912D01*
X155046370Y-71535913D01*
X154960545Y-71719967D01*
X154955895Y-71729938D01*
X154955891Y-71729947D01*
X154900486Y-71936724D01*
X154900484Y-71936734D01*
X154881826Y-72149999D01*
X154881826Y-72150000D01*
X154900484Y-72363265D01*
X154900486Y-72363275D01*
X154955891Y-72570052D01*
X154955893Y-72570056D01*
X154955894Y-72570060D01*
X155028643Y-72726071D01*
X155046370Y-72764087D01*
X155046372Y-72764091D01*
X155169160Y-72939450D01*
X155169165Y-72939456D01*
X155320543Y-73090834D01*
X155320549Y-73090839D01*
X155495908Y-73213627D01*
X155495910Y-73213628D01*
X155495913Y-73213630D01*
X155689940Y-73304106D01*
X155896730Y-73359515D01*
X156050862Y-73373000D01*
X156109999Y-73378174D01*
X156110000Y-73378174D01*
X156110001Y-73378174D01*
X156165526Y-73373316D01*
X156323270Y-73359515D01*
X156530060Y-73304106D01*
X156724087Y-73213630D01*
X156899455Y-73090836D01*
X157050836Y-72939455D01*
X157173630Y-72764087D01*
X157264106Y-72570060D01*
X157264106Y-72570059D01*
X157266394Y-72565153D01*
X157267858Y-72565835D01*
X157304904Y-72515521D01*
X157370172Y-72490585D01*
X157438561Y-72504894D01*
X157488357Y-72553906D01*
X157493513Y-72565196D01*
X157493606Y-72565153D01*
X157495893Y-72570059D01*
X157495894Y-72570060D01*
X157563156Y-72714304D01*
X157586370Y-72764087D01*
X157586372Y-72764091D01*
X157709160Y-72939450D01*
X157709165Y-72939456D01*
X157787181Y-73017472D01*
X157820666Y-73078795D01*
X157823500Y-73105153D01*
X157823500Y-73442244D01*
X157822191Y-73460213D01*
X157818710Y-73483975D01*
X157823028Y-73533318D01*
X157823500Y-73544126D01*
X157823500Y-73549661D01*
X157827098Y-73580445D01*
X157827464Y-73584033D01*
X157834000Y-73658741D01*
X157835461Y-73665817D01*
X157835403Y-73665828D01*
X157837034Y-73673187D01*
X157837092Y-73673174D01*
X157838757Y-73680199D01*
X157864400Y-73750655D01*
X157865582Y-73754057D01*
X157889182Y-73825276D01*
X157892236Y-73831824D01*
X157892182Y-73831848D01*
X157895470Y-73838638D01*
X157895521Y-73838613D01*
X157898761Y-73845064D01*
X157939979Y-73907734D01*
X157941889Y-73910732D01*
X157972972Y-73961124D01*
X157981289Y-73974608D01*
X157985766Y-73980269D01*
X157985719Y-73980306D01*
X157990482Y-73986152D01*
X157990528Y-73986114D01*
X157995173Y-73991649D01*
X158049708Y-74043100D01*
X158052296Y-74045614D01*
X161213181Y-77206498D01*
X161246666Y-77267821D01*
X161249500Y-77294179D01*
X161249500Y-80614635D01*
X161229815Y-80681674D01*
X161177011Y-80727429D01*
X161111618Y-80737855D01*
X161028005Y-80728435D01*
X161027996Y-80728435D01*
X160848750Y-80748630D01*
X160848745Y-80748631D01*
X160678476Y-80808211D01*
X160525737Y-80904184D01*
X160398184Y-81031737D01*
X160302210Y-81184478D01*
X160242630Y-81354750D01*
X160232854Y-81441518D01*
X160205787Y-81505932D01*
X160197315Y-81515315D01*
X158288184Y-83424446D01*
X158226861Y-83457931D01*
X158157169Y-83452947D01*
X158101236Y-83411075D01*
X158076819Y-83345611D01*
X158076549Y-83333405D01*
X158077693Y-83291171D01*
X158077608Y-83290120D01*
X158075500Y-83267952D01*
X158075500Y-82653043D01*
X158093962Y-82587945D01*
X158095244Y-82585867D01*
X158112003Y-82558697D01*
X158165349Y-82397708D01*
X158175500Y-82298345D01*
X158175499Y-81701656D01*
X158165349Y-81602292D01*
X158156794Y-81576474D01*
X158150500Y-81537470D01*
X158150500Y-81226180D01*
X158170185Y-81159141D01*
X158200187Y-81126914D01*
X158307546Y-81046546D01*
X158393796Y-80931331D01*
X158444091Y-80796483D01*
X158450500Y-80736873D01*
X158450499Y-79741128D01*
X158444091Y-79681517D01*
X158411524Y-79594201D01*
X158393797Y-79546671D01*
X158393793Y-79546664D01*
X158307547Y-79431455D01*
X158307544Y-79431452D01*
X158192335Y-79345206D01*
X158192328Y-79345202D01*
X158057482Y-79294908D01*
X158057483Y-79294908D01*
X157997883Y-79288501D01*
X157997881Y-79288500D01*
X157997873Y-79288500D01*
X157997864Y-79288500D01*
X156602129Y-79288500D01*
X156602123Y-79288501D01*
X156542516Y-79294908D01*
X156407671Y-79345202D01*
X156407664Y-79345206D01*
X156292455Y-79431452D01*
X156292452Y-79431455D01*
X156206206Y-79546664D01*
X156206202Y-79546671D01*
X156155908Y-79681517D01*
X156149501Y-79741116D01*
X156149501Y-79741123D01*
X156149500Y-79741135D01*
X156149500Y-80736870D01*
X156149501Y-80736876D01*
X156155908Y-80796483D01*
X156206202Y-80931328D01*
X156206206Y-80931335D01*
X156292452Y-81046544D01*
X156292455Y-81046547D01*
X156399466Y-81126656D01*
X156441337Y-81182589D01*
X156446321Y-81252281D01*
X156430693Y-81291019D01*
X156338001Y-81441294D01*
X156337996Y-81441305D01*
X156284651Y-81602290D01*
X156274500Y-81701647D01*
X156274500Y-82298337D01*
X156274501Y-82298355D01*
X156284650Y-82397707D01*
X156284651Y-82397710D01*
X156314072Y-82486496D01*
X156316474Y-82556325D01*
X156280742Y-82616366D01*
X156218221Y-82647559D01*
X156196366Y-82649500D01*
X155227106Y-82649500D01*
X155217043Y-82649091D01*
X155212819Y-82648747D01*
X155164334Y-82644798D01*
X155164326Y-82644799D01*
X155085765Y-82655502D01*
X155082436Y-82655910D01*
X155021552Y-82662532D01*
X155003590Y-82664486D01*
X155003586Y-82664487D01*
X155002631Y-82664697D01*
X154981971Y-82669538D01*
X154981038Y-82669770D01*
X154906604Y-82697115D01*
X154903443Y-82698228D01*
X154828273Y-82723558D01*
X154827296Y-82724010D01*
X154808209Y-82733156D01*
X154801365Y-82736552D01*
X154800031Y-82733864D01*
X154746213Y-82749500D01*
X154559298Y-82749500D01*
X154522432Y-82752401D01*
X154522426Y-82752402D01*
X154364606Y-82798254D01*
X154364603Y-82798255D01*
X154223137Y-82881917D01*
X154223129Y-82881923D01*
X154106923Y-82998129D01*
X154106914Y-82998140D01*
X154106729Y-82998455D01*
X154106519Y-82998650D01*
X154102139Y-83004298D01*
X154101227Y-83003591D01*
X154055657Y-83046136D01*
X153986915Y-83058637D01*
X153922327Y-83031988D01*
X153898143Y-83004078D01*
X153897861Y-83004298D01*
X153893823Y-82999092D01*
X153893271Y-82998455D01*
X153893085Y-82998140D01*
X153893076Y-82998129D01*
X153776870Y-82881923D01*
X153776862Y-82881917D01*
X153635396Y-82798255D01*
X153635393Y-82798254D01*
X153477573Y-82752402D01*
X153477567Y-82752401D01*
X153440701Y-82749500D01*
X153440694Y-82749500D01*
X152284306Y-82749500D01*
X152284298Y-82749500D01*
X152247432Y-82752401D01*
X152247426Y-82752402D01*
X152089606Y-82798254D01*
X152089603Y-82798255D01*
X151948137Y-82881917D01*
X151948129Y-82881923D01*
X151831923Y-82998129D01*
X151831917Y-82998137D01*
X151748255Y-83139603D01*
X151748254Y-83139606D01*
X151702402Y-83297426D01*
X151702401Y-83297432D01*
X151699500Y-83334298D01*
X151699500Y-83765701D01*
X151702401Y-83802567D01*
X151702402Y-83802573D01*
X151748254Y-83960393D01*
X151748254Y-83960394D01*
X151748255Y-83960396D01*
X151748256Y-83960398D01*
X151749133Y-83961881D01*
X151749466Y-83963195D01*
X151751353Y-83967554D01*
X151750649Y-83967858D01*
X151766315Y-84029604D01*
X151750861Y-84082233D01*
X151751353Y-84082446D01*
X151749630Y-84086426D01*
X151749133Y-84088118D01*
X151748506Y-84089177D01*
X151748254Y-84089605D01*
X151748254Y-84089606D01*
X151702402Y-84247426D01*
X151702401Y-84247432D01*
X151699500Y-84284298D01*
X151699500Y-84715701D01*
X151702401Y-84752567D01*
X151702402Y-84752573D01*
X151748254Y-84910393D01*
X151748255Y-84910396D01*
X151831917Y-85051862D01*
X151831923Y-85051870D01*
X151948129Y-85168076D01*
X151948133Y-85168079D01*
X151948135Y-85168081D01*
X152089602Y-85251744D01*
X152102269Y-85255424D01*
X152247426Y-85297597D01*
X152247429Y-85297597D01*
X152247431Y-85297598D01*
X152284306Y-85300500D01*
X152284314Y-85300500D01*
X153440686Y-85300500D01*
X153440694Y-85300500D01*
X153477569Y-85297598D01*
X153477571Y-85297597D01*
X153477573Y-85297597D01*
X153622733Y-85255424D01*
X153657328Y-85250500D01*
X153850500Y-85250500D01*
X153917539Y-85270185D01*
X153963294Y-85322989D01*
X153974500Y-85374500D01*
X153974500Y-85665701D01*
X153977401Y-85702567D01*
X153977402Y-85702573D01*
X154023254Y-85860393D01*
X154023255Y-85860396D01*
X154106917Y-86001862D01*
X154106923Y-86001870D01*
X154213181Y-86108128D01*
X154246666Y-86169451D01*
X154249500Y-86195809D01*
X154249500Y-86733209D01*
X154229815Y-86800248D01*
X154177011Y-86846003D01*
X154107853Y-86855947D01*
X154044297Y-86826922D01*
X154034278Y-86817199D01*
X153951784Y-86727587D01*
X153951779Y-86727583D01*
X153951777Y-86727581D01*
X153768634Y-86585035D01*
X153768628Y-86585031D01*
X153564504Y-86474564D01*
X153564495Y-86474561D01*
X153344984Y-86399202D01*
X153173282Y-86370550D01*
X153116049Y-86361000D01*
X152883951Y-86361000D01*
X152838164Y-86368640D01*
X152655015Y-86399202D01*
X152435504Y-86474561D01*
X152435495Y-86474564D01*
X152231371Y-86585031D01*
X152231365Y-86585035D01*
X152048222Y-86727581D01*
X152048219Y-86727584D01*
X151891016Y-86898352D01*
X151764075Y-87092651D01*
X151670842Y-87305199D01*
X151613866Y-87530191D01*
X151613864Y-87530202D01*
X151594700Y-87761493D01*
X151594700Y-87761506D01*
X151613864Y-87992797D01*
X151613866Y-87992808D01*
X151670842Y-88217800D01*
X151764075Y-88430348D01*
X151854124Y-88568178D01*
X151891021Y-88624653D01*
X151910675Y-88646003D01*
X152012870Y-88757018D01*
X152043792Y-88819673D01*
X152035931Y-88889099D01*
X152012870Y-88924982D01*
X151891019Y-89057349D01*
X151764075Y-89251651D01*
X151670842Y-89464199D01*
X151613866Y-89689191D01*
X151613864Y-89689202D01*
X151594700Y-89920493D01*
X151594700Y-89920506D01*
X151613864Y-90151797D01*
X151613866Y-90151808D01*
X151670842Y-90376800D01*
X151764075Y-90589348D01*
X151891016Y-90783647D01*
X151891019Y-90783651D01*
X151891021Y-90783653D01*
X152048216Y-90954413D01*
X152048219Y-90954415D01*
X152048222Y-90954418D01*
X152231365Y-91096964D01*
X152231371Y-91096968D01*
X152231374Y-91096970D01*
X152435497Y-91207436D01*
X152549487Y-91246568D01*
X152655015Y-91282797D01*
X152655017Y-91282797D01*
X152655019Y-91282798D01*
X152883951Y-91321000D01*
X152883952Y-91321000D01*
X153116048Y-91321000D01*
X153116049Y-91321000D01*
X153344981Y-91282798D01*
X153564503Y-91207436D01*
X153768626Y-91096970D01*
X153797888Y-91074195D01*
X153893212Y-91000001D01*
X153951784Y-90954413D01*
X154083789Y-90811015D01*
X154143675Y-90775027D01*
X154175018Y-90771000D01*
X156111100Y-90771000D01*
X156178139Y-90790685D01*
X156223894Y-90843489D01*
X156235100Y-90895000D01*
X156235100Y-91775992D01*
X156234691Y-91786056D01*
X156230398Y-91838764D01*
X156241102Y-91917332D01*
X156241510Y-91920662D01*
X156250086Y-91999512D01*
X156250310Y-92000530D01*
X156255125Y-92021073D01*
X156255374Y-92022071D01*
X156282713Y-92096491D01*
X156283827Y-92099653D01*
X156288496Y-92113508D01*
X156309156Y-92174821D01*
X156309157Y-92174823D01*
X156309158Y-92174825D01*
X156309601Y-92175785D01*
X156318746Y-92194866D01*
X156319164Y-92195709D01*
X156319167Y-92195714D01*
X156319168Y-92195716D01*
X156361867Y-92262518D01*
X156363636Y-92265371D01*
X156404527Y-92333333D01*
X156405138Y-92334136D01*
X156418178Y-92350816D01*
X156418797Y-92351586D01*
X156418799Y-92351588D01*
X156418800Y-92351589D01*
X156474903Y-92407692D01*
X156477209Y-92410062D01*
X156531751Y-92467641D01*
X156531755Y-92467643D01*
X156532583Y-92468347D01*
X156549719Y-92482508D01*
X157919212Y-93852001D01*
X158027246Y-93938842D01*
X158075407Y-93962727D01*
X158192972Y-94021033D01*
X158192976Y-94021034D01*
X158192979Y-94021036D01*
X158192980Y-94021036D01*
X158192982Y-94021037D01*
X158252464Y-94035830D01*
X158372505Y-94065684D01*
X158557432Y-94070693D01*
X158739113Y-94035831D01*
X158909051Y-93962729D01*
X159059302Y-93854804D01*
X159182840Y-93717103D01*
X159273888Y-93556064D01*
X159328187Y-93379217D01*
X159343201Y-93194833D01*
X159318227Y-93011532D01*
X159254432Y-92837884D01*
X159154800Y-92682011D01*
X157972419Y-91499630D01*
X157938934Y-91438307D01*
X157936100Y-91411949D01*
X157936100Y-90039606D01*
X157936509Y-90029541D01*
X157940801Y-89976835D01*
X157937235Y-89950658D01*
X157936100Y-89933920D01*
X157936100Y-87168830D01*
X157955785Y-87101791D01*
X158008589Y-87056036D01*
X158077747Y-87046092D01*
X158141303Y-87075117D01*
X158147781Y-87081149D01*
X160198270Y-89131638D01*
X160210051Y-89145270D01*
X160224388Y-89164528D01*
X160262337Y-89196372D01*
X160270310Y-89203679D01*
X160274217Y-89207586D01*
X160274223Y-89207591D01*
X160298537Y-89226816D01*
X160301318Y-89229080D01*
X160328217Y-89251651D01*
X160358789Y-89277305D01*
X160364818Y-89281270D01*
X160364785Y-89281319D01*
X160371147Y-89285372D01*
X160371179Y-89285321D01*
X160377319Y-89289108D01*
X160377323Y-89289111D01*
X160415977Y-89307135D01*
X160445320Y-89320819D01*
X160448566Y-89322391D01*
X160515562Y-89356038D01*
X160522357Y-89358511D01*
X160522336Y-89358567D01*
X160529457Y-89361043D01*
X160529476Y-89360986D01*
X160536319Y-89363253D01*
X160536327Y-89363257D01*
X160609895Y-89378447D01*
X160613228Y-89379186D01*
X160686279Y-89396500D01*
X160686281Y-89396500D01*
X160686285Y-89396501D01*
X160693453Y-89397339D01*
X160693446Y-89397398D01*
X160700944Y-89398164D01*
X160700950Y-89398105D01*
X160708139Y-89398734D01*
X160708143Y-89398733D01*
X160708144Y-89398734D01*
X160783130Y-89396552D01*
X160786737Y-89396500D01*
X161193666Y-89396500D01*
X161260705Y-89416185D01*
X161281347Y-89432819D01*
X161926190Y-90077662D01*
X161806622Y-90090230D01*
X161621696Y-90150316D01*
X161453304Y-90247537D01*
X161308805Y-90377645D01*
X161194514Y-90534952D01*
X161115427Y-90712585D01*
X161075000Y-90902779D01*
X161075000Y-90923527D01*
X160309301Y-90157828D01*
X160309301Y-90157829D01*
X160278684Y-90213900D01*
X160278682Y-90213905D01*
X160184329Y-90466876D01*
X160126940Y-90730689D01*
X160107679Y-90999998D01*
X160107679Y-91000001D01*
X160126940Y-91269310D01*
X160184329Y-91533123D01*
X160278684Y-91786100D01*
X160278686Y-91786104D01*
X160309300Y-91842169D01*
X160309301Y-91842169D01*
X161075000Y-91076471D01*
X161075000Y-91097221D01*
X161115427Y-91287415D01*
X161194514Y-91465047D01*
X161308805Y-91622355D01*
X161453304Y-91752463D01*
X161621696Y-91849684D01*
X161806622Y-91909770D01*
X161926190Y-91922337D01*
X161157828Y-92690698D01*
X161213900Y-92721315D01*
X161213905Y-92721317D01*
X161466876Y-92815670D01*
X161730689Y-92873059D01*
X161999999Y-92892321D01*
X162000001Y-92892321D01*
X162269310Y-92873059D01*
X162533123Y-92815670D01*
X162786100Y-92721315D01*
X162786104Y-92721313D01*
X162842169Y-92690698D01*
X162842170Y-92690698D01*
X162073809Y-91922337D01*
X162193378Y-91909770D01*
X162378304Y-91849684D01*
X162546696Y-91752463D01*
X162691195Y-91622355D01*
X162805486Y-91465048D01*
X162884573Y-91287415D01*
X162925000Y-91097221D01*
X162925000Y-91076472D01*
X163690698Y-91842170D01*
X163690698Y-91842169D01*
X163721313Y-91786104D01*
X163721315Y-91786100D01*
X163815670Y-91533123D01*
X163873059Y-91269310D01*
X163892321Y-91000001D01*
X163892321Y-90999998D01*
X163873059Y-90730689D01*
X163815670Y-90466876D01*
X163721317Y-90213905D01*
X163721315Y-90213900D01*
X163690698Y-90157828D01*
X162925000Y-90923526D01*
X162925000Y-90902779D01*
X162884573Y-90712585D01*
X162805486Y-90534953D01*
X162691195Y-90377645D01*
X162546696Y-90247537D01*
X162378304Y-90150316D01*
X162193378Y-90090230D01*
X162073809Y-90077662D01*
X162722077Y-89429393D01*
X162768801Y-89400034D01*
X162849522Y-89371789D01*
X163002262Y-89275816D01*
X163129816Y-89148262D01*
X163225789Y-88995522D01*
X163285368Y-88825255D01*
X163285997Y-88819673D01*
X163305565Y-88646003D01*
X163305565Y-88645996D01*
X163285369Y-88466750D01*
X163285368Y-88466745D01*
X163269121Y-88420313D01*
X163225789Y-88296478D01*
X163205008Y-88263406D01*
X163129815Y-88143737D01*
X163041651Y-88055573D01*
X163008166Y-87994250D01*
X163013150Y-87924558D01*
X163055022Y-87868625D01*
X163239527Y-87730506D01*
X163239527Y-87730505D01*
X163239535Y-87730500D01*
X163430500Y-87539535D01*
X163592344Y-87323337D01*
X163721772Y-87086307D01*
X163816150Y-86833270D01*
X163873557Y-86569377D01*
X163892823Y-86300000D01*
X163873557Y-86030623D01*
X163867300Y-86001862D01*
X163816151Y-85766736D01*
X163816150Y-85766730D01*
X163721772Y-85513693D01*
X163648393Y-85379310D01*
X163592347Y-85276668D01*
X163592342Y-85276660D01*
X163430506Y-85060472D01*
X163430490Y-85060454D01*
X163239545Y-84869509D01*
X163239527Y-84869493D01*
X163023339Y-84707657D01*
X163023331Y-84707652D01*
X162815073Y-84593935D01*
X162765668Y-84544530D01*
X162750500Y-84485103D01*
X162750500Y-81111229D01*
X162770185Y-81044190D01*
X162822989Y-80998435D01*
X162892147Y-80988491D01*
X162955703Y-81017516D01*
X162962181Y-81023548D01*
X164713181Y-82774548D01*
X164746666Y-82835871D01*
X164749500Y-82862229D01*
X164749500Y-91685769D01*
X164729815Y-91752808D01*
X164713181Y-91773450D01*
X162638239Y-93848391D01*
X162576916Y-93881876D01*
X162524200Y-93881876D01*
X162269382Y-93826443D01*
X162000001Y-93807177D01*
X161999999Y-93807177D01*
X161730617Y-93826443D01*
X161466736Y-93883848D01*
X161466731Y-93883849D01*
X161466730Y-93883850D01*
X161416103Y-93902733D01*
X161213691Y-93978228D01*
X161213687Y-93978230D01*
X160976668Y-94107652D01*
X160976660Y-94107657D01*
X160760472Y-94269493D01*
X160760454Y-94269509D01*
X160569509Y-94460454D01*
X160569493Y-94460472D01*
X160407657Y-94676660D01*
X160407652Y-94676668D01*
X160278230Y-94913687D01*
X160278228Y-94913691D01*
X160183848Y-95166736D01*
X160126443Y-95430617D01*
X160107177Y-95699998D01*
X160107177Y-95700001D01*
X160126443Y-95969382D01*
X160183848Y-96233263D01*
X160183850Y-96233270D01*
X160220300Y-96330996D01*
X160278228Y-96486308D01*
X160278230Y-96486312D01*
X160407652Y-96723331D01*
X160407657Y-96723339D01*
X160569493Y-96939527D01*
X160569509Y-96939545D01*
X160760454Y-97130490D01*
X160760472Y-97130506D01*
X160976660Y-97292342D01*
X160976668Y-97292347D01*
X161213687Y-97421769D01*
X161213691Y-97421771D01*
X161213693Y-97421772D01*
X161466730Y-97516150D01*
X161598676Y-97544853D01*
X161730617Y-97573556D01*
X161730619Y-97573556D01*
X161730623Y-97573557D01*
X161970007Y-97590677D01*
X161999999Y-97592823D01*
X162000000Y-97592823D01*
X162000001Y-97592823D01*
X162026987Y-97590892D01*
X162269377Y-97573557D01*
X162533270Y-97516150D01*
X162786307Y-97421772D01*
X163023337Y-97292344D01*
X163239535Y-97130500D01*
X163430500Y-96939535D01*
X163592344Y-96723337D01*
X163721772Y-96486307D01*
X163816150Y-96233270D01*
X163873557Y-95969377D01*
X163892823Y-95700000D01*
X163873557Y-95430623D01*
X163816150Y-95166730D01*
X163742529Y-94969347D01*
X163737546Y-94899657D01*
X163771029Y-94838336D01*
X164804696Y-93804670D01*
X164866017Y-93771187D01*
X164935709Y-93776171D01*
X164975179Y-93800053D01*
X165100897Y-93912840D01*
X165100901Y-93912842D01*
X165261928Y-94003884D01*
X165261930Y-94003885D01*
X165261936Y-94003888D01*
X165350359Y-94031037D01*
X165438774Y-94058185D01*
X165438777Y-94058185D01*
X165438782Y-94058187D01*
X165623167Y-94073201D01*
X165806468Y-94048227D01*
X165980116Y-93984432D01*
X166135989Y-93884800D01*
X169213470Y-90807319D01*
X169274793Y-90773834D01*
X169301151Y-90771000D01*
X169824982Y-90771000D01*
X169892021Y-90790685D01*
X169916208Y-90811014D01*
X170048216Y-90954413D01*
X170048219Y-90954415D01*
X170048222Y-90954418D01*
X170231365Y-91096964D01*
X170231371Y-91096968D01*
X170231374Y-91096970D01*
X170435497Y-91207436D01*
X170549487Y-91246568D01*
X170655015Y-91282797D01*
X170655017Y-91282797D01*
X170655019Y-91282798D01*
X170883951Y-91321000D01*
X170883952Y-91321000D01*
X171116048Y-91321000D01*
X171116049Y-91321000D01*
X171344981Y-91282798D01*
X171564503Y-91207436D01*
X171768626Y-91096970D01*
X171797888Y-91074195D01*
X171893212Y-91000001D01*
X171951784Y-90954413D01*
X172108979Y-90783653D01*
X172235924Y-90589349D01*
X172329157Y-90376800D01*
X172386134Y-90151805D01*
X172386162Y-90151472D01*
X172405300Y-89920506D01*
X172405300Y-89920493D01*
X172386135Y-89689202D01*
X172386133Y-89689191D01*
X172329157Y-89464199D01*
X172235924Y-89251651D01*
X172108983Y-89057352D01*
X172108980Y-89057349D01*
X172108979Y-89057347D01*
X171987128Y-88924980D01*
X171956207Y-88862328D01*
X171964067Y-88792902D01*
X171987127Y-88757020D01*
X172108979Y-88624653D01*
X172235924Y-88430349D01*
X172329157Y-88217800D01*
X172386134Y-87992805D01*
X172389198Y-87955828D01*
X172405300Y-87761506D01*
X172405300Y-87761493D01*
X172386135Y-87530202D01*
X172386133Y-87530191D01*
X172329157Y-87305199D01*
X172235924Y-87092651D01*
X172108983Y-86898352D01*
X172108980Y-86898349D01*
X172108979Y-86898347D01*
X171951784Y-86727587D01*
X171951779Y-86727583D01*
X171951777Y-86727581D01*
X171768634Y-86585035D01*
X171768628Y-86585031D01*
X171564504Y-86474564D01*
X171564495Y-86474561D01*
X171344984Y-86399202D01*
X171173282Y-86370550D01*
X171116049Y-86361000D01*
X170883951Y-86361000D01*
X170838164Y-86368640D01*
X170655015Y-86399202D01*
X170435504Y-86474561D01*
X170435495Y-86474564D01*
X170231371Y-86585031D01*
X170231365Y-86585035D01*
X170048222Y-86727581D01*
X170048219Y-86727584D01*
X169891016Y-86898352D01*
X169764075Y-87092651D01*
X169670842Y-87305199D01*
X169613866Y-87530191D01*
X169613864Y-87530202D01*
X169594700Y-87761493D01*
X169594700Y-87766628D01*
X169593574Y-87766628D01*
X169580603Y-87829690D01*
X169531761Y-87879652D01*
X169471104Y-87895500D01*
X166799972Y-87895500D01*
X166759017Y-87888542D01*
X166679254Y-87860631D01*
X166679249Y-87860630D01*
X166500004Y-87840435D01*
X166499996Y-87840435D01*
X166388383Y-87853010D01*
X166319561Y-87840955D01*
X166268182Y-87793606D01*
X166250500Y-87729790D01*
X166250500Y-84400000D01*
X169650000Y-84400000D01*
X169650000Y-84697844D01*
X169656401Y-84757372D01*
X169656403Y-84757379D01*
X169706645Y-84892086D01*
X169706649Y-84892093D01*
X169792809Y-85007187D01*
X169792812Y-85007190D01*
X169907906Y-85093350D01*
X169907913Y-85093354D01*
X170042620Y-85143596D01*
X170042627Y-85143598D01*
X170102155Y-85149999D01*
X170102172Y-85150000D01*
X170400000Y-85150000D01*
X170400000Y-84400000D01*
X171600000Y-84400000D01*
X171600000Y-85150000D01*
X171897828Y-85150000D01*
X171897844Y-85149999D01*
X171957372Y-85143598D01*
X171957379Y-85143596D01*
X172092086Y-85093354D01*
X172092093Y-85093350D01*
X172207187Y-85007190D01*
X172207190Y-85007187D01*
X172293350Y-84892093D01*
X172293354Y-84892086D01*
X172343596Y-84757379D01*
X172343598Y-84757372D01*
X172349999Y-84697844D01*
X172350000Y-84697827D01*
X172350000Y-84400000D01*
X171600000Y-84400000D01*
X170400000Y-84400000D01*
X169650000Y-84400000D01*
X166250500Y-84400000D01*
X166250500Y-83871889D01*
X170500000Y-83871889D01*
X170540507Y-84009844D01*
X170618239Y-84130798D01*
X170726900Y-84224952D01*
X170857685Y-84284680D01*
X170964237Y-84300000D01*
X171035763Y-84300000D01*
X171142315Y-84284680D01*
X171273100Y-84224952D01*
X171381761Y-84130798D01*
X171459493Y-84009844D01*
X171500000Y-83871889D01*
X171500000Y-83728111D01*
X171459493Y-83590156D01*
X171381761Y-83469202D01*
X171273100Y-83375048D01*
X171142315Y-83315320D01*
X171035763Y-83300000D01*
X170964237Y-83300000D01*
X170857685Y-83315320D01*
X170726900Y-83375048D01*
X170618239Y-83469202D01*
X170540507Y-83590156D01*
X170500000Y-83728111D01*
X170500000Y-83871889D01*
X166250500Y-83871889D01*
X166250500Y-82563705D01*
X166251809Y-82545735D01*
X166253542Y-82533903D01*
X166255289Y-82521977D01*
X166250972Y-82472630D01*
X166250500Y-82461822D01*
X166250500Y-82456296D01*
X166250500Y-82456291D01*
X166246901Y-82425509D01*
X166246536Y-82421929D01*
X166239999Y-82347201D01*
X166238539Y-82340129D01*
X166238597Y-82340116D01*
X166236965Y-82332757D01*
X166236906Y-82332772D01*
X166235241Y-82325751D01*
X166235241Y-82325745D01*
X166209569Y-82255212D01*
X166208421Y-82251909D01*
X166184814Y-82180666D01*
X166184810Y-82180659D01*
X166181760Y-82174118D01*
X166181815Y-82174091D01*
X166178533Y-82167313D01*
X166178480Y-82167340D01*
X166175235Y-82160880D01*
X166134025Y-82098223D01*
X166132086Y-82095181D01*
X166092710Y-82031342D01*
X166088234Y-82025682D01*
X166088281Y-82025644D01*
X166083519Y-82019799D01*
X166083474Y-82019838D01*
X166078831Y-82014305D01*
X166024272Y-81962831D01*
X166021685Y-81960318D01*
X164628285Y-80566917D01*
X164594800Y-80505594D01*
X164599784Y-80435902D01*
X164641656Y-80379969D01*
X164707120Y-80355552D01*
X164734013Y-80356556D01*
X164862731Y-80375500D01*
X164862736Y-80375500D01*
X165068545Y-80375500D01*
X165068547Y-80375500D01*
X165068552Y-80375499D01*
X165068564Y-80375499D01*
X165106614Y-80372713D01*
X165273805Y-80360477D01*
X165541775Y-80300784D01*
X165798198Y-80202711D01*
X166037609Y-80068347D01*
X166254904Y-79900557D01*
X166445454Y-79702916D01*
X166605196Y-79479637D01*
X166714503Y-79267033D01*
X166762661Y-79216415D01*
X166830543Y-79199867D01*
X166896595Y-79222646D01*
X166919771Y-79244029D01*
X166921172Y-79245698D01*
X166975707Y-79297149D01*
X166978295Y-79299663D01*
X169424270Y-81745638D01*
X169436051Y-81759270D01*
X169450388Y-81778528D01*
X169488337Y-81810372D01*
X169496310Y-81817679D01*
X169500217Y-81821586D01*
X169500223Y-81821591D01*
X169524537Y-81840816D01*
X169527318Y-81843080D01*
X169554956Y-81866271D01*
X169584789Y-81891305D01*
X169590818Y-81895270D01*
X169590785Y-81895319D01*
X169597147Y-81899372D01*
X169597179Y-81899321D01*
X169603319Y-81903108D01*
X169603323Y-81903111D01*
X169641977Y-81921135D01*
X169671320Y-81934819D01*
X169674566Y-81936391D01*
X169741562Y-81970038D01*
X169748357Y-81972511D01*
X169748336Y-81972567D01*
X169755457Y-81975043D01*
X169755476Y-81974986D01*
X169762319Y-81977253D01*
X169762327Y-81977257D01*
X169820748Y-81989319D01*
X169882420Y-82022151D01*
X169897247Y-82039633D01*
X169938273Y-82098223D01*
X169961505Y-82131401D01*
X169961508Y-82131404D01*
X170083818Y-82253714D01*
X170117303Y-82315037D01*
X170112319Y-82384729D01*
X170070447Y-82440662D01*
X170039471Y-82457577D01*
X169907912Y-82506646D01*
X169907906Y-82506649D01*
X169792812Y-82592809D01*
X169792809Y-82592812D01*
X169706649Y-82707906D01*
X169706645Y-82707913D01*
X169656403Y-82842620D01*
X169656401Y-82842627D01*
X169650000Y-82902155D01*
X169650000Y-83200000D01*
X172350000Y-83200000D01*
X172350000Y-82902172D01*
X172349999Y-82902155D01*
X172343598Y-82842627D01*
X172343596Y-82842620D01*
X172293354Y-82707913D01*
X172293350Y-82707906D01*
X172207190Y-82592812D01*
X172207187Y-82592809D01*
X172092093Y-82506649D01*
X172092088Y-82506646D01*
X171960528Y-82457577D01*
X171904595Y-82415705D01*
X171880178Y-82350241D01*
X171895030Y-82281968D01*
X171916175Y-82253720D01*
X172038495Y-82131401D01*
X172174035Y-81937830D01*
X172273903Y-81723663D01*
X172335063Y-81495408D01*
X172355659Y-81260000D01*
X172335063Y-81024592D01*
X172273903Y-80796337D01*
X172174035Y-80582171D01*
X172120416Y-80505594D01*
X172038494Y-80388597D01*
X171871402Y-80221506D01*
X171871396Y-80221501D01*
X171685842Y-80091575D01*
X171642217Y-80036998D01*
X171635023Y-79967500D01*
X171666546Y-79905145D01*
X171685842Y-79888425D01*
X171804665Y-79805224D01*
X171871401Y-79758495D01*
X172038495Y-79591401D01*
X172174035Y-79397830D01*
X172273903Y-79183663D01*
X172335063Y-78955408D01*
X172355659Y-78720000D01*
X172335063Y-78484592D01*
X172273903Y-78256337D01*
X172174035Y-78042171D01*
X172161563Y-78024358D01*
X172038494Y-77848597D01*
X171871402Y-77681506D01*
X171871396Y-77681501D01*
X171685842Y-77551575D01*
X171642217Y-77496998D01*
X171635023Y-77427500D01*
X171666546Y-77365145D01*
X171685842Y-77348425D01*
X171763313Y-77294179D01*
X171871401Y-77218495D01*
X172038495Y-77051401D01*
X172174035Y-76857830D01*
X172273903Y-76643663D01*
X172335063Y-76415408D01*
X172355659Y-76180000D01*
X172335063Y-75944592D01*
X172273903Y-75716337D01*
X172174035Y-75502171D01*
X172134899Y-75446278D01*
X172038494Y-75308597D01*
X171871402Y-75141506D01*
X171871395Y-75141501D01*
X171677834Y-75005967D01*
X171677830Y-75005965D01*
X171639804Y-74988233D01*
X171463663Y-74906097D01*
X171463659Y-74906096D01*
X171463655Y-74906094D01*
X171235413Y-74844938D01*
X171235403Y-74844936D01*
X171000001Y-74824341D01*
X170999999Y-74824341D01*
X170764596Y-74844936D01*
X170764586Y-74844938D01*
X170536344Y-74906094D01*
X170536323Y-74906102D01*
X170533797Y-74907280D01*
X170532581Y-74907464D01*
X170531256Y-74907947D01*
X170531158Y-74907680D01*
X170464719Y-74917764D01*
X170400938Y-74889237D01*
X170362706Y-74830756D01*
X170362159Y-74760888D01*
X170363465Y-74756604D01*
X170385674Y-74688256D01*
X170405460Y-74500000D01*
X170385674Y-74311744D01*
X170327179Y-74131716D01*
X170300413Y-74085355D01*
X170267113Y-74027677D01*
X170250500Y-73965677D01*
X170250500Y-73263705D01*
X170251809Y-73245736D01*
X170254362Y-73228303D01*
X170255289Y-73221977D01*
X170254636Y-73214517D01*
X170250972Y-73172630D01*
X170250500Y-73161822D01*
X170250500Y-73156296D01*
X170250500Y-73156291D01*
X170246901Y-73125509D01*
X170246536Y-73121929D01*
X170239999Y-73047201D01*
X170238539Y-73040129D01*
X170238597Y-73040116D01*
X170236965Y-73032757D01*
X170236906Y-73032772D01*
X170235241Y-73025751D01*
X170235241Y-73025745D01*
X170209569Y-72955212D01*
X170208407Y-72951866D01*
X170202769Y-72934851D01*
X170200368Y-72865022D01*
X170236100Y-72804981D01*
X170298621Y-72773789D01*
X170349070Y-72775190D01*
X170414225Y-72790633D01*
X170504162Y-72811949D01*
X170504167Y-72811949D01*
X170504177Y-72811952D01*
X170833977Y-72850500D01*
X170833984Y-72850500D01*
X171166016Y-72850500D01*
X171166023Y-72850500D01*
X171495823Y-72811952D01*
X171495832Y-72811949D01*
X171495838Y-72811949D01*
X171757219Y-72750000D01*
X171818918Y-72735377D01*
X172130939Y-72621811D01*
X172427666Y-72472789D01*
X172705085Y-72290327D01*
X172959447Y-72076893D01*
X173187310Y-71835371D01*
X173187322Y-71835354D01*
X173187327Y-71835349D01*
X173276037Y-71716191D01*
X173331859Y-71674171D01*
X173401537Y-71669002D01*
X173462949Y-71702325D01*
X173496596Y-71763559D01*
X173499500Y-71790238D01*
X173499500Y-96209761D01*
X173479815Y-96276800D01*
X173427011Y-96322555D01*
X173357853Y-96332499D01*
X173294297Y-96303474D01*
X173276037Y-96283809D01*
X173187321Y-96164643D01*
X173187314Y-96164635D01*
X173187310Y-96164629D01*
X172959447Y-95923107D01*
X172797153Y-95786926D01*
X172705087Y-95709674D01*
X172705079Y-95709668D01*
X172427672Y-95527214D01*
X172228864Y-95427368D01*
X172177790Y-95379690D01*
X172160601Y-95311968D01*
X172182754Y-95245703D01*
X172185252Y-95242244D01*
X172193796Y-95230831D01*
X172244091Y-95095983D01*
X172250500Y-95036373D01*
X172250499Y-93440628D01*
X172244091Y-93381017D01*
X172243422Y-93379224D01*
X172193797Y-93246171D01*
X172193793Y-93246164D01*
X172107548Y-93130957D01*
X172107546Y-93130954D01*
X172107542Y-93130951D01*
X172101807Y-93125215D01*
X172068325Y-93063890D01*
X172073312Y-92994199D01*
X172098269Y-92953547D01*
X172108581Y-92942346D01*
X172108584Y-92942342D01*
X172235482Y-92748111D01*
X172328682Y-92535635D01*
X172385638Y-92310718D01*
X172404798Y-92079505D01*
X172404798Y-92079494D01*
X172385638Y-91848281D01*
X172328682Y-91623364D01*
X172328680Y-91623360D01*
X172321359Y-91606667D01*
X171087680Y-92840346D01*
X171026357Y-92873831D01*
X170956665Y-92868847D01*
X170912318Y-92840346D01*
X170117465Y-92045492D01*
X170546190Y-92045492D01*
X170556327Y-92180765D01*
X170605887Y-92307041D01*
X170690465Y-92413099D01*
X170802547Y-92489516D01*
X170932173Y-92529500D01*
X171033724Y-92529500D01*
X171134138Y-92514365D01*
X171256357Y-92455507D01*
X171355798Y-92363240D01*
X171423625Y-92245760D01*
X171453810Y-92113508D01*
X171443673Y-91978235D01*
X171394113Y-91851959D01*
X171309535Y-91745901D01*
X171197453Y-91669484D01*
X171067827Y-91629500D01*
X170966276Y-91629500D01*
X170865862Y-91644635D01*
X170743643Y-91703493D01*
X170644202Y-91795760D01*
X170576375Y-91913240D01*
X170546190Y-92045492D01*
X170117465Y-92045492D01*
X169678640Y-91606667D01*
X169671318Y-91623361D01*
X169614361Y-91848281D01*
X169595202Y-92079494D01*
X169595202Y-92079505D01*
X169614361Y-92310718D01*
X169671317Y-92535635D01*
X169764516Y-92748109D01*
X169891417Y-92942346D01*
X169901738Y-92953558D01*
X169932659Y-93016213D01*
X169924796Y-93085639D01*
X169898195Y-93125212D01*
X169892452Y-93130955D01*
X169806206Y-93246164D01*
X169806202Y-93246171D01*
X169755908Y-93381017D01*
X169749501Y-93440616D01*
X169749501Y-93440623D01*
X169749500Y-93440635D01*
X169749500Y-95036370D01*
X169749501Y-95036376D01*
X169755908Y-95095983D01*
X169806202Y-95230828D01*
X169806204Y-95230831D01*
X169814750Y-95242247D01*
X169839168Y-95307711D01*
X169824317Y-95375985D01*
X169774912Y-95425390D01*
X169771135Y-95427369D01*
X169572330Y-95527212D01*
X169294920Y-95709668D01*
X169294912Y-95709674D01*
X169088936Y-95882508D01*
X169040553Y-95923107D01*
X168812690Y-96164629D01*
X168812687Y-96164632D01*
X168812685Y-96164635D01*
X168812678Y-96164643D01*
X168614406Y-96430968D01*
X168448385Y-96718525D01*
X168448379Y-96718538D01*
X168316866Y-97023419D01*
X168221634Y-97341518D01*
X168221631Y-97341532D01*
X168163977Y-97668504D01*
X168163976Y-97668515D01*
X168144669Y-97999996D01*
X168144669Y-98000003D01*
X168163976Y-98331484D01*
X168163977Y-98331495D01*
X168221631Y-98658467D01*
X168221634Y-98658481D01*
X168316866Y-98976580D01*
X168448379Y-99281461D01*
X168448385Y-99281474D01*
X168614406Y-99569031D01*
X168812678Y-99835356D01*
X168812683Y-99835362D01*
X168812690Y-99835371D01*
X169040553Y-100076893D01*
X169210724Y-100219683D01*
X169283216Y-100280511D01*
X169321918Y-100338682D01*
X169323026Y-100408543D01*
X169286189Y-100467913D01*
X169223102Y-100497942D01*
X169203510Y-100499500D01*
X154796490Y-100499500D01*
X154729451Y-100479815D01*
X154683696Y-100427011D01*
X154673752Y-100357853D01*
X154702777Y-100294297D01*
X154716784Y-100280511D01*
X154767341Y-100238087D01*
X154959447Y-100076893D01*
X155187310Y-99835371D01*
X155385594Y-99569030D01*
X155551617Y-99281470D01*
X155683133Y-98976581D01*
X155778365Y-98658485D01*
X155836024Y-98331484D01*
X155855331Y-98000000D01*
X155836024Y-97668516D01*
X155778365Y-97341515D01*
X155683133Y-97023419D01*
X155551617Y-96718530D01*
X155417546Y-96486312D01*
X155385593Y-96430968D01*
X155187321Y-96164643D01*
X155187314Y-96164635D01*
X155187310Y-96164629D01*
X154959447Y-95923107D01*
X154797153Y-95786926D01*
X154705087Y-95709674D01*
X154705079Y-95709668D01*
X154427672Y-95527214D01*
X154228864Y-95427368D01*
X154177790Y-95379690D01*
X154160601Y-95311968D01*
X154182754Y-95245703D01*
X154185252Y-95242244D01*
X154193796Y-95230831D01*
X154244091Y-95095983D01*
X154250500Y-95036373D01*
X154250499Y-93440628D01*
X154244091Y-93381017D01*
X154243422Y-93379224D01*
X154193797Y-93246171D01*
X154193793Y-93246164D01*
X154107548Y-93130957D01*
X154107546Y-93130954D01*
X154107542Y-93130951D01*
X154101807Y-93125215D01*
X154068325Y-93063890D01*
X154073312Y-92994199D01*
X154098269Y-92953547D01*
X154108581Y-92942346D01*
X154108584Y-92942342D01*
X154235482Y-92748111D01*
X154328682Y-92535635D01*
X154385638Y-92310718D01*
X154404798Y-92079505D01*
X154404798Y-92079494D01*
X154385638Y-91848281D01*
X154328682Y-91623364D01*
X154328680Y-91623360D01*
X154321359Y-91606667D01*
X153087680Y-92840346D01*
X153026357Y-92873831D01*
X152956665Y-92868847D01*
X152912318Y-92840346D01*
X152117465Y-92045492D01*
X152546190Y-92045492D01*
X152556327Y-92180765D01*
X152605887Y-92307041D01*
X152690465Y-92413099D01*
X152802547Y-92489516D01*
X152932173Y-92529500D01*
X153033724Y-92529500D01*
X153134138Y-92514365D01*
X153256357Y-92455507D01*
X153355798Y-92363240D01*
X153423625Y-92245760D01*
X153453810Y-92113508D01*
X153443673Y-91978235D01*
X153394113Y-91851959D01*
X153309535Y-91745901D01*
X153197453Y-91669484D01*
X153067827Y-91629500D01*
X152966276Y-91629500D01*
X152865862Y-91644635D01*
X152743643Y-91703493D01*
X152644202Y-91795760D01*
X152576375Y-91913240D01*
X152546190Y-92045492D01*
X152117465Y-92045492D01*
X151678640Y-91606667D01*
X151671318Y-91623361D01*
X151614361Y-91848281D01*
X151595202Y-92079494D01*
X151595202Y-92079505D01*
X151614361Y-92310718D01*
X151671317Y-92535635D01*
X151764516Y-92748109D01*
X151891417Y-92942346D01*
X151901738Y-92953558D01*
X151932659Y-93016213D01*
X151924796Y-93085639D01*
X151898195Y-93125212D01*
X151892452Y-93130955D01*
X151806206Y-93246164D01*
X151806202Y-93246171D01*
X151755908Y-93381017D01*
X151749501Y-93440616D01*
X151749501Y-93440623D01*
X151749500Y-93440635D01*
X151749500Y-95036370D01*
X151749501Y-95036376D01*
X151755908Y-95095983D01*
X151806202Y-95230828D01*
X151806204Y-95230831D01*
X151814750Y-95242247D01*
X151839168Y-95307711D01*
X151824317Y-95375985D01*
X151774912Y-95425390D01*
X151771135Y-95427369D01*
X151572330Y-95527212D01*
X151294920Y-95709668D01*
X151294912Y-95709674D01*
X151088936Y-95882508D01*
X151040553Y-95923107D01*
X150812690Y-96164629D01*
X150812687Y-96164632D01*
X150812685Y-96164635D01*
X150812678Y-96164643D01*
X150723963Y-96283809D01*
X150668140Y-96325828D01*
X150598462Y-96330996D01*
X150537051Y-96297674D01*
X150503404Y-96236439D01*
X150500500Y-96209761D01*
X150500500Y-72050001D01*
X150969500Y-72050001D01*
X150969501Y-72050019D01*
X150980000Y-72152796D01*
X150980001Y-72152799D01*
X150990218Y-72183630D01*
X151035186Y-72319334D01*
X151101039Y-72426099D01*
X151119500Y-72491195D01*
X151119500Y-73182631D01*
X151113206Y-73221634D01*
X151057651Y-73389288D01*
X151047500Y-73488647D01*
X151047500Y-74085337D01*
X151047501Y-74085355D01*
X151057650Y-74184707D01*
X151057651Y-74184710D01*
X151113206Y-74352362D01*
X151119500Y-74391366D01*
X151119500Y-74430892D01*
X151119091Y-74440956D01*
X151114798Y-74493664D01*
X151125502Y-74572232D01*
X151125910Y-74575562D01*
X151134486Y-74654412D01*
X151134710Y-74655430D01*
X151139525Y-74675973D01*
X151139774Y-74676971D01*
X151167113Y-74751391D01*
X151168227Y-74754553D01*
X151183580Y-74800114D01*
X151193556Y-74829721D01*
X151193557Y-74829723D01*
X151193558Y-74829725D01*
X151194001Y-74830685D01*
X151203146Y-74849766D01*
X151203564Y-74850609D01*
X151203567Y-74850614D01*
X151203568Y-74850616D01*
X151246267Y-74917418D01*
X151248036Y-74920271D01*
X151288927Y-74988233D01*
X151289538Y-74989036D01*
X151302578Y-75005716D01*
X151303197Y-75006486D01*
X151303199Y-75006488D01*
X151303200Y-75006489D01*
X151359302Y-75062591D01*
X151361572Y-75064923D01*
X151416151Y-75122541D01*
X151416155Y-75122545D01*
X151416950Y-75123220D01*
X151434118Y-75137407D01*
X151708631Y-75411920D01*
X151963181Y-75666469D01*
X151996666Y-75727792D01*
X151999500Y-75754150D01*
X151999500Y-75867181D01*
X152009563Y-75965683D01*
X152062450Y-76125284D01*
X152062455Y-76125295D01*
X152150716Y-76268387D01*
X152150719Y-76268391D01*
X152269608Y-76387280D01*
X152269612Y-76387283D01*
X152412704Y-76475544D01*
X152412707Y-76475545D01*
X152412713Y-76475549D01*
X152572315Y-76528436D01*
X152670826Y-76538500D01*
X152670831Y-76538500D01*
X152777108Y-76538500D01*
X152844147Y-76558185D01*
X152889902Y-76610989D01*
X152899846Y-76680147D01*
X152870821Y-76743703D01*
X152821404Y-76778318D01*
X152771801Y-76797289D01*
X152532392Y-76931652D01*
X152532387Y-76931655D01*
X152315097Y-77099441D01*
X152315088Y-77099450D01*
X152124549Y-77297080D01*
X152124547Y-77297082D01*
X151964805Y-77520361D01*
X151964802Y-77520366D01*
X151839275Y-77764515D01*
X151839271Y-77764525D01*
X151750632Y-78024344D01*
X151750629Y-78024358D01*
X151700765Y-78294314D01*
X151700763Y-78294334D01*
X151690737Y-78568678D01*
X151720762Y-78841559D01*
X151720763Y-78841569D01*
X151790202Y-79107178D01*
X151869978Y-79294908D01*
X151897577Y-79359852D01*
X152011587Y-79546664D01*
X152040592Y-79594191D01*
X152040599Y-79594201D01*
X152216199Y-79805207D01*
X152216204Y-79805212D01*
X152216209Y-79805218D01*
X152216216Y-79805224D01*
X152420672Y-79988419D01*
X152420674Y-79988420D01*
X152420677Y-79988423D01*
X152649641Y-80139904D01*
X152898221Y-80256433D01*
X153161119Y-80335527D01*
X153432731Y-80375500D01*
X153432736Y-80375500D01*
X153638545Y-80375500D01*
X153638547Y-80375500D01*
X153638552Y-80375499D01*
X153638564Y-80375499D01*
X153676614Y-80372713D01*
X153843805Y-80360477D01*
X154111775Y-80300784D01*
X154368198Y-80202711D01*
X154607609Y-80068347D01*
X154824904Y-79900557D01*
X155015454Y-79702916D01*
X155175196Y-79479637D01*
X155300727Y-79235479D01*
X155389370Y-78975646D01*
X155439236Y-78705674D01*
X155449262Y-78431320D01*
X155419236Y-78158429D01*
X155349796Y-77892818D01*
X155242423Y-77640148D01*
X155099405Y-77405804D01*
X155057354Y-77355274D01*
X154923800Y-77194792D01*
X154923795Y-77194787D01*
X154923791Y-77194782D01*
X154852990Y-77131344D01*
X154719327Y-77011580D01*
X154719324Y-77011578D01*
X154719323Y-77011577D01*
X154490359Y-76860096D01*
X154241779Y-76743567D01*
X154094362Y-76699216D01*
X153978879Y-76664472D01*
X153837425Y-76643655D01*
X153707269Y-76624500D01*
X153658036Y-76624500D01*
X153590997Y-76604815D01*
X153545242Y-76552011D01*
X153535298Y-76482853D01*
X153564323Y-76419297D01*
X153592936Y-76394962D01*
X153605391Y-76387281D01*
X153724281Y-76268391D01*
X153812549Y-76125287D01*
X153865436Y-75965685D01*
X153875499Y-75867181D01*
X154124500Y-75867181D01*
X154134563Y-75965683D01*
X154187450Y-76125284D01*
X154187455Y-76125295D01*
X154275716Y-76268387D01*
X154275719Y-76268391D01*
X154394608Y-76387280D01*
X154394612Y-76387283D01*
X154537704Y-76475544D01*
X154537707Y-76475545D01*
X154537713Y-76475549D01*
X154697315Y-76528436D01*
X154795826Y-76538500D01*
X154795831Y-76538500D01*
X155329169Y-76538500D01*
X155329174Y-76538500D01*
X155427685Y-76528436D01*
X155587287Y-76475549D01*
X155730391Y-76387281D01*
X155793853Y-76323819D01*
X155855176Y-76290334D01*
X155881534Y-76287500D01*
X156152496Y-76287500D01*
X156219535Y-76307185D01*
X156265290Y-76359989D01*
X156275234Y-76429147D01*
X156251762Y-76485812D01*
X156206204Y-76546668D01*
X156206202Y-76546671D01*
X156155908Y-76681517D01*
X156149501Y-76741116D01*
X156149501Y-76741123D01*
X156149500Y-76741135D01*
X156149500Y-77736870D01*
X156149501Y-77736876D01*
X156155908Y-77796483D01*
X156206202Y-77931328D01*
X156206206Y-77931335D01*
X156292452Y-78046544D01*
X156292455Y-78046547D01*
X156407664Y-78132793D01*
X156407671Y-78132797D01*
X156542517Y-78183091D01*
X156542516Y-78183091D01*
X156549444Y-78183835D01*
X156602127Y-78189500D01*
X157997872Y-78189499D01*
X158057483Y-78183091D01*
X158192331Y-78132796D01*
X158307546Y-78046546D01*
X158393796Y-77931331D01*
X158444091Y-77796483D01*
X158450500Y-77736873D01*
X158450499Y-76741128D01*
X158444091Y-76681517D01*
X158429972Y-76643663D01*
X158393797Y-76546671D01*
X158393793Y-76546664D01*
X158307547Y-76431455D01*
X158307544Y-76431452D01*
X158192335Y-76345206D01*
X158192332Y-76345205D01*
X158192331Y-76345204D01*
X158181161Y-76341038D01*
X158125231Y-76299166D01*
X158100816Y-76233701D01*
X158100500Y-76224858D01*
X158100500Y-76048855D01*
X158110487Y-76003802D01*
X158109731Y-76003552D01*
X158112001Y-75996698D01*
X158112003Y-75996697D01*
X158165349Y-75835708D01*
X158175500Y-75736345D01*
X158175499Y-75139656D01*
X158165349Y-75040292D01*
X158112003Y-74879303D01*
X158111999Y-74879297D01*
X158111998Y-74879294D01*
X158022970Y-74734959D01*
X158022967Y-74734955D01*
X157903044Y-74615032D01*
X157903040Y-74615029D01*
X157758705Y-74526001D01*
X157758699Y-74525998D01*
X157758697Y-74525997D01*
X157758694Y-74525996D01*
X157597709Y-74472651D01*
X157498346Y-74462500D01*
X156951662Y-74462500D01*
X156951644Y-74462501D01*
X156852292Y-74472650D01*
X156852289Y-74472651D01*
X156691305Y-74525996D01*
X156691294Y-74526001D01*
X156623144Y-74568038D01*
X156558047Y-74586500D01*
X155879534Y-74586500D01*
X155812495Y-74566815D01*
X155791853Y-74550181D01*
X155730391Y-74488719D01*
X155730389Y-74488718D01*
X155663112Y-74447221D01*
X155638192Y-74426963D01*
X155617349Y-74404959D01*
X155617345Y-74404956D01*
X155617344Y-74404955D01*
X155517854Y-74337500D01*
X155464230Y-74301142D01*
X155464227Y-74301140D01*
X155464223Y-74301138D01*
X155292377Y-74232669D01*
X155219351Y-74220697D01*
X155109817Y-74202740D01*
X155109814Y-74202740D01*
X154925093Y-74212755D01*
X154925088Y-74212755D01*
X154746843Y-74262244D01*
X154746837Y-74262247D01*
X154583397Y-74348898D01*
X154490077Y-74428164D01*
X154474900Y-74439193D01*
X154394610Y-74488717D01*
X154275716Y-74607612D01*
X154187455Y-74750704D01*
X154187450Y-74750715D01*
X154184079Y-74760888D01*
X154134564Y-74910315D01*
X154134564Y-74910316D01*
X154134563Y-74910316D01*
X154124500Y-75008818D01*
X154124500Y-75867181D01*
X153875499Y-75867181D01*
X153875500Y-75867174D01*
X153875500Y-75008826D01*
X153865436Y-74910315D01*
X153812549Y-74750713D01*
X153812545Y-74750707D01*
X153812544Y-74750704D01*
X153724283Y-74607612D01*
X153724280Y-74607608D01*
X153605391Y-74488719D01*
X153605387Y-74488716D01*
X153462295Y-74400455D01*
X153462289Y-74400452D01*
X153462287Y-74400451D01*
X153302685Y-74347564D01*
X153302683Y-74347563D01*
X153204181Y-74337500D01*
X153204174Y-74337500D01*
X153091151Y-74337500D01*
X153024112Y-74317815D01*
X153003470Y-74301181D01*
X152975254Y-74272965D01*
X152941769Y-74211642D01*
X152939577Y-74172685D01*
X152948500Y-74085345D01*
X152948499Y-73488656D01*
X152939336Y-73398959D01*
X152938349Y-73389292D01*
X152938348Y-73389289D01*
X152914180Y-73316354D01*
X152885003Y-73228303D01*
X152884999Y-73228297D01*
X152884998Y-73228294D01*
X152838962Y-73153659D01*
X152820500Y-73088562D01*
X152820500Y-72491195D01*
X152838960Y-72426099D01*
X152904814Y-72319334D01*
X152959999Y-72152797D01*
X152970500Y-72050009D01*
X152970499Y-71449992D01*
X152959999Y-71347203D01*
X152904814Y-71180666D01*
X152812712Y-71031344D01*
X152688656Y-70907288D01*
X152595888Y-70850069D01*
X152539336Y-70815187D01*
X152539331Y-70815185D01*
X152502873Y-70803104D01*
X152372797Y-70760001D01*
X152372795Y-70760000D01*
X152270010Y-70749500D01*
X151669998Y-70749500D01*
X151669980Y-70749501D01*
X151567203Y-70760000D01*
X151567200Y-70760001D01*
X151400668Y-70815185D01*
X151400663Y-70815187D01*
X151251342Y-70907289D01*
X151127289Y-71031342D01*
X151035187Y-71180663D01*
X151035185Y-71180668D01*
X151007349Y-71264670D01*
X150980001Y-71347203D01*
X150980001Y-71347204D01*
X150980000Y-71347204D01*
X150969500Y-71449983D01*
X150969500Y-72050001D01*
X150500500Y-72050001D01*
X150500500Y-67624500D01*
X150520185Y-67557461D01*
X150572989Y-67511706D01*
X150624500Y-67500500D01*
X158128771Y-67500500D01*
X158195810Y-67520185D01*
G37*
%TD.AperFunction*%
%TA.AperFunction,Conductor*%
G36*
X167506870Y-72268683D02*
G01*
X167513348Y-72274715D01*
X168713181Y-73474548D01*
X168746666Y-73535871D01*
X168749500Y-73562229D01*
X168749500Y-73965677D01*
X168732887Y-74027677D01*
X168672821Y-74131714D01*
X168617758Y-74301181D01*
X168614326Y-74311744D01*
X168594540Y-74500000D01*
X168614326Y-74688256D01*
X168614327Y-74688259D01*
X168672818Y-74868277D01*
X168672821Y-74868284D01*
X168767467Y-75032216D01*
X168894129Y-75172888D01*
X168925778Y-75195882D01*
X168966106Y-75225182D01*
X169008771Y-75280512D01*
X169014750Y-75350125D01*
X168982144Y-75411920D01*
X168921305Y-75446278D01*
X168893220Y-75449500D01*
X167865567Y-75449500D01*
X167798528Y-75429815D01*
X167752773Y-75377011D01*
X167742829Y-75307853D01*
X167748526Y-75284545D01*
X167785366Y-75179262D01*
X167785369Y-75179249D01*
X167805565Y-75000003D01*
X167805565Y-74999996D01*
X167785369Y-74820750D01*
X167785368Y-74820745D01*
X167760863Y-74750713D01*
X167725789Y-74650478D01*
X167698854Y-74607612D01*
X167649580Y-74529192D01*
X167629816Y-74497738D01*
X167502262Y-74370184D01*
X167485230Y-74359482D01*
X167359695Y-74280603D01*
X167313404Y-74228268D01*
X167301667Y-74175609D01*
X167301667Y-72362396D01*
X167321352Y-72295357D01*
X167374156Y-72249602D01*
X167443314Y-72239658D01*
X167506870Y-72268683D01*
G37*
%TD.AperFunction*%
%TA.AperFunction,Conductor*%
G36*
X164358609Y-70380185D02*
G01*
X164379251Y-70396819D01*
X164724213Y-70741781D01*
X164757698Y-70803104D01*
X164752714Y-70872796D01*
X164710842Y-70928729D01*
X164645378Y-70953146D01*
X164593199Y-70945644D01*
X164560379Y-70933403D01*
X164560372Y-70933401D01*
X164500844Y-70927000D01*
X164330000Y-70927000D01*
X164330000Y-71550000D01*
X164953000Y-71550000D01*
X164953000Y-71379172D01*
X164952999Y-71379155D01*
X164946598Y-71319627D01*
X164946596Y-71319619D01*
X164934356Y-71286802D01*
X164929371Y-71217110D01*
X164962855Y-71155787D01*
X165024178Y-71122301D01*
X165093869Y-71127285D01*
X165138218Y-71155786D01*
X165764348Y-71781915D01*
X165797833Y-71843238D01*
X165800667Y-71869596D01*
X165800667Y-74487461D01*
X165799358Y-74505430D01*
X165795877Y-74529192D01*
X165800195Y-74578535D01*
X165800667Y-74589343D01*
X165800667Y-74594890D01*
X165802563Y-74611103D01*
X165790795Y-74679975D01*
X165743661Y-74731551D01*
X165679402Y-74749500D01*
X164162230Y-74749500D01*
X164095191Y-74729815D01*
X164074549Y-74713181D01*
X162946049Y-73584681D01*
X162912564Y-73523358D01*
X162917548Y-73453666D01*
X162959420Y-73397733D01*
X163024884Y-73373316D01*
X163033730Y-73373000D01*
X163130000Y-73373000D01*
X163130000Y-72750000D01*
X164330000Y-72750000D01*
X164330000Y-73373000D01*
X164500828Y-73373000D01*
X164500844Y-73372999D01*
X164560372Y-73366598D01*
X164560379Y-73366596D01*
X164695086Y-73316354D01*
X164695093Y-73316350D01*
X164810187Y-73230190D01*
X164810190Y-73230187D01*
X164896350Y-73115093D01*
X164896354Y-73115086D01*
X164946596Y-72980379D01*
X164946598Y-72980372D01*
X164952999Y-72920844D01*
X164953000Y-72920827D01*
X164953000Y-72750000D01*
X164330000Y-72750000D01*
X163130000Y-72750000D01*
X163130000Y-72116370D01*
X163281232Y-72116370D01*
X163291257Y-72250140D01*
X163340266Y-72375013D01*
X163423905Y-72479892D01*
X163534741Y-72555459D01*
X163662927Y-72595000D01*
X163763346Y-72595000D01*
X163862647Y-72580033D01*
X163983509Y-72521829D01*
X164081844Y-72430587D01*
X164148917Y-72314413D01*
X164178768Y-72183630D01*
X164168743Y-72049860D01*
X164119734Y-71924987D01*
X164036095Y-71820108D01*
X163925259Y-71744541D01*
X163797073Y-71705000D01*
X163696654Y-71705000D01*
X163597353Y-71719967D01*
X163476491Y-71778171D01*
X163378156Y-71869413D01*
X163311083Y-71985587D01*
X163281232Y-72116370D01*
X163130000Y-72116370D01*
X163130000Y-70927000D01*
X163090060Y-70927000D01*
X163023021Y-70907315D01*
X162977266Y-70854511D01*
X162967322Y-70785353D01*
X162996347Y-70721797D01*
X163037656Y-70690618D01*
X163074087Y-70673630D01*
X163249455Y-70550836D01*
X163400836Y-70399455D01*
X163400836Y-70399454D01*
X163403472Y-70396819D01*
X163464795Y-70363334D01*
X163491153Y-70360500D01*
X164291570Y-70360500D01*
X164358609Y-70380185D01*
G37*
%TD.AperFunction*%
%TA.AperFunction,Conductor*%
G36*
X169270549Y-67520185D02*
G01*
X169316304Y-67572989D01*
X169326248Y-67642147D01*
X169297223Y-67705703D01*
X169283216Y-67719489D01*
X169133127Y-67845427D01*
X169040553Y-67923107D01*
X168812690Y-68164629D01*
X168812687Y-68164632D01*
X168812685Y-68164635D01*
X168812678Y-68164643D01*
X168614406Y-68430968D01*
X168448385Y-68718525D01*
X168448379Y-68718538D01*
X168316866Y-69023419D01*
X168221634Y-69341518D01*
X168221631Y-69341532D01*
X168163977Y-69668504D01*
X168163976Y-69668515D01*
X168144669Y-69999996D01*
X168144669Y-70000003D01*
X168163976Y-70331484D01*
X168163977Y-70331495D01*
X168196539Y-70516161D01*
X168188795Y-70585600D01*
X168144738Y-70639829D01*
X168078357Y-70661631D01*
X168010727Y-70644083D01*
X167986742Y-70625374D01*
X165073549Y-67712181D01*
X165040064Y-67650858D01*
X165045048Y-67581166D01*
X165086920Y-67525233D01*
X165152384Y-67500816D01*
X165161230Y-67500500D01*
X169203510Y-67500500D01*
X169270549Y-67520185D01*
G37*
%TD.AperFunction*%
%TD*%
M02*
