%TF.GenerationSoftware,KiCad,Pcbnew,7.0.10*%
%TF.CreationDate,2025-01-30T23:30:39+01:00*%
%TF.ProjectId,Panel,50616e65-6c2e-46b6-9963-61645f706362,rev?*%
%TF.SameCoordinates,Original*%
%TF.FileFunction,Soldermask,Top*%
%TF.FilePolarity,Negative*%
%FSLAX46Y46*%
G04 Gerber Fmt 4.6, Leading zero omitted, Abs format (unit mm)*
G04 Created by KiCad (PCBNEW 7.0.10) date 2025-01-30 23:30:39*
%MOMM*%
%LPD*%
G01*
G04 APERTURE LIST*
G04 Aperture macros list*
%AMRoundRect*
0 Rectangle with rounded corners*
0 $1 Rounding radius*
0 $2 $3 $4 $5 $6 $7 $8 $9 X,Y pos of 4 corners*
0 Add a 4 corners polygon primitive as box body*
4,1,4,$2,$3,$4,$5,$6,$7,$8,$9,$2,$3,0*
0 Add four circle primitives for the rounded corners*
1,1,$1+$1,$2,$3*
1,1,$1+$1,$4,$5*
1,1,$1+$1,$6,$7*
1,1,$1+$1,$8,$9*
0 Add four rect primitives between the rounded corners*
20,1,$1+$1,$2,$3,$4,$5,0*
20,1,$1+$1,$4,$5,$6,$7,0*
20,1,$1+$1,$6,$7,$8,$9,0*
20,1,$1+$1,$8,$9,$2,$3,0*%
%AMFreePoly0*
4,1,9,3.862500,-0.866500,0.737500,-0.866500,0.737500,-0.450000,-0.737500,-0.450000,-0.737500,0.450000,0.737500,0.450000,0.737500,0.866500,3.862500,0.866500,3.862500,-0.866500,3.862500,-0.866500,$1*%
G04 Aperture macros list end*
%ADD10R,1.500000X1.500000*%
%ADD11C,1.800000*%
%ADD12C,2.775000*%
%ADD13C,4.700000*%
%ADD14R,1.300000X0.900000*%
%ADD15FreePoly0,0.000000*%
%ADD16RoundRect,0.250000X0.250000X-0.250000X0.250000X0.250000X-0.250000X0.250000X-0.250000X-0.250000X0*%
%ADD17RoundRect,0.218750X-0.218750X-0.381250X0.218750X-0.381250X0.218750X0.381250X-0.218750X0.381250X0*%
%ADD18RoundRect,0.225000X-0.225000X-0.250000X0.225000X-0.250000X0.225000X0.250000X-0.225000X0.250000X0*%
%ADD19RoundRect,0.150000X-0.512500X-0.150000X0.512500X-0.150000X0.512500X0.150000X-0.512500X0.150000X0*%
%ADD20R,1.700000X1.700000*%
%ADD21O,1.700000X1.700000*%
%ADD22C,3.250000*%
%ADD23R,1.446000X1.446000*%
%ADD24C,1.446000*%
G04 APERTURE END LIST*
D10*
%TO.C,D3*%
X171000000Y-94238500D03*
D11*
X171000000Y-92079500D03*
X171000000Y-89920500D03*
X171000000Y-87761500D03*
%TD*%
D10*
%TO.C,D1*%
X153000000Y-94238500D03*
D11*
X153000000Y-92079500D03*
X153000000Y-89920500D03*
X153000000Y-87761500D03*
%TD*%
D12*
%TO.C,S1*%
X162000000Y-95700000D03*
X162000000Y-91000000D03*
X162000000Y-86300000D03*
%TD*%
D13*
%TO.C,H3*%
X171000000Y-98000000D03*
%TD*%
D14*
%TO.C,U1*%
X157300000Y-77239000D03*
D15*
X157387500Y-78739000D03*
D14*
X157300000Y-80239000D03*
%TD*%
D16*
%TO.C,D2*%
X151970000Y-71750000D03*
X151970000Y-69250000D03*
%TD*%
D17*
%TO.C,L1*%
X152937500Y-75438000D03*
X155062500Y-75438000D03*
%TD*%
D18*
%TO.C,C2*%
X157225000Y-82000000D03*
X158775000Y-82000000D03*
%TD*%
%TO.C,C3*%
X151998000Y-73787000D03*
X153548000Y-73787000D03*
%TD*%
D13*
%TO.C,H1*%
X171000000Y-70000000D03*
%TD*%
D19*
%TO.C,U2*%
X152862500Y-83550000D03*
X152862500Y-84500000D03*
X152862500Y-85450000D03*
X155137500Y-85450000D03*
X155137500Y-83550000D03*
%TD*%
D13*
%TO.C,H2*%
X153000000Y-98000000D03*
%TD*%
D18*
%TO.C,C1*%
X157225000Y-75438000D03*
X158775000Y-75438000D03*
%TD*%
D20*
%TO.C,J2*%
X171000000Y-83800000D03*
D21*
X171000000Y-81260000D03*
X171000000Y-78720000D03*
X171000000Y-76180000D03*
%TD*%
D22*
%TO.C,J1*%
X165000000Y-78500000D03*
X153570000Y-78500000D03*
D23*
X163730000Y-72150000D03*
D24*
X162460000Y-69610000D03*
X161190000Y-72150000D03*
X159920000Y-69610000D03*
X158650000Y-72150000D03*
X157380000Y-69610000D03*
X156110000Y-72150000D03*
X154840000Y-69610000D03*
%TD*%
M02*
