%TF.GenerationSoftware,KiCad,Pcbnew,7.0.10*%
%TF.CreationDate,2025-01-30T23:30:39+01:00*%
%TF.ProjectId,Panel,50616e65-6c2e-46b6-9963-61645f706362,rev?*%
%TF.SameCoordinates,Original*%
%TF.FileFunction,Legend,Top*%
%TF.FilePolarity,Positive*%
%FSLAX46Y46*%
G04 Gerber Fmt 4.6, Leading zero omitted, Abs format (unit mm)*
G04 Created by KiCad (PCBNEW 7.0.10) date 2025-01-30 23:30:39*
%MOMM*%
%LPD*%
G01*
G04 APERTURE LIST*
%ADD10C,0.150000*%
%ADD11C,0.120000*%
%ADD12C,0.100000*%
G04 APERTURE END LIST*
D10*
X168059961Y-84776554D02*
X168007580Y-84854649D01*
X168007580Y-84854649D02*
X168007580Y-84971792D01*
X168007580Y-84971792D02*
X168059961Y-85088935D01*
X168059961Y-85088935D02*
X168164723Y-85167030D01*
X168164723Y-85167030D02*
X168269485Y-85206077D01*
X168269485Y-85206077D02*
X168479009Y-85245125D01*
X168479009Y-85245125D02*
X168636152Y-85245125D01*
X168636152Y-85245125D02*
X168845676Y-85206077D01*
X168845676Y-85206077D02*
X168950438Y-85167030D01*
X168950438Y-85167030D02*
X169055200Y-85088935D01*
X169055200Y-85088935D02*
X169107580Y-84971792D01*
X169107580Y-84971792D02*
X169107580Y-84893696D01*
X169107580Y-84893696D02*
X169055200Y-84776554D01*
X169055200Y-84776554D02*
X169002819Y-84737506D01*
X169002819Y-84737506D02*
X168636152Y-84737506D01*
X168636152Y-84737506D02*
X168636152Y-84893696D01*
X169107580Y-84386077D02*
X168007580Y-84386077D01*
X168007580Y-84386077D02*
X169107580Y-83917506D01*
X169107580Y-83917506D02*
X168007580Y-83917506D01*
X169107580Y-83527029D02*
X168007580Y-83527029D01*
X168007580Y-83527029D02*
X168007580Y-83331791D01*
X168007580Y-83331791D02*
X168059961Y-83214648D01*
X168059961Y-83214648D02*
X168164723Y-83136553D01*
X168164723Y-83136553D02*
X168269485Y-83097506D01*
X168269485Y-83097506D02*
X168479009Y-83058458D01*
X168479009Y-83058458D02*
X168636152Y-83058458D01*
X168636152Y-83058458D02*
X168845676Y-83097506D01*
X168845676Y-83097506D02*
X168950438Y-83136553D01*
X168950438Y-83136553D02*
X169055200Y-83214648D01*
X169055200Y-83214648D02*
X169107580Y-83331791D01*
X169107580Y-83331791D02*
X169107580Y-83527029D01*
X169474247Y-82511791D02*
X167902819Y-82511791D01*
X168007580Y-81769887D02*
X168007580Y-81613696D01*
X168007580Y-81613696D02*
X168059961Y-81535601D01*
X168059961Y-81535601D02*
X168164723Y-81457506D01*
X168164723Y-81457506D02*
X168374247Y-81418458D01*
X168374247Y-81418458D02*
X168740914Y-81418458D01*
X168740914Y-81418458D02*
X168950438Y-81457506D01*
X168950438Y-81457506D02*
X169055200Y-81535601D01*
X169055200Y-81535601D02*
X169107580Y-81613696D01*
X169107580Y-81613696D02*
X169107580Y-81769887D01*
X169107580Y-81769887D02*
X169055200Y-81847982D01*
X169055200Y-81847982D02*
X168950438Y-81926077D01*
X168950438Y-81926077D02*
X168740914Y-81965125D01*
X168740914Y-81965125D02*
X168374247Y-81965125D01*
X168374247Y-81965125D02*
X168164723Y-81926077D01*
X168164723Y-81926077D02*
X168059961Y-81847982D01*
X168059961Y-81847982D02*
X168007580Y-81769887D01*
X168112342Y-81106077D02*
X168059961Y-81067029D01*
X168059961Y-81067029D02*
X168007580Y-80988934D01*
X168007580Y-80988934D02*
X168007580Y-80793696D01*
X168007580Y-80793696D02*
X168059961Y-80715601D01*
X168059961Y-80715601D02*
X168112342Y-80676553D01*
X168112342Y-80676553D02*
X168217104Y-80637506D01*
X168217104Y-80637506D02*
X168321866Y-80637506D01*
X168321866Y-80637506D02*
X168479009Y-80676553D01*
X168479009Y-80676553D02*
X169107580Y-81145125D01*
X169107580Y-81145125D02*
X169107580Y-80637506D01*
X169474247Y-80090839D02*
X167902819Y-80090839D01*
X169107580Y-79505125D02*
X168007580Y-79505125D01*
X169107580Y-79114649D02*
X168007580Y-79114649D01*
X168007580Y-79114649D02*
X169107580Y-78646078D01*
X169107580Y-78646078D02*
X168007580Y-78646078D01*
X168007580Y-78333697D02*
X168007580Y-77826078D01*
X168007580Y-77826078D02*
X168426628Y-78099411D01*
X168426628Y-78099411D02*
X168426628Y-77982268D01*
X168426628Y-77982268D02*
X168479009Y-77904173D01*
X168479009Y-77904173D02*
X168531390Y-77865125D01*
X168531390Y-77865125D02*
X168636152Y-77826078D01*
X168636152Y-77826078D02*
X168898057Y-77826078D01*
X168898057Y-77826078D02*
X169002819Y-77865125D01*
X169002819Y-77865125D02*
X169055200Y-77904173D01*
X169055200Y-77904173D02*
X169107580Y-77982268D01*
X169107580Y-77982268D02*
X169107580Y-78216554D01*
X169107580Y-78216554D02*
X169055200Y-78294649D01*
X169055200Y-78294649D02*
X169002819Y-78333697D01*
X169474247Y-77279411D02*
X167902819Y-77279411D01*
X169107580Y-76693697D02*
X168007580Y-76693697D01*
X169107580Y-76303221D02*
X168007580Y-76303221D01*
X168007580Y-76303221D02*
X169107580Y-75834650D01*
X169107580Y-75834650D02*
X168007580Y-75834650D01*
X168374247Y-75092745D02*
X169107580Y-75092745D01*
X167955200Y-75287983D02*
X168740914Y-75483221D01*
X168740914Y-75483221D02*
X168740914Y-74975602D01*
X166791792Y-71582561D02*
X166867982Y-71630180D01*
X166867982Y-71630180D02*
X166982268Y-71630180D01*
X166982268Y-71630180D02*
X167096554Y-71582561D01*
X167096554Y-71582561D02*
X167172744Y-71487323D01*
X167172744Y-71487323D02*
X167210839Y-71392085D01*
X167210839Y-71392085D02*
X167248935Y-71201609D01*
X167248935Y-71201609D02*
X167248935Y-71058752D01*
X167248935Y-71058752D02*
X167210839Y-70868276D01*
X167210839Y-70868276D02*
X167172744Y-70773038D01*
X167172744Y-70773038D02*
X167096554Y-70677800D01*
X167096554Y-70677800D02*
X166982268Y-70630180D01*
X166982268Y-70630180D02*
X166906077Y-70630180D01*
X166906077Y-70630180D02*
X166791792Y-70677800D01*
X166791792Y-70677800D02*
X166753696Y-70725419D01*
X166753696Y-70725419D02*
X166753696Y-71058752D01*
X166753696Y-71058752D02*
X166906077Y-71058752D01*
X166410839Y-70630180D02*
X166410839Y-71630180D01*
X166410839Y-71630180D02*
X165953696Y-70630180D01*
X165953696Y-70630180D02*
X165953696Y-71630180D01*
X165572744Y-70630180D02*
X165572744Y-71630180D01*
X165572744Y-71630180D02*
X165382268Y-71630180D01*
X165382268Y-71630180D02*
X165267982Y-71582561D01*
X165267982Y-71582561D02*
X165191792Y-71487323D01*
X165191792Y-71487323D02*
X165153697Y-71392085D01*
X165153697Y-71392085D02*
X165115601Y-71201609D01*
X165115601Y-71201609D02*
X165115601Y-71058752D01*
X165115601Y-71058752D02*
X165153697Y-70868276D01*
X165153697Y-70868276D02*
X165191792Y-70773038D01*
X165191792Y-70773038D02*
X165267982Y-70677800D01*
X165267982Y-70677800D02*
X165382268Y-70630180D01*
X165382268Y-70630180D02*
X165572744Y-70630180D01*
X156460839Y-67761133D02*
X155851316Y-67761133D01*
X156156077Y-67380180D02*
X156156077Y-68142085D01*
X155051316Y-67380180D02*
X155508459Y-67380180D01*
X155279887Y-67380180D02*
X155279887Y-68380180D01*
X155279887Y-68380180D02*
X155356078Y-68237323D01*
X155356078Y-68237323D02*
X155432268Y-68142085D01*
X155432268Y-68142085D02*
X155508459Y-68094466D01*
X154746554Y-68284942D02*
X154708458Y-68332561D01*
X154708458Y-68332561D02*
X154632268Y-68380180D01*
X154632268Y-68380180D02*
X154441792Y-68380180D01*
X154441792Y-68380180D02*
X154365601Y-68332561D01*
X154365601Y-68332561D02*
X154327506Y-68284942D01*
X154327506Y-68284942D02*
X154289411Y-68189704D01*
X154289411Y-68189704D02*
X154289411Y-68094466D01*
X154289411Y-68094466D02*
X154327506Y-67951609D01*
X154327506Y-67951609D02*
X154784649Y-67380180D01*
X154784649Y-67380180D02*
X154289411Y-67380180D01*
X154060839Y-68380180D02*
X153794172Y-67380180D01*
X153794172Y-67380180D02*
X153527506Y-68380180D01*
D11*
%TO.C,D3*%
X169455000Y-93560000D02*
X169920000Y-93560000D01*
X172080000Y-93560000D02*
X172545000Y-93560000D01*
X169919173Y-88212186D02*
G75*
G03*
X169455170Y-93559999I1080827J-2787814D01*
G01*
X169919572Y-88745522D02*
G75*
G03*
X169920000Y-93254683I1080428J-2254478D01*
G01*
X172080000Y-93254684D02*
G75*
G03*
X172080429Y-88745521I-1080000J2254684D01*
G01*
X172544830Y-93560000D02*
G75*
G03*
X172080827Y-88212185I-1544831J2560000D01*
G01*
%TO.C,D1*%
X151455000Y-93560000D02*
X151920000Y-93560000D01*
X154080000Y-93560000D02*
X154545000Y-93560000D01*
X151919173Y-88212186D02*
G75*
G03*
X151455170Y-93559999I1080827J-2787814D01*
G01*
X151919572Y-88745522D02*
G75*
G03*
X151920000Y-93254683I1080428J-2254478D01*
G01*
X154080000Y-93254684D02*
G75*
G03*
X154080429Y-88745521I-1080000J2254684D01*
G01*
X154544830Y-93560000D02*
G75*
G03*
X154080827Y-88212185I-1544831J2560000D01*
G01*
D12*
%TO.C,S1*%
X162000000Y-98000000D02*
X162000000Y-98000000D01*
X162000000Y-97900000D02*
X162000000Y-97900000D01*
X158570000Y-97350000D02*
X158570000Y-84650000D01*
X161000000Y-97350000D02*
X158570000Y-97350000D01*
X163000000Y-97350000D02*
X165430000Y-97350000D01*
X165430000Y-97350000D02*
X165430000Y-84650000D01*
X158570000Y-84650000D02*
X161000000Y-84650000D01*
X165430000Y-84650000D02*
X163000000Y-84650000D01*
X162000000Y-97900000D02*
G75*
G03*
X162000000Y-98000000I0J-50000D01*
G01*
X162000000Y-98000000D02*
G75*
G03*
X162000000Y-97900000I0J50000D01*
G01*
D11*
%TO.C,U1*%
X156750000Y-76609000D02*
X157890000Y-76609000D01*
X157890000Y-76379000D02*
X157890000Y-76609000D01*
X157890000Y-76379000D02*
X160610000Y-76379000D01*
X157890000Y-81099000D02*
X157890000Y-80869000D01*
X160610000Y-76379000D02*
X160610000Y-77689000D01*
X160610000Y-79789000D02*
X160610000Y-81099000D01*
X160610000Y-81099000D02*
X157890000Y-81099000D01*
%TO.C,D2*%
X151120000Y-72510000D02*
X152820000Y-72510000D01*
X151120000Y-72510000D02*
X151120000Y-69250000D01*
X152820000Y-72510000D02*
X152820000Y-69250000D01*
%TO.C,L1*%
X153600378Y-74878000D02*
X154399622Y-74878000D01*
X153600378Y-75998000D02*
X154399622Y-75998000D01*
%TO.C,C2*%
X157859420Y-81490000D02*
X158140580Y-81490000D01*
X157859420Y-82510000D02*
X158140580Y-82510000D01*
%TO.C,C3*%
X152632420Y-73277000D02*
X152913580Y-73277000D01*
X152632420Y-74297000D02*
X152913580Y-74297000D01*
%TO.C,U2*%
X154000000Y-82940000D02*
X152200000Y-82940000D01*
X154000000Y-82940000D02*
X154800000Y-82940000D01*
X154000000Y-86060000D02*
X153200000Y-86060000D01*
X154000000Y-86060000D02*
X154800000Y-86060000D01*
%TO.C,C1*%
X157859420Y-74928000D02*
X158140580Y-74928000D01*
X157859420Y-75948000D02*
X158140580Y-75948000D01*
%TD*%
M02*
