M48
; DRILL file {KiCad 7.0.10} date Thursday, January 30, 2025 at 11:30:35 PM
; FORMAT={-:-/ absolute / inch / decimal}
; #@! TF.CreationDate,2025-01-30T23:30:35+01:00
; #@! TF.GenerationSoftware,Kicad,Pcbnew,7.0.10
; #@! TF.FileFunction,Plated,1,2,PTH
FMAT,2
INCH
; #@! TA.AperFunction,Plated,PTH,ViaDrill
T1C0.0118
; #@! TA.AperFunction,Plated,PTH,ViaDrill
T2C0.0157
; #@! TA.AperFunction,Plated,PTH,ComponentDrill
T3C0.0350
; #@! TA.AperFunction,Plated,PTH,ComponentDrill
T4C0.0354
; #@! TA.AperFunction,Plated,PTH,ComponentDrill
T5C0.0394
; #@! TA.AperFunction,Plated,PTH,ComponentDrill
T6C0.0728
; #@! TA.AperFunction,Plated,PTH,ComponentDrill
T7C0.1063
%
G90
G05
T1
X5.9449Y-3.0315
X5.9449Y-3.1791
X5.9449Y-3.3268
X5.9449Y-3.3858
X5.9449Y-3.4646
X5.9449Y-3.5827
X5.9449Y-3.7008
X6.0335Y-2.6772
X6.0447Y-2.87
X6.0797Y-2.905
X6.1417Y-3.8189
X6.1845Y-3.2874
X6.1845Y-3.4055
X6.2397Y-3.67
X6.2598Y-3.0118
X6.2598Y-3.0512
X6.2598Y-3.1693
X6.2598Y-3.8189
X6.2992Y-3.0512
X6.2992Y-3.1693
X6.2992Y-3.2087
X6.2997Y-3.53
X6.2997Y-3.63
X6.3386Y-3.1693
X6.3397Y-3.21
X6.3976Y-3.49
X6.4272Y-3.2677
X6.4449Y-2.9055
X6.4597Y-3.53
X6.4597Y-3.63
X6.4665Y-3.2677
X6.4961Y-3.8189
X6.5079Y-2.84
X6.5079Y-2.9055
X6.5197Y-3.67
X6.5551Y-3.49
X6.5748Y-2.9528
X6.6142Y-2.6772
X6.6142Y-2.8937
X6.6142Y-3.248
X6.6142Y-3.7008
X6.6142Y-3.8189
X6.6535Y-3.2972
X6.811Y-2.874
X6.811Y-3.0315
X6.811Y-3.1693
X6.811Y-3.2972
X6.811Y-3.4646
X6.811Y-3.5827
X6.811Y-3.7008
T2
X6.376Y-2.8897
X6.6732Y-2.9331
T3
X6.0961Y-2.7406
X6.1461Y-2.8406
X6.1961Y-2.7406
X6.2461Y-2.8406
X6.2961Y-2.7406
X6.3461Y-2.8406
X6.3961Y-2.7406
X6.4461Y-2.8406
T4
X6.0236Y-3.4552
X6.0236Y-3.5402
X6.0236Y-3.6252
X6.0236Y-3.7102
X6.7323Y-3.4552
X6.7323Y-3.5402
X6.7323Y-3.6252
X6.7323Y-3.7102
T5
X6.7323Y-2.9992
X6.7323Y-3.0992
X6.7323Y-3.1992
X6.7323Y-3.2992
T6
X6.378Y-3.3976
X6.378Y-3.5827
X6.378Y-3.7677
T7
X6.0236Y-3.8583
X6.7323Y-2.7559
X6.7323Y-3.8583
M30
