%TF.GenerationSoftware,KiCad,Pcbnew,7.0.10*%
%TF.CreationDate,2025-01-30T23:53:41+01:00*%
%TF.ProjectId,DoublePanel_VCut,446f7562-6c65-4506-916e-656c5f564375,rev?*%
%TF.SameCoordinates,Original*%
%TF.FileFunction,Drillmap*%
%TF.FilePolarity,Positive*%
%FSLAX45Y45*%
G04 Gerber Fmt 4.5, Leading zero omitted, Abs format (unit mm)*
G04 Created by KiCad (PCBNEW 7.0.10) date 2025-01-30 23:53:41*
%MOMM*%
%LPD*%
G01*
G04 APERTURE LIST*
%ADD10C,0.100000*%
%ADD11C,0.200000*%
%ADD12C,0.325000*%
G04 APERTURE END LIST*
D10*
X17250000Y-5399386D02*
X17250000Y-2000614D01*
X17250000Y-2000611D02*
X17249988Y-2000110D01*
X12450012Y-2000110D02*
X12450000Y-2000611D01*
X12450614Y-5400000D02*
X17249386Y-5400000D01*
X17249389Y-5400000D02*
X17249890Y-5399988D01*
X12450000Y-5399389D02*
X12450012Y-5399890D01*
X12450611Y-2000000D02*
X12450110Y-2000012D01*
X12450110Y-5399988D02*
X12450611Y-5400000D01*
X17249988Y-5399890D02*
X17250000Y-5399389D01*
X12450000Y-2000614D02*
X12450000Y-5399386D01*
X17249386Y-2000000D02*
X12450614Y-2000000D01*
X17249890Y-2000012D02*
X17249389Y-2000000D01*
D11*
D12*
X12644500Y-2987500D02*
X12969500Y-3312500D01*
X12969500Y-2987500D02*
X12644500Y-3312500D01*
X13787500Y-2987500D02*
X14112500Y-3312500D01*
X14112500Y-2987500D02*
X13787500Y-3312500D01*
X15044500Y-2987500D02*
X15369500Y-3312500D01*
X15369500Y-2987500D02*
X15044500Y-3312500D01*
X16187500Y-2987500D02*
X16512500Y-3312500D01*
X16512500Y-2987500D02*
X16187500Y-3312500D01*
D11*
X12705777Y-5716484D02*
X12705777Y-5516484D01*
X12705777Y-5516484D02*
X12753396Y-5516484D01*
X12753396Y-5516484D02*
X12781967Y-5526008D01*
X12781967Y-5526008D02*
X12801015Y-5545055D01*
X12801015Y-5545055D02*
X12810539Y-5564103D01*
X12810539Y-5564103D02*
X12820062Y-5602198D01*
X12820062Y-5602198D02*
X12820062Y-5630769D01*
X12820062Y-5630769D02*
X12810539Y-5668865D01*
X12810539Y-5668865D02*
X12801015Y-5687912D01*
X12801015Y-5687912D02*
X12781967Y-5706960D01*
X12781967Y-5706960D02*
X12753396Y-5716484D01*
X12753396Y-5716484D02*
X12705777Y-5716484D01*
X12905777Y-5716484D02*
X12905777Y-5583150D01*
X12905777Y-5621246D02*
X12915301Y-5602198D01*
X12915301Y-5602198D02*
X12924824Y-5592674D01*
X12924824Y-5592674D02*
X12943872Y-5583150D01*
X12943872Y-5583150D02*
X12962920Y-5583150D01*
X13029586Y-5716484D02*
X13029586Y-5583150D01*
X13029586Y-5516484D02*
X13020062Y-5526008D01*
X13020062Y-5526008D02*
X13029586Y-5535531D01*
X13029586Y-5535531D02*
X13039110Y-5526008D01*
X13039110Y-5526008D02*
X13029586Y-5516484D01*
X13029586Y-5516484D02*
X13029586Y-5535531D01*
X13153396Y-5716484D02*
X13134348Y-5706960D01*
X13134348Y-5706960D02*
X13124824Y-5687912D01*
X13124824Y-5687912D02*
X13124824Y-5516484D01*
X13258158Y-5716484D02*
X13239110Y-5706960D01*
X13239110Y-5706960D02*
X13229586Y-5687912D01*
X13229586Y-5687912D02*
X13229586Y-5516484D01*
X13486729Y-5716484D02*
X13486729Y-5516484D01*
X13486729Y-5516484D02*
X13553396Y-5659341D01*
X13553396Y-5659341D02*
X13620062Y-5516484D01*
X13620062Y-5516484D02*
X13620062Y-5716484D01*
X13801015Y-5716484D02*
X13801015Y-5611722D01*
X13801015Y-5611722D02*
X13791491Y-5592674D01*
X13791491Y-5592674D02*
X13772443Y-5583150D01*
X13772443Y-5583150D02*
X13734348Y-5583150D01*
X13734348Y-5583150D02*
X13715301Y-5592674D01*
X13801015Y-5706960D02*
X13781967Y-5716484D01*
X13781967Y-5716484D02*
X13734348Y-5716484D01*
X13734348Y-5716484D02*
X13715301Y-5706960D01*
X13715301Y-5706960D02*
X13705777Y-5687912D01*
X13705777Y-5687912D02*
X13705777Y-5668865D01*
X13705777Y-5668865D02*
X13715301Y-5649817D01*
X13715301Y-5649817D02*
X13734348Y-5640293D01*
X13734348Y-5640293D02*
X13781967Y-5640293D01*
X13781967Y-5640293D02*
X13801015Y-5630769D01*
X13896253Y-5583150D02*
X13896253Y-5783150D01*
X13896253Y-5592674D02*
X13915301Y-5583150D01*
X13915301Y-5583150D02*
X13953396Y-5583150D01*
X13953396Y-5583150D02*
X13972443Y-5592674D01*
X13972443Y-5592674D02*
X13981967Y-5602198D01*
X13981967Y-5602198D02*
X13991491Y-5621246D01*
X13991491Y-5621246D02*
X13991491Y-5678388D01*
X13991491Y-5678388D02*
X13981967Y-5697436D01*
X13981967Y-5697436D02*
X13972443Y-5706960D01*
X13972443Y-5706960D02*
X13953396Y-5716484D01*
X13953396Y-5716484D02*
X13915301Y-5716484D01*
X13915301Y-5716484D02*
X13896253Y-5706960D01*
X14077205Y-5697436D02*
X14086729Y-5706960D01*
X14086729Y-5706960D02*
X14077205Y-5716484D01*
X14077205Y-5716484D02*
X14067682Y-5706960D01*
X14067682Y-5706960D02*
X14077205Y-5697436D01*
X14077205Y-5697436D02*
X14077205Y-5716484D01*
X14077205Y-5592674D02*
X14086729Y-5602198D01*
X14086729Y-5602198D02*
X14077205Y-5611722D01*
X14077205Y-5611722D02*
X14067682Y-5602198D01*
X14067682Y-5602198D02*
X14077205Y-5592674D01*
X14077205Y-5592674D02*
X14077205Y-5611722D01*
X12245000Y-5945000D02*
X12445000Y-6145000D01*
X12445000Y-5945000D02*
X12245000Y-6145000D01*
X12686729Y-5936484D02*
X12810539Y-5936484D01*
X12810539Y-5936484D02*
X12743872Y-6012674D01*
X12743872Y-6012674D02*
X12772443Y-6012674D01*
X12772443Y-6012674D02*
X12791491Y-6022198D01*
X12791491Y-6022198D02*
X12801015Y-6031722D01*
X12801015Y-6031722D02*
X12810539Y-6050769D01*
X12810539Y-6050769D02*
X12810539Y-6098388D01*
X12810539Y-6098388D02*
X12801015Y-6117436D01*
X12801015Y-6117436D02*
X12791491Y-6126960D01*
X12791491Y-6126960D02*
X12772443Y-6136484D01*
X12772443Y-6136484D02*
X12715301Y-6136484D01*
X12715301Y-6136484D02*
X12696253Y-6126960D01*
X12696253Y-6126960D02*
X12686729Y-6117436D01*
X12896253Y-6117436D02*
X12905777Y-6126960D01*
X12905777Y-6126960D02*
X12896253Y-6136484D01*
X12896253Y-6136484D02*
X12886729Y-6126960D01*
X12886729Y-6126960D02*
X12896253Y-6117436D01*
X12896253Y-6117436D02*
X12896253Y-6136484D01*
X12981967Y-5955531D02*
X12991491Y-5946008D01*
X12991491Y-5946008D02*
X13010539Y-5936484D01*
X13010539Y-5936484D02*
X13058158Y-5936484D01*
X13058158Y-5936484D02*
X13077205Y-5946008D01*
X13077205Y-5946008D02*
X13086729Y-5955531D01*
X13086729Y-5955531D02*
X13096253Y-5974579D01*
X13096253Y-5974579D02*
X13096253Y-5993627D01*
X13096253Y-5993627D02*
X13086729Y-6022198D01*
X13086729Y-6022198D02*
X12972443Y-6136484D01*
X12972443Y-6136484D02*
X13096253Y-6136484D01*
X13277205Y-5936484D02*
X13181967Y-5936484D01*
X13181967Y-5936484D02*
X13172443Y-6031722D01*
X13172443Y-6031722D02*
X13181967Y-6022198D01*
X13181967Y-6022198D02*
X13201015Y-6012674D01*
X13201015Y-6012674D02*
X13248634Y-6012674D01*
X13248634Y-6012674D02*
X13267682Y-6022198D01*
X13267682Y-6022198D02*
X13277205Y-6031722D01*
X13277205Y-6031722D02*
X13286729Y-6050769D01*
X13286729Y-6050769D02*
X13286729Y-6098388D01*
X13286729Y-6098388D02*
X13277205Y-6117436D01*
X13277205Y-6117436D02*
X13267682Y-6126960D01*
X13267682Y-6126960D02*
X13248634Y-6136484D01*
X13248634Y-6136484D02*
X13201015Y-6136484D01*
X13201015Y-6136484D02*
X13181967Y-6126960D01*
X13181967Y-6126960D02*
X13172443Y-6117436D01*
X13410539Y-5936484D02*
X13429586Y-5936484D01*
X13429586Y-5936484D02*
X13448634Y-5946008D01*
X13448634Y-5946008D02*
X13458158Y-5955531D01*
X13458158Y-5955531D02*
X13467682Y-5974579D01*
X13467682Y-5974579D02*
X13477205Y-6012674D01*
X13477205Y-6012674D02*
X13477205Y-6060293D01*
X13477205Y-6060293D02*
X13467682Y-6098388D01*
X13467682Y-6098388D02*
X13458158Y-6117436D01*
X13458158Y-6117436D02*
X13448634Y-6126960D01*
X13448634Y-6126960D02*
X13429586Y-6136484D01*
X13429586Y-6136484D02*
X13410539Y-6136484D01*
X13410539Y-6136484D02*
X13391491Y-6126960D01*
X13391491Y-6126960D02*
X13381967Y-6117436D01*
X13381967Y-6117436D02*
X13372443Y-6098388D01*
X13372443Y-6098388D02*
X13362920Y-6060293D01*
X13362920Y-6060293D02*
X13362920Y-6012674D01*
X13362920Y-6012674D02*
X13372443Y-5974579D01*
X13372443Y-5974579D02*
X13381967Y-5955531D01*
X13381967Y-5955531D02*
X13391491Y-5946008D01*
X13391491Y-5946008D02*
X13410539Y-5936484D01*
X13562920Y-6136484D02*
X13562920Y-6003150D01*
X13562920Y-6022198D02*
X13572443Y-6012674D01*
X13572443Y-6012674D02*
X13591491Y-6003150D01*
X13591491Y-6003150D02*
X13620063Y-6003150D01*
X13620063Y-6003150D02*
X13639110Y-6012674D01*
X13639110Y-6012674D02*
X13648634Y-6031722D01*
X13648634Y-6031722D02*
X13648634Y-6136484D01*
X13648634Y-6031722D02*
X13658158Y-6012674D01*
X13658158Y-6012674D02*
X13677205Y-6003150D01*
X13677205Y-6003150D02*
X13705777Y-6003150D01*
X13705777Y-6003150D02*
X13724824Y-6012674D01*
X13724824Y-6012674D02*
X13734348Y-6031722D01*
X13734348Y-6031722D02*
X13734348Y-6136484D01*
X13829586Y-6136484D02*
X13829586Y-6003150D01*
X13829586Y-6022198D02*
X13839110Y-6012674D01*
X13839110Y-6012674D02*
X13858158Y-6003150D01*
X13858158Y-6003150D02*
X13886729Y-6003150D01*
X13886729Y-6003150D02*
X13905777Y-6012674D01*
X13905777Y-6012674D02*
X13915301Y-6031722D01*
X13915301Y-6031722D02*
X13915301Y-6136484D01*
X13915301Y-6031722D02*
X13924824Y-6012674D01*
X13924824Y-6012674D02*
X13943872Y-6003150D01*
X13943872Y-6003150D02*
X13972443Y-6003150D01*
X13972443Y-6003150D02*
X13991491Y-6012674D01*
X13991491Y-6012674D02*
X14001015Y-6031722D01*
X14001015Y-6031722D02*
X14001015Y-6136484D01*
X14391491Y-5926960D02*
X14220063Y-6184103D01*
X14648634Y-5936484D02*
X14667682Y-5936484D01*
X14667682Y-5936484D02*
X14686729Y-5946008D01*
X14686729Y-5946008D02*
X14696253Y-5955531D01*
X14696253Y-5955531D02*
X14705777Y-5974579D01*
X14705777Y-5974579D02*
X14715301Y-6012674D01*
X14715301Y-6012674D02*
X14715301Y-6060293D01*
X14715301Y-6060293D02*
X14705777Y-6098388D01*
X14705777Y-6098388D02*
X14696253Y-6117436D01*
X14696253Y-6117436D02*
X14686729Y-6126960D01*
X14686729Y-6126960D02*
X14667682Y-6136484D01*
X14667682Y-6136484D02*
X14648634Y-6136484D01*
X14648634Y-6136484D02*
X14629586Y-6126960D01*
X14629586Y-6126960D02*
X14620063Y-6117436D01*
X14620063Y-6117436D02*
X14610539Y-6098388D01*
X14610539Y-6098388D02*
X14601015Y-6060293D01*
X14601015Y-6060293D02*
X14601015Y-6012674D01*
X14601015Y-6012674D02*
X14610539Y-5974579D01*
X14610539Y-5974579D02*
X14620063Y-5955531D01*
X14620063Y-5955531D02*
X14629586Y-5946008D01*
X14629586Y-5946008D02*
X14648634Y-5936484D01*
X14801015Y-6117436D02*
X14810539Y-6126960D01*
X14810539Y-6126960D02*
X14801015Y-6136484D01*
X14801015Y-6136484D02*
X14791491Y-6126960D01*
X14791491Y-6126960D02*
X14801015Y-6117436D01*
X14801015Y-6117436D02*
X14801015Y-6136484D01*
X15001015Y-6136484D02*
X14886729Y-6136484D01*
X14943872Y-6136484D02*
X14943872Y-5936484D01*
X14943872Y-5936484D02*
X14924825Y-5965055D01*
X14924825Y-5965055D02*
X14905777Y-5984103D01*
X14905777Y-5984103D02*
X14886729Y-5993627D01*
X15077206Y-5955531D02*
X15086729Y-5946008D01*
X15086729Y-5946008D02*
X15105777Y-5936484D01*
X15105777Y-5936484D02*
X15153396Y-5936484D01*
X15153396Y-5936484D02*
X15172444Y-5946008D01*
X15172444Y-5946008D02*
X15181967Y-5955531D01*
X15181967Y-5955531D02*
X15191491Y-5974579D01*
X15191491Y-5974579D02*
X15191491Y-5993627D01*
X15191491Y-5993627D02*
X15181967Y-6022198D01*
X15181967Y-6022198D02*
X15067682Y-6136484D01*
X15067682Y-6136484D02*
X15191491Y-6136484D01*
X15305777Y-6022198D02*
X15286729Y-6012674D01*
X15286729Y-6012674D02*
X15277206Y-6003150D01*
X15277206Y-6003150D02*
X15267682Y-5984103D01*
X15267682Y-5984103D02*
X15267682Y-5974579D01*
X15267682Y-5974579D02*
X15277206Y-5955531D01*
X15277206Y-5955531D02*
X15286729Y-5946008D01*
X15286729Y-5946008D02*
X15305777Y-5936484D01*
X15305777Y-5936484D02*
X15343872Y-5936484D01*
X15343872Y-5936484D02*
X15362920Y-5946008D01*
X15362920Y-5946008D02*
X15372444Y-5955531D01*
X15372444Y-5955531D02*
X15381967Y-5974579D01*
X15381967Y-5974579D02*
X15381967Y-5984103D01*
X15381967Y-5984103D02*
X15372444Y-6003150D01*
X15372444Y-6003150D02*
X15362920Y-6012674D01*
X15362920Y-6012674D02*
X15343872Y-6022198D01*
X15343872Y-6022198D02*
X15305777Y-6022198D01*
X15305777Y-6022198D02*
X15286729Y-6031722D01*
X15286729Y-6031722D02*
X15277206Y-6041246D01*
X15277206Y-6041246D02*
X15267682Y-6060293D01*
X15267682Y-6060293D02*
X15267682Y-6098388D01*
X15267682Y-6098388D02*
X15277206Y-6117436D01*
X15277206Y-6117436D02*
X15286729Y-6126960D01*
X15286729Y-6126960D02*
X15305777Y-6136484D01*
X15305777Y-6136484D02*
X15343872Y-6136484D01*
X15343872Y-6136484D02*
X15362920Y-6126960D01*
X15362920Y-6126960D02*
X15372444Y-6117436D01*
X15372444Y-6117436D02*
X15381967Y-6098388D01*
X15381967Y-6098388D02*
X15381967Y-6060293D01*
X15381967Y-6060293D02*
X15372444Y-6041246D01*
X15372444Y-6041246D02*
X15362920Y-6031722D01*
X15362920Y-6031722D02*
X15343872Y-6022198D01*
X15505777Y-5936484D02*
X15524825Y-5936484D01*
X15524825Y-5936484D02*
X15543872Y-5946008D01*
X15543872Y-5946008D02*
X15553396Y-5955531D01*
X15553396Y-5955531D02*
X15562920Y-5974579D01*
X15562920Y-5974579D02*
X15572444Y-6012674D01*
X15572444Y-6012674D02*
X15572444Y-6060293D01*
X15572444Y-6060293D02*
X15562920Y-6098388D01*
X15562920Y-6098388D02*
X15553396Y-6117436D01*
X15553396Y-6117436D02*
X15543872Y-6126960D01*
X15543872Y-6126960D02*
X15524825Y-6136484D01*
X15524825Y-6136484D02*
X15505777Y-6136484D01*
X15505777Y-6136484D02*
X15486729Y-6126960D01*
X15486729Y-6126960D02*
X15477206Y-6117436D01*
X15477206Y-6117436D02*
X15467682Y-6098388D01*
X15467682Y-6098388D02*
X15458158Y-6060293D01*
X15458158Y-6060293D02*
X15458158Y-6012674D01*
X15458158Y-6012674D02*
X15467682Y-5974579D01*
X15467682Y-5974579D02*
X15477206Y-5955531D01*
X15477206Y-5955531D02*
X15486729Y-5946008D01*
X15486729Y-5946008D02*
X15505777Y-5936484D01*
X15648634Y-5936484D02*
X15648634Y-5974579D01*
X15724825Y-5936484D02*
X15724825Y-5974579D01*
X16020063Y-6212674D02*
X16010539Y-6203150D01*
X16010539Y-6203150D02*
X15991491Y-6174579D01*
X15991491Y-6174579D02*
X15981968Y-6155531D01*
X15981968Y-6155531D02*
X15972444Y-6126960D01*
X15972444Y-6126960D02*
X15962920Y-6079341D01*
X15962920Y-6079341D02*
X15962920Y-6041246D01*
X15962920Y-6041246D02*
X15972444Y-5993627D01*
X15972444Y-5993627D02*
X15981968Y-5965055D01*
X15981968Y-5965055D02*
X15991491Y-5946008D01*
X15991491Y-5946008D02*
X16010539Y-5917436D01*
X16010539Y-5917436D02*
X16020063Y-5907912D01*
X16181968Y-6003150D02*
X16181968Y-6136484D01*
X16134348Y-5926960D02*
X16086729Y-6069817D01*
X16086729Y-6069817D02*
X16210539Y-6069817D01*
X16439110Y-6136484D02*
X16439110Y-5936484D01*
X16524825Y-6136484D02*
X16524825Y-6031722D01*
X16524825Y-6031722D02*
X16515301Y-6012674D01*
X16515301Y-6012674D02*
X16496253Y-6003150D01*
X16496253Y-6003150D02*
X16467682Y-6003150D01*
X16467682Y-6003150D02*
X16448634Y-6012674D01*
X16448634Y-6012674D02*
X16439110Y-6022198D01*
X16648634Y-6136484D02*
X16629587Y-6126960D01*
X16629587Y-6126960D02*
X16620063Y-6117436D01*
X16620063Y-6117436D02*
X16610539Y-6098388D01*
X16610539Y-6098388D02*
X16610539Y-6041246D01*
X16610539Y-6041246D02*
X16620063Y-6022198D01*
X16620063Y-6022198D02*
X16629587Y-6012674D01*
X16629587Y-6012674D02*
X16648634Y-6003150D01*
X16648634Y-6003150D02*
X16677206Y-6003150D01*
X16677206Y-6003150D02*
X16696253Y-6012674D01*
X16696253Y-6012674D02*
X16705777Y-6022198D01*
X16705777Y-6022198D02*
X16715301Y-6041246D01*
X16715301Y-6041246D02*
X16715301Y-6098388D01*
X16715301Y-6098388D02*
X16705777Y-6117436D01*
X16705777Y-6117436D02*
X16696253Y-6126960D01*
X16696253Y-6126960D02*
X16677206Y-6136484D01*
X16677206Y-6136484D02*
X16648634Y-6136484D01*
X16829587Y-6136484D02*
X16810539Y-6126960D01*
X16810539Y-6126960D02*
X16801015Y-6107912D01*
X16801015Y-6107912D02*
X16801015Y-5936484D01*
X16981968Y-6126960D02*
X16962920Y-6136484D01*
X16962920Y-6136484D02*
X16924825Y-6136484D01*
X16924825Y-6136484D02*
X16905777Y-6126960D01*
X16905777Y-6126960D02*
X16896253Y-6107912D01*
X16896253Y-6107912D02*
X16896253Y-6031722D01*
X16896253Y-6031722D02*
X16905777Y-6012674D01*
X16905777Y-6012674D02*
X16924825Y-6003150D01*
X16924825Y-6003150D02*
X16962920Y-6003150D01*
X16962920Y-6003150D02*
X16981968Y-6012674D01*
X16981968Y-6012674D02*
X16991492Y-6031722D01*
X16991492Y-6031722D02*
X16991492Y-6050769D01*
X16991492Y-6050769D02*
X16896253Y-6069817D01*
X17067682Y-6126960D02*
X17086730Y-6136484D01*
X17086730Y-6136484D02*
X17124825Y-6136484D01*
X17124825Y-6136484D02*
X17143873Y-6126960D01*
X17143873Y-6126960D02*
X17153396Y-6107912D01*
X17153396Y-6107912D02*
X17153396Y-6098388D01*
X17153396Y-6098388D02*
X17143873Y-6079341D01*
X17143873Y-6079341D02*
X17124825Y-6069817D01*
X17124825Y-6069817D02*
X17096253Y-6069817D01*
X17096253Y-6069817D02*
X17077206Y-6060293D01*
X17077206Y-6060293D02*
X17067682Y-6041246D01*
X17067682Y-6041246D02*
X17067682Y-6031722D01*
X17067682Y-6031722D02*
X17077206Y-6012674D01*
X17077206Y-6012674D02*
X17096253Y-6003150D01*
X17096253Y-6003150D02*
X17124825Y-6003150D01*
X17124825Y-6003150D02*
X17143873Y-6012674D01*
X17220063Y-6212674D02*
X17229587Y-6203150D01*
X17229587Y-6203150D02*
X17248634Y-6174579D01*
X17248634Y-6174579D02*
X17258158Y-6155531D01*
X17258158Y-6155531D02*
X17267682Y-6126960D01*
X17267682Y-6126960D02*
X17277206Y-6079341D01*
X17277206Y-6079341D02*
X17277206Y-6041246D01*
X17277206Y-6041246D02*
X17267682Y-5993627D01*
X17267682Y-5993627D02*
X17258158Y-5965055D01*
X17258158Y-5965055D02*
X17248634Y-5946008D01*
X17248634Y-5946008D02*
X17229587Y-5917436D01*
X17229587Y-5917436D02*
X17220063Y-5907912D01*
X17581968Y-6212674D02*
X17572444Y-6203150D01*
X17572444Y-6203150D02*
X17553396Y-6174579D01*
X17553396Y-6174579D02*
X17543873Y-6155531D01*
X17543873Y-6155531D02*
X17534349Y-6126960D01*
X17534349Y-6126960D02*
X17524825Y-6079341D01*
X17524825Y-6079341D02*
X17524825Y-6041246D01*
X17524825Y-6041246D02*
X17534349Y-5993627D01*
X17534349Y-5993627D02*
X17543873Y-5965055D01*
X17543873Y-5965055D02*
X17553396Y-5946008D01*
X17553396Y-5946008D02*
X17572444Y-5917436D01*
X17572444Y-5917436D02*
X17581968Y-5907912D01*
X17658158Y-6003150D02*
X17658158Y-6136484D01*
X17658158Y-6022198D02*
X17667682Y-6012674D01*
X17667682Y-6012674D02*
X17686730Y-6003150D01*
X17686730Y-6003150D02*
X17715301Y-6003150D01*
X17715301Y-6003150D02*
X17734349Y-6012674D01*
X17734349Y-6012674D02*
X17743873Y-6031722D01*
X17743873Y-6031722D02*
X17743873Y-6136484D01*
X17867682Y-6136484D02*
X17848634Y-6126960D01*
X17848634Y-6126960D02*
X17839111Y-6117436D01*
X17839111Y-6117436D02*
X17829587Y-6098388D01*
X17829587Y-6098388D02*
X17829587Y-6041246D01*
X17829587Y-6041246D02*
X17839111Y-6022198D01*
X17839111Y-6022198D02*
X17848634Y-6012674D01*
X17848634Y-6012674D02*
X17867682Y-6003150D01*
X17867682Y-6003150D02*
X17896254Y-6003150D01*
X17896254Y-6003150D02*
X17915301Y-6012674D01*
X17915301Y-6012674D02*
X17924825Y-6022198D01*
X17924825Y-6022198D02*
X17934349Y-6041246D01*
X17934349Y-6041246D02*
X17934349Y-6098388D01*
X17934349Y-6098388D02*
X17924825Y-6117436D01*
X17924825Y-6117436D02*
X17915301Y-6126960D01*
X17915301Y-6126960D02*
X17896254Y-6136484D01*
X17896254Y-6136484D02*
X17867682Y-6136484D01*
X17991492Y-6003150D02*
X18067682Y-6003150D01*
X18020063Y-5936484D02*
X18020063Y-6107912D01*
X18020063Y-6107912D02*
X18029587Y-6126960D01*
X18029587Y-6126960D02*
X18048634Y-6136484D01*
X18048634Y-6136484D02*
X18067682Y-6136484D01*
X18286730Y-6003150D02*
X18286730Y-6203150D01*
X18286730Y-6012674D02*
X18305777Y-6003150D01*
X18305777Y-6003150D02*
X18343873Y-6003150D01*
X18343873Y-6003150D02*
X18362920Y-6012674D01*
X18362920Y-6012674D02*
X18372444Y-6022198D01*
X18372444Y-6022198D02*
X18381968Y-6041246D01*
X18381968Y-6041246D02*
X18381968Y-6098388D01*
X18381968Y-6098388D02*
X18372444Y-6117436D01*
X18372444Y-6117436D02*
X18362920Y-6126960D01*
X18362920Y-6126960D02*
X18343873Y-6136484D01*
X18343873Y-6136484D02*
X18305777Y-6136484D01*
X18305777Y-6136484D02*
X18286730Y-6126960D01*
X18496254Y-6136484D02*
X18477206Y-6126960D01*
X18477206Y-6126960D02*
X18467682Y-6107912D01*
X18467682Y-6107912D02*
X18467682Y-5936484D01*
X18658158Y-6136484D02*
X18658158Y-6031722D01*
X18658158Y-6031722D02*
X18648635Y-6012674D01*
X18648635Y-6012674D02*
X18629587Y-6003150D01*
X18629587Y-6003150D02*
X18591492Y-6003150D01*
X18591492Y-6003150D02*
X18572444Y-6012674D01*
X18658158Y-6126960D02*
X18639111Y-6136484D01*
X18639111Y-6136484D02*
X18591492Y-6136484D01*
X18591492Y-6136484D02*
X18572444Y-6126960D01*
X18572444Y-6126960D02*
X18562920Y-6107912D01*
X18562920Y-6107912D02*
X18562920Y-6088865D01*
X18562920Y-6088865D02*
X18572444Y-6069817D01*
X18572444Y-6069817D02*
X18591492Y-6060293D01*
X18591492Y-6060293D02*
X18639111Y-6060293D01*
X18639111Y-6060293D02*
X18658158Y-6050769D01*
X18724825Y-6003150D02*
X18801015Y-6003150D01*
X18753396Y-5936484D02*
X18753396Y-6107912D01*
X18753396Y-6107912D02*
X18762920Y-6126960D01*
X18762920Y-6126960D02*
X18781968Y-6136484D01*
X18781968Y-6136484D02*
X18801015Y-6136484D01*
X18943873Y-6126960D02*
X18924825Y-6136484D01*
X18924825Y-6136484D02*
X18886730Y-6136484D01*
X18886730Y-6136484D02*
X18867682Y-6126960D01*
X18867682Y-6126960D02*
X18858158Y-6107912D01*
X18858158Y-6107912D02*
X18858158Y-6031722D01*
X18858158Y-6031722D02*
X18867682Y-6012674D01*
X18867682Y-6012674D02*
X18886730Y-6003150D01*
X18886730Y-6003150D02*
X18924825Y-6003150D01*
X18924825Y-6003150D02*
X18943873Y-6012674D01*
X18943873Y-6012674D02*
X18953396Y-6031722D01*
X18953396Y-6031722D02*
X18953396Y-6050769D01*
X18953396Y-6050769D02*
X18858158Y-6069817D01*
X19124825Y-6136484D02*
X19124825Y-5936484D01*
X19124825Y-6126960D02*
X19105777Y-6136484D01*
X19105777Y-6136484D02*
X19067682Y-6136484D01*
X19067682Y-6136484D02*
X19048635Y-6126960D01*
X19048635Y-6126960D02*
X19039111Y-6117436D01*
X19039111Y-6117436D02*
X19029587Y-6098388D01*
X19029587Y-6098388D02*
X19029587Y-6041246D01*
X19029587Y-6041246D02*
X19039111Y-6022198D01*
X19039111Y-6022198D02*
X19048635Y-6012674D01*
X19048635Y-6012674D02*
X19067682Y-6003150D01*
X19067682Y-6003150D02*
X19105777Y-6003150D01*
X19105777Y-6003150D02*
X19124825Y-6012674D01*
X19201016Y-6212674D02*
X19210539Y-6203150D01*
X19210539Y-6203150D02*
X19229587Y-6174579D01*
X19229587Y-6174579D02*
X19239111Y-6155531D01*
X19239111Y-6155531D02*
X19248635Y-6126960D01*
X19248635Y-6126960D02*
X19258158Y-6079341D01*
X19258158Y-6079341D02*
X19258158Y-6041246D01*
X19258158Y-6041246D02*
X19248635Y-5993627D01*
X19248635Y-5993627D02*
X19239111Y-5965055D01*
X19239111Y-5965055D02*
X19229587Y-5946008D01*
X19229587Y-5946008D02*
X19210539Y-5917436D01*
X19210539Y-5917436D02*
X19201016Y-5907912D01*
M02*
