%TF.GenerationSoftware,KiCad,Pcbnew,7.0.10*%
%TF.CreationDate,2025-01-30T23:53:47+01:00*%
%TF.ProjectId,DoublePanel_VCut,446f7562-6c65-4506-916e-656c5f564375,rev?*%
%TF.SameCoordinates,Original*%
%TF.FileFunction,Soldermask,Top*%
%TF.FilePolarity,Negative*%
%FSLAX46Y46*%
G04 Gerber Fmt 4.6, Leading zero omitted, Abs format (unit mm)*
G04 Created by KiCad (PCBNEW 7.0.10) date 2025-01-30 23:53:47*
%MOMM*%
%LPD*%
G01*
G04 APERTURE LIST*
G04 Aperture macros list*
%AMRoundRect*
0 Rectangle with rounded corners*
0 $1 Rounding radius*
0 $2 $3 $4 $5 $6 $7 $8 $9 X,Y pos of 4 corners*
0 Add a 4 corners polygon primitive as box body*
4,1,4,$2,$3,$4,$5,$6,$7,$8,$9,$2,$3,0*
0 Add four circle primitives for the rounded corners*
1,1,$1+$1,$2,$3*
1,1,$1+$1,$4,$5*
1,1,$1+$1,$6,$7*
1,1,$1+$1,$8,$9*
0 Add four rect primitives between the rounded corners*
20,1,$1+$1,$2,$3,$4,$5,0*
20,1,$1+$1,$4,$5,$6,$7,0*
20,1,$1+$1,$6,$7,$8,$9,0*
20,1,$1+$1,$8,$9,$2,$3,0*%
%AMFreePoly0*
4,1,9,3.862500,-0.866500,0.737500,-0.866500,0.737500,-0.450000,-0.737500,-0.450000,-0.737500,0.450000,0.737500,0.450000,0.737500,0.866500,3.862500,0.866500,3.862500,-0.866500,3.862500,-0.866500,$1*%
G04 Aperture macros list end*
%ADD10R,1.500000X1.500000*%
%ADD11C,1.800000*%
%ADD12RoundRect,0.225000X-0.225000X-0.250000X0.225000X-0.250000X0.225000X0.250000X-0.225000X0.250000X0*%
%ADD13C,2.775000*%
%ADD14R,1.300000X0.900000*%
%ADD15FreePoly0,0.000000*%
%ADD16C,4.700000*%
%ADD17RoundRect,0.250000X0.250000X-0.250000X0.250000X0.250000X-0.250000X0.250000X-0.250000X-0.250000X0*%
%ADD18RoundRect,0.218750X-0.218750X-0.381250X0.218750X-0.381250X0.218750X0.381250X-0.218750X0.381250X0*%
%ADD19RoundRect,0.150000X-0.512500X-0.150000X0.512500X-0.150000X0.512500X0.150000X-0.512500X0.150000X0*%
%ADD20C,3.250000*%
%ADD21R,1.446000X1.446000*%
%ADD22C,1.446000*%
%ADD23R,1.700000X1.700000*%
%ADD24O,1.700000X1.700000*%
G04 APERTURE END LIST*
D10*
%TO.C,D3*%
X145500000Y-47238500D03*
D11*
X145500000Y-45079500D03*
X145500000Y-42920500D03*
X145500000Y-40761500D03*
%TD*%
D10*
%TO.C,D1*%
X151500000Y-47238500D03*
D11*
X151500000Y-45079500D03*
X151500000Y-42920500D03*
X151500000Y-40761500D03*
%TD*%
D10*
%TO.C,D3*%
X169500000Y-47238500D03*
D11*
X169500000Y-45079500D03*
X169500000Y-42920500D03*
X169500000Y-40761500D03*
%TD*%
D10*
%TO.C,D1*%
X127500000Y-47238500D03*
D11*
X127500000Y-45079500D03*
X127500000Y-42920500D03*
X127500000Y-40761500D03*
%TD*%
D12*
%TO.C,C2*%
X155725000Y-35000000D03*
X157275000Y-35000000D03*
%TD*%
D13*
%TO.C,S1*%
X136500000Y-48700000D03*
X136500000Y-44000000D03*
X136500000Y-39300000D03*
%TD*%
D14*
%TO.C,U1*%
X131800000Y-30239000D03*
D15*
X131887500Y-31739000D03*
D14*
X131800000Y-33239000D03*
%TD*%
D16*
%TO.C,H2*%
X127500000Y-51000000D03*
%TD*%
%TO.C,H3*%
X145500000Y-51000000D03*
%TD*%
D14*
%TO.C,U1*%
X155800000Y-30239000D03*
D15*
X155887500Y-31739000D03*
D14*
X155800000Y-33239000D03*
%TD*%
D16*
%TO.C,H1*%
X169500000Y-23000000D03*
%TD*%
D17*
%TO.C,D2*%
X126470000Y-24750000D03*
X126470000Y-22250000D03*
%TD*%
D18*
%TO.C,L1*%
X151437500Y-28438000D03*
X153562500Y-28438000D03*
%TD*%
D12*
%TO.C,C1*%
X131725000Y-28438000D03*
X133275000Y-28438000D03*
%TD*%
D19*
%TO.C,U2*%
X127362500Y-36550000D03*
X127362500Y-37500000D03*
X127362500Y-38450000D03*
X129637500Y-38450000D03*
X129637500Y-36550000D03*
%TD*%
D16*
%TO.C,H2*%
X151500000Y-51000000D03*
%TD*%
D12*
%TO.C,C3*%
X126498000Y-26787000D03*
X128048000Y-26787000D03*
%TD*%
D16*
%TO.C,H3*%
X169500000Y-51000000D03*
%TD*%
D12*
%TO.C,C2*%
X131725000Y-35000000D03*
X133275000Y-35000000D03*
%TD*%
D18*
%TO.C,L1*%
X127437500Y-28438000D03*
X129562500Y-28438000D03*
%TD*%
D13*
%TO.C,S1*%
X160500000Y-48700000D03*
X160500000Y-44000000D03*
X160500000Y-39300000D03*
%TD*%
D16*
%TO.C,H1*%
X145500000Y-23000000D03*
%TD*%
D12*
%TO.C,C1*%
X155725000Y-28438000D03*
X157275000Y-28438000D03*
%TD*%
D17*
%TO.C,D2*%
X150470000Y-24750000D03*
X150470000Y-22250000D03*
%TD*%
D12*
%TO.C,C3*%
X150498000Y-26787000D03*
X152048000Y-26787000D03*
%TD*%
D19*
%TO.C,U2*%
X151362500Y-36550000D03*
X151362500Y-37500000D03*
X151362500Y-38450000D03*
X153637500Y-38450000D03*
X153637500Y-36550000D03*
%TD*%
D20*
%TO.C,J1*%
X163500000Y-31500000D03*
X152070000Y-31500000D03*
D21*
X162230000Y-25150000D03*
D22*
X160960000Y-22610000D03*
X159690000Y-25150000D03*
X158420000Y-22610000D03*
X157150000Y-25150000D03*
X155880000Y-22610000D03*
X154610000Y-25150000D03*
X153340000Y-22610000D03*
%TD*%
D23*
%TO.C,J2*%
X169500000Y-36800000D03*
D24*
X169500000Y-34260000D03*
X169500000Y-31720000D03*
X169500000Y-29180000D03*
%TD*%
D20*
%TO.C,J1*%
X139500000Y-31500000D03*
X128070000Y-31500000D03*
D21*
X138230000Y-25150000D03*
D22*
X136960000Y-22610000D03*
X135690000Y-25150000D03*
X134420000Y-22610000D03*
X133150000Y-25150000D03*
X131880000Y-22610000D03*
X130610000Y-25150000D03*
X129340000Y-22610000D03*
%TD*%
D23*
%TO.C,J2*%
X145500000Y-36800000D03*
D24*
X145500000Y-34260000D03*
X145500000Y-31720000D03*
X145500000Y-29180000D03*
%TD*%
M02*
