%TF.GenerationSoftware,KiCad,Pcbnew,7.0.10*%
%TF.CreationDate,2025-01-30T23:55:26+01:00*%
%TF.ProjectId,DoublePanel_MouseBites,446f7562-6c65-4506-916e-656c5f4d6f75,rev?*%
%TF.SameCoordinates,Original*%
%TF.FileFunction,Drillmap*%
%TF.FilePolarity,Positive*%
%FSLAX45Y45*%
G04 Gerber Fmt 4.5, Leading zero omitted, Abs format (unit mm)*
G04 Created by KiCad (PCBNEW 7.0.10) date 2025-01-30 23:55:26*
%MOMM*%
%LPD*%
G01*
G04 APERTURE LIST*
%ADD10C,0.100000*%
%ADD11C,0.200000*%
%ADD12C,0.185000*%
%ADD13C,0.270000*%
G04 APERTURE END LIST*
D10*
X12450611Y-2000000D02*
X12450110Y-2000012D01*
X17249890Y-2000012D02*
X17249389Y-2000000D01*
X17250000Y-2000611D02*
X17249988Y-2000110D01*
X17250000Y-5399386D02*
X17250000Y-2000614D01*
X12450110Y-5399988D02*
X12450611Y-5400000D01*
X17249389Y-5400000D02*
X17249890Y-5399988D01*
X17249386Y-2000000D02*
X12450614Y-2000000D01*
X12450012Y-2000110D02*
X12450000Y-2000611D01*
X12450000Y-2000614D02*
X12450000Y-5399386D01*
X12450000Y-5399389D02*
X12450012Y-5399890D01*
X17249988Y-5399890D02*
X17250000Y-5399389D01*
X12450614Y-5400000D02*
X17249386Y-5400000D01*
D11*
D10*
X12535000Y-2985000D02*
X12565000Y-3015000D01*
X12565000Y-2985000D02*
X12535000Y-3015000D01*
X12535000Y-3360000D02*
X12565000Y-3390000D01*
X12565000Y-3360000D02*
X12535000Y-3390000D01*
X12535000Y-3735000D02*
X12565000Y-3765000D01*
X12565000Y-3735000D02*
X12535000Y-3765000D01*
X12535000Y-3885000D02*
X12565000Y-3915000D01*
X12565000Y-3885000D02*
X12535000Y-3915000D01*
X12535000Y-4085000D02*
X12565000Y-4115000D01*
X12565000Y-4085000D02*
X12535000Y-4115000D01*
X12535000Y-4385000D02*
X12565000Y-4415000D01*
X12565000Y-4385000D02*
X12535000Y-4415000D01*
X12535000Y-4685000D02*
X12565000Y-4715000D01*
X12565000Y-4685000D02*
X12535000Y-4715000D01*
X12760000Y-2085000D02*
X12790000Y-2115000D01*
X12790000Y-2085000D02*
X12760000Y-2115000D01*
X12788500Y-2574800D02*
X12818500Y-2604800D01*
X12818500Y-2574800D02*
X12788500Y-2604800D01*
X12877400Y-2663700D02*
X12907400Y-2693700D01*
X12907400Y-2663700D02*
X12877400Y-2693700D01*
X13035000Y-4985000D02*
X13065000Y-5015000D01*
X13065000Y-4985000D02*
X13035000Y-5015000D01*
X13143560Y-3635000D02*
X13173560Y-3665000D01*
X13173560Y-3635000D02*
X13143560Y-3665000D01*
X13143560Y-3935000D02*
X13173560Y-3965000D01*
X13173560Y-3935000D02*
X13143560Y-3965000D01*
X13283800Y-4606800D02*
X13313800Y-4636800D01*
X13313800Y-4606800D02*
X13283800Y-4636800D01*
X13335000Y-2935000D02*
X13365000Y-2965000D01*
X13365000Y-2935000D02*
X13335000Y-2965000D01*
X13335000Y-3035000D02*
X13365000Y-3065000D01*
X13365000Y-3035000D02*
X13335000Y-3065000D01*
X13335000Y-3335000D02*
X13365000Y-3365000D01*
X13365000Y-3335000D02*
X13335000Y-3365000D01*
X13335000Y-4985000D02*
X13365000Y-5015000D01*
X13365000Y-4985000D02*
X13335000Y-5015000D01*
X13435000Y-3035000D02*
X13465000Y-3065000D01*
X13465000Y-3035000D02*
X13435000Y-3065000D01*
X13435000Y-3335000D02*
X13465000Y-3365000D01*
X13465000Y-3335000D02*
X13435000Y-3365000D01*
X13435000Y-3435000D02*
X13465000Y-3465000D01*
X13465000Y-3435000D02*
X13435000Y-3465000D01*
X13436200Y-4251200D02*
X13466200Y-4281200D01*
X13466200Y-4251200D02*
X13436200Y-4281200D01*
X13436200Y-4505200D02*
X13466200Y-4535200D01*
X13466200Y-4505200D02*
X13436200Y-4535200D01*
X13535000Y-3335000D02*
X13565000Y-3365000D01*
X13565000Y-3335000D02*
X13535000Y-3365000D01*
X13537800Y-3438400D02*
X13567800Y-3468400D01*
X13567800Y-3438400D02*
X13537800Y-3468400D01*
X13685000Y-4149600D02*
X13715000Y-4179600D01*
X13715000Y-4149600D02*
X13685000Y-4179600D01*
X13760000Y-3585000D02*
X13790000Y-3615000D01*
X13790000Y-3585000D02*
X13760000Y-3615000D01*
X13805000Y-2665000D02*
X13835000Y-2695000D01*
X13835000Y-2665000D02*
X13805000Y-2695000D01*
X13842600Y-4251200D02*
X13872600Y-4281200D01*
X13872600Y-4251200D02*
X13842600Y-4281200D01*
X13842600Y-4505200D02*
X13872600Y-4535200D01*
X13872600Y-4505200D02*
X13842600Y-4535200D01*
X13860000Y-3585000D02*
X13890000Y-3615000D01*
X13890000Y-3585000D02*
X13860000Y-3615000D01*
X13935000Y-4985000D02*
X13965000Y-5015000D01*
X13965000Y-4985000D02*
X13935000Y-5015000D01*
X13965000Y-2498500D02*
X13995000Y-2528500D01*
X13995000Y-2498500D02*
X13965000Y-2528500D01*
X13965000Y-2665000D02*
X13995000Y-2695000D01*
X13995000Y-2665000D02*
X13965000Y-2695000D01*
X13995000Y-4606800D02*
X14025000Y-4636800D01*
X14025000Y-4606800D02*
X13995000Y-4636800D01*
X14085000Y-4149600D02*
X14115000Y-4179600D01*
X14115000Y-4149600D02*
X14085000Y-4179600D01*
X14135000Y-2785000D02*
X14165000Y-2815000D01*
X14165000Y-2785000D02*
X14135000Y-2815000D01*
X14235000Y-2085000D02*
X14265000Y-2115000D01*
X14265000Y-2085000D02*
X14235000Y-2115000D01*
X14235000Y-2635000D02*
X14265000Y-2665000D01*
X14265000Y-2635000D02*
X14235000Y-2665000D01*
X14235000Y-3535000D02*
X14265000Y-3565000D01*
X14265000Y-3535000D02*
X14235000Y-3565000D01*
X14235000Y-4685000D02*
X14265000Y-4715000D01*
X14265000Y-4685000D02*
X14235000Y-4715000D01*
X14235000Y-4985000D02*
X14265000Y-5015000D01*
X14265000Y-4985000D02*
X14235000Y-5015000D01*
X14335000Y-3660000D02*
X14365000Y-3690000D01*
X14365000Y-3660000D02*
X14335000Y-3690000D01*
X14735000Y-2585000D02*
X14765000Y-2615000D01*
X14765000Y-2585000D02*
X14735000Y-2615000D01*
X14735000Y-2985000D02*
X14765000Y-3015000D01*
X14765000Y-2985000D02*
X14735000Y-3015000D01*
X14735000Y-3335000D02*
X14765000Y-3365000D01*
X14765000Y-3335000D02*
X14735000Y-3365000D01*
X14735000Y-3660000D02*
X14765000Y-3690000D01*
X14765000Y-3660000D02*
X14735000Y-3690000D01*
X14735000Y-4085000D02*
X14765000Y-4115000D01*
X14765000Y-4085000D02*
X14735000Y-4115000D01*
X14735000Y-4385000D02*
X14765000Y-4415000D01*
X14765000Y-4385000D02*
X14735000Y-4415000D01*
X14735000Y-4685000D02*
X14765000Y-4715000D01*
X14765000Y-4685000D02*
X14735000Y-4715000D01*
X14935000Y-2985000D02*
X14965000Y-3015000D01*
X14965000Y-2985000D02*
X14935000Y-3015000D01*
X14935000Y-3360000D02*
X14965000Y-3390000D01*
X14965000Y-3360000D02*
X14935000Y-3390000D01*
X14935000Y-3735000D02*
X14965000Y-3765000D01*
X14965000Y-3735000D02*
X14935000Y-3765000D01*
X14935000Y-3885000D02*
X14965000Y-3915000D01*
X14965000Y-3885000D02*
X14935000Y-3915000D01*
X14935000Y-4085000D02*
X14965000Y-4115000D01*
X14965000Y-4085000D02*
X14935000Y-4115000D01*
X14935000Y-4385000D02*
X14965000Y-4415000D01*
X14965000Y-4385000D02*
X14935000Y-4415000D01*
X14935000Y-4685000D02*
X14965000Y-4715000D01*
X14965000Y-4685000D02*
X14935000Y-4715000D01*
X15160000Y-2085000D02*
X15190000Y-2115000D01*
X15190000Y-2085000D02*
X15160000Y-2115000D01*
X15188500Y-2574800D02*
X15218500Y-2604800D01*
X15218500Y-2574800D02*
X15188500Y-2604800D01*
X15277400Y-2663700D02*
X15307400Y-2693700D01*
X15307400Y-2663700D02*
X15277400Y-2693700D01*
X15435000Y-4985000D02*
X15465000Y-5015000D01*
X15465000Y-4985000D02*
X15435000Y-5015000D01*
X15543560Y-3635000D02*
X15573560Y-3665000D01*
X15573560Y-3635000D02*
X15543560Y-3665000D01*
X15543560Y-3935000D02*
X15573560Y-3965000D01*
X15573560Y-3935000D02*
X15543560Y-3965000D01*
X15683800Y-4606800D02*
X15713800Y-4636800D01*
X15713800Y-4606800D02*
X15683800Y-4636800D01*
X15735000Y-2935000D02*
X15765000Y-2965000D01*
X15765000Y-2935000D02*
X15735000Y-2965000D01*
X15735000Y-3035000D02*
X15765000Y-3065000D01*
X15765000Y-3035000D02*
X15735000Y-3065000D01*
X15735000Y-3335000D02*
X15765000Y-3365000D01*
X15765000Y-3335000D02*
X15735000Y-3365000D01*
X15735000Y-4985000D02*
X15765000Y-5015000D01*
X15765000Y-4985000D02*
X15735000Y-5015000D01*
X15835000Y-3035000D02*
X15865000Y-3065000D01*
X15865000Y-3035000D02*
X15835000Y-3065000D01*
X15835000Y-3335000D02*
X15865000Y-3365000D01*
X15865000Y-3335000D02*
X15835000Y-3365000D01*
X15835000Y-3435000D02*
X15865000Y-3465000D01*
X15865000Y-3435000D02*
X15835000Y-3465000D01*
X15836200Y-4251200D02*
X15866200Y-4281200D01*
X15866200Y-4251200D02*
X15836200Y-4281200D01*
X15836200Y-4505200D02*
X15866200Y-4535200D01*
X15866200Y-4505200D02*
X15836200Y-4535200D01*
X15935000Y-3335000D02*
X15965000Y-3365000D01*
X15965000Y-3335000D02*
X15935000Y-3365000D01*
X15937800Y-3438400D02*
X15967800Y-3468400D01*
X15967800Y-3438400D02*
X15937800Y-3468400D01*
X16085000Y-4149600D02*
X16115000Y-4179600D01*
X16115000Y-4149600D02*
X16085000Y-4179600D01*
X16160000Y-3585000D02*
X16190000Y-3615000D01*
X16190000Y-3585000D02*
X16160000Y-3615000D01*
X16205000Y-2665000D02*
X16235000Y-2695000D01*
X16235000Y-2665000D02*
X16205000Y-2695000D01*
X16242600Y-4251200D02*
X16272600Y-4281200D01*
X16272600Y-4251200D02*
X16242600Y-4281200D01*
X16242600Y-4505200D02*
X16272600Y-4535200D01*
X16272600Y-4505200D02*
X16242600Y-4535200D01*
X16260000Y-3585000D02*
X16290000Y-3615000D01*
X16290000Y-3585000D02*
X16260000Y-3615000D01*
X16335000Y-4985000D02*
X16365000Y-5015000D01*
X16365000Y-4985000D02*
X16335000Y-5015000D01*
X16365000Y-2498500D02*
X16395000Y-2528500D01*
X16395000Y-2498500D02*
X16365000Y-2528500D01*
X16365000Y-2665000D02*
X16395000Y-2695000D01*
X16395000Y-2665000D02*
X16365000Y-2695000D01*
X16395000Y-4606800D02*
X16425000Y-4636800D01*
X16425000Y-4606800D02*
X16395000Y-4636800D01*
X16485000Y-4149600D02*
X16515000Y-4179600D01*
X16515000Y-4149600D02*
X16485000Y-4179600D01*
X16535000Y-2785000D02*
X16565000Y-2815000D01*
X16565000Y-2785000D02*
X16535000Y-2815000D01*
X16635000Y-2085000D02*
X16665000Y-2115000D01*
X16665000Y-2085000D02*
X16635000Y-2115000D01*
X16635000Y-2635000D02*
X16665000Y-2665000D01*
X16665000Y-2635000D02*
X16635000Y-2665000D01*
X16635000Y-3535000D02*
X16665000Y-3565000D01*
X16665000Y-3535000D02*
X16635000Y-3565000D01*
X16635000Y-4685000D02*
X16665000Y-4715000D01*
X16665000Y-4685000D02*
X16635000Y-4715000D01*
X16635000Y-4985000D02*
X16665000Y-5015000D01*
X16665000Y-4985000D02*
X16635000Y-5015000D01*
X16735000Y-3660000D02*
X16765000Y-3690000D01*
X16765000Y-3660000D02*
X16735000Y-3690000D01*
X17135000Y-2585000D02*
X17165000Y-2615000D01*
X17165000Y-2585000D02*
X17135000Y-2615000D01*
X17135000Y-2985000D02*
X17165000Y-3015000D01*
X17165000Y-2985000D02*
X17135000Y-3015000D01*
X17135000Y-3335000D02*
X17165000Y-3365000D01*
X17165000Y-3335000D02*
X17135000Y-3365000D01*
X17135000Y-3660000D02*
X17165000Y-3690000D01*
X17165000Y-3660000D02*
X17135000Y-3690000D01*
X17135000Y-4085000D02*
X17165000Y-4115000D01*
X17165000Y-4085000D02*
X17135000Y-4115000D01*
X17135000Y-4385000D02*
X17165000Y-4415000D01*
X17165000Y-4385000D02*
X17135000Y-4415000D01*
X17135000Y-4685000D02*
X17165000Y-4715000D01*
X17165000Y-4685000D02*
X17135000Y-4715000D01*
X13665000Y-2639896D02*
G75*
G03*
X13625000Y-2639896I-20000J0D01*
G01*
X13625000Y-2639896D02*
G75*
G03*
X13665000Y-2639896I20000J0D01*
G01*
X14420000Y-2750000D02*
G75*
G03*
X14380000Y-2750000I-20000J0D01*
G01*
X14380000Y-2750000D02*
G75*
G03*
X14420000Y-2750000I20000J0D01*
G01*
X16065000Y-2639896D02*
G75*
G03*
X16025000Y-2639896I-20000J0D01*
G01*
X16025000Y-2639896D02*
G75*
G03*
X16065000Y-2639896I20000J0D01*
G01*
X16820000Y-2750000D02*
G75*
G03*
X16780000Y-2750000I-20000J0D01*
G01*
X16780000Y-2750000D02*
G75*
G03*
X16820000Y-2750000I20000J0D01*
G01*
X12934000Y-2216500D02*
X12934000Y-2305500D01*
X12889500Y-2261000D02*
X12978500Y-2261000D01*
X13061000Y-2470500D02*
X13061000Y-2559500D01*
X13016500Y-2515000D02*
X13105500Y-2515000D01*
X13188000Y-2216500D02*
X13188000Y-2305500D01*
X13143500Y-2261000D02*
X13232500Y-2261000D01*
X13315000Y-2470500D02*
X13315000Y-2559500D01*
X13270500Y-2515000D02*
X13359500Y-2515000D01*
X13442000Y-2216500D02*
X13442000Y-2305500D01*
X13397500Y-2261000D02*
X13486500Y-2261000D01*
X13569000Y-2470500D02*
X13569000Y-2559500D01*
X13524500Y-2515000D02*
X13613500Y-2515000D01*
X13696000Y-2216500D02*
X13696000Y-2305500D01*
X13651500Y-2261000D02*
X13740500Y-2261000D01*
X13823000Y-2470500D02*
X13823000Y-2559500D01*
X13778500Y-2515000D02*
X13867500Y-2515000D01*
X15334000Y-2216500D02*
X15334000Y-2305500D01*
X15289500Y-2261000D02*
X15378500Y-2261000D01*
X15461000Y-2470500D02*
X15461000Y-2559500D01*
X15416500Y-2515000D02*
X15505500Y-2515000D01*
X15588000Y-2216500D02*
X15588000Y-2305500D01*
X15543500Y-2261000D02*
X15632500Y-2261000D01*
X15715000Y-2470500D02*
X15715000Y-2559500D01*
X15670500Y-2515000D02*
X15759500Y-2515000D01*
X15842000Y-2216500D02*
X15842000Y-2305500D01*
X15797500Y-2261000D02*
X15886500Y-2261000D01*
X15969000Y-2470500D02*
X15969000Y-2559500D01*
X15924500Y-2515000D02*
X16013500Y-2515000D01*
X16096000Y-2216500D02*
X16096000Y-2305500D01*
X16051500Y-2261000D02*
X16140500Y-2261000D01*
X16223000Y-2470500D02*
X16223000Y-2559500D01*
X16178500Y-2515000D02*
X16267500Y-2515000D01*
X12781820Y-4107970D02*
X12781820Y-4044330D01*
X12718180Y-4044330D01*
X12718180Y-4107970D01*
X12781820Y-4107970D01*
X12781820Y-4323870D02*
X12781820Y-4260230D01*
X12718180Y-4260230D01*
X12718180Y-4323870D01*
X12781820Y-4323870D01*
X12781820Y-4539770D02*
X12781820Y-4476130D01*
X12718180Y-4476130D01*
X12718180Y-4539770D01*
X12781820Y-4539770D01*
X12781820Y-4755670D02*
X12781820Y-4692030D01*
X12718180Y-4692030D01*
X12718180Y-4755670D01*
X12781820Y-4755670D01*
X14581820Y-4107970D02*
X14581820Y-4044330D01*
X14518180Y-4044330D01*
X14518180Y-4107970D01*
X14581820Y-4107970D01*
X14581820Y-4323870D02*
X14581820Y-4260230D01*
X14518180Y-4260230D01*
X14518180Y-4323870D01*
X14581820Y-4323870D01*
X14581820Y-4539770D02*
X14581820Y-4476130D01*
X14518180Y-4476130D01*
X14518180Y-4539770D01*
X14581820Y-4539770D01*
X14581820Y-4755670D02*
X14581820Y-4692030D01*
X14518180Y-4692030D01*
X14518180Y-4755670D01*
X14581820Y-4755670D01*
X15181820Y-4107970D02*
X15181820Y-4044330D01*
X15118180Y-4044330D01*
X15118180Y-4107970D01*
X15181820Y-4107970D01*
X15181820Y-4323870D02*
X15181820Y-4260230D01*
X15118180Y-4260230D01*
X15118180Y-4323870D01*
X15181820Y-4323870D01*
X15181820Y-4539770D02*
X15181820Y-4476130D01*
X15118180Y-4476130D01*
X15118180Y-4539770D01*
X15181820Y-4539770D01*
X15181820Y-4755670D02*
X15181820Y-4692030D01*
X15118180Y-4692030D01*
X15118180Y-4755670D01*
X15181820Y-4755670D01*
X16981820Y-4107970D02*
X16981820Y-4044330D01*
X16918180Y-4044330D01*
X16918180Y-4107970D01*
X16981820Y-4107970D01*
X16981820Y-4323870D02*
X16981820Y-4260230D01*
X16918180Y-4260230D01*
X16918180Y-4323870D01*
X16981820Y-4323870D01*
X16981820Y-4539770D02*
X16981820Y-4476130D01*
X16918180Y-4476130D01*
X16918180Y-4539770D01*
X16981820Y-4539770D01*
X16981820Y-4755670D02*
X16981820Y-4692030D01*
X16918180Y-4692030D01*
X16918180Y-4755670D01*
X16981820Y-4755670D01*
X14550000Y-2968000D02*
X14600000Y-2918000D01*
X14550000Y-2868000D01*
X14500000Y-2918000D01*
X14550000Y-2968000D01*
X14550000Y-3222000D02*
X14600000Y-3172000D01*
X14550000Y-3122000D01*
X14500000Y-3172000D01*
X14550000Y-3222000D01*
X14550000Y-3476000D02*
X14600000Y-3426000D01*
X14550000Y-3376000D01*
X14500000Y-3426000D01*
X14550000Y-3476000D01*
X14550000Y-3730000D02*
X14600000Y-3680000D01*
X14550000Y-3630000D01*
X14500000Y-3680000D01*
X14550000Y-3730000D01*
X16950000Y-2968000D02*
X17000000Y-2918000D01*
X16950000Y-2868000D01*
X16900000Y-2918000D01*
X16950000Y-2968000D01*
X16950000Y-3222000D02*
X17000000Y-3172000D01*
X16950000Y-3122000D01*
X16900000Y-3172000D01*
X16950000Y-3222000D01*
X16950000Y-3476000D02*
X17000000Y-3426000D01*
X16950000Y-3376000D01*
X16900000Y-3426000D01*
X16950000Y-3476000D01*
X16950000Y-3730000D02*
X17000000Y-3680000D01*
X16950000Y-3630000D01*
X16900000Y-3680000D01*
X16950000Y-3730000D01*
D12*
X13557500Y-3837500D02*
X13742500Y-4022500D01*
X13742500Y-3837500D02*
X13557500Y-4022500D01*
X13742500Y-3930000D02*
G75*
G03*
X13557500Y-3930000I-92500J0D01*
G01*
X13557500Y-3930000D02*
G75*
G03*
X13742500Y-3930000I92500J0D01*
G01*
X13557500Y-4307500D02*
X13742500Y-4492500D01*
X13742500Y-4307500D02*
X13557500Y-4492500D01*
X13742500Y-4400000D02*
G75*
G03*
X13557500Y-4400000I-92500J0D01*
G01*
X13557500Y-4400000D02*
G75*
G03*
X13742500Y-4400000I92500J0D01*
G01*
X13557500Y-4777500D02*
X13742500Y-4962500D01*
X13742500Y-4777500D02*
X13557500Y-4962500D01*
X13742500Y-4870000D02*
G75*
G03*
X13557500Y-4870000I-92500J0D01*
G01*
X13557500Y-4870000D02*
G75*
G03*
X13742500Y-4870000I92500J0D01*
G01*
X15957500Y-3837500D02*
X16142500Y-4022500D01*
X16142500Y-3837500D02*
X15957500Y-4022500D01*
X16142500Y-3930000D02*
G75*
G03*
X15957500Y-3930000I-92500J0D01*
G01*
X15957500Y-3930000D02*
G75*
G03*
X16142500Y-3930000I92500J0D01*
G01*
X15957500Y-4307500D02*
X16142500Y-4492500D01*
X16142500Y-4307500D02*
X15957500Y-4492500D01*
X16142500Y-4400000D02*
G75*
G03*
X15957500Y-4400000I-92500J0D01*
G01*
X15957500Y-4400000D02*
G75*
G03*
X16142500Y-4400000I92500J0D01*
G01*
X15957500Y-4777500D02*
X16142500Y-4962500D01*
X16142500Y-4777500D02*
X15957500Y-4962500D01*
X16142500Y-4870000D02*
G75*
G03*
X15957500Y-4870000I-92500J0D01*
G01*
X15957500Y-4870000D02*
G75*
G03*
X16142500Y-4870000I92500J0D01*
G01*
D13*
X12615000Y-4965000D02*
X12885000Y-5235000D01*
X12885000Y-4965000D02*
X12615000Y-5235000D01*
X12750000Y-4965000D02*
X12750000Y-5235000D01*
X12615000Y-5100000D02*
X12885000Y-5100000D01*
X14415000Y-2165000D02*
X14685000Y-2435000D01*
X14685000Y-2165000D02*
X14415000Y-2435000D01*
X14550000Y-2165000D02*
X14550000Y-2435000D01*
X14415000Y-2300000D02*
X14685000Y-2300000D01*
X14415000Y-4965000D02*
X14685000Y-5235000D01*
X14685000Y-4965000D02*
X14415000Y-5235000D01*
X14550000Y-4965000D02*
X14550000Y-5235000D01*
X14415000Y-5100000D02*
X14685000Y-5100000D01*
X15015000Y-4965000D02*
X15285000Y-5235000D01*
X15285000Y-4965000D02*
X15015000Y-5235000D01*
X15150000Y-4965000D02*
X15150000Y-5235000D01*
X15015000Y-5100000D02*
X15285000Y-5100000D01*
X16815000Y-2165000D02*
X17085000Y-2435000D01*
X17085000Y-2165000D02*
X16815000Y-2435000D01*
X16950000Y-2165000D02*
X16950000Y-2435000D01*
X16815000Y-2300000D02*
X17085000Y-2300000D01*
X16815000Y-4965000D02*
X17085000Y-5235000D01*
X17085000Y-4965000D02*
X16815000Y-5235000D01*
X16950000Y-4965000D02*
X16950000Y-5235000D01*
X16815000Y-5100000D02*
X17085000Y-5100000D01*
D11*
X12705777Y-5716484D02*
X12705777Y-5516484D01*
X12705777Y-5516484D02*
X12753396Y-5516484D01*
X12753396Y-5516484D02*
X12781967Y-5526008D01*
X12781967Y-5526008D02*
X12801015Y-5545055D01*
X12801015Y-5545055D02*
X12810539Y-5564103D01*
X12810539Y-5564103D02*
X12820062Y-5602198D01*
X12820062Y-5602198D02*
X12820062Y-5630769D01*
X12820062Y-5630769D02*
X12810539Y-5668865D01*
X12810539Y-5668865D02*
X12801015Y-5687912D01*
X12801015Y-5687912D02*
X12781967Y-5706960D01*
X12781967Y-5706960D02*
X12753396Y-5716484D01*
X12753396Y-5716484D02*
X12705777Y-5716484D01*
X12905777Y-5716484D02*
X12905777Y-5583150D01*
X12905777Y-5621246D02*
X12915301Y-5602198D01*
X12915301Y-5602198D02*
X12924824Y-5592674D01*
X12924824Y-5592674D02*
X12943872Y-5583150D01*
X12943872Y-5583150D02*
X12962920Y-5583150D01*
X13029586Y-5716484D02*
X13029586Y-5583150D01*
X13029586Y-5516484D02*
X13020062Y-5526008D01*
X13020062Y-5526008D02*
X13029586Y-5535531D01*
X13029586Y-5535531D02*
X13039110Y-5526008D01*
X13039110Y-5526008D02*
X13029586Y-5516484D01*
X13029586Y-5516484D02*
X13029586Y-5535531D01*
X13153396Y-5716484D02*
X13134348Y-5706960D01*
X13134348Y-5706960D02*
X13124824Y-5687912D01*
X13124824Y-5687912D02*
X13124824Y-5516484D01*
X13258158Y-5716484D02*
X13239110Y-5706960D01*
X13239110Y-5706960D02*
X13229586Y-5687912D01*
X13229586Y-5687912D02*
X13229586Y-5516484D01*
X13486729Y-5716484D02*
X13486729Y-5516484D01*
X13486729Y-5516484D02*
X13553396Y-5659341D01*
X13553396Y-5659341D02*
X13620062Y-5516484D01*
X13620062Y-5516484D02*
X13620062Y-5716484D01*
X13801015Y-5716484D02*
X13801015Y-5611722D01*
X13801015Y-5611722D02*
X13791491Y-5592674D01*
X13791491Y-5592674D02*
X13772443Y-5583150D01*
X13772443Y-5583150D02*
X13734348Y-5583150D01*
X13734348Y-5583150D02*
X13715301Y-5592674D01*
X13801015Y-5706960D02*
X13781967Y-5716484D01*
X13781967Y-5716484D02*
X13734348Y-5716484D01*
X13734348Y-5716484D02*
X13715301Y-5706960D01*
X13715301Y-5706960D02*
X13705777Y-5687912D01*
X13705777Y-5687912D02*
X13705777Y-5668865D01*
X13705777Y-5668865D02*
X13715301Y-5649817D01*
X13715301Y-5649817D02*
X13734348Y-5640293D01*
X13734348Y-5640293D02*
X13781967Y-5640293D01*
X13781967Y-5640293D02*
X13801015Y-5630769D01*
X13896253Y-5583150D02*
X13896253Y-5783150D01*
X13896253Y-5592674D02*
X13915301Y-5583150D01*
X13915301Y-5583150D02*
X13953396Y-5583150D01*
X13953396Y-5583150D02*
X13972443Y-5592674D01*
X13972443Y-5592674D02*
X13981967Y-5602198D01*
X13981967Y-5602198D02*
X13991491Y-5621246D01*
X13991491Y-5621246D02*
X13991491Y-5678388D01*
X13991491Y-5678388D02*
X13981967Y-5697436D01*
X13981967Y-5697436D02*
X13972443Y-5706960D01*
X13972443Y-5706960D02*
X13953396Y-5716484D01*
X13953396Y-5716484D02*
X13915301Y-5716484D01*
X13915301Y-5716484D02*
X13896253Y-5706960D01*
X14077205Y-5697436D02*
X14086729Y-5706960D01*
X14086729Y-5706960D02*
X14077205Y-5716484D01*
X14077205Y-5716484D02*
X14067682Y-5706960D01*
X14067682Y-5706960D02*
X14077205Y-5697436D01*
X14077205Y-5697436D02*
X14077205Y-5716484D01*
X14077205Y-5592674D02*
X14086729Y-5602198D01*
X14086729Y-5602198D02*
X14077205Y-5611722D01*
X14077205Y-5611722D02*
X14067682Y-5602198D01*
X14067682Y-5602198D02*
X14077205Y-5592674D01*
X14077205Y-5592674D02*
X14077205Y-5611722D01*
D10*
X12415000Y-6030000D02*
X12445000Y-6060000D01*
X12445000Y-6030000D02*
X12415000Y-6060000D01*
D11*
X12743872Y-5936484D02*
X12762920Y-5936484D01*
X12762920Y-5936484D02*
X12781967Y-5946008D01*
X12781967Y-5946008D02*
X12791491Y-5955531D01*
X12791491Y-5955531D02*
X12801015Y-5974579D01*
X12801015Y-5974579D02*
X12810539Y-6012674D01*
X12810539Y-6012674D02*
X12810539Y-6060293D01*
X12810539Y-6060293D02*
X12801015Y-6098388D01*
X12801015Y-6098388D02*
X12791491Y-6117436D01*
X12791491Y-6117436D02*
X12781967Y-6126960D01*
X12781967Y-6126960D02*
X12762920Y-6136484D01*
X12762920Y-6136484D02*
X12743872Y-6136484D01*
X12743872Y-6136484D02*
X12724824Y-6126960D01*
X12724824Y-6126960D02*
X12715301Y-6117436D01*
X12715301Y-6117436D02*
X12705777Y-6098388D01*
X12705777Y-6098388D02*
X12696253Y-6060293D01*
X12696253Y-6060293D02*
X12696253Y-6012674D01*
X12696253Y-6012674D02*
X12705777Y-5974579D01*
X12705777Y-5974579D02*
X12715301Y-5955531D01*
X12715301Y-5955531D02*
X12724824Y-5946008D01*
X12724824Y-5946008D02*
X12743872Y-5936484D01*
X12896253Y-6117436D02*
X12905777Y-6126960D01*
X12905777Y-6126960D02*
X12896253Y-6136484D01*
X12896253Y-6136484D02*
X12886729Y-6126960D01*
X12886729Y-6126960D02*
X12896253Y-6117436D01*
X12896253Y-6117436D02*
X12896253Y-6136484D01*
X12972443Y-5936484D02*
X13096253Y-5936484D01*
X13096253Y-5936484D02*
X13029586Y-6012674D01*
X13029586Y-6012674D02*
X13058158Y-6012674D01*
X13058158Y-6012674D02*
X13077205Y-6022198D01*
X13077205Y-6022198D02*
X13086729Y-6031722D01*
X13086729Y-6031722D02*
X13096253Y-6050769D01*
X13096253Y-6050769D02*
X13096253Y-6098388D01*
X13096253Y-6098388D02*
X13086729Y-6117436D01*
X13086729Y-6117436D02*
X13077205Y-6126960D01*
X13077205Y-6126960D02*
X13058158Y-6136484D01*
X13058158Y-6136484D02*
X13001015Y-6136484D01*
X13001015Y-6136484D02*
X12981967Y-6126960D01*
X12981967Y-6126960D02*
X12972443Y-6117436D01*
X13220062Y-5936484D02*
X13239110Y-5936484D01*
X13239110Y-5936484D02*
X13258158Y-5946008D01*
X13258158Y-5946008D02*
X13267682Y-5955531D01*
X13267682Y-5955531D02*
X13277205Y-5974579D01*
X13277205Y-5974579D02*
X13286729Y-6012674D01*
X13286729Y-6012674D02*
X13286729Y-6060293D01*
X13286729Y-6060293D02*
X13277205Y-6098388D01*
X13277205Y-6098388D02*
X13267682Y-6117436D01*
X13267682Y-6117436D02*
X13258158Y-6126960D01*
X13258158Y-6126960D02*
X13239110Y-6136484D01*
X13239110Y-6136484D02*
X13220062Y-6136484D01*
X13220062Y-6136484D02*
X13201015Y-6126960D01*
X13201015Y-6126960D02*
X13191491Y-6117436D01*
X13191491Y-6117436D02*
X13181967Y-6098388D01*
X13181967Y-6098388D02*
X13172443Y-6060293D01*
X13172443Y-6060293D02*
X13172443Y-6012674D01*
X13172443Y-6012674D02*
X13181967Y-5974579D01*
X13181967Y-5974579D02*
X13191491Y-5955531D01*
X13191491Y-5955531D02*
X13201015Y-5946008D01*
X13201015Y-5946008D02*
X13220062Y-5936484D01*
X13410539Y-5936484D02*
X13429586Y-5936484D01*
X13429586Y-5936484D02*
X13448634Y-5946008D01*
X13448634Y-5946008D02*
X13458158Y-5955531D01*
X13458158Y-5955531D02*
X13467682Y-5974579D01*
X13467682Y-5974579D02*
X13477205Y-6012674D01*
X13477205Y-6012674D02*
X13477205Y-6060293D01*
X13477205Y-6060293D02*
X13467682Y-6098388D01*
X13467682Y-6098388D02*
X13458158Y-6117436D01*
X13458158Y-6117436D02*
X13448634Y-6126960D01*
X13448634Y-6126960D02*
X13429586Y-6136484D01*
X13429586Y-6136484D02*
X13410539Y-6136484D01*
X13410539Y-6136484D02*
X13391491Y-6126960D01*
X13391491Y-6126960D02*
X13381967Y-6117436D01*
X13381967Y-6117436D02*
X13372443Y-6098388D01*
X13372443Y-6098388D02*
X13362920Y-6060293D01*
X13362920Y-6060293D02*
X13362920Y-6012674D01*
X13362920Y-6012674D02*
X13372443Y-5974579D01*
X13372443Y-5974579D02*
X13381967Y-5955531D01*
X13381967Y-5955531D02*
X13391491Y-5946008D01*
X13391491Y-5946008D02*
X13410539Y-5936484D01*
X13562920Y-6136484D02*
X13562920Y-6003150D01*
X13562920Y-6022198D02*
X13572443Y-6012674D01*
X13572443Y-6012674D02*
X13591491Y-6003150D01*
X13591491Y-6003150D02*
X13620063Y-6003150D01*
X13620063Y-6003150D02*
X13639110Y-6012674D01*
X13639110Y-6012674D02*
X13648634Y-6031722D01*
X13648634Y-6031722D02*
X13648634Y-6136484D01*
X13648634Y-6031722D02*
X13658158Y-6012674D01*
X13658158Y-6012674D02*
X13677205Y-6003150D01*
X13677205Y-6003150D02*
X13705777Y-6003150D01*
X13705777Y-6003150D02*
X13724824Y-6012674D01*
X13724824Y-6012674D02*
X13734348Y-6031722D01*
X13734348Y-6031722D02*
X13734348Y-6136484D01*
X13829586Y-6136484D02*
X13829586Y-6003150D01*
X13829586Y-6022198D02*
X13839110Y-6012674D01*
X13839110Y-6012674D02*
X13858158Y-6003150D01*
X13858158Y-6003150D02*
X13886729Y-6003150D01*
X13886729Y-6003150D02*
X13905777Y-6012674D01*
X13905777Y-6012674D02*
X13915301Y-6031722D01*
X13915301Y-6031722D02*
X13915301Y-6136484D01*
X13915301Y-6031722D02*
X13924824Y-6012674D01*
X13924824Y-6012674D02*
X13943872Y-6003150D01*
X13943872Y-6003150D02*
X13972443Y-6003150D01*
X13972443Y-6003150D02*
X13991491Y-6012674D01*
X13991491Y-6012674D02*
X14001015Y-6031722D01*
X14001015Y-6031722D02*
X14001015Y-6136484D01*
X14391491Y-5926960D02*
X14220063Y-6184103D01*
X14648634Y-5936484D02*
X14667682Y-5936484D01*
X14667682Y-5936484D02*
X14686729Y-5946008D01*
X14686729Y-5946008D02*
X14696253Y-5955531D01*
X14696253Y-5955531D02*
X14705777Y-5974579D01*
X14705777Y-5974579D02*
X14715301Y-6012674D01*
X14715301Y-6012674D02*
X14715301Y-6060293D01*
X14715301Y-6060293D02*
X14705777Y-6098388D01*
X14705777Y-6098388D02*
X14696253Y-6117436D01*
X14696253Y-6117436D02*
X14686729Y-6126960D01*
X14686729Y-6126960D02*
X14667682Y-6136484D01*
X14667682Y-6136484D02*
X14648634Y-6136484D01*
X14648634Y-6136484D02*
X14629586Y-6126960D01*
X14629586Y-6126960D02*
X14620063Y-6117436D01*
X14620063Y-6117436D02*
X14610539Y-6098388D01*
X14610539Y-6098388D02*
X14601015Y-6060293D01*
X14601015Y-6060293D02*
X14601015Y-6012674D01*
X14601015Y-6012674D02*
X14610539Y-5974579D01*
X14610539Y-5974579D02*
X14620063Y-5955531D01*
X14620063Y-5955531D02*
X14629586Y-5946008D01*
X14629586Y-5946008D02*
X14648634Y-5936484D01*
X14801015Y-6117436D02*
X14810539Y-6126960D01*
X14810539Y-6126960D02*
X14801015Y-6136484D01*
X14801015Y-6136484D02*
X14791491Y-6126960D01*
X14791491Y-6126960D02*
X14801015Y-6117436D01*
X14801015Y-6117436D02*
X14801015Y-6136484D01*
X14934348Y-5936484D02*
X14953396Y-5936484D01*
X14953396Y-5936484D02*
X14972444Y-5946008D01*
X14972444Y-5946008D02*
X14981967Y-5955531D01*
X14981967Y-5955531D02*
X14991491Y-5974579D01*
X14991491Y-5974579D02*
X15001015Y-6012674D01*
X15001015Y-6012674D02*
X15001015Y-6060293D01*
X15001015Y-6060293D02*
X14991491Y-6098388D01*
X14991491Y-6098388D02*
X14981967Y-6117436D01*
X14981967Y-6117436D02*
X14972444Y-6126960D01*
X14972444Y-6126960D02*
X14953396Y-6136484D01*
X14953396Y-6136484D02*
X14934348Y-6136484D01*
X14934348Y-6136484D02*
X14915301Y-6126960D01*
X14915301Y-6126960D02*
X14905777Y-6117436D01*
X14905777Y-6117436D02*
X14896253Y-6098388D01*
X14896253Y-6098388D02*
X14886729Y-6060293D01*
X14886729Y-6060293D02*
X14886729Y-6012674D01*
X14886729Y-6012674D02*
X14896253Y-5974579D01*
X14896253Y-5974579D02*
X14905777Y-5955531D01*
X14905777Y-5955531D02*
X14915301Y-5946008D01*
X14915301Y-5946008D02*
X14934348Y-5936484D01*
X15191491Y-6136484D02*
X15077206Y-6136484D01*
X15134348Y-6136484D02*
X15134348Y-5936484D01*
X15134348Y-5936484D02*
X15115301Y-5965055D01*
X15115301Y-5965055D02*
X15096253Y-5984103D01*
X15096253Y-5984103D02*
X15077206Y-5993627D01*
X15381967Y-6136484D02*
X15267682Y-6136484D01*
X15324825Y-6136484D02*
X15324825Y-5936484D01*
X15324825Y-5936484D02*
X15305777Y-5965055D01*
X15305777Y-5965055D02*
X15286729Y-5984103D01*
X15286729Y-5984103D02*
X15267682Y-5993627D01*
X15496253Y-6022198D02*
X15477206Y-6012674D01*
X15477206Y-6012674D02*
X15467682Y-6003150D01*
X15467682Y-6003150D02*
X15458158Y-5984103D01*
X15458158Y-5984103D02*
X15458158Y-5974579D01*
X15458158Y-5974579D02*
X15467682Y-5955531D01*
X15467682Y-5955531D02*
X15477206Y-5946008D01*
X15477206Y-5946008D02*
X15496253Y-5936484D01*
X15496253Y-5936484D02*
X15534348Y-5936484D01*
X15534348Y-5936484D02*
X15553396Y-5946008D01*
X15553396Y-5946008D02*
X15562920Y-5955531D01*
X15562920Y-5955531D02*
X15572444Y-5974579D01*
X15572444Y-5974579D02*
X15572444Y-5984103D01*
X15572444Y-5984103D02*
X15562920Y-6003150D01*
X15562920Y-6003150D02*
X15553396Y-6012674D01*
X15553396Y-6012674D02*
X15534348Y-6022198D01*
X15534348Y-6022198D02*
X15496253Y-6022198D01*
X15496253Y-6022198D02*
X15477206Y-6031722D01*
X15477206Y-6031722D02*
X15467682Y-6041246D01*
X15467682Y-6041246D02*
X15458158Y-6060293D01*
X15458158Y-6060293D02*
X15458158Y-6098388D01*
X15458158Y-6098388D02*
X15467682Y-6117436D01*
X15467682Y-6117436D02*
X15477206Y-6126960D01*
X15477206Y-6126960D02*
X15496253Y-6136484D01*
X15496253Y-6136484D02*
X15534348Y-6136484D01*
X15534348Y-6136484D02*
X15553396Y-6126960D01*
X15553396Y-6126960D02*
X15562920Y-6117436D01*
X15562920Y-6117436D02*
X15572444Y-6098388D01*
X15572444Y-6098388D02*
X15572444Y-6060293D01*
X15572444Y-6060293D02*
X15562920Y-6041246D01*
X15562920Y-6041246D02*
X15553396Y-6031722D01*
X15553396Y-6031722D02*
X15534348Y-6022198D01*
X15648634Y-5936484D02*
X15648634Y-5974579D01*
X15724825Y-5936484D02*
X15724825Y-5974579D01*
X16020063Y-6212674D02*
X16010539Y-6203150D01*
X16010539Y-6203150D02*
X15991491Y-6174579D01*
X15991491Y-6174579D02*
X15981968Y-6155531D01*
X15981968Y-6155531D02*
X15972444Y-6126960D01*
X15972444Y-6126960D02*
X15962920Y-6079341D01*
X15962920Y-6079341D02*
X15962920Y-6041246D01*
X15962920Y-6041246D02*
X15972444Y-5993627D01*
X15972444Y-5993627D02*
X15981968Y-5965055D01*
X15981968Y-5965055D02*
X15991491Y-5946008D01*
X15991491Y-5946008D02*
X16010539Y-5917436D01*
X16010539Y-5917436D02*
X16020063Y-5907912D01*
X16201015Y-6136484D02*
X16086729Y-6136484D01*
X16143872Y-6136484D02*
X16143872Y-5936484D01*
X16143872Y-5936484D02*
X16124825Y-5965055D01*
X16124825Y-5965055D02*
X16105777Y-5984103D01*
X16105777Y-5984103D02*
X16086729Y-5993627D01*
X16324825Y-5936484D02*
X16343872Y-5936484D01*
X16343872Y-5936484D02*
X16362920Y-5946008D01*
X16362920Y-5946008D02*
X16372444Y-5955531D01*
X16372444Y-5955531D02*
X16381968Y-5974579D01*
X16381968Y-5974579D02*
X16391491Y-6012674D01*
X16391491Y-6012674D02*
X16391491Y-6060293D01*
X16391491Y-6060293D02*
X16381968Y-6098388D01*
X16381968Y-6098388D02*
X16372444Y-6117436D01*
X16372444Y-6117436D02*
X16362920Y-6126960D01*
X16362920Y-6126960D02*
X16343872Y-6136484D01*
X16343872Y-6136484D02*
X16324825Y-6136484D01*
X16324825Y-6136484D02*
X16305777Y-6126960D01*
X16305777Y-6126960D02*
X16296253Y-6117436D01*
X16296253Y-6117436D02*
X16286729Y-6098388D01*
X16286729Y-6098388D02*
X16277206Y-6060293D01*
X16277206Y-6060293D02*
X16277206Y-6012674D01*
X16277206Y-6012674D02*
X16286729Y-5974579D01*
X16286729Y-5974579D02*
X16296253Y-5955531D01*
X16296253Y-5955531D02*
X16305777Y-5946008D01*
X16305777Y-5946008D02*
X16324825Y-5936484D01*
X16515301Y-5936484D02*
X16534349Y-5936484D01*
X16534349Y-5936484D02*
X16553396Y-5946008D01*
X16553396Y-5946008D02*
X16562920Y-5955531D01*
X16562920Y-5955531D02*
X16572444Y-5974579D01*
X16572444Y-5974579D02*
X16581968Y-6012674D01*
X16581968Y-6012674D02*
X16581968Y-6060293D01*
X16581968Y-6060293D02*
X16572444Y-6098388D01*
X16572444Y-6098388D02*
X16562920Y-6117436D01*
X16562920Y-6117436D02*
X16553396Y-6126960D01*
X16553396Y-6126960D02*
X16534349Y-6136484D01*
X16534349Y-6136484D02*
X16515301Y-6136484D01*
X16515301Y-6136484D02*
X16496253Y-6126960D01*
X16496253Y-6126960D02*
X16486729Y-6117436D01*
X16486729Y-6117436D02*
X16477206Y-6098388D01*
X16477206Y-6098388D02*
X16467682Y-6060293D01*
X16467682Y-6060293D02*
X16467682Y-6012674D01*
X16467682Y-6012674D02*
X16477206Y-5974579D01*
X16477206Y-5974579D02*
X16486729Y-5955531D01*
X16486729Y-5955531D02*
X16496253Y-5946008D01*
X16496253Y-5946008D02*
X16515301Y-5936484D01*
X16820063Y-6136484D02*
X16820063Y-5936484D01*
X16905777Y-6136484D02*
X16905777Y-6031722D01*
X16905777Y-6031722D02*
X16896253Y-6012674D01*
X16896253Y-6012674D02*
X16877206Y-6003150D01*
X16877206Y-6003150D02*
X16848634Y-6003150D01*
X16848634Y-6003150D02*
X16829587Y-6012674D01*
X16829587Y-6012674D02*
X16820063Y-6022198D01*
X17029587Y-6136484D02*
X17010539Y-6126960D01*
X17010539Y-6126960D02*
X17001015Y-6117436D01*
X17001015Y-6117436D02*
X16991492Y-6098388D01*
X16991492Y-6098388D02*
X16991492Y-6041246D01*
X16991492Y-6041246D02*
X17001015Y-6022198D01*
X17001015Y-6022198D02*
X17010539Y-6012674D01*
X17010539Y-6012674D02*
X17029587Y-6003150D01*
X17029587Y-6003150D02*
X17058158Y-6003150D01*
X17058158Y-6003150D02*
X17077206Y-6012674D01*
X17077206Y-6012674D02*
X17086730Y-6022198D01*
X17086730Y-6022198D02*
X17096253Y-6041246D01*
X17096253Y-6041246D02*
X17096253Y-6098388D01*
X17096253Y-6098388D02*
X17086730Y-6117436D01*
X17086730Y-6117436D02*
X17077206Y-6126960D01*
X17077206Y-6126960D02*
X17058158Y-6136484D01*
X17058158Y-6136484D02*
X17029587Y-6136484D01*
X17210539Y-6136484D02*
X17191492Y-6126960D01*
X17191492Y-6126960D02*
X17181968Y-6107912D01*
X17181968Y-6107912D02*
X17181968Y-5936484D01*
X17362920Y-6126960D02*
X17343873Y-6136484D01*
X17343873Y-6136484D02*
X17305777Y-6136484D01*
X17305777Y-6136484D02*
X17286730Y-6126960D01*
X17286730Y-6126960D02*
X17277206Y-6107912D01*
X17277206Y-6107912D02*
X17277206Y-6031722D01*
X17277206Y-6031722D02*
X17286730Y-6012674D01*
X17286730Y-6012674D02*
X17305777Y-6003150D01*
X17305777Y-6003150D02*
X17343873Y-6003150D01*
X17343873Y-6003150D02*
X17362920Y-6012674D01*
X17362920Y-6012674D02*
X17372444Y-6031722D01*
X17372444Y-6031722D02*
X17372444Y-6050769D01*
X17372444Y-6050769D02*
X17277206Y-6069817D01*
X17448634Y-6126960D02*
X17467682Y-6136484D01*
X17467682Y-6136484D02*
X17505777Y-6136484D01*
X17505777Y-6136484D02*
X17524825Y-6126960D01*
X17524825Y-6126960D02*
X17534349Y-6107912D01*
X17534349Y-6107912D02*
X17534349Y-6098388D01*
X17534349Y-6098388D02*
X17524825Y-6079341D01*
X17524825Y-6079341D02*
X17505777Y-6069817D01*
X17505777Y-6069817D02*
X17477206Y-6069817D01*
X17477206Y-6069817D02*
X17458158Y-6060293D01*
X17458158Y-6060293D02*
X17448634Y-6041246D01*
X17448634Y-6041246D02*
X17448634Y-6031722D01*
X17448634Y-6031722D02*
X17458158Y-6012674D01*
X17458158Y-6012674D02*
X17477206Y-6003150D01*
X17477206Y-6003150D02*
X17505777Y-6003150D01*
X17505777Y-6003150D02*
X17524825Y-6012674D01*
X17601015Y-6212674D02*
X17610539Y-6203150D01*
X17610539Y-6203150D02*
X17629587Y-6174579D01*
X17629587Y-6174579D02*
X17639111Y-6155531D01*
X17639111Y-6155531D02*
X17648634Y-6126960D01*
X17648634Y-6126960D02*
X17658158Y-6079341D01*
X17658158Y-6079341D02*
X17658158Y-6041246D01*
X17658158Y-6041246D02*
X17648634Y-5993627D01*
X17648634Y-5993627D02*
X17639111Y-5965055D01*
X17639111Y-5965055D02*
X17629587Y-5946008D01*
X17629587Y-5946008D02*
X17610539Y-5917436D01*
X17610539Y-5917436D02*
X17601015Y-5907912D01*
D10*
X12445000Y-6309000D02*
G75*
G03*
X12405000Y-6309000I-20000J0D01*
G01*
X12405000Y-6309000D02*
G75*
G03*
X12445000Y-6309000I20000J0D01*
G01*
D11*
X12743872Y-6200484D02*
X12762920Y-6200484D01*
X12762920Y-6200484D02*
X12781967Y-6210008D01*
X12781967Y-6210008D02*
X12791491Y-6219531D01*
X12791491Y-6219531D02*
X12801015Y-6238579D01*
X12801015Y-6238579D02*
X12810539Y-6276674D01*
X12810539Y-6276674D02*
X12810539Y-6324293D01*
X12810539Y-6324293D02*
X12801015Y-6362388D01*
X12801015Y-6362388D02*
X12791491Y-6381436D01*
X12791491Y-6381436D02*
X12781967Y-6390960D01*
X12781967Y-6390960D02*
X12762920Y-6400484D01*
X12762920Y-6400484D02*
X12743872Y-6400484D01*
X12743872Y-6400484D02*
X12724824Y-6390960D01*
X12724824Y-6390960D02*
X12715301Y-6381436D01*
X12715301Y-6381436D02*
X12705777Y-6362388D01*
X12705777Y-6362388D02*
X12696253Y-6324293D01*
X12696253Y-6324293D02*
X12696253Y-6276674D01*
X12696253Y-6276674D02*
X12705777Y-6238579D01*
X12705777Y-6238579D02*
X12715301Y-6219531D01*
X12715301Y-6219531D02*
X12724824Y-6210008D01*
X12724824Y-6210008D02*
X12743872Y-6200484D01*
X12896253Y-6381436D02*
X12905777Y-6390960D01*
X12905777Y-6390960D02*
X12896253Y-6400484D01*
X12896253Y-6400484D02*
X12886729Y-6390960D01*
X12886729Y-6390960D02*
X12896253Y-6381436D01*
X12896253Y-6381436D02*
X12896253Y-6400484D01*
X13077205Y-6267150D02*
X13077205Y-6400484D01*
X13029586Y-6190960D02*
X12981967Y-6333817D01*
X12981967Y-6333817D02*
X13105777Y-6333817D01*
X13220062Y-6200484D02*
X13239110Y-6200484D01*
X13239110Y-6200484D02*
X13258158Y-6210008D01*
X13258158Y-6210008D02*
X13267682Y-6219531D01*
X13267682Y-6219531D02*
X13277205Y-6238579D01*
X13277205Y-6238579D02*
X13286729Y-6276674D01*
X13286729Y-6276674D02*
X13286729Y-6324293D01*
X13286729Y-6324293D02*
X13277205Y-6362388D01*
X13277205Y-6362388D02*
X13267682Y-6381436D01*
X13267682Y-6381436D02*
X13258158Y-6390960D01*
X13258158Y-6390960D02*
X13239110Y-6400484D01*
X13239110Y-6400484D02*
X13220062Y-6400484D01*
X13220062Y-6400484D02*
X13201015Y-6390960D01*
X13201015Y-6390960D02*
X13191491Y-6381436D01*
X13191491Y-6381436D02*
X13181967Y-6362388D01*
X13181967Y-6362388D02*
X13172443Y-6324293D01*
X13172443Y-6324293D02*
X13172443Y-6276674D01*
X13172443Y-6276674D02*
X13181967Y-6238579D01*
X13181967Y-6238579D02*
X13191491Y-6219531D01*
X13191491Y-6219531D02*
X13201015Y-6210008D01*
X13201015Y-6210008D02*
X13220062Y-6200484D01*
X13410539Y-6200484D02*
X13429586Y-6200484D01*
X13429586Y-6200484D02*
X13448634Y-6210008D01*
X13448634Y-6210008D02*
X13458158Y-6219531D01*
X13458158Y-6219531D02*
X13467682Y-6238579D01*
X13467682Y-6238579D02*
X13477205Y-6276674D01*
X13477205Y-6276674D02*
X13477205Y-6324293D01*
X13477205Y-6324293D02*
X13467682Y-6362388D01*
X13467682Y-6362388D02*
X13458158Y-6381436D01*
X13458158Y-6381436D02*
X13448634Y-6390960D01*
X13448634Y-6390960D02*
X13429586Y-6400484D01*
X13429586Y-6400484D02*
X13410539Y-6400484D01*
X13410539Y-6400484D02*
X13391491Y-6390960D01*
X13391491Y-6390960D02*
X13381967Y-6381436D01*
X13381967Y-6381436D02*
X13372443Y-6362388D01*
X13372443Y-6362388D02*
X13362920Y-6324293D01*
X13362920Y-6324293D02*
X13362920Y-6276674D01*
X13362920Y-6276674D02*
X13372443Y-6238579D01*
X13372443Y-6238579D02*
X13381967Y-6219531D01*
X13381967Y-6219531D02*
X13391491Y-6210008D01*
X13391491Y-6210008D02*
X13410539Y-6200484D01*
X13562920Y-6400484D02*
X13562920Y-6267150D01*
X13562920Y-6286198D02*
X13572443Y-6276674D01*
X13572443Y-6276674D02*
X13591491Y-6267150D01*
X13591491Y-6267150D02*
X13620063Y-6267150D01*
X13620063Y-6267150D02*
X13639110Y-6276674D01*
X13639110Y-6276674D02*
X13648634Y-6295722D01*
X13648634Y-6295722D02*
X13648634Y-6400484D01*
X13648634Y-6295722D02*
X13658158Y-6276674D01*
X13658158Y-6276674D02*
X13677205Y-6267150D01*
X13677205Y-6267150D02*
X13705777Y-6267150D01*
X13705777Y-6267150D02*
X13724824Y-6276674D01*
X13724824Y-6276674D02*
X13734348Y-6295722D01*
X13734348Y-6295722D02*
X13734348Y-6400484D01*
X13829586Y-6400484D02*
X13829586Y-6267150D01*
X13829586Y-6286198D02*
X13839110Y-6276674D01*
X13839110Y-6276674D02*
X13858158Y-6267150D01*
X13858158Y-6267150D02*
X13886729Y-6267150D01*
X13886729Y-6267150D02*
X13905777Y-6276674D01*
X13905777Y-6276674D02*
X13915301Y-6295722D01*
X13915301Y-6295722D02*
X13915301Y-6400484D01*
X13915301Y-6295722D02*
X13924824Y-6276674D01*
X13924824Y-6276674D02*
X13943872Y-6267150D01*
X13943872Y-6267150D02*
X13972443Y-6267150D01*
X13972443Y-6267150D02*
X13991491Y-6276674D01*
X13991491Y-6276674D02*
X14001015Y-6295722D01*
X14001015Y-6295722D02*
X14001015Y-6400484D01*
X14391491Y-6190960D02*
X14220063Y-6448103D01*
X14648634Y-6200484D02*
X14667682Y-6200484D01*
X14667682Y-6200484D02*
X14686729Y-6210008D01*
X14686729Y-6210008D02*
X14696253Y-6219531D01*
X14696253Y-6219531D02*
X14705777Y-6238579D01*
X14705777Y-6238579D02*
X14715301Y-6276674D01*
X14715301Y-6276674D02*
X14715301Y-6324293D01*
X14715301Y-6324293D02*
X14705777Y-6362388D01*
X14705777Y-6362388D02*
X14696253Y-6381436D01*
X14696253Y-6381436D02*
X14686729Y-6390960D01*
X14686729Y-6390960D02*
X14667682Y-6400484D01*
X14667682Y-6400484D02*
X14648634Y-6400484D01*
X14648634Y-6400484D02*
X14629586Y-6390960D01*
X14629586Y-6390960D02*
X14620063Y-6381436D01*
X14620063Y-6381436D02*
X14610539Y-6362388D01*
X14610539Y-6362388D02*
X14601015Y-6324293D01*
X14601015Y-6324293D02*
X14601015Y-6276674D01*
X14601015Y-6276674D02*
X14610539Y-6238579D01*
X14610539Y-6238579D02*
X14620063Y-6219531D01*
X14620063Y-6219531D02*
X14629586Y-6210008D01*
X14629586Y-6210008D02*
X14648634Y-6200484D01*
X14801015Y-6381436D02*
X14810539Y-6390960D01*
X14810539Y-6390960D02*
X14801015Y-6400484D01*
X14801015Y-6400484D02*
X14791491Y-6390960D01*
X14791491Y-6390960D02*
X14801015Y-6381436D01*
X14801015Y-6381436D02*
X14801015Y-6400484D01*
X14934348Y-6200484D02*
X14953396Y-6200484D01*
X14953396Y-6200484D02*
X14972444Y-6210008D01*
X14972444Y-6210008D02*
X14981967Y-6219531D01*
X14981967Y-6219531D02*
X14991491Y-6238579D01*
X14991491Y-6238579D02*
X15001015Y-6276674D01*
X15001015Y-6276674D02*
X15001015Y-6324293D01*
X15001015Y-6324293D02*
X14991491Y-6362388D01*
X14991491Y-6362388D02*
X14981967Y-6381436D01*
X14981967Y-6381436D02*
X14972444Y-6390960D01*
X14972444Y-6390960D02*
X14953396Y-6400484D01*
X14953396Y-6400484D02*
X14934348Y-6400484D01*
X14934348Y-6400484D02*
X14915301Y-6390960D01*
X14915301Y-6390960D02*
X14905777Y-6381436D01*
X14905777Y-6381436D02*
X14896253Y-6362388D01*
X14896253Y-6362388D02*
X14886729Y-6324293D01*
X14886729Y-6324293D02*
X14886729Y-6276674D01*
X14886729Y-6276674D02*
X14896253Y-6238579D01*
X14896253Y-6238579D02*
X14905777Y-6219531D01*
X14905777Y-6219531D02*
X14915301Y-6210008D01*
X14915301Y-6210008D02*
X14934348Y-6200484D01*
X15191491Y-6400484D02*
X15077206Y-6400484D01*
X15134348Y-6400484D02*
X15134348Y-6200484D01*
X15134348Y-6200484D02*
X15115301Y-6229055D01*
X15115301Y-6229055D02*
X15096253Y-6248103D01*
X15096253Y-6248103D02*
X15077206Y-6257627D01*
X15372444Y-6200484D02*
X15277206Y-6200484D01*
X15277206Y-6200484D02*
X15267682Y-6295722D01*
X15267682Y-6295722D02*
X15277206Y-6286198D01*
X15277206Y-6286198D02*
X15296253Y-6276674D01*
X15296253Y-6276674D02*
X15343872Y-6276674D01*
X15343872Y-6276674D02*
X15362920Y-6286198D01*
X15362920Y-6286198D02*
X15372444Y-6295722D01*
X15372444Y-6295722D02*
X15381967Y-6314769D01*
X15381967Y-6314769D02*
X15381967Y-6362388D01*
X15381967Y-6362388D02*
X15372444Y-6381436D01*
X15372444Y-6381436D02*
X15362920Y-6390960D01*
X15362920Y-6390960D02*
X15343872Y-6400484D01*
X15343872Y-6400484D02*
X15296253Y-6400484D01*
X15296253Y-6400484D02*
X15277206Y-6390960D01*
X15277206Y-6390960D02*
X15267682Y-6381436D01*
X15448634Y-6200484D02*
X15581967Y-6200484D01*
X15581967Y-6200484D02*
X15496253Y-6400484D01*
X15648634Y-6200484D02*
X15648634Y-6238579D01*
X15724825Y-6200484D02*
X15724825Y-6238579D01*
X16020063Y-6476674D02*
X16010539Y-6467150D01*
X16010539Y-6467150D02*
X15991491Y-6438579D01*
X15991491Y-6438579D02*
X15981968Y-6419531D01*
X15981968Y-6419531D02*
X15972444Y-6390960D01*
X15972444Y-6390960D02*
X15962920Y-6343341D01*
X15962920Y-6343341D02*
X15962920Y-6305246D01*
X15962920Y-6305246D02*
X15972444Y-6257627D01*
X15972444Y-6257627D02*
X15981968Y-6229055D01*
X15981968Y-6229055D02*
X15991491Y-6210008D01*
X15991491Y-6210008D02*
X16010539Y-6181436D01*
X16010539Y-6181436D02*
X16020063Y-6171912D01*
X16181968Y-6267150D02*
X16181968Y-6400484D01*
X16134348Y-6190960D02*
X16086729Y-6333817D01*
X16086729Y-6333817D02*
X16210539Y-6333817D01*
X16439110Y-6400484D02*
X16439110Y-6200484D01*
X16524825Y-6400484D02*
X16524825Y-6295722D01*
X16524825Y-6295722D02*
X16515301Y-6276674D01*
X16515301Y-6276674D02*
X16496253Y-6267150D01*
X16496253Y-6267150D02*
X16467682Y-6267150D01*
X16467682Y-6267150D02*
X16448634Y-6276674D01*
X16448634Y-6276674D02*
X16439110Y-6286198D01*
X16648634Y-6400484D02*
X16629587Y-6390960D01*
X16629587Y-6390960D02*
X16620063Y-6381436D01*
X16620063Y-6381436D02*
X16610539Y-6362388D01*
X16610539Y-6362388D02*
X16610539Y-6305246D01*
X16610539Y-6305246D02*
X16620063Y-6286198D01*
X16620063Y-6286198D02*
X16629587Y-6276674D01*
X16629587Y-6276674D02*
X16648634Y-6267150D01*
X16648634Y-6267150D02*
X16677206Y-6267150D01*
X16677206Y-6267150D02*
X16696253Y-6276674D01*
X16696253Y-6276674D02*
X16705777Y-6286198D01*
X16705777Y-6286198D02*
X16715301Y-6305246D01*
X16715301Y-6305246D02*
X16715301Y-6362388D01*
X16715301Y-6362388D02*
X16705777Y-6381436D01*
X16705777Y-6381436D02*
X16696253Y-6390960D01*
X16696253Y-6390960D02*
X16677206Y-6400484D01*
X16677206Y-6400484D02*
X16648634Y-6400484D01*
X16829587Y-6400484D02*
X16810539Y-6390960D01*
X16810539Y-6390960D02*
X16801015Y-6371912D01*
X16801015Y-6371912D02*
X16801015Y-6200484D01*
X16981968Y-6390960D02*
X16962920Y-6400484D01*
X16962920Y-6400484D02*
X16924825Y-6400484D01*
X16924825Y-6400484D02*
X16905777Y-6390960D01*
X16905777Y-6390960D02*
X16896253Y-6371912D01*
X16896253Y-6371912D02*
X16896253Y-6295722D01*
X16896253Y-6295722D02*
X16905777Y-6276674D01*
X16905777Y-6276674D02*
X16924825Y-6267150D01*
X16924825Y-6267150D02*
X16962920Y-6267150D01*
X16962920Y-6267150D02*
X16981968Y-6276674D01*
X16981968Y-6276674D02*
X16991492Y-6295722D01*
X16991492Y-6295722D02*
X16991492Y-6314769D01*
X16991492Y-6314769D02*
X16896253Y-6333817D01*
X17067682Y-6390960D02*
X17086730Y-6400484D01*
X17086730Y-6400484D02*
X17124825Y-6400484D01*
X17124825Y-6400484D02*
X17143873Y-6390960D01*
X17143873Y-6390960D02*
X17153396Y-6371912D01*
X17153396Y-6371912D02*
X17153396Y-6362388D01*
X17153396Y-6362388D02*
X17143873Y-6343341D01*
X17143873Y-6343341D02*
X17124825Y-6333817D01*
X17124825Y-6333817D02*
X17096253Y-6333817D01*
X17096253Y-6333817D02*
X17077206Y-6324293D01*
X17077206Y-6324293D02*
X17067682Y-6305246D01*
X17067682Y-6305246D02*
X17067682Y-6295722D01*
X17067682Y-6295722D02*
X17077206Y-6276674D01*
X17077206Y-6276674D02*
X17096253Y-6267150D01*
X17096253Y-6267150D02*
X17124825Y-6267150D01*
X17124825Y-6267150D02*
X17143873Y-6276674D01*
X17220063Y-6476674D02*
X17229587Y-6467150D01*
X17229587Y-6467150D02*
X17248634Y-6438579D01*
X17248634Y-6438579D02*
X17258158Y-6419531D01*
X17258158Y-6419531D02*
X17267682Y-6390960D01*
X17267682Y-6390960D02*
X17277206Y-6343341D01*
X17277206Y-6343341D02*
X17277206Y-6305246D01*
X17277206Y-6305246D02*
X17267682Y-6257627D01*
X17267682Y-6257627D02*
X17258158Y-6229055D01*
X17258158Y-6229055D02*
X17248634Y-6210008D01*
X17248634Y-6210008D02*
X17229587Y-6181436D01*
X17229587Y-6181436D02*
X17220063Y-6171912D01*
D10*
X12400500Y-6528500D02*
X12400500Y-6617500D01*
X12356000Y-6573000D02*
X12445000Y-6573000D01*
D11*
X12743872Y-6464484D02*
X12762920Y-6464484D01*
X12762920Y-6464484D02*
X12781967Y-6474008D01*
X12781967Y-6474008D02*
X12791491Y-6483531D01*
X12791491Y-6483531D02*
X12801015Y-6502579D01*
X12801015Y-6502579D02*
X12810539Y-6540674D01*
X12810539Y-6540674D02*
X12810539Y-6588293D01*
X12810539Y-6588293D02*
X12801015Y-6626388D01*
X12801015Y-6626388D02*
X12791491Y-6645436D01*
X12791491Y-6645436D02*
X12781967Y-6654960D01*
X12781967Y-6654960D02*
X12762920Y-6664484D01*
X12762920Y-6664484D02*
X12743872Y-6664484D01*
X12743872Y-6664484D02*
X12724824Y-6654960D01*
X12724824Y-6654960D02*
X12715301Y-6645436D01*
X12715301Y-6645436D02*
X12705777Y-6626388D01*
X12705777Y-6626388D02*
X12696253Y-6588293D01*
X12696253Y-6588293D02*
X12696253Y-6540674D01*
X12696253Y-6540674D02*
X12705777Y-6502579D01*
X12705777Y-6502579D02*
X12715301Y-6483531D01*
X12715301Y-6483531D02*
X12724824Y-6474008D01*
X12724824Y-6474008D02*
X12743872Y-6464484D01*
X12896253Y-6645436D02*
X12905777Y-6654960D01*
X12905777Y-6654960D02*
X12896253Y-6664484D01*
X12896253Y-6664484D02*
X12886729Y-6654960D01*
X12886729Y-6654960D02*
X12896253Y-6645436D01*
X12896253Y-6645436D02*
X12896253Y-6664484D01*
X13020062Y-6550198D02*
X13001015Y-6540674D01*
X13001015Y-6540674D02*
X12991491Y-6531150D01*
X12991491Y-6531150D02*
X12981967Y-6512103D01*
X12981967Y-6512103D02*
X12981967Y-6502579D01*
X12981967Y-6502579D02*
X12991491Y-6483531D01*
X12991491Y-6483531D02*
X13001015Y-6474008D01*
X13001015Y-6474008D02*
X13020062Y-6464484D01*
X13020062Y-6464484D02*
X13058158Y-6464484D01*
X13058158Y-6464484D02*
X13077205Y-6474008D01*
X13077205Y-6474008D02*
X13086729Y-6483531D01*
X13086729Y-6483531D02*
X13096253Y-6502579D01*
X13096253Y-6502579D02*
X13096253Y-6512103D01*
X13096253Y-6512103D02*
X13086729Y-6531150D01*
X13086729Y-6531150D02*
X13077205Y-6540674D01*
X13077205Y-6540674D02*
X13058158Y-6550198D01*
X13058158Y-6550198D02*
X13020062Y-6550198D01*
X13020062Y-6550198D02*
X13001015Y-6559722D01*
X13001015Y-6559722D02*
X12991491Y-6569246D01*
X12991491Y-6569246D02*
X12981967Y-6588293D01*
X12981967Y-6588293D02*
X12981967Y-6626388D01*
X12981967Y-6626388D02*
X12991491Y-6645436D01*
X12991491Y-6645436D02*
X13001015Y-6654960D01*
X13001015Y-6654960D02*
X13020062Y-6664484D01*
X13020062Y-6664484D02*
X13058158Y-6664484D01*
X13058158Y-6664484D02*
X13077205Y-6654960D01*
X13077205Y-6654960D02*
X13086729Y-6645436D01*
X13086729Y-6645436D02*
X13096253Y-6626388D01*
X13096253Y-6626388D02*
X13096253Y-6588293D01*
X13096253Y-6588293D02*
X13086729Y-6569246D01*
X13086729Y-6569246D02*
X13077205Y-6559722D01*
X13077205Y-6559722D02*
X13058158Y-6550198D01*
X13191491Y-6664484D02*
X13229586Y-6664484D01*
X13229586Y-6664484D02*
X13248634Y-6654960D01*
X13248634Y-6654960D02*
X13258158Y-6645436D01*
X13258158Y-6645436D02*
X13277205Y-6616865D01*
X13277205Y-6616865D02*
X13286729Y-6578769D01*
X13286729Y-6578769D02*
X13286729Y-6502579D01*
X13286729Y-6502579D02*
X13277205Y-6483531D01*
X13277205Y-6483531D02*
X13267682Y-6474008D01*
X13267682Y-6474008D02*
X13248634Y-6464484D01*
X13248634Y-6464484D02*
X13210539Y-6464484D01*
X13210539Y-6464484D02*
X13191491Y-6474008D01*
X13191491Y-6474008D02*
X13181967Y-6483531D01*
X13181967Y-6483531D02*
X13172443Y-6502579D01*
X13172443Y-6502579D02*
X13172443Y-6550198D01*
X13172443Y-6550198D02*
X13181967Y-6569246D01*
X13181967Y-6569246D02*
X13191491Y-6578769D01*
X13191491Y-6578769D02*
X13210539Y-6588293D01*
X13210539Y-6588293D02*
X13248634Y-6588293D01*
X13248634Y-6588293D02*
X13267682Y-6578769D01*
X13267682Y-6578769D02*
X13277205Y-6569246D01*
X13277205Y-6569246D02*
X13286729Y-6550198D01*
X13410539Y-6464484D02*
X13429586Y-6464484D01*
X13429586Y-6464484D02*
X13448634Y-6474008D01*
X13448634Y-6474008D02*
X13458158Y-6483531D01*
X13458158Y-6483531D02*
X13467682Y-6502579D01*
X13467682Y-6502579D02*
X13477205Y-6540674D01*
X13477205Y-6540674D02*
X13477205Y-6588293D01*
X13477205Y-6588293D02*
X13467682Y-6626388D01*
X13467682Y-6626388D02*
X13458158Y-6645436D01*
X13458158Y-6645436D02*
X13448634Y-6654960D01*
X13448634Y-6654960D02*
X13429586Y-6664484D01*
X13429586Y-6664484D02*
X13410539Y-6664484D01*
X13410539Y-6664484D02*
X13391491Y-6654960D01*
X13391491Y-6654960D02*
X13381967Y-6645436D01*
X13381967Y-6645436D02*
X13372443Y-6626388D01*
X13372443Y-6626388D02*
X13362920Y-6588293D01*
X13362920Y-6588293D02*
X13362920Y-6540674D01*
X13362920Y-6540674D02*
X13372443Y-6502579D01*
X13372443Y-6502579D02*
X13381967Y-6483531D01*
X13381967Y-6483531D02*
X13391491Y-6474008D01*
X13391491Y-6474008D02*
X13410539Y-6464484D01*
X13562920Y-6664484D02*
X13562920Y-6531150D01*
X13562920Y-6550198D02*
X13572443Y-6540674D01*
X13572443Y-6540674D02*
X13591491Y-6531150D01*
X13591491Y-6531150D02*
X13620063Y-6531150D01*
X13620063Y-6531150D02*
X13639110Y-6540674D01*
X13639110Y-6540674D02*
X13648634Y-6559722D01*
X13648634Y-6559722D02*
X13648634Y-6664484D01*
X13648634Y-6559722D02*
X13658158Y-6540674D01*
X13658158Y-6540674D02*
X13677205Y-6531150D01*
X13677205Y-6531150D02*
X13705777Y-6531150D01*
X13705777Y-6531150D02*
X13724824Y-6540674D01*
X13724824Y-6540674D02*
X13734348Y-6559722D01*
X13734348Y-6559722D02*
X13734348Y-6664484D01*
X13829586Y-6664484D02*
X13829586Y-6531150D01*
X13829586Y-6550198D02*
X13839110Y-6540674D01*
X13839110Y-6540674D02*
X13858158Y-6531150D01*
X13858158Y-6531150D02*
X13886729Y-6531150D01*
X13886729Y-6531150D02*
X13905777Y-6540674D01*
X13905777Y-6540674D02*
X13915301Y-6559722D01*
X13915301Y-6559722D02*
X13915301Y-6664484D01*
X13915301Y-6559722D02*
X13924824Y-6540674D01*
X13924824Y-6540674D02*
X13943872Y-6531150D01*
X13943872Y-6531150D02*
X13972443Y-6531150D01*
X13972443Y-6531150D02*
X13991491Y-6540674D01*
X13991491Y-6540674D02*
X14001015Y-6559722D01*
X14001015Y-6559722D02*
X14001015Y-6664484D01*
X14391491Y-6454960D02*
X14220063Y-6712103D01*
X14648634Y-6464484D02*
X14667682Y-6464484D01*
X14667682Y-6464484D02*
X14686729Y-6474008D01*
X14686729Y-6474008D02*
X14696253Y-6483531D01*
X14696253Y-6483531D02*
X14705777Y-6502579D01*
X14705777Y-6502579D02*
X14715301Y-6540674D01*
X14715301Y-6540674D02*
X14715301Y-6588293D01*
X14715301Y-6588293D02*
X14705777Y-6626388D01*
X14705777Y-6626388D02*
X14696253Y-6645436D01*
X14696253Y-6645436D02*
X14686729Y-6654960D01*
X14686729Y-6654960D02*
X14667682Y-6664484D01*
X14667682Y-6664484D02*
X14648634Y-6664484D01*
X14648634Y-6664484D02*
X14629586Y-6654960D01*
X14629586Y-6654960D02*
X14620063Y-6645436D01*
X14620063Y-6645436D02*
X14610539Y-6626388D01*
X14610539Y-6626388D02*
X14601015Y-6588293D01*
X14601015Y-6588293D02*
X14601015Y-6540674D01*
X14601015Y-6540674D02*
X14610539Y-6502579D01*
X14610539Y-6502579D02*
X14620063Y-6483531D01*
X14620063Y-6483531D02*
X14629586Y-6474008D01*
X14629586Y-6474008D02*
X14648634Y-6464484D01*
X14801015Y-6645436D02*
X14810539Y-6654960D01*
X14810539Y-6654960D02*
X14801015Y-6664484D01*
X14801015Y-6664484D02*
X14791491Y-6654960D01*
X14791491Y-6654960D02*
X14801015Y-6645436D01*
X14801015Y-6645436D02*
X14801015Y-6664484D01*
X14934348Y-6464484D02*
X14953396Y-6464484D01*
X14953396Y-6464484D02*
X14972444Y-6474008D01*
X14972444Y-6474008D02*
X14981967Y-6483531D01*
X14981967Y-6483531D02*
X14991491Y-6502579D01*
X14991491Y-6502579D02*
X15001015Y-6540674D01*
X15001015Y-6540674D02*
X15001015Y-6588293D01*
X15001015Y-6588293D02*
X14991491Y-6626388D01*
X14991491Y-6626388D02*
X14981967Y-6645436D01*
X14981967Y-6645436D02*
X14972444Y-6654960D01*
X14972444Y-6654960D02*
X14953396Y-6664484D01*
X14953396Y-6664484D02*
X14934348Y-6664484D01*
X14934348Y-6664484D02*
X14915301Y-6654960D01*
X14915301Y-6654960D02*
X14905777Y-6645436D01*
X14905777Y-6645436D02*
X14896253Y-6626388D01*
X14896253Y-6626388D02*
X14886729Y-6588293D01*
X14886729Y-6588293D02*
X14886729Y-6540674D01*
X14886729Y-6540674D02*
X14896253Y-6502579D01*
X14896253Y-6502579D02*
X14905777Y-6483531D01*
X14905777Y-6483531D02*
X14915301Y-6474008D01*
X14915301Y-6474008D02*
X14934348Y-6464484D01*
X15067682Y-6464484D02*
X15191491Y-6464484D01*
X15191491Y-6464484D02*
X15124825Y-6540674D01*
X15124825Y-6540674D02*
X15153396Y-6540674D01*
X15153396Y-6540674D02*
X15172444Y-6550198D01*
X15172444Y-6550198D02*
X15181967Y-6559722D01*
X15181967Y-6559722D02*
X15191491Y-6578769D01*
X15191491Y-6578769D02*
X15191491Y-6626388D01*
X15191491Y-6626388D02*
X15181967Y-6645436D01*
X15181967Y-6645436D02*
X15172444Y-6654960D01*
X15172444Y-6654960D02*
X15153396Y-6664484D01*
X15153396Y-6664484D02*
X15096253Y-6664484D01*
X15096253Y-6664484D02*
X15077206Y-6654960D01*
X15077206Y-6654960D02*
X15067682Y-6645436D01*
X15372444Y-6464484D02*
X15277206Y-6464484D01*
X15277206Y-6464484D02*
X15267682Y-6559722D01*
X15267682Y-6559722D02*
X15277206Y-6550198D01*
X15277206Y-6550198D02*
X15296253Y-6540674D01*
X15296253Y-6540674D02*
X15343872Y-6540674D01*
X15343872Y-6540674D02*
X15362920Y-6550198D01*
X15362920Y-6550198D02*
X15372444Y-6559722D01*
X15372444Y-6559722D02*
X15381967Y-6578769D01*
X15381967Y-6578769D02*
X15381967Y-6626388D01*
X15381967Y-6626388D02*
X15372444Y-6645436D01*
X15372444Y-6645436D02*
X15362920Y-6654960D01*
X15362920Y-6654960D02*
X15343872Y-6664484D01*
X15343872Y-6664484D02*
X15296253Y-6664484D01*
X15296253Y-6664484D02*
X15277206Y-6654960D01*
X15277206Y-6654960D02*
X15267682Y-6645436D01*
X15505777Y-6464484D02*
X15524825Y-6464484D01*
X15524825Y-6464484D02*
X15543872Y-6474008D01*
X15543872Y-6474008D02*
X15553396Y-6483531D01*
X15553396Y-6483531D02*
X15562920Y-6502579D01*
X15562920Y-6502579D02*
X15572444Y-6540674D01*
X15572444Y-6540674D02*
X15572444Y-6588293D01*
X15572444Y-6588293D02*
X15562920Y-6626388D01*
X15562920Y-6626388D02*
X15553396Y-6645436D01*
X15553396Y-6645436D02*
X15543872Y-6654960D01*
X15543872Y-6654960D02*
X15524825Y-6664484D01*
X15524825Y-6664484D02*
X15505777Y-6664484D01*
X15505777Y-6664484D02*
X15486729Y-6654960D01*
X15486729Y-6654960D02*
X15477206Y-6645436D01*
X15477206Y-6645436D02*
X15467682Y-6626388D01*
X15467682Y-6626388D02*
X15458158Y-6588293D01*
X15458158Y-6588293D02*
X15458158Y-6540674D01*
X15458158Y-6540674D02*
X15467682Y-6502579D01*
X15467682Y-6502579D02*
X15477206Y-6483531D01*
X15477206Y-6483531D02*
X15486729Y-6474008D01*
X15486729Y-6474008D02*
X15505777Y-6464484D01*
X15648634Y-6464484D02*
X15648634Y-6502579D01*
X15724825Y-6464484D02*
X15724825Y-6502579D01*
X16020063Y-6740674D02*
X16010539Y-6731150D01*
X16010539Y-6731150D02*
X15991491Y-6702579D01*
X15991491Y-6702579D02*
X15981968Y-6683531D01*
X15981968Y-6683531D02*
X15972444Y-6654960D01*
X15972444Y-6654960D02*
X15962920Y-6607341D01*
X15962920Y-6607341D02*
X15962920Y-6569246D01*
X15962920Y-6569246D02*
X15972444Y-6521627D01*
X15972444Y-6521627D02*
X15981968Y-6493055D01*
X15981968Y-6493055D02*
X15991491Y-6474008D01*
X15991491Y-6474008D02*
X16010539Y-6445436D01*
X16010539Y-6445436D02*
X16020063Y-6435912D01*
X16201015Y-6664484D02*
X16086729Y-6664484D01*
X16143872Y-6664484D02*
X16143872Y-6464484D01*
X16143872Y-6464484D02*
X16124825Y-6493055D01*
X16124825Y-6493055D02*
X16105777Y-6512103D01*
X16105777Y-6512103D02*
X16086729Y-6521627D01*
X16372444Y-6464484D02*
X16334348Y-6464484D01*
X16334348Y-6464484D02*
X16315301Y-6474008D01*
X16315301Y-6474008D02*
X16305777Y-6483531D01*
X16305777Y-6483531D02*
X16286729Y-6512103D01*
X16286729Y-6512103D02*
X16277206Y-6550198D01*
X16277206Y-6550198D02*
X16277206Y-6626388D01*
X16277206Y-6626388D02*
X16286729Y-6645436D01*
X16286729Y-6645436D02*
X16296253Y-6654960D01*
X16296253Y-6654960D02*
X16315301Y-6664484D01*
X16315301Y-6664484D02*
X16353396Y-6664484D01*
X16353396Y-6664484D02*
X16372444Y-6654960D01*
X16372444Y-6654960D02*
X16381968Y-6645436D01*
X16381968Y-6645436D02*
X16391491Y-6626388D01*
X16391491Y-6626388D02*
X16391491Y-6578769D01*
X16391491Y-6578769D02*
X16381968Y-6559722D01*
X16381968Y-6559722D02*
X16372444Y-6550198D01*
X16372444Y-6550198D02*
X16353396Y-6540674D01*
X16353396Y-6540674D02*
X16315301Y-6540674D01*
X16315301Y-6540674D02*
X16296253Y-6550198D01*
X16296253Y-6550198D02*
X16286729Y-6559722D01*
X16286729Y-6559722D02*
X16277206Y-6578769D01*
X16629587Y-6664484D02*
X16629587Y-6464484D01*
X16715301Y-6664484D02*
X16715301Y-6559722D01*
X16715301Y-6559722D02*
X16705777Y-6540674D01*
X16705777Y-6540674D02*
X16686730Y-6531150D01*
X16686730Y-6531150D02*
X16658158Y-6531150D01*
X16658158Y-6531150D02*
X16639110Y-6540674D01*
X16639110Y-6540674D02*
X16629587Y-6550198D01*
X16839111Y-6664484D02*
X16820063Y-6654960D01*
X16820063Y-6654960D02*
X16810539Y-6645436D01*
X16810539Y-6645436D02*
X16801015Y-6626388D01*
X16801015Y-6626388D02*
X16801015Y-6569246D01*
X16801015Y-6569246D02*
X16810539Y-6550198D01*
X16810539Y-6550198D02*
X16820063Y-6540674D01*
X16820063Y-6540674D02*
X16839111Y-6531150D01*
X16839111Y-6531150D02*
X16867682Y-6531150D01*
X16867682Y-6531150D02*
X16886730Y-6540674D01*
X16886730Y-6540674D02*
X16896253Y-6550198D01*
X16896253Y-6550198D02*
X16905777Y-6569246D01*
X16905777Y-6569246D02*
X16905777Y-6626388D01*
X16905777Y-6626388D02*
X16896253Y-6645436D01*
X16896253Y-6645436D02*
X16886730Y-6654960D01*
X16886730Y-6654960D02*
X16867682Y-6664484D01*
X16867682Y-6664484D02*
X16839111Y-6664484D01*
X17020063Y-6664484D02*
X17001015Y-6654960D01*
X17001015Y-6654960D02*
X16991492Y-6635912D01*
X16991492Y-6635912D02*
X16991492Y-6464484D01*
X17172444Y-6654960D02*
X17153396Y-6664484D01*
X17153396Y-6664484D02*
X17115301Y-6664484D01*
X17115301Y-6664484D02*
X17096253Y-6654960D01*
X17096253Y-6654960D02*
X17086730Y-6635912D01*
X17086730Y-6635912D02*
X17086730Y-6559722D01*
X17086730Y-6559722D02*
X17096253Y-6540674D01*
X17096253Y-6540674D02*
X17115301Y-6531150D01*
X17115301Y-6531150D02*
X17153396Y-6531150D01*
X17153396Y-6531150D02*
X17172444Y-6540674D01*
X17172444Y-6540674D02*
X17181968Y-6559722D01*
X17181968Y-6559722D02*
X17181968Y-6578769D01*
X17181968Y-6578769D02*
X17086730Y-6597817D01*
X17258158Y-6654960D02*
X17277206Y-6664484D01*
X17277206Y-6664484D02*
X17315301Y-6664484D01*
X17315301Y-6664484D02*
X17334349Y-6654960D01*
X17334349Y-6654960D02*
X17343873Y-6635912D01*
X17343873Y-6635912D02*
X17343873Y-6626388D01*
X17343873Y-6626388D02*
X17334349Y-6607341D01*
X17334349Y-6607341D02*
X17315301Y-6597817D01*
X17315301Y-6597817D02*
X17286730Y-6597817D01*
X17286730Y-6597817D02*
X17267682Y-6588293D01*
X17267682Y-6588293D02*
X17258158Y-6569246D01*
X17258158Y-6569246D02*
X17258158Y-6559722D01*
X17258158Y-6559722D02*
X17267682Y-6540674D01*
X17267682Y-6540674D02*
X17286730Y-6531150D01*
X17286730Y-6531150D02*
X17315301Y-6531150D01*
X17315301Y-6531150D02*
X17334349Y-6540674D01*
X17410539Y-6740674D02*
X17420063Y-6731150D01*
X17420063Y-6731150D02*
X17439111Y-6702579D01*
X17439111Y-6702579D02*
X17448634Y-6683531D01*
X17448634Y-6683531D02*
X17458158Y-6654960D01*
X17458158Y-6654960D02*
X17467682Y-6607341D01*
X17467682Y-6607341D02*
X17467682Y-6569246D01*
X17467682Y-6569246D02*
X17458158Y-6521627D01*
X17458158Y-6521627D02*
X17448634Y-6493055D01*
X17448634Y-6493055D02*
X17439111Y-6474008D01*
X17439111Y-6474008D02*
X17420063Y-6445436D01*
X17420063Y-6445436D02*
X17410539Y-6435912D01*
D10*
X12431820Y-6868820D02*
X12431820Y-6805180D01*
X12368180Y-6805180D01*
X12368180Y-6868820D01*
X12431820Y-6868820D01*
D11*
X12743872Y-6728484D02*
X12762920Y-6728484D01*
X12762920Y-6728484D02*
X12781967Y-6738008D01*
X12781967Y-6738008D02*
X12791491Y-6747531D01*
X12791491Y-6747531D02*
X12801015Y-6766579D01*
X12801015Y-6766579D02*
X12810539Y-6804674D01*
X12810539Y-6804674D02*
X12810539Y-6852293D01*
X12810539Y-6852293D02*
X12801015Y-6890388D01*
X12801015Y-6890388D02*
X12791491Y-6909436D01*
X12791491Y-6909436D02*
X12781967Y-6918960D01*
X12781967Y-6918960D02*
X12762920Y-6928484D01*
X12762920Y-6928484D02*
X12743872Y-6928484D01*
X12743872Y-6928484D02*
X12724824Y-6918960D01*
X12724824Y-6918960D02*
X12715301Y-6909436D01*
X12715301Y-6909436D02*
X12705777Y-6890388D01*
X12705777Y-6890388D02*
X12696253Y-6852293D01*
X12696253Y-6852293D02*
X12696253Y-6804674D01*
X12696253Y-6804674D02*
X12705777Y-6766579D01*
X12705777Y-6766579D02*
X12715301Y-6747531D01*
X12715301Y-6747531D02*
X12724824Y-6738008D01*
X12724824Y-6738008D02*
X12743872Y-6728484D01*
X12896253Y-6909436D02*
X12905777Y-6918960D01*
X12905777Y-6918960D02*
X12896253Y-6928484D01*
X12896253Y-6928484D02*
X12886729Y-6918960D01*
X12886729Y-6918960D02*
X12896253Y-6909436D01*
X12896253Y-6909436D02*
X12896253Y-6928484D01*
X13001015Y-6928484D02*
X13039110Y-6928484D01*
X13039110Y-6928484D02*
X13058158Y-6918960D01*
X13058158Y-6918960D02*
X13067682Y-6909436D01*
X13067682Y-6909436D02*
X13086729Y-6880865D01*
X13086729Y-6880865D02*
X13096253Y-6842769D01*
X13096253Y-6842769D02*
X13096253Y-6766579D01*
X13096253Y-6766579D02*
X13086729Y-6747531D01*
X13086729Y-6747531D02*
X13077205Y-6738008D01*
X13077205Y-6738008D02*
X13058158Y-6728484D01*
X13058158Y-6728484D02*
X13020062Y-6728484D01*
X13020062Y-6728484D02*
X13001015Y-6738008D01*
X13001015Y-6738008D02*
X12991491Y-6747531D01*
X12991491Y-6747531D02*
X12981967Y-6766579D01*
X12981967Y-6766579D02*
X12981967Y-6814198D01*
X12981967Y-6814198D02*
X12991491Y-6833246D01*
X12991491Y-6833246D02*
X13001015Y-6842769D01*
X13001015Y-6842769D02*
X13020062Y-6852293D01*
X13020062Y-6852293D02*
X13058158Y-6852293D01*
X13058158Y-6852293D02*
X13077205Y-6842769D01*
X13077205Y-6842769D02*
X13086729Y-6833246D01*
X13086729Y-6833246D02*
X13096253Y-6814198D01*
X13220062Y-6728484D02*
X13239110Y-6728484D01*
X13239110Y-6728484D02*
X13258158Y-6738008D01*
X13258158Y-6738008D02*
X13267682Y-6747531D01*
X13267682Y-6747531D02*
X13277205Y-6766579D01*
X13277205Y-6766579D02*
X13286729Y-6804674D01*
X13286729Y-6804674D02*
X13286729Y-6852293D01*
X13286729Y-6852293D02*
X13277205Y-6890388D01*
X13277205Y-6890388D02*
X13267682Y-6909436D01*
X13267682Y-6909436D02*
X13258158Y-6918960D01*
X13258158Y-6918960D02*
X13239110Y-6928484D01*
X13239110Y-6928484D02*
X13220062Y-6928484D01*
X13220062Y-6928484D02*
X13201015Y-6918960D01*
X13201015Y-6918960D02*
X13191491Y-6909436D01*
X13191491Y-6909436D02*
X13181967Y-6890388D01*
X13181967Y-6890388D02*
X13172443Y-6852293D01*
X13172443Y-6852293D02*
X13172443Y-6804674D01*
X13172443Y-6804674D02*
X13181967Y-6766579D01*
X13181967Y-6766579D02*
X13191491Y-6747531D01*
X13191491Y-6747531D02*
X13201015Y-6738008D01*
X13201015Y-6738008D02*
X13220062Y-6728484D01*
X13410539Y-6728484D02*
X13429586Y-6728484D01*
X13429586Y-6728484D02*
X13448634Y-6738008D01*
X13448634Y-6738008D02*
X13458158Y-6747531D01*
X13458158Y-6747531D02*
X13467682Y-6766579D01*
X13467682Y-6766579D02*
X13477205Y-6804674D01*
X13477205Y-6804674D02*
X13477205Y-6852293D01*
X13477205Y-6852293D02*
X13467682Y-6890388D01*
X13467682Y-6890388D02*
X13458158Y-6909436D01*
X13458158Y-6909436D02*
X13448634Y-6918960D01*
X13448634Y-6918960D02*
X13429586Y-6928484D01*
X13429586Y-6928484D02*
X13410539Y-6928484D01*
X13410539Y-6928484D02*
X13391491Y-6918960D01*
X13391491Y-6918960D02*
X13381967Y-6909436D01*
X13381967Y-6909436D02*
X13372443Y-6890388D01*
X13372443Y-6890388D02*
X13362920Y-6852293D01*
X13362920Y-6852293D02*
X13362920Y-6804674D01*
X13362920Y-6804674D02*
X13372443Y-6766579D01*
X13372443Y-6766579D02*
X13381967Y-6747531D01*
X13381967Y-6747531D02*
X13391491Y-6738008D01*
X13391491Y-6738008D02*
X13410539Y-6728484D01*
X13562920Y-6928484D02*
X13562920Y-6795150D01*
X13562920Y-6814198D02*
X13572443Y-6804674D01*
X13572443Y-6804674D02*
X13591491Y-6795150D01*
X13591491Y-6795150D02*
X13620063Y-6795150D01*
X13620063Y-6795150D02*
X13639110Y-6804674D01*
X13639110Y-6804674D02*
X13648634Y-6823722D01*
X13648634Y-6823722D02*
X13648634Y-6928484D01*
X13648634Y-6823722D02*
X13658158Y-6804674D01*
X13658158Y-6804674D02*
X13677205Y-6795150D01*
X13677205Y-6795150D02*
X13705777Y-6795150D01*
X13705777Y-6795150D02*
X13724824Y-6804674D01*
X13724824Y-6804674D02*
X13734348Y-6823722D01*
X13734348Y-6823722D02*
X13734348Y-6928484D01*
X13829586Y-6928484D02*
X13829586Y-6795150D01*
X13829586Y-6814198D02*
X13839110Y-6804674D01*
X13839110Y-6804674D02*
X13858158Y-6795150D01*
X13858158Y-6795150D02*
X13886729Y-6795150D01*
X13886729Y-6795150D02*
X13905777Y-6804674D01*
X13905777Y-6804674D02*
X13915301Y-6823722D01*
X13915301Y-6823722D02*
X13915301Y-6928484D01*
X13915301Y-6823722D02*
X13924824Y-6804674D01*
X13924824Y-6804674D02*
X13943872Y-6795150D01*
X13943872Y-6795150D02*
X13972443Y-6795150D01*
X13972443Y-6795150D02*
X13991491Y-6804674D01*
X13991491Y-6804674D02*
X14001015Y-6823722D01*
X14001015Y-6823722D02*
X14001015Y-6928484D01*
X14391491Y-6718960D02*
X14220063Y-6976103D01*
X14648634Y-6728484D02*
X14667682Y-6728484D01*
X14667682Y-6728484D02*
X14686729Y-6738008D01*
X14686729Y-6738008D02*
X14696253Y-6747531D01*
X14696253Y-6747531D02*
X14705777Y-6766579D01*
X14705777Y-6766579D02*
X14715301Y-6804674D01*
X14715301Y-6804674D02*
X14715301Y-6852293D01*
X14715301Y-6852293D02*
X14705777Y-6890388D01*
X14705777Y-6890388D02*
X14696253Y-6909436D01*
X14696253Y-6909436D02*
X14686729Y-6918960D01*
X14686729Y-6918960D02*
X14667682Y-6928484D01*
X14667682Y-6928484D02*
X14648634Y-6928484D01*
X14648634Y-6928484D02*
X14629586Y-6918960D01*
X14629586Y-6918960D02*
X14620063Y-6909436D01*
X14620063Y-6909436D02*
X14610539Y-6890388D01*
X14610539Y-6890388D02*
X14601015Y-6852293D01*
X14601015Y-6852293D02*
X14601015Y-6804674D01*
X14601015Y-6804674D02*
X14610539Y-6766579D01*
X14610539Y-6766579D02*
X14620063Y-6747531D01*
X14620063Y-6747531D02*
X14629586Y-6738008D01*
X14629586Y-6738008D02*
X14648634Y-6728484D01*
X14801015Y-6909436D02*
X14810539Y-6918960D01*
X14810539Y-6918960D02*
X14801015Y-6928484D01*
X14801015Y-6928484D02*
X14791491Y-6918960D01*
X14791491Y-6918960D02*
X14801015Y-6909436D01*
X14801015Y-6909436D02*
X14801015Y-6928484D01*
X14934348Y-6728484D02*
X14953396Y-6728484D01*
X14953396Y-6728484D02*
X14972444Y-6738008D01*
X14972444Y-6738008D02*
X14981967Y-6747531D01*
X14981967Y-6747531D02*
X14991491Y-6766579D01*
X14991491Y-6766579D02*
X15001015Y-6804674D01*
X15001015Y-6804674D02*
X15001015Y-6852293D01*
X15001015Y-6852293D02*
X14991491Y-6890388D01*
X14991491Y-6890388D02*
X14981967Y-6909436D01*
X14981967Y-6909436D02*
X14972444Y-6918960D01*
X14972444Y-6918960D02*
X14953396Y-6928484D01*
X14953396Y-6928484D02*
X14934348Y-6928484D01*
X14934348Y-6928484D02*
X14915301Y-6918960D01*
X14915301Y-6918960D02*
X14905777Y-6909436D01*
X14905777Y-6909436D02*
X14896253Y-6890388D01*
X14896253Y-6890388D02*
X14886729Y-6852293D01*
X14886729Y-6852293D02*
X14886729Y-6804674D01*
X14886729Y-6804674D02*
X14896253Y-6766579D01*
X14896253Y-6766579D02*
X14905777Y-6747531D01*
X14905777Y-6747531D02*
X14915301Y-6738008D01*
X14915301Y-6738008D02*
X14934348Y-6728484D01*
X15067682Y-6728484D02*
X15191491Y-6728484D01*
X15191491Y-6728484D02*
X15124825Y-6804674D01*
X15124825Y-6804674D02*
X15153396Y-6804674D01*
X15153396Y-6804674D02*
X15172444Y-6814198D01*
X15172444Y-6814198D02*
X15181967Y-6823722D01*
X15181967Y-6823722D02*
X15191491Y-6842769D01*
X15191491Y-6842769D02*
X15191491Y-6890388D01*
X15191491Y-6890388D02*
X15181967Y-6909436D01*
X15181967Y-6909436D02*
X15172444Y-6918960D01*
X15172444Y-6918960D02*
X15153396Y-6928484D01*
X15153396Y-6928484D02*
X15096253Y-6928484D01*
X15096253Y-6928484D02*
X15077206Y-6918960D01*
X15077206Y-6918960D02*
X15067682Y-6909436D01*
X15372444Y-6728484D02*
X15277206Y-6728484D01*
X15277206Y-6728484D02*
X15267682Y-6823722D01*
X15267682Y-6823722D02*
X15277206Y-6814198D01*
X15277206Y-6814198D02*
X15296253Y-6804674D01*
X15296253Y-6804674D02*
X15343872Y-6804674D01*
X15343872Y-6804674D02*
X15362920Y-6814198D01*
X15362920Y-6814198D02*
X15372444Y-6823722D01*
X15372444Y-6823722D02*
X15381967Y-6842769D01*
X15381967Y-6842769D02*
X15381967Y-6890388D01*
X15381967Y-6890388D02*
X15372444Y-6909436D01*
X15372444Y-6909436D02*
X15362920Y-6918960D01*
X15362920Y-6918960D02*
X15343872Y-6928484D01*
X15343872Y-6928484D02*
X15296253Y-6928484D01*
X15296253Y-6928484D02*
X15277206Y-6918960D01*
X15277206Y-6918960D02*
X15267682Y-6909436D01*
X15553396Y-6795150D02*
X15553396Y-6928484D01*
X15505777Y-6718960D02*
X15458158Y-6861817D01*
X15458158Y-6861817D02*
X15581967Y-6861817D01*
X15648634Y-6728484D02*
X15648634Y-6766579D01*
X15724825Y-6728484D02*
X15724825Y-6766579D01*
X16020063Y-7004674D02*
X16010539Y-6995150D01*
X16010539Y-6995150D02*
X15991491Y-6966579D01*
X15991491Y-6966579D02*
X15981968Y-6947531D01*
X15981968Y-6947531D02*
X15972444Y-6918960D01*
X15972444Y-6918960D02*
X15962920Y-6871341D01*
X15962920Y-6871341D02*
X15962920Y-6833246D01*
X15962920Y-6833246D02*
X15972444Y-6785627D01*
X15972444Y-6785627D02*
X15981968Y-6757055D01*
X15981968Y-6757055D02*
X15991491Y-6738008D01*
X15991491Y-6738008D02*
X16010539Y-6709436D01*
X16010539Y-6709436D02*
X16020063Y-6699912D01*
X16201015Y-6928484D02*
X16086729Y-6928484D01*
X16143872Y-6928484D02*
X16143872Y-6728484D01*
X16143872Y-6728484D02*
X16124825Y-6757055D01*
X16124825Y-6757055D02*
X16105777Y-6776103D01*
X16105777Y-6776103D02*
X16086729Y-6785627D01*
X16372444Y-6728484D02*
X16334348Y-6728484D01*
X16334348Y-6728484D02*
X16315301Y-6738008D01*
X16315301Y-6738008D02*
X16305777Y-6747531D01*
X16305777Y-6747531D02*
X16286729Y-6776103D01*
X16286729Y-6776103D02*
X16277206Y-6814198D01*
X16277206Y-6814198D02*
X16277206Y-6890388D01*
X16277206Y-6890388D02*
X16286729Y-6909436D01*
X16286729Y-6909436D02*
X16296253Y-6918960D01*
X16296253Y-6918960D02*
X16315301Y-6928484D01*
X16315301Y-6928484D02*
X16353396Y-6928484D01*
X16353396Y-6928484D02*
X16372444Y-6918960D01*
X16372444Y-6918960D02*
X16381968Y-6909436D01*
X16381968Y-6909436D02*
X16391491Y-6890388D01*
X16391491Y-6890388D02*
X16391491Y-6842769D01*
X16391491Y-6842769D02*
X16381968Y-6823722D01*
X16381968Y-6823722D02*
X16372444Y-6814198D01*
X16372444Y-6814198D02*
X16353396Y-6804674D01*
X16353396Y-6804674D02*
X16315301Y-6804674D01*
X16315301Y-6804674D02*
X16296253Y-6814198D01*
X16296253Y-6814198D02*
X16286729Y-6823722D01*
X16286729Y-6823722D02*
X16277206Y-6842769D01*
X16629587Y-6928484D02*
X16629587Y-6728484D01*
X16715301Y-6928484D02*
X16715301Y-6823722D01*
X16715301Y-6823722D02*
X16705777Y-6804674D01*
X16705777Y-6804674D02*
X16686730Y-6795150D01*
X16686730Y-6795150D02*
X16658158Y-6795150D01*
X16658158Y-6795150D02*
X16639110Y-6804674D01*
X16639110Y-6804674D02*
X16629587Y-6814198D01*
X16839111Y-6928484D02*
X16820063Y-6918960D01*
X16820063Y-6918960D02*
X16810539Y-6909436D01*
X16810539Y-6909436D02*
X16801015Y-6890388D01*
X16801015Y-6890388D02*
X16801015Y-6833246D01*
X16801015Y-6833246D02*
X16810539Y-6814198D01*
X16810539Y-6814198D02*
X16820063Y-6804674D01*
X16820063Y-6804674D02*
X16839111Y-6795150D01*
X16839111Y-6795150D02*
X16867682Y-6795150D01*
X16867682Y-6795150D02*
X16886730Y-6804674D01*
X16886730Y-6804674D02*
X16896253Y-6814198D01*
X16896253Y-6814198D02*
X16905777Y-6833246D01*
X16905777Y-6833246D02*
X16905777Y-6890388D01*
X16905777Y-6890388D02*
X16896253Y-6909436D01*
X16896253Y-6909436D02*
X16886730Y-6918960D01*
X16886730Y-6918960D02*
X16867682Y-6928484D01*
X16867682Y-6928484D02*
X16839111Y-6928484D01*
X17020063Y-6928484D02*
X17001015Y-6918960D01*
X17001015Y-6918960D02*
X16991492Y-6899912D01*
X16991492Y-6899912D02*
X16991492Y-6728484D01*
X17172444Y-6918960D02*
X17153396Y-6928484D01*
X17153396Y-6928484D02*
X17115301Y-6928484D01*
X17115301Y-6928484D02*
X17096253Y-6918960D01*
X17096253Y-6918960D02*
X17086730Y-6899912D01*
X17086730Y-6899912D02*
X17086730Y-6823722D01*
X17086730Y-6823722D02*
X17096253Y-6804674D01*
X17096253Y-6804674D02*
X17115301Y-6795150D01*
X17115301Y-6795150D02*
X17153396Y-6795150D01*
X17153396Y-6795150D02*
X17172444Y-6804674D01*
X17172444Y-6804674D02*
X17181968Y-6823722D01*
X17181968Y-6823722D02*
X17181968Y-6842769D01*
X17181968Y-6842769D02*
X17086730Y-6861817D01*
X17258158Y-6918960D02*
X17277206Y-6928484D01*
X17277206Y-6928484D02*
X17315301Y-6928484D01*
X17315301Y-6928484D02*
X17334349Y-6918960D01*
X17334349Y-6918960D02*
X17343873Y-6899912D01*
X17343873Y-6899912D02*
X17343873Y-6890388D01*
X17343873Y-6890388D02*
X17334349Y-6871341D01*
X17334349Y-6871341D02*
X17315301Y-6861817D01*
X17315301Y-6861817D02*
X17286730Y-6861817D01*
X17286730Y-6861817D02*
X17267682Y-6852293D01*
X17267682Y-6852293D02*
X17258158Y-6833246D01*
X17258158Y-6833246D02*
X17258158Y-6823722D01*
X17258158Y-6823722D02*
X17267682Y-6804674D01*
X17267682Y-6804674D02*
X17286730Y-6795150D01*
X17286730Y-6795150D02*
X17315301Y-6795150D01*
X17315301Y-6795150D02*
X17334349Y-6804674D01*
X17410539Y-7004674D02*
X17420063Y-6995150D01*
X17420063Y-6995150D02*
X17439111Y-6966579D01*
X17439111Y-6966579D02*
X17448634Y-6947531D01*
X17448634Y-6947531D02*
X17458158Y-6918960D01*
X17458158Y-6918960D02*
X17467682Y-6871341D01*
X17467682Y-6871341D02*
X17467682Y-6833246D01*
X17467682Y-6833246D02*
X17458158Y-6785627D01*
X17458158Y-6785627D02*
X17448634Y-6757055D01*
X17448634Y-6757055D02*
X17439111Y-6738008D01*
X17439111Y-6738008D02*
X17420063Y-6709436D01*
X17420063Y-6709436D02*
X17410539Y-6699912D01*
D10*
X12395000Y-7151000D02*
X12445000Y-7101000D01*
X12395000Y-7051000D01*
X12345000Y-7101000D01*
X12395000Y-7151000D01*
D11*
X12810539Y-7192484D02*
X12696253Y-7192484D01*
X12753396Y-7192484D02*
X12753396Y-6992484D01*
X12753396Y-6992484D02*
X12734348Y-7021055D01*
X12734348Y-7021055D02*
X12715301Y-7040103D01*
X12715301Y-7040103D02*
X12696253Y-7049627D01*
X12896253Y-7173436D02*
X12905777Y-7182960D01*
X12905777Y-7182960D02*
X12896253Y-7192484D01*
X12896253Y-7192484D02*
X12886729Y-7182960D01*
X12886729Y-7182960D02*
X12896253Y-7173436D01*
X12896253Y-7173436D02*
X12896253Y-7192484D01*
X13029586Y-6992484D02*
X13048634Y-6992484D01*
X13048634Y-6992484D02*
X13067682Y-7002008D01*
X13067682Y-7002008D02*
X13077205Y-7011531D01*
X13077205Y-7011531D02*
X13086729Y-7030579D01*
X13086729Y-7030579D02*
X13096253Y-7068674D01*
X13096253Y-7068674D02*
X13096253Y-7116293D01*
X13096253Y-7116293D02*
X13086729Y-7154388D01*
X13086729Y-7154388D02*
X13077205Y-7173436D01*
X13077205Y-7173436D02*
X13067682Y-7182960D01*
X13067682Y-7182960D02*
X13048634Y-7192484D01*
X13048634Y-7192484D02*
X13029586Y-7192484D01*
X13029586Y-7192484D02*
X13010539Y-7182960D01*
X13010539Y-7182960D02*
X13001015Y-7173436D01*
X13001015Y-7173436D02*
X12991491Y-7154388D01*
X12991491Y-7154388D02*
X12981967Y-7116293D01*
X12981967Y-7116293D02*
X12981967Y-7068674D01*
X12981967Y-7068674D02*
X12991491Y-7030579D01*
X12991491Y-7030579D02*
X13001015Y-7011531D01*
X13001015Y-7011531D02*
X13010539Y-7002008D01*
X13010539Y-7002008D02*
X13029586Y-6992484D01*
X13220062Y-6992484D02*
X13239110Y-6992484D01*
X13239110Y-6992484D02*
X13258158Y-7002008D01*
X13258158Y-7002008D02*
X13267682Y-7011531D01*
X13267682Y-7011531D02*
X13277205Y-7030579D01*
X13277205Y-7030579D02*
X13286729Y-7068674D01*
X13286729Y-7068674D02*
X13286729Y-7116293D01*
X13286729Y-7116293D02*
X13277205Y-7154388D01*
X13277205Y-7154388D02*
X13267682Y-7173436D01*
X13267682Y-7173436D02*
X13258158Y-7182960D01*
X13258158Y-7182960D02*
X13239110Y-7192484D01*
X13239110Y-7192484D02*
X13220062Y-7192484D01*
X13220062Y-7192484D02*
X13201015Y-7182960D01*
X13201015Y-7182960D02*
X13191491Y-7173436D01*
X13191491Y-7173436D02*
X13181967Y-7154388D01*
X13181967Y-7154388D02*
X13172443Y-7116293D01*
X13172443Y-7116293D02*
X13172443Y-7068674D01*
X13172443Y-7068674D02*
X13181967Y-7030579D01*
X13181967Y-7030579D02*
X13191491Y-7011531D01*
X13191491Y-7011531D02*
X13201015Y-7002008D01*
X13201015Y-7002008D02*
X13220062Y-6992484D01*
X13410539Y-6992484D02*
X13429586Y-6992484D01*
X13429586Y-6992484D02*
X13448634Y-7002008D01*
X13448634Y-7002008D02*
X13458158Y-7011531D01*
X13458158Y-7011531D02*
X13467682Y-7030579D01*
X13467682Y-7030579D02*
X13477205Y-7068674D01*
X13477205Y-7068674D02*
X13477205Y-7116293D01*
X13477205Y-7116293D02*
X13467682Y-7154388D01*
X13467682Y-7154388D02*
X13458158Y-7173436D01*
X13458158Y-7173436D02*
X13448634Y-7182960D01*
X13448634Y-7182960D02*
X13429586Y-7192484D01*
X13429586Y-7192484D02*
X13410539Y-7192484D01*
X13410539Y-7192484D02*
X13391491Y-7182960D01*
X13391491Y-7182960D02*
X13381967Y-7173436D01*
X13381967Y-7173436D02*
X13372443Y-7154388D01*
X13372443Y-7154388D02*
X13362920Y-7116293D01*
X13362920Y-7116293D02*
X13362920Y-7068674D01*
X13362920Y-7068674D02*
X13372443Y-7030579D01*
X13372443Y-7030579D02*
X13381967Y-7011531D01*
X13381967Y-7011531D02*
X13391491Y-7002008D01*
X13391491Y-7002008D02*
X13410539Y-6992484D01*
X13562920Y-7192484D02*
X13562920Y-7059150D01*
X13562920Y-7078198D02*
X13572443Y-7068674D01*
X13572443Y-7068674D02*
X13591491Y-7059150D01*
X13591491Y-7059150D02*
X13620063Y-7059150D01*
X13620063Y-7059150D02*
X13639110Y-7068674D01*
X13639110Y-7068674D02*
X13648634Y-7087722D01*
X13648634Y-7087722D02*
X13648634Y-7192484D01*
X13648634Y-7087722D02*
X13658158Y-7068674D01*
X13658158Y-7068674D02*
X13677205Y-7059150D01*
X13677205Y-7059150D02*
X13705777Y-7059150D01*
X13705777Y-7059150D02*
X13724824Y-7068674D01*
X13724824Y-7068674D02*
X13734348Y-7087722D01*
X13734348Y-7087722D02*
X13734348Y-7192484D01*
X13829586Y-7192484D02*
X13829586Y-7059150D01*
X13829586Y-7078198D02*
X13839110Y-7068674D01*
X13839110Y-7068674D02*
X13858158Y-7059150D01*
X13858158Y-7059150D02*
X13886729Y-7059150D01*
X13886729Y-7059150D02*
X13905777Y-7068674D01*
X13905777Y-7068674D02*
X13915301Y-7087722D01*
X13915301Y-7087722D02*
X13915301Y-7192484D01*
X13915301Y-7087722D02*
X13924824Y-7068674D01*
X13924824Y-7068674D02*
X13943872Y-7059150D01*
X13943872Y-7059150D02*
X13972443Y-7059150D01*
X13972443Y-7059150D02*
X13991491Y-7068674D01*
X13991491Y-7068674D02*
X14001015Y-7087722D01*
X14001015Y-7087722D02*
X14001015Y-7192484D01*
X14391491Y-6982960D02*
X14220063Y-7240103D01*
X14648634Y-6992484D02*
X14667682Y-6992484D01*
X14667682Y-6992484D02*
X14686729Y-7002008D01*
X14686729Y-7002008D02*
X14696253Y-7011531D01*
X14696253Y-7011531D02*
X14705777Y-7030579D01*
X14705777Y-7030579D02*
X14715301Y-7068674D01*
X14715301Y-7068674D02*
X14715301Y-7116293D01*
X14715301Y-7116293D02*
X14705777Y-7154388D01*
X14705777Y-7154388D02*
X14696253Y-7173436D01*
X14696253Y-7173436D02*
X14686729Y-7182960D01*
X14686729Y-7182960D02*
X14667682Y-7192484D01*
X14667682Y-7192484D02*
X14648634Y-7192484D01*
X14648634Y-7192484D02*
X14629586Y-7182960D01*
X14629586Y-7182960D02*
X14620063Y-7173436D01*
X14620063Y-7173436D02*
X14610539Y-7154388D01*
X14610539Y-7154388D02*
X14601015Y-7116293D01*
X14601015Y-7116293D02*
X14601015Y-7068674D01*
X14601015Y-7068674D02*
X14610539Y-7030579D01*
X14610539Y-7030579D02*
X14620063Y-7011531D01*
X14620063Y-7011531D02*
X14629586Y-7002008D01*
X14629586Y-7002008D02*
X14648634Y-6992484D01*
X14801015Y-7173436D02*
X14810539Y-7182960D01*
X14810539Y-7182960D02*
X14801015Y-7192484D01*
X14801015Y-7192484D02*
X14791491Y-7182960D01*
X14791491Y-7182960D02*
X14801015Y-7173436D01*
X14801015Y-7173436D02*
X14801015Y-7192484D01*
X14934348Y-6992484D02*
X14953396Y-6992484D01*
X14953396Y-6992484D02*
X14972444Y-7002008D01*
X14972444Y-7002008D02*
X14981967Y-7011531D01*
X14981967Y-7011531D02*
X14991491Y-7030579D01*
X14991491Y-7030579D02*
X15001015Y-7068674D01*
X15001015Y-7068674D02*
X15001015Y-7116293D01*
X15001015Y-7116293D02*
X14991491Y-7154388D01*
X14991491Y-7154388D02*
X14981967Y-7173436D01*
X14981967Y-7173436D02*
X14972444Y-7182960D01*
X14972444Y-7182960D02*
X14953396Y-7192484D01*
X14953396Y-7192484D02*
X14934348Y-7192484D01*
X14934348Y-7192484D02*
X14915301Y-7182960D01*
X14915301Y-7182960D02*
X14905777Y-7173436D01*
X14905777Y-7173436D02*
X14896253Y-7154388D01*
X14896253Y-7154388D02*
X14886729Y-7116293D01*
X14886729Y-7116293D02*
X14886729Y-7068674D01*
X14886729Y-7068674D02*
X14896253Y-7030579D01*
X14896253Y-7030579D02*
X14905777Y-7011531D01*
X14905777Y-7011531D02*
X14915301Y-7002008D01*
X14915301Y-7002008D02*
X14934348Y-6992484D01*
X15067682Y-6992484D02*
X15191491Y-6992484D01*
X15191491Y-6992484D02*
X15124825Y-7068674D01*
X15124825Y-7068674D02*
X15153396Y-7068674D01*
X15153396Y-7068674D02*
X15172444Y-7078198D01*
X15172444Y-7078198D02*
X15181967Y-7087722D01*
X15181967Y-7087722D02*
X15191491Y-7106769D01*
X15191491Y-7106769D02*
X15191491Y-7154388D01*
X15191491Y-7154388D02*
X15181967Y-7173436D01*
X15181967Y-7173436D02*
X15172444Y-7182960D01*
X15172444Y-7182960D02*
X15153396Y-7192484D01*
X15153396Y-7192484D02*
X15096253Y-7192484D01*
X15096253Y-7192484D02*
X15077206Y-7182960D01*
X15077206Y-7182960D02*
X15067682Y-7173436D01*
X15286729Y-7192484D02*
X15324825Y-7192484D01*
X15324825Y-7192484D02*
X15343872Y-7182960D01*
X15343872Y-7182960D02*
X15353396Y-7173436D01*
X15353396Y-7173436D02*
X15372444Y-7144865D01*
X15372444Y-7144865D02*
X15381967Y-7106769D01*
X15381967Y-7106769D02*
X15381967Y-7030579D01*
X15381967Y-7030579D02*
X15372444Y-7011531D01*
X15372444Y-7011531D02*
X15362920Y-7002008D01*
X15362920Y-7002008D02*
X15343872Y-6992484D01*
X15343872Y-6992484D02*
X15305777Y-6992484D01*
X15305777Y-6992484D02*
X15286729Y-7002008D01*
X15286729Y-7002008D02*
X15277206Y-7011531D01*
X15277206Y-7011531D02*
X15267682Y-7030579D01*
X15267682Y-7030579D02*
X15267682Y-7078198D01*
X15267682Y-7078198D02*
X15277206Y-7097246D01*
X15277206Y-7097246D02*
X15286729Y-7106769D01*
X15286729Y-7106769D02*
X15305777Y-7116293D01*
X15305777Y-7116293D02*
X15343872Y-7116293D01*
X15343872Y-7116293D02*
X15362920Y-7106769D01*
X15362920Y-7106769D02*
X15372444Y-7097246D01*
X15372444Y-7097246D02*
X15381967Y-7078198D01*
X15553396Y-7059150D02*
X15553396Y-7192484D01*
X15505777Y-6982960D02*
X15458158Y-7125817D01*
X15458158Y-7125817D02*
X15581967Y-7125817D01*
X15648634Y-6992484D02*
X15648634Y-7030579D01*
X15724825Y-6992484D02*
X15724825Y-7030579D01*
X16020063Y-7268674D02*
X16010539Y-7259150D01*
X16010539Y-7259150D02*
X15991491Y-7230579D01*
X15991491Y-7230579D02*
X15981968Y-7211531D01*
X15981968Y-7211531D02*
X15972444Y-7182960D01*
X15972444Y-7182960D02*
X15962920Y-7135341D01*
X15962920Y-7135341D02*
X15962920Y-7097246D01*
X15962920Y-7097246D02*
X15972444Y-7049627D01*
X15972444Y-7049627D02*
X15981968Y-7021055D01*
X15981968Y-7021055D02*
X15991491Y-7002008D01*
X15991491Y-7002008D02*
X16010539Y-6973436D01*
X16010539Y-6973436D02*
X16020063Y-6963912D01*
X16124825Y-7078198D02*
X16105777Y-7068674D01*
X16105777Y-7068674D02*
X16096253Y-7059150D01*
X16096253Y-7059150D02*
X16086729Y-7040103D01*
X16086729Y-7040103D02*
X16086729Y-7030579D01*
X16086729Y-7030579D02*
X16096253Y-7011531D01*
X16096253Y-7011531D02*
X16105777Y-7002008D01*
X16105777Y-7002008D02*
X16124825Y-6992484D01*
X16124825Y-6992484D02*
X16162920Y-6992484D01*
X16162920Y-6992484D02*
X16181968Y-7002008D01*
X16181968Y-7002008D02*
X16191491Y-7011531D01*
X16191491Y-7011531D02*
X16201015Y-7030579D01*
X16201015Y-7030579D02*
X16201015Y-7040103D01*
X16201015Y-7040103D02*
X16191491Y-7059150D01*
X16191491Y-7059150D02*
X16181968Y-7068674D01*
X16181968Y-7068674D02*
X16162920Y-7078198D01*
X16162920Y-7078198D02*
X16124825Y-7078198D01*
X16124825Y-7078198D02*
X16105777Y-7087722D01*
X16105777Y-7087722D02*
X16096253Y-7097246D01*
X16096253Y-7097246D02*
X16086729Y-7116293D01*
X16086729Y-7116293D02*
X16086729Y-7154388D01*
X16086729Y-7154388D02*
X16096253Y-7173436D01*
X16096253Y-7173436D02*
X16105777Y-7182960D01*
X16105777Y-7182960D02*
X16124825Y-7192484D01*
X16124825Y-7192484D02*
X16162920Y-7192484D01*
X16162920Y-7192484D02*
X16181968Y-7182960D01*
X16181968Y-7182960D02*
X16191491Y-7173436D01*
X16191491Y-7173436D02*
X16201015Y-7154388D01*
X16201015Y-7154388D02*
X16201015Y-7116293D01*
X16201015Y-7116293D02*
X16191491Y-7097246D01*
X16191491Y-7097246D02*
X16181968Y-7087722D01*
X16181968Y-7087722D02*
X16162920Y-7078198D01*
X16439110Y-7192484D02*
X16439110Y-6992484D01*
X16524825Y-7192484D02*
X16524825Y-7087722D01*
X16524825Y-7087722D02*
X16515301Y-7068674D01*
X16515301Y-7068674D02*
X16496253Y-7059150D01*
X16496253Y-7059150D02*
X16467682Y-7059150D01*
X16467682Y-7059150D02*
X16448634Y-7068674D01*
X16448634Y-7068674D02*
X16439110Y-7078198D01*
X16648634Y-7192484D02*
X16629587Y-7182960D01*
X16629587Y-7182960D02*
X16620063Y-7173436D01*
X16620063Y-7173436D02*
X16610539Y-7154388D01*
X16610539Y-7154388D02*
X16610539Y-7097246D01*
X16610539Y-7097246D02*
X16620063Y-7078198D01*
X16620063Y-7078198D02*
X16629587Y-7068674D01*
X16629587Y-7068674D02*
X16648634Y-7059150D01*
X16648634Y-7059150D02*
X16677206Y-7059150D01*
X16677206Y-7059150D02*
X16696253Y-7068674D01*
X16696253Y-7068674D02*
X16705777Y-7078198D01*
X16705777Y-7078198D02*
X16715301Y-7097246D01*
X16715301Y-7097246D02*
X16715301Y-7154388D01*
X16715301Y-7154388D02*
X16705777Y-7173436D01*
X16705777Y-7173436D02*
X16696253Y-7182960D01*
X16696253Y-7182960D02*
X16677206Y-7192484D01*
X16677206Y-7192484D02*
X16648634Y-7192484D01*
X16829587Y-7192484D02*
X16810539Y-7182960D01*
X16810539Y-7182960D02*
X16801015Y-7163912D01*
X16801015Y-7163912D02*
X16801015Y-6992484D01*
X16981968Y-7182960D02*
X16962920Y-7192484D01*
X16962920Y-7192484D02*
X16924825Y-7192484D01*
X16924825Y-7192484D02*
X16905777Y-7182960D01*
X16905777Y-7182960D02*
X16896253Y-7163912D01*
X16896253Y-7163912D02*
X16896253Y-7087722D01*
X16896253Y-7087722D02*
X16905777Y-7068674D01*
X16905777Y-7068674D02*
X16924825Y-7059150D01*
X16924825Y-7059150D02*
X16962920Y-7059150D01*
X16962920Y-7059150D02*
X16981968Y-7068674D01*
X16981968Y-7068674D02*
X16991492Y-7087722D01*
X16991492Y-7087722D02*
X16991492Y-7106769D01*
X16991492Y-7106769D02*
X16896253Y-7125817D01*
X17067682Y-7182960D02*
X17086730Y-7192484D01*
X17086730Y-7192484D02*
X17124825Y-7192484D01*
X17124825Y-7192484D02*
X17143873Y-7182960D01*
X17143873Y-7182960D02*
X17153396Y-7163912D01*
X17153396Y-7163912D02*
X17153396Y-7154388D01*
X17153396Y-7154388D02*
X17143873Y-7135341D01*
X17143873Y-7135341D02*
X17124825Y-7125817D01*
X17124825Y-7125817D02*
X17096253Y-7125817D01*
X17096253Y-7125817D02*
X17077206Y-7116293D01*
X17077206Y-7116293D02*
X17067682Y-7097246D01*
X17067682Y-7097246D02*
X17067682Y-7087722D01*
X17067682Y-7087722D02*
X17077206Y-7068674D01*
X17077206Y-7068674D02*
X17096253Y-7059150D01*
X17096253Y-7059150D02*
X17124825Y-7059150D01*
X17124825Y-7059150D02*
X17143873Y-7068674D01*
X17220063Y-7268674D02*
X17229587Y-7259150D01*
X17229587Y-7259150D02*
X17248634Y-7230579D01*
X17248634Y-7230579D02*
X17258158Y-7211531D01*
X17258158Y-7211531D02*
X17267682Y-7182960D01*
X17267682Y-7182960D02*
X17277206Y-7135341D01*
X17277206Y-7135341D02*
X17277206Y-7097246D01*
X17277206Y-7097246D02*
X17267682Y-7049627D01*
X17267682Y-7049627D02*
X17258158Y-7021055D01*
X17258158Y-7021055D02*
X17248634Y-7002008D01*
X17248634Y-7002008D02*
X17229587Y-6973436D01*
X17229587Y-6973436D02*
X17220063Y-6963912D01*
D12*
X12260000Y-7272500D02*
X12445000Y-7457500D01*
X12445000Y-7272500D02*
X12260000Y-7457500D01*
X12445000Y-7365000D02*
G75*
G03*
X12260000Y-7365000I-92500J0D01*
G01*
X12260000Y-7365000D02*
G75*
G03*
X12445000Y-7365000I92500J0D01*
G01*
D11*
X12810539Y-7456484D02*
X12696253Y-7456484D01*
X12753396Y-7456484D02*
X12753396Y-7256484D01*
X12753396Y-7256484D02*
X12734348Y-7285055D01*
X12734348Y-7285055D02*
X12715301Y-7304103D01*
X12715301Y-7304103D02*
X12696253Y-7313627D01*
X12896253Y-7437436D02*
X12905777Y-7446960D01*
X12905777Y-7446960D02*
X12896253Y-7456484D01*
X12896253Y-7456484D02*
X12886729Y-7446960D01*
X12886729Y-7446960D02*
X12896253Y-7437436D01*
X12896253Y-7437436D02*
X12896253Y-7456484D01*
X13020062Y-7342198D02*
X13001015Y-7332674D01*
X13001015Y-7332674D02*
X12991491Y-7323150D01*
X12991491Y-7323150D02*
X12981967Y-7304103D01*
X12981967Y-7304103D02*
X12981967Y-7294579D01*
X12981967Y-7294579D02*
X12991491Y-7275531D01*
X12991491Y-7275531D02*
X13001015Y-7266008D01*
X13001015Y-7266008D02*
X13020062Y-7256484D01*
X13020062Y-7256484D02*
X13058158Y-7256484D01*
X13058158Y-7256484D02*
X13077205Y-7266008D01*
X13077205Y-7266008D02*
X13086729Y-7275531D01*
X13086729Y-7275531D02*
X13096253Y-7294579D01*
X13096253Y-7294579D02*
X13096253Y-7304103D01*
X13096253Y-7304103D02*
X13086729Y-7323150D01*
X13086729Y-7323150D02*
X13077205Y-7332674D01*
X13077205Y-7332674D02*
X13058158Y-7342198D01*
X13058158Y-7342198D02*
X13020062Y-7342198D01*
X13020062Y-7342198D02*
X13001015Y-7351722D01*
X13001015Y-7351722D02*
X12991491Y-7361246D01*
X12991491Y-7361246D02*
X12981967Y-7380293D01*
X12981967Y-7380293D02*
X12981967Y-7418388D01*
X12981967Y-7418388D02*
X12991491Y-7437436D01*
X12991491Y-7437436D02*
X13001015Y-7446960D01*
X13001015Y-7446960D02*
X13020062Y-7456484D01*
X13020062Y-7456484D02*
X13058158Y-7456484D01*
X13058158Y-7456484D02*
X13077205Y-7446960D01*
X13077205Y-7446960D02*
X13086729Y-7437436D01*
X13086729Y-7437436D02*
X13096253Y-7418388D01*
X13096253Y-7418388D02*
X13096253Y-7380293D01*
X13096253Y-7380293D02*
X13086729Y-7361246D01*
X13086729Y-7361246D02*
X13077205Y-7351722D01*
X13077205Y-7351722D02*
X13058158Y-7342198D01*
X13277205Y-7256484D02*
X13181967Y-7256484D01*
X13181967Y-7256484D02*
X13172443Y-7351722D01*
X13172443Y-7351722D02*
X13181967Y-7342198D01*
X13181967Y-7342198D02*
X13201015Y-7332674D01*
X13201015Y-7332674D02*
X13248634Y-7332674D01*
X13248634Y-7332674D02*
X13267682Y-7342198D01*
X13267682Y-7342198D02*
X13277205Y-7351722D01*
X13277205Y-7351722D02*
X13286729Y-7370769D01*
X13286729Y-7370769D02*
X13286729Y-7418388D01*
X13286729Y-7418388D02*
X13277205Y-7437436D01*
X13277205Y-7437436D02*
X13267682Y-7446960D01*
X13267682Y-7446960D02*
X13248634Y-7456484D01*
X13248634Y-7456484D02*
X13201015Y-7456484D01*
X13201015Y-7456484D02*
X13181967Y-7446960D01*
X13181967Y-7446960D02*
X13172443Y-7437436D01*
X13410539Y-7256484D02*
X13429586Y-7256484D01*
X13429586Y-7256484D02*
X13448634Y-7266008D01*
X13448634Y-7266008D02*
X13458158Y-7275531D01*
X13458158Y-7275531D02*
X13467682Y-7294579D01*
X13467682Y-7294579D02*
X13477205Y-7332674D01*
X13477205Y-7332674D02*
X13477205Y-7380293D01*
X13477205Y-7380293D02*
X13467682Y-7418388D01*
X13467682Y-7418388D02*
X13458158Y-7437436D01*
X13458158Y-7437436D02*
X13448634Y-7446960D01*
X13448634Y-7446960D02*
X13429586Y-7456484D01*
X13429586Y-7456484D02*
X13410539Y-7456484D01*
X13410539Y-7456484D02*
X13391491Y-7446960D01*
X13391491Y-7446960D02*
X13381967Y-7437436D01*
X13381967Y-7437436D02*
X13372443Y-7418388D01*
X13372443Y-7418388D02*
X13362920Y-7380293D01*
X13362920Y-7380293D02*
X13362920Y-7332674D01*
X13362920Y-7332674D02*
X13372443Y-7294579D01*
X13372443Y-7294579D02*
X13381967Y-7275531D01*
X13381967Y-7275531D02*
X13391491Y-7266008D01*
X13391491Y-7266008D02*
X13410539Y-7256484D01*
X13562920Y-7456484D02*
X13562920Y-7323150D01*
X13562920Y-7342198D02*
X13572443Y-7332674D01*
X13572443Y-7332674D02*
X13591491Y-7323150D01*
X13591491Y-7323150D02*
X13620063Y-7323150D01*
X13620063Y-7323150D02*
X13639110Y-7332674D01*
X13639110Y-7332674D02*
X13648634Y-7351722D01*
X13648634Y-7351722D02*
X13648634Y-7456484D01*
X13648634Y-7351722D02*
X13658158Y-7332674D01*
X13658158Y-7332674D02*
X13677205Y-7323150D01*
X13677205Y-7323150D02*
X13705777Y-7323150D01*
X13705777Y-7323150D02*
X13724824Y-7332674D01*
X13724824Y-7332674D02*
X13734348Y-7351722D01*
X13734348Y-7351722D02*
X13734348Y-7456484D01*
X13829586Y-7456484D02*
X13829586Y-7323150D01*
X13829586Y-7342198D02*
X13839110Y-7332674D01*
X13839110Y-7332674D02*
X13858158Y-7323150D01*
X13858158Y-7323150D02*
X13886729Y-7323150D01*
X13886729Y-7323150D02*
X13905777Y-7332674D01*
X13905777Y-7332674D02*
X13915301Y-7351722D01*
X13915301Y-7351722D02*
X13915301Y-7456484D01*
X13915301Y-7351722D02*
X13924824Y-7332674D01*
X13924824Y-7332674D02*
X13943872Y-7323150D01*
X13943872Y-7323150D02*
X13972443Y-7323150D01*
X13972443Y-7323150D02*
X13991491Y-7332674D01*
X13991491Y-7332674D02*
X14001015Y-7351722D01*
X14001015Y-7351722D02*
X14001015Y-7456484D01*
X14391491Y-7246960D02*
X14220063Y-7504103D01*
X14648634Y-7256484D02*
X14667682Y-7256484D01*
X14667682Y-7256484D02*
X14686729Y-7266008D01*
X14686729Y-7266008D02*
X14696253Y-7275531D01*
X14696253Y-7275531D02*
X14705777Y-7294579D01*
X14705777Y-7294579D02*
X14715301Y-7332674D01*
X14715301Y-7332674D02*
X14715301Y-7380293D01*
X14715301Y-7380293D02*
X14705777Y-7418388D01*
X14705777Y-7418388D02*
X14696253Y-7437436D01*
X14696253Y-7437436D02*
X14686729Y-7446960D01*
X14686729Y-7446960D02*
X14667682Y-7456484D01*
X14667682Y-7456484D02*
X14648634Y-7456484D01*
X14648634Y-7456484D02*
X14629586Y-7446960D01*
X14629586Y-7446960D02*
X14620063Y-7437436D01*
X14620063Y-7437436D02*
X14610539Y-7418388D01*
X14610539Y-7418388D02*
X14601015Y-7380293D01*
X14601015Y-7380293D02*
X14601015Y-7332674D01*
X14601015Y-7332674D02*
X14610539Y-7294579D01*
X14610539Y-7294579D02*
X14620063Y-7275531D01*
X14620063Y-7275531D02*
X14629586Y-7266008D01*
X14629586Y-7266008D02*
X14648634Y-7256484D01*
X14801015Y-7437436D02*
X14810539Y-7446960D01*
X14810539Y-7446960D02*
X14801015Y-7456484D01*
X14801015Y-7456484D02*
X14791491Y-7446960D01*
X14791491Y-7446960D02*
X14801015Y-7437436D01*
X14801015Y-7437436D02*
X14801015Y-7456484D01*
X14934348Y-7256484D02*
X14953396Y-7256484D01*
X14953396Y-7256484D02*
X14972444Y-7266008D01*
X14972444Y-7266008D02*
X14981967Y-7275531D01*
X14981967Y-7275531D02*
X14991491Y-7294579D01*
X14991491Y-7294579D02*
X15001015Y-7332674D01*
X15001015Y-7332674D02*
X15001015Y-7380293D01*
X15001015Y-7380293D02*
X14991491Y-7418388D01*
X14991491Y-7418388D02*
X14981967Y-7437436D01*
X14981967Y-7437436D02*
X14972444Y-7446960D01*
X14972444Y-7446960D02*
X14953396Y-7456484D01*
X14953396Y-7456484D02*
X14934348Y-7456484D01*
X14934348Y-7456484D02*
X14915301Y-7446960D01*
X14915301Y-7446960D02*
X14905777Y-7437436D01*
X14905777Y-7437436D02*
X14896253Y-7418388D01*
X14896253Y-7418388D02*
X14886729Y-7380293D01*
X14886729Y-7380293D02*
X14886729Y-7332674D01*
X14886729Y-7332674D02*
X14896253Y-7294579D01*
X14896253Y-7294579D02*
X14905777Y-7275531D01*
X14905777Y-7275531D02*
X14915301Y-7266008D01*
X14915301Y-7266008D02*
X14934348Y-7256484D01*
X15067682Y-7256484D02*
X15201015Y-7256484D01*
X15201015Y-7256484D02*
X15115301Y-7456484D01*
X15267682Y-7275531D02*
X15277206Y-7266008D01*
X15277206Y-7266008D02*
X15296253Y-7256484D01*
X15296253Y-7256484D02*
X15343872Y-7256484D01*
X15343872Y-7256484D02*
X15362920Y-7266008D01*
X15362920Y-7266008D02*
X15372444Y-7275531D01*
X15372444Y-7275531D02*
X15381967Y-7294579D01*
X15381967Y-7294579D02*
X15381967Y-7313627D01*
X15381967Y-7313627D02*
X15372444Y-7342198D01*
X15372444Y-7342198D02*
X15258158Y-7456484D01*
X15258158Y-7456484D02*
X15381967Y-7456484D01*
X15496253Y-7342198D02*
X15477206Y-7332674D01*
X15477206Y-7332674D02*
X15467682Y-7323150D01*
X15467682Y-7323150D02*
X15458158Y-7304103D01*
X15458158Y-7304103D02*
X15458158Y-7294579D01*
X15458158Y-7294579D02*
X15467682Y-7275531D01*
X15467682Y-7275531D02*
X15477206Y-7266008D01*
X15477206Y-7266008D02*
X15496253Y-7256484D01*
X15496253Y-7256484D02*
X15534348Y-7256484D01*
X15534348Y-7256484D02*
X15553396Y-7266008D01*
X15553396Y-7266008D02*
X15562920Y-7275531D01*
X15562920Y-7275531D02*
X15572444Y-7294579D01*
X15572444Y-7294579D02*
X15572444Y-7304103D01*
X15572444Y-7304103D02*
X15562920Y-7323150D01*
X15562920Y-7323150D02*
X15553396Y-7332674D01*
X15553396Y-7332674D02*
X15534348Y-7342198D01*
X15534348Y-7342198D02*
X15496253Y-7342198D01*
X15496253Y-7342198D02*
X15477206Y-7351722D01*
X15477206Y-7351722D02*
X15467682Y-7361246D01*
X15467682Y-7361246D02*
X15458158Y-7380293D01*
X15458158Y-7380293D02*
X15458158Y-7418388D01*
X15458158Y-7418388D02*
X15467682Y-7437436D01*
X15467682Y-7437436D02*
X15477206Y-7446960D01*
X15477206Y-7446960D02*
X15496253Y-7456484D01*
X15496253Y-7456484D02*
X15534348Y-7456484D01*
X15534348Y-7456484D02*
X15553396Y-7446960D01*
X15553396Y-7446960D02*
X15562920Y-7437436D01*
X15562920Y-7437436D02*
X15572444Y-7418388D01*
X15572444Y-7418388D02*
X15572444Y-7380293D01*
X15572444Y-7380293D02*
X15562920Y-7361246D01*
X15562920Y-7361246D02*
X15553396Y-7351722D01*
X15553396Y-7351722D02*
X15534348Y-7342198D01*
X15648634Y-7256484D02*
X15648634Y-7294579D01*
X15724825Y-7256484D02*
X15724825Y-7294579D01*
X16020063Y-7532674D02*
X16010539Y-7523150D01*
X16010539Y-7523150D02*
X15991491Y-7494579D01*
X15991491Y-7494579D02*
X15981968Y-7475531D01*
X15981968Y-7475531D02*
X15972444Y-7446960D01*
X15972444Y-7446960D02*
X15962920Y-7399341D01*
X15962920Y-7399341D02*
X15962920Y-7361246D01*
X15962920Y-7361246D02*
X15972444Y-7313627D01*
X15972444Y-7313627D02*
X15981968Y-7285055D01*
X15981968Y-7285055D02*
X15991491Y-7266008D01*
X15991491Y-7266008D02*
X16010539Y-7237436D01*
X16010539Y-7237436D02*
X16020063Y-7227912D01*
X16181968Y-7256484D02*
X16143872Y-7256484D01*
X16143872Y-7256484D02*
X16124825Y-7266008D01*
X16124825Y-7266008D02*
X16115301Y-7275531D01*
X16115301Y-7275531D02*
X16096253Y-7304103D01*
X16096253Y-7304103D02*
X16086729Y-7342198D01*
X16086729Y-7342198D02*
X16086729Y-7418388D01*
X16086729Y-7418388D02*
X16096253Y-7437436D01*
X16096253Y-7437436D02*
X16105777Y-7446960D01*
X16105777Y-7446960D02*
X16124825Y-7456484D01*
X16124825Y-7456484D02*
X16162920Y-7456484D01*
X16162920Y-7456484D02*
X16181968Y-7446960D01*
X16181968Y-7446960D02*
X16191491Y-7437436D01*
X16191491Y-7437436D02*
X16201015Y-7418388D01*
X16201015Y-7418388D02*
X16201015Y-7370769D01*
X16201015Y-7370769D02*
X16191491Y-7351722D01*
X16191491Y-7351722D02*
X16181968Y-7342198D01*
X16181968Y-7342198D02*
X16162920Y-7332674D01*
X16162920Y-7332674D02*
X16124825Y-7332674D01*
X16124825Y-7332674D02*
X16105777Y-7342198D01*
X16105777Y-7342198D02*
X16096253Y-7351722D01*
X16096253Y-7351722D02*
X16086729Y-7370769D01*
X16439110Y-7456484D02*
X16439110Y-7256484D01*
X16524825Y-7456484D02*
X16524825Y-7351722D01*
X16524825Y-7351722D02*
X16515301Y-7332674D01*
X16515301Y-7332674D02*
X16496253Y-7323150D01*
X16496253Y-7323150D02*
X16467682Y-7323150D01*
X16467682Y-7323150D02*
X16448634Y-7332674D01*
X16448634Y-7332674D02*
X16439110Y-7342198D01*
X16648634Y-7456484D02*
X16629587Y-7446960D01*
X16629587Y-7446960D02*
X16620063Y-7437436D01*
X16620063Y-7437436D02*
X16610539Y-7418388D01*
X16610539Y-7418388D02*
X16610539Y-7361246D01*
X16610539Y-7361246D02*
X16620063Y-7342198D01*
X16620063Y-7342198D02*
X16629587Y-7332674D01*
X16629587Y-7332674D02*
X16648634Y-7323150D01*
X16648634Y-7323150D02*
X16677206Y-7323150D01*
X16677206Y-7323150D02*
X16696253Y-7332674D01*
X16696253Y-7332674D02*
X16705777Y-7342198D01*
X16705777Y-7342198D02*
X16715301Y-7361246D01*
X16715301Y-7361246D02*
X16715301Y-7418388D01*
X16715301Y-7418388D02*
X16705777Y-7437436D01*
X16705777Y-7437436D02*
X16696253Y-7446960D01*
X16696253Y-7446960D02*
X16677206Y-7456484D01*
X16677206Y-7456484D02*
X16648634Y-7456484D01*
X16829587Y-7456484D02*
X16810539Y-7446960D01*
X16810539Y-7446960D02*
X16801015Y-7427912D01*
X16801015Y-7427912D02*
X16801015Y-7256484D01*
X16981968Y-7446960D02*
X16962920Y-7456484D01*
X16962920Y-7456484D02*
X16924825Y-7456484D01*
X16924825Y-7456484D02*
X16905777Y-7446960D01*
X16905777Y-7446960D02*
X16896253Y-7427912D01*
X16896253Y-7427912D02*
X16896253Y-7351722D01*
X16896253Y-7351722D02*
X16905777Y-7332674D01*
X16905777Y-7332674D02*
X16924825Y-7323150D01*
X16924825Y-7323150D02*
X16962920Y-7323150D01*
X16962920Y-7323150D02*
X16981968Y-7332674D01*
X16981968Y-7332674D02*
X16991492Y-7351722D01*
X16991492Y-7351722D02*
X16991492Y-7370769D01*
X16991492Y-7370769D02*
X16896253Y-7389817D01*
X17067682Y-7446960D02*
X17086730Y-7456484D01*
X17086730Y-7456484D02*
X17124825Y-7456484D01*
X17124825Y-7456484D02*
X17143873Y-7446960D01*
X17143873Y-7446960D02*
X17153396Y-7427912D01*
X17153396Y-7427912D02*
X17153396Y-7418388D01*
X17153396Y-7418388D02*
X17143873Y-7399341D01*
X17143873Y-7399341D02*
X17124825Y-7389817D01*
X17124825Y-7389817D02*
X17096253Y-7389817D01*
X17096253Y-7389817D02*
X17077206Y-7380293D01*
X17077206Y-7380293D02*
X17067682Y-7361246D01*
X17067682Y-7361246D02*
X17067682Y-7351722D01*
X17067682Y-7351722D02*
X17077206Y-7332674D01*
X17077206Y-7332674D02*
X17096253Y-7323150D01*
X17096253Y-7323150D02*
X17124825Y-7323150D01*
X17124825Y-7323150D02*
X17143873Y-7332674D01*
X17220063Y-7532674D02*
X17229587Y-7523150D01*
X17229587Y-7523150D02*
X17248634Y-7494579D01*
X17248634Y-7494579D02*
X17258158Y-7475531D01*
X17258158Y-7475531D02*
X17267682Y-7446960D01*
X17267682Y-7446960D02*
X17277206Y-7399341D01*
X17277206Y-7399341D02*
X17277206Y-7361246D01*
X17277206Y-7361246D02*
X17267682Y-7313627D01*
X17267682Y-7313627D02*
X17258158Y-7285055D01*
X17258158Y-7285055D02*
X17248634Y-7266008D01*
X17248634Y-7266008D02*
X17229587Y-7237436D01*
X17229587Y-7237436D02*
X17220063Y-7227912D01*
X12245000Y-7570000D02*
X12445000Y-7770000D01*
X12445000Y-7570000D02*
X12245000Y-7770000D01*
X12345000Y-7570000D02*
X12345000Y-7770000D01*
X12245000Y-7670000D02*
X12445000Y-7670000D01*
X12696253Y-7580531D02*
X12705777Y-7571008D01*
X12705777Y-7571008D02*
X12724824Y-7561484D01*
X12724824Y-7561484D02*
X12772443Y-7561484D01*
X12772443Y-7561484D02*
X12791491Y-7571008D01*
X12791491Y-7571008D02*
X12801015Y-7580531D01*
X12801015Y-7580531D02*
X12810539Y-7599579D01*
X12810539Y-7599579D02*
X12810539Y-7618627D01*
X12810539Y-7618627D02*
X12801015Y-7647198D01*
X12801015Y-7647198D02*
X12686729Y-7761484D01*
X12686729Y-7761484D02*
X12810539Y-7761484D01*
X12896253Y-7742436D02*
X12905777Y-7751960D01*
X12905777Y-7751960D02*
X12896253Y-7761484D01*
X12896253Y-7761484D02*
X12886729Y-7751960D01*
X12886729Y-7751960D02*
X12896253Y-7742436D01*
X12896253Y-7742436D02*
X12896253Y-7761484D01*
X12972443Y-7561484D02*
X13105777Y-7561484D01*
X13105777Y-7561484D02*
X13020062Y-7761484D01*
X13220062Y-7561484D02*
X13239110Y-7561484D01*
X13239110Y-7561484D02*
X13258158Y-7571008D01*
X13258158Y-7571008D02*
X13267682Y-7580531D01*
X13267682Y-7580531D02*
X13277205Y-7599579D01*
X13277205Y-7599579D02*
X13286729Y-7637674D01*
X13286729Y-7637674D02*
X13286729Y-7685293D01*
X13286729Y-7685293D02*
X13277205Y-7723388D01*
X13277205Y-7723388D02*
X13267682Y-7742436D01*
X13267682Y-7742436D02*
X13258158Y-7751960D01*
X13258158Y-7751960D02*
X13239110Y-7761484D01*
X13239110Y-7761484D02*
X13220062Y-7761484D01*
X13220062Y-7761484D02*
X13201015Y-7751960D01*
X13201015Y-7751960D02*
X13191491Y-7742436D01*
X13191491Y-7742436D02*
X13181967Y-7723388D01*
X13181967Y-7723388D02*
X13172443Y-7685293D01*
X13172443Y-7685293D02*
X13172443Y-7637674D01*
X13172443Y-7637674D02*
X13181967Y-7599579D01*
X13181967Y-7599579D02*
X13191491Y-7580531D01*
X13191491Y-7580531D02*
X13201015Y-7571008D01*
X13201015Y-7571008D02*
X13220062Y-7561484D01*
X13410539Y-7561484D02*
X13429586Y-7561484D01*
X13429586Y-7561484D02*
X13448634Y-7571008D01*
X13448634Y-7571008D02*
X13458158Y-7580531D01*
X13458158Y-7580531D02*
X13467682Y-7599579D01*
X13467682Y-7599579D02*
X13477205Y-7637674D01*
X13477205Y-7637674D02*
X13477205Y-7685293D01*
X13477205Y-7685293D02*
X13467682Y-7723388D01*
X13467682Y-7723388D02*
X13458158Y-7742436D01*
X13458158Y-7742436D02*
X13448634Y-7751960D01*
X13448634Y-7751960D02*
X13429586Y-7761484D01*
X13429586Y-7761484D02*
X13410539Y-7761484D01*
X13410539Y-7761484D02*
X13391491Y-7751960D01*
X13391491Y-7751960D02*
X13381967Y-7742436D01*
X13381967Y-7742436D02*
X13372443Y-7723388D01*
X13372443Y-7723388D02*
X13362920Y-7685293D01*
X13362920Y-7685293D02*
X13362920Y-7637674D01*
X13362920Y-7637674D02*
X13372443Y-7599579D01*
X13372443Y-7599579D02*
X13381967Y-7580531D01*
X13381967Y-7580531D02*
X13391491Y-7571008D01*
X13391491Y-7571008D02*
X13410539Y-7561484D01*
X13562920Y-7761484D02*
X13562920Y-7628150D01*
X13562920Y-7647198D02*
X13572443Y-7637674D01*
X13572443Y-7637674D02*
X13591491Y-7628150D01*
X13591491Y-7628150D02*
X13620063Y-7628150D01*
X13620063Y-7628150D02*
X13639110Y-7637674D01*
X13639110Y-7637674D02*
X13648634Y-7656722D01*
X13648634Y-7656722D02*
X13648634Y-7761484D01*
X13648634Y-7656722D02*
X13658158Y-7637674D01*
X13658158Y-7637674D02*
X13677205Y-7628150D01*
X13677205Y-7628150D02*
X13705777Y-7628150D01*
X13705777Y-7628150D02*
X13724824Y-7637674D01*
X13724824Y-7637674D02*
X13734348Y-7656722D01*
X13734348Y-7656722D02*
X13734348Y-7761484D01*
X13829586Y-7761484D02*
X13829586Y-7628150D01*
X13829586Y-7647198D02*
X13839110Y-7637674D01*
X13839110Y-7637674D02*
X13858158Y-7628150D01*
X13858158Y-7628150D02*
X13886729Y-7628150D01*
X13886729Y-7628150D02*
X13905777Y-7637674D01*
X13905777Y-7637674D02*
X13915301Y-7656722D01*
X13915301Y-7656722D02*
X13915301Y-7761484D01*
X13915301Y-7656722D02*
X13924824Y-7637674D01*
X13924824Y-7637674D02*
X13943872Y-7628150D01*
X13943872Y-7628150D02*
X13972443Y-7628150D01*
X13972443Y-7628150D02*
X13991491Y-7637674D01*
X13991491Y-7637674D02*
X14001015Y-7656722D01*
X14001015Y-7656722D02*
X14001015Y-7761484D01*
X14391491Y-7551960D02*
X14220063Y-7809103D01*
X14648634Y-7561484D02*
X14667682Y-7561484D01*
X14667682Y-7561484D02*
X14686729Y-7571008D01*
X14686729Y-7571008D02*
X14696253Y-7580531D01*
X14696253Y-7580531D02*
X14705777Y-7599579D01*
X14705777Y-7599579D02*
X14715301Y-7637674D01*
X14715301Y-7637674D02*
X14715301Y-7685293D01*
X14715301Y-7685293D02*
X14705777Y-7723388D01*
X14705777Y-7723388D02*
X14696253Y-7742436D01*
X14696253Y-7742436D02*
X14686729Y-7751960D01*
X14686729Y-7751960D02*
X14667682Y-7761484D01*
X14667682Y-7761484D02*
X14648634Y-7761484D01*
X14648634Y-7761484D02*
X14629586Y-7751960D01*
X14629586Y-7751960D02*
X14620063Y-7742436D01*
X14620063Y-7742436D02*
X14610539Y-7723388D01*
X14610539Y-7723388D02*
X14601015Y-7685293D01*
X14601015Y-7685293D02*
X14601015Y-7637674D01*
X14601015Y-7637674D02*
X14610539Y-7599579D01*
X14610539Y-7599579D02*
X14620063Y-7580531D01*
X14620063Y-7580531D02*
X14629586Y-7571008D01*
X14629586Y-7571008D02*
X14648634Y-7561484D01*
X14801015Y-7742436D02*
X14810539Y-7751960D01*
X14810539Y-7751960D02*
X14801015Y-7761484D01*
X14801015Y-7761484D02*
X14791491Y-7751960D01*
X14791491Y-7751960D02*
X14801015Y-7742436D01*
X14801015Y-7742436D02*
X14801015Y-7761484D01*
X15001015Y-7761484D02*
X14886729Y-7761484D01*
X14943872Y-7761484D02*
X14943872Y-7561484D01*
X14943872Y-7561484D02*
X14924825Y-7590055D01*
X14924825Y-7590055D02*
X14905777Y-7609103D01*
X14905777Y-7609103D02*
X14886729Y-7618627D01*
X15124825Y-7561484D02*
X15143872Y-7561484D01*
X15143872Y-7561484D02*
X15162920Y-7571008D01*
X15162920Y-7571008D02*
X15172444Y-7580531D01*
X15172444Y-7580531D02*
X15181967Y-7599579D01*
X15181967Y-7599579D02*
X15191491Y-7637674D01*
X15191491Y-7637674D02*
X15191491Y-7685293D01*
X15191491Y-7685293D02*
X15181967Y-7723388D01*
X15181967Y-7723388D02*
X15172444Y-7742436D01*
X15172444Y-7742436D02*
X15162920Y-7751960D01*
X15162920Y-7751960D02*
X15143872Y-7761484D01*
X15143872Y-7761484D02*
X15124825Y-7761484D01*
X15124825Y-7761484D02*
X15105777Y-7751960D01*
X15105777Y-7751960D02*
X15096253Y-7742436D01*
X15096253Y-7742436D02*
X15086729Y-7723388D01*
X15086729Y-7723388D02*
X15077206Y-7685293D01*
X15077206Y-7685293D02*
X15077206Y-7637674D01*
X15077206Y-7637674D02*
X15086729Y-7599579D01*
X15086729Y-7599579D02*
X15096253Y-7580531D01*
X15096253Y-7580531D02*
X15105777Y-7571008D01*
X15105777Y-7571008D02*
X15124825Y-7561484D01*
X15362920Y-7561484D02*
X15324825Y-7561484D01*
X15324825Y-7561484D02*
X15305777Y-7571008D01*
X15305777Y-7571008D02*
X15296253Y-7580531D01*
X15296253Y-7580531D02*
X15277206Y-7609103D01*
X15277206Y-7609103D02*
X15267682Y-7647198D01*
X15267682Y-7647198D02*
X15267682Y-7723388D01*
X15267682Y-7723388D02*
X15277206Y-7742436D01*
X15277206Y-7742436D02*
X15286729Y-7751960D01*
X15286729Y-7751960D02*
X15305777Y-7761484D01*
X15305777Y-7761484D02*
X15343872Y-7761484D01*
X15343872Y-7761484D02*
X15362920Y-7751960D01*
X15362920Y-7751960D02*
X15372444Y-7742436D01*
X15372444Y-7742436D02*
X15381967Y-7723388D01*
X15381967Y-7723388D02*
X15381967Y-7675769D01*
X15381967Y-7675769D02*
X15372444Y-7656722D01*
X15372444Y-7656722D02*
X15362920Y-7647198D01*
X15362920Y-7647198D02*
X15343872Y-7637674D01*
X15343872Y-7637674D02*
X15305777Y-7637674D01*
X15305777Y-7637674D02*
X15286729Y-7647198D01*
X15286729Y-7647198D02*
X15277206Y-7656722D01*
X15277206Y-7656722D02*
X15267682Y-7675769D01*
X15448634Y-7561484D02*
X15572444Y-7561484D01*
X15572444Y-7561484D02*
X15505777Y-7637674D01*
X15505777Y-7637674D02*
X15534348Y-7637674D01*
X15534348Y-7637674D02*
X15553396Y-7647198D01*
X15553396Y-7647198D02*
X15562920Y-7656722D01*
X15562920Y-7656722D02*
X15572444Y-7675769D01*
X15572444Y-7675769D02*
X15572444Y-7723388D01*
X15572444Y-7723388D02*
X15562920Y-7742436D01*
X15562920Y-7742436D02*
X15553396Y-7751960D01*
X15553396Y-7751960D02*
X15534348Y-7761484D01*
X15534348Y-7761484D02*
X15477206Y-7761484D01*
X15477206Y-7761484D02*
X15458158Y-7751960D01*
X15458158Y-7751960D02*
X15448634Y-7742436D01*
X15648634Y-7561484D02*
X15648634Y-7599579D01*
X15724825Y-7561484D02*
X15724825Y-7599579D01*
X16020063Y-7837674D02*
X16010539Y-7828150D01*
X16010539Y-7828150D02*
X15991491Y-7799579D01*
X15991491Y-7799579D02*
X15981968Y-7780531D01*
X15981968Y-7780531D02*
X15972444Y-7751960D01*
X15972444Y-7751960D02*
X15962920Y-7704341D01*
X15962920Y-7704341D02*
X15962920Y-7666246D01*
X15962920Y-7666246D02*
X15972444Y-7618627D01*
X15972444Y-7618627D02*
X15981968Y-7590055D01*
X15981968Y-7590055D02*
X15991491Y-7571008D01*
X15991491Y-7571008D02*
X16010539Y-7542436D01*
X16010539Y-7542436D02*
X16020063Y-7532912D01*
X16181968Y-7561484D02*
X16143872Y-7561484D01*
X16143872Y-7561484D02*
X16124825Y-7571008D01*
X16124825Y-7571008D02*
X16115301Y-7580531D01*
X16115301Y-7580531D02*
X16096253Y-7609103D01*
X16096253Y-7609103D02*
X16086729Y-7647198D01*
X16086729Y-7647198D02*
X16086729Y-7723388D01*
X16086729Y-7723388D02*
X16096253Y-7742436D01*
X16096253Y-7742436D02*
X16105777Y-7751960D01*
X16105777Y-7751960D02*
X16124825Y-7761484D01*
X16124825Y-7761484D02*
X16162920Y-7761484D01*
X16162920Y-7761484D02*
X16181968Y-7751960D01*
X16181968Y-7751960D02*
X16191491Y-7742436D01*
X16191491Y-7742436D02*
X16201015Y-7723388D01*
X16201015Y-7723388D02*
X16201015Y-7675769D01*
X16201015Y-7675769D02*
X16191491Y-7656722D01*
X16191491Y-7656722D02*
X16181968Y-7647198D01*
X16181968Y-7647198D02*
X16162920Y-7637674D01*
X16162920Y-7637674D02*
X16124825Y-7637674D01*
X16124825Y-7637674D02*
X16105777Y-7647198D01*
X16105777Y-7647198D02*
X16096253Y-7656722D01*
X16096253Y-7656722D02*
X16086729Y-7675769D01*
X16439110Y-7761484D02*
X16439110Y-7561484D01*
X16524825Y-7761484D02*
X16524825Y-7656722D01*
X16524825Y-7656722D02*
X16515301Y-7637674D01*
X16515301Y-7637674D02*
X16496253Y-7628150D01*
X16496253Y-7628150D02*
X16467682Y-7628150D01*
X16467682Y-7628150D02*
X16448634Y-7637674D01*
X16448634Y-7637674D02*
X16439110Y-7647198D01*
X16648634Y-7761484D02*
X16629587Y-7751960D01*
X16629587Y-7751960D02*
X16620063Y-7742436D01*
X16620063Y-7742436D02*
X16610539Y-7723388D01*
X16610539Y-7723388D02*
X16610539Y-7666246D01*
X16610539Y-7666246D02*
X16620063Y-7647198D01*
X16620063Y-7647198D02*
X16629587Y-7637674D01*
X16629587Y-7637674D02*
X16648634Y-7628150D01*
X16648634Y-7628150D02*
X16677206Y-7628150D01*
X16677206Y-7628150D02*
X16696253Y-7637674D01*
X16696253Y-7637674D02*
X16705777Y-7647198D01*
X16705777Y-7647198D02*
X16715301Y-7666246D01*
X16715301Y-7666246D02*
X16715301Y-7723388D01*
X16715301Y-7723388D02*
X16705777Y-7742436D01*
X16705777Y-7742436D02*
X16696253Y-7751960D01*
X16696253Y-7751960D02*
X16677206Y-7761484D01*
X16677206Y-7761484D02*
X16648634Y-7761484D01*
X16829587Y-7761484D02*
X16810539Y-7751960D01*
X16810539Y-7751960D02*
X16801015Y-7732912D01*
X16801015Y-7732912D02*
X16801015Y-7561484D01*
X16981968Y-7751960D02*
X16962920Y-7761484D01*
X16962920Y-7761484D02*
X16924825Y-7761484D01*
X16924825Y-7761484D02*
X16905777Y-7751960D01*
X16905777Y-7751960D02*
X16896253Y-7732912D01*
X16896253Y-7732912D02*
X16896253Y-7656722D01*
X16896253Y-7656722D02*
X16905777Y-7637674D01*
X16905777Y-7637674D02*
X16924825Y-7628150D01*
X16924825Y-7628150D02*
X16962920Y-7628150D01*
X16962920Y-7628150D02*
X16981968Y-7637674D01*
X16981968Y-7637674D02*
X16991492Y-7656722D01*
X16991492Y-7656722D02*
X16991492Y-7675769D01*
X16991492Y-7675769D02*
X16896253Y-7694817D01*
X17067682Y-7751960D02*
X17086730Y-7761484D01*
X17086730Y-7761484D02*
X17124825Y-7761484D01*
X17124825Y-7761484D02*
X17143873Y-7751960D01*
X17143873Y-7751960D02*
X17153396Y-7732912D01*
X17153396Y-7732912D02*
X17153396Y-7723388D01*
X17153396Y-7723388D02*
X17143873Y-7704341D01*
X17143873Y-7704341D02*
X17124825Y-7694817D01*
X17124825Y-7694817D02*
X17096253Y-7694817D01*
X17096253Y-7694817D02*
X17077206Y-7685293D01*
X17077206Y-7685293D02*
X17067682Y-7666246D01*
X17067682Y-7666246D02*
X17067682Y-7656722D01*
X17067682Y-7656722D02*
X17077206Y-7637674D01*
X17077206Y-7637674D02*
X17096253Y-7628150D01*
X17096253Y-7628150D02*
X17124825Y-7628150D01*
X17124825Y-7628150D02*
X17143873Y-7637674D01*
X17220063Y-7837674D02*
X17229587Y-7828150D01*
X17229587Y-7828150D02*
X17248634Y-7799579D01*
X17248634Y-7799579D02*
X17258158Y-7780531D01*
X17258158Y-7780531D02*
X17267682Y-7751960D01*
X17267682Y-7751960D02*
X17277206Y-7704341D01*
X17277206Y-7704341D02*
X17277206Y-7666246D01*
X17277206Y-7666246D02*
X17267682Y-7618627D01*
X17267682Y-7618627D02*
X17258158Y-7590055D01*
X17258158Y-7590055D02*
X17248634Y-7571008D01*
X17248634Y-7571008D02*
X17229587Y-7542436D01*
X17229587Y-7542436D02*
X17220063Y-7532912D01*
M02*
