M48
; DRILL file {KiCad 7.0.10} date Thursday, January 30, 2025 at 11:55:27 PM
; FORMAT={-:-/ absolute / inch / decimal}
; #@! TF.CreationDate,2025-01-30T23:55:27+01:00
; #@! TF.GenerationSoftware,Kicad,Pcbnew,7.0.10
; #@! TF.FileFunction,NonPlated,1,2,NPTH
FMAT,2
INCH
; #@! TA.AperFunction,NonPlated,NPTH,ComponentDrill
T1C0.0197
; #@! TA.AperFunction,NonPlated,NPTH,ComponentDrill
T2C0.1280
%
G90
G05
T1
X5.8465Y-0.7874
X5.8465Y-0.8193
X5.8465Y-0.8511
X5.8465Y-0.883
X5.8465Y-0.9149
X5.8465Y-0.9468
X5.8465Y-0.9786
X5.8465Y-1.0105
X5.8465Y-1.0424
X5.8465Y-1.0742
X5.8465Y-1.1061
X5.8465Y-1.138
X5.8465Y-1.1699
X5.8465Y-1.2017
X5.8465Y-1.2336
X5.8465Y-1.2655
X5.8465Y-1.2973
X5.8465Y-1.3292
X5.8465Y-1.3611
X5.8465Y-1.393
X5.8465Y-1.4248
X5.8465Y-1.4567
X5.8465Y-1.4886
X5.8465Y-1.5204
X5.8465Y-1.5523
X5.8465Y-1.5842
X5.8465Y-1.616
X5.8465Y-1.6479
X5.8465Y-1.6798
X5.8465Y-1.7117
X5.8465Y-1.7435
X5.8465Y-1.7754
X5.8465Y-1.8073
X5.8465Y-1.8391
X5.8465Y-1.871
X5.8465Y-1.9029
X5.8465Y-1.9348
X5.8465Y-1.9666
X5.8465Y-1.9985
X5.8465Y-2.0304
X5.8465Y-2.0622
X5.8465Y-2.0941
X5.8465Y-2.126
T2
X5.0421Y-1.2402
X5.4921Y-1.2402
X5.987Y-1.2402
X6.437Y-1.2402
M30
