%TF.GenerationSoftware,KiCad,Pcbnew,7.0.10*%
%TF.CreationDate,2025-01-30T23:55:36+01:00*%
%TF.ProjectId,DoublePanel_MouseBites,446f7562-6c65-4506-916e-656c5f4d6f75,rev?*%
%TF.SameCoordinates,Original*%
%TF.FileFunction,Legend,Bot*%
%TF.FilePolarity,Positive*%
%FSLAX46Y46*%
G04 Gerber Fmt 4.6, Leading zero omitted, Abs format (unit mm)*
G04 Created by KiCad (PCBNEW 7.0.10) date 2025-01-30 23:55:36*
%MOMM*%
%LPD*%
G01*
G04 APERTURE LIST*
%ADD10C,0.300000*%
%ADD11C,0.150000*%
%ADD12C,0.120000*%
%ADD13C,0.100000*%
%ADD14C,0.200000*%
G04 APERTURE END LIST*
D10*
X133669971Y-40182701D02*
X133741400Y-40116034D01*
X133741400Y-40116034D02*
X133812828Y-39916034D01*
X133812828Y-39916034D02*
X133812828Y-39782701D01*
X133812828Y-39782701D02*
X133741400Y-39582701D01*
X133741400Y-39582701D02*
X133598542Y-39449368D01*
X133598542Y-39449368D02*
X133455685Y-39382701D01*
X133455685Y-39382701D02*
X133169971Y-39316034D01*
X133169971Y-39316034D02*
X132955685Y-39316034D01*
X132955685Y-39316034D02*
X132669971Y-39382701D01*
X132669971Y-39382701D02*
X132527114Y-39449368D01*
X132527114Y-39449368D02*
X132384257Y-39582701D01*
X132384257Y-39582701D02*
X132312828Y-39782701D01*
X132312828Y-39782701D02*
X132312828Y-39916034D01*
X132312828Y-39916034D02*
X132384257Y-40116034D01*
X132384257Y-40116034D02*
X132455685Y-40182701D01*
X133812828Y-40982701D02*
X133741400Y-40849368D01*
X133741400Y-40849368D02*
X133669971Y-40782701D01*
X133669971Y-40782701D02*
X133527114Y-40716034D01*
X133527114Y-40716034D02*
X133098542Y-40716034D01*
X133098542Y-40716034D02*
X132955685Y-40782701D01*
X132955685Y-40782701D02*
X132884257Y-40849368D01*
X132884257Y-40849368D02*
X132812828Y-40982701D01*
X132812828Y-40982701D02*
X132812828Y-41182701D01*
X132812828Y-41182701D02*
X132884257Y-41316034D01*
X132884257Y-41316034D02*
X132955685Y-41382701D01*
X132955685Y-41382701D02*
X133098542Y-41449368D01*
X133098542Y-41449368D02*
X133527114Y-41449368D01*
X133527114Y-41449368D02*
X133669971Y-41382701D01*
X133669971Y-41382701D02*
X133741400Y-41316034D01*
X133741400Y-41316034D02*
X133812828Y-41182701D01*
X133812828Y-41182701D02*
X133812828Y-40982701D01*
X132812828Y-42049368D02*
X133812828Y-42049368D01*
X132955685Y-42049368D02*
X132884257Y-42116035D01*
X132884257Y-42116035D02*
X132812828Y-42249368D01*
X132812828Y-42249368D02*
X132812828Y-42449368D01*
X132812828Y-42449368D02*
X132884257Y-42582701D01*
X132884257Y-42582701D02*
X133027114Y-42649368D01*
X133027114Y-42649368D02*
X133812828Y-42649368D01*
X132812828Y-43116035D02*
X132812828Y-43649368D01*
X132312828Y-43316035D02*
X133598542Y-43316035D01*
X133598542Y-43316035D02*
X133741400Y-43382702D01*
X133741400Y-43382702D02*
X133812828Y-43516035D01*
X133812828Y-43516035D02*
X133812828Y-43649368D01*
X133812828Y-44116035D02*
X132812828Y-44116035D01*
X133098542Y-44116035D02*
X132955685Y-44182702D01*
X132955685Y-44182702D02*
X132884257Y-44249368D01*
X132884257Y-44249368D02*
X132812828Y-44382702D01*
X132812828Y-44382702D02*
X132812828Y-44516035D01*
X133812828Y-45182702D02*
X133741400Y-45049369D01*
X133741400Y-45049369D02*
X133669971Y-44982702D01*
X133669971Y-44982702D02*
X133527114Y-44916035D01*
X133527114Y-44916035D02*
X133098542Y-44916035D01*
X133098542Y-44916035D02*
X132955685Y-44982702D01*
X132955685Y-44982702D02*
X132884257Y-45049369D01*
X132884257Y-45049369D02*
X132812828Y-45182702D01*
X132812828Y-45182702D02*
X132812828Y-45382702D01*
X132812828Y-45382702D02*
X132884257Y-45516035D01*
X132884257Y-45516035D02*
X132955685Y-45582702D01*
X132955685Y-45582702D02*
X133098542Y-45649369D01*
X133098542Y-45649369D02*
X133527114Y-45649369D01*
X133527114Y-45649369D02*
X133669971Y-45582702D01*
X133669971Y-45582702D02*
X133741400Y-45516035D01*
X133741400Y-45516035D02*
X133812828Y-45382702D01*
X133812828Y-45382702D02*
X133812828Y-45182702D01*
X133812828Y-46449369D02*
X133741400Y-46316036D01*
X133741400Y-46316036D02*
X133598542Y-46249369D01*
X133598542Y-46249369D02*
X132312828Y-46249369D01*
X133812828Y-46982702D02*
X132312828Y-46982702D01*
X132312828Y-46982702D02*
X132312828Y-47516035D01*
X132312828Y-47516035D02*
X132384257Y-47649369D01*
X132384257Y-47649369D02*
X132455685Y-47716035D01*
X132455685Y-47716035D02*
X132598542Y-47782702D01*
X132598542Y-47782702D02*
X132812828Y-47782702D01*
X132812828Y-47782702D02*
X132955685Y-47716035D01*
X132955685Y-47716035D02*
X133027114Y-47649369D01*
X133027114Y-47649369D02*
X133098542Y-47516035D01*
X133098542Y-47516035D02*
X133098542Y-46982702D01*
X133812828Y-48982702D02*
X133027114Y-48982702D01*
X133027114Y-48982702D02*
X132884257Y-48916035D01*
X132884257Y-48916035D02*
X132812828Y-48782702D01*
X132812828Y-48782702D02*
X132812828Y-48516035D01*
X132812828Y-48516035D02*
X132884257Y-48382702D01*
X133741400Y-48982702D02*
X133812828Y-48849369D01*
X133812828Y-48849369D02*
X133812828Y-48516035D01*
X133812828Y-48516035D02*
X133741400Y-48382702D01*
X133741400Y-48382702D02*
X133598542Y-48316035D01*
X133598542Y-48316035D02*
X133455685Y-48316035D01*
X133455685Y-48316035D02*
X133312828Y-48382702D01*
X133312828Y-48382702D02*
X133241400Y-48516035D01*
X133241400Y-48516035D02*
X133241400Y-48849369D01*
X133241400Y-48849369D02*
X133169971Y-48982702D01*
X132812828Y-49649369D02*
X133812828Y-49649369D01*
X132955685Y-49649369D02*
X132884257Y-49716036D01*
X132884257Y-49716036D02*
X132812828Y-49849369D01*
X132812828Y-49849369D02*
X132812828Y-50049369D01*
X132812828Y-50049369D02*
X132884257Y-50182702D01*
X132884257Y-50182702D02*
X133027114Y-50249369D01*
X133027114Y-50249369D02*
X133812828Y-50249369D01*
X133741400Y-51449369D02*
X133812828Y-51316036D01*
X133812828Y-51316036D02*
X133812828Y-51049369D01*
X133812828Y-51049369D02*
X133741400Y-50916036D01*
X133741400Y-50916036D02*
X133598542Y-50849369D01*
X133598542Y-50849369D02*
X133027114Y-50849369D01*
X133027114Y-50849369D02*
X132884257Y-50916036D01*
X132884257Y-50916036D02*
X132812828Y-51049369D01*
X132812828Y-51049369D02*
X132812828Y-51316036D01*
X132812828Y-51316036D02*
X132884257Y-51449369D01*
X132884257Y-51449369D02*
X133027114Y-51516036D01*
X133027114Y-51516036D02*
X133169971Y-51516036D01*
X133169971Y-51516036D02*
X133312828Y-50849369D01*
X133812828Y-52316036D02*
X133741400Y-52182703D01*
X133741400Y-52182703D02*
X133598542Y-52116036D01*
X133598542Y-52116036D02*
X132312828Y-52116036D01*
D11*
X167107580Y-28043922D02*
X166007580Y-28043922D01*
X167107580Y-28434398D02*
X166007580Y-28434398D01*
X166007580Y-28434398D02*
X167107580Y-28902969D01*
X167107580Y-28902969D02*
X166007580Y-28902969D01*
X166374247Y-29644874D02*
X167107580Y-29644874D01*
X165955200Y-29449636D02*
X166740914Y-29254398D01*
X166740914Y-29254398D02*
X166740914Y-29762017D01*
X167474247Y-30269636D02*
X165902819Y-30269636D01*
X167107580Y-30855350D02*
X166007580Y-30855350D01*
X167107580Y-31245826D02*
X166007580Y-31245826D01*
X166007580Y-31245826D02*
X167107580Y-31714397D01*
X167107580Y-31714397D02*
X166007580Y-31714397D01*
X166007580Y-32026778D02*
X166007580Y-32534397D01*
X166007580Y-32534397D02*
X166426628Y-32261064D01*
X166426628Y-32261064D02*
X166426628Y-32378207D01*
X166426628Y-32378207D02*
X166479009Y-32456302D01*
X166479009Y-32456302D02*
X166531390Y-32495350D01*
X166531390Y-32495350D02*
X166636152Y-32534397D01*
X166636152Y-32534397D02*
X166898057Y-32534397D01*
X166898057Y-32534397D02*
X167002819Y-32495350D01*
X167002819Y-32495350D02*
X167055200Y-32456302D01*
X167055200Y-32456302D02*
X167107580Y-32378207D01*
X167107580Y-32378207D02*
X167107580Y-32143921D01*
X167107580Y-32143921D02*
X167055200Y-32065826D01*
X167055200Y-32065826D02*
X167002819Y-32026778D01*
X167474247Y-33081064D02*
X165902819Y-33081064D01*
X166007580Y-33822968D02*
X166007580Y-33979159D01*
X166007580Y-33979159D02*
X166059961Y-34057254D01*
X166059961Y-34057254D02*
X166164723Y-34135349D01*
X166164723Y-34135349D02*
X166374247Y-34174397D01*
X166374247Y-34174397D02*
X166740914Y-34174397D01*
X166740914Y-34174397D02*
X166950438Y-34135349D01*
X166950438Y-34135349D02*
X167055200Y-34057254D01*
X167055200Y-34057254D02*
X167107580Y-33979159D01*
X167107580Y-33979159D02*
X167107580Y-33822968D01*
X167107580Y-33822968D02*
X167055200Y-33744873D01*
X167055200Y-33744873D02*
X166950438Y-33666778D01*
X166950438Y-33666778D02*
X166740914Y-33627730D01*
X166740914Y-33627730D02*
X166374247Y-33627730D01*
X166374247Y-33627730D02*
X166164723Y-33666778D01*
X166164723Y-33666778D02*
X166059961Y-33744873D01*
X166059961Y-33744873D02*
X166007580Y-33822968D01*
X166112342Y-34486778D02*
X166059961Y-34525826D01*
X166059961Y-34525826D02*
X166007580Y-34603921D01*
X166007580Y-34603921D02*
X166007580Y-34799159D01*
X166007580Y-34799159D02*
X166059961Y-34877254D01*
X166059961Y-34877254D02*
X166112342Y-34916302D01*
X166112342Y-34916302D02*
X166217104Y-34955349D01*
X166217104Y-34955349D02*
X166321866Y-34955349D01*
X166321866Y-34955349D02*
X166479009Y-34916302D01*
X166479009Y-34916302D02*
X167107580Y-34447730D01*
X167107580Y-34447730D02*
X167107580Y-34955349D01*
X167474247Y-35502016D02*
X165902819Y-35502016D01*
X166059961Y-36517253D02*
X166007580Y-36439158D01*
X166007580Y-36439158D02*
X166007580Y-36322015D01*
X166007580Y-36322015D02*
X166059961Y-36204872D01*
X166059961Y-36204872D02*
X166164723Y-36126777D01*
X166164723Y-36126777D02*
X166269485Y-36087730D01*
X166269485Y-36087730D02*
X166479009Y-36048682D01*
X166479009Y-36048682D02*
X166636152Y-36048682D01*
X166636152Y-36048682D02*
X166845676Y-36087730D01*
X166845676Y-36087730D02*
X166950438Y-36126777D01*
X166950438Y-36126777D02*
X167055200Y-36204872D01*
X167055200Y-36204872D02*
X167107580Y-36322015D01*
X167107580Y-36322015D02*
X167107580Y-36400111D01*
X167107580Y-36400111D02*
X167055200Y-36517253D01*
X167055200Y-36517253D02*
X167002819Y-36556301D01*
X167002819Y-36556301D02*
X166636152Y-36556301D01*
X166636152Y-36556301D02*
X166636152Y-36400111D01*
X167107580Y-36907730D02*
X166007580Y-36907730D01*
X166007580Y-36907730D02*
X167107580Y-37376301D01*
X167107580Y-37376301D02*
X166007580Y-37376301D01*
X167107580Y-37766778D02*
X166007580Y-37766778D01*
X166007580Y-37766778D02*
X166007580Y-37962016D01*
X166007580Y-37962016D02*
X166059961Y-38079159D01*
X166059961Y-38079159D02*
X166164723Y-38157254D01*
X166164723Y-38157254D02*
X166269485Y-38196301D01*
X166269485Y-38196301D02*
X166479009Y-38235349D01*
X166479009Y-38235349D02*
X166636152Y-38235349D01*
X166636152Y-38235349D02*
X166845676Y-38196301D01*
X166845676Y-38196301D02*
X166950438Y-38157254D01*
X166950438Y-38157254D02*
X167055200Y-38079159D01*
X167055200Y-38079159D02*
X167107580Y-37962016D01*
X167107580Y-37962016D02*
X167107580Y-37766778D01*
D10*
X154487114Y-39849368D02*
X154558542Y-40049368D01*
X154558542Y-40049368D02*
X154629971Y-40116034D01*
X154629971Y-40116034D02*
X154772828Y-40182701D01*
X154772828Y-40182701D02*
X154987114Y-40182701D01*
X154987114Y-40182701D02*
X155129971Y-40116034D01*
X155129971Y-40116034D02*
X155201400Y-40049368D01*
X155201400Y-40049368D02*
X155272828Y-39916034D01*
X155272828Y-39916034D02*
X155272828Y-39382701D01*
X155272828Y-39382701D02*
X153772828Y-39382701D01*
X153772828Y-39382701D02*
X153772828Y-39849368D01*
X153772828Y-39849368D02*
X153844257Y-39982701D01*
X153844257Y-39982701D02*
X153915685Y-40049368D01*
X153915685Y-40049368D02*
X154058542Y-40116034D01*
X154058542Y-40116034D02*
X154201400Y-40116034D01*
X154201400Y-40116034D02*
X154344257Y-40049368D01*
X154344257Y-40049368D02*
X154415685Y-39982701D01*
X154415685Y-39982701D02*
X154487114Y-39849368D01*
X154487114Y-39849368D02*
X154487114Y-39382701D01*
X154272828Y-41382701D02*
X155272828Y-41382701D01*
X154272828Y-40782701D02*
X155058542Y-40782701D01*
X155058542Y-40782701D02*
X155201400Y-40849368D01*
X155201400Y-40849368D02*
X155272828Y-40982701D01*
X155272828Y-40982701D02*
X155272828Y-41182701D01*
X155272828Y-41182701D02*
X155201400Y-41316034D01*
X155201400Y-41316034D02*
X155129971Y-41382701D01*
X154272828Y-42649368D02*
X155487114Y-42649368D01*
X155487114Y-42649368D02*
X155629971Y-42582701D01*
X155629971Y-42582701D02*
X155701400Y-42516035D01*
X155701400Y-42516035D02*
X155772828Y-42382701D01*
X155772828Y-42382701D02*
X155772828Y-42182701D01*
X155772828Y-42182701D02*
X155701400Y-42049368D01*
X155201400Y-42649368D02*
X155272828Y-42516035D01*
X155272828Y-42516035D02*
X155272828Y-42249368D01*
X155272828Y-42249368D02*
X155201400Y-42116035D01*
X155201400Y-42116035D02*
X155129971Y-42049368D01*
X155129971Y-42049368D02*
X154987114Y-41982701D01*
X154987114Y-41982701D02*
X154558542Y-41982701D01*
X154558542Y-41982701D02*
X154415685Y-42049368D01*
X154415685Y-42049368D02*
X154344257Y-42116035D01*
X154344257Y-42116035D02*
X154272828Y-42249368D01*
X154272828Y-42249368D02*
X154272828Y-42516035D01*
X154272828Y-42516035D02*
X154344257Y-42649368D01*
X153772828Y-43182702D02*
X155272828Y-43516035D01*
X155272828Y-43516035D02*
X154201400Y-43782702D01*
X154201400Y-43782702D02*
X155272828Y-44049368D01*
X155272828Y-44049368D02*
X153772828Y-44382702D01*
X155272828Y-44916035D02*
X154272828Y-44916035D01*
X153772828Y-44916035D02*
X153844257Y-44849368D01*
X153844257Y-44849368D02*
X153915685Y-44916035D01*
X153915685Y-44916035D02*
X153844257Y-44982702D01*
X153844257Y-44982702D02*
X153772828Y-44916035D01*
X153772828Y-44916035D02*
X153915685Y-44916035D01*
X154272828Y-45582702D02*
X155772828Y-45582702D01*
X154344257Y-45582702D02*
X154272828Y-45716035D01*
X154272828Y-45716035D02*
X154272828Y-45982702D01*
X154272828Y-45982702D02*
X154344257Y-46116035D01*
X154344257Y-46116035D02*
X154415685Y-46182702D01*
X154415685Y-46182702D02*
X154558542Y-46249369D01*
X154558542Y-46249369D02*
X154987114Y-46249369D01*
X154987114Y-46249369D02*
X155129971Y-46182702D01*
X155129971Y-46182702D02*
X155201400Y-46116035D01*
X155201400Y-46116035D02*
X155272828Y-45982702D01*
X155272828Y-45982702D02*
X155272828Y-45716035D01*
X155272828Y-45716035D02*
X155201400Y-45582702D01*
X155201400Y-47382702D02*
X155272828Y-47249369D01*
X155272828Y-47249369D02*
X155272828Y-46982702D01*
X155272828Y-46982702D02*
X155201400Y-46849369D01*
X155201400Y-46849369D02*
X155058542Y-46782702D01*
X155058542Y-46782702D02*
X154487114Y-46782702D01*
X154487114Y-46782702D02*
X154344257Y-46849369D01*
X154344257Y-46849369D02*
X154272828Y-46982702D01*
X154272828Y-46982702D02*
X154272828Y-47249369D01*
X154272828Y-47249369D02*
X154344257Y-47382702D01*
X154344257Y-47382702D02*
X154487114Y-47449369D01*
X154487114Y-47449369D02*
X154629971Y-47449369D01*
X154629971Y-47449369D02*
X154772828Y-46782702D01*
X155272828Y-48049369D02*
X154272828Y-48049369D01*
X154558542Y-48049369D02*
X154415685Y-48116036D01*
X154415685Y-48116036D02*
X154344257Y-48182702D01*
X154344257Y-48182702D02*
X154272828Y-48316036D01*
X154272828Y-48316036D02*
X154272828Y-48449369D01*
X157669971Y-40182701D02*
X157741400Y-40116034D01*
X157741400Y-40116034D02*
X157812828Y-39916034D01*
X157812828Y-39916034D02*
X157812828Y-39782701D01*
X157812828Y-39782701D02*
X157741400Y-39582701D01*
X157741400Y-39582701D02*
X157598542Y-39449368D01*
X157598542Y-39449368D02*
X157455685Y-39382701D01*
X157455685Y-39382701D02*
X157169971Y-39316034D01*
X157169971Y-39316034D02*
X156955685Y-39316034D01*
X156955685Y-39316034D02*
X156669971Y-39382701D01*
X156669971Y-39382701D02*
X156527114Y-39449368D01*
X156527114Y-39449368D02*
X156384257Y-39582701D01*
X156384257Y-39582701D02*
X156312828Y-39782701D01*
X156312828Y-39782701D02*
X156312828Y-39916034D01*
X156312828Y-39916034D02*
X156384257Y-40116034D01*
X156384257Y-40116034D02*
X156455685Y-40182701D01*
X157812828Y-40982701D02*
X157741400Y-40849368D01*
X157741400Y-40849368D02*
X157669971Y-40782701D01*
X157669971Y-40782701D02*
X157527114Y-40716034D01*
X157527114Y-40716034D02*
X157098542Y-40716034D01*
X157098542Y-40716034D02*
X156955685Y-40782701D01*
X156955685Y-40782701D02*
X156884257Y-40849368D01*
X156884257Y-40849368D02*
X156812828Y-40982701D01*
X156812828Y-40982701D02*
X156812828Y-41182701D01*
X156812828Y-41182701D02*
X156884257Y-41316034D01*
X156884257Y-41316034D02*
X156955685Y-41382701D01*
X156955685Y-41382701D02*
X157098542Y-41449368D01*
X157098542Y-41449368D02*
X157527114Y-41449368D01*
X157527114Y-41449368D02*
X157669971Y-41382701D01*
X157669971Y-41382701D02*
X157741400Y-41316034D01*
X157741400Y-41316034D02*
X157812828Y-41182701D01*
X157812828Y-41182701D02*
X157812828Y-40982701D01*
X156812828Y-42049368D02*
X157812828Y-42049368D01*
X156955685Y-42049368D02*
X156884257Y-42116035D01*
X156884257Y-42116035D02*
X156812828Y-42249368D01*
X156812828Y-42249368D02*
X156812828Y-42449368D01*
X156812828Y-42449368D02*
X156884257Y-42582701D01*
X156884257Y-42582701D02*
X157027114Y-42649368D01*
X157027114Y-42649368D02*
X157812828Y-42649368D01*
X156812828Y-43116035D02*
X156812828Y-43649368D01*
X156312828Y-43316035D02*
X157598542Y-43316035D01*
X157598542Y-43316035D02*
X157741400Y-43382702D01*
X157741400Y-43382702D02*
X157812828Y-43516035D01*
X157812828Y-43516035D02*
X157812828Y-43649368D01*
X157812828Y-44116035D02*
X156812828Y-44116035D01*
X157098542Y-44116035D02*
X156955685Y-44182702D01*
X156955685Y-44182702D02*
X156884257Y-44249368D01*
X156884257Y-44249368D02*
X156812828Y-44382702D01*
X156812828Y-44382702D02*
X156812828Y-44516035D01*
X157812828Y-45182702D02*
X157741400Y-45049369D01*
X157741400Y-45049369D02*
X157669971Y-44982702D01*
X157669971Y-44982702D02*
X157527114Y-44916035D01*
X157527114Y-44916035D02*
X157098542Y-44916035D01*
X157098542Y-44916035D02*
X156955685Y-44982702D01*
X156955685Y-44982702D02*
X156884257Y-45049369D01*
X156884257Y-45049369D02*
X156812828Y-45182702D01*
X156812828Y-45182702D02*
X156812828Y-45382702D01*
X156812828Y-45382702D02*
X156884257Y-45516035D01*
X156884257Y-45516035D02*
X156955685Y-45582702D01*
X156955685Y-45582702D02*
X157098542Y-45649369D01*
X157098542Y-45649369D02*
X157527114Y-45649369D01*
X157527114Y-45649369D02*
X157669971Y-45582702D01*
X157669971Y-45582702D02*
X157741400Y-45516035D01*
X157741400Y-45516035D02*
X157812828Y-45382702D01*
X157812828Y-45382702D02*
X157812828Y-45182702D01*
X157812828Y-46449369D02*
X157741400Y-46316036D01*
X157741400Y-46316036D02*
X157598542Y-46249369D01*
X157598542Y-46249369D02*
X156312828Y-46249369D01*
X157812828Y-46982702D02*
X156312828Y-46982702D01*
X156312828Y-46982702D02*
X156312828Y-47516035D01*
X156312828Y-47516035D02*
X156384257Y-47649369D01*
X156384257Y-47649369D02*
X156455685Y-47716035D01*
X156455685Y-47716035D02*
X156598542Y-47782702D01*
X156598542Y-47782702D02*
X156812828Y-47782702D01*
X156812828Y-47782702D02*
X156955685Y-47716035D01*
X156955685Y-47716035D02*
X157027114Y-47649369D01*
X157027114Y-47649369D02*
X157098542Y-47516035D01*
X157098542Y-47516035D02*
X157098542Y-46982702D01*
X157812828Y-48982702D02*
X157027114Y-48982702D01*
X157027114Y-48982702D02*
X156884257Y-48916035D01*
X156884257Y-48916035D02*
X156812828Y-48782702D01*
X156812828Y-48782702D02*
X156812828Y-48516035D01*
X156812828Y-48516035D02*
X156884257Y-48382702D01*
X157741400Y-48982702D02*
X157812828Y-48849369D01*
X157812828Y-48849369D02*
X157812828Y-48516035D01*
X157812828Y-48516035D02*
X157741400Y-48382702D01*
X157741400Y-48382702D02*
X157598542Y-48316035D01*
X157598542Y-48316035D02*
X157455685Y-48316035D01*
X157455685Y-48316035D02*
X157312828Y-48382702D01*
X157312828Y-48382702D02*
X157241400Y-48516035D01*
X157241400Y-48516035D02*
X157241400Y-48849369D01*
X157241400Y-48849369D02*
X157169971Y-48982702D01*
X156812828Y-49649369D02*
X157812828Y-49649369D01*
X156955685Y-49649369D02*
X156884257Y-49716036D01*
X156884257Y-49716036D02*
X156812828Y-49849369D01*
X156812828Y-49849369D02*
X156812828Y-50049369D01*
X156812828Y-50049369D02*
X156884257Y-50182702D01*
X156884257Y-50182702D02*
X157027114Y-50249369D01*
X157027114Y-50249369D02*
X157812828Y-50249369D01*
X157741400Y-51449369D02*
X157812828Y-51316036D01*
X157812828Y-51316036D02*
X157812828Y-51049369D01*
X157812828Y-51049369D02*
X157741400Y-50916036D01*
X157741400Y-50916036D02*
X157598542Y-50849369D01*
X157598542Y-50849369D02*
X157027114Y-50849369D01*
X157027114Y-50849369D02*
X156884257Y-50916036D01*
X156884257Y-50916036D02*
X156812828Y-51049369D01*
X156812828Y-51049369D02*
X156812828Y-51316036D01*
X156812828Y-51316036D02*
X156884257Y-51449369D01*
X156884257Y-51449369D02*
X157027114Y-51516036D01*
X157027114Y-51516036D02*
X157169971Y-51516036D01*
X157169971Y-51516036D02*
X157312828Y-50849369D01*
X157812828Y-52316036D02*
X157741400Y-52182703D01*
X157741400Y-52182703D02*
X157598542Y-52116036D01*
X157598542Y-52116036D02*
X156312828Y-52116036D01*
X130487114Y-39849368D02*
X130558542Y-40049368D01*
X130558542Y-40049368D02*
X130629971Y-40116034D01*
X130629971Y-40116034D02*
X130772828Y-40182701D01*
X130772828Y-40182701D02*
X130987114Y-40182701D01*
X130987114Y-40182701D02*
X131129971Y-40116034D01*
X131129971Y-40116034D02*
X131201400Y-40049368D01*
X131201400Y-40049368D02*
X131272828Y-39916034D01*
X131272828Y-39916034D02*
X131272828Y-39382701D01*
X131272828Y-39382701D02*
X129772828Y-39382701D01*
X129772828Y-39382701D02*
X129772828Y-39849368D01*
X129772828Y-39849368D02*
X129844257Y-39982701D01*
X129844257Y-39982701D02*
X129915685Y-40049368D01*
X129915685Y-40049368D02*
X130058542Y-40116034D01*
X130058542Y-40116034D02*
X130201400Y-40116034D01*
X130201400Y-40116034D02*
X130344257Y-40049368D01*
X130344257Y-40049368D02*
X130415685Y-39982701D01*
X130415685Y-39982701D02*
X130487114Y-39849368D01*
X130487114Y-39849368D02*
X130487114Y-39382701D01*
X130272828Y-41382701D02*
X131272828Y-41382701D01*
X130272828Y-40782701D02*
X131058542Y-40782701D01*
X131058542Y-40782701D02*
X131201400Y-40849368D01*
X131201400Y-40849368D02*
X131272828Y-40982701D01*
X131272828Y-40982701D02*
X131272828Y-41182701D01*
X131272828Y-41182701D02*
X131201400Y-41316034D01*
X131201400Y-41316034D02*
X131129971Y-41382701D01*
X130272828Y-42649368D02*
X131487114Y-42649368D01*
X131487114Y-42649368D02*
X131629971Y-42582701D01*
X131629971Y-42582701D02*
X131701400Y-42516035D01*
X131701400Y-42516035D02*
X131772828Y-42382701D01*
X131772828Y-42382701D02*
X131772828Y-42182701D01*
X131772828Y-42182701D02*
X131701400Y-42049368D01*
X131201400Y-42649368D02*
X131272828Y-42516035D01*
X131272828Y-42516035D02*
X131272828Y-42249368D01*
X131272828Y-42249368D02*
X131201400Y-42116035D01*
X131201400Y-42116035D02*
X131129971Y-42049368D01*
X131129971Y-42049368D02*
X130987114Y-41982701D01*
X130987114Y-41982701D02*
X130558542Y-41982701D01*
X130558542Y-41982701D02*
X130415685Y-42049368D01*
X130415685Y-42049368D02*
X130344257Y-42116035D01*
X130344257Y-42116035D02*
X130272828Y-42249368D01*
X130272828Y-42249368D02*
X130272828Y-42516035D01*
X130272828Y-42516035D02*
X130344257Y-42649368D01*
X129772828Y-43182702D02*
X131272828Y-43516035D01*
X131272828Y-43516035D02*
X130201400Y-43782702D01*
X130201400Y-43782702D02*
X131272828Y-44049368D01*
X131272828Y-44049368D02*
X129772828Y-44382702D01*
X131272828Y-44916035D02*
X130272828Y-44916035D01*
X129772828Y-44916035D02*
X129844257Y-44849368D01*
X129844257Y-44849368D02*
X129915685Y-44916035D01*
X129915685Y-44916035D02*
X129844257Y-44982702D01*
X129844257Y-44982702D02*
X129772828Y-44916035D01*
X129772828Y-44916035D02*
X129915685Y-44916035D01*
X130272828Y-45582702D02*
X131772828Y-45582702D01*
X130344257Y-45582702D02*
X130272828Y-45716035D01*
X130272828Y-45716035D02*
X130272828Y-45982702D01*
X130272828Y-45982702D02*
X130344257Y-46116035D01*
X130344257Y-46116035D02*
X130415685Y-46182702D01*
X130415685Y-46182702D02*
X130558542Y-46249369D01*
X130558542Y-46249369D02*
X130987114Y-46249369D01*
X130987114Y-46249369D02*
X131129971Y-46182702D01*
X131129971Y-46182702D02*
X131201400Y-46116035D01*
X131201400Y-46116035D02*
X131272828Y-45982702D01*
X131272828Y-45982702D02*
X131272828Y-45716035D01*
X131272828Y-45716035D02*
X131201400Y-45582702D01*
X131201400Y-47382702D02*
X131272828Y-47249369D01*
X131272828Y-47249369D02*
X131272828Y-46982702D01*
X131272828Y-46982702D02*
X131201400Y-46849369D01*
X131201400Y-46849369D02*
X131058542Y-46782702D01*
X131058542Y-46782702D02*
X130487114Y-46782702D01*
X130487114Y-46782702D02*
X130344257Y-46849369D01*
X130344257Y-46849369D02*
X130272828Y-46982702D01*
X130272828Y-46982702D02*
X130272828Y-47249369D01*
X130272828Y-47249369D02*
X130344257Y-47382702D01*
X130344257Y-47382702D02*
X130487114Y-47449369D01*
X130487114Y-47449369D02*
X130629971Y-47449369D01*
X130629971Y-47449369D02*
X130772828Y-46782702D01*
X131272828Y-48049369D02*
X130272828Y-48049369D01*
X130558542Y-48049369D02*
X130415685Y-48116036D01*
X130415685Y-48116036D02*
X130344257Y-48182702D01*
X130344257Y-48182702D02*
X130272828Y-48316036D01*
X130272828Y-48316036D02*
X130272828Y-48449369D01*
D11*
X143107580Y-28043922D02*
X142007580Y-28043922D01*
X143107580Y-28434398D02*
X142007580Y-28434398D01*
X142007580Y-28434398D02*
X143107580Y-28902969D01*
X143107580Y-28902969D02*
X142007580Y-28902969D01*
X142374247Y-29644874D02*
X143107580Y-29644874D01*
X141955200Y-29449636D02*
X142740914Y-29254398D01*
X142740914Y-29254398D02*
X142740914Y-29762017D01*
X143474247Y-30269636D02*
X141902819Y-30269636D01*
X143107580Y-30855350D02*
X142007580Y-30855350D01*
X143107580Y-31245826D02*
X142007580Y-31245826D01*
X142007580Y-31245826D02*
X143107580Y-31714397D01*
X143107580Y-31714397D02*
X142007580Y-31714397D01*
X142007580Y-32026778D02*
X142007580Y-32534397D01*
X142007580Y-32534397D02*
X142426628Y-32261064D01*
X142426628Y-32261064D02*
X142426628Y-32378207D01*
X142426628Y-32378207D02*
X142479009Y-32456302D01*
X142479009Y-32456302D02*
X142531390Y-32495350D01*
X142531390Y-32495350D02*
X142636152Y-32534397D01*
X142636152Y-32534397D02*
X142898057Y-32534397D01*
X142898057Y-32534397D02*
X143002819Y-32495350D01*
X143002819Y-32495350D02*
X143055200Y-32456302D01*
X143055200Y-32456302D02*
X143107580Y-32378207D01*
X143107580Y-32378207D02*
X143107580Y-32143921D01*
X143107580Y-32143921D02*
X143055200Y-32065826D01*
X143055200Y-32065826D02*
X143002819Y-32026778D01*
X143474247Y-33081064D02*
X141902819Y-33081064D01*
X142007580Y-33822968D02*
X142007580Y-33979159D01*
X142007580Y-33979159D02*
X142059961Y-34057254D01*
X142059961Y-34057254D02*
X142164723Y-34135349D01*
X142164723Y-34135349D02*
X142374247Y-34174397D01*
X142374247Y-34174397D02*
X142740914Y-34174397D01*
X142740914Y-34174397D02*
X142950438Y-34135349D01*
X142950438Y-34135349D02*
X143055200Y-34057254D01*
X143055200Y-34057254D02*
X143107580Y-33979159D01*
X143107580Y-33979159D02*
X143107580Y-33822968D01*
X143107580Y-33822968D02*
X143055200Y-33744873D01*
X143055200Y-33744873D02*
X142950438Y-33666778D01*
X142950438Y-33666778D02*
X142740914Y-33627730D01*
X142740914Y-33627730D02*
X142374247Y-33627730D01*
X142374247Y-33627730D02*
X142164723Y-33666778D01*
X142164723Y-33666778D02*
X142059961Y-33744873D01*
X142059961Y-33744873D02*
X142007580Y-33822968D01*
X142112342Y-34486778D02*
X142059961Y-34525826D01*
X142059961Y-34525826D02*
X142007580Y-34603921D01*
X142007580Y-34603921D02*
X142007580Y-34799159D01*
X142007580Y-34799159D02*
X142059961Y-34877254D01*
X142059961Y-34877254D02*
X142112342Y-34916302D01*
X142112342Y-34916302D02*
X142217104Y-34955349D01*
X142217104Y-34955349D02*
X142321866Y-34955349D01*
X142321866Y-34955349D02*
X142479009Y-34916302D01*
X142479009Y-34916302D02*
X143107580Y-34447730D01*
X143107580Y-34447730D02*
X143107580Y-34955349D01*
X143474247Y-35502016D02*
X141902819Y-35502016D01*
X142059961Y-36517253D02*
X142007580Y-36439158D01*
X142007580Y-36439158D02*
X142007580Y-36322015D01*
X142007580Y-36322015D02*
X142059961Y-36204872D01*
X142059961Y-36204872D02*
X142164723Y-36126777D01*
X142164723Y-36126777D02*
X142269485Y-36087730D01*
X142269485Y-36087730D02*
X142479009Y-36048682D01*
X142479009Y-36048682D02*
X142636152Y-36048682D01*
X142636152Y-36048682D02*
X142845676Y-36087730D01*
X142845676Y-36087730D02*
X142950438Y-36126777D01*
X142950438Y-36126777D02*
X143055200Y-36204872D01*
X143055200Y-36204872D02*
X143107580Y-36322015D01*
X143107580Y-36322015D02*
X143107580Y-36400111D01*
X143107580Y-36400111D02*
X143055200Y-36517253D01*
X143055200Y-36517253D02*
X143002819Y-36556301D01*
X143002819Y-36556301D02*
X142636152Y-36556301D01*
X142636152Y-36556301D02*
X142636152Y-36400111D01*
X143107580Y-36907730D02*
X142007580Y-36907730D01*
X142007580Y-36907730D02*
X143107580Y-37376301D01*
X143107580Y-37376301D02*
X142007580Y-37376301D01*
X143107580Y-37766778D02*
X142007580Y-37766778D01*
X142007580Y-37766778D02*
X142007580Y-37962016D01*
X142007580Y-37962016D02*
X142059961Y-38079159D01*
X142059961Y-38079159D02*
X142164723Y-38157254D01*
X142164723Y-38157254D02*
X142269485Y-38196301D01*
X142269485Y-38196301D02*
X142479009Y-38235349D01*
X142479009Y-38235349D02*
X142636152Y-38235349D01*
X142636152Y-38235349D02*
X142845676Y-38196301D01*
X142845676Y-38196301D02*
X142950438Y-38157254D01*
X142950438Y-38157254D02*
X143055200Y-38079159D01*
X143055200Y-38079159D02*
X143107580Y-37962016D01*
X143107580Y-37962016D02*
X143107580Y-37766778D01*
D12*
%TO.C,J2*%
X144170000Y-27850000D02*
X146830000Y-27850000D01*
X144170000Y-35530000D02*
X144170000Y-27850000D01*
X144170000Y-35530000D02*
X146830000Y-35530000D01*
X144170000Y-36800000D02*
X144170000Y-38130000D01*
X144170000Y-38130000D02*
X145500000Y-38130000D01*
X146830000Y-35530000D02*
X146830000Y-27850000D01*
X168170000Y-27850000D02*
X170830000Y-27850000D01*
X168170000Y-35530000D02*
X168170000Y-27850000D01*
X168170000Y-35530000D02*
X170830000Y-35530000D01*
X168170000Y-36800000D02*
X168170000Y-38130000D01*
X168170000Y-38130000D02*
X169500000Y-38130000D01*
X170830000Y-35530000D02*
X170830000Y-27850000D01*
D13*
%TO.C,J1*%
X141930000Y-25150000D02*
X141930000Y-25150000D01*
X141830000Y-25150000D02*
X141830000Y-25150000D01*
D14*
X141405000Y-36730000D02*
X126165000Y-36730000D01*
X141405000Y-21650000D02*
X141405000Y-36730000D01*
X137730000Y-21650000D02*
X141405000Y-21650000D01*
X126165000Y-36730000D02*
X126165000Y-21650000D01*
X126165000Y-21650000D02*
X128730000Y-21650000D01*
D13*
X141830000Y-25150000D02*
G75*
G03*
X141930000Y-25150000I50000J0D01*
G01*
X141930000Y-25150000D02*
G75*
G03*
X141830000Y-25150000I-50000J0D01*
G01*
X165930000Y-25150000D02*
X165930000Y-25150000D01*
X165830000Y-25150000D02*
X165830000Y-25150000D01*
D14*
X165405000Y-36730000D02*
X150165000Y-36730000D01*
X165405000Y-21650000D02*
X165405000Y-36730000D01*
X161730000Y-21650000D02*
X165405000Y-21650000D01*
X150165000Y-36730000D02*
X150165000Y-21650000D01*
X150165000Y-21650000D02*
X152730000Y-21650000D01*
D13*
X165830000Y-25150000D02*
G75*
G03*
X165930000Y-25150000I50000J0D01*
G01*
X165930000Y-25150000D02*
G75*
G03*
X165830000Y-25150000I-50000J0D01*
G01*
%TD*%
M02*
