%TF.GenerationSoftware,KiCad,Pcbnew,7.0.10*%
%TF.CreationDate,2025-01-30T23:55:36+01:00*%
%TF.ProjectId,DoublePanel_MouseBites,446f7562-6c65-4506-916e-656c5f4d6f75,rev?*%
%TF.SameCoordinates,Original*%
%TF.FileFunction,Copper,L1,Top*%
%TF.FilePolarity,Positive*%
%FSLAX46Y46*%
G04 Gerber Fmt 4.6, Leading zero omitted, Abs format (unit mm)*
G04 Created by KiCad (PCBNEW 7.0.10) date 2025-01-30 23:55:36*
%MOMM*%
%LPD*%
G01*
G04 APERTURE LIST*
G04 Aperture macros list*
%AMRoundRect*
0 Rectangle with rounded corners*
0 $1 Rounding radius*
0 $2 $3 $4 $5 $6 $7 $8 $9 X,Y pos of 4 corners*
0 Add a 4 corners polygon primitive as box body*
4,1,4,$2,$3,$4,$5,$6,$7,$8,$9,$2,$3,0*
0 Add four circle primitives for the rounded corners*
1,1,$1+$1,$2,$3*
1,1,$1+$1,$4,$5*
1,1,$1+$1,$6,$7*
1,1,$1+$1,$8,$9*
0 Add four rect primitives between the rounded corners*
20,1,$1+$1,$2,$3,$4,$5,0*
20,1,$1+$1,$4,$5,$6,$7,0*
20,1,$1+$1,$6,$7,$8,$9,0*
20,1,$1+$1,$8,$9,$2,$3,0*%
%AMFreePoly0*
4,1,9,3.862500,-0.866500,0.737500,-0.866500,0.737500,-0.450000,-0.737500,-0.450000,-0.737500,0.450000,0.737500,0.450000,0.737500,0.866500,3.862500,0.866500,3.862500,-0.866500,3.862500,-0.866500,$1*%
G04 Aperture macros list end*
%TA.AperFunction,ComponentPad*%
%ADD10R,1.500000X1.500000*%
%TD*%
%TA.AperFunction,ComponentPad*%
%ADD11C,1.800000*%
%TD*%
%TA.AperFunction,SMDPad,CuDef*%
%ADD12RoundRect,0.250000X0.250000X-0.250000X0.250000X0.250000X-0.250000X0.250000X-0.250000X-0.250000X0*%
%TD*%
%TA.AperFunction,SMDPad,CuDef*%
%ADD13RoundRect,0.225000X-0.225000X-0.250000X0.225000X-0.250000X0.225000X0.250000X-0.225000X0.250000X0*%
%TD*%
%TA.AperFunction,ComponentPad*%
%ADD14C,4.700000*%
%TD*%
%TA.AperFunction,SMDPad,CuDef*%
%ADD15RoundRect,0.150000X-0.512500X-0.150000X0.512500X-0.150000X0.512500X0.150000X-0.512500X0.150000X0*%
%TD*%
%TA.AperFunction,ComponentPad*%
%ADD16C,2.775000*%
%TD*%
%TA.AperFunction,SMDPad,CuDef*%
%ADD17RoundRect,0.218750X-0.218750X-0.381250X0.218750X-0.381250X0.218750X0.381250X-0.218750X0.381250X0*%
%TD*%
%TA.AperFunction,SMDPad,CuDef*%
%ADD18R,1.300000X0.900000*%
%TD*%
%TA.AperFunction,SMDPad,CuDef*%
%ADD19FreePoly0,0.000000*%
%TD*%
%TA.AperFunction,ComponentPad*%
%ADD20R,1.700000X1.700000*%
%TD*%
%TA.AperFunction,ComponentPad*%
%ADD21O,1.700000X1.700000*%
%TD*%
%TA.AperFunction,ComponentPad*%
%ADD22R,1.446000X1.446000*%
%TD*%
%TA.AperFunction,ComponentPad*%
%ADD23C,1.446000*%
%TD*%
%TA.AperFunction,ViaPad*%
%ADD24C,0.600000*%
%TD*%
%TA.AperFunction,ViaPad*%
%ADD25C,0.800000*%
%TD*%
%TA.AperFunction,Conductor*%
%ADD26C,0.700000*%
%TD*%
%TA.AperFunction,Conductor*%
%ADD27C,0.500000*%
%TD*%
G04 APERTURE END LIST*
D10*
%TO.P,D3,1,DO*%
%TO.N,Board_0-unconnected-(D3-DO-Pad1)*%
X145500000Y-47238500D03*
D11*
%TO.P,D3,2,GND*%
%TO.N,Board_0-GND1*%
X145500000Y-45079500D03*
%TO.P,D3,3,VDD*%
%TO.N,Board_0-+5V*%
X145500000Y-42920500D03*
%TO.P,D3,4,DI*%
%TO.N,Board_0-OUT_1*%
X145500000Y-40761500D03*
%TD*%
D10*
%TO.P,D3,1,DO*%
%TO.N,Board_1-unconnected-(D3-DO-Pad1)*%
X169500000Y-47238500D03*
D11*
%TO.P,D3,2,GND*%
%TO.N,Board_1-GND1*%
X169500000Y-45079500D03*
%TO.P,D3,3,VDD*%
%TO.N,Board_1-+5V*%
X169500000Y-42920500D03*
%TO.P,D3,4,DI*%
%TO.N,Board_1-OUT_1*%
X169500000Y-40761500D03*
%TD*%
D10*
%TO.P,D1,1,DO*%
%TO.N,Board_0-unconnected-(D1-DO-Pad1)*%
X127500000Y-47238500D03*
D11*
%TO.P,D1,2,GND*%
%TO.N,Board_0-GND1*%
X127500000Y-45079500D03*
%TO.P,D1,3,VDD*%
%TO.N,Board_0-+5V*%
X127500000Y-42920500D03*
%TO.P,D1,4,DI*%
%TO.N,Board_0-OUT_1*%
X127500000Y-40761500D03*
%TD*%
D10*
%TO.P,D1,1,DO*%
%TO.N,Board_1-unconnected-(D1-DO-Pad1)*%
X151500000Y-47238500D03*
D11*
%TO.P,D1,2,GND*%
%TO.N,Board_1-GND1*%
X151500000Y-45079500D03*
%TO.P,D1,3,VDD*%
%TO.N,Board_1-+5V*%
X151500000Y-42920500D03*
%TO.P,D1,4,DI*%
%TO.N,Board_1-OUT_1*%
X151500000Y-40761500D03*
%TD*%
D12*
%TO.P,D2,1,K*%
%TO.N,Board_1-Net-(D2-K)*%
X150470000Y-24750000D03*
%TO.P,D2,2,A*%
%TO.N,Board_1-V_IN*%
X150470000Y-22250000D03*
%TD*%
D13*
%TO.P,C2,1*%
%TO.N,Board_1-+5V*%
X155725000Y-35000000D03*
%TO.P,C2,2*%
%TO.N,Board_1-GND1*%
X157275000Y-35000000D03*
%TD*%
D14*
%TO.P,H1,1*%
%TO.N,N/C*%
X169500000Y-23000000D03*
%TD*%
D15*
%TO.P,U2,1,NC*%
%TO.N,Board_1-unconnected-(U2-NC-Pad1)*%
X151362500Y-36550000D03*
%TO.P,U2,2,A*%
%TO.N,Board_1-OUT1*%
X151362500Y-37500000D03*
%TO.P,U2,3,GND*%
%TO.N,Board_1-GND1*%
X151362500Y-38450000D03*
%TO.P,U2,4,Y*%
%TO.N,Board_1-OUT_1*%
X153637500Y-38450000D03*
%TO.P,U2,5,VCC*%
%TO.N,Board_1-+5V*%
X153637500Y-36550000D03*
%TD*%
D14*
%TO.P,H2,1*%
%TO.N,N/C*%
X127500000Y-51000000D03*
%TD*%
D13*
%TO.P,C1,1*%
%TO.N,Board_1-Net-(U1-VIN)*%
X155725000Y-28438000D03*
%TO.P,C1,2*%
%TO.N,Board_1-GND1*%
X157275000Y-28438000D03*
%TD*%
D14*
%TO.P,H3,1*%
%TO.N,N/C*%
X169500000Y-51000000D03*
%TD*%
%TO.P,H2,1*%
%TO.N,N/C*%
X151500000Y-51000000D03*
%TD*%
%TO.P,H3,1*%
%TO.N,N/C*%
X145500000Y-51000000D03*
%TD*%
D13*
%TO.P,C3,1*%
%TO.N,Board_0-Net-(D2-K)*%
X126498000Y-26787000D03*
%TO.P,C3,2*%
%TO.N,Board_0-GND1*%
X128048000Y-26787000D03*
%TD*%
D16*
%TO.P,S1,1,NO*%
%TO.N,Board_0-IN1*%
X136500000Y-48700000D03*
%TO.P,S1,2,COM*%
%TO.N,Board_0-GND1*%
X136500000Y-44000000D03*
%TO.P,S1,3,NO*%
%TO.N,Board_0-IN2*%
X136500000Y-39300000D03*
%TD*%
D17*
%TO.P,L1,1,1*%
%TO.N,Board_1-Net-(D2-K)*%
X151437500Y-28438000D03*
%TO.P,L1,2,2*%
%TO.N,Board_1-Net-(U1-VIN)*%
X153562500Y-28438000D03*
%TD*%
D13*
%TO.P,C1,1*%
%TO.N,Board_0-Net-(U1-VIN)*%
X131725000Y-28438000D03*
%TO.P,C1,2*%
%TO.N,Board_0-GND1*%
X133275000Y-28438000D03*
%TD*%
D12*
%TO.P,D2,1,K*%
%TO.N,Board_0-Net-(D2-K)*%
X126470000Y-24750000D03*
%TO.P,D2,2,A*%
%TO.N,Board_0-V_IN*%
X126470000Y-22250000D03*
%TD*%
D18*
%TO.P,U1,1,VIN*%
%TO.N,Board_1-Net-(U1-VIN)*%
X155800000Y-30239000D03*
D19*
%TO.P,U1,2,GND*%
%TO.N,Board_1-GND1*%
X155887500Y-31739000D03*
D18*
%TO.P,U1,3,VOUT*%
%TO.N,Board_1-+5V*%
X155800000Y-33239000D03*
%TD*%
D13*
%TO.P,C2,1*%
%TO.N,Board_0-+5V*%
X131725000Y-35000000D03*
%TO.P,C2,2*%
%TO.N,Board_0-GND1*%
X133275000Y-35000000D03*
%TD*%
%TO.P,C3,1*%
%TO.N,Board_1-Net-(D2-K)*%
X150498000Y-26787000D03*
%TO.P,C3,2*%
%TO.N,Board_1-GND1*%
X152048000Y-26787000D03*
%TD*%
D14*
%TO.P,H1,1*%
%TO.N,N/C*%
X145500000Y-23000000D03*
%TD*%
D16*
%TO.P,S1,1,NO*%
%TO.N,Board_1-IN1*%
X160500000Y-48700000D03*
%TO.P,S1,2,COM*%
%TO.N,Board_1-GND1*%
X160500000Y-44000000D03*
%TO.P,S1,3,NO*%
%TO.N,Board_1-IN2*%
X160500000Y-39300000D03*
%TD*%
D15*
%TO.P,U2,1,NC*%
%TO.N,Board_0-unconnected-(U2-NC-Pad1)*%
X127362500Y-36550000D03*
%TO.P,U2,2,A*%
%TO.N,Board_0-OUT1*%
X127362500Y-37500000D03*
%TO.P,U2,3,GND*%
%TO.N,Board_0-GND1*%
X127362500Y-38450000D03*
%TO.P,U2,4,Y*%
%TO.N,Board_0-OUT_1*%
X129637500Y-38450000D03*
%TO.P,U2,5,VCC*%
%TO.N,Board_0-+5V*%
X129637500Y-36550000D03*
%TD*%
D17*
%TO.P,L1,1,1*%
%TO.N,Board_0-Net-(D2-K)*%
X127437500Y-28438000D03*
%TO.P,L1,2,2*%
%TO.N,Board_0-Net-(U1-VIN)*%
X129562500Y-28438000D03*
%TD*%
D18*
%TO.P,U1,1,VIN*%
%TO.N,Board_0-Net-(U1-VIN)*%
X131800000Y-30239000D03*
D19*
%TO.P,U1,2,GND*%
%TO.N,Board_0-GND1*%
X131887500Y-31739000D03*
D18*
%TO.P,U1,3,VOUT*%
%TO.N,Board_0-+5V*%
X131800000Y-33239000D03*
%TD*%
D20*
%TO.P,J2,1,Pin_1*%
%TO.N,Board_0-GND1*%
X145500000Y-36800000D03*
D21*
%TO.P,J2,2,Pin_2*%
%TO.N,Board_0-OUT2*%
X145500000Y-34260000D03*
%TO.P,J2,3,Pin_3*%
%TO.N,Board_0-IN3*%
X145500000Y-31720000D03*
%TO.P,J2,4,Pin_4*%
%TO.N,Board_0-IN4*%
X145500000Y-29180000D03*
%TD*%
D20*
%TO.P,J2,1,Pin_1*%
%TO.N,Board_1-GND1*%
X169500000Y-36800000D03*
D21*
%TO.P,J2,2,Pin_2*%
%TO.N,Board_1-OUT2*%
X169500000Y-34260000D03*
%TO.P,J2,3,Pin_3*%
%TO.N,Board_1-IN3*%
X169500000Y-31720000D03*
%TO.P,J2,4,Pin_4*%
%TO.N,Board_1-IN4*%
X169500000Y-29180000D03*
%TD*%
D22*
%TO.P,J1,1*%
%TO.N,Board_0-GND1*%
X138230000Y-25150000D03*
D23*
%TO.P,J1,2*%
%TO.N,Board_0-OUT1*%
X136960000Y-22610000D03*
%TO.P,J1,3*%
%TO.N,Board_0-OUT2*%
X135690000Y-25150000D03*
%TO.P,J1,4*%
%TO.N,Board_0-IN1*%
X134420000Y-22610000D03*
%TO.P,J1,5*%
%TO.N,Board_0-IN2*%
X133150000Y-25150000D03*
%TO.P,J1,6*%
%TO.N,Board_0-IN3*%
X131880000Y-22610000D03*
%TO.P,J1,7*%
%TO.N,Board_0-IN4*%
X130610000Y-25150000D03*
%TO.P,J1,8*%
%TO.N,Board_0-V_IN*%
X129340000Y-22610000D03*
%TD*%
D22*
%TO.P,J1,1*%
%TO.N,Board_1-GND1*%
X162230000Y-25150000D03*
D23*
%TO.P,J1,2*%
%TO.N,Board_1-OUT1*%
X160960000Y-22610000D03*
%TO.P,J1,3*%
%TO.N,Board_1-OUT2*%
X159690000Y-25150000D03*
%TO.P,J1,4*%
%TO.N,Board_1-IN1*%
X158420000Y-22610000D03*
%TO.P,J1,5*%
%TO.N,Board_1-IN2*%
X157150000Y-25150000D03*
%TO.P,J1,6*%
%TO.N,Board_1-IN3*%
X155880000Y-22610000D03*
%TO.P,J1,7*%
%TO.N,Board_1-IN4*%
X154610000Y-25150000D03*
%TO.P,J1,8*%
%TO.N,Board_1-V_IN*%
X153340000Y-22610000D03*
%TD*%
D24*
%TO.N,Board_0-+5V*%
X140100000Y-46218000D03*
X132988000Y-46218000D03*
X131585600Y-36500000D03*
X131585600Y-39500000D03*
%TO.N,Board_0-GND1*%
X125500000Y-47000000D03*
X139500000Y-50000000D03*
X147500000Y-47000000D03*
X134500000Y-33500000D03*
X143500000Y-36750000D03*
X142500000Y-26500000D03*
X138750000Y-36000000D03*
X147500000Y-41000000D03*
X142500000Y-21000000D03*
X138576000Y-42662000D03*
X147500000Y-36750000D03*
X128035000Y-25898000D03*
X134500000Y-34500000D03*
X137750000Y-36000000D03*
X125500000Y-30000000D03*
X138200000Y-26800000D03*
X134512000Y-45202000D03*
X127750000Y-21000000D03*
X139800000Y-25135000D03*
X142500000Y-47000000D03*
X125500000Y-44000000D03*
X142500000Y-50000000D03*
X147500000Y-44000000D03*
X133500000Y-50000000D03*
X139800000Y-26800000D03*
X138576000Y-45202000D03*
X134512000Y-42662000D03*
X134500000Y-30500000D03*
X133500000Y-30500000D03*
X125500000Y-39000000D03*
X147500000Y-30000000D03*
X147500000Y-33500000D03*
X128924000Y-26787000D03*
X125500000Y-37500000D03*
X147500000Y-26000000D03*
X133500000Y-33500000D03*
X130500000Y-50000000D03*
X142500000Y-35500000D03*
X125500000Y-41000000D03*
X125500000Y-33750000D03*
X133500000Y-29500000D03*
X135500000Y-33500000D03*
D25*
%TO.N,Board_0-IN3*%
X144000000Y-27500000D03*
%TO.N,Board_0-IN4*%
X136450000Y-26398959D03*
D24*
%TO.N,Board_0-OUT1*%
X141500000Y-28000000D03*
X135528000Y-34534000D03*
%TO.N,Board_0-OUT_1*%
X137000000Y-41646000D03*
X141000000Y-41646000D03*
%TO.N,Board_1-+5V*%
X155585600Y-39500000D03*
X156988000Y-46218000D03*
X164100000Y-46218000D03*
X155585600Y-36500000D03*
%TO.N,Board_1-GND1*%
X171500000Y-44000000D03*
X158512000Y-45202000D03*
X161750000Y-36000000D03*
X149500000Y-30000000D03*
X166500000Y-35500000D03*
X158500000Y-33500000D03*
X163800000Y-25135000D03*
X162576000Y-45202000D03*
X162576000Y-42662000D03*
X157500000Y-50000000D03*
X162200000Y-26800000D03*
X166500000Y-50000000D03*
X163800000Y-26800000D03*
X171500000Y-33500000D03*
X152035000Y-25898000D03*
X158512000Y-42662000D03*
X149500000Y-41000000D03*
X149500000Y-33750000D03*
X151750000Y-21000000D03*
X166500000Y-21000000D03*
X149500000Y-39000000D03*
X152924000Y-26787000D03*
X157500000Y-33500000D03*
X167500000Y-36750000D03*
X154500000Y-50000000D03*
X149500000Y-44000000D03*
X159500000Y-33500000D03*
X149500000Y-37500000D03*
X158500000Y-30500000D03*
X158500000Y-34500000D03*
X149500000Y-47000000D03*
X166500000Y-26500000D03*
X157500000Y-30500000D03*
X166500000Y-47000000D03*
X171500000Y-41000000D03*
X157500000Y-29500000D03*
X171500000Y-36750000D03*
X171500000Y-30000000D03*
X171500000Y-47000000D03*
X162750000Y-36000000D03*
X163500000Y-50000000D03*
X171500000Y-26000000D03*
D25*
%TO.N,Board_1-IN3*%
X168000000Y-27500000D03*
%TO.N,Board_1-IN4*%
X160450000Y-26398959D03*
D24*
%TO.N,Board_1-OUT1*%
X165500000Y-28000000D03*
X159528000Y-34534000D03*
%TO.N,Board_1-OUT_1*%
X165000000Y-41646000D03*
X161000000Y-41646000D03*
%TD*%
D26*
%TO.N,Board_0-+5V*%
X131800000Y-34925000D02*
X131725000Y-35000000D01*
X131725000Y-35000000D02*
X131725000Y-36360600D01*
X131506100Y-42920500D02*
X127500000Y-42920500D01*
X131585600Y-39500000D02*
X131585600Y-44815600D01*
X131585600Y-44815600D02*
X132988000Y-46218000D01*
X131725000Y-36360600D02*
X131535600Y-36550000D01*
X143397500Y-42920500D02*
X145055500Y-42920500D01*
X140100000Y-46218000D02*
X143397500Y-42920500D01*
X145055500Y-42920500D02*
X145500000Y-43365000D01*
X131535600Y-36550000D02*
X129637500Y-36550000D01*
X131800000Y-33239000D02*
X131800000Y-34925000D01*
X131585600Y-43000000D02*
X131506100Y-42920500D01*
X131585600Y-36500000D02*
X129687500Y-36500000D01*
X129687500Y-36500000D02*
X129637500Y-36550000D01*
%TO.N,Board_0-GND1*%
X132582000Y-31739000D02*
X133275000Y-31046000D01*
X133275000Y-31046000D02*
X133275000Y-28437000D01*
X131887500Y-31739000D02*
X132582000Y-31739000D01*
D27*
%TO.N,Board_0-IN1*%
X140000000Y-45048000D02*
X136848000Y-48200000D01*
X137375000Y-29625000D02*
X137375000Y-32875000D01*
X140000000Y-35500000D02*
X140000000Y-45048000D01*
X137375000Y-32875000D02*
X140000000Y-35500000D01*
X136848000Y-48200000D02*
X136500000Y-48200000D01*
X134323000Y-22798000D02*
X134323000Y-26561800D01*
X134135000Y-22610000D02*
X134323000Y-22798000D01*
X137250000Y-29488800D02*
X137250000Y-29500000D01*
X134323000Y-26561800D02*
X137250000Y-29488800D01*
X137250000Y-29500000D02*
X137375000Y-29625000D01*
%TO.N,Board_0-IN2*%
X133074000Y-26505950D02*
X136500000Y-29931950D01*
X132865000Y-25150000D02*
X133074000Y-25359000D01*
X133074000Y-25359000D02*
X133074000Y-26505950D01*
X136500000Y-29931950D02*
X136500000Y-38800000D01*
%TO.N,Board_0-IN3*%
X144000000Y-27500000D02*
X144000000Y-26200000D01*
X144000000Y-26200000D02*
X138800000Y-21000000D01*
X138800000Y-21000000D02*
X133490000Y-21000000D01*
X133490000Y-21000000D02*
X131880000Y-22610000D01*
%TO.N,Board_0-IN4*%
X145480000Y-29200000D02*
X145500000Y-29180000D01*
X140889949Y-28500000D02*
X141589949Y-29200000D01*
X136450000Y-26650000D02*
X138300000Y-28500000D01*
X136450000Y-26398959D02*
X136450000Y-26650000D01*
X141589949Y-29200000D02*
X145480000Y-29200000D01*
X138300000Y-28500000D02*
X140889949Y-28500000D01*
D26*
%TO.N,Board_0-Net-(D2-K)*%
X126470000Y-25150000D02*
X126470000Y-27470500D01*
X126470000Y-27470500D02*
X127437500Y-28438000D01*
%TO.N,Board_0-Net-(U1-VIN)*%
X129563500Y-28437000D02*
X131725000Y-28437000D01*
X131750000Y-28462000D02*
X131750000Y-30189000D01*
X129563500Y-28057000D02*
X129563500Y-28437000D01*
X131725000Y-28437000D02*
X131750000Y-28462000D01*
X131750000Y-30189000D02*
X131800000Y-30239000D01*
D27*
%TO.N,Board_0-OUT1*%
X139153800Y-22610000D02*
X136960000Y-22610000D01*
X141051167Y-27551167D02*
X141051167Y-24507367D01*
X132774000Y-37500000D02*
X127362500Y-37500000D01*
X141051167Y-24507367D02*
X139153800Y-22610000D01*
X141500000Y-28000000D02*
X141051167Y-27551167D01*
X135528000Y-34534000D02*
X135528000Y-34746000D01*
X135528000Y-34746000D02*
X132774000Y-37500000D01*
%TO.N,Board_0-OUT2*%
X138000000Y-29200000D02*
X135400000Y-26600000D01*
X140600000Y-29200000D02*
X138000000Y-29200000D01*
X145500000Y-34260000D02*
X144500000Y-34260000D01*
X135400000Y-25440000D02*
X135690000Y-25150000D01*
X135400000Y-26600000D02*
X135400000Y-25440000D01*
X142000000Y-31760000D02*
X142000000Y-30600000D01*
X144500000Y-34260000D02*
X142000000Y-31760000D01*
X142000000Y-30600000D02*
X140600000Y-29200000D01*
%TO.N,Board_0-OUT_1*%
X129637500Y-38450000D02*
X129500000Y-38587500D01*
X135274000Y-41646000D02*
X132128000Y-38500000D01*
X137000000Y-41646000D02*
X135274000Y-41646000D01*
X129500000Y-38587500D02*
X129500000Y-40761500D01*
X132128000Y-38500000D02*
X129687500Y-38500000D01*
X129687500Y-38500000D02*
X129637500Y-38450000D01*
X144615500Y-41646000D02*
X145500000Y-40761500D01*
X129500000Y-40761500D02*
X127500000Y-40761500D01*
X141000000Y-41646000D02*
X144615500Y-41646000D01*
D26*
%TO.N,Board_0-V_IN*%
X126470000Y-22250000D02*
X126830000Y-22610000D01*
X126830000Y-22610000D02*
X129055000Y-22610000D01*
%TO.N,Board_1-+5V*%
X155585600Y-43000000D02*
X155506100Y-42920500D01*
X155506100Y-42920500D02*
X151500000Y-42920500D01*
X155585600Y-36500000D02*
X153687500Y-36500000D01*
X155585600Y-39500000D02*
X155585600Y-44815600D01*
X169055500Y-42920500D02*
X169500000Y-43365000D01*
X155725000Y-36360600D02*
X155535600Y-36550000D01*
X153687500Y-36500000D02*
X153637500Y-36550000D01*
X155585600Y-44815600D02*
X156988000Y-46218000D01*
X155725000Y-35000000D02*
X155725000Y-36360600D01*
X167397500Y-42920500D02*
X169055500Y-42920500D01*
X155800000Y-34925000D02*
X155725000Y-35000000D01*
X164100000Y-46218000D02*
X167397500Y-42920500D01*
X155535600Y-36550000D02*
X153637500Y-36550000D01*
X155800000Y-33239000D02*
X155800000Y-34925000D01*
%TO.N,Board_1-GND1*%
X157275000Y-31046000D02*
X157275000Y-28437000D01*
X156582000Y-31739000D02*
X157275000Y-31046000D01*
X155887500Y-31739000D02*
X156582000Y-31739000D01*
D27*
%TO.N,Board_1-IN1*%
X164000000Y-45048000D02*
X160848000Y-48200000D01*
X160848000Y-48200000D02*
X160500000Y-48200000D01*
X161375000Y-32875000D02*
X164000000Y-35500000D01*
X158135000Y-22610000D02*
X158323000Y-22798000D01*
X158323000Y-22798000D02*
X158323000Y-26561800D01*
X164000000Y-35500000D02*
X164000000Y-45048000D01*
X161250000Y-29488800D02*
X161250000Y-29500000D01*
X161375000Y-29625000D02*
X161375000Y-32875000D01*
X161250000Y-29500000D02*
X161375000Y-29625000D01*
X158323000Y-26561800D02*
X161250000Y-29488800D01*
%TO.N,Board_1-IN2*%
X157074000Y-26505950D02*
X160500000Y-29931950D01*
X160500000Y-29931950D02*
X160500000Y-38800000D01*
X156865000Y-25150000D02*
X157074000Y-25359000D01*
X157074000Y-25359000D02*
X157074000Y-26505950D01*
%TO.N,Board_1-IN3*%
X168000000Y-26200000D02*
X162800000Y-21000000D01*
X162800000Y-21000000D02*
X157490000Y-21000000D01*
X157490000Y-21000000D02*
X155880000Y-22610000D01*
X168000000Y-27500000D02*
X168000000Y-26200000D01*
%TO.N,Board_1-IN4*%
X162300000Y-28500000D02*
X164889949Y-28500000D01*
X165589949Y-29200000D02*
X169480000Y-29200000D01*
X160450000Y-26650000D02*
X162300000Y-28500000D01*
X164889949Y-28500000D02*
X165589949Y-29200000D01*
X160450000Y-26398959D02*
X160450000Y-26650000D01*
X169480000Y-29200000D02*
X169500000Y-29180000D01*
D26*
%TO.N,Board_1-Net-(D2-K)*%
X150470000Y-27470500D02*
X151437500Y-28438000D01*
X150470000Y-25150000D02*
X150470000Y-27470500D01*
%TO.N,Board_1-Net-(U1-VIN)*%
X153563500Y-28437000D02*
X155725000Y-28437000D01*
X155750000Y-30189000D02*
X155800000Y-30239000D01*
X155750000Y-28462000D02*
X155750000Y-30189000D01*
X153563500Y-28057000D02*
X153563500Y-28437000D01*
X155725000Y-28437000D02*
X155750000Y-28462000D01*
D27*
%TO.N,Board_1-OUT1*%
X165051167Y-24507367D02*
X163153800Y-22610000D01*
X159528000Y-34534000D02*
X159528000Y-34746000D01*
X165051167Y-27551167D02*
X165051167Y-24507367D01*
X156774000Y-37500000D02*
X151362500Y-37500000D01*
X165500000Y-28000000D02*
X165051167Y-27551167D01*
X163153800Y-22610000D02*
X160960000Y-22610000D01*
X159528000Y-34746000D02*
X156774000Y-37500000D01*
%TO.N,Board_1-OUT2*%
X166000000Y-30600000D02*
X164600000Y-29200000D01*
X166000000Y-31760000D02*
X166000000Y-30600000D01*
X164600000Y-29200000D02*
X162000000Y-29200000D01*
X168500000Y-34260000D02*
X166000000Y-31760000D01*
X169500000Y-34260000D02*
X168500000Y-34260000D01*
X162000000Y-29200000D02*
X159400000Y-26600000D01*
X159400000Y-25440000D02*
X159690000Y-25150000D01*
X159400000Y-26600000D02*
X159400000Y-25440000D01*
%TO.N,Board_1-OUT_1*%
X156128000Y-38500000D02*
X153687500Y-38500000D01*
X153500000Y-38587500D02*
X153500000Y-40761500D01*
X168615500Y-41646000D02*
X169500000Y-40761500D01*
X153500000Y-40761500D02*
X151500000Y-40761500D01*
X165000000Y-41646000D02*
X168615500Y-41646000D01*
X159274000Y-41646000D02*
X156128000Y-38500000D01*
X161000000Y-41646000D02*
X159274000Y-41646000D01*
X153687500Y-38500000D02*
X153637500Y-38450000D01*
X153637500Y-38450000D02*
X153500000Y-38587500D01*
D26*
%TO.N,Board_1-V_IN*%
X150470000Y-22250000D02*
X150830000Y-22610000D01*
X150830000Y-22610000D02*
X153055000Y-22610000D01*
%TD*%
%TA.AperFunction,Conductor*%
%TO.N,Board_1-GND1*%
G36*
X156695810Y-20520185D02*
G01*
X156741565Y-20572989D01*
X156751509Y-20642147D01*
X156722484Y-20705703D01*
X156716452Y-20712181D01*
X156074272Y-21354358D01*
X156012949Y-21387843D01*
X155975785Y-21390205D01*
X155880003Y-21381826D01*
X155879999Y-21381826D01*
X155666734Y-21400484D01*
X155666724Y-21400486D01*
X155459947Y-21455891D01*
X155459938Y-21455895D01*
X155265912Y-21546370D01*
X155265908Y-21546372D01*
X155090549Y-21669160D01*
X155090543Y-21669165D01*
X154939165Y-21820543D01*
X154939160Y-21820549D01*
X154816372Y-21995908D01*
X154816370Y-21995912D01*
X154723606Y-22194847D01*
X154722143Y-22194165D01*
X154685087Y-22244485D01*
X154619816Y-22269415D01*
X154551429Y-22255099D01*
X154501637Y-22206083D01*
X154496486Y-22194803D01*
X154496394Y-22194847D01*
X154416456Y-22023419D01*
X154403630Y-21995913D01*
X154403628Y-21995910D01*
X154403627Y-21995908D01*
X154280839Y-21820549D01*
X154280834Y-21820543D01*
X154129456Y-21669165D01*
X154129450Y-21669160D01*
X153954091Y-21546372D01*
X153954087Y-21546370D01*
X153760060Y-21455894D01*
X153760056Y-21455893D01*
X153760052Y-21455891D01*
X153553275Y-21400486D01*
X153553265Y-21400484D01*
X153340001Y-21381826D01*
X153339999Y-21381826D01*
X153126734Y-21400484D01*
X153126724Y-21400486D01*
X152919947Y-21455891D01*
X152919938Y-21455895D01*
X152725912Y-21546370D01*
X152725908Y-21546372D01*
X152550549Y-21669160D01*
X152550543Y-21669165D01*
X152496528Y-21723181D01*
X152435205Y-21756666D01*
X152408847Y-21759500D01*
X151520478Y-21759500D01*
X151453439Y-21739815D01*
X151407684Y-21687011D01*
X151407213Y-21685813D01*
X151404815Y-21680670D01*
X151404814Y-21680666D01*
X151312712Y-21531344D01*
X151188656Y-21407288D01*
X151039334Y-21315186D01*
X150872797Y-21260001D01*
X150872795Y-21260000D01*
X150770010Y-21249500D01*
X150169998Y-21249500D01*
X150169980Y-21249501D01*
X150067203Y-21260000D01*
X150067200Y-21260001D01*
X149900668Y-21315185D01*
X149900663Y-21315187D01*
X149751342Y-21407289D01*
X149627289Y-21531342D01*
X149535187Y-21680663D01*
X149535186Y-21680666D01*
X149480001Y-21847203D01*
X149480001Y-21847204D01*
X149480000Y-21847204D01*
X149469500Y-21949983D01*
X149469500Y-22550001D01*
X149469501Y-22550019D01*
X149480000Y-22652796D01*
X149480001Y-22652799D01*
X149535185Y-22819331D01*
X149535186Y-22819334D01*
X149627288Y-22968656D01*
X149751344Y-23092712D01*
X149900666Y-23184814D01*
X150067203Y-23239999D01*
X150169991Y-23250500D01*
X150225400Y-23250499D01*
X150292439Y-23270182D01*
X150300440Y-23275781D01*
X150304805Y-23279099D01*
X150307412Y-23281137D01*
X150358484Y-23322191D01*
X150369247Y-23330843D01*
X150370211Y-23331459D01*
X150387969Y-23342473D01*
X150388931Y-23343051D01*
X150388933Y-23343052D01*
X150388936Y-23343054D01*
X150460913Y-23376354D01*
X150463912Y-23377791D01*
X150534983Y-23413039D01*
X150536019Y-23413419D01*
X150555853Y-23420402D01*
X150556830Y-23420730D01*
X150556833Y-23420732D01*
X150556835Y-23420732D01*
X150556837Y-23420733D01*
X150634253Y-23437773D01*
X150637514Y-23438536D01*
X150714506Y-23457684D01*
X150714508Y-23457684D01*
X150714512Y-23457685D01*
X150715604Y-23457833D01*
X150736375Y-23460377D01*
X150737502Y-23460499D01*
X150737503Y-23460500D01*
X150816773Y-23460500D01*
X150820130Y-23460545D01*
X150899432Y-23462693D01*
X150899432Y-23462692D01*
X150899435Y-23462693D01*
X150900479Y-23462608D01*
X150922648Y-23460500D01*
X152408847Y-23460500D01*
X152475886Y-23480185D01*
X152496528Y-23496819D01*
X152550543Y-23550834D01*
X152550549Y-23550839D01*
X152725908Y-23673627D01*
X152725910Y-23673628D01*
X152725913Y-23673630D01*
X152919940Y-23764106D01*
X153126730Y-23819515D01*
X153297346Y-23834442D01*
X153339999Y-23838174D01*
X153340000Y-23838174D01*
X153340001Y-23838174D01*
X153376884Y-23834947D01*
X153553270Y-23819515D01*
X153760060Y-23764106D01*
X153954087Y-23673630D01*
X154129455Y-23550836D01*
X154280836Y-23399455D01*
X154403630Y-23224087D01*
X154494106Y-23030060D01*
X154494106Y-23030059D01*
X154496394Y-23025153D01*
X154497858Y-23025835D01*
X154534904Y-22975521D01*
X154600172Y-22950585D01*
X154668561Y-22964894D01*
X154718357Y-23013906D01*
X154723513Y-23025196D01*
X154723606Y-23025153D01*
X154816370Y-23224087D01*
X154816372Y-23224091D01*
X154939160Y-23399450D01*
X154939165Y-23399456D01*
X155090543Y-23550834D01*
X155090549Y-23550839D01*
X155265908Y-23673627D01*
X155265910Y-23673628D01*
X155265913Y-23673630D01*
X155459940Y-23764106D01*
X155666730Y-23819515D01*
X155837346Y-23834442D01*
X155879999Y-23838174D01*
X155880000Y-23838174D01*
X155880001Y-23838174D01*
X155916884Y-23834947D01*
X156093270Y-23819515D01*
X156300060Y-23764106D01*
X156494087Y-23673630D01*
X156669455Y-23550836D01*
X156820836Y-23399455D01*
X156943630Y-23224087D01*
X157034106Y-23030060D01*
X157034106Y-23030059D01*
X157036394Y-23025153D01*
X157037858Y-23025835D01*
X157074904Y-22975521D01*
X157140172Y-22950585D01*
X157208561Y-22964894D01*
X157258357Y-23013906D01*
X157263513Y-23025196D01*
X157263606Y-23025153D01*
X157356370Y-23224087D01*
X157356372Y-23224091D01*
X157479160Y-23399450D01*
X157479165Y-23399456D01*
X157536181Y-23456472D01*
X157569666Y-23517795D01*
X157572500Y-23544153D01*
X157572500Y-23834947D01*
X157552815Y-23901986D01*
X157500011Y-23947741D01*
X157430853Y-23957685D01*
X157416409Y-23954722D01*
X157363281Y-23940487D01*
X157363265Y-23940484D01*
X157150001Y-23921826D01*
X157149999Y-23921826D01*
X156936734Y-23940484D01*
X156936724Y-23940486D01*
X156729947Y-23995891D01*
X156729938Y-23995895D01*
X156535912Y-24086370D01*
X156535908Y-24086372D01*
X156360549Y-24209160D01*
X156360543Y-24209165D01*
X156209165Y-24360543D01*
X156209160Y-24360549D01*
X156086372Y-24535908D01*
X156086370Y-24535912D01*
X156086370Y-24535913D01*
X156000545Y-24719967D01*
X155993606Y-24734847D01*
X155992143Y-24734165D01*
X155955087Y-24784485D01*
X155889816Y-24809415D01*
X155821429Y-24795099D01*
X155771637Y-24746083D01*
X155766486Y-24734803D01*
X155766394Y-24734847D01*
X155764105Y-24729938D01*
X155673630Y-24535913D01*
X155673628Y-24535910D01*
X155673627Y-24535908D01*
X155550839Y-24360549D01*
X155550834Y-24360543D01*
X155399456Y-24209165D01*
X155399450Y-24209160D01*
X155224091Y-24086372D01*
X155224087Y-24086370D01*
X155144860Y-24049426D01*
X155030060Y-23995894D01*
X155030056Y-23995893D01*
X155030052Y-23995891D01*
X154823275Y-23940486D01*
X154823265Y-23940484D01*
X154610001Y-23921826D01*
X154609999Y-23921826D01*
X154396734Y-23940484D01*
X154396724Y-23940486D01*
X154189947Y-23995891D01*
X154189938Y-23995895D01*
X153995912Y-24086370D01*
X153995908Y-24086372D01*
X153820549Y-24209160D01*
X153820543Y-24209165D01*
X153669165Y-24360543D01*
X153669160Y-24360549D01*
X153546372Y-24535908D01*
X153546370Y-24535912D01*
X153546370Y-24535913D01*
X153460545Y-24719967D01*
X153455895Y-24729938D01*
X153455891Y-24729947D01*
X153400486Y-24936724D01*
X153400484Y-24936734D01*
X153381826Y-25149999D01*
X153381826Y-25150000D01*
X153400484Y-25363265D01*
X153400486Y-25363275D01*
X153455891Y-25570052D01*
X153455893Y-25570056D01*
X153455894Y-25570060D01*
X153528643Y-25726071D01*
X153546370Y-25764087D01*
X153546372Y-25764091D01*
X153669160Y-25939450D01*
X153669165Y-25939456D01*
X153820543Y-26090834D01*
X153820549Y-26090839D01*
X153995908Y-26213627D01*
X153995910Y-26213628D01*
X153995913Y-26213630D01*
X154189940Y-26304106D01*
X154396730Y-26359515D01*
X154550862Y-26373000D01*
X154609999Y-26378174D01*
X154610000Y-26378174D01*
X154610001Y-26378174D01*
X154665526Y-26373316D01*
X154823270Y-26359515D01*
X155030060Y-26304106D01*
X155224087Y-26213630D01*
X155399455Y-26090836D01*
X155550836Y-25939455D01*
X155673630Y-25764087D01*
X155764106Y-25570060D01*
X155764106Y-25570059D01*
X155766394Y-25565153D01*
X155767858Y-25565835D01*
X155804904Y-25515521D01*
X155870172Y-25490585D01*
X155938561Y-25504894D01*
X155988357Y-25553906D01*
X155993513Y-25565196D01*
X155993606Y-25565153D01*
X155995893Y-25570059D01*
X155995894Y-25570060D01*
X156063156Y-25714304D01*
X156086370Y-25764087D01*
X156086372Y-25764091D01*
X156209160Y-25939450D01*
X156209165Y-25939456D01*
X156287181Y-26017472D01*
X156320666Y-26078795D01*
X156323500Y-26105153D01*
X156323500Y-26442244D01*
X156322191Y-26460213D01*
X156318710Y-26483975D01*
X156323028Y-26533318D01*
X156323500Y-26544126D01*
X156323500Y-26549661D01*
X156327098Y-26580445D01*
X156327464Y-26584033D01*
X156334000Y-26658741D01*
X156335461Y-26665817D01*
X156335403Y-26665828D01*
X156337034Y-26673187D01*
X156337092Y-26673174D01*
X156338757Y-26680199D01*
X156364400Y-26750655D01*
X156365582Y-26754057D01*
X156389182Y-26825276D01*
X156392236Y-26831824D01*
X156392182Y-26831848D01*
X156395470Y-26838638D01*
X156395521Y-26838613D01*
X156398761Y-26845064D01*
X156439979Y-26907734D01*
X156441889Y-26910732D01*
X156472972Y-26961124D01*
X156481289Y-26974608D01*
X156485766Y-26980269D01*
X156485719Y-26980306D01*
X156490482Y-26986152D01*
X156490528Y-26986114D01*
X156495173Y-26991649D01*
X156549708Y-27043100D01*
X156552296Y-27045614D01*
X159713181Y-30206498D01*
X159746666Y-30267821D01*
X159749500Y-30294179D01*
X159749500Y-33614635D01*
X159729815Y-33681674D01*
X159677011Y-33727429D01*
X159611618Y-33737855D01*
X159528005Y-33728435D01*
X159527996Y-33728435D01*
X159348750Y-33748630D01*
X159348745Y-33748631D01*
X159178476Y-33808211D01*
X159025737Y-33904184D01*
X158898184Y-34031737D01*
X158802210Y-34184478D01*
X158742630Y-34354750D01*
X158732854Y-34441518D01*
X158705787Y-34505932D01*
X158697315Y-34515315D01*
X156788184Y-36424446D01*
X156726861Y-36457931D01*
X156657169Y-36452947D01*
X156601236Y-36411075D01*
X156576819Y-36345611D01*
X156576549Y-36333405D01*
X156577693Y-36291171D01*
X156577608Y-36290120D01*
X156575500Y-36267952D01*
X156575500Y-35653043D01*
X156593962Y-35587945D01*
X156595244Y-35585867D01*
X156612003Y-35558697D01*
X156665349Y-35397708D01*
X156675500Y-35298345D01*
X156675499Y-34701656D01*
X156665349Y-34602292D01*
X156656794Y-34576474D01*
X156650500Y-34537470D01*
X156650500Y-34226180D01*
X156670185Y-34159141D01*
X156700187Y-34126914D01*
X156807546Y-34046546D01*
X156893796Y-33931331D01*
X156944091Y-33796483D01*
X156950500Y-33736873D01*
X156950499Y-32741128D01*
X156944091Y-32681517D01*
X156911524Y-32594201D01*
X156893797Y-32546671D01*
X156893793Y-32546664D01*
X156807547Y-32431455D01*
X156807544Y-32431452D01*
X156692335Y-32345206D01*
X156692328Y-32345202D01*
X156557482Y-32294908D01*
X156557483Y-32294908D01*
X156497883Y-32288501D01*
X156497881Y-32288500D01*
X156497873Y-32288500D01*
X156497864Y-32288500D01*
X155102129Y-32288500D01*
X155102123Y-32288501D01*
X155042516Y-32294908D01*
X154907671Y-32345202D01*
X154907664Y-32345206D01*
X154792455Y-32431452D01*
X154792452Y-32431455D01*
X154706206Y-32546664D01*
X154706202Y-32546671D01*
X154655908Y-32681517D01*
X154649501Y-32741116D01*
X154649501Y-32741123D01*
X154649500Y-32741135D01*
X154649500Y-33736870D01*
X154649501Y-33736876D01*
X154655908Y-33796483D01*
X154706202Y-33931328D01*
X154706206Y-33931335D01*
X154792452Y-34046544D01*
X154792455Y-34046547D01*
X154899466Y-34126656D01*
X154941337Y-34182589D01*
X154946321Y-34252281D01*
X154930693Y-34291019D01*
X154838001Y-34441294D01*
X154837996Y-34441305D01*
X154784651Y-34602290D01*
X154774500Y-34701647D01*
X154774500Y-35298337D01*
X154774501Y-35298355D01*
X154784650Y-35397707D01*
X154784651Y-35397710D01*
X154814072Y-35486496D01*
X154816474Y-35556325D01*
X154780742Y-35616366D01*
X154718221Y-35647559D01*
X154696366Y-35649500D01*
X153727106Y-35649500D01*
X153717043Y-35649091D01*
X153712819Y-35648747D01*
X153664334Y-35644798D01*
X153664326Y-35644799D01*
X153585765Y-35655502D01*
X153582436Y-35655910D01*
X153521552Y-35662532D01*
X153503590Y-35664486D01*
X153503586Y-35664487D01*
X153502631Y-35664697D01*
X153481971Y-35669538D01*
X153481038Y-35669770D01*
X153406604Y-35697115D01*
X153403443Y-35698228D01*
X153328273Y-35723558D01*
X153327296Y-35724010D01*
X153308209Y-35733156D01*
X153301365Y-35736552D01*
X153300031Y-35733864D01*
X153246213Y-35749500D01*
X153059298Y-35749500D01*
X153022432Y-35752401D01*
X153022426Y-35752402D01*
X152864606Y-35798254D01*
X152864603Y-35798255D01*
X152723137Y-35881917D01*
X152723129Y-35881923D01*
X152606923Y-35998129D01*
X152606914Y-35998140D01*
X152606729Y-35998455D01*
X152606519Y-35998650D01*
X152602139Y-36004298D01*
X152601227Y-36003591D01*
X152555657Y-36046136D01*
X152486915Y-36058637D01*
X152422327Y-36031988D01*
X152398143Y-36004078D01*
X152397861Y-36004298D01*
X152393823Y-35999092D01*
X152393271Y-35998455D01*
X152393085Y-35998140D01*
X152393076Y-35998129D01*
X152276870Y-35881923D01*
X152276862Y-35881917D01*
X152135396Y-35798255D01*
X152135393Y-35798254D01*
X151977573Y-35752402D01*
X151977567Y-35752401D01*
X151940701Y-35749500D01*
X151940694Y-35749500D01*
X150784306Y-35749500D01*
X150784298Y-35749500D01*
X150747432Y-35752401D01*
X150747426Y-35752402D01*
X150589606Y-35798254D01*
X150589603Y-35798255D01*
X150448137Y-35881917D01*
X150448129Y-35881923D01*
X150331923Y-35998129D01*
X150331917Y-35998137D01*
X150248255Y-36139603D01*
X150248254Y-36139606D01*
X150202402Y-36297426D01*
X150202401Y-36297432D01*
X150199500Y-36334298D01*
X150199500Y-36765701D01*
X150202401Y-36802567D01*
X150202402Y-36802573D01*
X150248254Y-36960393D01*
X150248254Y-36960394D01*
X150248255Y-36960396D01*
X150248256Y-36960398D01*
X150249133Y-36961881D01*
X150249466Y-36963195D01*
X150251353Y-36967554D01*
X150250649Y-36967858D01*
X150266315Y-37029604D01*
X150250861Y-37082233D01*
X150251353Y-37082446D01*
X150249630Y-37086426D01*
X150249133Y-37088118D01*
X150248506Y-37089177D01*
X150248254Y-37089605D01*
X150248254Y-37089606D01*
X150202402Y-37247426D01*
X150202401Y-37247432D01*
X150199500Y-37284298D01*
X150199500Y-37715701D01*
X150202401Y-37752567D01*
X150202402Y-37752573D01*
X150248254Y-37910393D01*
X150248255Y-37910396D01*
X150331917Y-38051862D01*
X150331923Y-38051870D01*
X150448129Y-38168076D01*
X150448133Y-38168079D01*
X150448135Y-38168081D01*
X150589602Y-38251744D01*
X150602269Y-38255424D01*
X150747426Y-38297597D01*
X150747429Y-38297597D01*
X150747431Y-38297598D01*
X150784306Y-38300500D01*
X150784314Y-38300500D01*
X151940686Y-38300500D01*
X151940694Y-38300500D01*
X151977569Y-38297598D01*
X151977571Y-38297597D01*
X151977573Y-38297597D01*
X152122733Y-38255424D01*
X152157328Y-38250500D01*
X152350500Y-38250500D01*
X152417539Y-38270185D01*
X152463294Y-38322989D01*
X152474500Y-38374500D01*
X152474500Y-38665701D01*
X152477401Y-38702567D01*
X152477402Y-38702573D01*
X152523254Y-38860393D01*
X152523255Y-38860396D01*
X152606917Y-39001862D01*
X152606923Y-39001870D01*
X152713181Y-39108128D01*
X152746666Y-39169451D01*
X152749500Y-39195809D01*
X152749500Y-39733209D01*
X152729815Y-39800248D01*
X152677011Y-39846003D01*
X152607853Y-39855947D01*
X152544297Y-39826922D01*
X152534278Y-39817199D01*
X152451784Y-39727587D01*
X152451779Y-39727583D01*
X152451777Y-39727581D01*
X152268634Y-39585035D01*
X152268628Y-39585031D01*
X152064504Y-39474564D01*
X152064495Y-39474561D01*
X151844984Y-39399202D01*
X151673282Y-39370550D01*
X151616049Y-39361000D01*
X151383951Y-39361000D01*
X151338164Y-39368640D01*
X151155015Y-39399202D01*
X150935504Y-39474561D01*
X150935495Y-39474564D01*
X150731371Y-39585031D01*
X150731365Y-39585035D01*
X150548222Y-39727581D01*
X150548219Y-39727584D01*
X150391016Y-39898352D01*
X150264075Y-40092651D01*
X150170842Y-40305199D01*
X150113866Y-40530191D01*
X150113864Y-40530202D01*
X150094700Y-40761493D01*
X150094700Y-40761506D01*
X150113864Y-40992797D01*
X150113866Y-40992808D01*
X150170842Y-41217800D01*
X150264075Y-41430348D01*
X150354124Y-41568178D01*
X150391021Y-41624653D01*
X150410675Y-41646003D01*
X150512870Y-41757018D01*
X150543792Y-41819673D01*
X150535931Y-41889099D01*
X150512870Y-41924982D01*
X150391019Y-42057349D01*
X150264075Y-42251651D01*
X150170842Y-42464199D01*
X150113866Y-42689191D01*
X150113864Y-42689202D01*
X150094700Y-42920493D01*
X150094700Y-42920506D01*
X150113864Y-43151797D01*
X150113866Y-43151808D01*
X150170842Y-43376800D01*
X150264075Y-43589348D01*
X150391016Y-43783647D01*
X150391019Y-43783651D01*
X150391021Y-43783653D01*
X150548216Y-43954413D01*
X150548219Y-43954415D01*
X150548222Y-43954418D01*
X150731365Y-44096964D01*
X150731371Y-44096968D01*
X150731374Y-44096970D01*
X150935497Y-44207436D01*
X151049487Y-44246568D01*
X151155015Y-44282797D01*
X151155017Y-44282797D01*
X151155019Y-44282798D01*
X151383951Y-44321000D01*
X151383952Y-44321000D01*
X151616048Y-44321000D01*
X151616049Y-44321000D01*
X151844981Y-44282798D01*
X152064503Y-44207436D01*
X152268626Y-44096970D01*
X152297888Y-44074195D01*
X152393212Y-44000001D01*
X152451784Y-43954413D01*
X152583789Y-43811015D01*
X152643675Y-43775027D01*
X152675018Y-43771000D01*
X154611100Y-43771000D01*
X154678139Y-43790685D01*
X154723894Y-43843489D01*
X154735100Y-43895000D01*
X154735100Y-44775992D01*
X154734691Y-44786056D01*
X154730398Y-44838764D01*
X154741102Y-44917332D01*
X154741510Y-44920662D01*
X154750086Y-44999512D01*
X154750310Y-45000530D01*
X154755125Y-45021073D01*
X154755374Y-45022071D01*
X154782713Y-45096491D01*
X154783827Y-45099653D01*
X154788496Y-45113508D01*
X154809156Y-45174821D01*
X154809157Y-45174823D01*
X154809158Y-45174825D01*
X154809601Y-45175785D01*
X154818746Y-45194866D01*
X154819164Y-45195709D01*
X154819167Y-45195714D01*
X154819168Y-45195716D01*
X154861867Y-45262518D01*
X154863636Y-45265371D01*
X154904527Y-45333333D01*
X154905138Y-45334136D01*
X154918178Y-45350816D01*
X154918797Y-45351586D01*
X154918799Y-45351588D01*
X154918800Y-45351589D01*
X154974903Y-45407692D01*
X154977209Y-45410062D01*
X155031751Y-45467641D01*
X155031755Y-45467643D01*
X155032583Y-45468347D01*
X155049719Y-45482508D01*
X156419212Y-46852001D01*
X156527246Y-46938842D01*
X156575407Y-46962727D01*
X156692972Y-47021033D01*
X156692976Y-47021034D01*
X156692979Y-47021036D01*
X156692980Y-47021036D01*
X156692982Y-47021037D01*
X156752464Y-47035830D01*
X156872505Y-47065684D01*
X157057432Y-47070693D01*
X157239113Y-47035831D01*
X157409051Y-46962729D01*
X157559302Y-46854804D01*
X157682840Y-46717103D01*
X157773888Y-46556064D01*
X157828187Y-46379217D01*
X157843201Y-46194833D01*
X157818227Y-46011532D01*
X157754432Y-45837884D01*
X157654800Y-45682011D01*
X156472419Y-44499630D01*
X156438934Y-44438307D01*
X156436100Y-44411949D01*
X156436100Y-43039606D01*
X156436509Y-43029541D01*
X156440801Y-42976835D01*
X156437235Y-42950658D01*
X156436100Y-42933920D01*
X156436100Y-40168830D01*
X156455785Y-40101791D01*
X156508589Y-40056036D01*
X156577747Y-40046092D01*
X156641303Y-40075117D01*
X156647781Y-40081149D01*
X158698270Y-42131638D01*
X158710051Y-42145270D01*
X158724388Y-42164528D01*
X158762337Y-42196372D01*
X158770310Y-42203679D01*
X158774217Y-42207586D01*
X158774223Y-42207591D01*
X158798537Y-42226816D01*
X158801318Y-42229080D01*
X158828217Y-42251651D01*
X158858789Y-42277305D01*
X158864818Y-42281270D01*
X158864785Y-42281319D01*
X158871147Y-42285372D01*
X158871179Y-42285321D01*
X158877319Y-42289108D01*
X158877323Y-42289111D01*
X158915977Y-42307135D01*
X158945320Y-42320819D01*
X158948566Y-42322391D01*
X159015562Y-42356038D01*
X159022357Y-42358511D01*
X159022336Y-42358567D01*
X159029457Y-42361043D01*
X159029476Y-42360986D01*
X159036319Y-42363253D01*
X159036327Y-42363257D01*
X159109895Y-42378447D01*
X159113228Y-42379186D01*
X159186279Y-42396500D01*
X159186281Y-42396500D01*
X159186285Y-42396501D01*
X159193453Y-42397339D01*
X159193446Y-42397398D01*
X159200944Y-42398164D01*
X159200950Y-42398105D01*
X159208139Y-42398734D01*
X159208143Y-42398733D01*
X159208144Y-42398734D01*
X159283130Y-42396552D01*
X159286737Y-42396500D01*
X159693666Y-42396500D01*
X159760705Y-42416185D01*
X159781347Y-42432819D01*
X160426190Y-43077662D01*
X160306622Y-43090230D01*
X160121696Y-43150316D01*
X159953304Y-43247537D01*
X159808805Y-43377645D01*
X159694514Y-43534952D01*
X159615427Y-43712585D01*
X159575000Y-43902779D01*
X159575000Y-43923527D01*
X158809301Y-43157828D01*
X158809301Y-43157829D01*
X158778684Y-43213900D01*
X158778682Y-43213905D01*
X158684329Y-43466876D01*
X158626940Y-43730689D01*
X158607679Y-43999998D01*
X158607679Y-44000001D01*
X158626940Y-44269310D01*
X158684329Y-44533123D01*
X158778684Y-44786100D01*
X158778686Y-44786104D01*
X158809300Y-44842169D01*
X158809301Y-44842169D01*
X159575000Y-44076471D01*
X159575000Y-44097221D01*
X159615427Y-44287415D01*
X159694514Y-44465047D01*
X159808805Y-44622355D01*
X159953304Y-44752463D01*
X160121696Y-44849684D01*
X160306622Y-44909770D01*
X160426190Y-44922337D01*
X159657828Y-45690698D01*
X159713900Y-45721315D01*
X159713905Y-45721317D01*
X159966876Y-45815670D01*
X160230689Y-45873059D01*
X160499999Y-45892321D01*
X160500001Y-45892321D01*
X160769310Y-45873059D01*
X161033123Y-45815670D01*
X161286100Y-45721315D01*
X161286104Y-45721313D01*
X161342169Y-45690698D01*
X161342170Y-45690698D01*
X160573809Y-44922337D01*
X160693378Y-44909770D01*
X160878304Y-44849684D01*
X161046696Y-44752463D01*
X161191195Y-44622355D01*
X161305486Y-44465048D01*
X161384573Y-44287415D01*
X161425000Y-44097221D01*
X161425000Y-44076472D01*
X162190698Y-44842170D01*
X162190698Y-44842169D01*
X162221313Y-44786104D01*
X162221315Y-44786100D01*
X162315670Y-44533123D01*
X162373059Y-44269310D01*
X162392321Y-44000001D01*
X162392321Y-43999998D01*
X162373059Y-43730689D01*
X162315670Y-43466876D01*
X162221317Y-43213905D01*
X162221315Y-43213900D01*
X162190698Y-43157828D01*
X161425000Y-43923526D01*
X161425000Y-43902779D01*
X161384573Y-43712585D01*
X161305486Y-43534953D01*
X161191195Y-43377645D01*
X161046696Y-43247537D01*
X160878304Y-43150316D01*
X160693378Y-43090230D01*
X160573809Y-43077662D01*
X161222077Y-42429393D01*
X161268801Y-42400034D01*
X161349522Y-42371789D01*
X161502262Y-42275816D01*
X161629816Y-42148262D01*
X161725789Y-41995522D01*
X161785368Y-41825255D01*
X161785997Y-41819673D01*
X161805565Y-41646003D01*
X161805565Y-41645996D01*
X161785369Y-41466750D01*
X161785368Y-41466745D01*
X161769121Y-41420313D01*
X161725789Y-41296478D01*
X161705008Y-41263406D01*
X161629815Y-41143737D01*
X161541651Y-41055573D01*
X161508166Y-40994250D01*
X161513150Y-40924558D01*
X161555022Y-40868625D01*
X161739527Y-40730506D01*
X161739527Y-40730505D01*
X161739535Y-40730500D01*
X161930500Y-40539535D01*
X162092344Y-40323337D01*
X162221772Y-40086307D01*
X162316150Y-39833270D01*
X162373557Y-39569377D01*
X162392823Y-39300000D01*
X162373557Y-39030623D01*
X162367300Y-39001862D01*
X162316151Y-38766736D01*
X162316150Y-38766730D01*
X162221772Y-38513693D01*
X162148393Y-38379310D01*
X162092347Y-38276668D01*
X162092342Y-38276660D01*
X161930506Y-38060472D01*
X161930490Y-38060454D01*
X161739545Y-37869509D01*
X161739527Y-37869493D01*
X161523339Y-37707657D01*
X161523331Y-37707652D01*
X161315073Y-37593935D01*
X161265668Y-37544530D01*
X161250500Y-37485103D01*
X161250500Y-34111229D01*
X161270185Y-34044190D01*
X161322989Y-33998435D01*
X161392147Y-33988491D01*
X161455703Y-34017516D01*
X161462181Y-34023548D01*
X163213181Y-35774548D01*
X163246666Y-35835871D01*
X163249500Y-35862229D01*
X163249500Y-44685769D01*
X163229815Y-44752808D01*
X163213181Y-44773450D01*
X161138239Y-46848391D01*
X161076916Y-46881876D01*
X161024200Y-46881876D01*
X160769382Y-46826443D01*
X160500001Y-46807177D01*
X160499999Y-46807177D01*
X160230617Y-46826443D01*
X159966736Y-46883848D01*
X159966731Y-46883849D01*
X159966730Y-46883850D01*
X159916103Y-46902733D01*
X159713691Y-46978228D01*
X159713687Y-46978230D01*
X159476668Y-47107652D01*
X159476660Y-47107657D01*
X159260472Y-47269493D01*
X159260454Y-47269509D01*
X159069509Y-47460454D01*
X159069493Y-47460472D01*
X158907657Y-47676660D01*
X158907652Y-47676668D01*
X158778230Y-47913687D01*
X158778228Y-47913691D01*
X158683848Y-48166736D01*
X158626443Y-48430617D01*
X158607177Y-48699998D01*
X158607177Y-48700001D01*
X158626443Y-48969382D01*
X158683848Y-49233263D01*
X158683850Y-49233270D01*
X158720300Y-49330996D01*
X158778228Y-49486308D01*
X158778230Y-49486312D01*
X158907652Y-49723331D01*
X158907657Y-49723339D01*
X159069493Y-49939527D01*
X159069509Y-49939545D01*
X159260454Y-50130490D01*
X159260472Y-50130506D01*
X159476660Y-50292342D01*
X159476668Y-50292347D01*
X159713687Y-50421769D01*
X159713691Y-50421771D01*
X159713693Y-50421772D01*
X159966730Y-50516150D01*
X160098676Y-50544853D01*
X160230617Y-50573556D01*
X160230619Y-50573556D01*
X160230623Y-50573557D01*
X160470007Y-50590677D01*
X160499999Y-50592823D01*
X160500000Y-50592823D01*
X160500001Y-50592823D01*
X160526987Y-50590892D01*
X160769377Y-50573557D01*
X161033270Y-50516150D01*
X161286307Y-50421772D01*
X161523337Y-50292344D01*
X161739535Y-50130500D01*
X161930500Y-49939535D01*
X162092344Y-49723337D01*
X162221772Y-49486307D01*
X162316150Y-49233270D01*
X162373557Y-48969377D01*
X162392823Y-48700000D01*
X162373557Y-48430623D01*
X162316150Y-48166730D01*
X162242529Y-47969347D01*
X162237546Y-47899657D01*
X162271029Y-47838336D01*
X163304696Y-46804670D01*
X163366017Y-46771187D01*
X163435709Y-46776171D01*
X163475179Y-46800053D01*
X163600897Y-46912840D01*
X163600901Y-46912842D01*
X163761928Y-47003884D01*
X163761930Y-47003885D01*
X163761936Y-47003888D01*
X163850359Y-47031037D01*
X163938774Y-47058185D01*
X163938777Y-47058185D01*
X163938782Y-47058187D01*
X164123167Y-47073201D01*
X164306468Y-47048227D01*
X164480116Y-46984432D01*
X164635989Y-46884800D01*
X167713470Y-43807319D01*
X167774793Y-43773834D01*
X167801151Y-43771000D01*
X168324982Y-43771000D01*
X168392021Y-43790685D01*
X168416208Y-43811014D01*
X168548216Y-43954413D01*
X168548219Y-43954415D01*
X168548222Y-43954418D01*
X168731365Y-44096964D01*
X168731371Y-44096968D01*
X168731374Y-44096970D01*
X168935497Y-44207436D01*
X169049487Y-44246568D01*
X169155015Y-44282797D01*
X169155017Y-44282797D01*
X169155019Y-44282798D01*
X169383951Y-44321000D01*
X169383952Y-44321000D01*
X169616048Y-44321000D01*
X169616049Y-44321000D01*
X169844981Y-44282798D01*
X170064503Y-44207436D01*
X170268626Y-44096970D01*
X170297888Y-44074195D01*
X170393212Y-44000001D01*
X170451784Y-43954413D01*
X170608979Y-43783653D01*
X170735924Y-43589349D01*
X170829157Y-43376800D01*
X170886134Y-43151805D01*
X170886162Y-43151472D01*
X170905300Y-42920506D01*
X170905300Y-42920493D01*
X170886135Y-42689202D01*
X170886133Y-42689191D01*
X170829157Y-42464199D01*
X170735924Y-42251651D01*
X170608983Y-42057352D01*
X170608980Y-42057349D01*
X170608979Y-42057347D01*
X170487128Y-41924980D01*
X170456207Y-41862328D01*
X170464067Y-41792902D01*
X170487127Y-41757020D01*
X170608979Y-41624653D01*
X170735924Y-41430349D01*
X170829157Y-41217800D01*
X170886134Y-40992805D01*
X170889198Y-40955828D01*
X170905300Y-40761506D01*
X170905300Y-40761493D01*
X170886135Y-40530202D01*
X170886133Y-40530191D01*
X170829157Y-40305199D01*
X170735924Y-40092651D01*
X170608983Y-39898352D01*
X170608980Y-39898349D01*
X170608979Y-39898347D01*
X170451784Y-39727587D01*
X170451779Y-39727583D01*
X170451777Y-39727581D01*
X170268634Y-39585035D01*
X170268628Y-39585031D01*
X170064504Y-39474564D01*
X170064495Y-39474561D01*
X169844984Y-39399202D01*
X169673282Y-39370550D01*
X169616049Y-39361000D01*
X169383951Y-39361000D01*
X169338164Y-39368640D01*
X169155015Y-39399202D01*
X168935504Y-39474561D01*
X168935495Y-39474564D01*
X168731371Y-39585031D01*
X168731365Y-39585035D01*
X168548222Y-39727581D01*
X168548219Y-39727584D01*
X168391016Y-39898352D01*
X168264075Y-40092651D01*
X168170842Y-40305199D01*
X168113866Y-40530191D01*
X168113864Y-40530202D01*
X168094700Y-40761493D01*
X168094700Y-40766628D01*
X168093574Y-40766628D01*
X168080603Y-40829690D01*
X168031761Y-40879652D01*
X167971104Y-40895500D01*
X165299972Y-40895500D01*
X165259017Y-40888542D01*
X165179254Y-40860631D01*
X165179249Y-40860630D01*
X165000004Y-40840435D01*
X164999996Y-40840435D01*
X164888383Y-40853010D01*
X164819561Y-40840955D01*
X164768182Y-40793606D01*
X164750500Y-40729790D01*
X164750500Y-37400000D01*
X168150000Y-37400000D01*
X168150000Y-37697844D01*
X168156401Y-37757372D01*
X168156403Y-37757379D01*
X168206645Y-37892086D01*
X168206649Y-37892093D01*
X168292809Y-38007187D01*
X168292812Y-38007190D01*
X168407906Y-38093350D01*
X168407913Y-38093354D01*
X168542620Y-38143596D01*
X168542627Y-38143598D01*
X168602155Y-38149999D01*
X168602172Y-38150000D01*
X168900000Y-38150000D01*
X168900000Y-37400000D01*
X170100000Y-37400000D01*
X170100000Y-38150000D01*
X170397828Y-38150000D01*
X170397844Y-38149999D01*
X170457372Y-38143598D01*
X170457379Y-38143596D01*
X170592086Y-38093354D01*
X170592093Y-38093350D01*
X170707187Y-38007190D01*
X170707190Y-38007187D01*
X170793350Y-37892093D01*
X170793354Y-37892086D01*
X170843596Y-37757379D01*
X170843598Y-37757372D01*
X170849999Y-37697844D01*
X170850000Y-37697827D01*
X170850000Y-37400000D01*
X170100000Y-37400000D01*
X168900000Y-37400000D01*
X168150000Y-37400000D01*
X164750500Y-37400000D01*
X164750500Y-36871889D01*
X169000000Y-36871889D01*
X169040507Y-37009844D01*
X169118239Y-37130798D01*
X169226900Y-37224952D01*
X169357685Y-37284680D01*
X169464237Y-37300000D01*
X169535763Y-37300000D01*
X169642315Y-37284680D01*
X169773100Y-37224952D01*
X169881761Y-37130798D01*
X169959493Y-37009844D01*
X170000000Y-36871889D01*
X170000000Y-36728111D01*
X169959493Y-36590156D01*
X169881761Y-36469202D01*
X169773100Y-36375048D01*
X169642315Y-36315320D01*
X169535763Y-36300000D01*
X169464237Y-36300000D01*
X169357685Y-36315320D01*
X169226900Y-36375048D01*
X169118239Y-36469202D01*
X169040507Y-36590156D01*
X169000000Y-36728111D01*
X169000000Y-36871889D01*
X164750500Y-36871889D01*
X164750500Y-35563705D01*
X164751809Y-35545735D01*
X164753542Y-35533903D01*
X164755289Y-35521977D01*
X164750972Y-35472630D01*
X164750500Y-35461822D01*
X164750500Y-35456296D01*
X164750500Y-35456291D01*
X164746901Y-35425509D01*
X164746536Y-35421929D01*
X164739999Y-35347201D01*
X164738539Y-35340129D01*
X164738597Y-35340116D01*
X164736965Y-35332757D01*
X164736906Y-35332772D01*
X164735241Y-35325751D01*
X164735241Y-35325745D01*
X164709569Y-35255212D01*
X164708421Y-35251909D01*
X164684814Y-35180666D01*
X164684810Y-35180659D01*
X164681760Y-35174118D01*
X164681815Y-35174091D01*
X164678533Y-35167313D01*
X164678480Y-35167340D01*
X164675235Y-35160880D01*
X164634025Y-35098223D01*
X164632086Y-35095181D01*
X164592710Y-35031342D01*
X164588234Y-35025682D01*
X164588281Y-35025644D01*
X164583519Y-35019799D01*
X164583474Y-35019838D01*
X164578831Y-35014305D01*
X164524272Y-34962831D01*
X164521685Y-34960318D01*
X163128285Y-33566917D01*
X163094800Y-33505594D01*
X163099784Y-33435902D01*
X163141656Y-33379969D01*
X163207120Y-33355552D01*
X163234013Y-33356556D01*
X163362731Y-33375500D01*
X163362736Y-33375500D01*
X163568545Y-33375500D01*
X163568547Y-33375500D01*
X163568552Y-33375499D01*
X163568564Y-33375499D01*
X163606614Y-33372713D01*
X163773805Y-33360477D01*
X164041775Y-33300784D01*
X164298198Y-33202711D01*
X164537609Y-33068347D01*
X164754904Y-32900557D01*
X164945454Y-32702916D01*
X165105196Y-32479637D01*
X165214503Y-32267033D01*
X165262661Y-32216415D01*
X165330543Y-32199867D01*
X165396595Y-32222646D01*
X165419771Y-32244029D01*
X165421172Y-32245698D01*
X165475707Y-32297149D01*
X165478295Y-32299663D01*
X167924270Y-34745638D01*
X167936051Y-34759270D01*
X167950388Y-34778528D01*
X167988337Y-34810372D01*
X167996310Y-34817679D01*
X168000217Y-34821586D01*
X168000223Y-34821591D01*
X168024537Y-34840816D01*
X168027318Y-34843080D01*
X168054956Y-34866271D01*
X168084789Y-34891305D01*
X168090818Y-34895270D01*
X168090785Y-34895319D01*
X168097147Y-34899372D01*
X168097179Y-34899321D01*
X168103319Y-34903108D01*
X168103323Y-34903111D01*
X168141977Y-34921135D01*
X168171320Y-34934819D01*
X168174566Y-34936391D01*
X168241562Y-34970038D01*
X168248357Y-34972511D01*
X168248336Y-34972567D01*
X168255457Y-34975043D01*
X168255476Y-34974986D01*
X168262319Y-34977253D01*
X168262327Y-34977257D01*
X168320748Y-34989319D01*
X168382420Y-35022151D01*
X168397247Y-35039633D01*
X168438273Y-35098223D01*
X168461505Y-35131401D01*
X168461508Y-35131404D01*
X168583818Y-35253714D01*
X168617303Y-35315037D01*
X168612319Y-35384729D01*
X168570447Y-35440662D01*
X168539471Y-35457577D01*
X168407912Y-35506646D01*
X168407906Y-35506649D01*
X168292812Y-35592809D01*
X168292809Y-35592812D01*
X168206649Y-35707906D01*
X168206645Y-35707913D01*
X168156403Y-35842620D01*
X168156401Y-35842627D01*
X168150000Y-35902155D01*
X168150000Y-36200000D01*
X170850000Y-36200000D01*
X170850000Y-35902172D01*
X170849999Y-35902155D01*
X170843598Y-35842627D01*
X170843596Y-35842620D01*
X170793354Y-35707913D01*
X170793350Y-35707906D01*
X170707190Y-35592812D01*
X170707187Y-35592809D01*
X170592093Y-35506649D01*
X170592088Y-35506646D01*
X170460528Y-35457577D01*
X170404595Y-35415705D01*
X170380178Y-35350241D01*
X170395030Y-35281968D01*
X170416175Y-35253720D01*
X170538495Y-35131401D01*
X170674035Y-34937830D01*
X170773903Y-34723663D01*
X170835063Y-34495408D01*
X170855659Y-34260000D01*
X170835063Y-34024592D01*
X170773903Y-33796337D01*
X170674035Y-33582171D01*
X170620416Y-33505594D01*
X170538494Y-33388597D01*
X170371402Y-33221506D01*
X170371396Y-33221501D01*
X170185842Y-33091575D01*
X170142217Y-33036998D01*
X170135023Y-32967500D01*
X170166546Y-32905145D01*
X170185842Y-32888425D01*
X170304665Y-32805224D01*
X170371401Y-32758495D01*
X170538495Y-32591401D01*
X170674035Y-32397830D01*
X170773903Y-32183663D01*
X170835063Y-31955408D01*
X170855659Y-31720000D01*
X170835063Y-31484592D01*
X170773903Y-31256337D01*
X170674035Y-31042171D01*
X170661563Y-31024358D01*
X170538494Y-30848597D01*
X170371402Y-30681506D01*
X170371396Y-30681501D01*
X170185842Y-30551575D01*
X170142217Y-30496998D01*
X170135023Y-30427500D01*
X170166546Y-30365145D01*
X170185842Y-30348425D01*
X170263313Y-30294179D01*
X170371401Y-30218495D01*
X170538495Y-30051401D01*
X170674035Y-29857830D01*
X170773903Y-29643663D01*
X170835063Y-29415408D01*
X170855659Y-29180000D01*
X170835063Y-28944592D01*
X170773903Y-28716337D01*
X170674035Y-28502171D01*
X170634899Y-28446278D01*
X170538494Y-28308597D01*
X170371402Y-28141506D01*
X170371395Y-28141501D01*
X170177834Y-28005967D01*
X170177830Y-28005965D01*
X170139804Y-27988233D01*
X169963663Y-27906097D01*
X169963659Y-27906096D01*
X169963655Y-27906094D01*
X169735413Y-27844938D01*
X169735403Y-27844936D01*
X169500001Y-27824341D01*
X169499999Y-27824341D01*
X169264596Y-27844936D01*
X169264586Y-27844938D01*
X169036344Y-27906094D01*
X169036323Y-27906102D01*
X169033797Y-27907280D01*
X169032581Y-27907464D01*
X169031256Y-27907947D01*
X169031158Y-27907680D01*
X168964719Y-27917764D01*
X168900938Y-27889237D01*
X168862706Y-27830756D01*
X168862159Y-27760888D01*
X168863465Y-27756604D01*
X168885674Y-27688256D01*
X168905460Y-27500000D01*
X168885674Y-27311744D01*
X168827179Y-27131716D01*
X168800413Y-27085355D01*
X168767113Y-27027677D01*
X168750500Y-26965677D01*
X168750500Y-26263705D01*
X168751809Y-26245736D01*
X168754362Y-26228303D01*
X168755289Y-26221977D01*
X168754636Y-26214517D01*
X168750972Y-26172630D01*
X168750500Y-26161822D01*
X168750500Y-26156296D01*
X168750500Y-26156291D01*
X168746901Y-26125509D01*
X168746536Y-26121929D01*
X168739999Y-26047201D01*
X168738539Y-26040129D01*
X168738597Y-26040116D01*
X168736965Y-26032757D01*
X168736906Y-26032772D01*
X168735241Y-26025751D01*
X168735241Y-26025745D01*
X168709569Y-25955212D01*
X168708407Y-25951866D01*
X168702769Y-25934851D01*
X168700368Y-25865022D01*
X168736100Y-25804981D01*
X168798621Y-25773789D01*
X168849070Y-25775190D01*
X168914225Y-25790633D01*
X169004162Y-25811949D01*
X169004167Y-25811949D01*
X169004177Y-25811952D01*
X169333977Y-25850500D01*
X169333984Y-25850500D01*
X169666016Y-25850500D01*
X169666023Y-25850500D01*
X169995823Y-25811952D01*
X169995832Y-25811949D01*
X169995838Y-25811949D01*
X170257219Y-25750000D01*
X170318918Y-25735377D01*
X170630939Y-25621811D01*
X170927666Y-25472789D01*
X171205085Y-25290327D01*
X171459447Y-25076893D01*
X171687310Y-24835371D01*
X171687322Y-24835354D01*
X171687327Y-24835349D01*
X171776037Y-24716191D01*
X171831859Y-24674171D01*
X171901537Y-24669002D01*
X171962949Y-24702325D01*
X171996596Y-24763559D01*
X171999500Y-24790238D01*
X171999500Y-49209761D01*
X171979815Y-49276800D01*
X171927011Y-49322555D01*
X171857853Y-49332499D01*
X171794297Y-49303474D01*
X171776037Y-49283809D01*
X171687321Y-49164643D01*
X171687314Y-49164635D01*
X171687310Y-49164629D01*
X171459447Y-48923107D01*
X171297153Y-48786926D01*
X171205087Y-48709674D01*
X171205079Y-48709668D01*
X170927672Y-48527214D01*
X170728864Y-48427368D01*
X170677790Y-48379690D01*
X170660601Y-48311968D01*
X170682754Y-48245703D01*
X170685252Y-48242244D01*
X170693796Y-48230831D01*
X170744091Y-48095983D01*
X170750500Y-48036373D01*
X170750499Y-46440628D01*
X170744091Y-46381017D01*
X170743422Y-46379224D01*
X170693797Y-46246171D01*
X170693793Y-46246164D01*
X170607548Y-46130957D01*
X170607546Y-46130954D01*
X170607542Y-46130951D01*
X170601807Y-46125215D01*
X170568325Y-46063890D01*
X170573312Y-45994199D01*
X170598269Y-45953547D01*
X170608581Y-45942346D01*
X170608584Y-45942342D01*
X170735482Y-45748111D01*
X170828682Y-45535635D01*
X170885638Y-45310718D01*
X170904798Y-45079505D01*
X170904798Y-45079494D01*
X170885638Y-44848281D01*
X170828682Y-44623364D01*
X170828680Y-44623360D01*
X170821359Y-44606667D01*
X169587680Y-45840346D01*
X169526357Y-45873831D01*
X169456665Y-45868847D01*
X169412318Y-45840346D01*
X168617465Y-45045492D01*
X169046190Y-45045492D01*
X169056327Y-45180765D01*
X169105887Y-45307041D01*
X169190465Y-45413099D01*
X169302547Y-45489516D01*
X169432173Y-45529500D01*
X169533724Y-45529500D01*
X169634138Y-45514365D01*
X169756357Y-45455507D01*
X169855798Y-45363240D01*
X169923625Y-45245760D01*
X169953810Y-45113508D01*
X169943673Y-44978235D01*
X169894113Y-44851959D01*
X169809535Y-44745901D01*
X169697453Y-44669484D01*
X169567827Y-44629500D01*
X169466276Y-44629500D01*
X169365862Y-44644635D01*
X169243643Y-44703493D01*
X169144202Y-44795760D01*
X169076375Y-44913240D01*
X169046190Y-45045492D01*
X168617465Y-45045492D01*
X168178640Y-44606667D01*
X168171318Y-44623361D01*
X168114361Y-44848281D01*
X168095202Y-45079494D01*
X168095202Y-45079505D01*
X168114361Y-45310718D01*
X168171317Y-45535635D01*
X168264516Y-45748109D01*
X168391417Y-45942346D01*
X168401738Y-45953558D01*
X168432659Y-46016213D01*
X168424796Y-46085639D01*
X168398195Y-46125212D01*
X168392452Y-46130955D01*
X168306206Y-46246164D01*
X168306202Y-46246171D01*
X168255908Y-46381017D01*
X168249501Y-46440616D01*
X168249501Y-46440623D01*
X168249500Y-46440635D01*
X168249500Y-48036370D01*
X168249501Y-48036376D01*
X168255908Y-48095983D01*
X168306202Y-48230828D01*
X168306204Y-48230831D01*
X168314750Y-48242247D01*
X168339168Y-48307711D01*
X168324317Y-48375985D01*
X168274912Y-48425390D01*
X168271135Y-48427369D01*
X168072330Y-48527212D01*
X167794920Y-48709668D01*
X167794912Y-48709674D01*
X167588936Y-48882508D01*
X167540553Y-48923107D01*
X167312690Y-49164629D01*
X167312687Y-49164632D01*
X167312685Y-49164635D01*
X167312678Y-49164643D01*
X167114406Y-49430968D01*
X166948385Y-49718525D01*
X166948379Y-49718538D01*
X166816866Y-50023419D01*
X166721634Y-50341518D01*
X166721631Y-50341532D01*
X166663977Y-50668504D01*
X166663976Y-50668515D01*
X166644669Y-50999996D01*
X166644669Y-51000003D01*
X166663976Y-51331484D01*
X166663977Y-51331495D01*
X166721631Y-51658467D01*
X166721634Y-51658481D01*
X166816866Y-51976580D01*
X166948379Y-52281461D01*
X166948385Y-52281474D01*
X167114406Y-52569031D01*
X167312678Y-52835356D01*
X167312683Y-52835362D01*
X167312690Y-52835371D01*
X167540553Y-53076893D01*
X167710724Y-53219683D01*
X167783216Y-53280511D01*
X167821918Y-53338682D01*
X167823026Y-53408543D01*
X167786189Y-53467913D01*
X167723102Y-53497942D01*
X167703510Y-53499500D01*
X153296490Y-53499500D01*
X153229451Y-53479815D01*
X153183696Y-53427011D01*
X153173752Y-53357853D01*
X153202777Y-53294297D01*
X153216784Y-53280511D01*
X153267341Y-53238087D01*
X153459447Y-53076893D01*
X153687310Y-52835371D01*
X153885594Y-52569030D01*
X154051617Y-52281470D01*
X154183133Y-51976581D01*
X154278365Y-51658485D01*
X154336024Y-51331484D01*
X154355331Y-51000000D01*
X154336024Y-50668516D01*
X154278365Y-50341515D01*
X154183133Y-50023419D01*
X154051617Y-49718530D01*
X153917546Y-49486312D01*
X153885593Y-49430968D01*
X153687321Y-49164643D01*
X153687314Y-49164635D01*
X153687310Y-49164629D01*
X153459447Y-48923107D01*
X153297153Y-48786926D01*
X153205087Y-48709674D01*
X153205079Y-48709668D01*
X152927672Y-48527214D01*
X152728864Y-48427368D01*
X152677790Y-48379690D01*
X152660601Y-48311968D01*
X152682754Y-48245703D01*
X152685252Y-48242244D01*
X152693796Y-48230831D01*
X152744091Y-48095983D01*
X152750500Y-48036373D01*
X152750499Y-46440628D01*
X152744091Y-46381017D01*
X152743422Y-46379224D01*
X152693797Y-46246171D01*
X152693793Y-46246164D01*
X152607548Y-46130957D01*
X152607546Y-46130954D01*
X152607542Y-46130951D01*
X152601807Y-46125215D01*
X152568325Y-46063890D01*
X152573312Y-45994199D01*
X152598269Y-45953547D01*
X152608581Y-45942346D01*
X152608584Y-45942342D01*
X152735482Y-45748111D01*
X152828682Y-45535635D01*
X152885638Y-45310718D01*
X152904798Y-45079505D01*
X152904798Y-45079494D01*
X152885638Y-44848281D01*
X152828682Y-44623364D01*
X152828680Y-44623360D01*
X152821359Y-44606667D01*
X151587680Y-45840346D01*
X151526357Y-45873831D01*
X151456665Y-45868847D01*
X151412318Y-45840346D01*
X150617465Y-45045492D01*
X151046190Y-45045492D01*
X151056327Y-45180765D01*
X151105887Y-45307041D01*
X151190465Y-45413099D01*
X151302547Y-45489516D01*
X151432173Y-45529500D01*
X151533724Y-45529500D01*
X151634138Y-45514365D01*
X151756357Y-45455507D01*
X151855798Y-45363240D01*
X151923625Y-45245760D01*
X151953810Y-45113508D01*
X151943673Y-44978235D01*
X151894113Y-44851959D01*
X151809535Y-44745901D01*
X151697453Y-44669484D01*
X151567827Y-44629500D01*
X151466276Y-44629500D01*
X151365862Y-44644635D01*
X151243643Y-44703493D01*
X151144202Y-44795760D01*
X151076375Y-44913240D01*
X151046190Y-45045492D01*
X150617465Y-45045492D01*
X150178640Y-44606667D01*
X150171318Y-44623361D01*
X150114361Y-44848281D01*
X150095202Y-45079494D01*
X150095202Y-45079505D01*
X150114361Y-45310718D01*
X150171317Y-45535635D01*
X150264516Y-45748109D01*
X150391417Y-45942346D01*
X150401738Y-45953558D01*
X150432659Y-46016213D01*
X150424796Y-46085639D01*
X150398195Y-46125212D01*
X150392452Y-46130955D01*
X150306206Y-46246164D01*
X150306202Y-46246171D01*
X150255908Y-46381017D01*
X150249501Y-46440616D01*
X150249501Y-46440623D01*
X150249500Y-46440635D01*
X150249500Y-48036370D01*
X150249501Y-48036376D01*
X150255908Y-48095983D01*
X150306202Y-48230828D01*
X150306204Y-48230831D01*
X150314750Y-48242247D01*
X150339168Y-48307711D01*
X150324317Y-48375985D01*
X150274912Y-48425390D01*
X150271135Y-48427369D01*
X150072330Y-48527212D01*
X149794920Y-48709668D01*
X149794912Y-48709674D01*
X149588936Y-48882508D01*
X149540553Y-48923107D01*
X149312690Y-49164629D01*
X149312687Y-49164632D01*
X149312685Y-49164635D01*
X149312678Y-49164643D01*
X149223963Y-49283809D01*
X149168140Y-49325828D01*
X149098462Y-49330996D01*
X149037051Y-49297674D01*
X149003404Y-49236439D01*
X149000500Y-49209761D01*
X149000500Y-25050001D01*
X149469500Y-25050001D01*
X149469501Y-25050019D01*
X149480000Y-25152796D01*
X149480001Y-25152799D01*
X149490218Y-25183630D01*
X149535186Y-25319334D01*
X149601039Y-25426099D01*
X149619500Y-25491195D01*
X149619500Y-26182631D01*
X149613206Y-26221634D01*
X149557651Y-26389288D01*
X149547500Y-26488647D01*
X149547500Y-27085337D01*
X149547501Y-27085355D01*
X149557650Y-27184707D01*
X149557651Y-27184710D01*
X149613206Y-27352362D01*
X149619500Y-27391366D01*
X149619500Y-27430892D01*
X149619091Y-27440956D01*
X149614798Y-27493664D01*
X149625502Y-27572232D01*
X149625910Y-27575562D01*
X149634486Y-27654412D01*
X149634710Y-27655430D01*
X149639525Y-27675973D01*
X149639774Y-27676971D01*
X149667113Y-27751391D01*
X149668227Y-27754553D01*
X149683580Y-27800114D01*
X149693556Y-27829721D01*
X149693557Y-27829723D01*
X149693558Y-27829725D01*
X149694001Y-27830685D01*
X149703146Y-27849766D01*
X149703564Y-27850609D01*
X149703567Y-27850614D01*
X149703568Y-27850616D01*
X149746267Y-27917418D01*
X149748036Y-27920271D01*
X149788927Y-27988233D01*
X149789538Y-27989036D01*
X149802578Y-28005716D01*
X149803197Y-28006486D01*
X149803199Y-28006488D01*
X149803200Y-28006489D01*
X149859302Y-28062591D01*
X149861572Y-28064923D01*
X149916151Y-28122541D01*
X149916155Y-28122545D01*
X149916950Y-28123220D01*
X149934118Y-28137407D01*
X150208631Y-28411920D01*
X150463181Y-28666469D01*
X150496666Y-28727792D01*
X150499500Y-28754150D01*
X150499500Y-28867181D01*
X150509563Y-28965683D01*
X150562450Y-29125284D01*
X150562455Y-29125295D01*
X150650716Y-29268387D01*
X150650719Y-29268391D01*
X150769608Y-29387280D01*
X150769612Y-29387283D01*
X150912704Y-29475544D01*
X150912707Y-29475545D01*
X150912713Y-29475549D01*
X151072315Y-29528436D01*
X151170826Y-29538500D01*
X151170831Y-29538500D01*
X151277108Y-29538500D01*
X151344147Y-29558185D01*
X151389902Y-29610989D01*
X151399846Y-29680147D01*
X151370821Y-29743703D01*
X151321404Y-29778318D01*
X151271801Y-29797289D01*
X151032392Y-29931652D01*
X151032387Y-29931655D01*
X150815097Y-30099441D01*
X150815088Y-30099450D01*
X150624549Y-30297080D01*
X150624547Y-30297082D01*
X150464805Y-30520361D01*
X150464802Y-30520366D01*
X150339275Y-30764515D01*
X150339271Y-30764525D01*
X150250632Y-31024344D01*
X150250629Y-31024358D01*
X150200765Y-31294314D01*
X150200763Y-31294334D01*
X150190737Y-31568678D01*
X150220762Y-31841559D01*
X150220763Y-31841569D01*
X150290202Y-32107178D01*
X150369978Y-32294908D01*
X150397577Y-32359852D01*
X150511587Y-32546664D01*
X150540592Y-32594191D01*
X150540599Y-32594201D01*
X150716199Y-32805207D01*
X150716204Y-32805212D01*
X150716209Y-32805218D01*
X150716216Y-32805224D01*
X150920672Y-32988419D01*
X150920674Y-32988420D01*
X150920677Y-32988423D01*
X151149641Y-33139904D01*
X151398221Y-33256433D01*
X151661119Y-33335527D01*
X151932731Y-33375500D01*
X151932736Y-33375500D01*
X152138545Y-33375500D01*
X152138547Y-33375500D01*
X152138552Y-33375499D01*
X152138564Y-33375499D01*
X152176614Y-33372713D01*
X152343805Y-33360477D01*
X152611775Y-33300784D01*
X152868198Y-33202711D01*
X153107609Y-33068347D01*
X153324904Y-32900557D01*
X153515454Y-32702916D01*
X153675196Y-32479637D01*
X153800727Y-32235479D01*
X153889370Y-31975646D01*
X153939236Y-31705674D01*
X153949262Y-31431320D01*
X153919236Y-31158429D01*
X153849796Y-30892818D01*
X153742423Y-30640148D01*
X153599405Y-30405804D01*
X153557354Y-30355274D01*
X153423800Y-30194792D01*
X153423795Y-30194787D01*
X153423791Y-30194782D01*
X153352990Y-30131344D01*
X153219327Y-30011580D01*
X153219324Y-30011578D01*
X153219323Y-30011577D01*
X152990359Y-29860096D01*
X152741779Y-29743567D01*
X152594362Y-29699216D01*
X152478879Y-29664472D01*
X152337425Y-29643655D01*
X152207269Y-29624500D01*
X152158036Y-29624500D01*
X152090997Y-29604815D01*
X152045242Y-29552011D01*
X152035298Y-29482853D01*
X152064323Y-29419297D01*
X152092936Y-29394962D01*
X152105391Y-29387281D01*
X152224281Y-29268391D01*
X152312549Y-29125287D01*
X152365436Y-28965685D01*
X152375499Y-28867181D01*
X152624500Y-28867181D01*
X152634563Y-28965683D01*
X152687450Y-29125284D01*
X152687455Y-29125295D01*
X152775716Y-29268387D01*
X152775719Y-29268391D01*
X152894608Y-29387280D01*
X152894612Y-29387283D01*
X153037704Y-29475544D01*
X153037707Y-29475545D01*
X153037713Y-29475549D01*
X153197315Y-29528436D01*
X153295826Y-29538500D01*
X153295831Y-29538500D01*
X153829169Y-29538500D01*
X153829174Y-29538500D01*
X153927685Y-29528436D01*
X154087287Y-29475549D01*
X154230391Y-29387281D01*
X154293853Y-29323819D01*
X154355176Y-29290334D01*
X154381534Y-29287500D01*
X154652496Y-29287500D01*
X154719535Y-29307185D01*
X154765290Y-29359989D01*
X154775234Y-29429147D01*
X154751762Y-29485812D01*
X154706204Y-29546668D01*
X154706202Y-29546671D01*
X154655908Y-29681517D01*
X154649501Y-29741116D01*
X154649501Y-29741123D01*
X154649500Y-29741135D01*
X154649500Y-30736870D01*
X154649501Y-30736876D01*
X154655908Y-30796483D01*
X154706202Y-30931328D01*
X154706206Y-30931335D01*
X154792452Y-31046544D01*
X154792455Y-31046547D01*
X154907664Y-31132793D01*
X154907671Y-31132797D01*
X155042517Y-31183091D01*
X155042516Y-31183091D01*
X155049444Y-31183835D01*
X155102127Y-31189500D01*
X156497872Y-31189499D01*
X156557483Y-31183091D01*
X156692331Y-31132796D01*
X156807546Y-31046546D01*
X156893796Y-30931331D01*
X156944091Y-30796483D01*
X156950500Y-30736873D01*
X156950499Y-29741128D01*
X156944091Y-29681517D01*
X156929972Y-29643663D01*
X156893797Y-29546671D01*
X156893793Y-29546664D01*
X156807547Y-29431455D01*
X156807544Y-29431452D01*
X156692335Y-29345206D01*
X156692332Y-29345205D01*
X156692331Y-29345204D01*
X156681161Y-29341038D01*
X156625231Y-29299166D01*
X156600816Y-29233701D01*
X156600500Y-29224858D01*
X156600500Y-29048855D01*
X156610487Y-29003802D01*
X156609731Y-29003552D01*
X156612001Y-28996698D01*
X156612003Y-28996697D01*
X156665349Y-28835708D01*
X156675500Y-28736345D01*
X156675499Y-28139656D01*
X156665349Y-28040292D01*
X156612003Y-27879303D01*
X156611999Y-27879297D01*
X156611998Y-27879294D01*
X156522970Y-27734959D01*
X156522967Y-27734955D01*
X156403044Y-27615032D01*
X156403040Y-27615029D01*
X156258705Y-27526001D01*
X156258699Y-27525998D01*
X156258697Y-27525997D01*
X156258694Y-27525996D01*
X156097709Y-27472651D01*
X155998346Y-27462500D01*
X155451662Y-27462500D01*
X155451644Y-27462501D01*
X155352292Y-27472650D01*
X155352289Y-27472651D01*
X155191305Y-27525996D01*
X155191294Y-27526001D01*
X155123144Y-27568038D01*
X155058047Y-27586500D01*
X154379534Y-27586500D01*
X154312495Y-27566815D01*
X154291853Y-27550181D01*
X154230391Y-27488719D01*
X154230389Y-27488718D01*
X154163112Y-27447221D01*
X154138192Y-27426963D01*
X154117349Y-27404959D01*
X154117345Y-27404956D01*
X154117344Y-27404955D01*
X154017854Y-27337500D01*
X153964230Y-27301142D01*
X153964227Y-27301140D01*
X153964223Y-27301138D01*
X153792377Y-27232669D01*
X153719351Y-27220697D01*
X153609817Y-27202740D01*
X153609814Y-27202740D01*
X153425093Y-27212755D01*
X153425088Y-27212755D01*
X153246843Y-27262244D01*
X153246837Y-27262247D01*
X153083397Y-27348898D01*
X152990077Y-27428164D01*
X152974900Y-27439193D01*
X152894610Y-27488717D01*
X152775716Y-27607612D01*
X152687455Y-27750704D01*
X152687450Y-27750715D01*
X152684079Y-27760888D01*
X152634564Y-27910315D01*
X152634564Y-27910316D01*
X152634563Y-27910316D01*
X152624500Y-28008818D01*
X152624500Y-28867181D01*
X152375499Y-28867181D01*
X152375500Y-28867174D01*
X152375500Y-28008826D01*
X152365436Y-27910315D01*
X152312549Y-27750713D01*
X152312545Y-27750707D01*
X152312544Y-27750704D01*
X152224283Y-27607612D01*
X152224280Y-27607608D01*
X152105391Y-27488719D01*
X152105387Y-27488716D01*
X151962295Y-27400455D01*
X151962289Y-27400452D01*
X151962287Y-27400451D01*
X151802685Y-27347564D01*
X151802683Y-27347563D01*
X151704181Y-27337500D01*
X151704174Y-27337500D01*
X151591151Y-27337500D01*
X151524112Y-27317815D01*
X151503470Y-27301181D01*
X151475254Y-27272965D01*
X151441769Y-27211642D01*
X151439577Y-27172685D01*
X151448500Y-27085345D01*
X151448499Y-26488656D01*
X151439336Y-26398959D01*
X151438349Y-26389292D01*
X151438348Y-26389289D01*
X151414180Y-26316354D01*
X151385003Y-26228303D01*
X151384999Y-26228297D01*
X151384998Y-26228294D01*
X151338962Y-26153659D01*
X151320500Y-26088562D01*
X151320500Y-25491195D01*
X151338960Y-25426099D01*
X151404814Y-25319334D01*
X151459999Y-25152797D01*
X151470500Y-25050009D01*
X151470499Y-24449992D01*
X151459999Y-24347203D01*
X151404814Y-24180666D01*
X151312712Y-24031344D01*
X151188656Y-23907288D01*
X151095888Y-23850069D01*
X151039336Y-23815187D01*
X151039331Y-23815185D01*
X151002873Y-23803104D01*
X150872797Y-23760001D01*
X150872795Y-23760000D01*
X150770010Y-23749500D01*
X150169998Y-23749500D01*
X150169980Y-23749501D01*
X150067203Y-23760000D01*
X150067200Y-23760001D01*
X149900668Y-23815185D01*
X149900663Y-23815187D01*
X149751342Y-23907289D01*
X149627289Y-24031342D01*
X149535187Y-24180663D01*
X149535185Y-24180668D01*
X149507349Y-24264670D01*
X149480001Y-24347203D01*
X149480001Y-24347204D01*
X149480000Y-24347204D01*
X149469500Y-24449983D01*
X149469500Y-25050001D01*
X149000500Y-25050001D01*
X149000500Y-20624500D01*
X149020185Y-20557461D01*
X149072989Y-20511706D01*
X149124500Y-20500500D01*
X156628771Y-20500500D01*
X156695810Y-20520185D01*
G37*
%TD.AperFunction*%
%TA.AperFunction,Conductor*%
G36*
X166006870Y-25268683D02*
G01*
X166013348Y-25274715D01*
X167213181Y-26474548D01*
X167246666Y-26535871D01*
X167249500Y-26562229D01*
X167249500Y-26965677D01*
X167232887Y-27027677D01*
X167172821Y-27131714D01*
X167117758Y-27301181D01*
X167114326Y-27311744D01*
X167094540Y-27500000D01*
X167114326Y-27688256D01*
X167114327Y-27688259D01*
X167172818Y-27868277D01*
X167172821Y-27868284D01*
X167267467Y-28032216D01*
X167394129Y-28172888D01*
X167425778Y-28195882D01*
X167466106Y-28225182D01*
X167508771Y-28280512D01*
X167514750Y-28350125D01*
X167482144Y-28411920D01*
X167421305Y-28446278D01*
X167393220Y-28449500D01*
X166365567Y-28449500D01*
X166298528Y-28429815D01*
X166252773Y-28377011D01*
X166242829Y-28307853D01*
X166248526Y-28284545D01*
X166285366Y-28179262D01*
X166285369Y-28179249D01*
X166305565Y-28000003D01*
X166305565Y-27999996D01*
X166285369Y-27820750D01*
X166285368Y-27820745D01*
X166260863Y-27750713D01*
X166225789Y-27650478D01*
X166198854Y-27607612D01*
X166149580Y-27529192D01*
X166129816Y-27497738D01*
X166002262Y-27370184D01*
X165985230Y-27359482D01*
X165859695Y-27280603D01*
X165813404Y-27228268D01*
X165801667Y-27175609D01*
X165801667Y-25362396D01*
X165821352Y-25295357D01*
X165874156Y-25249602D01*
X165943314Y-25239658D01*
X166006870Y-25268683D01*
G37*
%TD.AperFunction*%
%TA.AperFunction,Conductor*%
G36*
X162858609Y-23380185D02*
G01*
X162879251Y-23396819D01*
X163224213Y-23741781D01*
X163257698Y-23803104D01*
X163252714Y-23872796D01*
X163210842Y-23928729D01*
X163145378Y-23953146D01*
X163093199Y-23945644D01*
X163060379Y-23933403D01*
X163060372Y-23933401D01*
X163000844Y-23927000D01*
X162830000Y-23927000D01*
X162830000Y-24550000D01*
X163453000Y-24550000D01*
X163453000Y-24379172D01*
X163452999Y-24379155D01*
X163446598Y-24319627D01*
X163446596Y-24319619D01*
X163434356Y-24286802D01*
X163429371Y-24217110D01*
X163462855Y-24155787D01*
X163524178Y-24122301D01*
X163593869Y-24127285D01*
X163638218Y-24155786D01*
X164264348Y-24781915D01*
X164297833Y-24843238D01*
X164300667Y-24869596D01*
X164300667Y-27487461D01*
X164299358Y-27505430D01*
X164295877Y-27529192D01*
X164300195Y-27578535D01*
X164300667Y-27589343D01*
X164300667Y-27594890D01*
X164302563Y-27611103D01*
X164290795Y-27679975D01*
X164243661Y-27731551D01*
X164179402Y-27749500D01*
X162662230Y-27749500D01*
X162595191Y-27729815D01*
X162574549Y-27713181D01*
X161446049Y-26584681D01*
X161412564Y-26523358D01*
X161417548Y-26453666D01*
X161459420Y-26397733D01*
X161524884Y-26373316D01*
X161533730Y-26373000D01*
X161630000Y-26373000D01*
X161630000Y-25750000D01*
X162830000Y-25750000D01*
X162830000Y-26373000D01*
X163000828Y-26373000D01*
X163000844Y-26372999D01*
X163060372Y-26366598D01*
X163060379Y-26366596D01*
X163195086Y-26316354D01*
X163195093Y-26316350D01*
X163310187Y-26230190D01*
X163310190Y-26230187D01*
X163396350Y-26115093D01*
X163396354Y-26115086D01*
X163446596Y-25980379D01*
X163446598Y-25980372D01*
X163452999Y-25920844D01*
X163453000Y-25920827D01*
X163453000Y-25750000D01*
X162830000Y-25750000D01*
X161630000Y-25750000D01*
X161630000Y-25116370D01*
X161781232Y-25116370D01*
X161791257Y-25250140D01*
X161840266Y-25375013D01*
X161923905Y-25479892D01*
X162034741Y-25555459D01*
X162162927Y-25595000D01*
X162263346Y-25595000D01*
X162362647Y-25580033D01*
X162483509Y-25521829D01*
X162581844Y-25430587D01*
X162648917Y-25314413D01*
X162678768Y-25183630D01*
X162668743Y-25049860D01*
X162619734Y-24924987D01*
X162536095Y-24820108D01*
X162425259Y-24744541D01*
X162297073Y-24705000D01*
X162196654Y-24705000D01*
X162097353Y-24719967D01*
X161976491Y-24778171D01*
X161878156Y-24869413D01*
X161811083Y-24985587D01*
X161781232Y-25116370D01*
X161630000Y-25116370D01*
X161630000Y-23927000D01*
X161590060Y-23927000D01*
X161523021Y-23907315D01*
X161477266Y-23854511D01*
X161467322Y-23785353D01*
X161496347Y-23721797D01*
X161537656Y-23690618D01*
X161574087Y-23673630D01*
X161749455Y-23550836D01*
X161900836Y-23399455D01*
X161900836Y-23399454D01*
X161903472Y-23396819D01*
X161964795Y-23363334D01*
X161991153Y-23360500D01*
X162791570Y-23360500D01*
X162858609Y-23380185D01*
G37*
%TD.AperFunction*%
%TA.AperFunction,Conductor*%
G36*
X167770549Y-20520185D02*
G01*
X167816304Y-20572989D01*
X167826248Y-20642147D01*
X167797223Y-20705703D01*
X167783216Y-20719489D01*
X167633127Y-20845427D01*
X167540553Y-20923107D01*
X167312690Y-21164629D01*
X167312687Y-21164632D01*
X167312685Y-21164635D01*
X167312678Y-21164643D01*
X167114406Y-21430968D01*
X166948385Y-21718525D01*
X166948379Y-21718538D01*
X166816866Y-22023419D01*
X166721634Y-22341518D01*
X166721631Y-22341532D01*
X166663977Y-22668504D01*
X166663976Y-22668515D01*
X166644669Y-22999996D01*
X166644669Y-23000003D01*
X166663976Y-23331484D01*
X166663977Y-23331495D01*
X166696539Y-23516161D01*
X166688795Y-23585600D01*
X166644738Y-23639829D01*
X166578357Y-23661631D01*
X166510727Y-23644083D01*
X166486742Y-23625374D01*
X163573549Y-20712181D01*
X163540064Y-20650858D01*
X163545048Y-20581166D01*
X163586920Y-20525233D01*
X163652384Y-20500816D01*
X163661230Y-20500500D01*
X167703510Y-20500500D01*
X167770549Y-20520185D01*
G37*
%TD.AperFunction*%
%TD*%
%TA.AperFunction,Conductor*%
%TO.N,Board_0-GND1*%
G36*
X132695810Y-20520185D02*
G01*
X132741565Y-20572989D01*
X132751509Y-20642147D01*
X132722484Y-20705703D01*
X132716452Y-20712181D01*
X132074272Y-21354358D01*
X132012949Y-21387843D01*
X131975785Y-21390205D01*
X131880003Y-21381826D01*
X131879999Y-21381826D01*
X131666734Y-21400484D01*
X131666724Y-21400486D01*
X131459947Y-21455891D01*
X131459938Y-21455895D01*
X131265912Y-21546370D01*
X131265908Y-21546372D01*
X131090549Y-21669160D01*
X131090543Y-21669165D01*
X130939165Y-21820543D01*
X130939160Y-21820549D01*
X130816372Y-21995908D01*
X130816370Y-21995912D01*
X130723606Y-22194847D01*
X130722143Y-22194165D01*
X130685087Y-22244485D01*
X130619816Y-22269415D01*
X130551429Y-22255099D01*
X130501637Y-22206083D01*
X130496486Y-22194803D01*
X130496394Y-22194847D01*
X130416456Y-22023419D01*
X130403630Y-21995913D01*
X130403628Y-21995910D01*
X130403627Y-21995908D01*
X130280839Y-21820549D01*
X130280834Y-21820543D01*
X130129456Y-21669165D01*
X130129450Y-21669160D01*
X129954091Y-21546372D01*
X129954087Y-21546370D01*
X129760060Y-21455894D01*
X129760056Y-21455893D01*
X129760052Y-21455891D01*
X129553275Y-21400486D01*
X129553265Y-21400484D01*
X129340001Y-21381826D01*
X129339999Y-21381826D01*
X129126734Y-21400484D01*
X129126724Y-21400486D01*
X128919947Y-21455891D01*
X128919938Y-21455895D01*
X128725912Y-21546370D01*
X128725908Y-21546372D01*
X128550549Y-21669160D01*
X128550543Y-21669165D01*
X128496528Y-21723181D01*
X128435205Y-21756666D01*
X128408847Y-21759500D01*
X127520478Y-21759500D01*
X127453439Y-21739815D01*
X127407684Y-21687011D01*
X127407213Y-21685813D01*
X127404815Y-21680670D01*
X127404814Y-21680666D01*
X127312712Y-21531344D01*
X127188656Y-21407288D01*
X127039334Y-21315186D01*
X126872797Y-21260001D01*
X126872795Y-21260000D01*
X126770010Y-21249500D01*
X126169998Y-21249500D01*
X126169980Y-21249501D01*
X126067203Y-21260000D01*
X126067200Y-21260001D01*
X125900668Y-21315185D01*
X125900663Y-21315187D01*
X125751342Y-21407289D01*
X125627289Y-21531342D01*
X125535187Y-21680663D01*
X125535186Y-21680666D01*
X125480001Y-21847203D01*
X125480001Y-21847204D01*
X125480000Y-21847204D01*
X125469500Y-21949983D01*
X125469500Y-22550001D01*
X125469501Y-22550019D01*
X125480000Y-22652796D01*
X125480001Y-22652799D01*
X125535185Y-22819331D01*
X125535186Y-22819334D01*
X125627288Y-22968656D01*
X125751344Y-23092712D01*
X125900666Y-23184814D01*
X126067203Y-23239999D01*
X126169991Y-23250500D01*
X126225400Y-23250499D01*
X126292439Y-23270182D01*
X126300440Y-23275781D01*
X126304805Y-23279099D01*
X126307412Y-23281137D01*
X126358484Y-23322191D01*
X126369247Y-23330843D01*
X126370211Y-23331459D01*
X126387969Y-23342473D01*
X126388931Y-23343051D01*
X126388933Y-23343052D01*
X126388936Y-23343054D01*
X126460913Y-23376354D01*
X126463912Y-23377791D01*
X126534983Y-23413039D01*
X126536019Y-23413419D01*
X126555853Y-23420402D01*
X126556830Y-23420730D01*
X126556833Y-23420732D01*
X126556835Y-23420732D01*
X126556837Y-23420733D01*
X126634253Y-23437773D01*
X126637514Y-23438536D01*
X126714506Y-23457684D01*
X126714508Y-23457684D01*
X126714512Y-23457685D01*
X126715604Y-23457833D01*
X126736375Y-23460377D01*
X126737502Y-23460499D01*
X126737503Y-23460500D01*
X126816773Y-23460500D01*
X126820130Y-23460545D01*
X126899432Y-23462693D01*
X126899432Y-23462692D01*
X126899435Y-23462693D01*
X126900479Y-23462608D01*
X126922648Y-23460500D01*
X128408847Y-23460500D01*
X128475886Y-23480185D01*
X128496528Y-23496819D01*
X128550543Y-23550834D01*
X128550549Y-23550839D01*
X128725908Y-23673627D01*
X128725910Y-23673628D01*
X128725913Y-23673630D01*
X128919940Y-23764106D01*
X129126730Y-23819515D01*
X129297346Y-23834442D01*
X129339999Y-23838174D01*
X129340000Y-23838174D01*
X129340001Y-23838174D01*
X129376884Y-23834947D01*
X129553270Y-23819515D01*
X129760060Y-23764106D01*
X129954087Y-23673630D01*
X130129455Y-23550836D01*
X130280836Y-23399455D01*
X130403630Y-23224087D01*
X130494106Y-23030060D01*
X130494106Y-23030059D01*
X130496394Y-23025153D01*
X130497858Y-23025835D01*
X130534904Y-22975521D01*
X130600172Y-22950585D01*
X130668561Y-22964894D01*
X130718357Y-23013906D01*
X130723513Y-23025196D01*
X130723606Y-23025153D01*
X130816370Y-23224087D01*
X130816372Y-23224091D01*
X130939160Y-23399450D01*
X130939165Y-23399456D01*
X131090543Y-23550834D01*
X131090549Y-23550839D01*
X131265908Y-23673627D01*
X131265910Y-23673628D01*
X131265913Y-23673630D01*
X131459940Y-23764106D01*
X131666730Y-23819515D01*
X131837346Y-23834442D01*
X131879999Y-23838174D01*
X131880000Y-23838174D01*
X131880001Y-23838174D01*
X131916884Y-23834947D01*
X132093270Y-23819515D01*
X132300060Y-23764106D01*
X132494087Y-23673630D01*
X132669455Y-23550836D01*
X132820836Y-23399455D01*
X132943630Y-23224087D01*
X133034106Y-23030060D01*
X133034106Y-23030059D01*
X133036394Y-23025153D01*
X133037858Y-23025835D01*
X133074904Y-22975521D01*
X133140172Y-22950585D01*
X133208561Y-22964894D01*
X133258357Y-23013906D01*
X133263513Y-23025196D01*
X133263606Y-23025153D01*
X133356370Y-23224087D01*
X133356372Y-23224091D01*
X133479160Y-23399450D01*
X133479165Y-23399456D01*
X133536181Y-23456472D01*
X133569666Y-23517795D01*
X133572500Y-23544153D01*
X133572500Y-23834947D01*
X133552815Y-23901986D01*
X133500011Y-23947741D01*
X133430853Y-23957685D01*
X133416409Y-23954722D01*
X133363281Y-23940487D01*
X133363265Y-23940484D01*
X133150001Y-23921826D01*
X133149999Y-23921826D01*
X132936734Y-23940484D01*
X132936724Y-23940486D01*
X132729947Y-23995891D01*
X132729938Y-23995895D01*
X132535912Y-24086370D01*
X132535908Y-24086372D01*
X132360549Y-24209160D01*
X132360543Y-24209165D01*
X132209165Y-24360543D01*
X132209160Y-24360549D01*
X132086372Y-24535908D01*
X132086370Y-24535912D01*
X132086370Y-24535913D01*
X132000545Y-24719967D01*
X131993606Y-24734847D01*
X131992143Y-24734165D01*
X131955087Y-24784485D01*
X131889816Y-24809415D01*
X131821429Y-24795099D01*
X131771637Y-24746083D01*
X131766486Y-24734803D01*
X131766394Y-24734847D01*
X131764105Y-24729938D01*
X131673630Y-24535913D01*
X131673628Y-24535910D01*
X131673627Y-24535908D01*
X131550839Y-24360549D01*
X131550834Y-24360543D01*
X131399456Y-24209165D01*
X131399450Y-24209160D01*
X131224091Y-24086372D01*
X131224087Y-24086370D01*
X131144860Y-24049426D01*
X131030060Y-23995894D01*
X131030056Y-23995893D01*
X131030052Y-23995891D01*
X130823275Y-23940486D01*
X130823265Y-23940484D01*
X130610001Y-23921826D01*
X130609999Y-23921826D01*
X130396734Y-23940484D01*
X130396724Y-23940486D01*
X130189947Y-23995891D01*
X130189938Y-23995895D01*
X129995912Y-24086370D01*
X129995908Y-24086372D01*
X129820549Y-24209160D01*
X129820543Y-24209165D01*
X129669165Y-24360543D01*
X129669160Y-24360549D01*
X129546372Y-24535908D01*
X129546370Y-24535912D01*
X129546370Y-24535913D01*
X129460545Y-24719967D01*
X129455895Y-24729938D01*
X129455891Y-24729947D01*
X129400486Y-24936724D01*
X129400484Y-24936734D01*
X129381826Y-25149999D01*
X129381826Y-25150000D01*
X129400484Y-25363265D01*
X129400486Y-25363275D01*
X129455891Y-25570052D01*
X129455893Y-25570056D01*
X129455894Y-25570060D01*
X129528643Y-25726071D01*
X129546370Y-25764087D01*
X129546372Y-25764091D01*
X129669160Y-25939450D01*
X129669165Y-25939456D01*
X129820543Y-26090834D01*
X129820549Y-26090839D01*
X129995908Y-26213627D01*
X129995910Y-26213628D01*
X129995913Y-26213630D01*
X130189940Y-26304106D01*
X130396730Y-26359515D01*
X130550862Y-26373000D01*
X130609999Y-26378174D01*
X130610000Y-26378174D01*
X130610001Y-26378174D01*
X130665526Y-26373316D01*
X130823270Y-26359515D01*
X131030060Y-26304106D01*
X131224087Y-26213630D01*
X131399455Y-26090836D01*
X131550836Y-25939455D01*
X131673630Y-25764087D01*
X131764106Y-25570060D01*
X131764106Y-25570059D01*
X131766394Y-25565153D01*
X131767858Y-25565835D01*
X131804904Y-25515521D01*
X131870172Y-25490585D01*
X131938561Y-25504894D01*
X131988357Y-25553906D01*
X131993513Y-25565196D01*
X131993606Y-25565153D01*
X131995893Y-25570059D01*
X131995894Y-25570060D01*
X132063156Y-25714304D01*
X132086370Y-25764087D01*
X132086372Y-25764091D01*
X132209160Y-25939450D01*
X132209165Y-25939456D01*
X132287181Y-26017472D01*
X132320666Y-26078795D01*
X132323500Y-26105153D01*
X132323500Y-26442244D01*
X132322191Y-26460213D01*
X132318710Y-26483975D01*
X132323028Y-26533318D01*
X132323500Y-26544126D01*
X132323500Y-26549661D01*
X132327098Y-26580445D01*
X132327464Y-26584033D01*
X132334000Y-26658741D01*
X132335461Y-26665817D01*
X132335403Y-26665828D01*
X132337034Y-26673187D01*
X132337092Y-26673174D01*
X132338757Y-26680199D01*
X132364400Y-26750655D01*
X132365582Y-26754057D01*
X132389182Y-26825276D01*
X132392236Y-26831824D01*
X132392182Y-26831848D01*
X132395470Y-26838638D01*
X132395521Y-26838613D01*
X132398761Y-26845064D01*
X132439979Y-26907734D01*
X132441889Y-26910732D01*
X132472972Y-26961124D01*
X132481289Y-26974608D01*
X132485766Y-26980269D01*
X132485719Y-26980306D01*
X132490482Y-26986152D01*
X132490528Y-26986114D01*
X132495173Y-26991649D01*
X132549708Y-27043100D01*
X132552296Y-27045614D01*
X135713181Y-30206498D01*
X135746666Y-30267821D01*
X135749500Y-30294179D01*
X135749500Y-33614635D01*
X135729815Y-33681674D01*
X135677011Y-33727429D01*
X135611618Y-33737855D01*
X135528005Y-33728435D01*
X135527996Y-33728435D01*
X135348750Y-33748630D01*
X135348745Y-33748631D01*
X135178476Y-33808211D01*
X135025737Y-33904184D01*
X134898184Y-34031737D01*
X134802210Y-34184478D01*
X134742630Y-34354750D01*
X134732854Y-34441518D01*
X134705787Y-34505932D01*
X134697315Y-34515315D01*
X132788184Y-36424446D01*
X132726861Y-36457931D01*
X132657169Y-36452947D01*
X132601236Y-36411075D01*
X132576819Y-36345611D01*
X132576549Y-36333405D01*
X132577693Y-36291171D01*
X132577608Y-36290120D01*
X132575500Y-36267952D01*
X132575500Y-35653043D01*
X132593962Y-35587945D01*
X132595244Y-35585867D01*
X132612003Y-35558697D01*
X132665349Y-35397708D01*
X132675500Y-35298345D01*
X132675499Y-34701656D01*
X132665349Y-34602292D01*
X132656794Y-34576474D01*
X132650500Y-34537470D01*
X132650500Y-34226180D01*
X132670185Y-34159141D01*
X132700187Y-34126914D01*
X132807546Y-34046546D01*
X132893796Y-33931331D01*
X132944091Y-33796483D01*
X132950500Y-33736873D01*
X132950499Y-32741128D01*
X132944091Y-32681517D01*
X132911524Y-32594201D01*
X132893797Y-32546671D01*
X132893793Y-32546664D01*
X132807547Y-32431455D01*
X132807544Y-32431452D01*
X132692335Y-32345206D01*
X132692328Y-32345202D01*
X132557482Y-32294908D01*
X132557483Y-32294908D01*
X132497883Y-32288501D01*
X132497881Y-32288500D01*
X132497873Y-32288500D01*
X132497864Y-32288500D01*
X131102129Y-32288500D01*
X131102123Y-32288501D01*
X131042516Y-32294908D01*
X130907671Y-32345202D01*
X130907664Y-32345206D01*
X130792455Y-32431452D01*
X130792452Y-32431455D01*
X130706206Y-32546664D01*
X130706202Y-32546671D01*
X130655908Y-32681517D01*
X130649501Y-32741116D01*
X130649501Y-32741123D01*
X130649500Y-32741135D01*
X130649500Y-33736870D01*
X130649501Y-33736876D01*
X130655908Y-33796483D01*
X130706202Y-33931328D01*
X130706206Y-33931335D01*
X130792452Y-34046544D01*
X130792455Y-34046547D01*
X130899466Y-34126656D01*
X130941337Y-34182589D01*
X130946321Y-34252281D01*
X130930693Y-34291019D01*
X130838001Y-34441294D01*
X130837996Y-34441305D01*
X130784651Y-34602290D01*
X130774500Y-34701647D01*
X130774500Y-35298337D01*
X130774501Y-35298355D01*
X130784650Y-35397707D01*
X130784651Y-35397710D01*
X130814072Y-35486496D01*
X130816474Y-35556325D01*
X130780742Y-35616366D01*
X130718221Y-35647559D01*
X130696366Y-35649500D01*
X129727106Y-35649500D01*
X129717043Y-35649091D01*
X129712819Y-35648747D01*
X129664334Y-35644798D01*
X129664326Y-35644799D01*
X129585765Y-35655502D01*
X129582436Y-35655910D01*
X129521552Y-35662532D01*
X129503590Y-35664486D01*
X129503586Y-35664487D01*
X129502631Y-35664697D01*
X129481971Y-35669538D01*
X129481038Y-35669770D01*
X129406604Y-35697115D01*
X129403443Y-35698228D01*
X129328273Y-35723558D01*
X129327296Y-35724010D01*
X129308209Y-35733156D01*
X129301365Y-35736552D01*
X129300031Y-35733864D01*
X129246213Y-35749500D01*
X129059298Y-35749500D01*
X129022432Y-35752401D01*
X129022426Y-35752402D01*
X128864606Y-35798254D01*
X128864603Y-35798255D01*
X128723137Y-35881917D01*
X128723129Y-35881923D01*
X128606923Y-35998129D01*
X128606914Y-35998140D01*
X128606729Y-35998455D01*
X128606519Y-35998650D01*
X128602139Y-36004298D01*
X128601227Y-36003591D01*
X128555657Y-36046136D01*
X128486915Y-36058637D01*
X128422327Y-36031988D01*
X128398143Y-36004078D01*
X128397861Y-36004298D01*
X128393823Y-35999092D01*
X128393271Y-35998455D01*
X128393085Y-35998140D01*
X128393076Y-35998129D01*
X128276870Y-35881923D01*
X128276862Y-35881917D01*
X128135396Y-35798255D01*
X128135393Y-35798254D01*
X127977573Y-35752402D01*
X127977567Y-35752401D01*
X127940701Y-35749500D01*
X127940694Y-35749500D01*
X126784306Y-35749500D01*
X126784298Y-35749500D01*
X126747432Y-35752401D01*
X126747426Y-35752402D01*
X126589606Y-35798254D01*
X126589603Y-35798255D01*
X126448137Y-35881917D01*
X126448129Y-35881923D01*
X126331923Y-35998129D01*
X126331917Y-35998137D01*
X126248255Y-36139603D01*
X126248254Y-36139606D01*
X126202402Y-36297426D01*
X126202401Y-36297432D01*
X126199500Y-36334298D01*
X126199500Y-36765701D01*
X126202401Y-36802567D01*
X126202402Y-36802573D01*
X126248254Y-36960393D01*
X126248254Y-36960394D01*
X126248255Y-36960396D01*
X126248256Y-36960398D01*
X126249133Y-36961881D01*
X126249466Y-36963195D01*
X126251353Y-36967554D01*
X126250649Y-36967858D01*
X126266315Y-37029604D01*
X126250861Y-37082233D01*
X126251353Y-37082446D01*
X126249630Y-37086426D01*
X126249133Y-37088118D01*
X126248506Y-37089177D01*
X126248254Y-37089605D01*
X126248254Y-37089606D01*
X126202402Y-37247426D01*
X126202401Y-37247432D01*
X126199500Y-37284298D01*
X126199500Y-37715701D01*
X126202401Y-37752567D01*
X126202402Y-37752573D01*
X126248254Y-37910393D01*
X126248255Y-37910396D01*
X126331917Y-38051862D01*
X126331923Y-38051870D01*
X126448129Y-38168076D01*
X126448133Y-38168079D01*
X126448135Y-38168081D01*
X126589602Y-38251744D01*
X126602269Y-38255424D01*
X126747426Y-38297597D01*
X126747429Y-38297597D01*
X126747431Y-38297598D01*
X126784306Y-38300500D01*
X126784314Y-38300500D01*
X127940686Y-38300500D01*
X127940694Y-38300500D01*
X127977569Y-38297598D01*
X127977571Y-38297597D01*
X127977573Y-38297597D01*
X128122733Y-38255424D01*
X128157328Y-38250500D01*
X128350500Y-38250500D01*
X128417539Y-38270185D01*
X128463294Y-38322989D01*
X128474500Y-38374500D01*
X128474500Y-38665701D01*
X128477401Y-38702567D01*
X128477402Y-38702573D01*
X128523254Y-38860393D01*
X128523255Y-38860396D01*
X128606917Y-39001862D01*
X128606923Y-39001870D01*
X128713181Y-39108128D01*
X128746666Y-39169451D01*
X128749500Y-39195809D01*
X128749500Y-39733209D01*
X128729815Y-39800248D01*
X128677011Y-39846003D01*
X128607853Y-39855947D01*
X128544297Y-39826922D01*
X128534278Y-39817199D01*
X128451784Y-39727587D01*
X128451779Y-39727583D01*
X128451777Y-39727581D01*
X128268634Y-39585035D01*
X128268628Y-39585031D01*
X128064504Y-39474564D01*
X128064495Y-39474561D01*
X127844984Y-39399202D01*
X127673282Y-39370550D01*
X127616049Y-39361000D01*
X127383951Y-39361000D01*
X127338164Y-39368640D01*
X127155015Y-39399202D01*
X126935504Y-39474561D01*
X126935495Y-39474564D01*
X126731371Y-39585031D01*
X126731365Y-39585035D01*
X126548222Y-39727581D01*
X126548219Y-39727584D01*
X126391016Y-39898352D01*
X126264075Y-40092651D01*
X126170842Y-40305199D01*
X126113866Y-40530191D01*
X126113864Y-40530202D01*
X126094700Y-40761493D01*
X126094700Y-40761506D01*
X126113864Y-40992797D01*
X126113866Y-40992808D01*
X126170842Y-41217800D01*
X126264075Y-41430348D01*
X126354124Y-41568178D01*
X126391021Y-41624653D01*
X126410675Y-41646003D01*
X126512870Y-41757018D01*
X126543792Y-41819673D01*
X126535931Y-41889099D01*
X126512870Y-41924982D01*
X126391019Y-42057349D01*
X126264075Y-42251651D01*
X126170842Y-42464199D01*
X126113866Y-42689191D01*
X126113864Y-42689202D01*
X126094700Y-42920493D01*
X126094700Y-42920506D01*
X126113864Y-43151797D01*
X126113866Y-43151808D01*
X126170842Y-43376800D01*
X126264075Y-43589348D01*
X126391016Y-43783647D01*
X126391019Y-43783651D01*
X126391021Y-43783653D01*
X126548216Y-43954413D01*
X126548219Y-43954415D01*
X126548222Y-43954418D01*
X126731365Y-44096964D01*
X126731371Y-44096968D01*
X126731374Y-44096970D01*
X126935497Y-44207436D01*
X127049487Y-44246568D01*
X127155015Y-44282797D01*
X127155017Y-44282797D01*
X127155019Y-44282798D01*
X127383951Y-44321000D01*
X127383952Y-44321000D01*
X127616048Y-44321000D01*
X127616049Y-44321000D01*
X127844981Y-44282798D01*
X128064503Y-44207436D01*
X128268626Y-44096970D01*
X128297888Y-44074195D01*
X128393212Y-44000001D01*
X128451784Y-43954413D01*
X128583789Y-43811015D01*
X128643675Y-43775027D01*
X128675018Y-43771000D01*
X130611100Y-43771000D01*
X130678139Y-43790685D01*
X130723894Y-43843489D01*
X130735100Y-43895000D01*
X130735100Y-44775992D01*
X130734691Y-44786056D01*
X130730398Y-44838764D01*
X130741102Y-44917332D01*
X130741510Y-44920662D01*
X130750086Y-44999512D01*
X130750310Y-45000530D01*
X130755125Y-45021073D01*
X130755374Y-45022071D01*
X130782713Y-45096491D01*
X130783827Y-45099653D01*
X130788496Y-45113508D01*
X130809156Y-45174821D01*
X130809157Y-45174823D01*
X130809158Y-45174825D01*
X130809601Y-45175785D01*
X130818746Y-45194866D01*
X130819164Y-45195709D01*
X130819167Y-45195714D01*
X130819168Y-45195716D01*
X130861867Y-45262518D01*
X130863636Y-45265371D01*
X130904527Y-45333333D01*
X130905138Y-45334136D01*
X130918178Y-45350816D01*
X130918797Y-45351586D01*
X130918799Y-45351588D01*
X130918800Y-45351589D01*
X130974903Y-45407692D01*
X130977209Y-45410062D01*
X131031751Y-45467641D01*
X131031755Y-45467643D01*
X131032583Y-45468347D01*
X131049719Y-45482508D01*
X132419212Y-46852001D01*
X132527246Y-46938842D01*
X132575407Y-46962727D01*
X132692972Y-47021033D01*
X132692976Y-47021034D01*
X132692979Y-47021036D01*
X132692980Y-47021036D01*
X132692982Y-47021037D01*
X132752464Y-47035830D01*
X132872505Y-47065684D01*
X133057432Y-47070693D01*
X133239113Y-47035831D01*
X133409051Y-46962729D01*
X133559302Y-46854804D01*
X133682840Y-46717103D01*
X133773888Y-46556064D01*
X133828187Y-46379217D01*
X133843201Y-46194833D01*
X133818227Y-46011532D01*
X133754432Y-45837884D01*
X133654800Y-45682011D01*
X132472419Y-44499630D01*
X132438934Y-44438307D01*
X132436100Y-44411949D01*
X132436100Y-43039606D01*
X132436509Y-43029541D01*
X132440801Y-42976835D01*
X132437235Y-42950658D01*
X132436100Y-42933920D01*
X132436100Y-40168830D01*
X132455785Y-40101791D01*
X132508589Y-40056036D01*
X132577747Y-40046092D01*
X132641303Y-40075117D01*
X132647781Y-40081149D01*
X134698270Y-42131638D01*
X134710051Y-42145270D01*
X134724388Y-42164528D01*
X134762337Y-42196372D01*
X134770310Y-42203679D01*
X134774217Y-42207586D01*
X134774223Y-42207591D01*
X134798537Y-42226816D01*
X134801318Y-42229080D01*
X134828217Y-42251651D01*
X134858789Y-42277305D01*
X134864818Y-42281270D01*
X134864785Y-42281319D01*
X134871147Y-42285372D01*
X134871179Y-42285321D01*
X134877319Y-42289108D01*
X134877323Y-42289111D01*
X134915977Y-42307135D01*
X134945320Y-42320819D01*
X134948566Y-42322391D01*
X135015562Y-42356038D01*
X135022357Y-42358511D01*
X135022336Y-42358567D01*
X135029457Y-42361043D01*
X135029476Y-42360986D01*
X135036319Y-42363253D01*
X135036327Y-42363257D01*
X135109895Y-42378447D01*
X135113228Y-42379186D01*
X135186279Y-42396500D01*
X135186281Y-42396500D01*
X135186285Y-42396501D01*
X135193453Y-42397339D01*
X135193446Y-42397398D01*
X135200944Y-42398164D01*
X135200950Y-42398105D01*
X135208139Y-42398734D01*
X135208143Y-42398733D01*
X135208144Y-42398734D01*
X135283130Y-42396552D01*
X135286737Y-42396500D01*
X135693666Y-42396500D01*
X135760705Y-42416185D01*
X135781347Y-42432819D01*
X136426190Y-43077662D01*
X136306622Y-43090230D01*
X136121696Y-43150316D01*
X135953304Y-43247537D01*
X135808805Y-43377645D01*
X135694514Y-43534952D01*
X135615427Y-43712585D01*
X135575000Y-43902779D01*
X135575000Y-43923527D01*
X134809301Y-43157828D01*
X134809301Y-43157829D01*
X134778684Y-43213900D01*
X134778682Y-43213905D01*
X134684329Y-43466876D01*
X134626940Y-43730689D01*
X134607679Y-43999998D01*
X134607679Y-44000001D01*
X134626940Y-44269310D01*
X134684329Y-44533123D01*
X134778684Y-44786100D01*
X134778686Y-44786104D01*
X134809300Y-44842169D01*
X134809301Y-44842169D01*
X135575000Y-44076471D01*
X135575000Y-44097221D01*
X135615427Y-44287415D01*
X135694514Y-44465047D01*
X135808805Y-44622355D01*
X135953304Y-44752463D01*
X136121696Y-44849684D01*
X136306622Y-44909770D01*
X136426190Y-44922337D01*
X135657828Y-45690698D01*
X135713900Y-45721315D01*
X135713905Y-45721317D01*
X135966876Y-45815670D01*
X136230689Y-45873059D01*
X136499999Y-45892321D01*
X136500001Y-45892321D01*
X136769310Y-45873059D01*
X137033123Y-45815670D01*
X137286100Y-45721315D01*
X137286104Y-45721313D01*
X137342169Y-45690698D01*
X137342170Y-45690698D01*
X136573809Y-44922337D01*
X136693378Y-44909770D01*
X136878304Y-44849684D01*
X137046696Y-44752463D01*
X137191195Y-44622355D01*
X137305486Y-44465048D01*
X137384573Y-44287415D01*
X137425000Y-44097221D01*
X137425000Y-44076472D01*
X138190698Y-44842170D01*
X138190698Y-44842169D01*
X138221313Y-44786104D01*
X138221315Y-44786100D01*
X138315670Y-44533123D01*
X138373059Y-44269310D01*
X138392321Y-44000001D01*
X138392321Y-43999998D01*
X138373059Y-43730689D01*
X138315670Y-43466876D01*
X138221317Y-43213905D01*
X138221315Y-43213900D01*
X138190698Y-43157828D01*
X137425000Y-43923526D01*
X137425000Y-43902779D01*
X137384573Y-43712585D01*
X137305486Y-43534953D01*
X137191195Y-43377645D01*
X137046696Y-43247537D01*
X136878304Y-43150316D01*
X136693378Y-43090230D01*
X136573809Y-43077662D01*
X137222077Y-42429393D01*
X137268801Y-42400034D01*
X137349522Y-42371789D01*
X137502262Y-42275816D01*
X137629816Y-42148262D01*
X137725789Y-41995522D01*
X137785368Y-41825255D01*
X137785997Y-41819673D01*
X137805565Y-41646003D01*
X137805565Y-41645996D01*
X137785369Y-41466750D01*
X137785368Y-41466745D01*
X137769121Y-41420313D01*
X137725789Y-41296478D01*
X137705008Y-41263406D01*
X137629815Y-41143737D01*
X137541651Y-41055573D01*
X137508166Y-40994250D01*
X137513150Y-40924558D01*
X137555022Y-40868625D01*
X137739527Y-40730506D01*
X137739527Y-40730505D01*
X137739535Y-40730500D01*
X137930500Y-40539535D01*
X138092344Y-40323337D01*
X138221772Y-40086307D01*
X138316150Y-39833270D01*
X138373557Y-39569377D01*
X138392823Y-39300000D01*
X138373557Y-39030623D01*
X138367300Y-39001862D01*
X138316151Y-38766736D01*
X138316150Y-38766730D01*
X138221772Y-38513693D01*
X138148393Y-38379310D01*
X138092347Y-38276668D01*
X138092342Y-38276660D01*
X137930506Y-38060472D01*
X137930490Y-38060454D01*
X137739545Y-37869509D01*
X137739527Y-37869493D01*
X137523339Y-37707657D01*
X137523331Y-37707652D01*
X137315073Y-37593935D01*
X137265668Y-37544530D01*
X137250500Y-37485103D01*
X137250500Y-34111229D01*
X137270185Y-34044190D01*
X137322989Y-33998435D01*
X137392147Y-33988491D01*
X137455703Y-34017516D01*
X137462181Y-34023548D01*
X139213181Y-35774548D01*
X139246666Y-35835871D01*
X139249500Y-35862229D01*
X139249500Y-44685769D01*
X139229815Y-44752808D01*
X139213181Y-44773450D01*
X137138239Y-46848391D01*
X137076916Y-46881876D01*
X137024200Y-46881876D01*
X136769382Y-46826443D01*
X136500001Y-46807177D01*
X136499999Y-46807177D01*
X136230617Y-46826443D01*
X135966736Y-46883848D01*
X135966731Y-46883849D01*
X135966730Y-46883850D01*
X135916103Y-46902733D01*
X135713691Y-46978228D01*
X135713687Y-46978230D01*
X135476668Y-47107652D01*
X135476660Y-47107657D01*
X135260472Y-47269493D01*
X135260454Y-47269509D01*
X135069509Y-47460454D01*
X135069493Y-47460472D01*
X134907657Y-47676660D01*
X134907652Y-47676668D01*
X134778230Y-47913687D01*
X134778228Y-47913691D01*
X134683848Y-48166736D01*
X134626443Y-48430617D01*
X134607177Y-48699998D01*
X134607177Y-48700001D01*
X134626443Y-48969382D01*
X134683848Y-49233263D01*
X134683850Y-49233270D01*
X134720300Y-49330996D01*
X134778228Y-49486308D01*
X134778230Y-49486312D01*
X134907652Y-49723331D01*
X134907657Y-49723339D01*
X135069493Y-49939527D01*
X135069509Y-49939545D01*
X135260454Y-50130490D01*
X135260472Y-50130506D01*
X135476660Y-50292342D01*
X135476668Y-50292347D01*
X135713687Y-50421769D01*
X135713691Y-50421771D01*
X135713693Y-50421772D01*
X135966730Y-50516150D01*
X136098676Y-50544853D01*
X136230617Y-50573556D01*
X136230619Y-50573556D01*
X136230623Y-50573557D01*
X136470007Y-50590677D01*
X136499999Y-50592823D01*
X136500000Y-50592823D01*
X136500001Y-50592823D01*
X136526987Y-50590892D01*
X136769377Y-50573557D01*
X137033270Y-50516150D01*
X137286307Y-50421772D01*
X137523337Y-50292344D01*
X137739535Y-50130500D01*
X137930500Y-49939535D01*
X138092344Y-49723337D01*
X138221772Y-49486307D01*
X138316150Y-49233270D01*
X138373557Y-48969377D01*
X138392823Y-48700000D01*
X138373557Y-48430623D01*
X138316150Y-48166730D01*
X138242529Y-47969347D01*
X138237546Y-47899657D01*
X138271029Y-47838336D01*
X139304696Y-46804670D01*
X139366017Y-46771187D01*
X139435709Y-46776171D01*
X139475179Y-46800053D01*
X139600897Y-46912840D01*
X139600901Y-46912842D01*
X139761928Y-47003884D01*
X139761930Y-47003885D01*
X139761936Y-47003888D01*
X139850359Y-47031037D01*
X139938774Y-47058185D01*
X139938777Y-47058185D01*
X139938782Y-47058187D01*
X140123167Y-47073201D01*
X140306468Y-47048227D01*
X140480116Y-46984432D01*
X140635989Y-46884800D01*
X143713470Y-43807319D01*
X143774793Y-43773834D01*
X143801151Y-43771000D01*
X144324982Y-43771000D01*
X144392021Y-43790685D01*
X144416208Y-43811014D01*
X144548216Y-43954413D01*
X144548219Y-43954415D01*
X144548222Y-43954418D01*
X144731365Y-44096964D01*
X144731371Y-44096968D01*
X144731374Y-44096970D01*
X144935497Y-44207436D01*
X145049487Y-44246568D01*
X145155015Y-44282797D01*
X145155017Y-44282797D01*
X145155019Y-44282798D01*
X145383951Y-44321000D01*
X145383952Y-44321000D01*
X145616048Y-44321000D01*
X145616049Y-44321000D01*
X145844981Y-44282798D01*
X146064503Y-44207436D01*
X146268626Y-44096970D01*
X146297888Y-44074195D01*
X146393212Y-44000001D01*
X146451784Y-43954413D01*
X146608979Y-43783653D01*
X146735924Y-43589349D01*
X146829157Y-43376800D01*
X146886134Y-43151805D01*
X146886162Y-43151472D01*
X146905300Y-42920506D01*
X146905300Y-42920493D01*
X146886135Y-42689202D01*
X146886133Y-42689191D01*
X146829157Y-42464199D01*
X146735924Y-42251651D01*
X146608983Y-42057352D01*
X146608980Y-42057349D01*
X146608979Y-42057347D01*
X146487128Y-41924980D01*
X146456207Y-41862328D01*
X146464067Y-41792902D01*
X146487127Y-41757020D01*
X146608979Y-41624653D01*
X146735924Y-41430349D01*
X146829157Y-41217800D01*
X146886134Y-40992805D01*
X146889198Y-40955828D01*
X146905300Y-40761506D01*
X146905300Y-40761493D01*
X146886135Y-40530202D01*
X146886133Y-40530191D01*
X146829157Y-40305199D01*
X146735924Y-40092651D01*
X146608983Y-39898352D01*
X146608980Y-39898349D01*
X146608979Y-39898347D01*
X146451784Y-39727587D01*
X146451779Y-39727583D01*
X146451777Y-39727581D01*
X146268634Y-39585035D01*
X146268628Y-39585031D01*
X146064504Y-39474564D01*
X146064495Y-39474561D01*
X145844984Y-39399202D01*
X145673282Y-39370550D01*
X145616049Y-39361000D01*
X145383951Y-39361000D01*
X145338164Y-39368640D01*
X145155015Y-39399202D01*
X144935504Y-39474561D01*
X144935495Y-39474564D01*
X144731371Y-39585031D01*
X144731365Y-39585035D01*
X144548222Y-39727581D01*
X144548219Y-39727584D01*
X144391016Y-39898352D01*
X144264075Y-40092651D01*
X144170842Y-40305199D01*
X144113866Y-40530191D01*
X144113864Y-40530202D01*
X144094700Y-40761493D01*
X144094700Y-40766628D01*
X144093574Y-40766628D01*
X144080603Y-40829690D01*
X144031761Y-40879652D01*
X143971104Y-40895500D01*
X141299972Y-40895500D01*
X141259017Y-40888542D01*
X141179254Y-40860631D01*
X141179249Y-40860630D01*
X141000004Y-40840435D01*
X140999996Y-40840435D01*
X140888383Y-40853010D01*
X140819561Y-40840955D01*
X140768182Y-40793606D01*
X140750500Y-40729790D01*
X140750500Y-37400000D01*
X144150000Y-37400000D01*
X144150000Y-37697844D01*
X144156401Y-37757372D01*
X144156403Y-37757379D01*
X144206645Y-37892086D01*
X144206649Y-37892093D01*
X144292809Y-38007187D01*
X144292812Y-38007190D01*
X144407906Y-38093350D01*
X144407913Y-38093354D01*
X144542620Y-38143596D01*
X144542627Y-38143598D01*
X144602155Y-38149999D01*
X144602172Y-38150000D01*
X144900000Y-38150000D01*
X144900000Y-37400000D01*
X146100000Y-37400000D01*
X146100000Y-38150000D01*
X146397828Y-38150000D01*
X146397844Y-38149999D01*
X146457372Y-38143598D01*
X146457379Y-38143596D01*
X146592086Y-38093354D01*
X146592093Y-38093350D01*
X146707187Y-38007190D01*
X146707190Y-38007187D01*
X146793350Y-37892093D01*
X146793354Y-37892086D01*
X146843596Y-37757379D01*
X146843598Y-37757372D01*
X146849999Y-37697844D01*
X146850000Y-37697827D01*
X146850000Y-37400000D01*
X146100000Y-37400000D01*
X144900000Y-37400000D01*
X144150000Y-37400000D01*
X140750500Y-37400000D01*
X140750500Y-36871889D01*
X145000000Y-36871889D01*
X145040507Y-37009844D01*
X145118239Y-37130798D01*
X145226900Y-37224952D01*
X145357685Y-37284680D01*
X145464237Y-37300000D01*
X145535763Y-37300000D01*
X145642315Y-37284680D01*
X145773100Y-37224952D01*
X145881761Y-37130798D01*
X145959493Y-37009844D01*
X146000000Y-36871889D01*
X146000000Y-36728111D01*
X145959493Y-36590156D01*
X145881761Y-36469202D01*
X145773100Y-36375048D01*
X145642315Y-36315320D01*
X145535763Y-36300000D01*
X145464237Y-36300000D01*
X145357685Y-36315320D01*
X145226900Y-36375048D01*
X145118239Y-36469202D01*
X145040507Y-36590156D01*
X145000000Y-36728111D01*
X145000000Y-36871889D01*
X140750500Y-36871889D01*
X140750500Y-35563705D01*
X140751809Y-35545735D01*
X140753542Y-35533903D01*
X140755289Y-35521977D01*
X140750972Y-35472630D01*
X140750500Y-35461822D01*
X140750500Y-35456296D01*
X140750500Y-35456291D01*
X140746901Y-35425509D01*
X140746536Y-35421929D01*
X140739999Y-35347201D01*
X140738539Y-35340129D01*
X140738597Y-35340116D01*
X140736965Y-35332757D01*
X140736906Y-35332772D01*
X140735241Y-35325751D01*
X140735241Y-35325745D01*
X140709569Y-35255212D01*
X140708421Y-35251909D01*
X140684814Y-35180666D01*
X140684810Y-35180659D01*
X140681760Y-35174118D01*
X140681815Y-35174091D01*
X140678533Y-35167313D01*
X140678480Y-35167340D01*
X140675235Y-35160880D01*
X140634025Y-35098223D01*
X140632086Y-35095181D01*
X140592710Y-35031342D01*
X140588234Y-35025682D01*
X140588281Y-35025644D01*
X140583519Y-35019799D01*
X140583474Y-35019838D01*
X140578831Y-35014305D01*
X140524272Y-34962831D01*
X140521685Y-34960318D01*
X139128285Y-33566917D01*
X139094800Y-33505594D01*
X139099784Y-33435902D01*
X139141656Y-33379969D01*
X139207120Y-33355552D01*
X139234013Y-33356556D01*
X139362731Y-33375500D01*
X139362736Y-33375500D01*
X139568545Y-33375500D01*
X139568547Y-33375500D01*
X139568552Y-33375499D01*
X139568564Y-33375499D01*
X139606614Y-33372713D01*
X139773805Y-33360477D01*
X140041775Y-33300784D01*
X140298198Y-33202711D01*
X140537609Y-33068347D01*
X140754904Y-32900557D01*
X140945454Y-32702916D01*
X141105196Y-32479637D01*
X141214503Y-32267033D01*
X141262661Y-32216415D01*
X141330543Y-32199867D01*
X141396595Y-32222646D01*
X141419771Y-32244029D01*
X141421172Y-32245698D01*
X141475707Y-32297149D01*
X141478295Y-32299663D01*
X143924270Y-34745638D01*
X143936051Y-34759270D01*
X143950388Y-34778528D01*
X143988337Y-34810372D01*
X143996310Y-34817679D01*
X144000217Y-34821586D01*
X144000223Y-34821591D01*
X144024537Y-34840816D01*
X144027318Y-34843080D01*
X144054956Y-34866271D01*
X144084789Y-34891305D01*
X144090818Y-34895270D01*
X144090785Y-34895319D01*
X144097147Y-34899372D01*
X144097179Y-34899321D01*
X144103319Y-34903108D01*
X144103323Y-34903111D01*
X144141977Y-34921135D01*
X144171320Y-34934819D01*
X144174566Y-34936391D01*
X144241562Y-34970038D01*
X144248357Y-34972511D01*
X144248336Y-34972567D01*
X144255457Y-34975043D01*
X144255476Y-34974986D01*
X144262319Y-34977253D01*
X144262327Y-34977257D01*
X144320748Y-34989319D01*
X144382420Y-35022151D01*
X144397247Y-35039633D01*
X144438273Y-35098223D01*
X144461505Y-35131401D01*
X144461508Y-35131404D01*
X144583818Y-35253714D01*
X144617303Y-35315037D01*
X144612319Y-35384729D01*
X144570447Y-35440662D01*
X144539471Y-35457577D01*
X144407912Y-35506646D01*
X144407906Y-35506649D01*
X144292812Y-35592809D01*
X144292809Y-35592812D01*
X144206649Y-35707906D01*
X144206645Y-35707913D01*
X144156403Y-35842620D01*
X144156401Y-35842627D01*
X144150000Y-35902155D01*
X144150000Y-36200000D01*
X146850000Y-36200000D01*
X146850000Y-35902172D01*
X146849999Y-35902155D01*
X146843598Y-35842627D01*
X146843596Y-35842620D01*
X146793354Y-35707913D01*
X146793350Y-35707906D01*
X146707190Y-35592812D01*
X146707187Y-35592809D01*
X146592093Y-35506649D01*
X146592088Y-35506646D01*
X146460528Y-35457577D01*
X146404595Y-35415705D01*
X146380178Y-35350241D01*
X146395030Y-35281968D01*
X146416175Y-35253720D01*
X146538495Y-35131401D01*
X146674035Y-34937830D01*
X146773903Y-34723663D01*
X146835063Y-34495408D01*
X146855659Y-34260000D01*
X146835063Y-34024592D01*
X146773903Y-33796337D01*
X146674035Y-33582171D01*
X146620416Y-33505594D01*
X146538494Y-33388597D01*
X146371402Y-33221506D01*
X146371396Y-33221501D01*
X146185842Y-33091575D01*
X146142217Y-33036998D01*
X146135023Y-32967500D01*
X146166546Y-32905145D01*
X146185842Y-32888425D01*
X146304665Y-32805224D01*
X146371401Y-32758495D01*
X146538495Y-32591401D01*
X146674035Y-32397830D01*
X146773903Y-32183663D01*
X146835063Y-31955408D01*
X146855659Y-31720000D01*
X146835063Y-31484592D01*
X146773903Y-31256337D01*
X146674035Y-31042171D01*
X146661563Y-31024358D01*
X146538494Y-30848597D01*
X146371402Y-30681506D01*
X146371396Y-30681501D01*
X146185842Y-30551575D01*
X146142217Y-30496998D01*
X146135023Y-30427500D01*
X146166546Y-30365145D01*
X146185842Y-30348425D01*
X146263313Y-30294179D01*
X146371401Y-30218495D01*
X146538495Y-30051401D01*
X146674035Y-29857830D01*
X146773903Y-29643663D01*
X146835063Y-29415408D01*
X146855659Y-29180000D01*
X146835063Y-28944592D01*
X146773903Y-28716337D01*
X146674035Y-28502171D01*
X146634899Y-28446278D01*
X146538494Y-28308597D01*
X146371402Y-28141506D01*
X146371395Y-28141501D01*
X146177834Y-28005967D01*
X146177830Y-28005965D01*
X146139804Y-27988233D01*
X145963663Y-27906097D01*
X145963659Y-27906096D01*
X145963655Y-27906094D01*
X145735413Y-27844938D01*
X145735403Y-27844936D01*
X145500001Y-27824341D01*
X145499999Y-27824341D01*
X145264596Y-27844936D01*
X145264586Y-27844938D01*
X145036344Y-27906094D01*
X145036323Y-27906102D01*
X145033797Y-27907280D01*
X145032581Y-27907464D01*
X145031256Y-27907947D01*
X145031158Y-27907680D01*
X144964719Y-27917764D01*
X144900938Y-27889237D01*
X144862706Y-27830756D01*
X144862159Y-27760888D01*
X144863465Y-27756604D01*
X144885674Y-27688256D01*
X144905460Y-27500000D01*
X144885674Y-27311744D01*
X144827179Y-27131716D01*
X144800413Y-27085355D01*
X144767113Y-27027677D01*
X144750500Y-26965677D01*
X144750500Y-26263705D01*
X144751809Y-26245736D01*
X144754362Y-26228303D01*
X144755289Y-26221977D01*
X144754636Y-26214517D01*
X144750972Y-26172630D01*
X144750500Y-26161822D01*
X144750500Y-26156296D01*
X144750500Y-26156291D01*
X144746901Y-26125509D01*
X144746536Y-26121929D01*
X144739999Y-26047201D01*
X144738539Y-26040129D01*
X144738597Y-26040116D01*
X144736965Y-26032757D01*
X144736906Y-26032772D01*
X144735241Y-26025751D01*
X144735241Y-26025745D01*
X144709569Y-25955212D01*
X144708407Y-25951866D01*
X144702769Y-25934851D01*
X144700368Y-25865022D01*
X144736100Y-25804981D01*
X144798621Y-25773789D01*
X144849070Y-25775190D01*
X144914225Y-25790633D01*
X145004162Y-25811949D01*
X145004167Y-25811949D01*
X145004177Y-25811952D01*
X145333977Y-25850500D01*
X145333984Y-25850500D01*
X145666016Y-25850500D01*
X145666023Y-25850500D01*
X145995823Y-25811952D01*
X145995832Y-25811949D01*
X145995838Y-25811949D01*
X146257219Y-25750000D01*
X146318918Y-25735377D01*
X146630939Y-25621811D01*
X146927666Y-25472789D01*
X147205085Y-25290327D01*
X147459447Y-25076893D01*
X147687310Y-24835371D01*
X147687322Y-24835354D01*
X147687327Y-24835349D01*
X147776037Y-24716191D01*
X147831859Y-24674171D01*
X147901537Y-24669002D01*
X147962949Y-24702325D01*
X147996596Y-24763559D01*
X147999500Y-24790238D01*
X147999500Y-49209761D01*
X147979815Y-49276800D01*
X147927011Y-49322555D01*
X147857853Y-49332499D01*
X147794297Y-49303474D01*
X147776037Y-49283809D01*
X147687321Y-49164643D01*
X147687314Y-49164635D01*
X147687310Y-49164629D01*
X147459447Y-48923107D01*
X147297153Y-48786926D01*
X147205087Y-48709674D01*
X147205079Y-48709668D01*
X146927672Y-48527214D01*
X146728864Y-48427368D01*
X146677790Y-48379690D01*
X146660601Y-48311968D01*
X146682754Y-48245703D01*
X146685252Y-48242244D01*
X146693796Y-48230831D01*
X146744091Y-48095983D01*
X146750500Y-48036373D01*
X146750499Y-46440628D01*
X146744091Y-46381017D01*
X146743422Y-46379224D01*
X146693797Y-46246171D01*
X146693793Y-46246164D01*
X146607548Y-46130957D01*
X146607546Y-46130954D01*
X146607542Y-46130951D01*
X146601807Y-46125215D01*
X146568325Y-46063890D01*
X146573312Y-45994199D01*
X146598269Y-45953547D01*
X146608581Y-45942346D01*
X146608584Y-45942342D01*
X146735482Y-45748111D01*
X146828682Y-45535635D01*
X146885638Y-45310718D01*
X146904798Y-45079505D01*
X146904798Y-45079494D01*
X146885638Y-44848281D01*
X146828682Y-44623364D01*
X146828680Y-44623360D01*
X146821359Y-44606667D01*
X145587680Y-45840346D01*
X145526357Y-45873831D01*
X145456665Y-45868847D01*
X145412318Y-45840346D01*
X144617465Y-45045492D01*
X145046190Y-45045492D01*
X145056327Y-45180765D01*
X145105887Y-45307041D01*
X145190465Y-45413099D01*
X145302547Y-45489516D01*
X145432173Y-45529500D01*
X145533724Y-45529500D01*
X145634138Y-45514365D01*
X145756357Y-45455507D01*
X145855798Y-45363240D01*
X145923625Y-45245760D01*
X145953810Y-45113508D01*
X145943673Y-44978235D01*
X145894113Y-44851959D01*
X145809535Y-44745901D01*
X145697453Y-44669484D01*
X145567827Y-44629500D01*
X145466276Y-44629500D01*
X145365862Y-44644635D01*
X145243643Y-44703493D01*
X145144202Y-44795760D01*
X145076375Y-44913240D01*
X145046190Y-45045492D01*
X144617465Y-45045492D01*
X144178640Y-44606667D01*
X144171318Y-44623361D01*
X144114361Y-44848281D01*
X144095202Y-45079494D01*
X144095202Y-45079505D01*
X144114361Y-45310718D01*
X144171317Y-45535635D01*
X144264516Y-45748109D01*
X144391417Y-45942346D01*
X144401738Y-45953558D01*
X144432659Y-46016213D01*
X144424796Y-46085639D01*
X144398195Y-46125212D01*
X144392452Y-46130955D01*
X144306206Y-46246164D01*
X144306202Y-46246171D01*
X144255908Y-46381017D01*
X144249501Y-46440616D01*
X144249501Y-46440623D01*
X144249500Y-46440635D01*
X144249500Y-48036370D01*
X144249501Y-48036376D01*
X144255908Y-48095983D01*
X144306202Y-48230828D01*
X144306204Y-48230831D01*
X144314750Y-48242247D01*
X144339168Y-48307711D01*
X144324317Y-48375985D01*
X144274912Y-48425390D01*
X144271135Y-48427369D01*
X144072330Y-48527212D01*
X143794920Y-48709668D01*
X143794912Y-48709674D01*
X143588936Y-48882508D01*
X143540553Y-48923107D01*
X143312690Y-49164629D01*
X143312687Y-49164632D01*
X143312685Y-49164635D01*
X143312678Y-49164643D01*
X143114406Y-49430968D01*
X142948385Y-49718525D01*
X142948379Y-49718538D01*
X142816866Y-50023419D01*
X142721634Y-50341518D01*
X142721631Y-50341532D01*
X142663977Y-50668504D01*
X142663976Y-50668515D01*
X142644669Y-50999996D01*
X142644669Y-51000003D01*
X142663976Y-51331484D01*
X142663977Y-51331495D01*
X142721631Y-51658467D01*
X142721634Y-51658481D01*
X142816866Y-51976580D01*
X142948379Y-52281461D01*
X142948385Y-52281474D01*
X143114406Y-52569031D01*
X143312678Y-52835356D01*
X143312683Y-52835362D01*
X143312690Y-52835371D01*
X143540553Y-53076893D01*
X143710724Y-53219683D01*
X143783216Y-53280511D01*
X143821918Y-53338682D01*
X143823026Y-53408543D01*
X143786189Y-53467913D01*
X143723102Y-53497942D01*
X143703510Y-53499500D01*
X129296490Y-53499500D01*
X129229451Y-53479815D01*
X129183696Y-53427011D01*
X129173752Y-53357853D01*
X129202777Y-53294297D01*
X129216784Y-53280511D01*
X129267341Y-53238087D01*
X129459447Y-53076893D01*
X129687310Y-52835371D01*
X129885594Y-52569030D01*
X130051617Y-52281470D01*
X130183133Y-51976581D01*
X130278365Y-51658485D01*
X130336024Y-51331484D01*
X130355331Y-51000000D01*
X130336024Y-50668516D01*
X130278365Y-50341515D01*
X130183133Y-50023419D01*
X130051617Y-49718530D01*
X129917546Y-49486312D01*
X129885593Y-49430968D01*
X129687321Y-49164643D01*
X129687314Y-49164635D01*
X129687310Y-49164629D01*
X129459447Y-48923107D01*
X129297153Y-48786926D01*
X129205087Y-48709674D01*
X129205079Y-48709668D01*
X128927672Y-48527214D01*
X128728864Y-48427368D01*
X128677790Y-48379690D01*
X128660601Y-48311968D01*
X128682754Y-48245703D01*
X128685252Y-48242244D01*
X128693796Y-48230831D01*
X128744091Y-48095983D01*
X128750500Y-48036373D01*
X128750499Y-46440628D01*
X128744091Y-46381017D01*
X128743422Y-46379224D01*
X128693797Y-46246171D01*
X128693793Y-46246164D01*
X128607548Y-46130957D01*
X128607546Y-46130954D01*
X128607542Y-46130951D01*
X128601807Y-46125215D01*
X128568325Y-46063890D01*
X128573312Y-45994199D01*
X128598269Y-45953547D01*
X128608581Y-45942346D01*
X128608584Y-45942342D01*
X128735482Y-45748111D01*
X128828682Y-45535635D01*
X128885638Y-45310718D01*
X128904798Y-45079505D01*
X128904798Y-45079494D01*
X128885638Y-44848281D01*
X128828682Y-44623364D01*
X128828680Y-44623360D01*
X128821359Y-44606667D01*
X127587680Y-45840346D01*
X127526357Y-45873831D01*
X127456665Y-45868847D01*
X127412318Y-45840346D01*
X126617465Y-45045492D01*
X127046190Y-45045492D01*
X127056327Y-45180765D01*
X127105887Y-45307041D01*
X127190465Y-45413099D01*
X127302547Y-45489516D01*
X127432173Y-45529500D01*
X127533724Y-45529500D01*
X127634138Y-45514365D01*
X127756357Y-45455507D01*
X127855798Y-45363240D01*
X127923625Y-45245760D01*
X127953810Y-45113508D01*
X127943673Y-44978235D01*
X127894113Y-44851959D01*
X127809535Y-44745901D01*
X127697453Y-44669484D01*
X127567827Y-44629500D01*
X127466276Y-44629500D01*
X127365862Y-44644635D01*
X127243643Y-44703493D01*
X127144202Y-44795760D01*
X127076375Y-44913240D01*
X127046190Y-45045492D01*
X126617465Y-45045492D01*
X126178640Y-44606667D01*
X126171318Y-44623361D01*
X126114361Y-44848281D01*
X126095202Y-45079494D01*
X126095202Y-45079505D01*
X126114361Y-45310718D01*
X126171317Y-45535635D01*
X126264516Y-45748109D01*
X126391417Y-45942346D01*
X126401738Y-45953558D01*
X126432659Y-46016213D01*
X126424796Y-46085639D01*
X126398195Y-46125212D01*
X126392452Y-46130955D01*
X126306206Y-46246164D01*
X126306202Y-46246171D01*
X126255908Y-46381017D01*
X126249501Y-46440616D01*
X126249501Y-46440623D01*
X126249500Y-46440635D01*
X126249500Y-48036370D01*
X126249501Y-48036376D01*
X126255908Y-48095983D01*
X126306202Y-48230828D01*
X126306204Y-48230831D01*
X126314750Y-48242247D01*
X126339168Y-48307711D01*
X126324317Y-48375985D01*
X126274912Y-48425390D01*
X126271135Y-48427369D01*
X126072330Y-48527212D01*
X125794920Y-48709668D01*
X125794912Y-48709674D01*
X125588936Y-48882508D01*
X125540553Y-48923107D01*
X125312690Y-49164629D01*
X125312687Y-49164632D01*
X125312685Y-49164635D01*
X125312678Y-49164643D01*
X125223963Y-49283809D01*
X125168140Y-49325828D01*
X125098462Y-49330996D01*
X125037051Y-49297674D01*
X125003404Y-49236439D01*
X125000500Y-49209761D01*
X125000500Y-25050001D01*
X125469500Y-25050001D01*
X125469501Y-25050019D01*
X125480000Y-25152796D01*
X125480001Y-25152799D01*
X125490218Y-25183630D01*
X125535186Y-25319334D01*
X125601039Y-25426099D01*
X125619500Y-25491195D01*
X125619500Y-26182631D01*
X125613206Y-26221634D01*
X125557651Y-26389288D01*
X125547500Y-26488647D01*
X125547500Y-27085337D01*
X125547501Y-27085355D01*
X125557650Y-27184707D01*
X125557651Y-27184710D01*
X125613206Y-27352362D01*
X125619500Y-27391366D01*
X125619500Y-27430892D01*
X125619091Y-27440956D01*
X125614798Y-27493664D01*
X125625502Y-27572232D01*
X125625910Y-27575562D01*
X125634486Y-27654412D01*
X125634710Y-27655430D01*
X125639525Y-27675973D01*
X125639774Y-27676971D01*
X125667113Y-27751391D01*
X125668227Y-27754553D01*
X125683580Y-27800114D01*
X125693556Y-27829721D01*
X125693557Y-27829723D01*
X125693558Y-27829725D01*
X125694001Y-27830685D01*
X125703146Y-27849766D01*
X125703564Y-27850609D01*
X125703567Y-27850614D01*
X125703568Y-27850616D01*
X125746267Y-27917418D01*
X125748036Y-27920271D01*
X125788927Y-27988233D01*
X125789538Y-27989036D01*
X125802578Y-28005716D01*
X125803197Y-28006486D01*
X125803199Y-28006488D01*
X125803200Y-28006489D01*
X125859302Y-28062591D01*
X125861572Y-28064923D01*
X125916151Y-28122541D01*
X125916155Y-28122545D01*
X125916950Y-28123220D01*
X125934118Y-28137407D01*
X126208631Y-28411920D01*
X126463181Y-28666469D01*
X126496666Y-28727792D01*
X126499500Y-28754150D01*
X126499500Y-28867181D01*
X126509563Y-28965683D01*
X126562450Y-29125284D01*
X126562455Y-29125295D01*
X126650716Y-29268387D01*
X126650719Y-29268391D01*
X126769608Y-29387280D01*
X126769612Y-29387283D01*
X126912704Y-29475544D01*
X126912707Y-29475545D01*
X126912713Y-29475549D01*
X127072315Y-29528436D01*
X127170826Y-29538500D01*
X127170831Y-29538500D01*
X127277108Y-29538500D01*
X127344147Y-29558185D01*
X127389902Y-29610989D01*
X127399846Y-29680147D01*
X127370821Y-29743703D01*
X127321404Y-29778318D01*
X127271801Y-29797289D01*
X127032392Y-29931652D01*
X127032387Y-29931655D01*
X126815097Y-30099441D01*
X126815088Y-30099450D01*
X126624549Y-30297080D01*
X126624547Y-30297082D01*
X126464805Y-30520361D01*
X126464802Y-30520366D01*
X126339275Y-30764515D01*
X126339271Y-30764525D01*
X126250632Y-31024344D01*
X126250629Y-31024358D01*
X126200765Y-31294314D01*
X126200763Y-31294334D01*
X126190737Y-31568678D01*
X126220762Y-31841559D01*
X126220763Y-31841569D01*
X126290202Y-32107178D01*
X126369978Y-32294908D01*
X126397577Y-32359852D01*
X126511587Y-32546664D01*
X126540592Y-32594191D01*
X126540599Y-32594201D01*
X126716199Y-32805207D01*
X126716204Y-32805212D01*
X126716209Y-32805218D01*
X126716216Y-32805224D01*
X126920672Y-32988419D01*
X126920674Y-32988420D01*
X126920677Y-32988423D01*
X127149641Y-33139904D01*
X127398221Y-33256433D01*
X127661119Y-33335527D01*
X127932731Y-33375500D01*
X127932736Y-33375500D01*
X128138545Y-33375500D01*
X128138547Y-33375500D01*
X128138552Y-33375499D01*
X128138564Y-33375499D01*
X128176614Y-33372713D01*
X128343805Y-33360477D01*
X128611775Y-33300784D01*
X128868198Y-33202711D01*
X129107609Y-33068347D01*
X129324904Y-32900557D01*
X129515454Y-32702916D01*
X129675196Y-32479637D01*
X129800727Y-32235479D01*
X129889370Y-31975646D01*
X129939236Y-31705674D01*
X129949262Y-31431320D01*
X129919236Y-31158429D01*
X129849796Y-30892818D01*
X129742423Y-30640148D01*
X129599405Y-30405804D01*
X129557354Y-30355274D01*
X129423800Y-30194792D01*
X129423795Y-30194787D01*
X129423791Y-30194782D01*
X129352990Y-30131344D01*
X129219327Y-30011580D01*
X129219324Y-30011578D01*
X129219323Y-30011577D01*
X128990359Y-29860096D01*
X128741779Y-29743567D01*
X128594362Y-29699216D01*
X128478879Y-29664472D01*
X128337425Y-29643655D01*
X128207269Y-29624500D01*
X128158036Y-29624500D01*
X128090997Y-29604815D01*
X128045242Y-29552011D01*
X128035298Y-29482853D01*
X128064323Y-29419297D01*
X128092936Y-29394962D01*
X128105391Y-29387281D01*
X128224281Y-29268391D01*
X128312549Y-29125287D01*
X128365436Y-28965685D01*
X128375499Y-28867181D01*
X128624500Y-28867181D01*
X128634563Y-28965683D01*
X128687450Y-29125284D01*
X128687455Y-29125295D01*
X128775716Y-29268387D01*
X128775719Y-29268391D01*
X128894608Y-29387280D01*
X128894612Y-29387283D01*
X129037704Y-29475544D01*
X129037707Y-29475545D01*
X129037713Y-29475549D01*
X129197315Y-29528436D01*
X129295826Y-29538500D01*
X129295831Y-29538500D01*
X129829169Y-29538500D01*
X129829174Y-29538500D01*
X129927685Y-29528436D01*
X130087287Y-29475549D01*
X130230391Y-29387281D01*
X130293853Y-29323819D01*
X130355176Y-29290334D01*
X130381534Y-29287500D01*
X130652496Y-29287500D01*
X130719535Y-29307185D01*
X130765290Y-29359989D01*
X130775234Y-29429147D01*
X130751762Y-29485812D01*
X130706204Y-29546668D01*
X130706202Y-29546671D01*
X130655908Y-29681517D01*
X130649501Y-29741116D01*
X130649501Y-29741123D01*
X130649500Y-29741135D01*
X130649500Y-30736870D01*
X130649501Y-30736876D01*
X130655908Y-30796483D01*
X130706202Y-30931328D01*
X130706206Y-30931335D01*
X130792452Y-31046544D01*
X130792455Y-31046547D01*
X130907664Y-31132793D01*
X130907671Y-31132797D01*
X131042517Y-31183091D01*
X131042516Y-31183091D01*
X131049444Y-31183835D01*
X131102127Y-31189500D01*
X132497872Y-31189499D01*
X132557483Y-31183091D01*
X132692331Y-31132796D01*
X132807546Y-31046546D01*
X132893796Y-30931331D01*
X132944091Y-30796483D01*
X132950500Y-30736873D01*
X132950499Y-29741128D01*
X132944091Y-29681517D01*
X132929972Y-29643663D01*
X132893797Y-29546671D01*
X132893793Y-29546664D01*
X132807547Y-29431455D01*
X132807544Y-29431452D01*
X132692335Y-29345206D01*
X132692332Y-29345205D01*
X132692331Y-29345204D01*
X132681161Y-29341038D01*
X132625231Y-29299166D01*
X132600816Y-29233701D01*
X132600500Y-29224858D01*
X132600500Y-29048855D01*
X132610487Y-29003802D01*
X132609731Y-29003552D01*
X132612001Y-28996698D01*
X132612003Y-28996697D01*
X132665349Y-28835708D01*
X132675500Y-28736345D01*
X132675499Y-28139656D01*
X132665349Y-28040292D01*
X132612003Y-27879303D01*
X132611999Y-27879297D01*
X132611998Y-27879294D01*
X132522970Y-27734959D01*
X132522967Y-27734955D01*
X132403044Y-27615032D01*
X132403040Y-27615029D01*
X132258705Y-27526001D01*
X132258699Y-27525998D01*
X132258697Y-27525997D01*
X132258694Y-27525996D01*
X132097709Y-27472651D01*
X131998346Y-27462500D01*
X131451662Y-27462500D01*
X131451644Y-27462501D01*
X131352292Y-27472650D01*
X131352289Y-27472651D01*
X131191305Y-27525996D01*
X131191294Y-27526001D01*
X131123144Y-27568038D01*
X131058047Y-27586500D01*
X130379534Y-27586500D01*
X130312495Y-27566815D01*
X130291853Y-27550181D01*
X130230391Y-27488719D01*
X130230389Y-27488718D01*
X130163112Y-27447221D01*
X130138192Y-27426963D01*
X130117349Y-27404959D01*
X130117345Y-27404956D01*
X130117344Y-27404955D01*
X130017854Y-27337500D01*
X129964230Y-27301142D01*
X129964227Y-27301140D01*
X129964223Y-27301138D01*
X129792377Y-27232669D01*
X129719351Y-27220697D01*
X129609817Y-27202740D01*
X129609814Y-27202740D01*
X129425093Y-27212755D01*
X129425088Y-27212755D01*
X129246843Y-27262244D01*
X129246837Y-27262247D01*
X129083397Y-27348898D01*
X128990077Y-27428164D01*
X128974900Y-27439193D01*
X128894610Y-27488717D01*
X128775716Y-27607612D01*
X128687455Y-27750704D01*
X128687450Y-27750715D01*
X128684079Y-27760888D01*
X128634564Y-27910315D01*
X128634564Y-27910316D01*
X128634563Y-27910316D01*
X128624500Y-28008818D01*
X128624500Y-28867181D01*
X128375499Y-28867181D01*
X128375500Y-28867174D01*
X128375500Y-28008826D01*
X128365436Y-27910315D01*
X128312549Y-27750713D01*
X128312545Y-27750707D01*
X128312544Y-27750704D01*
X128224283Y-27607612D01*
X128224280Y-27607608D01*
X128105391Y-27488719D01*
X128105387Y-27488716D01*
X127962295Y-27400455D01*
X127962289Y-27400452D01*
X127962287Y-27400451D01*
X127802685Y-27347564D01*
X127802683Y-27347563D01*
X127704181Y-27337500D01*
X127704174Y-27337500D01*
X127591151Y-27337500D01*
X127524112Y-27317815D01*
X127503470Y-27301181D01*
X127475254Y-27272965D01*
X127441769Y-27211642D01*
X127439577Y-27172685D01*
X127448500Y-27085345D01*
X127448499Y-26488656D01*
X127439336Y-26398959D01*
X127438349Y-26389292D01*
X127438348Y-26389289D01*
X127414180Y-26316354D01*
X127385003Y-26228303D01*
X127384999Y-26228297D01*
X127384998Y-26228294D01*
X127338962Y-26153659D01*
X127320500Y-26088562D01*
X127320500Y-25491195D01*
X127338960Y-25426099D01*
X127404814Y-25319334D01*
X127459999Y-25152797D01*
X127470500Y-25050009D01*
X127470499Y-24449992D01*
X127459999Y-24347203D01*
X127404814Y-24180666D01*
X127312712Y-24031344D01*
X127188656Y-23907288D01*
X127095888Y-23850069D01*
X127039336Y-23815187D01*
X127039331Y-23815185D01*
X127002873Y-23803104D01*
X126872797Y-23760001D01*
X126872795Y-23760000D01*
X126770010Y-23749500D01*
X126169998Y-23749500D01*
X126169980Y-23749501D01*
X126067203Y-23760000D01*
X126067200Y-23760001D01*
X125900668Y-23815185D01*
X125900663Y-23815187D01*
X125751342Y-23907289D01*
X125627289Y-24031342D01*
X125535187Y-24180663D01*
X125535185Y-24180668D01*
X125507349Y-24264670D01*
X125480001Y-24347203D01*
X125480001Y-24347204D01*
X125480000Y-24347204D01*
X125469500Y-24449983D01*
X125469500Y-25050001D01*
X125000500Y-25050001D01*
X125000500Y-20624500D01*
X125020185Y-20557461D01*
X125072989Y-20511706D01*
X125124500Y-20500500D01*
X132628771Y-20500500D01*
X132695810Y-20520185D01*
G37*
%TD.AperFunction*%
%TA.AperFunction,Conductor*%
G36*
X142006870Y-25268683D02*
G01*
X142013348Y-25274715D01*
X143213181Y-26474548D01*
X143246666Y-26535871D01*
X143249500Y-26562229D01*
X143249500Y-26965677D01*
X143232887Y-27027677D01*
X143172821Y-27131714D01*
X143117758Y-27301181D01*
X143114326Y-27311744D01*
X143094540Y-27500000D01*
X143114326Y-27688256D01*
X143114327Y-27688259D01*
X143172818Y-27868277D01*
X143172821Y-27868284D01*
X143267467Y-28032216D01*
X143394129Y-28172888D01*
X143425778Y-28195882D01*
X143466106Y-28225182D01*
X143508771Y-28280512D01*
X143514750Y-28350125D01*
X143482144Y-28411920D01*
X143421305Y-28446278D01*
X143393220Y-28449500D01*
X142365567Y-28449500D01*
X142298528Y-28429815D01*
X142252773Y-28377011D01*
X142242829Y-28307853D01*
X142248526Y-28284545D01*
X142285366Y-28179262D01*
X142285369Y-28179249D01*
X142305565Y-28000003D01*
X142305565Y-27999996D01*
X142285369Y-27820750D01*
X142285368Y-27820745D01*
X142260863Y-27750713D01*
X142225789Y-27650478D01*
X142198854Y-27607612D01*
X142149580Y-27529192D01*
X142129816Y-27497738D01*
X142002262Y-27370184D01*
X141985230Y-27359482D01*
X141859695Y-27280603D01*
X141813404Y-27228268D01*
X141801667Y-27175609D01*
X141801667Y-25362396D01*
X141821352Y-25295357D01*
X141874156Y-25249602D01*
X141943314Y-25239658D01*
X142006870Y-25268683D01*
G37*
%TD.AperFunction*%
%TA.AperFunction,Conductor*%
G36*
X138858609Y-23380185D02*
G01*
X138879251Y-23396819D01*
X139224213Y-23741781D01*
X139257698Y-23803104D01*
X139252714Y-23872796D01*
X139210842Y-23928729D01*
X139145378Y-23953146D01*
X139093199Y-23945644D01*
X139060379Y-23933403D01*
X139060372Y-23933401D01*
X139000844Y-23927000D01*
X138830000Y-23927000D01*
X138830000Y-24550000D01*
X139453000Y-24550000D01*
X139453000Y-24379172D01*
X139452999Y-24379155D01*
X139446598Y-24319627D01*
X139446596Y-24319619D01*
X139434356Y-24286802D01*
X139429371Y-24217110D01*
X139462855Y-24155787D01*
X139524178Y-24122301D01*
X139593869Y-24127285D01*
X139638218Y-24155786D01*
X140264348Y-24781915D01*
X140297833Y-24843238D01*
X140300667Y-24869596D01*
X140300667Y-27487461D01*
X140299358Y-27505430D01*
X140295877Y-27529192D01*
X140300195Y-27578535D01*
X140300667Y-27589343D01*
X140300667Y-27594890D01*
X140302563Y-27611103D01*
X140290795Y-27679975D01*
X140243661Y-27731551D01*
X140179402Y-27749500D01*
X138662230Y-27749500D01*
X138595191Y-27729815D01*
X138574549Y-27713181D01*
X137446049Y-26584681D01*
X137412564Y-26523358D01*
X137417548Y-26453666D01*
X137459420Y-26397733D01*
X137524884Y-26373316D01*
X137533730Y-26373000D01*
X137630000Y-26373000D01*
X137630000Y-25750000D01*
X138830000Y-25750000D01*
X138830000Y-26373000D01*
X139000828Y-26373000D01*
X139000844Y-26372999D01*
X139060372Y-26366598D01*
X139060379Y-26366596D01*
X139195086Y-26316354D01*
X139195093Y-26316350D01*
X139310187Y-26230190D01*
X139310190Y-26230187D01*
X139396350Y-26115093D01*
X139396354Y-26115086D01*
X139446596Y-25980379D01*
X139446598Y-25980372D01*
X139452999Y-25920844D01*
X139453000Y-25920827D01*
X139453000Y-25750000D01*
X138830000Y-25750000D01*
X137630000Y-25750000D01*
X137630000Y-25116370D01*
X137781232Y-25116370D01*
X137791257Y-25250140D01*
X137840266Y-25375013D01*
X137923905Y-25479892D01*
X138034741Y-25555459D01*
X138162927Y-25595000D01*
X138263346Y-25595000D01*
X138362647Y-25580033D01*
X138483509Y-25521829D01*
X138581844Y-25430587D01*
X138648917Y-25314413D01*
X138678768Y-25183630D01*
X138668743Y-25049860D01*
X138619734Y-24924987D01*
X138536095Y-24820108D01*
X138425259Y-24744541D01*
X138297073Y-24705000D01*
X138196654Y-24705000D01*
X138097353Y-24719967D01*
X137976491Y-24778171D01*
X137878156Y-24869413D01*
X137811083Y-24985587D01*
X137781232Y-25116370D01*
X137630000Y-25116370D01*
X137630000Y-23927000D01*
X137590060Y-23927000D01*
X137523021Y-23907315D01*
X137477266Y-23854511D01*
X137467322Y-23785353D01*
X137496347Y-23721797D01*
X137537656Y-23690618D01*
X137574087Y-23673630D01*
X137749455Y-23550836D01*
X137900836Y-23399455D01*
X137900836Y-23399454D01*
X137903472Y-23396819D01*
X137964795Y-23363334D01*
X137991153Y-23360500D01*
X138791570Y-23360500D01*
X138858609Y-23380185D01*
G37*
%TD.AperFunction*%
%TA.AperFunction,Conductor*%
G36*
X143770549Y-20520185D02*
G01*
X143816304Y-20572989D01*
X143826248Y-20642147D01*
X143797223Y-20705703D01*
X143783216Y-20719489D01*
X143633127Y-20845427D01*
X143540553Y-20923107D01*
X143312690Y-21164629D01*
X143312687Y-21164632D01*
X143312685Y-21164635D01*
X143312678Y-21164643D01*
X143114406Y-21430968D01*
X142948385Y-21718525D01*
X142948379Y-21718538D01*
X142816866Y-22023419D01*
X142721634Y-22341518D01*
X142721631Y-22341532D01*
X142663977Y-22668504D01*
X142663976Y-22668515D01*
X142644669Y-22999996D01*
X142644669Y-23000003D01*
X142663976Y-23331484D01*
X142663977Y-23331495D01*
X142696539Y-23516161D01*
X142688795Y-23585600D01*
X142644738Y-23639829D01*
X142578357Y-23661631D01*
X142510727Y-23644083D01*
X142486742Y-23625374D01*
X139573549Y-20712181D01*
X139540064Y-20650858D01*
X139545048Y-20581166D01*
X139586920Y-20525233D01*
X139652384Y-20500816D01*
X139661230Y-20500500D01*
X143703510Y-20500500D01*
X143770549Y-20520185D01*
G37*
%TD.AperFunction*%
%TD*%
M02*
