M48
; DRILL file {KiCad 7.0.10} date Thursday, January 30, 2025 at 11:55:27 PM
; FORMAT={-:-/ absolute / inch / decimal}
; #@! TF.CreationDate,2025-01-30T23:55:27+01:00
; #@! TF.GenerationSoftware,Kicad,Pcbnew,7.0.10
; #@! TF.FileFunction,Plated,1,2,PTH
FMAT,2
INCH
; #@! TA.AperFunction,Plated,PTH,ViaDrill
T1C0.0118
; #@! TA.AperFunction,Plated,PTH,ViaDrill
T2C0.0157
; #@! TA.AperFunction,Plated,PTH,ComponentDrill
T3C0.0350
; #@! TA.AperFunction,Plated,PTH,ComponentDrill
T4C0.0354
; #@! TA.AperFunction,Plated,PTH,ComponentDrill
T5C0.0394
; #@! TA.AperFunction,Plated,PTH,ComponentDrill
T6C0.0728
; #@! TA.AperFunction,Plated,PTH,ComponentDrill
T7C0.1063
%
G90
G05
T1
X4.9409Y-1.1811
X4.9409Y-1.3287
X4.9409Y-1.4764
X4.9409Y-1.5354
X4.9409Y-1.6142
X4.9409Y-1.7323
X4.9409Y-1.8504
X5.0295Y-0.8268
X5.0407Y-1.0196
X5.0757Y-1.0546
X5.1378Y-1.9685
X5.1805Y-1.437
X5.1805Y-1.5551
X5.2357Y-1.8196
X5.2559Y-1.1614
X5.2559Y-1.2008
X5.2559Y-1.3189
X5.2559Y-1.9685
X5.2953Y-1.2008
X5.2953Y-1.3189
X5.2953Y-1.3583
X5.2957Y-1.6796
X5.2957Y-1.7796
X5.3346Y-1.3189
X5.3357Y-1.3596
X5.3937Y-1.6396
X5.4232Y-1.4173
X5.4409Y-1.0551
X5.4557Y-1.6796
X5.4557Y-1.7796
X5.4626Y-1.4173
X5.4921Y-1.9685
X5.5039Y-0.9896
X5.5039Y-1.0551
X5.5157Y-1.8196
X5.5512Y-1.6396
X5.5709Y-1.1024
X5.6102Y-0.8268
X5.6102Y-1.0433
X5.6102Y-1.3976
X5.6102Y-1.8504
X5.6102Y-1.9685
X5.6496Y-1.4469
X5.8071Y-1.0236
X5.8071Y-1.1811
X5.8071Y-1.3189
X5.8071Y-1.4469
X5.8071Y-1.6142
X5.8071Y-1.7323
X5.8071Y-1.8504
X5.8858Y-1.1811
X5.8858Y-1.3287
X5.8858Y-1.4764
X5.8858Y-1.5354
X5.8858Y-1.6142
X5.8858Y-1.7323
X5.8858Y-1.8504
X5.9744Y-0.8268
X5.9856Y-1.0196
X6.0206Y-1.0546
X6.0827Y-1.9685
X6.1254Y-1.437
X6.1254Y-1.5551
X6.1806Y-1.8196
X6.2008Y-1.1614
X6.2008Y-1.2008
X6.2008Y-1.3189
X6.2008Y-1.9685
X6.2402Y-1.2008
X6.2402Y-1.3189
X6.2402Y-1.3583
X6.2406Y-1.6796
X6.2406Y-1.7796
X6.2795Y-1.3189
X6.2806Y-1.3596
X6.3386Y-1.6396
X6.3681Y-1.4173
X6.3858Y-1.0551
X6.4006Y-1.6796
X6.4006Y-1.7796
X6.4075Y-1.4173
X6.437Y-1.9685
X6.4488Y-0.9896
X6.4488Y-1.0551
X6.4606Y-1.8196
X6.4961Y-1.6396
X6.5157Y-1.1024
X6.5551Y-0.8268
X6.5551Y-1.0433
X6.5551Y-1.3976
X6.5551Y-1.8504
X6.5551Y-1.9685
X6.5945Y-1.4469
X6.752Y-1.0236
X6.752Y-1.1811
X6.752Y-1.3189
X6.752Y-1.4469
X6.752Y-1.6142
X6.752Y-1.7323
X6.752Y-1.8504
T2
X5.372Y-1.0393
X5.6693Y-1.0827
X6.3169Y-1.0393
X6.6142Y-1.0827
T3
X5.0921Y-0.8902
X5.1421Y-0.9902
X5.1921Y-0.8902
X5.2421Y-0.9902
X5.2921Y-0.8902
X5.3421Y-0.9902
X5.3921Y-0.8902
X5.4421Y-0.9902
X6.037Y-0.8902
X6.087Y-0.9902
X6.137Y-0.8902
X6.187Y-0.9902
X6.237Y-0.8902
X6.287Y-0.9902
X6.337Y-0.8902
X6.387Y-0.9902
T4
X5.0197Y-1.6048
X5.0197Y-1.6898
X5.0197Y-1.7748
X5.0197Y-1.8598
X5.7283Y-1.6048
X5.7283Y-1.6898
X5.7283Y-1.7748
X5.7283Y-1.8598
X5.9646Y-1.6048
X5.9646Y-1.6898
X5.9646Y-1.7748
X5.9646Y-1.8598
X6.6732Y-1.6048
X6.6732Y-1.6898
X6.6732Y-1.7748
X6.6732Y-1.8598
T5
X5.7283Y-1.1488
X5.7283Y-1.2488
X5.7283Y-1.3488
X5.7283Y-1.4488
X6.6732Y-1.1488
X6.6732Y-1.2488
X6.6732Y-1.3488
X6.6732Y-1.4488
T6
X5.374Y-1.5472
X5.374Y-1.7323
X5.374Y-1.9173
X6.3189Y-1.5472
X6.3189Y-1.7323
X6.3189Y-1.9173
T7
X5.0197Y-2.0079
X5.7283Y-0.9055
X5.7283Y-2.0079
X5.9646Y-2.0079
X6.6732Y-0.9055
X6.6732Y-2.0079
M30
