%TF.GenerationSoftware,KiCad,Pcbnew,7.0.10*%
%TF.CreationDate,2025-01-28T22:59:33+01:00*%
%TF.ProjectId,BugWiperPCB,42756757-6970-4657-9250-43422e6b6963,rev?*%
%TF.SameCoordinates,Original*%
%TF.FileFunction,Copper,L1,Top*%
%TF.FilePolarity,Positive*%
%FSLAX46Y46*%
G04 Gerber Fmt 4.6, Leading zero omitted, Abs format (unit mm)*
G04 Created by KiCad (PCBNEW 7.0.10) date 2025-01-28 22:59:33*
%MOMM*%
%LPD*%
G01*
G04 APERTURE LIST*
G04 Aperture macros list*
%AMRoundRect*
0 Rectangle with rounded corners*
0 $1 Rounding radius*
0 $2 $3 $4 $5 $6 $7 $8 $9 X,Y pos of 4 corners*
0 Add a 4 corners polygon primitive as box body*
4,1,4,$2,$3,$4,$5,$6,$7,$8,$9,$2,$3,0*
0 Add four circle primitives for the rounded corners*
1,1,$1+$1,$2,$3*
1,1,$1+$1,$4,$5*
1,1,$1+$1,$6,$7*
1,1,$1+$1,$8,$9*
0 Add four rect primitives between the rounded corners*
20,1,$1+$1,$2,$3,$4,$5,0*
20,1,$1+$1,$4,$5,$6,$7,0*
20,1,$1+$1,$6,$7,$8,$9,0*
20,1,$1+$1,$8,$9,$2,$3,0*%
G04 Aperture macros list end*
%TA.AperFunction,SMDPad,CuDef*%
%ADD10RoundRect,0.225000X-0.225000X-0.250000X0.225000X-0.250000X0.225000X0.250000X-0.225000X0.250000X0*%
%TD*%
%TA.AperFunction,SMDPad,CuDef*%
%ADD11RoundRect,0.225000X0.250000X-0.225000X0.250000X0.225000X-0.250000X0.225000X-0.250000X-0.225000X0*%
%TD*%
%TA.AperFunction,SMDPad,CuDef*%
%ADD12RoundRect,0.200000X0.275000X-0.200000X0.275000X0.200000X-0.275000X0.200000X-0.275000X-0.200000X0*%
%TD*%
%TA.AperFunction,SMDPad,CuDef*%
%ADD13RoundRect,0.200000X-0.200000X-0.275000X0.200000X-0.275000X0.200000X0.275000X-0.200000X0.275000X0*%
%TD*%
%TA.AperFunction,SMDPad,CuDef*%
%ADD14RoundRect,0.200000X-0.275000X0.200000X-0.275000X-0.200000X0.275000X-0.200000X0.275000X0.200000X0*%
%TD*%
%TA.AperFunction,SMDPad,CuDef*%
%ADD15R,1.003300X0.558800*%
%TD*%
%TA.AperFunction,SMDPad,CuDef*%
%ADD16RoundRect,0.250000X-0.900000X1.000000X-0.900000X-1.000000X0.900000X-1.000000X0.900000X1.000000X0*%
%TD*%
%TA.AperFunction,SMDPad,CuDef*%
%ADD17RoundRect,0.250000X-0.625000X0.312500X-0.625000X-0.312500X0.625000X-0.312500X0.625000X0.312500X0*%
%TD*%
%TA.AperFunction,SMDPad,CuDef*%
%ADD18RoundRect,0.250000X-0.650000X0.325000X-0.650000X-0.325000X0.650000X-0.325000X0.650000X0.325000X0*%
%TD*%
%TA.AperFunction,SMDPad,CuDef*%
%ADD19RoundRect,0.250000X-0.325000X-1.100000X0.325000X-1.100000X0.325000X1.100000X-0.325000X1.100000X0*%
%TD*%
%TA.AperFunction,SMDPad,CuDef*%
%ADD20RoundRect,0.250000X-0.250000X-0.250000X0.250000X-0.250000X0.250000X0.250000X-0.250000X0.250000X0*%
%TD*%
%TA.AperFunction,ComponentPad*%
%ADD21C,5.600000*%
%TD*%
%TA.AperFunction,SMDPad,CuDef*%
%ADD22RoundRect,0.150000X0.150000X-0.512500X0.150000X0.512500X-0.150000X0.512500X-0.150000X-0.512500X0*%
%TD*%
%TA.AperFunction,ComponentPad*%
%ADD23C,1.701800*%
%TD*%
%TA.AperFunction,ComponentPad*%
%ADD24R,2.025000X2.025000*%
%TD*%
%TA.AperFunction,ComponentPad*%
%ADD25C,2.025000*%
%TD*%
%TA.AperFunction,SMDPad,CuDef*%
%ADD26RoundRect,0.150000X-0.150000X0.512500X-0.150000X-0.512500X0.150000X-0.512500X0.150000X0.512500X0*%
%TD*%
%TA.AperFunction,SMDPad,CuDef*%
%ADD27RoundRect,0.200000X0.200000X0.275000X-0.200000X0.275000X-0.200000X-0.275000X0.200000X-0.275000X0*%
%TD*%
%TA.AperFunction,SMDPad,CuDef*%
%ADD28RoundRect,0.225000X-0.250000X0.225000X-0.250000X-0.225000X0.250000X-0.225000X0.250000X0.225000X0*%
%TD*%
%TA.AperFunction,SMDPad,CuDef*%
%ADD29RoundRect,0.250000X0.625000X-0.312500X0.625000X0.312500X-0.625000X0.312500X-0.625000X-0.312500X0*%
%TD*%
%TA.AperFunction,SMDPad,CuDef*%
%ADD30R,5.500000X2.150000*%
%TD*%
%TA.AperFunction,SMDPad,CuDef*%
%ADD31RoundRect,0.225000X0.225000X0.250000X-0.225000X0.250000X-0.225000X-0.250000X0.225000X-0.250000X0*%
%TD*%
%TA.AperFunction,SMDPad,CuDef*%
%ADD32RoundRect,0.250000X-0.312500X-1.075000X0.312500X-1.075000X0.312500X1.075000X-0.312500X1.075000X0*%
%TD*%
%TA.AperFunction,SMDPad,CuDef*%
%ADD33RoundRect,0.250000X1.950000X1.000000X-1.950000X1.000000X-1.950000X-1.000000X1.950000X-1.000000X0*%
%TD*%
%TA.AperFunction,ConnectorPad*%
%ADD34C,0.787400*%
%TD*%
%TA.AperFunction,SMDPad,CuDef*%
%ADD35R,1.500000X0.900000*%
%TD*%
%TA.AperFunction,SMDPad,CuDef*%
%ADD36R,0.900000X1.500000*%
%TD*%
%TA.AperFunction,SMDPad,CuDef*%
%ADD37R,0.900000X0.900000*%
%TD*%
%TA.AperFunction,ComponentPad*%
%ADD38C,1.270000*%
%TD*%
%TA.AperFunction,ComponentPad*%
%ADD39C,3.810000*%
%TD*%
%TA.AperFunction,SMDPad,CuDef*%
%ADD40R,1.750000X0.500000*%
%TD*%
%TA.AperFunction,SMDPad,CuDef*%
%ADD41R,5.800000X7.100000*%
%TD*%
%TA.AperFunction,SMDPad,CuDef*%
%ADD42RoundRect,0.250000X-1.100000X0.325000X-1.100000X-0.325000X1.100000X-0.325000X1.100000X0.325000X0*%
%TD*%
%TA.AperFunction,SMDPad,CuDef*%
%ADD43RoundRect,0.250000X-0.325000X-0.650000X0.325000X-0.650000X0.325000X0.650000X-0.325000X0.650000X0*%
%TD*%
%TA.AperFunction,SMDPad,CuDef*%
%ADD44RoundRect,0.250000X-0.312500X-0.625000X0.312500X-0.625000X0.312500X0.625000X-0.312500X0.625000X0*%
%TD*%
%TA.AperFunction,SMDPad,CuDef*%
%ADD45R,0.558800X1.168400*%
%TD*%
%TA.AperFunction,SMDPad,CuDef*%
%ADD46R,1.100000X0.965200*%
%TD*%
%TA.AperFunction,SMDPad,CuDef*%
%ADD47R,0.650000X0.965200*%
%TD*%
%TA.AperFunction,SMDPad,CuDef*%
%ADD48RoundRect,0.250000X1.100000X-0.325000X1.100000X0.325000X-1.100000X0.325000X-1.100000X-0.325000X0*%
%TD*%
%TA.AperFunction,SMDPad,CuDef*%
%ADD49R,2.921000X3.251200*%
%TD*%
%TA.AperFunction,SMDPad,CuDef*%
%ADD50R,0.600000X1.100000*%
%TD*%
%TA.AperFunction,SMDPad,CuDef*%
%ADD51R,0.300000X1.150000*%
%TD*%
%TA.AperFunction,ComponentPad*%
%ADD52O,1.000000X2.100000*%
%TD*%
%TA.AperFunction,SMDPad,CuDef*%
%ADD53RoundRect,0.300000X-0.300000X1.000000X-0.300000X-1.000000X0.300000X-1.000000X0.300000X1.000000X0*%
%TD*%
%TA.AperFunction,ComponentPad*%
%ADD54O,1.000000X1.800000*%
%TD*%
%TA.AperFunction,SMDPad,CuDef*%
%ADD55R,0.965200X1.100000*%
%TD*%
%TA.AperFunction,SMDPad,CuDef*%
%ADD56R,0.965200X0.650000*%
%TD*%
%TA.AperFunction,SMDPad,CuDef*%
%ADD57RoundRect,0.250000X0.325000X0.650000X-0.325000X0.650000X-0.325000X-0.650000X0.325000X-0.650000X0*%
%TD*%
%TA.AperFunction,SMDPad,CuDef*%
%ADD58RoundRect,0.250000X-0.450000X0.262500X-0.450000X-0.262500X0.450000X-0.262500X0.450000X0.262500X0*%
%TD*%
%TA.AperFunction,ComponentPad*%
%ADD59R,2.100000X2.100000*%
%TD*%
%TA.AperFunction,ComponentPad*%
%ADD60C,2.100000*%
%TD*%
%TA.AperFunction,SMDPad,CuDef*%
%ADD61R,1.000000X0.800000*%
%TD*%
%TA.AperFunction,ComponentPad*%
%ADD62C,3.600000*%
%TD*%
%TA.AperFunction,ConnectorPad*%
%ADD63C,5.600000*%
%TD*%
%TA.AperFunction,ComponentPad*%
%ADD64RoundRect,0.250000X0.600000X0.750000X-0.600000X0.750000X-0.600000X-0.750000X0.600000X-0.750000X0*%
%TD*%
%TA.AperFunction,ComponentPad*%
%ADD65O,1.700000X2.000000*%
%TD*%
%TA.AperFunction,SMDPad,CuDef*%
%ADD66R,0.533400X1.524000*%
%TD*%
%TA.AperFunction,SMDPad,CuDef*%
%ADD67R,4.114800X4.902200*%
%TD*%
%TA.AperFunction,ComponentPad*%
%ADD68C,1.524000*%
%TD*%
%TA.AperFunction,SMDPad,CuDef*%
%ADD69R,0.600000X0.400000*%
%TD*%
%TA.AperFunction,SMDPad,CuDef*%
%ADD70R,1.000000X0.350000*%
%TD*%
%TA.AperFunction,ComponentPad*%
%ADD71C,0.750000*%
%TD*%
%TA.AperFunction,SMDPad,CuDef*%
%ADD72R,0.950000X0.640000*%
%TD*%
%TA.AperFunction,ViaPad*%
%ADD73C,0.800000*%
%TD*%
%TA.AperFunction,ViaPad*%
%ADD74C,0.500000*%
%TD*%
%TA.AperFunction,ViaPad*%
%ADD75C,0.600000*%
%TD*%
%TA.AperFunction,Conductor*%
%ADD76C,0.500000*%
%TD*%
%TA.AperFunction,Conductor*%
%ADD77C,0.750000*%
%TD*%
%TA.AperFunction,Conductor*%
%ADD78C,0.350000*%
%TD*%
%TA.AperFunction,Conductor*%
%ADD79C,0.300000*%
%TD*%
%TA.AperFunction,Conductor*%
%ADD80C,0.250000*%
%TD*%
%TA.AperFunction,Conductor*%
%ADD81C,1.000000*%
%TD*%
%TA.AperFunction,Conductor*%
%ADD82C,1.500000*%
%TD*%
%TA.AperFunction,Conductor*%
%ADD83C,2.000000*%
%TD*%
G04 APERTURE END LIST*
D10*
%TO.P,C22,1*%
%TO.N,A_INA*%
X159689200Y-95402400D03*
%TO.P,C22,2*%
%TO.N,GND*%
X161239200Y-95402400D03*
%TD*%
D11*
%TO.P,C11,1*%
%TO.N,/ESP32-S3/M_IS1*%
X153771600Y-98615800D03*
%TO.P,C11,2*%
%TO.N,GND*%
X153771600Y-97065800D03*
%TD*%
D12*
%TO.P,R12,1*%
%TO.N,Net-(U3-IS)*%
X149987000Y-98627200D03*
%TO.P,R12,2*%
%TO.N,GND*%
X149987000Y-96977200D03*
%TD*%
D13*
%TO.P,R15,1*%
%TO.N,OUT2*%
X149593800Y-88239600D03*
%TO.P,R15,2*%
%TO.N,OUT_2*%
X151243800Y-88239600D03*
%TD*%
D14*
%TO.P,R21,1*%
%TO.N,Net-(D2-A)*%
X173837600Y-71057000D03*
%TO.P,R21,2*%
%TO.N,GND*%
X173837600Y-72707000D03*
%TD*%
D15*
%TO.P,CR1,1,IO_1*%
%TO.N,Net-(CR1-IO_1)*%
X146919151Y-84038399D03*
%TO.P,CR1,2,Vss*%
%TO.N,GND*%
X146919151Y-84988400D03*
%TO.P,CR1,3,IO_2*%
%TO.N,Net-(CR1-IO_2)*%
X146919151Y-85938401D03*
%TO.P,CR1,4,IO_3*%
%TO.N,Net-(CR1-IO_3)*%
X149624251Y-85938401D03*
%TO.P,CR1,5,Vcc*%
%TO.N,+3.3V*%
X149624251Y-84988400D03*
%TO.P,CR1,6,IO_4*%
%TO.N,Net-(CR1-IO_4)*%
X149624251Y-84038399D03*
%TD*%
D16*
%TO.P,D3,1,A1*%
%TO.N,GND*%
X186690000Y-64144000D03*
%TO.P,D3,2,A2*%
%TO.N,/Power/+VBat\u002A*%
X186690000Y-68444000D03*
%TD*%
D17*
%TO.P,F1,1*%
%TO.N,Net-(JP4-C)*%
X141732000Y-74610500D03*
%TO.P,F1,2*%
%TO.N,Net-(F1-Pad2)*%
X141732000Y-77535500D03*
%TD*%
D18*
%TO.P,C24,1*%
%TO.N,GND*%
X167640000Y-74471000D03*
%TO.P,C24,2*%
%TO.N,+12V*%
X167640000Y-77421000D03*
%TD*%
D19*
%TO.P,C15,1*%
%TO.N,/Power/+VBat*%
X197153000Y-72136000D03*
%TO.P,C15,2*%
%TO.N,GND*%
X200103000Y-72136000D03*
%TD*%
D11*
%TO.P,C13,1*%
%TO.N,/ESP32-S3/ADC_VBat*%
X160464000Y-92964800D03*
%TO.P,C13,2*%
%TO.N,GND*%
X160464000Y-91414800D03*
%TD*%
D20*
%TO.P,D1,1,K*%
%TO.N,+5V*%
X128391600Y-63246000D03*
%TO.P,D1,2,A*%
%TO.N,Net-(D1-A)*%
X130891600Y-63246000D03*
%TD*%
D10*
%TO.P,C4,1*%
%TO.N,EN*%
X118046200Y-62738000D03*
%TO.P,C4,2*%
%TO.N,GND*%
X119596200Y-62738000D03*
%TD*%
D21*
%TO.P,H2,1*%
%TO.N,N/C*%
X163000000Y-64000000D03*
%TD*%
D10*
%TO.P,C33,1*%
%TO.N,IN_2*%
X124955000Y-71475600D03*
%TO.P,C33,2*%
%TO.N,GND*%
X126505000Y-71475600D03*
%TD*%
%TO.P,C8,1*%
%TO.N,+12V_HighSide*%
X202425000Y-84455000D03*
%TO.P,C8,2*%
%TO.N,/Power/Motor-*%
X203975000Y-84455000D03*
%TD*%
D22*
%TO.P,U4,1*%
%TO.N,/ESP32-S3/ADC_INA*%
X178120000Y-95879500D03*
%TO.P,U4,2,GND*%
%TO.N,GND*%
X179070000Y-95879500D03*
%TO.P,U4,3,+*%
%TO.N,+12V*%
X180020000Y-95879500D03*
%TO.P,U4,4,-*%
%TO.N,+12V_HighSide*%
X180020000Y-93604500D03*
%TO.P,U4,5,V+*%
%TO.N,+3.3V*%
X178120000Y-93604500D03*
%TD*%
D23*
%TO.P,J2,1,1*%
%TO.N,Net-(F2-Pad1)*%
X213170001Y-81141601D03*
%TO.P,J2,2,2*%
X218170001Y-81141601D03*
%TO.P,J2,3,3*%
%TO.N,/GND2*%
X213170001Y-78641601D03*
%TO.P,J2,4,4*%
X218170001Y-78641601D03*
%TO.P,J2,5,5*%
%TO.N,EN_C2*%
X213170001Y-76141600D03*
%TO.P,J2,6,6*%
X218170001Y-76141600D03*
%TO.P,J2,7,7*%
%TO.N,EN_C1*%
X213170001Y-73641600D03*
%TO.P,J2,8,8*%
X218170001Y-73641600D03*
%TO.P,J2,9,9*%
%TO.N,/GND2*%
X213170001Y-71141600D03*
%TO.P,J2,10,10*%
X218170001Y-71141600D03*
%TO.P,J2,11,11*%
%TO.N,sw_1*%
X213170001Y-68641600D03*
%TO.P,J2,12,12*%
X218170001Y-68641600D03*
%TD*%
D24*
%TO.P,J6,1,1*%
%TO.N,/Power/Motor+*%
X217346000Y-89888000D03*
D25*
%TO.P,J6,2,2*%
X210346000Y-89888000D03*
%TO.P,J6,3,3*%
%TO.N,/Power/Motor-*%
X217346000Y-86388000D03*
%TO.P,J6,4,4*%
X210346000Y-86388000D03*
%TD*%
D26*
%TO.P,U5,1*%
%TO.N,Net-(J1-DN1)*%
X138443150Y-68729600D03*
%TO.P,U5,2*%
%TO.N,GND*%
X137493150Y-68729600D03*
%TO.P,U5,3*%
%TO.N,Net-(J1-DP1)*%
X136543150Y-68729600D03*
%TO.P,U5,4*%
%TO.N,Net-(C1-Pad2)*%
X136543150Y-71004600D03*
%TO.P,U5,5*%
%TO.N,+3.3V*%
X137493150Y-71004600D03*
%TO.P,U5,6*%
%TO.N,Net-(C2-Pad1)*%
X138443150Y-71004600D03*
%TD*%
D27*
%TO.P,R14,1*%
%TO.N,OUT_1*%
X154698200Y-88188800D03*
%TO.P,R14,2*%
%TO.N,OUT1*%
X153048200Y-88188800D03*
%TD*%
D28*
%TO.P,C37,1*%
%TO.N,Enc2*%
X138430000Y-82537000D03*
%TO.P,C37,2*%
%TO.N,GND*%
X138430000Y-84087000D03*
%TD*%
D12*
%TO.P,R19,1*%
%TO.N,/ESP32-S3/ADC_VBat*%
X158877000Y-93014800D03*
%TO.P,R19,2*%
%TO.N,GND*%
X158877000Y-91364800D03*
%TD*%
D29*
%TO.P,F3,1*%
%TO.N,/GND2*%
X209042000Y-74106500D03*
%TO.P,F3,2*%
%TO.N,GND*%
X209042000Y-71181500D03*
%TD*%
D30*
%TO.P,L2,1*%
%TO.N,+12V*%
X163068000Y-75458000D03*
%TO.P,L2,2*%
%TO.N,Net-(U6-+VIN)*%
X163068000Y-71608000D03*
%TD*%
D31*
%TO.P,C3,1*%
%TO.N,Boot*%
X123965000Y-62738000D03*
%TO.P,C3,2*%
%TO.N,GND*%
X122415000Y-62738000D03*
%TD*%
D13*
%TO.P,R7,1*%
%TO.N,/Power/Motor+*%
X202883000Y-98552000D03*
%TO.P,R7,2*%
%TO.N,GND*%
X204533000Y-98552000D03*
%TD*%
D14*
%TO.P,R3,1*%
%TO.N,Net-(J1-CC2)*%
X133430200Y-69461600D03*
%TO.P,R3,2*%
%TO.N,GND*%
X133430200Y-71111600D03*
%TD*%
%TO.P,R2,1*%
%TO.N,Net-(J1-CC1)*%
X141558200Y-68975000D03*
%TO.P,R2,2*%
%TO.N,GND*%
X141558200Y-70625000D03*
%TD*%
D32*
%TO.P,R25,1*%
%TO.N,+12V*%
X177353500Y-90424000D03*
%TO.P,R25,2*%
%TO.N,+12V_HighSide*%
X180278500Y-90424000D03*
%TD*%
D33*
%TO.P,C20,1*%
%TO.N,+12V_HighSide*%
X192168000Y-94996000D03*
%TO.P,C20,2*%
%TO.N,GND*%
X184768000Y-94996000D03*
%TD*%
D14*
%TO.P,R10,1*%
%TO.N,/ESP32-S3/M_IS1*%
X155295600Y-97015800D03*
%TO.P,R10,2*%
%TO.N,Net-(U2-IS)*%
X155295600Y-98665800D03*
%TD*%
D34*
%TO.P,J5,1,ESP_EN*%
%TO.N,EN*%
X114173000Y-84270000D03*
%TO.P,J5,2,VDD*%
%TO.N,+3.3V*%
X112903000Y-84270000D03*
%TO.P,J5,3,ESP_TXD*%
%TO.N,TX*%
X114173000Y-83000000D03*
%TO.P,J5,4,GND*%
%TO.N,GND*%
X112903000Y-83000000D03*
%TO.P,J5,5,ESP_RXD*%
%TO.N,RX*%
X114173000Y-81730000D03*
%TO.P,J5,6,ESP_IO0*%
%TO.N,Boot*%
X112903000Y-81730000D03*
%TD*%
D35*
%TO.P,U1,1,GND*%
%TO.N,GND*%
X136101200Y-92172000D03*
%TO.P,U1,2,3V3*%
%TO.N,+3.3V*%
X136101200Y-90902000D03*
%TO.P,U1,3,EN*%
%TO.N,EN*%
X136101200Y-89632000D03*
%TO.P,U1,4,GPIO4/TOUCH4/ADC1_CH3*%
%TO.N,A_VBAT*%
X136101200Y-88362000D03*
%TO.P,U1,5,GPIO5/TOUCH5/ADC1_CH4*%
%TO.N,A_NTC*%
X136101200Y-87092000D03*
%TO.P,U1,6,GPIO6/TOUCH6/ADC1_CH5*%
%TO.N,A_IS2*%
X136101200Y-85822000D03*
%TO.P,U1,7,GPIO7/TOUCH7/ADC1_CH6*%
%TO.N,A_IS1*%
X136101200Y-84552000D03*
%TO.P,U1,8,GPIO15/U0RTS/ADC2_CH4/XTAL_32K_P*%
%TO.N,Enc1*%
X136101200Y-83282000D03*
%TO.P,U1,9,GPIO16/U0CTS/ADC2_CH5/XTAL_32K_N*%
%TO.N,Enc2*%
X136101200Y-82012000D03*
%TO.P,U1,10,GPIO17/U1TXD/ADC2_CH6*%
%TO.N,SW1*%
X136101200Y-80742000D03*
%TO.P,U1,11,GPIO18/U1RXD/ADC2_CH7/CLK_OUT3*%
%TO.N,SW2*%
X136101200Y-79472000D03*
%TO.P,U1,12,GPIO8/TOUCH8/ADC1_CH7/SUBSPICS1*%
%TO.N,OUT2*%
X136101200Y-78202000D03*
%TO.P,U1,13,GPIO19/U1RTS/ADC2_CH8/CLK_OUT2/USB_D-*%
%TO.N,D-*%
X136101200Y-76932000D03*
%TO.P,U1,14,GPIO20/U1CTS/ADC2_CH9/CLK_OUT1/USB_D+*%
%TO.N,D+*%
X136101200Y-75662000D03*
D36*
%TO.P,U1,15,GPIO3/TOUCH3/ADC1_CH2*%
%TO.N,unconnected-(U1-GPIO3{slash}TOUCH3{slash}ADC1_CH2-Pad15)*%
X134336200Y-74412000D03*
%TO.P,U1,16,GPIO46*%
%TO.N,unconnected-(U1-GPIO46-Pad16)*%
X133066200Y-74412000D03*
%TO.P,U1,17,GPIO9/TOUCH9/ADC1_CH8/FSPIHD/SUBSPIHD*%
%TO.N,OUT1*%
X131796200Y-74412000D03*
%TO.P,U1,18,GPIO10/TOUCH10/ADC1_CH9/FSPICS0/FSPIIO4/SUBSPICS0*%
%TO.N,M__IN1*%
X130526200Y-74412000D03*
%TO.P,U1,19,GPIO11/TOUCH11/ADC2_CH0/FSPID/FSPIIO5/SUBSPID*%
%TO.N,M__IN2*%
X129256200Y-74412000D03*
%TO.P,U1,20,GPIO12/TOUCH12/ADC2_CH1/FSPICLK/FSPIIO6/SUBSPICLK*%
%TO.N,M__INH1*%
X127986200Y-74412000D03*
%TO.P,U1,21,GPIO13/TOUCH13/ADC2_CH2/FSPIQ/FSPIIO7/SUBSPIQ*%
%TO.N,M__INH2*%
X126716200Y-74412000D03*
%TO.P,U1,22,GPIO14/TOUCH14/ADC2_CH3/FSPIWP/FSPIDQS/SUBSPIWP*%
%TO.N,IN_1*%
X125446200Y-74412000D03*
%TO.P,U1,23,GPIO21*%
%TO.N,IN_2*%
X124176200Y-74412000D03*
%TO.P,U1,24,GPIO47/SPICLK_P/SUBSPICLK_P_DIFF*%
%TO.N,IN_3*%
X122906200Y-74412000D03*
%TO.P,U1,25,GPIO48/SPICLK_N/SUBSPICLK_N_DIFF*%
%TO.N,IN_4*%
X121636200Y-74412000D03*
%TO.P,U1,26,GPIO45*%
%TO.N,unconnected-(U1-GPIO45-Pad26)*%
X120366200Y-74412000D03*
D35*
%TO.P,U1,27,GPIO0/BOOT*%
%TO.N,Boot*%
X118601200Y-75662000D03*
%TO.P,U1,28,SPIIO6/GPIO35/FSPID/SUBSPID*%
%TO.N,DAT2*%
X118601200Y-76932000D03*
%TO.P,U1,29,SPIIO7/GPIO36/FSPICLK/SUBSPICLK*%
%TO.N,DAT1*%
X118601200Y-78202000D03*
%TO.P,U1,30,SPIDQS/GPIO37/FSPIQ/SUBSPIQ*%
%TO.N,unconnected-(U1-SPIDQS{slash}GPIO37{slash}FSPIQ{slash}SUBSPIQ-Pad30)*%
X118601200Y-79472000D03*
%TO.P,U1,31,GPIO38/FSPIWP/SUBSPIWP*%
%TO.N,unconnected-(U1-GPIO38{slash}FSPIWP{slash}SUBSPIWP-Pad31)*%
X118601200Y-80742000D03*
%TO.P,U1,32,MTCK/GPIO39/CLK_OUT3/SUBSPICS1*%
%TO.N,SD_CS*%
X118601200Y-82012000D03*
%TO.P,U1,33,MTDO/GPIO40/CLK_OUT2*%
%TO.N,MOSI*%
X118601200Y-83282000D03*
%TO.P,U1,34,MTDI/GPIO41/CLK_OUT1*%
%TO.N,CLK*%
X118601200Y-84552000D03*
%TO.P,U1,35,MTMS/GPIO42*%
%TO.N,MISO*%
X118601200Y-85822000D03*
%TO.P,U1,36,U0RXD/GPIO44/CLK_OUT2*%
%TO.N,RX*%
X118601200Y-87092000D03*
%TO.P,U1,37,U0TXD/GPIO43/CLK_OUT1*%
%TO.N,TX*%
X118601200Y-88362000D03*
%TO.P,U1,38,GPIO2/TOUCH2/ADC1_CH1*%
%TO.N,SD_DET*%
X118601200Y-89632000D03*
%TO.P,U1,39,GPIO1/TOUCH1/ADC1_CH0*%
%TO.N,A_INA*%
X118601200Y-90902000D03*
%TO.P,U1,40,GND*%
%TO.N,GND*%
X118601200Y-92172000D03*
D37*
%TO.P,U1,41,GND*%
X130251200Y-85852000D03*
X130251200Y-84452000D03*
X130251200Y-83052000D03*
X130251200Y-83052000D03*
X128851200Y-85852000D03*
X128851200Y-85852000D03*
X128851200Y-84452000D03*
X128851200Y-83052000D03*
X127451200Y-85852000D03*
X127451200Y-84452000D03*
X127451200Y-83052000D03*
%TD*%
D38*
%TO.P,J4,1*%
%TO.N,/ESP32-S3/GND3*%
X155702000Y-73380700D03*
%TO.P,J4,2*%
%TO.N,Net-(RN3C-R3.1)*%
X154432000Y-75920700D03*
%TO.P,J4,3*%
%TO.N,Net-(RN3D-R4.1)*%
X153162000Y-73380700D03*
%TO.P,J4,4*%
%TO.N,Net-(RN6-R1.1)*%
X151892000Y-75920700D03*
%TO.P,J4,5*%
%TO.N,Net-(RN6-R2.1)*%
X150622000Y-73380700D03*
%TO.P,J4,6*%
%TO.N,Net-(RN6-R3.1)*%
X149352000Y-75920700D03*
%TO.P,J4,7*%
%TO.N,Net-(RN6-R4.1)*%
X148082000Y-73380700D03*
%TO.P,J4,8*%
%TO.N,Net-(F1-Pad2)*%
X146812000Y-75920700D03*
D39*
%TO.P,J4,SH*%
%TO.N,/ESP32-S3/GND3*%
X156972000Y-67030700D03*
X145542000Y-67030700D03*
%TD*%
D13*
%TO.P,R22,1*%
%TO.N,DAT2*%
X114338600Y-69900800D03*
%TO.P,R22,2*%
%TO.N,+3.3V*%
X115988600Y-69900800D03*
%TD*%
D15*
%TO.P,CR3,1,IO_1*%
%TO.N,OUT_1*%
X153079450Y-84038399D03*
%TO.P,CR3,2,Vss*%
%TO.N,GND*%
X153079450Y-84988400D03*
%TO.P,CR3,3,IO_2*%
%TO.N,OUT_2*%
X153079450Y-85938401D03*
%TO.P,CR3,4,IO_3*%
%TO.N,/ESP32-S3/M_IS2*%
X155784550Y-85938401D03*
%TO.P,CR3,5,Vcc*%
%TO.N,+3.3V*%
X155784550Y-84988400D03*
%TO.P,CR3,6,IO_4*%
%TO.N,/ESP32-S3/M_IS1*%
X155784550Y-84038399D03*
%TD*%
D31*
%TO.P,C9,1*%
%TO.N,/Power/Motor-*%
X204838600Y-73050400D03*
%TO.P,C9,2*%
%TO.N,GND*%
X203288600Y-73050400D03*
%TD*%
D14*
%TO.P,R11,1*%
%TO.N,/ESP32-S3/M_IS2*%
X148463000Y-96977200D03*
%TO.P,R11,2*%
%TO.N,Net-(U3-IS)*%
X148463000Y-98627200D03*
%TD*%
D13*
%TO.P,R18,1*%
%TO.N,DAT1*%
X114389400Y-77216000D03*
%TO.P,R18,2*%
%TO.N,+3.3V*%
X116039400Y-77216000D03*
%TD*%
D31*
%TO.P,C31,1*%
%TO.N,/ESP32-S3/ADC_NTC*%
X141643400Y-92138200D03*
%TO.P,C31,2*%
%TO.N,GND*%
X140093400Y-92138200D03*
%TD*%
D21*
%TO.P,H3,1*%
%TO.N,N/C*%
X216000000Y-64000000D03*
%TD*%
D31*
%TO.P,C39,1*%
%TO.N,SW2*%
X139713000Y-77470000D03*
%TO.P,C39,2*%
%TO.N,GND*%
X138163000Y-77470000D03*
%TD*%
D40*
%TO.P,U2,1,GND*%
%TO.N,GND*%
X198505500Y-90518000D03*
%TO.P,U2,2,GND*%
X198505500Y-91418000D03*
%TO.P,U2,3,IN*%
%TO.N,/ESP32-S3/M_IN1*%
X198505500Y-92318000D03*
%TO.P,U2,4,INH*%
%TO.N,/ESP32-S3/M_INH1*%
X198505500Y-93218000D03*
%TO.P,U2,5,IS*%
%TO.N,Net-(U2-IS)*%
X198505500Y-94118000D03*
%TO.P,U2,6,VS*%
%TO.N,+12V_HighSide*%
X198505500Y-95018000D03*
%TO.P,U2,7,VS*%
X198505500Y-95918000D03*
D41*
%TO.P,U2,8,OUT*%
%TO.N,/Power/Motor+*%
X203830500Y-93218000D03*
%TD*%
D33*
%TO.P,C28,1*%
%TO.N,+12V*%
X173372000Y-94996000D03*
%TO.P,C28,2*%
%TO.N,GND*%
X165972000Y-94996000D03*
%TD*%
D15*
%TO.P,CR2,1,IO_1*%
%TO.N,Net-(CR2-IO_1)*%
X158667450Y-84089199D03*
%TO.P,CR2,2,Vss*%
%TO.N,GND*%
X158667450Y-85039200D03*
%TO.P,CR2,3,IO_2*%
%TO.N,Net-(CR2-IO_2)*%
X158667450Y-85989201D03*
%TO.P,CR2,4,IO_3*%
%TO.N,Net-(CR2-IO_3)*%
X161372550Y-85989201D03*
%TO.P,CR2,5,Vcc*%
%TO.N,+3.3V*%
X161372550Y-85039200D03*
%TO.P,CR2,6,IO_4*%
%TO.N,Net-(CR2-IO_4)*%
X161372550Y-84089199D03*
%TD*%
D14*
%TO.P,TH1,1*%
%TO.N,/ESP32-S3/ADC_NTC*%
X209042000Y-96838000D03*
%TO.P,TH1,2*%
%TO.N,GND*%
X209042000Y-98488000D03*
%TD*%
D31*
%TO.P,C35,1*%
%TO.N,IN_4*%
X121171000Y-69951600D03*
%TO.P,C35,2*%
%TO.N,GND*%
X119621000Y-69951600D03*
%TD*%
D42*
%TO.P,C21,1*%
%TO.N,GND*%
X182626000Y-66089000D03*
%TO.P,C21,2*%
%TO.N,/Power/+VBat\u002A*%
X182626000Y-69039000D03*
%TD*%
D28*
%TO.P,C14,1*%
%TO.N,Net-(D2-A)*%
X172313600Y-71107000D03*
%TO.P,C14,2*%
%TO.N,GND*%
X172313600Y-72657000D03*
%TD*%
D13*
%TO.P,R6,1*%
%TO.N,EN*%
X117996200Y-64363600D03*
%TO.P,R6,2*%
%TO.N,+3.3V*%
X119646200Y-64363600D03*
%TD*%
D18*
%TO.P,C25,1*%
%TO.N,GND*%
X170180000Y-74471000D03*
%TO.P,C25,2*%
%TO.N,+12V*%
X170180000Y-77421000D03*
%TD*%
D43*
%TO.P,C7,1*%
%TO.N,+12V_HighSide*%
X197661000Y-84785200D03*
%TO.P,C7,2*%
%TO.N,GND*%
X200611000Y-84785200D03*
%TD*%
D40*
%TO.P,U3,1,GND*%
%TO.N,GND*%
X198505500Y-76040000D03*
%TO.P,U3,2,GND*%
X198505500Y-76940000D03*
%TO.P,U3,3,IN*%
%TO.N,/ESP32-S3/M_IN2*%
X198505500Y-77840000D03*
%TO.P,U3,4,INH*%
%TO.N,/ESP32-S3/M_INH2*%
X198505500Y-78740000D03*
%TO.P,U3,5,IS*%
%TO.N,Net-(U3-IS)*%
X198505500Y-79640000D03*
%TO.P,U3,6,VS*%
%TO.N,+12V_HighSide*%
X198505500Y-80540000D03*
%TO.P,U3,7,VS*%
X198505500Y-81440000D03*
D41*
%TO.P,U3,8,OUT*%
%TO.N,/Power/Motor-*%
X203830500Y-78740000D03*
%TD*%
D44*
%TO.P,F4,1*%
%TO.N,/ESP32-S3/GND3*%
X160843500Y-68326000D03*
%TO.P,F4,2*%
%TO.N,GND*%
X163768500Y-68326000D03*
%TD*%
D45*
%TO.P,U7,1,GND*%
%TO.N,GND*%
X127718901Y-67310000D03*
%TO.P,U7,2,OUT*%
%TO.N,+3.3V*%
X129633899Y-67310000D03*
%TO.P,U7,3,IN*%
%TO.N,+5V*%
X128676400Y-65278000D03*
%TD*%
D21*
%TO.P,H4,1*%
%TO.N,N/C*%
X114000000Y-90000000D03*
%TD*%
D10*
%TO.P,C6,1*%
%TO.N,+12V_HighSide*%
X199478600Y-98552000D03*
%TO.P,C6,2*%
%TO.N,/Power/Motor+*%
X201028600Y-98552000D03*
%TD*%
%TO.P,C32,1*%
%TO.N,IN_1*%
X124955000Y-69951600D03*
%TO.P,C32,2*%
%TO.N,GND*%
X126505000Y-69951600D03*
%TD*%
D13*
%TO.P,R38,1*%
%TO.N,+3.3V*%
X140043400Y-90627200D03*
%TO.P,R38,2*%
%TO.N,/ESP32-S3/ADC_NTC*%
X141693400Y-90627200D03*
%TD*%
D46*
%TO.P,RN3,1,R1.1*%
%TO.N,unconnected-(RN3A-R1.1-Pad1)*%
X155714700Y-80302100D03*
D47*
%TO.P,RN3,2,R2.1*%
%TO.N,unconnected-(RN3B-R2.1-Pad2)*%
X154593290Y-80302100D03*
%TO.P,RN3,3,R3.1*%
%TO.N,Net-(RN3C-R3.1)*%
X153763980Y-80302100D03*
D46*
%TO.P,RN3,4,R4.1*%
%TO.N,Net-(RN3D-R4.1)*%
X152641300Y-80302100D03*
%TO.P,RN3,5,R4.2*%
%TO.N,OUT_2*%
X152641300Y-82054700D03*
D47*
%TO.P,RN3,6,R3.2*%
%TO.N,OUT_1*%
X153762710Y-82054700D03*
%TO.P,RN3,7,R2.2*%
%TO.N,unconnected-(RN3B-R2.2-Pad7)*%
X154592020Y-82054700D03*
D46*
%TO.P,RN3,8,R1.2*%
%TO.N,unconnected-(RN3A-R1.2-Pad8)*%
X155714700Y-82054700D03*
%TD*%
D48*
%TO.P,C23,1*%
%TO.N,+12V_HighSide*%
X179959000Y-87073000D03*
%TO.P,C23,2*%
%TO.N,GND*%
X179959000Y-84123000D03*
%TD*%
D49*
%TO.P,L1,1,1*%
%TO.N,/Power/+VBat*%
X192747900Y-75692000D03*
%TO.P,L1,2,2*%
%TO.N,/Power/+VBat\u002A*%
X184188100Y-75692000D03*
%TD*%
D27*
%TO.P,R16,1*%
%TO.N,GND*%
X183298600Y-61925200D03*
%TO.P,R16,2*%
%TO.N,Enc_2*%
X181648600Y-61925200D03*
%TD*%
D50*
%TO.P,J1,A1_B12,GND*%
%TO.N,GND*%
X140516400Y-66242800D03*
%TO.P,J1,A4_B9,VBUS*%
%TO.N,Net-(D1-A)*%
X139716400Y-66232800D03*
D51*
%TO.P,J1,A5,CC1*%
%TO.N,Net-(J1-CC1)*%
X138566400Y-66217800D03*
%TO.P,J1,A6,DP1*%
%TO.N,Net-(J1-DP1)*%
X137566400Y-66217800D03*
%TO.P,J1,A7,DN1*%
%TO.N,Net-(J1-DN1)*%
X137066400Y-66217800D03*
%TO.P,J1,A8,SBU1*%
%TO.N,unconnected-(J1-SBU1-PadA8)*%
X136066400Y-66217800D03*
D50*
%TO.P,J1,B1_A12,GND*%
%TO.N,GND*%
X134116400Y-66232800D03*
%TO.P,J1,B4_A9,VBUS*%
%TO.N,Net-(D1-A)*%
X134916400Y-66232800D03*
D51*
%TO.P,J1,B5,CC2*%
%TO.N,Net-(J1-CC2)*%
X135566400Y-66217800D03*
%TO.P,J1,B6,DP2*%
%TO.N,Net-(J1-DP1)*%
X136566400Y-66217800D03*
%TO.P,J1,B7,DN2*%
%TO.N,Net-(J1-DN1)*%
X138066400Y-66217800D03*
%TO.P,J1,B8,SBU2*%
%TO.N,unconnected-(J1-SBU2-PadB8)*%
X139066400Y-66217800D03*
D52*
%TO.P,J1,SH1,SHIELD*%
%TO.N,GND*%
X141636400Y-65652800D03*
D53*
X141636400Y-65652800D03*
D52*
%TO.P,J1,SH2,SHIELD*%
X132996400Y-65652800D03*
D53*
X132996400Y-65652800D03*
D54*
%TO.P,J1,SH3,SHIELD*%
X141636400Y-61472800D03*
D53*
X141636400Y-61472800D03*
D54*
%TO.P,J1,SH4,SHIELD*%
X132996400Y-61472800D03*
D53*
X132996400Y-61472800D03*
%TD*%
D11*
%TO.P,C40,1*%
%TO.N,GND*%
X138480800Y-92164200D03*
%TO.P,C40,2*%
%TO.N,+3.3V*%
X138480800Y-90614200D03*
%TD*%
D46*
%TO.P,RN1,1,R1.1*%
%TO.N,M__INH2*%
X128460500Y-71742300D03*
D47*
%TO.P,RN1,2,R2.1*%
%TO.N,M__INH1*%
X129581910Y-71742300D03*
%TO.P,RN1,3,R3.1*%
%TO.N,M__IN2*%
X130411220Y-71742300D03*
D46*
%TO.P,RN1,4,R4.1*%
%TO.N,M__IN1*%
X131533900Y-71742300D03*
%TO.P,RN1,5,R4.2*%
%TO.N,/ESP32-S3/M_IN1*%
X131533900Y-69989700D03*
D47*
%TO.P,RN1,6,R3.2*%
%TO.N,/ESP32-S3/M_IN2*%
X130412490Y-69989700D03*
%TO.P,RN1,7,R2.2*%
%TO.N,/ESP32-S3/M_INH1*%
X129583180Y-69989700D03*
D46*
%TO.P,RN1,8,R1.2*%
%TO.N,/ESP32-S3/M_INH2*%
X128460500Y-69989700D03*
%TD*%
D28*
%TO.P,C1,1*%
%TO.N,GND*%
X134953150Y-69511600D03*
%TO.P,C1,2*%
%TO.N,Net-(C1-Pad2)*%
X134953150Y-71061600D03*
%TD*%
D14*
%TO.P,R4,1*%
%TO.N,Net-(C1-Pad2)*%
X138176000Y-73597000D03*
%TO.P,R4,2*%
%TO.N,D+*%
X138176000Y-75247000D03*
%TD*%
D31*
%TO.P,C34,1*%
%TO.N,IN_3*%
X121171000Y-71475600D03*
%TO.P,C34,2*%
%TO.N,GND*%
X119621000Y-71475600D03*
%TD*%
D55*
%TO.P,RN8,1,R1.1*%
%TO.N,+3.3V*%
X116090700Y-75145900D03*
D56*
%TO.P,RN8,2,R2.1*%
X116090700Y-74024490D03*
%TO.P,RN8,3,R3.1*%
X116090700Y-73195180D03*
D55*
%TO.P,RN8,4,R4.1*%
X116090700Y-72072500D03*
%TO.P,RN8,5,R4.2*%
%TO.N,SD_CS*%
X114338100Y-72072500D03*
D56*
%TO.P,RN8,6,R3.2*%
%TO.N,MOSI*%
X114338100Y-73193910D03*
%TO.P,RN8,7,R2.2*%
%TO.N,CLK*%
X114338100Y-74023220D03*
D55*
%TO.P,RN8,8,R1.2*%
%TO.N,MISO*%
X114338100Y-75145900D03*
%TD*%
D11*
%TO.P,C38,1*%
%TO.N,SW1*%
X138430000Y-80658000D03*
%TO.P,C38,2*%
%TO.N,GND*%
X138430000Y-79108000D03*
%TD*%
D31*
%TO.P,C5,1*%
%TO.N,/Power/Motor+*%
X203975000Y-87503000D03*
%TO.P,C5,2*%
%TO.N,GND*%
X202425000Y-87503000D03*
%TD*%
D46*
%TO.P,RN6,1,R1.1*%
%TO.N,Net-(RN6-R1.1)*%
X149974300Y-80302100D03*
D47*
%TO.P,RN6,2,R2.1*%
%TO.N,Net-(RN6-R2.1)*%
X148852890Y-80302100D03*
%TO.P,RN6,3,R3.1*%
%TO.N,Net-(RN6-R3.1)*%
X148023580Y-80302100D03*
D46*
%TO.P,RN6,4,R4.1*%
%TO.N,Net-(RN6-R4.1)*%
X146900900Y-80302100D03*
%TO.P,RN6,5,R4.2*%
%TO.N,Net-(CR1-IO_2)*%
X146900900Y-82054700D03*
D47*
%TO.P,RN6,6,R3.2*%
%TO.N,Net-(CR1-IO_1)*%
X148022310Y-82054700D03*
%TO.P,RN6,7,R2.2*%
%TO.N,Net-(CR1-IO_3)*%
X148851620Y-82054700D03*
D46*
%TO.P,RN6,8,R1.2*%
%TO.N,Net-(CR1-IO_4)*%
X149974300Y-82054700D03*
%TD*%
D27*
%TO.P,R8,1*%
%TO.N,/Power/Motor-*%
X204025000Y-85979000D03*
%TO.P,R8,2*%
%TO.N,GND*%
X202375000Y-85979000D03*
%TD*%
D57*
%TO.P,C26,1*%
%TO.N,GND*%
X170004000Y-71374000D03*
%TO.P,C26,2*%
%TO.N,Net-(U6-+VIN)*%
X167054000Y-71374000D03*
%TD*%
D46*
%TO.P,RN7,1,R1.1*%
%TO.N,sw_2*%
X161556700Y-80302100D03*
D47*
%TO.P,RN7,2,R2.1*%
%TO.N,Enc_1*%
X160435290Y-80302100D03*
%TO.P,RN7,3,R3.1*%
%TO.N,Enc_2*%
X159605980Y-80302100D03*
D46*
%TO.P,RN7,4,R4.1*%
%TO.N,sw_1*%
X158483300Y-80302100D03*
%TO.P,RN7,5,R4.2*%
%TO.N,Net-(CR2-IO_2)*%
X158483300Y-82054700D03*
D47*
%TO.P,RN7,6,R3.2*%
%TO.N,Net-(CR2-IO_1)*%
X159604710Y-82054700D03*
%TO.P,RN7,7,R2.2*%
%TO.N,Net-(CR2-IO_3)*%
X160434020Y-82054700D03*
D46*
%TO.P,RN7,8,R1.2*%
%TO.N,Net-(CR2-IO_4)*%
X161556700Y-82054700D03*
%TD*%
D58*
%TO.P,D2,1,K*%
%TO.N,+12V*%
X179832000Y-66905500D03*
%TO.P,D2,2,A*%
%TO.N,Net-(D2-A)*%
X179832000Y-68730500D03*
%TD*%
D11*
%TO.P,C29,1*%
%TO.N,+3.3V*%
X131216400Y-67323000D03*
%TO.P,C29,2*%
%TO.N,GND*%
X131216400Y-65773000D03*
%TD*%
D14*
%TO.P,R20,1*%
%TO.N,+12V*%
X162052000Y-91364800D03*
%TO.P,R20,2*%
%TO.N,/ESP32-S3/ADC_VBat*%
X162052000Y-93014800D03*
%TD*%
D55*
%TO.P,RN2,1,R1.1*%
%TO.N,A_IS1*%
X138470900Y-85712300D03*
D56*
%TO.P,RN2,2,R2.1*%
%TO.N,A_IS2*%
X138470900Y-86833710D03*
%TO.P,RN2,3,R3.1*%
%TO.N,A_NTC*%
X138470900Y-87663020D03*
D55*
%TO.P,RN2,4,R4.1*%
%TO.N,A_VBAT*%
X138470900Y-88785700D03*
%TO.P,RN2,5,R4.2*%
%TO.N,/ESP32-S3/ADC_VBat*%
X140223500Y-88785700D03*
D56*
%TO.P,RN2,6,R3.2*%
%TO.N,/ESP32-S3/ADC_NTC*%
X140223500Y-87664290D03*
%TO.P,RN2,7,R2.2*%
%TO.N,/ESP32-S3/M_IS2*%
X140223500Y-86834980D03*
D55*
%TO.P,RN2,8,R1.2*%
%TO.N,/ESP32-S3/M_IS1*%
X140223500Y-85712300D03*
%TD*%
D14*
%TO.P,R5,1*%
%TO.N,Net-(C2-Pad1)*%
X139700000Y-73597000D03*
%TO.P,R5,2*%
%TO.N,D-*%
X139700000Y-75247000D03*
%TD*%
D46*
%TO.P,RN4,1,R1.1*%
%TO.N,Net-(CR1-IO_4)*%
X123964700Y-66382900D03*
D47*
%TO.P,RN4,2,R2.1*%
%TO.N,Net-(CR1-IO_3)*%
X122843290Y-66382900D03*
%TO.P,RN4,3,R3.1*%
%TO.N,Net-(CR1-IO_1)*%
X122013980Y-66382900D03*
D46*
%TO.P,RN4,4,R4.1*%
%TO.N,Net-(CR1-IO_2)*%
X120891300Y-66382900D03*
%TO.P,RN4,5,R4.2*%
%TO.N,IN_4*%
X120891300Y-68135500D03*
D47*
%TO.P,RN4,6,R3.2*%
%TO.N,IN_3*%
X122012710Y-68135500D03*
%TO.P,RN4,7,R2.2*%
%TO.N,IN_2*%
X122842020Y-68135500D03*
D46*
%TO.P,RN4,8,R1.2*%
%TO.N,IN_1*%
X123964700Y-68135500D03*
%TD*%
D28*
%TO.P,C30,1*%
%TO.N,+5V*%
X126136400Y-65773000D03*
%TO.P,C30,2*%
%TO.N,GND*%
X126136400Y-67323000D03*
%TD*%
D10*
%TO.P,C36,1*%
%TO.N,Enc1*%
X140195000Y-84074000D03*
%TO.P,C36,2*%
%TO.N,GND*%
X141745000Y-84074000D03*
%TD*%
D59*
%TO.P,J3,1,1*%
%TO.N,/Power/+VBat*%
X197353000Y-67591500D03*
D60*
%TO.P,J3,2,2*%
%TO.N,GND*%
X202433000Y-67591500D03*
%TD*%
D27*
%TO.P,R13,1*%
%TO.N,/ESP32-S3/ADC_INA*%
X161289200Y-96926400D03*
%TO.P,R13,2*%
%TO.N,A_INA*%
X159639200Y-96926400D03*
%TD*%
D43*
%TO.P,C10,1*%
%TO.N,+12V_HighSide*%
X197661000Y-87122000D03*
%TO.P,C10,2*%
%TO.N,GND*%
X200611000Y-87122000D03*
%TD*%
D48*
%TO.P,C17,1*%
%TO.N,+12V*%
X173228000Y-77421000D03*
%TO.P,C17,2*%
%TO.N,GND*%
X173228000Y-74471000D03*
%TD*%
D33*
%TO.P,C19,1*%
%TO.N,+12V_HighSide*%
X192168000Y-85852000D03*
%TO.P,C19,2*%
%TO.N,GND*%
X184768000Y-85852000D03*
%TD*%
D29*
%TO.P,F2,1*%
%TO.N,Net-(F2-Pad1)*%
X209143600Y-80462500D03*
%TO.P,F2,2*%
%TO.N,Net-(JP1-C)*%
X209143600Y-77537500D03*
%TD*%
D61*
%TO.P,JP1,1,A*%
%TO.N,+3.3V*%
X179832000Y-61900000D03*
%TO.P,JP1,2,C*%
%TO.N,Net-(JP1-C)*%
X179832000Y-63500000D03*
%TO.P,JP1,3,B*%
%TO.N,+12V*%
X179832000Y-65100000D03*
%TD*%
D33*
%TO.P,C18,1*%
%TO.N,+12V*%
X173372000Y-85852000D03*
%TO.P,C18,2*%
%TO.N,GND*%
X165972000Y-85852000D03*
%TD*%
D12*
%TO.P,R9,1*%
%TO.N,Net-(U2-IS)*%
X156819600Y-98665800D03*
%TO.P,R9,2*%
%TO.N,GND*%
X156819600Y-97015800D03*
%TD*%
D62*
%TO.P,H5,1,1*%
%TO.N,Net-(C27-Pad1)*%
X216000000Y-96000000D03*
D63*
X216000000Y-96000000D03*
%TD*%
D64*
%TO.P,J7,1,Pin_1*%
%TO.N,GND*%
X154990800Y-93319600D03*
D65*
%TO.P,J7,2,Pin_2*%
%TO.N,sw_2*%
X152490800Y-93319600D03*
%TD*%
D66*
%TO.P,Q1,1,S*%
%TO.N,/Power/+VBat\u002A*%
X180340000Y-71120000D03*
%TO.P,Q1,2,S*%
X179070000Y-71120000D03*
%TO.P,Q1,3,S*%
X177800000Y-71120000D03*
%TO.P,Q1,4,G*%
%TO.N,Net-(D2-A)*%
X176530000Y-71120000D03*
D67*
%TO.P,Q1,5,D*%
%TO.N,+12V*%
X178435000Y-75857100D03*
%TD*%
D27*
%TO.P,R17,1*%
%TO.N,GND*%
X162115000Y-77978000D03*
%TO.P,R17,2*%
%TO.N,Enc_1*%
X160465000Y-77978000D03*
%TD*%
D55*
%TO.P,RN5,1,R1.1*%
%TO.N,Net-(CR2-IO_4)*%
X141846300Y-82435700D03*
D56*
%TO.P,RN5,2,R2.1*%
%TO.N,Net-(CR2-IO_3)*%
X141846300Y-81314290D03*
%TO.P,RN5,3,R3.1*%
%TO.N,Net-(CR2-IO_1)*%
X141846300Y-80484980D03*
D55*
%TO.P,RN5,4,R4.1*%
%TO.N,Net-(CR2-IO_2)*%
X141846300Y-79362300D03*
%TO.P,RN5,5,R4.2*%
%TO.N,SW2*%
X140093700Y-79362300D03*
D56*
%TO.P,RN5,6,R3.2*%
%TO.N,SW1*%
X140093700Y-80483710D03*
%TO.P,RN5,7,R2.2*%
%TO.N,Enc2*%
X140093700Y-81313020D03*
D55*
%TO.P,RN5,8,R1.2*%
%TO.N,Enc1*%
X140093700Y-82435700D03*
%TD*%
D11*
%TO.P,C2,1*%
%TO.N,Net-(C2-Pad1)*%
X140033150Y-70575000D03*
%TO.P,C2,2*%
%TO.N,GND*%
X140033150Y-69025000D03*
%TD*%
%TO.P,C12,1*%
%TO.N,/ESP32-S3/M_IS2*%
X146939000Y-98577200D03*
%TO.P,C12,2*%
%TO.N,GND*%
X146939000Y-97027200D03*
%TD*%
D68*
%TO.P,U6,1,+VIN*%
%TO.N,Net-(U6-+VIN)*%
X170078400Y-66827400D03*
%TO.P,U6,2,GND*%
%TO.N,GND*%
X172618400Y-66827400D03*
%TO.P,U6,3,+VOUT*%
%TO.N,+3.3V*%
X175158400Y-66827400D03*
%TD*%
D28*
%TO.P,C27,1*%
%TO.N,Net-(C27-Pad1)*%
X212090000Y-96901000D03*
%TO.P,C27,2*%
%TO.N,GND*%
X212090000Y-98451000D03*
%TD*%
D14*
%TO.P,R27,1*%
%TO.N,Net-(C27-Pad1)*%
X210566000Y-96851000D03*
%TO.P,R27,2*%
%TO.N,GND*%
X210566000Y-98501000D03*
%TD*%
D69*
%TO.P,S1,1*%
%TO.N,Boot*%
X124736400Y-61334800D03*
%TO.P,S1,2*%
%TO.N,GND*%
X127536400Y-61334800D03*
D70*
%TO.P,S1,P1,SHIELD*%
X126136400Y-61219800D03*
D71*
%TO.P,S1,S1,SHIELD__1*%
X128336400Y-60694800D03*
D72*
X127961400Y-60514800D03*
%TO.P,S1,S2,SHIELD__2*%
X124304400Y-60513800D03*
D71*
X123936400Y-60694800D03*
%TD*%
D19*
%TO.P,C16,1*%
%TO.N,+12V*%
X176628000Y-81661000D03*
%TO.P,C16,2*%
%TO.N,GND*%
X179578000Y-81661000D03*
%TD*%
D21*
%TO.P,H1,1*%
%TO.N,N/C*%
X114000000Y-64000000D03*
%TD*%
D69*
%TO.P,S2,1*%
%TO.N,EN*%
X117853000Y-61334800D03*
%TO.P,S2,2*%
%TO.N,GND*%
X120653000Y-61334800D03*
D70*
%TO.P,S2,P1,SHIELD*%
X119253000Y-61219800D03*
D71*
%TO.P,S2,S1,SHIELD__1*%
X121453000Y-60694800D03*
D72*
X121078000Y-60514800D03*
%TO.P,S2,S2,SHIELD__2*%
X117421000Y-60513800D03*
D71*
X117053000Y-60694800D03*
%TD*%
D73*
%TO.N,Boot*%
X111760000Y-81534000D03*
X118745000Y-65659000D03*
X124104400Y-62105000D03*
%TO.N,EN*%
X120523000Y-86487000D03*
X114808000Y-86106000D03*
%TO.N,sw_1*%
X157808712Y-71664564D03*
X212128000Y-66294000D03*
%TO.N,GND*%
X129387600Y-90525600D03*
D74*
X165354000Y-88214200D03*
X187985400Y-95097600D03*
X188620400Y-95097600D03*
X191389000Y-67411600D03*
X128168400Y-82397600D03*
X164084000Y-92659200D03*
X208534000Y-69850000D03*
D73*
X141732000Y-85039200D03*
D74*
X171272200Y-73507600D03*
D73*
X126847600Y-67310000D03*
D74*
X192024000Y-68046600D03*
X128168400Y-85140800D03*
X137500000Y-67750000D03*
X199593200Y-89077800D03*
X164084000Y-88214200D03*
X167259000Y-92659200D03*
X180771800Y-82194400D03*
X181406800Y-80924400D03*
X185242200Y-83540600D03*
X201955400Y-71501000D03*
X187985400Y-94462600D03*
X189484000Y-68681600D03*
X171907200Y-73507600D03*
D73*
X205943200Y-97688400D03*
D74*
X183337200Y-83540600D03*
X187985400Y-93827600D03*
X201955400Y-72136000D03*
X191389000Y-68681600D03*
D73*
X156236060Y-96405800D03*
D74*
X167894000Y-92659200D03*
X164719000Y-93294200D03*
X183972200Y-83540600D03*
X190119000Y-68046600D03*
X187350400Y-95732600D03*
D73*
X113225413Y-75152957D03*
D74*
X111556800Y-79705200D03*
X189484000Y-68046600D03*
X188620400Y-94462600D03*
X198882000Y-89916000D03*
X166624000Y-88214200D03*
X172542200Y-73507600D03*
X129540000Y-85140800D03*
X180771800Y-80924400D03*
X201955400Y-70866000D03*
X192024000Y-67411600D03*
X164719000Y-87579200D03*
X165354000Y-93294200D03*
X129540000Y-83769200D03*
X198805800Y-74726800D03*
X165100000Y-67310000D03*
X198805800Y-75361800D03*
X128117600Y-86614000D03*
X185877200Y-84175600D03*
X198170800Y-74726800D03*
X167894000Y-87579200D03*
X141558200Y-72136000D03*
X187985400Y-96367600D03*
D73*
X141478000Y-67665600D03*
D74*
X164719000Y-88214200D03*
X133451600Y-72136000D03*
X173177200Y-73507600D03*
X151982400Y-84559971D03*
X180771800Y-82829400D03*
X166624000Y-87579200D03*
X139827000Y-76327000D03*
X164719000Y-87579200D03*
X167259000Y-93294200D03*
X201320400Y-73406000D03*
D73*
X147966901Y-86639400D03*
D74*
X167259000Y-87579200D03*
X190754000Y-68681600D03*
X188620400Y-95732600D03*
X164719000Y-92659200D03*
X170840400Y-71374000D03*
X187350400Y-94462600D03*
X184607200Y-84175600D03*
X121875000Y-72593200D03*
X129540000Y-86614000D03*
D75*
X183997600Y-61366400D03*
D74*
X187350400Y-93827600D03*
D73*
X130454400Y-65735200D03*
D74*
X164084000Y-92659200D03*
X207772000Y-69850000D03*
X167894000Y-88214200D03*
X164084000Y-93294200D03*
D73*
X213233000Y-98552000D03*
D74*
X183870600Y-65176400D03*
X201955400Y-72771000D03*
X185140600Y-65176400D03*
X190754000Y-68046600D03*
D73*
X139082131Y-84503949D03*
D74*
X129540000Y-82397600D03*
D73*
X159715200Y-91414800D03*
X120680000Y-92172000D03*
X126542800Y-72694800D03*
D74*
X201320400Y-72136000D03*
X181406800Y-81559400D03*
X198170800Y-75361800D03*
X166624000Y-93294200D03*
X191389000Y-68046600D03*
X167894000Y-93294200D03*
X198882000Y-89077800D03*
X181406800Y-82829400D03*
X164719000Y-92659200D03*
X169367200Y-73507600D03*
X197459600Y-89941400D03*
X198170800Y-89103200D03*
X170840400Y-72009000D03*
X198170800Y-89941400D03*
X187350400Y-96367600D03*
X188620400Y-93827600D03*
X164084000Y-87579200D03*
X184505600Y-65176400D03*
X164719000Y-88214200D03*
X201422000Y-87884000D03*
X165354000Y-92659200D03*
X165989000Y-88214200D03*
X165862000Y-68199000D03*
D73*
X119037000Y-71995036D03*
X122682000Y-61305000D03*
D74*
X187985400Y-95732600D03*
X170002200Y-73507600D03*
X190119000Y-68681600D03*
X189484000Y-67411600D03*
X190119000Y-67411600D03*
D73*
X152845086Y-96355000D03*
D74*
X201422000Y-86004400D03*
X167259000Y-88214200D03*
D73*
X146608800Y-96113600D03*
D74*
X183235600Y-65176400D03*
X201955400Y-73406000D03*
X187350400Y-95097600D03*
X201320400Y-70866000D03*
X165354000Y-87579200D03*
X128168400Y-83769200D03*
X196799200Y-89941400D03*
X201422000Y-85344000D03*
X199593200Y-89916000D03*
X165989000Y-92659200D03*
X185242200Y-84175600D03*
X180771800Y-81559400D03*
X196799200Y-89103200D03*
X130962400Y-85140800D03*
D73*
X122174000Y-92202000D03*
D74*
X168732200Y-73507600D03*
X201422000Y-86664800D03*
X183337200Y-84175600D03*
X185877200Y-83540600D03*
D73*
X130403600Y-90525600D03*
D74*
X192024000Y-68681600D03*
X166624000Y-92659200D03*
X201320400Y-72771000D03*
X126746000Y-85140800D03*
X181406800Y-82194400D03*
D73*
X159715200Y-86614000D03*
X164338000Y-80556000D03*
D74*
X164084000Y-87579200D03*
X201320400Y-71501000D03*
X197459600Y-89103200D03*
X121869200Y-78079600D03*
X170637200Y-73507600D03*
D73*
X111760000Y-82804000D03*
D74*
X165989000Y-93294200D03*
X188620400Y-96367600D03*
D73*
X149456138Y-96551264D03*
D74*
X170840400Y-70739000D03*
D73*
X162115200Y-95402400D03*
D74*
X183972200Y-84175600D03*
X209296000Y-69850000D03*
D73*
X110998000Y-66395600D03*
D74*
X201422000Y-87274400D03*
X173812200Y-73507600D03*
X130962400Y-83769200D03*
X126746000Y-83769200D03*
X164973000Y-68199000D03*
X165989000Y-87579200D03*
D73*
X128473200Y-90518400D03*
D74*
X184607200Y-83540600D03*
X190754000Y-67411600D03*
X164719000Y-93294200D03*
%TO.N,+12V*%
X178917600Y-77825600D03*
X178917600Y-74015600D03*
X176199800Y-91465400D03*
X176199800Y-90830400D03*
X175564800Y-89560400D03*
X175615600Y-82092800D03*
X177647600Y-77825600D03*
X171729400Y-93268800D03*
X172364400Y-87579200D03*
X176199800Y-89560400D03*
X175133000Y-76327000D03*
X175133000Y-78232000D03*
X175615600Y-81457800D03*
X175133000Y-77597000D03*
D73*
X171958000Y-91364800D03*
D74*
X175615600Y-80822800D03*
X177647600Y-76555600D03*
D73*
X178562000Y-67564000D03*
D74*
X175564800Y-90830400D03*
X173634400Y-93268800D03*
X178917600Y-75285600D03*
X172999400Y-93268800D03*
X171729400Y-87579200D03*
X175133000Y-76962000D03*
X176199800Y-90195400D03*
X178917600Y-76555600D03*
D73*
X162891200Y-91364800D03*
X163525200Y-76606400D03*
D74*
X172364400Y-93268800D03*
X172999400Y-87579200D03*
X175564800Y-91465400D03*
X175564800Y-90195400D03*
X175768000Y-76327000D03*
X177647600Y-74015600D03*
X175768000Y-76962000D03*
X175768000Y-78232000D03*
D73*
X164338000Y-77419200D03*
D74*
X173634400Y-87579200D03*
X175768000Y-77597000D03*
X175615600Y-82727800D03*
X177647600Y-75285600D03*
%TO.N,/Power/+VBat*%
X195554600Y-74244200D03*
X195554600Y-76149200D03*
X194919600Y-73609200D03*
X194919600Y-74879200D03*
X194919600Y-75514200D03*
X194919600Y-76149200D03*
X195554600Y-73609200D03*
X195554600Y-75514200D03*
X195554600Y-74879200D03*
X194919600Y-74244200D03*
D73*
%TO.N,/ESP32-S3/ADC_VBat*%
X141122400Y-89458800D03*
X158899935Y-93819400D03*
%TO.N,EN_C1*%
X210820000Y-64262000D03*
%TO.N,Net-(CR1-IO_2)*%
X121557514Y-64509114D03*
X145567400Y-80746600D03*
X133604000Y-78359000D03*
X124764800Y-78613000D03*
%TO.N,EN_C2*%
X208483200Y-61518800D03*
%TO.N,Net-(U2-IS)*%
X196523057Y-94068000D03*
X194596285Y-97619085D03*
D74*
%TO.N,Net-(U3-IS)*%
X194005200Y-88392000D03*
X191439800Y-90906600D03*
D73*
X151256500Y-97055000D03*
X195072000Y-83159600D03*
%TO.N,Net-(CR1-IO_3)*%
X128066800Y-77317600D03*
X123850400Y-64516000D03*
D74*
X148851620Y-83014820D03*
D73*
X133604000Y-77325635D03*
D74*
%TO.N,Net-(CR1-IO_4)*%
X149974300Y-83070700D03*
D73*
X125120400Y-64516000D03*
X133604000Y-80645000D03*
X129082800Y-80113000D03*
D74*
%TO.N,+12V_HighSide*%
X180848000Y-87985600D03*
X182118000Y-90805000D03*
X179578000Y-87985600D03*
X196748400Y-87223600D03*
X182118000Y-90170000D03*
X196748400Y-86614000D03*
X181483000Y-90170000D03*
X197815200Y-97332800D03*
X192176400Y-93268800D03*
X196748400Y-84683600D03*
X192125600Y-84175600D03*
X196748400Y-85344000D03*
X196900800Y-81432400D03*
X182118000Y-89535000D03*
X196900800Y-82092800D03*
X197815200Y-96697800D03*
X196900800Y-80772000D03*
X190855600Y-84175600D03*
X190906400Y-93268800D03*
X181483000Y-87985600D03*
X181483000Y-90805000D03*
X191490600Y-84175600D03*
X182118000Y-91440000D03*
X181483000Y-91440000D03*
X198450200Y-96697800D03*
X198450200Y-97332800D03*
X181483000Y-89535000D03*
X180213000Y-87985600D03*
X196900800Y-82702400D03*
X191541400Y-93268800D03*
X196748400Y-86004400D03*
D73*
%TO.N,+3.3V*%
X176936400Y-93218000D03*
X162610800Y-96355000D03*
X162215600Y-85217118D03*
X111760000Y-84683600D03*
X120973314Y-62299314D03*
X133045200Y-90482000D03*
X130403600Y-67564000D03*
X150575901Y-87015699D03*
X150876000Y-66548000D03*
D74*
X178460400Y-61468000D03*
D73*
X134620003Y-90679000D03*
X150876000Y-67360800D03*
X137922000Y-72136000D03*
X115773200Y-71018400D03*
X112192129Y-73195000D03*
X133200000Y-68300000D03*
X156667200Y-84988400D03*
X133807200Y-90482000D03*
D74*
X177749200Y-61468000D03*
%TO.N,Enc1*%
X139446000Y-82905600D03*
D73*
X134823200Y-83261200D03*
%TO.N,Net-(CR1-IO_1)*%
X133623965Y-79417639D03*
X127152400Y-79413000D03*
D74*
X147144790Y-83139892D03*
D73*
X122682000Y-64516000D03*
%TO.N,IN_1*%
X125425200Y-72724600D03*
X125425200Y-69138800D03*
%TO.N,IN_4*%
X119837000Y-68681600D03*
X119700771Y-72849400D03*
%TO.N,OUT1*%
X152704800Y-87071200D03*
X132791200Y-76301600D03*
D74*
%TO.N,OUT2*%
X148183600Y-87782400D03*
D73*
X134366000Y-85902800D03*
%TO.N,/ESP32-S3/M_IS1*%
X150946286Y-92380025D03*
X156667200Y-83413600D03*
%TO.N,/ESP32-S3/M_IS2*%
X155397200Y-86563200D03*
X148132800Y-93954800D03*
X149817434Y-93314063D03*
X145894829Y-91793532D03*
%TO.N,/ESP32-S3/M_INH1*%
X193590566Y-97493434D03*
X195862722Y-93246722D03*
X129370783Y-68985830D03*
X134239000Y-88782000D03*
X130200400Y-81026000D03*
X148956000Y-94754800D03*
%TO.N,/ESP32-S3/M_IN2*%
X130320775Y-68990404D03*
X195580000Y-77520800D03*
%TO.N,/ESP32-S3/M_IN1*%
X145859500Y-97624900D03*
X131533900Y-69050942D03*
X195896681Y-92010681D03*
X142900400Y-91351000D03*
%TO.N,A_INA*%
X129540000Y-91694000D03*
X158600339Y-95554800D03*
%TO.N,/ESP32-S3/ADC_NTC*%
X207289400Y-98272600D03*
X145186400Y-98450400D03*
D74*
%TO.N,Net-(CR2-IO_1)*%
X153779712Y-90230025D03*
X159410400Y-83312000D03*
D73*
%TO.N,sw_2*%
X163017200Y-80975200D03*
D74*
%TO.N,/Power/+VBat\u002A*%
X180040008Y-69959442D03*
X182168800Y-75793600D03*
X183464200Y-69900800D03*
X184099200Y-69900800D03*
X184734200Y-69900800D03*
X182168800Y-76428600D03*
X182168800Y-75158600D03*
X185369200Y-69900800D03*
X178770008Y-69959442D03*
X179405008Y-69959442D03*
X178135008Y-69959442D03*
X182168800Y-74523600D03*
%TO.N,/Power/Motor+*%
X205689200Y-96418400D03*
X203149200Y-96418400D03*
X201879200Y-92608400D03*
X204419200Y-91338400D03*
X204419200Y-96418400D03*
X204419200Y-92608400D03*
X203149200Y-93878400D03*
X201879200Y-90068400D03*
X205689200Y-95148400D03*
X201879200Y-95148400D03*
X203149200Y-92608400D03*
X204419200Y-93878400D03*
X205689200Y-90068400D03*
X201879200Y-93878400D03*
X203149200Y-91338400D03*
X203149200Y-90068400D03*
X205689200Y-91338400D03*
X204419200Y-90068400D03*
X203149200Y-95148400D03*
X205689200Y-93878400D03*
X201879200Y-91338400D03*
X205689200Y-92608400D03*
X204419200Y-95148400D03*
X201879200Y-96418400D03*
%TO.N,/Power/Motor-*%
X205790800Y-79349600D03*
X205790800Y-76809600D03*
X204520800Y-75539600D03*
X204520800Y-76809600D03*
X203250800Y-75539600D03*
X203250800Y-78079600D03*
X204520800Y-80619600D03*
X204520800Y-79349600D03*
X201980800Y-78079600D03*
X201980800Y-79349600D03*
X201980800Y-81889600D03*
X203250800Y-81889600D03*
X201980800Y-80619600D03*
X203250800Y-80619600D03*
X204520800Y-78079600D03*
X204520800Y-81889600D03*
X205790800Y-75539600D03*
X205790800Y-80619600D03*
X201980800Y-76809600D03*
X201980800Y-75539600D03*
X203250800Y-76809600D03*
X205790800Y-81889600D03*
X205790800Y-78079600D03*
X203250800Y-79349600D03*
D73*
%TO.N,Net-(JP4-C)*%
X146024600Y-71602600D03*
%TO.N,Net-(JP1-C)*%
X205994000Y-71882000D03*
X208534000Y-75946000D03*
%TO.N,Enc_1*%
X159698898Y-70818771D03*
%TO.N,Enc_2*%
X158496000Y-70864564D03*
X180882002Y-62293600D03*
%TO.N,SD_CS*%
X120650000Y-82042000D03*
X113241660Y-70848953D03*
%TO.N,MOSI*%
X113454622Y-73095278D03*
X120700800Y-83261200D03*
%TO.N,CLK*%
X116789200Y-80264000D03*
X113388297Y-74042963D03*
%TO.N,MISO*%
X116230400Y-81381600D03*
X113439400Y-77243987D03*
%TO.N,DAT2*%
X113182400Y-69900800D03*
X117195600Y-69900800D03*
%TO.N,DAT1*%
X114503200Y-78202000D03*
%TO.N,/ESP32-S3/M_INH2*%
X195444441Y-78858441D03*
X143256000Y-72136000D03*
X143256000Y-70320000D03*
X128548250Y-68510493D03*
%TO.N,SD_DET*%
X120650000Y-89611200D03*
D74*
%TO.N,/GND2*%
X210312000Y-75184000D03*
X209550000Y-75184000D03*
X210312000Y-74422000D03*
%TO.N,/ESP32-S3/GND3*%
X160020000Y-68072000D03*
X160020000Y-67310000D03*
X160782000Y-67310000D03*
%TD*%
D76*
%TO.N,Boot*%
X123937600Y-62105000D02*
X123304600Y-62738000D01*
X118601200Y-72881200D02*
X118601200Y-75662000D01*
X118745000Y-65659000D02*
X118110000Y-66294000D01*
X112903000Y-81730000D02*
X111956000Y-81730000D01*
X111956000Y-81730000D02*
X111760000Y-81534000D01*
X124736400Y-61473000D02*
X124736400Y-61334800D01*
X118110000Y-66294000D02*
X118110000Y-72390000D01*
X118110000Y-72390000D02*
X118601200Y-72881200D01*
X124104400Y-62105000D02*
X124736400Y-61473000D01*
X124104400Y-62105000D02*
X123937600Y-62105000D01*
%TO.N,EN*%
X120523000Y-86487000D02*
X120523000Y-86741000D01*
X110896400Y-85750400D02*
X110896400Y-68986400D01*
X114554000Y-85852000D02*
X114554000Y-84651000D01*
X123414000Y-89632000D02*
X136101200Y-89632000D01*
X110896400Y-68986400D02*
X112318800Y-67564000D01*
X114808000Y-86106000D02*
X114428700Y-86485300D01*
X112318800Y-67564000D02*
X115595400Y-67564000D01*
X117853000Y-65306400D02*
X117853000Y-61297000D01*
X120523000Y-86741000D02*
X123414000Y-89632000D01*
X114428700Y-86485300D02*
X111631300Y-86485300D01*
X115595400Y-67564000D02*
X117853000Y-65306400D01*
X114554000Y-84651000D02*
X114173000Y-84270000D01*
X114808000Y-86106000D02*
X114554000Y-85852000D01*
X111631300Y-86485300D02*
X110896400Y-85750400D01*
%TO.N,TX*%
X117094000Y-87122000D02*
X115204000Y-85232000D01*
X117094000Y-87630000D02*
X117094000Y-87122000D01*
X117826000Y-88362000D02*
X117094000Y-87630000D01*
X114242000Y-83000000D02*
X114173000Y-83000000D01*
X118601200Y-88362000D02*
X117826000Y-88362000D01*
X115204000Y-83962000D02*
X114242000Y-83000000D01*
X115204000Y-85232000D02*
X115204000Y-83962000D01*
%TO.N,RX*%
X115854000Y-84866000D02*
X118080000Y-87092000D01*
X118080000Y-87092000D02*
X118601200Y-87092000D01*
X115854000Y-83342000D02*
X115854000Y-84866000D01*
X114173000Y-81730000D02*
X114242000Y-81730000D01*
X114242000Y-81730000D02*
X115854000Y-83342000D01*
D77*
%TO.N,sw_1*%
X213170001Y-68641600D02*
X213156800Y-68628399D01*
D76*
X213170001Y-67336001D02*
X213170001Y-68641600D01*
X157808712Y-71664564D02*
X158227000Y-72082852D01*
X158483300Y-79844900D02*
X158483300Y-80302100D01*
X212128000Y-66294000D02*
X213170001Y-67336001D01*
X158227000Y-72082852D02*
X158227000Y-79034639D01*
X158227000Y-79034639D02*
X158242000Y-79049639D01*
X158242000Y-79049639D02*
X158242000Y-79629000D01*
X158242000Y-79629000D02*
X158267400Y-79629000D01*
D77*
X218170001Y-68641600D02*
X213170001Y-68641600D01*
D76*
X158267400Y-79629000D02*
X158483300Y-79844900D01*
%TO.N,GND*%
X119621000Y-69951600D02*
X119621000Y-71475600D01*
D77*
X118601200Y-92172000D02*
X120680000Y-92172000D01*
D78*
X119403000Y-61332000D02*
X120618000Y-61332000D01*
D76*
X132448600Y-67005200D02*
X131216400Y-65773000D01*
X126542800Y-69989400D02*
X126505000Y-69951600D01*
X122415000Y-62738000D02*
X122415000Y-61572000D01*
X131216400Y-65773000D02*
X131203400Y-65786000D01*
X164338000Y-80556000D02*
X164172800Y-80556000D01*
X140516400Y-66242800D02*
X141046400Y-66242800D01*
X134953150Y-69511600D02*
X134852500Y-69511600D01*
X130505200Y-65786000D02*
X130454400Y-65735200D01*
X141478000Y-67665600D02*
X140516400Y-66704000D01*
X127536400Y-60939800D02*
X127726200Y-60750000D01*
X149561064Y-96551264D02*
X149987000Y-96977200D01*
X133430200Y-70933900D02*
X133430200Y-71111600D01*
X112903000Y-83000000D02*
X112707000Y-82804000D01*
X183997600Y-61366400D02*
X183438800Y-61925200D01*
D78*
X138430000Y-77737000D02*
X138163000Y-77470000D01*
D76*
X127705901Y-67323000D02*
X127718901Y-67310000D01*
X138506800Y-92138200D02*
X138480800Y-92164200D01*
D79*
X120653000Y-61334800D02*
X120653000Y-60834800D01*
D76*
X140093400Y-92138200D02*
X138506800Y-92138200D01*
X205079600Y-98552000D02*
X204533000Y-98552000D01*
X141046400Y-66242800D02*
X141636400Y-65652800D01*
X119621000Y-71475600D02*
X119101564Y-71995036D01*
D80*
X133451600Y-71133000D02*
X133430200Y-71111600D01*
D76*
X141558200Y-72136000D02*
X141558200Y-70625000D01*
D81*
X141593900Y-61010800D02*
X141636400Y-61053300D01*
D77*
X136101200Y-92172000D02*
X132050000Y-92172000D01*
X132050000Y-92172000D02*
X130396400Y-90518400D01*
D76*
X132996400Y-61472800D02*
X129059200Y-61472800D01*
X137493150Y-68729600D02*
X137493150Y-67756850D01*
X127536400Y-61334800D02*
X127536400Y-60939800D01*
X164172800Y-80556000D02*
X162115000Y-78498200D01*
X138430000Y-84328000D02*
X138906182Y-84328000D01*
D78*
X126136400Y-61219800D02*
X126286400Y-61369800D01*
D81*
X133038900Y-61010800D02*
X141593900Y-61010800D01*
D76*
X134116400Y-66899200D02*
X134010400Y-67005200D01*
D79*
X120653000Y-60834800D02*
X120837800Y-60650000D01*
D76*
X119101564Y-71995036D02*
X119037000Y-71995036D01*
X179637500Y-97087500D02*
X182676500Y-97087500D01*
X126834600Y-67323000D02*
X126136400Y-67323000D01*
D77*
X213233000Y-98552000D02*
X210617000Y-98552000D01*
D76*
X183438800Y-61925200D02*
X183298600Y-61925200D01*
X134116400Y-66090800D02*
X134116400Y-66899200D01*
D78*
X120618000Y-61332000D02*
X120653000Y-61297000D01*
D76*
X141745000Y-84074000D02*
X141745000Y-85026200D01*
X127718901Y-67048299D02*
X127718901Y-67310000D01*
D78*
X126286400Y-61369800D02*
X127501400Y-61369800D01*
D82*
X172618400Y-66827400D02*
X172618400Y-67970400D01*
D77*
X130396400Y-90518400D02*
X128473200Y-90518400D01*
D76*
X146964400Y-96469200D02*
X146964400Y-97001800D01*
X179070000Y-96520000D02*
X179637500Y-97087500D01*
D81*
X132996400Y-61053300D02*
X133038900Y-61010800D01*
D78*
X153555886Y-97065800D02*
X153771600Y-97065800D01*
D77*
X212090000Y-98451000D02*
X210616000Y-98451000D01*
D76*
X147966901Y-85305101D02*
X147966901Y-86639400D01*
D78*
X156236060Y-96405800D02*
X156819600Y-96989340D01*
D76*
X120680000Y-92172000D02*
X120710000Y-92202000D01*
X126847600Y-67310000D02*
X126860600Y-67323000D01*
D79*
X120837800Y-60650000D02*
X121078000Y-60650000D01*
D76*
X122415000Y-61572000D02*
X122682000Y-61305000D01*
X137493150Y-67756850D02*
X137500000Y-67750000D01*
X127726200Y-60750000D02*
X127961400Y-60750000D01*
X140516400Y-66704000D02*
X140516400Y-66217800D01*
X151993600Y-84582000D02*
X152400000Y-84988400D01*
X129059200Y-61472800D02*
X128336400Y-60750000D01*
D78*
X138430000Y-79108000D02*
X138430000Y-77737000D01*
D76*
X140308200Y-92202000D02*
X140122200Y-92016000D01*
X138906182Y-84328000D02*
X139082131Y-84503949D01*
X146964400Y-97001800D02*
X146939000Y-97027200D01*
X128320800Y-66446400D02*
X127718901Y-67048299D01*
D78*
X138383238Y-77470000D02*
X139526238Y-76327000D01*
D76*
X119596200Y-62839600D02*
X119596200Y-62391600D01*
X134852500Y-69511600D02*
X133430200Y-70933900D01*
D78*
X119253000Y-61182000D02*
X119403000Y-61332000D01*
D76*
X126505000Y-69951600D02*
X126505000Y-71475600D01*
D78*
X120645000Y-61305000D02*
X120618000Y-61332000D01*
D77*
X159715200Y-91414800D02*
X158927000Y-91414800D01*
D76*
X146919151Y-84988400D02*
X147650200Y-84988400D01*
X141745000Y-85026200D02*
X141732000Y-85039200D01*
X209042000Y-98488000D02*
X210553000Y-98488000D01*
X152400000Y-84988400D02*
X153079450Y-84988400D01*
X153821600Y-97015800D02*
X153771600Y-97065800D01*
X182676500Y-97087500D02*
X184768000Y-94996000D01*
X160464000Y-91414800D02*
X159715200Y-91414800D01*
D77*
X210616000Y-98451000D02*
X210566000Y-98501000D01*
X120710000Y-92202000D02*
X122174000Y-92202000D01*
D76*
X205943200Y-97688400D02*
X205079600Y-98552000D01*
D78*
X152845086Y-96355000D02*
X153555886Y-97065800D01*
D76*
X126542800Y-72694800D02*
X126542800Y-69989400D01*
X130403600Y-65786000D02*
X129692400Y-65786000D01*
X130454400Y-65735200D02*
X130403600Y-65786000D01*
X158667450Y-85039200D02*
X159398499Y-85039200D01*
D78*
X127501400Y-61369800D02*
X127536400Y-61334800D01*
D76*
X134116400Y-66232800D02*
X133576400Y-66232800D01*
D78*
X122682000Y-61305000D02*
X120645000Y-61305000D01*
D76*
X134010400Y-67005200D02*
X132448600Y-67005200D01*
X210553000Y-98488000D02*
X210566000Y-98501000D01*
X126847600Y-67310000D02*
X126834600Y-67323000D01*
X126136400Y-68681600D02*
X126505000Y-69050200D01*
D78*
X161239200Y-95402400D02*
X162115200Y-95402400D01*
X138163000Y-77470000D02*
X138383238Y-77470000D01*
D76*
X140033150Y-69099950D02*
X141558200Y-70625000D01*
X179070000Y-96387500D02*
X179070000Y-96520000D01*
X147650200Y-84988400D02*
X147966901Y-85305101D01*
D78*
X148121285Y-86485016D02*
X147966901Y-86639400D01*
D76*
X159398499Y-85039200D02*
X159715200Y-85355901D01*
X151993600Y-84571171D02*
X151982400Y-84559971D01*
X126505000Y-69050200D02*
X126505000Y-69951600D01*
X151993600Y-84582000D02*
X151993600Y-84571171D01*
D78*
X134953150Y-69600100D02*
X135120150Y-69767100D01*
D76*
X126136400Y-67323000D02*
X126136400Y-68681600D01*
X129692400Y-65786000D02*
X129032000Y-66446400D01*
D77*
X210617000Y-98552000D02*
X210566000Y-98501000D01*
D76*
X146608800Y-96113600D02*
X146964400Y-96469200D01*
X119596200Y-62391600D02*
X120653000Y-61334800D01*
X133576400Y-66232800D02*
X132996400Y-65652800D01*
X112707000Y-82804000D02*
X111760000Y-82804000D01*
D82*
X172618400Y-67970400D02*
X170385000Y-70203800D01*
D76*
X133451600Y-72136000D02*
X133451600Y-71133000D01*
X149456138Y-96551264D02*
X149561064Y-96551264D01*
D78*
X156819600Y-96989340D02*
X156819600Y-97015800D01*
D76*
X131203400Y-65786000D02*
X130505200Y-65786000D01*
X126860600Y-67323000D02*
X127705901Y-67323000D01*
D79*
X119697000Y-62738000D02*
X119888000Y-62738000D01*
D76*
X159715200Y-85355901D02*
X159715200Y-86614000D01*
X129032000Y-66446400D02*
X128320800Y-66446400D01*
D77*
X165591000Y-94615000D02*
X165972000Y-94996000D01*
D78*
X139526238Y-76327000D02*
X139827000Y-76327000D01*
D77*
X136101200Y-92172000D02*
X138416200Y-92172000D01*
D76*
%TO.N,Net-(C1-Pad2)*%
X138176000Y-73597000D02*
X136543150Y-71964150D01*
X136397650Y-71150100D02*
X136543150Y-71004600D01*
X136543150Y-71964150D02*
X136543150Y-71004600D01*
X134953150Y-71150100D02*
X136397650Y-71150100D01*
X136543150Y-71667099D02*
X136543150Y-71004600D01*
%TO.N,Net-(C2-Pad1)*%
X139192000Y-73089000D02*
X139192000Y-71150100D01*
X139603550Y-71004600D02*
X138443150Y-71004600D01*
X139700000Y-73597000D02*
X139192000Y-73089000D01*
X140033150Y-70575000D02*
X139603550Y-71004600D01*
%TO.N,+5V*%
X128676400Y-63530800D02*
X128676400Y-65430400D01*
X128391600Y-63246000D02*
X128676400Y-63530800D01*
X128676400Y-65278000D02*
X126631400Y-65278000D01*
X126631400Y-65278000D02*
X126136400Y-65773000D01*
D80*
%TO.N,Net-(D1-A)*%
X139716400Y-65652749D02*
X139716400Y-66090800D01*
D76*
X134683100Y-63195200D02*
X136028525Y-64540625D01*
D80*
X134916400Y-66090800D02*
X134916400Y-65652749D01*
D76*
X130891600Y-63246000D02*
X130942400Y-63195200D01*
X136040474Y-64540625D02*
X136028525Y-64540625D01*
X136154750Y-64414400D02*
X138478051Y-64414400D01*
D80*
X134916400Y-65652749D02*
X136028525Y-64540625D01*
X138578951Y-64515300D02*
X139716400Y-65652749D01*
D76*
X138478051Y-64414400D02*
X138578951Y-64515300D01*
X130942400Y-63195200D02*
X134683100Y-63195200D01*
X136053849Y-64554000D02*
X136040474Y-64540625D01*
X136028525Y-64540625D02*
X136154750Y-64414400D01*
D79*
%TO.N,Net-(J1-CC1)*%
X138566400Y-66217800D02*
X138566400Y-66950104D01*
X140526358Y-67943158D02*
X141558200Y-68975000D01*
X138566400Y-66950104D02*
X139559454Y-67943158D01*
X139559454Y-67943158D02*
X140526358Y-67943158D01*
%TO.N,Net-(J1-CC2)*%
X134954200Y-68597100D02*
X134294700Y-68597100D01*
X134294700Y-68597100D02*
X133430200Y-69461600D01*
X135566400Y-67984900D02*
X134954200Y-68597100D01*
X135566400Y-66395600D02*
X135566400Y-67984900D01*
D76*
%TO.N,D+*%
X136109800Y-75653400D02*
X136101200Y-75662000D01*
X138176000Y-75247000D02*
X136516200Y-75247000D01*
X136516200Y-75247000D02*
X136101200Y-75662000D01*
%TO.N,D-*%
X137644000Y-76097000D02*
X136809000Y-76932000D01*
X136809000Y-76932000D02*
X136101200Y-76932000D01*
X139700000Y-75247000D02*
X138850000Y-76097000D01*
X138850000Y-76097000D02*
X137644000Y-76097000D01*
D79*
%TO.N,Net-(J1-DN1)*%
X137952900Y-67200000D02*
X138066400Y-67086500D01*
X137250600Y-67200000D02*
X137952900Y-67200000D01*
X137066400Y-66090800D02*
X137066400Y-67015800D01*
X137066400Y-67015800D02*
X137250600Y-67200000D01*
X138066400Y-66090800D02*
X138066400Y-67086500D01*
X138443150Y-67643150D02*
X138443150Y-68729600D01*
X138066400Y-67086500D02*
X138066400Y-67266400D01*
X138066400Y-67266400D02*
X138443150Y-67643150D01*
%TO.N,Net-(J1-DP1)*%
X137566400Y-66090800D02*
X137566400Y-65165800D01*
X136566400Y-68706350D02*
X136543150Y-68729600D01*
X137566400Y-65165800D02*
X137517900Y-65117300D01*
X136566400Y-65232300D02*
X136566400Y-68706350D01*
X137517900Y-65117300D02*
X136681400Y-65117300D01*
X136681400Y-65117300D02*
X136566400Y-65232300D01*
D82*
%TO.N,+12V*%
X164396000Y-77421000D02*
X163068000Y-76093000D01*
D76*
X162052000Y-91364800D02*
X162891200Y-91364800D01*
X179070000Y-92710000D02*
X177353500Y-90993500D01*
X179220500Y-66905500D02*
X179832000Y-66905500D01*
X179832000Y-65150000D02*
X179832000Y-65913000D01*
D82*
X170180000Y-77421000D02*
X167640000Y-77421000D01*
X173228000Y-77421000D02*
X170180000Y-77421000D01*
X167640000Y-77421000D02*
X164396000Y-77421000D01*
D76*
X162915600Y-91389200D02*
X162891200Y-91364800D01*
X178562000Y-67564000D02*
X179220500Y-66905500D01*
X180020000Y-95184000D02*
X179070000Y-94234000D01*
X180020000Y-96387500D02*
X180020000Y-95184000D01*
X179832000Y-65913000D02*
X179832000Y-66905500D01*
X177353500Y-90993500D02*
X177353500Y-90424000D01*
X179070000Y-94234000D02*
X179070000Y-92710000D01*
%TO.N,Net-(D2-A)*%
X174194000Y-71107000D02*
X174715000Y-71628000D01*
X176530000Y-70104000D02*
X177903500Y-68730500D01*
X177903500Y-68730500D02*
X179832000Y-68730500D01*
X176530000Y-71120000D02*
X176530000Y-70104000D01*
X176022000Y-71628000D02*
X176530000Y-71120000D01*
X172593000Y-71107000D02*
X174067000Y-71107000D01*
X174715000Y-71628000D02*
X176022000Y-71628000D01*
%TO.N,/ESP32-S3/ADC_VBat*%
X160464000Y-92964800D02*
X162002000Y-92964800D01*
X158899935Y-93819400D02*
X158899935Y-93037735D01*
X162002000Y-92964800D02*
X162052000Y-93014800D01*
X140223500Y-88785700D02*
X140220700Y-88785700D01*
X160414000Y-93014800D02*
X160464000Y-92964800D01*
X158877000Y-93014800D02*
X160414000Y-93014800D01*
X141122400Y-89458800D02*
X140449300Y-88785700D01*
X140220700Y-88785700D02*
X140208000Y-88798400D01*
X158899935Y-93037735D02*
X158877000Y-93014800D01*
X140449300Y-88785700D02*
X140223500Y-88785700D01*
D77*
%TO.N,EN_C1*%
X213170001Y-73641600D02*
X212706600Y-73641600D01*
X218170001Y-73641600D02*
X213170001Y-73641600D01*
D76*
X210820000Y-64262000D02*
X211328000Y-64770000D01*
X211328000Y-72263000D02*
X212706600Y-73641600D01*
X211328000Y-64770000D02*
X211328000Y-72263000D01*
%TO.N,Net-(CR1-IO_2)*%
X146275302Y-85938401D02*
X145833301Y-85496400D01*
X120891300Y-65189100D02*
X120891300Y-66382900D01*
X121557514Y-64522886D02*
X120891300Y-65189100D01*
X145567400Y-80746600D02*
X146443700Y-81622900D01*
X145833301Y-85496400D02*
X145833301Y-83249299D01*
X133350000Y-78613000D02*
X133604000Y-78359000D01*
X146919151Y-85938401D02*
X146275302Y-85938401D01*
X146900900Y-82181700D02*
X146900900Y-82054700D01*
X124764800Y-78613000D02*
X133350000Y-78613000D01*
X146900900Y-82054700D02*
X146850100Y-82054700D01*
X121557514Y-64509114D02*
X121557514Y-64522886D01*
X145833301Y-83249299D02*
X146900900Y-82181700D01*
X146443700Y-81622900D02*
X146443700Y-82638900D01*
X146704050Y-82378550D02*
X146900900Y-82181700D01*
%TO.N,EN_C2*%
X211582000Y-74168000D02*
X211582000Y-74803000D01*
D77*
X218170001Y-76141600D02*
X213170001Y-76141600D01*
D76*
X211582000Y-74803000D02*
X212920600Y-76141600D01*
X208483200Y-61518800D02*
X209550000Y-62585600D01*
X209550000Y-65278000D02*
X210566000Y-66294000D01*
X210566000Y-73152000D02*
X211582000Y-74168000D01*
D77*
X213170001Y-76141600D02*
X212920600Y-76141600D01*
D76*
X210566000Y-66294000D02*
X210566000Y-73152000D01*
X209550000Y-62585600D02*
X209550000Y-65278000D01*
%TO.N,Net-(U2-IS)*%
X196573057Y-94118000D02*
X198505500Y-94118000D01*
X194596285Y-97619085D02*
X193600371Y-98615000D01*
X193600371Y-98615000D02*
X156870400Y-98615000D01*
X156628600Y-98665800D02*
X155295600Y-98665800D01*
X196523057Y-94068000D02*
X196573057Y-94118000D01*
X156819600Y-98665800D02*
X155295600Y-98665800D01*
X156870400Y-98615000D02*
X156819600Y-98665800D01*
%TO.N,Net-(U3-IS)*%
X149987000Y-98627200D02*
X148463000Y-98627200D01*
X195950000Y-79640000D02*
X198505500Y-79640000D01*
X195072000Y-80518000D02*
X195961000Y-79629000D01*
X194005200Y-88392000D02*
X193954400Y-88392000D01*
X151256500Y-97055000D02*
X151256500Y-97357700D01*
X195072000Y-83159600D02*
X195072000Y-80518000D01*
X151256500Y-97357700D02*
X149987000Y-98627200D01*
X195072000Y-80518000D02*
X195950000Y-79640000D01*
%TO.N,Net-(CR1-IO_3)*%
X148851620Y-83014820D02*
X148851620Y-82054700D01*
X122843290Y-65523110D02*
X122843290Y-66382900D01*
X148893202Y-85938401D02*
X148672601Y-85717800D01*
X149624251Y-85938401D02*
X148893202Y-85938401D01*
X123850400Y-64516000D02*
X122843290Y-65523110D01*
X128066800Y-77317600D02*
X128074835Y-77325635D01*
X148672601Y-85717800D02*
X148672601Y-83193839D01*
X128074835Y-77325635D02*
X133604000Y-77325635D01*
X148672601Y-83193839D02*
X148851620Y-83014820D01*
%TO.N,Net-(CR1-IO_4)*%
X149974300Y-83070700D02*
X149974300Y-83688350D01*
X123952000Y-66370200D02*
X123964700Y-66382900D01*
X149974300Y-83070700D02*
X149974300Y-82054700D01*
X125120400Y-64516000D02*
X123952000Y-65684400D01*
X129082800Y-80113000D02*
X129182800Y-80013000D01*
X149974300Y-83688350D02*
X149624251Y-84038399D01*
X132972000Y-80013000D02*
X133604000Y-80645000D01*
X123952000Y-65684400D02*
X123952000Y-66370200D01*
X129182800Y-80013000D02*
X132972000Y-80013000D01*
D81*
%TO.N,+12V_HighSide*%
X200275900Y-83210400D02*
X198505500Y-81440000D01*
D76*
X180020000Y-90682500D02*
X180278500Y-90424000D01*
D81*
X201625200Y-83210400D02*
X200275900Y-83210400D01*
D80*
X202425000Y-84455000D02*
X202425000Y-84010200D01*
D76*
X180020000Y-94112500D02*
X180020000Y-90682500D01*
D81*
X202425000Y-84010200D02*
X201625200Y-83210400D01*
D76*
%TO.N,Net-(CR2-IO_3)*%
X160629600Y-87426800D02*
X161372550Y-86683850D01*
X160434020Y-82054700D02*
X160420900Y-82067820D01*
X141846300Y-81314290D02*
X142828900Y-81314290D01*
X160420900Y-82067820D02*
X160420900Y-85768600D01*
X148119625Y-90930025D02*
X154205283Y-90930025D01*
X160420900Y-85768600D02*
X160641501Y-85989201D01*
X161372550Y-86683850D02*
X161372550Y-85989201D01*
X143397200Y-81882590D02*
X143397200Y-86207600D01*
X142828900Y-81314290D02*
X143397200Y-81882590D01*
X154205283Y-90930025D02*
X157708508Y-87426800D01*
X157708508Y-87426800D02*
X160629600Y-87426800D01*
X160641501Y-85989201D02*
X161372550Y-85989201D01*
X143397200Y-86207600D02*
X148119625Y-90930025D01*
D82*
%TO.N,Net-(U6-+VIN)*%
X170078400Y-67411600D02*
X170078400Y-66827400D01*
X166820000Y-70670000D02*
X170078400Y-67411600D01*
X166820000Y-71608000D02*
X166820000Y-70670000D01*
X163068000Y-71608000D02*
X166820000Y-71608000D01*
D77*
%TO.N,Net-(C27-Pad1)*%
X216000000Y-96000000D02*
X212991000Y-96000000D01*
X212991000Y-96000000D02*
X212090000Y-96901000D01*
X210566000Y-96851000D02*
X212040000Y-96851000D01*
X212040000Y-96851000D02*
X212090000Y-96901000D01*
D76*
%TO.N,+3.3V*%
X116090700Y-72072500D02*
X116090700Y-73195180D01*
X120973314Y-62922686D02*
X119646200Y-64249800D01*
X132663600Y-68300000D02*
X131686600Y-67323000D01*
X150575901Y-87015699D02*
X150571200Y-87020400D01*
X119646200Y-64249800D02*
X119646200Y-64363600D01*
X131686600Y-67323000D02*
X131216400Y-67323000D01*
X115773200Y-69888600D02*
X115683800Y-69799200D01*
X115785900Y-71031100D02*
X115773200Y-71018400D01*
X116039400Y-77216000D02*
X116039400Y-75197200D01*
X130403600Y-67564000D02*
X130975400Y-67564000D01*
X137922000Y-72136000D02*
X137493150Y-71707150D01*
X149624251Y-84988400D02*
X150355300Y-84988400D01*
X177733500Y-93218000D02*
X176936400Y-93218000D01*
D77*
X134620003Y-90679000D02*
X134843003Y-90902000D01*
D76*
X116090700Y-72072500D02*
X116090700Y-71031100D01*
D77*
X136101200Y-90902000D02*
X137342400Y-90902000D01*
D76*
X130975400Y-67564000D02*
X131216400Y-67323000D01*
X177749200Y-61468000D02*
X179400000Y-61468000D01*
D77*
X137342400Y-90902000D02*
X137630200Y-90614200D01*
D76*
X120973314Y-62299314D02*
X120973314Y-62922686D01*
X155784550Y-84988400D02*
X156667200Y-84988400D01*
X150355300Y-84988400D02*
X150575901Y-85209001D01*
X161372550Y-85039200D02*
X162037682Y-85039200D01*
X138493800Y-90627200D02*
X138480800Y-90614200D01*
X116039400Y-75197200D02*
X116090700Y-75145900D01*
X179400000Y-61468000D02*
X179832000Y-61900000D01*
X129887899Y-67564000D02*
X130403600Y-67564000D01*
X112489400Y-84683600D02*
X112903000Y-84270000D01*
X140043400Y-90627200D02*
X138493800Y-90627200D01*
D77*
X133045200Y-90482000D02*
X133807200Y-90482000D01*
D76*
X116090700Y-73195180D02*
X116090700Y-74024490D01*
D77*
X133807200Y-90482000D02*
X134423003Y-90482000D01*
X134423003Y-90482000D02*
X134620003Y-90679000D01*
D76*
X133200000Y-68300000D02*
X132663600Y-68300000D01*
X162037682Y-85039200D02*
X162215600Y-85217118D01*
D77*
X134843003Y-90902000D02*
X136101200Y-90902000D01*
D76*
X116090700Y-74024490D02*
X116090700Y-75145900D01*
X150575901Y-85209001D02*
X150575901Y-87015699D01*
D77*
X137630200Y-90614200D02*
X138480800Y-90614200D01*
D76*
X178120000Y-93604500D02*
X177733500Y-93218000D01*
X137493150Y-71707150D02*
X137493150Y-71004600D01*
X111760000Y-84683600D02*
X112489400Y-84683600D01*
X129633899Y-67310000D02*
X129887899Y-67564000D01*
X116078000Y-71018400D02*
X116078000Y-69888600D01*
D81*
%TO.N,Net-(F1-Pad2)*%
X146812000Y-75819000D02*
X145923000Y-76708000D01*
X145923000Y-76708000D02*
X142559500Y-76708000D01*
X142559500Y-76708000D02*
X141732000Y-77535500D01*
D80*
%TO.N,SW2*%
X137287000Y-79502000D02*
X136131200Y-79502000D01*
X139286100Y-79883000D02*
X137668000Y-79883000D01*
X139806800Y-79362300D02*
X139286100Y-79883000D01*
D78*
X140093700Y-79362300D02*
X140093700Y-77850700D01*
D80*
X136131200Y-79502000D02*
X136101200Y-79472000D01*
D78*
X140093700Y-77850700D02*
X139713000Y-77470000D01*
D80*
X137668000Y-79883000D02*
X137287000Y-79502000D01*
X140093700Y-79362300D02*
X139806800Y-79362300D01*
D76*
%TO.N,Net-(CR2-IO_2)*%
X148712825Y-89480025D02*
X154736045Y-89480025D01*
X141846300Y-79362300D02*
X142856809Y-79362300D01*
X157715800Y-82822200D02*
X157715800Y-85768600D01*
X142856809Y-79362300D02*
X144932400Y-81437891D01*
X154736045Y-89480025D02*
X155498200Y-88717870D01*
X155498200Y-88697400D02*
X157715800Y-86479800D01*
X144932400Y-85699600D02*
X148712825Y-89480025D01*
X157715800Y-85768600D02*
X157936401Y-85989201D01*
X157936401Y-85989201D02*
X158667450Y-85989201D01*
X157715800Y-86479800D02*
X157715800Y-85768600D01*
X158483300Y-82054700D02*
X157715800Y-82822200D01*
X155498200Y-88717870D02*
X155498200Y-88697400D01*
X144932400Y-81437891D02*
X144932400Y-85699600D01*
%TO.N,Enc1*%
X136101200Y-83282000D02*
X134844000Y-83282000D01*
X140093700Y-83972700D02*
X140195000Y-84074000D01*
X134844000Y-83282000D02*
X134823200Y-83261200D01*
X140093700Y-82435700D02*
X139573000Y-82956400D01*
X140093700Y-82435700D02*
X140093700Y-83972700D01*
X139573000Y-82956400D02*
X139446000Y-82956400D01*
%TO.N,Enc2*%
X138430000Y-82537000D02*
X137905000Y-82012000D01*
X138430000Y-82296000D02*
X138430000Y-82537000D01*
X140093700Y-81313020D02*
X139412980Y-81313020D01*
X137905000Y-82012000D02*
X136101200Y-82012000D01*
X139412980Y-81313020D02*
X138430000Y-82296000D01*
%TO.N,Net-(CR1-IO_1)*%
X127252400Y-79313000D02*
X133519326Y-79313000D01*
X122682000Y-64516000D02*
X122013980Y-65184020D01*
X122013980Y-65184020D02*
X122013980Y-66382900D01*
X148022310Y-82054700D02*
X148022310Y-82935240D01*
X147144790Y-83812760D02*
X146919151Y-84038399D01*
X133519326Y-79313000D02*
X133623965Y-79417639D01*
X148022310Y-82935240D02*
X146919151Y-84038399D01*
X127152400Y-79413000D02*
X127252400Y-79313000D01*
X147144790Y-83139892D02*
X147144790Y-83812760D01*
%TO.N,IN_1*%
X124421900Y-68135500D02*
X123964700Y-68135500D01*
X125446200Y-72745600D02*
X125446200Y-74412000D01*
X125425200Y-69138800D02*
X124421900Y-68135500D01*
X124955000Y-69609000D02*
X124955000Y-69951600D01*
X125425200Y-69138800D02*
X124955000Y-69609000D01*
X125425200Y-72724600D02*
X125446200Y-72745600D01*
%TO.N,IN_2*%
X124176200Y-74412000D02*
X124105000Y-74340800D01*
X124277800Y-71475600D02*
X124176200Y-71374000D01*
X122842020Y-69248020D02*
X122842020Y-68135500D01*
X124105000Y-70511000D02*
X122842020Y-69248020D01*
X124955000Y-71475600D02*
X124277800Y-71475600D01*
X124105000Y-74340800D02*
X124105000Y-70511000D01*
%TO.N,IN_3*%
X122906200Y-71475600D02*
X121171000Y-71475600D01*
X122906200Y-70328200D02*
X122906200Y-74412000D01*
X122012710Y-68135500D02*
X122012710Y-69434710D01*
X122012710Y-69434710D02*
X122906200Y-70328200D01*
%TO.N,IN_4*%
X120891300Y-69671900D02*
X121171000Y-69951600D01*
X119700771Y-72849400D02*
X121058600Y-72849400D01*
X121636200Y-73427000D02*
X121636200Y-74412000D01*
X120383100Y-68135500D02*
X120891300Y-68135500D01*
X120891300Y-68135500D02*
X120891300Y-69671900D01*
X121058600Y-72849400D02*
X121636200Y-73427000D01*
X119837000Y-68681600D02*
X120383100Y-68135500D01*
%TO.N,OUT1*%
X131796200Y-75306600D02*
X131796200Y-74412000D01*
X153048200Y-87414600D02*
X152704800Y-87071200D01*
X153048200Y-88188800D02*
X153048200Y-87414600D01*
X132791200Y-76301600D02*
X131796200Y-75306600D01*
%TO.N,OUT2*%
X134366000Y-85902800D02*
X133908800Y-85445600D01*
X135056400Y-78202000D02*
X136101200Y-78202000D01*
X148640800Y-88239600D02*
X148183600Y-87782400D01*
X134423965Y-80956406D02*
X134423965Y-78834435D01*
X134423965Y-78834435D02*
X135056400Y-78202000D01*
X133908800Y-85445600D02*
X133908800Y-81471571D01*
X133908800Y-81471571D02*
X134423965Y-80956406D01*
X149593800Y-88239600D02*
X148640800Y-88239600D01*
%TO.N,/ESP32-S3/M_IS1*%
X152056500Y-96723629D02*
X152056500Y-97903700D01*
X142047200Y-86807688D02*
X146969000Y-91729488D01*
X142047200Y-86776800D02*
X142047200Y-86807688D01*
X156667200Y-83413600D02*
X156409349Y-83413600D01*
X153771600Y-98615800D02*
X153945820Y-98615800D01*
X147218400Y-91978888D02*
X147593912Y-92354400D01*
X150920661Y-92354400D02*
X150946286Y-92380025D01*
X152768600Y-98615800D02*
X153771600Y-98615800D01*
X147593912Y-92354400D02*
X150920661Y-92354400D01*
X153771600Y-98602800D02*
X153771600Y-98615800D01*
X156409349Y-83413600D02*
X155784550Y-84038399D01*
X150887671Y-95554800D02*
X152056500Y-96723629D01*
X147320000Y-92080488D02*
X147320000Y-94410880D01*
X140982700Y-85712300D02*
X142047200Y-86776800D01*
X146969000Y-91729488D02*
X147218400Y-91978888D01*
X155295600Y-97266020D02*
X155295600Y-97015800D01*
X147218400Y-91978888D02*
X147320000Y-92080488D01*
X148463920Y-95554800D02*
X150887671Y-95554800D01*
X152056500Y-97903700D02*
X152768600Y-98615800D01*
X147320000Y-94410880D02*
X148463920Y-95554800D01*
X140223500Y-85712300D02*
X140982700Y-85712300D01*
X153945820Y-98615800D02*
X155295600Y-97266020D01*
%TO.N,/ESP32-S3/M_IS2*%
X145895532Y-91793532D02*
X146507200Y-92405200D01*
X155397200Y-86325751D02*
X155784550Y-85938401D01*
X146989000Y-98627200D02*
X146939000Y-98577200D01*
X146507200Y-94517318D02*
X148463000Y-96473118D01*
X145894829Y-91787990D02*
X140941819Y-86834980D01*
X148463000Y-96473118D02*
X148463000Y-96977200D01*
X145894829Y-91793532D02*
X145895532Y-91793532D01*
X148463000Y-97227420D02*
X147113220Y-98577200D01*
X149817434Y-93314063D02*
X149176697Y-93954800D01*
X148463000Y-96977200D02*
X148463000Y-97227420D01*
X155397200Y-86563200D02*
X155397200Y-86325751D01*
X147113220Y-98577200D02*
X146939000Y-98577200D01*
X145894829Y-91793532D02*
X145894829Y-91787990D01*
X140941819Y-86834980D02*
X140223500Y-86834980D01*
X146507200Y-92405200D02*
X146507200Y-94517318D01*
X149176697Y-93954800D02*
X148132800Y-93954800D01*
%TO.N,/ESP32-S3/ADC_INA*%
X178120000Y-96387500D02*
X177352500Y-97155000D01*
X177352500Y-97155000D02*
X161517800Y-97155000D01*
X161517800Y-97155000D02*
X161289200Y-96926400D01*
%TO.N,/ESP32-S3/M_INH1*%
X193167000Y-97917000D02*
X193590566Y-97493434D01*
X195862722Y-93246722D02*
X195891444Y-93218000D01*
X156938730Y-95555000D02*
X159300730Y-97917000D01*
X129370783Y-69107100D02*
X129370783Y-68985830D01*
X130200400Y-81026000D02*
X131470400Y-81026000D01*
X151841400Y-95555000D02*
X156938730Y-95555000D01*
X151191200Y-94904800D02*
X151841400Y-95555000D01*
X149106000Y-94904800D02*
X151191200Y-94904800D01*
X131470400Y-81026000D02*
X132892800Y-82448400D01*
X129583180Y-69319497D02*
X129370783Y-69107100D01*
X159300730Y-97917000D02*
X193167000Y-97917000D01*
X132892800Y-82448400D02*
X132892800Y-87435800D01*
X129583180Y-69989700D02*
X129583180Y-69319497D01*
X132892800Y-87435800D02*
X134239000Y-88782000D01*
X195891444Y-93218000D02*
X198505500Y-93218000D01*
X148956000Y-94754800D02*
X149106000Y-94904800D01*
%TO.N,/ESP32-S3/M_IN2*%
X130320775Y-68990404D02*
X130412490Y-69082119D01*
X195580000Y-77520800D02*
X195899200Y-77840000D01*
X195899200Y-77840000D02*
X198505500Y-77840000D01*
X130412490Y-69082119D02*
X130412490Y-69989700D01*
%TO.N,/ESP32-S3/M_IN1*%
X145745200Y-97510600D02*
X145859500Y-97624900D01*
X195896681Y-92010681D02*
X196175095Y-92010681D01*
X142900400Y-91351000D02*
X142989400Y-91440000D01*
X196482414Y-92318000D02*
X198505500Y-92318000D01*
X196175095Y-92010681D02*
X196482414Y-92318000D01*
X131533900Y-69050942D02*
X131533900Y-69989700D01*
X142989400Y-91440000D02*
X144272000Y-91440000D01*
X145745200Y-92913200D02*
X145745200Y-97510600D01*
X144272000Y-91440000D02*
X145745200Y-92913200D01*
%TO.N,M__IN1*%
X131533900Y-72724900D02*
X130526200Y-73732600D01*
X131533900Y-71742300D02*
X131533900Y-72724900D01*
X130526200Y-73732600D02*
X130526200Y-74412000D01*
%TO.N,M__IN2*%
X130411220Y-71742300D02*
X130411220Y-72724900D01*
X129256200Y-73879920D02*
X129256200Y-74412000D01*
X129256200Y-74412000D02*
X129093220Y-74249020D01*
X129256200Y-74412000D02*
X129192020Y-74347820D01*
X130411220Y-72724900D02*
X129256200Y-73879920D01*
%TO.N,M__INH1*%
X129581910Y-71742300D02*
X129581910Y-72370990D01*
X129581910Y-72370990D02*
X129054900Y-72898000D01*
X127986200Y-73537400D02*
X127986200Y-74412000D01*
X128625600Y-72898000D02*
X127986200Y-73537400D01*
X129054900Y-72898000D02*
X128625600Y-72898000D01*
%TO.N,M__INH2*%
X126716200Y-73652771D02*
X126716200Y-74412000D01*
X128460500Y-71908471D02*
X126716200Y-73652771D01*
X128460500Y-71742300D02*
X128460500Y-71908471D01*
%TO.N,A_IS1*%
X136749000Y-84552000D02*
X136101200Y-84552000D01*
X138470900Y-85712300D02*
X137909300Y-85712300D01*
X137909300Y-85712300D02*
X136749000Y-84552000D01*
%TO.N,A_IS2*%
X136748850Y-85822000D02*
X136101200Y-85822000D01*
X137760560Y-86833710D02*
X136748850Y-85822000D01*
X138470900Y-86833710D02*
X137760560Y-86833710D01*
%TO.N,A_NTC*%
X137583090Y-87658700D02*
X137016390Y-87092000D01*
X137016390Y-87092000D02*
X136101200Y-87092000D01*
X138470900Y-87658700D02*
X137583090Y-87658700D01*
%TO.N,A_VBAT*%
X136101200Y-88362000D02*
X137351200Y-88362000D01*
X137774900Y-88785700D02*
X138470900Y-88785700D01*
X137351200Y-88362000D02*
X137774900Y-88785700D01*
D77*
%TO.N,A_INA*%
X159639200Y-95452400D02*
X159689200Y-95402400D01*
D76*
X158600339Y-95554800D02*
X158752739Y-95402400D01*
X158752739Y-95402400D02*
X159689200Y-95402400D01*
X124968000Y-91694000D02*
X124176000Y-90902000D01*
X124176000Y-90902000D02*
X118601200Y-90902000D01*
X129540000Y-91694000D02*
X124968000Y-91694000D01*
D77*
X159639200Y-96926400D02*
X159639200Y-95452400D01*
D76*
%TO.N,/ESP32-S3/ADC_NTC*%
X145019000Y-93154619D02*
X144015381Y-92151000D01*
X208724000Y-96838000D02*
X209042000Y-96838000D01*
X144015381Y-92151000D02*
X141656200Y-92151000D01*
X141656200Y-92151000D02*
X141643400Y-92138200D01*
X207289400Y-98272600D02*
X208724000Y-96838000D01*
X142088400Y-88900800D02*
X142088400Y-90232200D01*
X145186400Y-98450400D02*
X145019000Y-98283000D01*
X140223500Y-87664290D02*
X140851890Y-87664290D01*
X140851890Y-87664290D02*
X142088400Y-88900800D01*
X142088400Y-90232200D02*
X141693400Y-90627200D01*
X145019000Y-98283000D02*
X145019000Y-93154619D01*
X141643400Y-92138200D02*
X141643400Y-90677200D01*
X141911224Y-92202824D02*
X141846600Y-92138200D01*
%TO.N,Net-(CR2-IO_4)*%
X142697200Y-83286600D02*
X142697200Y-86538450D01*
X161556700Y-82054700D02*
X161556700Y-83905049D01*
X157998400Y-88076800D02*
X160898838Y-88076800D01*
X142697200Y-86538450D02*
X147738775Y-91580025D01*
X161556700Y-83905049D02*
X161372550Y-84089199D01*
X163015600Y-84637118D02*
X162467681Y-84089199D01*
X162467681Y-84089199D02*
X161372550Y-84089199D01*
X163015600Y-85960038D02*
X163015600Y-84637118D01*
X147738775Y-91580025D02*
X154495175Y-91580025D01*
X154495175Y-91580025D02*
X157998400Y-88076800D01*
X160898838Y-88076800D02*
X163015600Y-85960038D01*
X141846300Y-82435700D02*
X142697200Y-83286600D01*
%TO.N,Net-(CR2-IO_1)*%
X153779712Y-90230025D02*
X153729712Y-90180025D01*
X144119600Y-85940050D02*
X144119600Y-81615040D01*
X144119600Y-81615040D02*
X142989540Y-80484980D01*
X142989540Y-80484980D02*
X141846300Y-80484980D01*
X159604710Y-82054700D02*
X159604710Y-83151939D01*
X159604710Y-83151939D02*
X158667450Y-84089199D01*
X153729712Y-90180025D02*
X148359575Y-90180025D01*
X148359575Y-90180025D02*
X144119600Y-85940050D01*
%TO.N,Net-(RN6-R1.1)*%
X151892000Y-76352400D02*
X149961600Y-78282800D01*
X151892000Y-75920700D02*
X151892000Y-76352400D01*
X149974300Y-78295500D02*
X149974300Y-80302100D01*
X149961600Y-78282800D02*
X149974300Y-78295500D01*
%TO.N,Net-(RN6-R2.1)*%
X150622000Y-76631150D02*
X150622000Y-73380700D01*
X148852890Y-78400260D02*
X150622000Y-76631150D01*
X148852890Y-80302100D02*
X148852890Y-78400260D01*
%TO.N,Net-(RN6-R3.1)*%
X149352000Y-76911200D02*
X148023580Y-78239620D01*
X148023580Y-78239620D02*
X148023580Y-80302100D01*
X149352000Y-75920700D02*
X149352000Y-76911200D01*
%TO.N,Net-(RN6-R4.1)*%
X148082000Y-77012800D02*
X148082000Y-73380700D01*
X146900900Y-80302100D02*
X146900900Y-78193900D01*
X146900900Y-78193900D02*
X148082000Y-77012800D01*
%TO.N,sw_2*%
X163017200Y-80975200D02*
X162344100Y-80302100D01*
X162344100Y-80302100D02*
X161556700Y-80302100D01*
D82*
%TO.N,Net-(F2-Pad1)*%
X213170001Y-81141601D02*
X209822701Y-81141601D01*
X209822701Y-81141601D02*
X209143600Y-80462500D01*
D83*
X218170001Y-81141601D02*
X213170001Y-81141601D01*
D76*
%TO.N,SW1*%
X137083390Y-80742000D02*
X136101200Y-80742000D01*
X140093700Y-80483710D02*
X137956290Y-80483710D01*
X137956290Y-80483710D02*
X137668000Y-80772000D01*
X137668000Y-80772000D02*
X137113390Y-80772000D01*
X137113390Y-80772000D02*
X137083390Y-80742000D01*
%TO.N,OUT_1*%
X153079450Y-84038399D02*
X153762710Y-83355139D01*
X154330400Y-87821000D02*
X154698200Y-88188800D01*
X153888399Y-84038399D02*
X154330400Y-84480400D01*
X153762710Y-83355139D02*
X153762710Y-82054700D01*
X153079450Y-84038399D02*
X153888399Y-84038399D01*
X154330400Y-84480400D02*
X154330400Y-87821000D01*
%TO.N,OUT_2*%
X151841200Y-85883492D02*
X151841200Y-87642200D01*
X151744899Y-82937790D02*
X151282400Y-83400289D01*
X151282400Y-83400289D02*
X151282400Y-85324692D01*
X151282400Y-85324692D02*
X151841200Y-85883492D01*
X151841200Y-87642200D02*
X151243800Y-88239600D01*
X151896109Y-85938401D02*
X153079450Y-85938401D01*
X151841200Y-85883492D02*
X151896109Y-85938401D01*
X152641300Y-82054700D02*
X151765000Y-82931000D01*
%TO.N,Net-(RN3D-R4.1)*%
X153162000Y-73380700D02*
X153162000Y-78798800D01*
X153162000Y-78798800D02*
X152641300Y-79319500D01*
X152641300Y-79319500D02*
X152641300Y-80302100D01*
%TO.N,Net-(RN3C-R3.1)*%
X153763980Y-79418610D02*
X153763980Y-80302100D01*
X154432000Y-78750590D02*
X153763980Y-79418610D01*
X154432000Y-75920700D02*
X154432000Y-78750590D01*
D77*
%TO.N,Net-(JP4-C)*%
X143016700Y-74610500D02*
X141732000Y-74610500D01*
X146024600Y-71602600D02*
X143016700Y-74610500D01*
%TO.N,Net-(JP1-C)*%
X209042000Y-76454000D02*
X208534000Y-75946000D01*
X206000000Y-66604800D02*
X201625200Y-62230000D01*
X183794400Y-63500000D02*
X179832000Y-63500000D01*
X201625200Y-62230000D02*
X185064400Y-62230000D01*
D76*
X209143600Y-76454000D02*
X209042000Y-76454000D01*
D77*
X185064400Y-62230000D02*
X183794400Y-63500000D01*
X209143600Y-77277500D02*
X209143600Y-76454000D01*
X206000000Y-71800000D02*
X206000000Y-66604800D01*
D76*
%TO.N,Enc_1*%
X159639000Y-77851000D02*
X159766000Y-77978000D01*
X159698898Y-70818771D02*
X159639000Y-70878669D01*
X160435290Y-78647290D02*
X160435290Y-80302100D01*
X159766000Y-77978000D02*
X160465000Y-77978000D01*
X159639000Y-77851000D02*
X160435290Y-78647290D01*
X159639000Y-70878669D02*
X159639000Y-77851000D01*
%TO.N,Enc_2*%
X158496000Y-70864564D02*
X158496000Y-70981371D01*
X158877000Y-71362371D02*
X158877000Y-78765400D01*
X158877000Y-78765400D02*
X159605980Y-79494380D01*
X180882002Y-62293600D02*
X181250402Y-61925200D01*
X159605980Y-79494380D02*
X159605980Y-80302100D01*
X158496000Y-70981371D02*
X158877000Y-71362371D01*
X181250402Y-61925200D02*
X181648600Y-61925200D01*
%TO.N,SD_CS*%
X120112000Y-82012000D02*
X118601200Y-82012000D01*
X113241660Y-70848953D02*
X113241660Y-71280860D01*
X120142000Y-82042000D02*
X120112000Y-82012000D01*
X113241660Y-71280860D02*
X114033300Y-72072500D01*
X120650000Y-82042000D02*
X120142000Y-82042000D01*
%TO.N,MOSI*%
X120680000Y-83282000D02*
X118601200Y-83282000D01*
X120700800Y-83261200D02*
X120680000Y-83282000D01*
X113454622Y-73095278D02*
X113553254Y-73193910D01*
X113553254Y-73193910D02*
X114033300Y-73193910D01*
%TO.N,CLK*%
X113388297Y-74042963D02*
X113408040Y-74023220D01*
X116789200Y-80264000D02*
X117154000Y-80628800D01*
X117871200Y-84552000D02*
X118601200Y-84552000D01*
X113408040Y-74023220D02*
X114033300Y-74023220D01*
X117154000Y-80628800D02*
X117154000Y-83834800D01*
X117154000Y-83834800D02*
X117871200Y-84552000D01*
%TO.N,MISO*%
X116504000Y-81655200D02*
X116504000Y-84454800D01*
X116504000Y-84454800D02*
X117871200Y-85822000D01*
X116230400Y-81381600D02*
X116504000Y-81655200D01*
X113439400Y-77243987D02*
X113439400Y-76247800D01*
X113439400Y-76247800D02*
X114033300Y-75653900D01*
X117871200Y-85822000D02*
X118601200Y-85822000D01*
X116281200Y-81432400D02*
X116281200Y-81432400D01*
X116281200Y-81432400D02*
X116230400Y-81381600D01*
X114033300Y-75653900D02*
X114033300Y-75145900D01*
%TO.N,DAT2*%
X117195600Y-76623000D02*
X117504600Y-76932000D01*
X114033800Y-69900800D02*
X113182400Y-69900800D01*
X117195600Y-69900800D02*
X117195600Y-76623000D01*
X117504600Y-76932000D02*
X118601200Y-76932000D01*
%TO.N,DAT1*%
X114389400Y-78088200D02*
X114503200Y-78202000D01*
X114503200Y-78202000D02*
X118601200Y-78202000D01*
X114389400Y-77216000D02*
X114389400Y-78088200D01*
%TO.N,/ESP32-S3/M_INH2*%
X195444441Y-78858441D02*
X195562882Y-78740000D01*
X143256000Y-70320000D02*
X143256000Y-72136000D01*
X195562882Y-78740000D02*
X198505500Y-78740000D01*
X128460500Y-68598243D02*
X128460500Y-69989700D01*
X128548250Y-68510493D02*
X128460500Y-68598243D01*
%TO.N,SD_DET*%
X120650000Y-89611200D02*
X118622000Y-89611200D01*
X118622000Y-89611200D02*
X118601200Y-89632000D01*
%TO.N,/ESP32-S3/GND3*%
X155702000Y-73380700D02*
X155702000Y-72898000D01*
X161023800Y-68681600D02*
X161023800Y-68161400D01*
%TD*%
%TA.AperFunction,Conductor*%
%TO.N,GND*%
G36*
X171266039Y-69869685D02*
G01*
X171311794Y-69922489D01*
X171323000Y-69974000D01*
X171323000Y-72161400D01*
X174091038Y-72161400D01*
X174158077Y-72181085D01*
X174178719Y-72197719D01*
X174563281Y-72582281D01*
X174596766Y-72643604D01*
X174599600Y-72669962D01*
X174599600Y-75285038D01*
X174579915Y-75352077D01*
X174563281Y-75372719D01*
X174407319Y-75528681D01*
X174345996Y-75562166D01*
X174319638Y-75565000D01*
X167183362Y-75565000D01*
X167116323Y-75545315D01*
X167095681Y-75528681D01*
X166533319Y-74966319D01*
X166499834Y-74904996D01*
X166497000Y-74878638D01*
X166497000Y-74092362D01*
X166516685Y-74025323D01*
X166533319Y-74004681D01*
X167095681Y-73442319D01*
X167157004Y-73408834D01*
X167183362Y-73406000D01*
X168021000Y-73406000D01*
X169418000Y-72009000D01*
X169418000Y-70282362D01*
X169437685Y-70215323D01*
X169454319Y-70194681D01*
X169762681Y-69886319D01*
X169824004Y-69852834D01*
X169850362Y-69850000D01*
X171199000Y-69850000D01*
X171266039Y-69869685D01*
G37*
%TD.AperFunction*%
%TD*%
%TA.AperFunction,Conductor*%
%TO.N,GND*%
G36*
X166059039Y-67075685D02*
G01*
X166104794Y-67128489D01*
X166116000Y-67180000D01*
X166116000Y-69036638D01*
X166096315Y-69103677D01*
X166079681Y-69124319D01*
X165390319Y-69813681D01*
X165328996Y-69847166D01*
X165302638Y-69850000D01*
X163192000Y-69850000D01*
X163124961Y-69830315D01*
X163079206Y-69777511D01*
X163068000Y-69726000D01*
X163068000Y-67318955D01*
X163087685Y-67251916D01*
X163140489Y-67206161D01*
X163185043Y-67195151D01*
X163358907Y-67185387D01*
X163713300Y-67125173D01*
X163936586Y-67060845D01*
X163970913Y-67056000D01*
X165992000Y-67056000D01*
X166059039Y-67075685D01*
G37*
%TD.AperFunction*%
%TD*%
%TA.AperFunction,Conductor*%
%TO.N,GND*%
G36*
X199674349Y-83892162D02*
G01*
X199713988Y-83916194D01*
X199743684Y-83942933D01*
X199747209Y-83944968D01*
X199755820Y-83949940D01*
X199771852Y-83960957D01*
X199782751Y-83969783D01*
X199843192Y-84000578D01*
X199848875Y-84003665D01*
X199907607Y-84037574D01*
X199907612Y-84037577D01*
X199907613Y-84037577D01*
X199907616Y-84037579D01*
X199920950Y-84041911D01*
X199938922Y-84049356D01*
X199951412Y-84055720D01*
X199951414Y-84055720D01*
X199951415Y-84055721D01*
X199973856Y-84061733D01*
X200016928Y-84073274D01*
X200023127Y-84075110D01*
X200087644Y-84096074D01*
X200101588Y-84097539D01*
X200120714Y-84101085D01*
X200130341Y-84103664D01*
X200134255Y-84104713D01*
X200201998Y-84108262D01*
X200208452Y-84108771D01*
X200217279Y-84109698D01*
X200228708Y-84110900D01*
X200249075Y-84110900D01*
X200255564Y-84111070D01*
X200323288Y-84114619D01*
X200337128Y-84112427D01*
X200356527Y-84110900D01*
X201171000Y-84110900D01*
X201238039Y-84130585D01*
X201283794Y-84183389D01*
X201295000Y-84234900D01*
X201295000Y-84836000D01*
X201676000Y-85217000D01*
X201803043Y-85217000D01*
X201866163Y-85234267D01*
X201949610Y-85283618D01*
X202101373Y-85327709D01*
X202136837Y-85330500D01*
X202627137Y-85330499D01*
X202694176Y-85350183D01*
X202714818Y-85366818D01*
X202909681Y-85561681D01*
X202943166Y-85623004D01*
X202946000Y-85649362D01*
X202946000Y-88594638D01*
X202926315Y-88661677D01*
X202909681Y-88682319D01*
X202474319Y-89117681D01*
X202412996Y-89151166D01*
X202386638Y-89154000D01*
X200913999Y-89154000D01*
X200779220Y-89288777D01*
X200747837Y-89311579D01*
X200692155Y-89339951D01*
X200602451Y-89429655D01*
X200574079Y-89485337D01*
X200551277Y-89516720D01*
X200406000Y-89661999D01*
X200406000Y-90874967D01*
X200386315Y-90942006D01*
X200362698Y-90969115D01*
X199570224Y-91648377D01*
X199506513Y-91677060D01*
X199470129Y-91676703D01*
X199412019Y-91667500D01*
X198587678Y-91667500D01*
X198587677Y-91667500D01*
X196803222Y-91667500D01*
X196736183Y-91647815D01*
X196715541Y-91631181D01*
X196695529Y-91611169D01*
X196685456Y-91598595D01*
X196685269Y-91598751D01*
X196680293Y-91592735D01*
X196629262Y-91544815D01*
X196626464Y-91542104D01*
X196606130Y-91521770D01*
X196602643Y-91519065D01*
X196593764Y-91511481D01*
X196560491Y-91480235D01*
X196560483Y-91480229D01*
X196541887Y-91470006D01*
X196525626Y-91459325D01*
X196508856Y-91446317D01*
X196466969Y-91428191D01*
X196456477Y-91423051D01*
X196437851Y-91412811D01*
X196409909Y-91391831D01*
X196398943Y-91380865D01*
X196246204Y-91284892D01*
X196075935Y-91225312D01*
X196075930Y-91225311D01*
X195896685Y-91205116D01*
X195896684Y-91205116D01*
X195896682Y-91205116D01*
X195896681Y-91205116D01*
X195868861Y-91208250D01*
X195844882Y-91210952D01*
X195776060Y-91198896D01*
X195724681Y-91151546D01*
X195707000Y-91087731D01*
X195707000Y-89078362D01*
X195726685Y-89011323D01*
X195743319Y-88990681D01*
X195924681Y-88809319D01*
X195986004Y-88775834D01*
X196012362Y-88773000D01*
X198120000Y-88773000D01*
X198755000Y-88138000D01*
X198755000Y-84760361D01*
X198774685Y-84693322D01*
X198791314Y-84672685D01*
X199543339Y-83920660D01*
X199604658Y-83887178D01*
X199674349Y-83892162D01*
G37*
%TD.AperFunction*%
%TD*%
%TA.AperFunction,Conductor*%
%TO.N,GND*%
G36*
X168316077Y-83941285D02*
G01*
X168336719Y-83957919D01*
X168365681Y-83986881D01*
X168399166Y-84048204D01*
X168402000Y-84074562D01*
X168402000Y-96062238D01*
X168382315Y-96129277D01*
X168365681Y-96149919D01*
X168133519Y-96382081D01*
X168072196Y-96415566D01*
X168045838Y-96418400D01*
X163852400Y-96418400D01*
X163785361Y-96398715D01*
X163739606Y-96345911D01*
X163728400Y-96294400D01*
X163728400Y-84045600D01*
X163748085Y-83978561D01*
X163800889Y-83932806D01*
X163852400Y-83921600D01*
X168249038Y-83921600D01*
X168316077Y-83941285D01*
G37*
%TD.AperFunction*%
%TD*%
%TA.AperFunction,Conductor*%
%TO.N,GND*%
G36*
X188483677Y-92831285D02*
G01*
X188504319Y-92847919D01*
X189092081Y-93435681D01*
X189125566Y-93497004D01*
X189128400Y-93523362D01*
X189128400Y-96668908D01*
X189108715Y-96735947D01*
X189088507Y-96760024D01*
X188575449Y-97233616D01*
X188512836Y-97264623D01*
X188491342Y-97266500D01*
X181595062Y-97266500D01*
X181528023Y-97246815D01*
X181507381Y-97230181D01*
X181036719Y-96759519D01*
X181003234Y-96698196D01*
X181000400Y-96671838D01*
X181000400Y-93520482D01*
X181020085Y-93453443D01*
X181033280Y-93436379D01*
X181573176Y-92851493D01*
X181633112Y-92815584D01*
X181664292Y-92811600D01*
X188416638Y-92811600D01*
X188483677Y-92831285D01*
G37*
%TD.AperFunction*%
%TD*%
%TA.AperFunction,Conductor*%
%TO.N,GND*%
G36*
X184785000Y-63881000D02*
G01*
X184785000Y-66675000D01*
X181353000Y-66675000D01*
X181285961Y-66655315D01*
X181240206Y-66602511D01*
X181229000Y-66551000D01*
X181229000Y-65656000D01*
X181248685Y-65588961D01*
X181301489Y-65543206D01*
X181353000Y-65532000D01*
X182118000Y-65532000D01*
X183338181Y-64311819D01*
X183399504Y-64278334D01*
X183425862Y-64275500D01*
X183881773Y-64275500D01*
X183881778Y-64275500D01*
X183917735Y-64267292D01*
X183931410Y-64264969D01*
X183968057Y-64260841D01*
X184002863Y-64248660D01*
X184016216Y-64244814D01*
X184052152Y-64236613D01*
X184085371Y-64220614D01*
X184098202Y-64215299D01*
X184133006Y-64203122D01*
X184164220Y-64183507D01*
X184176376Y-64176789D01*
X184209602Y-64160790D01*
X184238423Y-64137804D01*
X184249769Y-64129755D01*
X184280974Y-64110148D01*
X184280973Y-64110148D01*
X184280976Y-64110147D01*
X184404547Y-63986576D01*
X184404547Y-63986574D01*
X184414755Y-63976367D01*
X184414756Y-63976364D01*
X185349304Y-63041819D01*
X185410627Y-63008334D01*
X185436985Y-63005500D01*
X185660500Y-63005500D01*
X184785000Y-63881000D01*
G37*
%TD.AperFunction*%
%TA.AperFunction,Conductor*%
G36*
X187706000Y-66675000D02*
G01*
X184785000Y-66675000D01*
X184912000Y-66548000D01*
X187579000Y-66548000D01*
X187706000Y-66675000D01*
G37*
%TD.AperFunction*%
%TD*%
%TA.AperFunction,Conductor*%
%TO.N,/Power/+VBat\u002A*%
G36*
X187594677Y-67202685D02*
G01*
X187615319Y-67219319D01*
X187796681Y-67400681D01*
X187830166Y-67462004D01*
X187833000Y-67488362D01*
X187833000Y-75081838D01*
X187813315Y-75148877D01*
X187796681Y-75169519D01*
X185659519Y-77306681D01*
X185598196Y-77340166D01*
X185571838Y-77343000D01*
X182677362Y-77343000D01*
X182610323Y-77323315D01*
X182589681Y-77306681D01*
X181443119Y-76160119D01*
X181409634Y-76098796D01*
X181406800Y-76072438D01*
X181406800Y-73329800D01*
X180594000Y-72517000D01*
X177724362Y-72517000D01*
X177657323Y-72497315D01*
X177636681Y-72480681D01*
X177328319Y-72172319D01*
X177294834Y-72110996D01*
X177292000Y-72084638D01*
X177292000Y-70313306D01*
X177311685Y-70246267D01*
X177328314Y-70225630D01*
X177971542Y-69582403D01*
X178032859Y-69548922D01*
X178059041Y-69546089D01*
X179003103Y-69544822D01*
X179066384Y-69562088D01*
X179121602Y-69594744D01*
X179163224Y-69606836D01*
X179279426Y-69640597D01*
X179279429Y-69640597D01*
X179279431Y-69640598D01*
X179316306Y-69643500D01*
X179316314Y-69643500D01*
X180347686Y-69643500D01*
X180347694Y-69643500D01*
X180384569Y-69640598D01*
X180384571Y-69640597D01*
X180384573Y-69640597D01*
X180426191Y-69628505D01*
X180542398Y-69594744D01*
X180683865Y-69511081D01*
X180800081Y-69394865D01*
X180872346Y-69272670D01*
X180899521Y-69240681D01*
X181776547Y-68507276D01*
X181840602Y-68479371D01*
X181856093Y-68478400D01*
X184124600Y-68478400D01*
X185383681Y-67219319D01*
X185445004Y-67185834D01*
X185471362Y-67183000D01*
X187527638Y-67183000D01*
X187594677Y-67202685D01*
G37*
%TD.AperFunction*%
%TD*%
%TA.AperFunction,Conductor*%
%TO.N,+12V*%
G36*
X180355677Y-73171685D02*
G01*
X180376319Y-73188319D01*
X180811681Y-73623681D01*
X180845166Y-73685004D01*
X180848000Y-73711362D01*
X180848000Y-77926638D01*
X180828315Y-77993677D01*
X180811681Y-78014319D01*
X180122319Y-78703681D01*
X180060996Y-78737166D01*
X180034638Y-78740000D01*
X178053999Y-78740000D01*
X177546000Y-79247999D01*
X177546000Y-88392000D01*
X178017681Y-88863681D01*
X178051166Y-88925004D01*
X178054000Y-88951362D01*
X178054000Y-91642637D01*
X178034315Y-91709676D01*
X178017681Y-91730318D01*
X177318692Y-92429306D01*
X177257369Y-92462791D01*
X177190059Y-92458667D01*
X177115655Y-92432632D01*
X177115651Y-92432631D01*
X177115647Y-92432630D01*
X176936404Y-92412435D01*
X176936396Y-92412435D01*
X176757150Y-92432630D01*
X176757145Y-92432631D01*
X176586876Y-92492211D01*
X176434137Y-92588184D01*
X176306584Y-92715737D01*
X176210611Y-92868476D01*
X176151031Y-93038745D01*
X176151030Y-93038750D01*
X176130835Y-93217996D01*
X176130835Y-93218003D01*
X176151030Y-93397249D01*
X176151031Y-93397254D01*
X176210611Y-93567523D01*
X176306584Y-93720262D01*
X176434140Y-93847818D01*
X176471971Y-93871588D01*
X176518263Y-93923922D01*
X176530000Y-93976582D01*
X176530000Y-95960638D01*
X176510315Y-96027677D01*
X176493681Y-96048319D01*
X176073819Y-96468181D01*
X176012496Y-96501666D01*
X175986138Y-96504500D01*
X170723862Y-96504500D01*
X170656823Y-96484815D01*
X170636181Y-96468181D01*
X170114719Y-95946719D01*
X170081234Y-95885396D01*
X170078400Y-95859038D01*
X170078400Y-78130962D01*
X170098085Y-78063923D01*
X170114719Y-78043281D01*
X171667681Y-76490319D01*
X171729004Y-76456834D01*
X171755362Y-76454000D01*
X174244000Y-76454000D01*
X175514000Y-75184000D01*
X175514000Y-73965362D01*
X175533685Y-73898323D01*
X175550319Y-73877681D01*
X176239681Y-73188319D01*
X176301004Y-73154834D01*
X176327362Y-73152000D01*
X180288638Y-73152000D01*
X180355677Y-73171685D01*
G37*
%TD.AperFunction*%
%TD*%
%TA.AperFunction,Conductor*%
%TO.N,GND*%
G36*
X189132177Y-63025185D02*
G01*
X189152819Y-63041819D01*
X190717681Y-64606681D01*
X190751166Y-64668004D01*
X190754000Y-64694362D01*
X190754000Y-65786000D01*
X191770000Y-66802000D01*
X192607638Y-66802000D01*
X192674677Y-66821685D01*
X192695319Y-66838319D01*
X192749681Y-66892681D01*
X192783166Y-66954004D01*
X192786000Y-66980362D01*
X192786000Y-69544638D01*
X192766315Y-69611677D01*
X192749681Y-69632319D01*
X192568319Y-69813681D01*
X192506996Y-69847166D01*
X192480638Y-69850000D01*
X188900362Y-69850000D01*
X188833323Y-69830315D01*
X188812681Y-69813681D01*
X188276819Y-69277819D01*
X188243334Y-69216496D01*
X188240500Y-69190138D01*
X188240500Y-67378313D01*
X188240499Y-67378298D01*
X188237598Y-67341432D01*
X188237597Y-67341426D01*
X188218924Y-67277154D01*
X188214000Y-67242559D01*
X188214000Y-67183000D01*
X188169737Y-67138737D01*
X188150686Y-67114176D01*
X188108085Y-67042140D01*
X188108076Y-67042129D01*
X187991870Y-66925923D01*
X187991861Y-66925916D01*
X187919821Y-66883312D01*
X187895261Y-66864261D01*
X187706000Y-66675000D01*
X187579000Y-66548000D01*
X184912000Y-66548000D01*
X184785000Y-66675000D01*
X184785000Y-63881000D01*
X185660500Y-63005500D01*
X189065138Y-63005500D01*
X189132177Y-63025185D01*
G37*
%TD.AperFunction*%
%TD*%
%TA.AperFunction,Conductor*%
%TO.N,+12V_HighSide*%
G36*
X194372796Y-80283685D02*
G01*
X194418551Y-80336489D01*
X194428495Y-80405647D01*
X194425864Y-80418825D01*
X194421500Y-80435823D01*
X194421500Y-80435824D01*
X194421500Y-80457044D01*
X194419973Y-80476444D01*
X194416653Y-80497403D01*
X194420950Y-80542858D01*
X194421500Y-80554528D01*
X194421500Y-82654531D01*
X194402494Y-82720503D01*
X194346211Y-82810077D01*
X194346209Y-82810081D01*
X194286633Y-82980337D01*
X194286630Y-82980350D01*
X194266435Y-83159596D01*
X194266435Y-83159603D01*
X194286630Y-83338849D01*
X194286631Y-83338854D01*
X194346211Y-83509123D01*
X194392501Y-83582792D01*
X194442184Y-83661862D01*
X194569738Y-83789416D01*
X194722478Y-83885389D01*
X194892745Y-83944968D01*
X194892750Y-83944969D01*
X195071996Y-83965165D01*
X195072000Y-83965165D01*
X195072004Y-83965165D01*
X195251249Y-83944969D01*
X195251252Y-83944968D01*
X195251255Y-83944968D01*
X195421522Y-83885389D01*
X195574262Y-83789416D01*
X195701816Y-83661862D01*
X195797789Y-83509122D01*
X195857368Y-83338855D01*
X195877565Y-83159600D01*
X195857368Y-82980345D01*
X195857367Y-82980343D01*
X195857366Y-82980337D01*
X195797790Y-82810081D01*
X195797789Y-82810078D01*
X195776008Y-82775414D01*
X195741506Y-82720503D01*
X195722500Y-82654531D01*
X195722500Y-80838808D01*
X195742185Y-80771769D01*
X195758819Y-80751127D01*
X196183127Y-80326819D01*
X196244450Y-80293334D01*
X196270808Y-80290500D01*
X198554021Y-80290500D01*
X198554037Y-80290499D01*
X199416890Y-80290499D01*
X199416890Y-80292491D01*
X199477037Y-80305120D01*
X199526799Y-80354166D01*
X199542400Y-80414380D01*
X199542400Y-82447838D01*
X199522715Y-82514877D01*
X199506081Y-82535519D01*
X198272400Y-83769199D01*
X198272400Y-87985038D01*
X198252715Y-88052077D01*
X198236081Y-88072719D01*
X197977619Y-88331181D01*
X197916296Y-88364666D01*
X197889938Y-88367500D01*
X196012361Y-88367500D01*
X195969003Y-88369824D01*
X195942648Y-88372658D01*
X195911162Y-88377299D01*
X195848669Y-88399597D01*
X195791668Y-88419935D01*
X195791666Y-88419935D01*
X195791663Y-88419937D01*
X195730350Y-88453416D01*
X195730342Y-88453421D01*
X195641849Y-88519667D01*
X195576385Y-88544084D01*
X195567539Y-88544400D01*
X195351400Y-88544400D01*
X195351400Y-88840086D01*
X195339449Y-88893200D01*
X195337612Y-88897073D01*
X195317925Y-88964119D01*
X195317924Y-88964122D01*
X195301500Y-89078361D01*
X195301500Y-91087738D01*
X195316220Y-91195996D01*
X195333903Y-91259820D01*
X195342033Y-91279531D01*
X195351400Y-91326809D01*
X195351400Y-91372522D01*
X195331715Y-91439561D01*
X195315081Y-91460203D01*
X195266865Y-91508418D01*
X195170892Y-91661157D01*
X195111312Y-91831426D01*
X195111311Y-91831431D01*
X195091116Y-92010677D01*
X195091116Y-92010684D01*
X195111311Y-92189930D01*
X195111312Y-92189935D01*
X195170892Y-92360204D01*
X195266865Y-92512943D01*
X195277963Y-92524041D01*
X195311448Y-92585364D01*
X195306464Y-92655056D01*
X195277963Y-92699403D01*
X195232906Y-92744459D01*
X195136933Y-92897198D01*
X195077353Y-93067467D01*
X195077352Y-93067472D01*
X195057157Y-93246718D01*
X195057157Y-93246725D01*
X195077352Y-93425971D01*
X195077353Y-93425976D01*
X195136933Y-93596245D01*
X195151775Y-93619865D01*
X195232906Y-93748984D01*
X195360460Y-93876538D01*
X195513200Y-93972511D01*
X195641134Y-94017277D01*
X195697909Y-94057997D01*
X195723399Y-94120434D01*
X195737687Y-94247250D01*
X195737688Y-94247254D01*
X195797268Y-94417523D01*
X195844885Y-94493304D01*
X195893241Y-94570262D01*
X196020795Y-94697816D01*
X196109648Y-94753646D01*
X196173531Y-94793787D01*
X196173535Y-94793789D01*
X196308422Y-94840988D01*
X196343802Y-94853368D01*
X196343807Y-94853369D01*
X196523053Y-94873565D01*
X196523057Y-94873565D01*
X196523061Y-94873565D01*
X196702306Y-94853369D01*
X196702309Y-94853368D01*
X196702312Y-94853368D01*
X196872579Y-94793789D01*
X196873545Y-94793181D01*
X196882580Y-94787506D01*
X196948551Y-94768500D01*
X198554021Y-94768500D01*
X198554037Y-94768499D01*
X199342399Y-94768499D01*
X199409438Y-94788184D01*
X199455193Y-94840988D01*
X199466399Y-94892464D01*
X199467206Y-97730609D01*
X199467207Y-97730611D01*
X199899594Y-98057589D01*
X199941191Y-98113725D01*
X199948800Y-98156492D01*
X199948800Y-99240800D01*
X199929115Y-99307839D01*
X199876311Y-99353594D01*
X199824800Y-99364800D01*
X196556166Y-99364800D01*
X196489127Y-99345115D01*
X196464665Y-99324487D01*
X195345059Y-98100351D01*
X195314340Y-98037597D01*
X195321538Y-97975797D01*
X195319774Y-97975180D01*
X195381651Y-97798347D01*
X195381654Y-97798334D01*
X195401850Y-97619088D01*
X195401850Y-97619081D01*
X195381654Y-97439835D01*
X195381653Y-97439830D01*
X195322073Y-97269561D01*
X195243122Y-97143912D01*
X195226101Y-97116823D01*
X195098547Y-96989269D01*
X194945808Y-96893296D01*
X194775539Y-96833716D01*
X194775534Y-96833715D01*
X194596289Y-96813520D01*
X194596281Y-96813520D01*
X194417035Y-96833715D01*
X194417027Y-96833717D01*
X194319683Y-96867779D01*
X194249904Y-96871340D01*
X194189277Y-96836611D01*
X194187255Y-96834453D01*
X193783498Y-96393000D01*
X189862000Y-96393000D01*
X189794961Y-96373315D01*
X189749206Y-96320511D01*
X189738000Y-96269000D01*
X189738000Y-93319600D01*
X188823600Y-92405200D01*
X180569239Y-92405200D01*
X180502200Y-92385515D01*
X180481253Y-92368575D01*
X179766414Y-91648736D01*
X179733143Y-91587297D01*
X179730400Y-91561361D01*
X179730400Y-90906600D01*
X190784522Y-90906600D01*
X190803562Y-91063418D01*
X190847607Y-91179554D01*
X190859580Y-91211123D01*
X190949317Y-91341130D01*
X191067560Y-91445883D01*
X191067562Y-91445884D01*
X191207434Y-91519296D01*
X191360814Y-91557100D01*
X191360815Y-91557100D01*
X191518785Y-91557100D01*
X191672165Y-91519296D01*
X191692891Y-91508418D01*
X191812040Y-91445883D01*
X191930283Y-91341130D01*
X192020020Y-91211123D01*
X192076037Y-91063418D01*
X192095078Y-90906600D01*
X192076037Y-90749782D01*
X192020020Y-90602077D01*
X191930283Y-90472070D01*
X191812040Y-90367317D01*
X191812038Y-90367316D01*
X191812037Y-90367315D01*
X191672165Y-90293903D01*
X191518786Y-90256100D01*
X191518785Y-90256100D01*
X191360815Y-90256100D01*
X191360814Y-90256100D01*
X191207434Y-90293903D01*
X191067562Y-90367315D01*
X190949316Y-90472071D01*
X190859581Y-90602075D01*
X190859580Y-90602076D01*
X190803562Y-90749781D01*
X190784522Y-90906599D01*
X190784522Y-90906600D01*
X179730400Y-90906600D01*
X179730400Y-88747599D01*
X179730399Y-88747598D01*
X179347846Y-88350833D01*
X193300024Y-88350833D01*
X193310344Y-88514860D01*
X193361132Y-88671171D01*
X193361134Y-88671175D01*
X193449198Y-88809940D01*
X193569003Y-88922445D01*
X193569011Y-88922451D01*
X193713028Y-89001625D01*
X193713032Y-89001627D01*
X193872223Y-89042500D01*
X193872227Y-89042500D01*
X194084187Y-89042500D01*
X194084187Y-89042499D01*
X194117218Y-89034358D01*
X194131330Y-89031735D01*
X194168258Y-89027071D01*
X194168262Y-89027069D01*
X194168265Y-89027069D01*
X194195850Y-89016146D01*
X194211832Y-89011038D01*
X194220327Y-89008944D01*
X194237565Y-89004696D01*
X194271020Y-88987136D01*
X194282975Y-88981650D01*
X194321071Y-88966568D01*
X194342045Y-88951328D01*
X194357309Y-88941848D01*
X194377440Y-88931283D01*
X194408522Y-88903746D01*
X194417852Y-88896252D01*
X194454037Y-88869963D01*
X194468169Y-88852878D01*
X194481472Y-88839118D01*
X194495683Y-88826530D01*
X194521419Y-88789244D01*
X194527894Y-88780684D01*
X194558800Y-88743326D01*
X194566629Y-88726685D01*
X194576779Y-88709039D01*
X194585420Y-88696523D01*
X194602805Y-88650680D01*
X194606550Y-88641849D01*
X194628779Y-88594613D01*
X194631519Y-88580246D01*
X194637381Y-88559511D01*
X194641437Y-88548818D01*
X194647798Y-88496422D01*
X194649090Y-88488137D01*
X194659576Y-88433170D01*
X194658894Y-88422339D01*
X194659555Y-88399597D01*
X194660478Y-88392000D01*
X194653659Y-88335843D01*
X194653006Y-88328761D01*
X194649256Y-88269140D01*
X194647071Y-88262415D01*
X194641906Y-88239043D01*
X194641437Y-88235184D01*
X194641437Y-88235182D01*
X194620056Y-88178806D01*
X194618084Y-88173202D01*
X194598468Y-88112829D01*
X194596699Y-88110041D01*
X194585459Y-88087581D01*
X194585420Y-88087477D01*
X194549042Y-88034774D01*
X194546407Y-88030795D01*
X194510402Y-87974060D01*
X194510399Y-87974057D01*
X194510397Y-87974054D01*
X194508695Y-87971997D01*
X194500867Y-87962898D01*
X194500658Y-87963085D01*
X194495683Y-87957470D01*
X194444960Y-87912533D01*
X194442304Y-87910111D01*
X194390595Y-87861554D01*
X194390593Y-87861552D01*
X194390589Y-87861550D01*
X194384281Y-87856967D01*
X194384471Y-87856704D01*
X194384020Y-87856388D01*
X194383613Y-87856978D01*
X194377440Y-87852716D01*
X194314094Y-87819469D01*
X194311984Y-87818335D01*
X194246567Y-87782372D01*
X194243654Y-87781218D01*
X194237791Y-87779360D01*
X194237566Y-87779304D01*
X194237565Y-87779304D01*
X194191009Y-87767829D01*
X194164415Y-87761274D01*
X194163253Y-87760981D01*
X194087382Y-87741500D01*
X194087377Y-87741500D01*
X193913475Y-87741500D01*
X193913465Y-87741500D01*
X193791342Y-87756929D01*
X193791339Y-87756929D01*
X193638530Y-87817431D01*
X193638521Y-87817436D01*
X193505564Y-87914034D01*
X193505562Y-87914037D01*
X193400800Y-88040673D01*
X193330820Y-88189387D01*
X193315607Y-88269140D01*
X193300024Y-88350830D01*
X193300024Y-88350832D01*
X193300024Y-88350833D01*
X179347846Y-88350833D01*
X178608506Y-87584026D01*
X178576144Y-87522102D01*
X178573772Y-87498465D01*
X178570205Y-86611499D01*
X178589620Y-86544381D01*
X178642239Y-86498414D01*
X178694204Y-86487000D01*
X181268856Y-86487000D01*
X181335895Y-86506685D01*
X181354729Y-86521547D01*
X182668141Y-87782400D01*
X189230000Y-87782400D01*
X189636400Y-87376000D01*
X189636400Y-83464962D01*
X189656085Y-83397923D01*
X189672719Y-83377281D01*
X192749681Y-80300319D01*
X192811004Y-80266834D01*
X192837362Y-80264000D01*
X194305757Y-80264000D01*
X194372796Y-80283685D01*
G37*
%TD.AperFunction*%
%TD*%
%TA.AperFunction,Conductor*%
%TO.N,GND*%
G36*
X204901800Y-66675000D02*
G01*
X204901800Y-70639370D01*
X203708000Y-71947959D01*
X203708000Y-70993000D01*
X203327000Y-70612000D01*
X199263000Y-70612000D01*
X199766950Y-70039948D01*
X200202799Y-69545202D01*
X200202800Y-69545199D01*
X200202800Y-69087043D01*
X200207824Y-69052106D01*
X200210873Y-69041719D01*
X200210872Y-69041719D01*
X200210874Y-69041716D01*
X200216440Y-69003002D01*
X202082157Y-69003002D01*
X202312851Y-69041500D01*
X202553145Y-69041500D01*
X202553151Y-69041499D01*
X202783841Y-69003002D01*
X202433001Y-68652160D01*
X202433000Y-68652160D01*
X202082157Y-69003002D01*
X200216440Y-69003002D01*
X200227300Y-68927470D01*
X200227300Y-67591505D01*
X200978031Y-67591505D01*
X200997874Y-67830976D01*
X201025150Y-67938688D01*
X201287344Y-67676495D01*
X201733000Y-67676495D01*
X201773682Y-67841546D01*
X201852680Y-67992066D01*
X201965405Y-68119306D01*
X202105305Y-68215871D01*
X202264249Y-68276151D01*
X202390660Y-68291500D01*
X202475340Y-68291500D01*
X202601751Y-68276151D01*
X202760695Y-68215871D01*
X202900595Y-68119306D01*
X203013320Y-67992066D01*
X203092318Y-67841546D01*
X203133000Y-67676495D01*
X203133000Y-67591500D01*
X203493660Y-67591500D01*
X203840848Y-67938687D01*
X203840849Y-67938687D01*
X203868122Y-67830991D01*
X203868126Y-67830971D01*
X203887969Y-67591505D01*
X203887969Y-67591494D01*
X203868126Y-67352028D01*
X203868124Y-67352019D01*
X203840848Y-67244311D01*
X203493660Y-67591500D01*
X203133000Y-67591500D01*
X203133000Y-67506505D01*
X203092318Y-67341454D01*
X203013320Y-67190934D01*
X202900595Y-67063694D01*
X202760695Y-66967129D01*
X202601751Y-66906849D01*
X202475340Y-66891500D01*
X202390660Y-66891500D01*
X202264249Y-66906849D01*
X202105305Y-66967129D01*
X201965405Y-67063694D01*
X201852680Y-67190934D01*
X201773682Y-67341454D01*
X201733000Y-67506505D01*
X201733000Y-67676495D01*
X201287344Y-67676495D01*
X201372339Y-67591500D01*
X201372339Y-67591499D01*
X201025150Y-67244310D01*
X200997874Y-67352023D01*
X200978031Y-67591494D01*
X200978031Y-67591505D01*
X200227300Y-67591505D01*
X200227300Y-66297693D01*
X200227099Y-66294578D01*
X200223962Y-66245781D01*
X200223957Y-66245726D01*
X200221320Y-66225317D01*
X200268261Y-66179995D01*
X202082156Y-66179995D01*
X202433000Y-66530839D01*
X202433001Y-66530839D01*
X202783842Y-66179996D01*
X202783842Y-66179995D01*
X202553149Y-66141500D01*
X202312851Y-66141500D01*
X202082156Y-66179995D01*
X200268261Y-66179995D01*
X201274208Y-65208736D01*
X201287025Y-65201800D01*
X203448780Y-65201800D01*
X204901800Y-66675000D01*
G37*
%TD.AperFunction*%
%TD*%
%TA.AperFunction,Conductor*%
%TO.N,/Power/Motor-*%
G36*
X205401648Y-72612885D02*
G01*
X205420364Y-72627634D01*
X205513911Y-72717200D01*
X207302312Y-74429499D01*
X207733755Y-74842582D01*
X207768565Y-74903163D01*
X207772000Y-74932148D01*
X207772000Y-75678892D01*
X207765042Y-75719846D01*
X207748632Y-75766742D01*
X207748630Y-75766750D01*
X207728435Y-75945996D01*
X207728435Y-75946003D01*
X207748630Y-76125251D01*
X207765041Y-76172148D01*
X207772000Y-76213103D01*
X207772000Y-81280001D01*
X210261200Y-83870800D01*
X219375500Y-83870800D01*
X219442539Y-83890485D01*
X219488294Y-83943289D01*
X219499500Y-83994800D01*
X219499500Y-87887000D01*
X219479815Y-87954039D01*
X219427011Y-87999794D01*
X219375500Y-88011000D01*
X217698047Y-88011000D01*
X217631008Y-87991315D01*
X217585253Y-87938511D01*
X217575309Y-87869353D01*
X217604334Y-87805797D01*
X217663112Y-87768023D01*
X217677637Y-87764691D01*
X217693940Y-87761970D01*
X217915333Y-87685965D01*
X217929300Y-87678406D01*
X217342531Y-87091636D01*
X217329350Y-87100443D01*
X217326315Y-87110782D01*
X217309681Y-87131424D01*
X216762698Y-87678406D01*
X216776661Y-87685963D01*
X216998059Y-87761970D01*
X217014363Y-87764691D01*
X217077248Y-87795142D01*
X217113687Y-87854756D01*
X217112112Y-87924608D01*
X217073022Y-87982520D01*
X217008828Y-88010105D01*
X216993953Y-88011000D01*
X210698047Y-88011000D01*
X210631008Y-87991315D01*
X210585253Y-87938511D01*
X210575309Y-87869353D01*
X210604334Y-87805797D01*
X210663112Y-87768023D01*
X210677637Y-87764691D01*
X210693940Y-87761970D01*
X210915333Y-87685965D01*
X210929300Y-87678406D01*
X210342531Y-87091636D01*
X210329350Y-87100443D01*
X210326315Y-87110782D01*
X210309681Y-87131424D01*
X209762698Y-87678406D01*
X209776661Y-87685963D01*
X209998059Y-87761970D01*
X210014363Y-87764691D01*
X210077248Y-87795142D01*
X210113687Y-87854756D01*
X210112112Y-87924608D01*
X210073022Y-87982520D01*
X210008828Y-88010105D01*
X209993953Y-88011000D01*
X207112807Y-88011000D01*
X207045768Y-87991315D01*
X207024353Y-87973902D01*
X205638400Y-86563200D01*
X203628800Y-86563200D01*
X203561761Y-86543515D01*
X203516006Y-86490711D01*
X203504800Y-86439200D01*
X203504800Y-86388000D01*
X208928659Y-86388000D01*
X208947989Y-86621283D01*
X209005453Y-86848208D01*
X209058270Y-86968621D01*
X209556932Y-86469960D01*
X209671000Y-86469960D01*
X209710228Y-86629116D01*
X209786406Y-86774260D01*
X209895104Y-86896956D01*
X210030008Y-86990073D01*
X210183275Y-87048200D01*
X210305166Y-87063000D01*
X210386834Y-87063000D01*
X210508725Y-87048200D01*
X210661992Y-86990073D01*
X210796896Y-86896956D01*
X210905594Y-86774260D01*
X210981772Y-86629116D01*
X211021000Y-86469960D01*
X211021000Y-86384531D01*
X211049636Y-86384531D01*
X211633727Y-86968621D01*
X211686546Y-86848207D01*
X211744010Y-86621283D01*
X211763341Y-86388000D01*
X215928659Y-86388000D01*
X215947989Y-86621283D01*
X216005453Y-86848208D01*
X216058270Y-86968621D01*
X216556932Y-86469960D01*
X216671000Y-86469960D01*
X216710228Y-86629116D01*
X216786406Y-86774260D01*
X216895104Y-86896956D01*
X217030008Y-86990073D01*
X217183275Y-87048200D01*
X217305166Y-87063000D01*
X217386834Y-87063000D01*
X217508725Y-87048200D01*
X217661992Y-86990073D01*
X217796896Y-86896956D01*
X217905594Y-86774260D01*
X217981772Y-86629116D01*
X218021000Y-86469960D01*
X218021000Y-86384531D01*
X218049636Y-86384531D01*
X218633727Y-86968621D01*
X218686546Y-86848207D01*
X218744010Y-86621283D01*
X218763341Y-86388000D01*
X218763341Y-86387994D01*
X218744010Y-86154716D01*
X218686545Y-85927789D01*
X218633728Y-85807378D01*
X218633727Y-85807377D01*
X218089423Y-86351681D01*
X218061339Y-86367015D01*
X218049636Y-86384531D01*
X218021000Y-86384531D01*
X218021000Y-86306040D01*
X217981772Y-86146884D01*
X217905594Y-86001740D01*
X217796896Y-85879044D01*
X217661992Y-85785927D01*
X217508725Y-85727800D01*
X217386834Y-85713000D01*
X217305166Y-85713000D01*
X217183275Y-85727800D01*
X217030008Y-85785927D01*
X216895104Y-85879044D01*
X216786406Y-86001740D01*
X216710228Y-86146884D01*
X216671000Y-86306040D01*
X216671000Y-86469960D01*
X216556932Y-86469960D01*
X216638892Y-86388000D01*
X216638893Y-86387999D01*
X216638892Y-86387998D01*
X216058271Y-85807378D01*
X216005453Y-85927791D01*
X215947989Y-86154716D01*
X215928659Y-86387994D01*
X215928659Y-86388000D01*
X211763341Y-86388000D01*
X211763341Y-86387994D01*
X211744010Y-86154716D01*
X211686545Y-85927789D01*
X211633728Y-85807378D01*
X211633727Y-85807377D01*
X211089424Y-86351681D01*
X211061339Y-86367016D01*
X211049636Y-86384531D01*
X211021000Y-86384531D01*
X211021000Y-86306040D01*
X210981772Y-86146884D01*
X210905594Y-86001740D01*
X210796896Y-85879044D01*
X210661992Y-85785927D01*
X210508725Y-85727800D01*
X210386834Y-85713000D01*
X210305166Y-85713000D01*
X210183275Y-85727800D01*
X210030008Y-85785927D01*
X209895104Y-85879044D01*
X209786406Y-86001740D01*
X209710228Y-86146884D01*
X209671000Y-86306040D01*
X209671000Y-86469960D01*
X209556932Y-86469960D01*
X209638892Y-86388000D01*
X209638893Y-86387999D01*
X209638892Y-86387998D01*
X209058271Y-85807378D01*
X209005453Y-85927791D01*
X208947989Y-86154716D01*
X208928659Y-86387994D01*
X208928659Y-86388000D01*
X203504800Y-86388000D01*
X203504800Y-85097592D01*
X209762697Y-85097592D01*
X210345998Y-85680892D01*
X210345999Y-85680893D01*
X210346000Y-85680893D01*
X210346000Y-85680892D01*
X210929301Y-85097592D01*
X216762697Y-85097592D01*
X217345998Y-85680892D01*
X217345999Y-85680893D01*
X217346000Y-85680893D01*
X217346000Y-85680892D01*
X217929301Y-85097592D01*
X217929300Y-85097591D01*
X217915348Y-85090041D01*
X217915338Y-85090036D01*
X217693939Y-85014029D01*
X217463043Y-84975500D01*
X217228957Y-84975500D01*
X216998060Y-85014029D01*
X216776666Y-85090034D01*
X216776655Y-85090039D01*
X216762698Y-85097591D01*
X216762697Y-85097592D01*
X210929301Y-85097592D01*
X210929300Y-85097591D01*
X210915348Y-85090041D01*
X210915338Y-85090036D01*
X210693939Y-85014029D01*
X210463043Y-84975500D01*
X210228957Y-84975500D01*
X209998060Y-85014029D01*
X209776666Y-85090034D01*
X209776655Y-85090039D01*
X209762698Y-85097591D01*
X209762697Y-85097592D01*
X203504800Y-85097592D01*
X203504800Y-82499200D01*
X203454000Y-82448400D01*
X202142982Y-82448400D01*
X202086686Y-82434884D01*
X202057919Y-82420226D01*
X202052216Y-82417130D01*
X201993482Y-82383220D01*
X201980149Y-82378888D01*
X201962178Y-82371443D01*
X201949698Y-82365084D01*
X201949686Y-82365079D01*
X201884176Y-82347525D01*
X201877955Y-82345682D01*
X201813462Y-82324728D01*
X201813456Y-82324726D01*
X201813451Y-82324725D01*
X201813449Y-82324725D01*
X201799514Y-82323260D01*
X201780389Y-82319715D01*
X201766853Y-82316088D01*
X201766843Y-82316086D01*
X201699109Y-82312536D01*
X201692648Y-82312028D01*
X201683428Y-82311059D01*
X201672392Y-82309900D01*
X201672388Y-82309900D01*
X201652026Y-82309900D01*
X201645537Y-82309730D01*
X201577810Y-82306180D01*
X201563972Y-82308373D01*
X201544573Y-82309900D01*
X200784000Y-82309900D01*
X200716961Y-82290215D01*
X200671206Y-82237411D01*
X200660000Y-82185900D01*
X200660000Y-76697825D01*
X200679685Y-76630786D01*
X200696319Y-76610144D01*
X200730647Y-76575816D01*
X200780413Y-76526050D01*
X200809423Y-76493753D01*
X200826057Y-76473111D01*
X200845042Y-76447560D01*
X200899389Y-76332922D01*
X200919074Y-76265883D01*
X200935500Y-76151637D01*
X200935500Y-75319000D01*
X200955185Y-75251961D01*
X201007989Y-75206206D01*
X201059500Y-75195000D01*
X203187538Y-75195000D01*
X203191608Y-75194781D01*
X203230886Y-75192676D01*
X203257244Y-75189842D01*
X203266861Y-75188424D01*
X203288736Y-75185200D01*
X203288737Y-75185199D01*
X203288741Y-75185199D01*
X203408231Y-75142565D01*
X203469554Y-75109080D01*
X203561950Y-75039913D01*
X203958413Y-74643450D01*
X203987423Y-74611153D01*
X204004057Y-74590511D01*
X204023042Y-74564960D01*
X204066303Y-74473704D01*
X204101510Y-74429502D01*
X204368400Y-74218800D01*
X204368400Y-72717200D01*
X204388085Y-72650161D01*
X204440889Y-72604406D01*
X204492400Y-72593200D01*
X205334609Y-72593200D01*
X205401648Y-72612885D01*
G37*
%TD.AperFunction*%
%TD*%
%TA.AperFunction,Conductor*%
%TO.N,/GND2*%
G36*
X219341597Y-79318222D02*
G01*
X219362710Y-79316033D01*
X219431422Y-79328698D01*
X219482379Y-79376501D01*
X219499500Y-79439372D01*
X219499500Y-79876000D01*
X219479815Y-79943039D01*
X219427011Y-79988794D01*
X219375500Y-80000000D01*
X219028970Y-80000000D01*
X218961931Y-79980315D01*
X218959542Y-79978741D01*
X218957093Y-79977086D01*
X218957086Y-79977082D01*
X218957081Y-79977078D01*
X218906200Y-79948653D01*
X218857277Y-79898777D01*
X218843085Y-79830364D01*
X218843974Y-79822525D01*
X218845496Y-79812071D01*
X218264620Y-79231195D01*
X218325823Y-79223138D01*
X218471026Y-79162992D01*
X218595715Y-79067315D01*
X218691392Y-78942627D01*
X218751538Y-78797423D01*
X218759595Y-78736220D01*
X219341597Y-79318222D01*
G37*
%TD.AperFunction*%
%TA.AperFunction,Conductor*%
G36*
X209951124Y-73425685D02*
G01*
X209985520Y-73462523D01*
X209986847Y-73461560D01*
X210018266Y-73504806D01*
X210024678Y-73514568D01*
X210047919Y-73553865D01*
X210047923Y-73553869D01*
X210062925Y-73568871D01*
X210075563Y-73583669D01*
X210088033Y-73600833D01*
X210088036Y-73600837D01*
X210123213Y-73629937D01*
X210131854Y-73637800D01*
X210895181Y-74401127D01*
X210928666Y-74462450D01*
X210931500Y-74488808D01*
X210931500Y-74717494D01*
X210929732Y-74733505D01*
X210929974Y-74733528D01*
X210929240Y-74741294D01*
X210931439Y-74811262D01*
X210931500Y-74815157D01*
X210931500Y-74843920D01*
X210931501Y-74843938D01*
X210932053Y-74848311D01*
X210932968Y-74859941D01*
X210934402Y-74905567D01*
X210934403Y-74905570D01*
X210940323Y-74925948D01*
X210944268Y-74944996D01*
X210946928Y-74966054D01*
X210946931Y-74966065D01*
X210963737Y-75008514D01*
X210967520Y-75019563D01*
X210980254Y-75063395D01*
X210980255Y-75063397D01*
X210991060Y-75081666D01*
X210999617Y-75099134D01*
X211005226Y-75113300D01*
X211007432Y-75118872D01*
X211034266Y-75155806D01*
X211040678Y-75165568D01*
X211063919Y-75204865D01*
X211063923Y-75204869D01*
X211078925Y-75219871D01*
X211091563Y-75234669D01*
X211104033Y-75251833D01*
X211104036Y-75251837D01*
X211139213Y-75280937D01*
X211147854Y-75288800D01*
X211879919Y-76020865D01*
X211913404Y-76082188D01*
X211915767Y-76119348D01*
X211913821Y-76141602D01*
X211932904Y-76359727D01*
X211932906Y-76359738D01*
X211989575Y-76571231D01*
X211989577Y-76571235D01*
X211989578Y-76571239D01*
X212052927Y-76707091D01*
X212082117Y-76769690D01*
X212082119Y-76769694D01*
X212199118Y-76936785D01*
X212207711Y-76949057D01*
X212362544Y-77103890D01*
X212541911Y-77229484D01*
X212541917Y-77229486D01*
X212542942Y-77230079D01*
X212543307Y-77230461D01*
X212546345Y-77232589D01*
X212545917Y-77233199D01*
X212591161Y-77280643D01*
X212604388Y-77349249D01*
X212578424Y-77414116D01*
X212539967Y-77446524D01*
X212494504Y-77471127D01*
X212494504Y-77471129D01*
X213075381Y-78052006D01*
X213014179Y-78060064D01*
X212868976Y-78120210D01*
X212744287Y-78215887D01*
X212648610Y-78340575D01*
X212588464Y-78485779D01*
X212580406Y-78546981D01*
X211998402Y-77964977D01*
X211977847Y-77996440D01*
X211887917Y-78201460D01*
X211832958Y-78418491D01*
X211814471Y-78641595D01*
X211814471Y-78641606D01*
X211832958Y-78864710D01*
X211887917Y-79081741D01*
X211977845Y-79286757D01*
X211977846Y-79286759D01*
X211998403Y-79318223D01*
X212580406Y-78736220D01*
X212588464Y-78797423D01*
X212648610Y-78942626D01*
X212744287Y-79067315D01*
X212868976Y-79162992D01*
X213014179Y-79223138D01*
X213075381Y-79231195D01*
X212494504Y-79812072D01*
X212495975Y-79822169D01*
X212486160Y-79891346D01*
X212442709Y-79942779D01*
X212418657Y-79959035D01*
X212402678Y-79969835D01*
X212336115Y-79991068D01*
X212333241Y-79991101D01*
X211936762Y-79991101D01*
X211869723Y-79971416D01*
X211844146Y-79949552D01*
X210365293Y-78288378D01*
X210335419Y-78225217D01*
X210344434Y-78155932D01*
X210351169Y-78142819D01*
X210370344Y-78110398D01*
X210412593Y-77964977D01*
X210416197Y-77952573D01*
X210416198Y-77952567D01*
X210419099Y-77915701D01*
X210419100Y-77915694D01*
X210419100Y-77159306D01*
X210416198Y-77122431D01*
X210410812Y-77103893D01*
X210370345Y-76964606D01*
X210370344Y-76964603D01*
X210370344Y-76964602D01*
X210286681Y-76823135D01*
X210286679Y-76823133D01*
X210286676Y-76823129D01*
X210170470Y-76706923D01*
X210170462Y-76706917D01*
X210028996Y-76623255D01*
X210008503Y-76617301D01*
X209949618Y-76579693D01*
X209920413Y-76516220D01*
X209919100Y-76498225D01*
X209919100Y-76410445D01*
X209919099Y-76410441D01*
X209904442Y-76280351D01*
X209904441Y-76280349D01*
X209904441Y-76280343D01*
X209846722Y-76115394D01*
X209753747Y-75967424D01*
X209630176Y-75843853D01*
X209482208Y-75750879D01*
X209482209Y-75750879D01*
X209437225Y-75735138D01*
X209390501Y-75705778D01*
X209233470Y-75548747D01*
X209216157Y-75527038D01*
X209214709Y-75524734D01*
X209163816Y-75443738D01*
X209036262Y-75316184D01*
X208980167Y-75280937D01*
X208883523Y-75220211D01*
X208713254Y-75160631D01*
X208713249Y-75160630D01*
X208534004Y-75140435D01*
X208533996Y-75140435D01*
X208417883Y-75153517D01*
X208349061Y-75141462D01*
X208297682Y-75094113D01*
X208280000Y-75030297D01*
X208280000Y-73530000D01*
X208299685Y-73462961D01*
X208352489Y-73417206D01*
X208404000Y-73406000D01*
X209884085Y-73406000D01*
X209951124Y-73425685D01*
G37*
%TD.AperFunction*%
%TA.AperFunction,Conductor*%
G36*
X217191431Y-76936785D02*
G01*
X217212073Y-76953419D01*
X217362544Y-77103890D01*
X217541911Y-77229484D01*
X217541917Y-77229486D01*
X217542942Y-77230079D01*
X217543307Y-77230461D01*
X217546345Y-77232589D01*
X217545917Y-77233199D01*
X217591161Y-77280643D01*
X217604388Y-77349249D01*
X217578424Y-77414116D01*
X217539967Y-77446524D01*
X217494504Y-77471127D01*
X217494504Y-77471129D01*
X218075381Y-78052006D01*
X218014179Y-78060064D01*
X217868976Y-78120210D01*
X217744287Y-78215887D01*
X217648610Y-78340575D01*
X217588464Y-78485779D01*
X217580406Y-78546980D01*
X216998402Y-77964977D01*
X216977847Y-77996440D01*
X216887917Y-78201460D01*
X216832958Y-78418491D01*
X216814471Y-78641595D01*
X216814471Y-78641606D01*
X216832958Y-78864710D01*
X216887917Y-79081741D01*
X216977845Y-79286757D01*
X216977846Y-79286759D01*
X216998403Y-79318223D01*
X217580406Y-78736220D01*
X217588464Y-78797423D01*
X217648610Y-78942626D01*
X217744287Y-79067315D01*
X217868976Y-79162992D01*
X218014179Y-79223138D01*
X218075381Y-79231195D01*
X217601795Y-79704782D01*
X217540472Y-79738267D01*
X217514114Y-79741101D01*
X213825888Y-79741101D01*
X213758849Y-79721416D01*
X213738207Y-79704782D01*
X213264621Y-79231195D01*
X213325823Y-79223138D01*
X213471026Y-79162992D01*
X213595715Y-79067315D01*
X213691392Y-78942627D01*
X213751538Y-78797423D01*
X213759595Y-78736220D01*
X214341597Y-79318222D01*
X214362153Y-79286762D01*
X214452085Y-79081738D01*
X214507043Y-78864710D01*
X214525531Y-78641606D01*
X214525531Y-78641595D01*
X214507043Y-78418491D01*
X214452085Y-78201463D01*
X214362150Y-77996434D01*
X214341598Y-77964978D01*
X214341597Y-77964978D01*
X213759595Y-78546980D01*
X213751538Y-78485779D01*
X213691392Y-78340576D01*
X213595715Y-78215887D01*
X213471026Y-78120210D01*
X213325823Y-78060064D01*
X213264620Y-78052006D01*
X213845496Y-77471129D01*
X213845496Y-77471127D01*
X213800033Y-77446524D01*
X213750443Y-77397305D01*
X213735335Y-77329088D01*
X213759506Y-77263533D01*
X213793883Y-77232912D01*
X213793657Y-77232589D01*
X213796410Y-77230660D01*
X213797074Y-77230070D01*
X213798074Y-77229491D01*
X213798091Y-77229484D01*
X213977458Y-77103890D01*
X214127929Y-76953419D01*
X214189252Y-76919934D01*
X214215610Y-76917100D01*
X217124392Y-76917100D01*
X217191431Y-76936785D01*
G37*
%TD.AperFunction*%
%TA.AperFunction,Conductor*%
G36*
X219443365Y-76707091D02*
G01*
X219488699Y-76760257D01*
X219499500Y-76810872D01*
X219499500Y-77843828D01*
X219479815Y-77910867D01*
X219427011Y-77956622D01*
X219362711Y-77967167D01*
X219341598Y-77964977D01*
X218759595Y-78546980D01*
X218751538Y-78485779D01*
X218691392Y-78340576D01*
X218595715Y-78215887D01*
X218471026Y-78120210D01*
X218325823Y-78060064D01*
X218264620Y-78052006D01*
X218845496Y-77471129D01*
X218845496Y-77471127D01*
X218800033Y-77446524D01*
X218750443Y-77397305D01*
X218735335Y-77329088D01*
X218759506Y-77263533D01*
X218793883Y-77232912D01*
X218793657Y-77232589D01*
X218796410Y-77230660D01*
X218797074Y-77230070D01*
X218798074Y-77229491D01*
X218798091Y-77229484D01*
X218977458Y-77103890D01*
X219132291Y-76949057D01*
X219257885Y-76769690D01*
X219263118Y-76758468D01*
X219309290Y-76706028D01*
X219376483Y-76686876D01*
X219443365Y-76707091D01*
G37*
%TD.AperFunction*%
%TA.AperFunction,Conductor*%
G36*
X219341597Y-71818221D02*
G01*
X219362710Y-71816032D01*
X219431422Y-71828697D01*
X219482379Y-71876500D01*
X219499500Y-71939371D01*
X219499500Y-72972327D01*
X219479815Y-73039366D01*
X219427011Y-73085121D01*
X219357853Y-73095065D01*
X219294297Y-73066040D01*
X219263119Y-73024734D01*
X219257885Y-73013511D01*
X219257882Y-73013505D01*
X219132294Y-72834147D01*
X219132289Y-72834141D01*
X218977459Y-72679311D01*
X218977453Y-72679306D01*
X218798095Y-72553718D01*
X218797053Y-72553117D01*
X218796685Y-72552731D01*
X218793657Y-72550611D01*
X218794083Y-72550002D01*
X218748837Y-72502550D01*
X218735613Y-72433943D01*
X218761581Y-72369078D01*
X218800034Y-72336674D01*
X218845496Y-72312070D01*
X218264621Y-71731194D01*
X218325823Y-71723137D01*
X218471026Y-71662991D01*
X218595715Y-71567314D01*
X218691392Y-71442626D01*
X218751538Y-71297422D01*
X218759595Y-71236219D01*
X219341597Y-71818221D01*
G37*
%TD.AperFunction*%
%TA.AperFunction,Conductor*%
G36*
X218075381Y-70552005D02*
G01*
X218014179Y-70560063D01*
X217868976Y-70620209D01*
X217744287Y-70715886D01*
X217648610Y-70840574D01*
X217588464Y-70985778D01*
X217580406Y-71046979D01*
X216998402Y-70464976D01*
X216977847Y-70496439D01*
X216887917Y-70701459D01*
X216832958Y-70918490D01*
X216814471Y-71141594D01*
X216814471Y-71141605D01*
X216832958Y-71364709D01*
X216887917Y-71581740D01*
X216977845Y-71786756D01*
X216977846Y-71786758D01*
X216998403Y-71818222D01*
X217580406Y-71236219D01*
X217588464Y-71297422D01*
X217648610Y-71442625D01*
X217744287Y-71567314D01*
X217868976Y-71662991D01*
X218014179Y-71723137D01*
X218075381Y-71731194D01*
X217494504Y-72312070D01*
X217539967Y-72336674D01*
X217589557Y-72385894D01*
X217604665Y-72454110D01*
X217580494Y-72519666D01*
X217546121Y-72550291D01*
X217546345Y-72550611D01*
X217543626Y-72552514D01*
X217542956Y-72553112D01*
X217541913Y-72553714D01*
X217362548Y-72679306D01*
X217362542Y-72679311D01*
X217212073Y-72829781D01*
X217150750Y-72863266D01*
X217124392Y-72866100D01*
X214215610Y-72866100D01*
X214148571Y-72846415D01*
X214127929Y-72829781D01*
X213977459Y-72679311D01*
X213977453Y-72679306D01*
X213798095Y-72553718D01*
X213797053Y-72553117D01*
X213796685Y-72552731D01*
X213793657Y-72550611D01*
X213794083Y-72550002D01*
X213748837Y-72502550D01*
X213735613Y-72433943D01*
X213761581Y-72369078D01*
X213800034Y-72336674D01*
X213845496Y-72312070D01*
X213264620Y-71731194D01*
X213325823Y-71723137D01*
X213471026Y-71662991D01*
X213595715Y-71567314D01*
X213691392Y-71442626D01*
X213751538Y-71297422D01*
X213759595Y-71236219D01*
X214341597Y-71818221D01*
X214362153Y-71786761D01*
X214452085Y-71581737D01*
X214507043Y-71364709D01*
X214525531Y-71141605D01*
X214525531Y-71141594D01*
X214507043Y-70918490D01*
X214452085Y-70701462D01*
X214362150Y-70496433D01*
X214341598Y-70464977D01*
X214341597Y-70464977D01*
X213759595Y-71046979D01*
X213751538Y-70985778D01*
X213691392Y-70840575D01*
X213595715Y-70715886D01*
X213471026Y-70620209D01*
X213325823Y-70560063D01*
X213264620Y-70552005D01*
X213816626Y-70000000D01*
X215537000Y-70000000D01*
X217523376Y-70000000D01*
X218075381Y-70552005D01*
G37*
%TD.AperFunction*%
%TA.AperFunction,Conductor*%
G36*
X219442539Y-70019685D02*
G01*
X219488294Y-70072489D01*
X219499500Y-70124000D01*
X219499500Y-70343827D01*
X219479815Y-70410866D01*
X219427011Y-70456621D01*
X219362711Y-70467166D01*
X219341598Y-70464976D01*
X218759595Y-71046979D01*
X218751538Y-70985778D01*
X218691392Y-70840575D01*
X218595715Y-70715886D01*
X218471026Y-70620209D01*
X218325823Y-70560063D01*
X218264620Y-70552005D01*
X218816626Y-70000000D01*
X218999674Y-70000000D01*
X219375500Y-70000000D01*
X219442539Y-70019685D01*
G37*
%TD.AperFunction*%
%TD*%
%TA.AperFunction,Conductor*%
%TO.N,/Power/Motor+*%
G36*
X205534156Y-87040085D02*
G01*
X205555571Y-87057498D01*
X206735092Y-88258083D01*
X206748606Y-88270384D01*
X206768530Y-88288520D01*
X206789945Y-88305933D01*
X206789952Y-88305938D01*
X206816884Y-88326042D01*
X206931517Y-88380387D01*
X206931519Y-88380387D01*
X206931522Y-88380389D01*
X206998561Y-88400074D01*
X206998565Y-88400074D01*
X206998567Y-88400075D01*
X207014357Y-88402345D01*
X207112807Y-88416500D01*
X207112810Y-88416500D01*
X209887462Y-88416500D01*
X209954501Y-88436185D01*
X209972682Y-88457166D01*
X209974254Y-88455595D01*
X210346000Y-88827340D01*
X210346001Y-88827340D01*
X210715675Y-88457663D01*
X210721078Y-88448790D01*
X210783909Y-88418228D01*
X210804536Y-88416500D01*
X215927451Y-88416500D01*
X215994490Y-88436185D01*
X216040245Y-88488989D01*
X216050189Y-88558147D01*
X216021164Y-88621703D01*
X216015132Y-88628181D01*
X216005863Y-88637449D01*
X216005860Y-88637453D01*
X215948333Y-88750355D01*
X215933500Y-88844013D01*
X215933500Y-89138000D01*
X218758499Y-89138000D01*
X218758499Y-88844020D01*
X218743664Y-88750350D01*
X218743662Y-88750344D01*
X218686143Y-88637458D01*
X218686136Y-88637449D01*
X218676868Y-88628181D01*
X218643383Y-88566858D01*
X218648367Y-88497166D01*
X218690239Y-88441233D01*
X218755703Y-88416816D01*
X218764549Y-88416500D01*
X219375500Y-88416500D01*
X219442539Y-88436185D01*
X219488294Y-88488989D01*
X219499500Y-88540500D01*
X219499500Y-93398800D01*
X219479815Y-93465839D01*
X219427011Y-93511594D01*
X219375500Y-93522800D01*
X218078370Y-93522800D01*
X218011331Y-93503115D01*
X218001059Y-93495749D01*
X217998618Y-93493802D01*
X217705454Y-93285790D01*
X217390831Y-93111905D01*
X217304086Y-93075974D01*
X217058724Y-92974341D01*
X217058720Y-92974339D01*
X217058718Y-92974339D01*
X216713305Y-92874828D01*
X216713296Y-92874826D01*
X216358914Y-92814614D01*
X216358902Y-92814612D01*
X216000000Y-92794457D01*
X215641097Y-92814612D01*
X215641085Y-92814614D01*
X215286703Y-92874826D01*
X215286694Y-92874828D01*
X214941281Y-92974339D01*
X214609168Y-93111905D01*
X214294545Y-93285790D01*
X214001377Y-93493805D01*
X213733339Y-93733339D01*
X213493805Y-94001377D01*
X213285790Y-94294545D01*
X213111905Y-94609168D01*
X212974339Y-94941279D01*
X212913781Y-95151483D01*
X212876306Y-95210453D01*
X212822215Y-95238047D01*
X212817337Y-95239160D01*
X212782541Y-95251335D01*
X212769186Y-95255183D01*
X212733246Y-95263387D01*
X212700030Y-95279382D01*
X212687192Y-95284700D01*
X212652399Y-95296875D01*
X212652393Y-95296878D01*
X212621178Y-95316491D01*
X212609014Y-95323213D01*
X212575798Y-95339209D01*
X212556648Y-95354481D01*
X212546972Y-95362197D01*
X212535641Y-95370237D01*
X212504425Y-95389852D01*
X212504421Y-95389855D01*
X212473434Y-95420843D01*
X211880094Y-96014181D01*
X211818771Y-96047666D01*
X211792420Y-96050500D01*
X211776852Y-96050500D01*
X211776823Y-96050501D01*
X211741372Y-96053291D01*
X211681877Y-96070576D01*
X211647282Y-96075500D01*
X211045468Y-96075500D01*
X211005736Y-96067597D01*
X211005613Y-96068060D01*
X210998557Y-96066169D01*
X210998018Y-96066062D01*
X210997762Y-96065956D01*
X210997760Y-96065955D01*
X210880361Y-96050500D01*
X210251636Y-96050500D01*
X210134246Y-96065953D01*
X210134237Y-96065956D01*
X209988157Y-96126464D01*
X209887956Y-96203351D01*
X209822786Y-96228545D01*
X209754342Y-96214506D01*
X209736991Y-96203356D01*
X209619841Y-96113464D01*
X209509108Y-96067597D01*
X209473762Y-96052956D01*
X209473760Y-96052955D01*
X209356361Y-96037500D01*
X208727636Y-96037500D01*
X208610246Y-96052953D01*
X208610237Y-96052956D01*
X208464160Y-96113463D01*
X208338716Y-96209719D01*
X208242464Y-96335158D01*
X208242463Y-96335159D01*
X208206342Y-96422363D01*
X208179462Y-96462590D01*
X207650372Y-96991681D01*
X207589049Y-97025166D01*
X207562691Y-97028000D01*
X206432512Y-97028000D01*
X206366540Y-97008994D01*
X206292722Y-96962611D01*
X206122454Y-96903031D01*
X206122449Y-96903030D01*
X205943204Y-96882835D01*
X205943196Y-96882835D01*
X205763950Y-96903030D01*
X205763945Y-96903031D01*
X205593677Y-96962611D01*
X205519860Y-97008994D01*
X205453888Y-97028000D01*
X203938717Y-97028000D01*
X203250800Y-97688399D01*
X203250800Y-98910600D01*
X203231115Y-98977639D01*
X203178311Y-99023394D01*
X203126800Y-99034600D01*
X200707800Y-99034600D01*
X200640761Y-99014915D01*
X200595006Y-98962111D01*
X200583800Y-98910600D01*
X200583800Y-97155562D01*
X200603485Y-97088523D01*
X200620119Y-97067881D01*
X200725389Y-96962611D01*
X200914000Y-96774000D01*
X200914000Y-91266922D01*
X210027737Y-91266922D01*
X210228958Y-91300500D01*
X210463042Y-91300500D01*
X210664261Y-91266921D01*
X210346001Y-90948660D01*
X210346000Y-90948660D01*
X210027737Y-91266922D01*
X200914000Y-91266922D01*
X200914000Y-90638000D01*
X215933501Y-90638000D01*
X215933501Y-90931979D01*
X215948335Y-91025649D01*
X215948337Y-91025655D01*
X216005856Y-91138541D01*
X216005863Y-91138550D01*
X216095449Y-91228136D01*
X216095453Y-91228139D01*
X216208355Y-91285666D01*
X216302014Y-91300499D01*
X216595999Y-91300499D01*
X216596000Y-91300498D01*
X216596000Y-90638000D01*
X218096000Y-90638000D01*
X218096000Y-91300499D01*
X218389979Y-91300499D01*
X218483649Y-91285664D01*
X218483655Y-91285662D01*
X218596541Y-91228143D01*
X218596550Y-91228136D01*
X218686136Y-91138550D01*
X218686139Y-91138546D01*
X218743666Y-91025644D01*
X218758500Y-90931986D01*
X218758500Y-90638000D01*
X218096000Y-90638000D01*
X216596000Y-90638000D01*
X215933501Y-90638000D01*
X200914000Y-90638000D01*
X200914000Y-89888005D01*
X208928659Y-89888005D01*
X208947989Y-90121283D01*
X208969017Y-90204322D01*
X209203380Y-89969960D01*
X209671000Y-89969960D01*
X209710228Y-90129116D01*
X209786406Y-90274260D01*
X209895104Y-90396956D01*
X210030008Y-90490073D01*
X210183275Y-90548200D01*
X210305166Y-90563000D01*
X210386834Y-90563000D01*
X210508725Y-90548200D01*
X210661992Y-90490073D01*
X210796896Y-90396956D01*
X210905594Y-90274260D01*
X210981772Y-90129116D01*
X211021000Y-89969960D01*
X211021000Y-89888000D01*
X211406660Y-89888000D01*
X211722982Y-90204322D01*
X211744008Y-90121295D01*
X211744011Y-90121278D01*
X211756550Y-89969960D01*
X216671000Y-89969960D01*
X216710228Y-90129116D01*
X216786406Y-90274260D01*
X216895104Y-90396956D01*
X217030008Y-90490073D01*
X217183275Y-90548200D01*
X217305166Y-90563000D01*
X217386834Y-90563000D01*
X217508725Y-90548200D01*
X217661992Y-90490073D01*
X217796896Y-90396956D01*
X217905594Y-90274260D01*
X217981772Y-90129116D01*
X218021000Y-89969960D01*
X218021000Y-89806040D01*
X217981772Y-89646884D01*
X217905594Y-89501740D01*
X217796896Y-89379044D01*
X217661992Y-89285927D01*
X217508725Y-89227800D01*
X217386834Y-89213000D01*
X217305166Y-89213000D01*
X217183275Y-89227800D01*
X217030008Y-89285927D01*
X216895104Y-89379044D01*
X216786406Y-89501740D01*
X216710228Y-89646884D01*
X216671000Y-89806040D01*
X216671000Y-89969960D01*
X211756550Y-89969960D01*
X211763341Y-89888005D01*
X211763341Y-89887994D01*
X211744011Y-89654721D01*
X211744007Y-89654701D01*
X211722982Y-89571676D01*
X211406660Y-89887999D01*
X211406660Y-89888000D01*
X211021000Y-89888000D01*
X211021000Y-89806040D01*
X210981772Y-89646884D01*
X210905594Y-89501740D01*
X210796896Y-89379044D01*
X210661992Y-89285927D01*
X210508725Y-89227800D01*
X210386834Y-89213000D01*
X210305166Y-89213000D01*
X210183275Y-89227800D01*
X210030008Y-89285927D01*
X209895104Y-89379044D01*
X209786406Y-89501740D01*
X209710228Y-89646884D01*
X209671000Y-89806040D01*
X209671000Y-89969960D01*
X209203380Y-89969960D01*
X209285340Y-89888000D01*
X209285340Y-89887999D01*
X208969017Y-89571676D01*
X208947989Y-89654716D01*
X208928659Y-89887994D01*
X208928659Y-89888005D01*
X200914000Y-89888005D01*
X200914000Y-89786000D01*
X200933685Y-89718961D01*
X200986489Y-89673206D01*
X201038000Y-89662000D01*
X202438000Y-89662000D01*
X202565221Y-89534778D01*
X202603550Y-89510550D01*
X202602882Y-89509059D01*
X202607324Y-89507068D01*
X202607324Y-89507067D01*
X202607332Y-89507065D01*
X202668655Y-89473580D01*
X202761051Y-89404413D01*
X203196413Y-88969051D01*
X203225423Y-88936754D01*
X203242057Y-88916112D01*
X203261042Y-88890561D01*
X203298367Y-88811827D01*
X203322723Y-88777276D01*
X203581000Y-88519000D01*
X203581000Y-87144400D01*
X203600685Y-87077361D01*
X203653489Y-87031606D01*
X203705000Y-87020400D01*
X205467117Y-87020400D01*
X205534156Y-87040085D01*
G37*
%TD.AperFunction*%
%TD*%
%TA.AperFunction,Conductor*%
%TO.N,/Power/+VBat*%
G36*
X198706169Y-65221485D02*
G01*
X198722985Y-65234453D01*
X199727181Y-66156337D01*
X199781658Y-66206348D01*
X199817730Y-66266186D01*
X199821800Y-66297693D01*
X199821800Y-68927470D01*
X199802115Y-68994509D01*
X199789119Y-69011356D01*
X197815200Y-71160179D01*
X197815200Y-73227638D01*
X197795515Y-73294677D01*
X197778881Y-73315319D01*
X197470519Y-73623681D01*
X197409196Y-73657166D01*
X197382838Y-73660000D01*
X196849999Y-73660000D01*
X196055617Y-74454382D01*
X196068561Y-76421738D01*
X196049318Y-76488906D01*
X196020693Y-76520434D01*
X195786012Y-76702964D01*
X195721009Y-76728584D01*
X195696000Y-76728304D01*
X195580004Y-76715235D01*
X195579996Y-76715235D01*
X195400750Y-76735430D01*
X195400745Y-76735431D01*
X195230476Y-76795011D01*
X195077737Y-76890984D01*
X194950184Y-77018537D01*
X194854210Y-77171278D01*
X194823182Y-77259954D01*
X194782460Y-77316730D01*
X194717508Y-77342478D01*
X194706140Y-77343000D01*
X191296011Y-77343000D01*
X191228972Y-77323315D01*
X191210137Y-77308452D01*
X191159618Y-77259954D01*
X190908143Y-77018537D01*
X190792126Y-76907160D01*
X190757397Y-76846533D01*
X190754000Y-76817708D01*
X190754000Y-72581753D01*
X190773685Y-72514714D01*
X190805993Y-72480802D01*
X192657453Y-71160180D01*
X194640200Y-69745913D01*
X194640200Y-68341500D01*
X195903001Y-68341500D01*
X195903001Y-68672979D01*
X195917835Y-68766649D01*
X195917837Y-68766655D01*
X195975356Y-68879541D01*
X195975363Y-68879550D01*
X196064949Y-68969136D01*
X196064953Y-68969139D01*
X196177855Y-69026666D01*
X196271514Y-69041499D01*
X196602999Y-69041499D01*
X196603000Y-69041498D01*
X196603000Y-68341500D01*
X198103000Y-68341500D01*
X198103000Y-69041499D01*
X198434479Y-69041499D01*
X198528149Y-69026664D01*
X198528155Y-69026662D01*
X198641041Y-68969143D01*
X198641050Y-68969136D01*
X198730636Y-68879550D01*
X198730639Y-68879546D01*
X198788166Y-68766644D01*
X198803000Y-68672986D01*
X198803000Y-68341500D01*
X198103000Y-68341500D01*
X196603000Y-68341500D01*
X195903001Y-68341500D01*
X194640200Y-68341500D01*
X194640200Y-67676495D01*
X196653000Y-67676495D01*
X196693682Y-67841546D01*
X196772680Y-67992066D01*
X196885405Y-68119306D01*
X197025305Y-68215871D01*
X197184249Y-68276151D01*
X197310660Y-68291500D01*
X197395340Y-68291500D01*
X197521751Y-68276151D01*
X197680695Y-68215871D01*
X197820595Y-68119306D01*
X197933320Y-67992066D01*
X198012318Y-67841546D01*
X198053000Y-67676495D01*
X198053000Y-67506505D01*
X198012318Y-67341454D01*
X197933320Y-67190934D01*
X197820595Y-67063694D01*
X197680695Y-66967129D01*
X197521751Y-66906849D01*
X197395340Y-66891500D01*
X197310660Y-66891500D01*
X197184249Y-66906849D01*
X197025305Y-66967129D01*
X196885405Y-67063694D01*
X196772680Y-67190934D01*
X196693682Y-67341454D01*
X196653000Y-67506505D01*
X196653000Y-67676495D01*
X194640200Y-67676495D01*
X194640200Y-66841500D01*
X195903000Y-66841500D01*
X196603000Y-66841500D01*
X196603000Y-66141500D01*
X198103000Y-66141500D01*
X198103000Y-66841500D01*
X198802999Y-66841500D01*
X198802999Y-66510020D01*
X198788164Y-66416350D01*
X198788162Y-66416344D01*
X198730643Y-66303458D01*
X198730636Y-66303449D01*
X198641050Y-66213863D01*
X198641046Y-66213860D01*
X198528144Y-66156333D01*
X198434486Y-66141500D01*
X198103000Y-66141500D01*
X196603000Y-66141500D01*
X196271520Y-66141500D01*
X196177850Y-66156335D01*
X196177844Y-66156337D01*
X196064958Y-66213856D01*
X196064949Y-66213863D01*
X195975363Y-66303449D01*
X195975360Y-66303453D01*
X195917833Y-66416355D01*
X195903000Y-66510013D01*
X195903000Y-66841500D01*
X194640200Y-66841500D01*
X194640200Y-66420066D01*
X194659885Y-66353027D01*
X194688497Y-66321857D01*
X194712366Y-66303458D01*
X196108086Y-65227590D01*
X196173200Y-65202253D01*
X196183789Y-65201800D01*
X198639130Y-65201800D01*
X198706169Y-65221485D01*
G37*
%TD.AperFunction*%
%TD*%
%TA.AperFunction,Conductor*%
%TO.N,GND*%
G36*
X203708000Y-70993000D02*
G01*
X203708000Y-72321200D01*
X203708000Y-74269037D01*
X203688315Y-74336076D01*
X203671681Y-74356718D01*
X203275218Y-74753181D01*
X203213895Y-74786666D01*
X203187537Y-74789500D01*
X200898982Y-74789500D01*
X200818019Y-74802323D01*
X200805196Y-74804354D01*
X200692158Y-74861950D01*
X200692157Y-74861951D01*
X200692152Y-74861954D01*
X200602454Y-74951652D01*
X200602451Y-74951657D01*
X200544852Y-75064698D01*
X200530000Y-75158475D01*
X200530000Y-76151637D01*
X200510315Y-76218676D01*
X200493681Y-76239318D01*
X199570198Y-77162800D01*
X199508875Y-77196285D01*
X199463120Y-77197593D01*
X199412019Y-77189500D01*
X198587678Y-77189500D01*
X198587677Y-77189500D01*
X197228000Y-77189500D01*
X197160961Y-77169815D01*
X197115206Y-77117011D01*
X197104000Y-77065500D01*
X197104000Y-74730547D01*
X197123685Y-74663508D01*
X197144206Y-74639143D01*
X198628000Y-73279000D01*
X198628000Y-71298362D01*
X198647685Y-71231323D01*
X198664319Y-71210681D01*
X199262998Y-70612002D01*
X199263000Y-70612000D01*
X203327000Y-70612000D01*
X203708000Y-70993000D01*
G37*
%TD.AperFunction*%
%TD*%
%TA.AperFunction,Conductor*%
%TO.N,GND*%
G36*
X186832677Y-80309085D02*
G01*
X186853319Y-80325719D01*
X189092081Y-82564481D01*
X189125566Y-82625804D01*
X189128400Y-82652162D01*
X189128400Y-86511838D01*
X189108715Y-86578877D01*
X189092081Y-86599519D01*
X188453519Y-87238081D01*
X188392196Y-87271566D01*
X188365838Y-87274400D01*
X182829762Y-87274400D01*
X182762723Y-87254715D01*
X182742081Y-87238081D01*
X181646319Y-86142319D01*
X181612834Y-86080996D01*
X181610000Y-86054638D01*
X181610000Y-85699600D01*
X180670200Y-84759800D01*
X178994362Y-84759800D01*
X178927323Y-84740115D01*
X178906681Y-84723481D01*
X178674519Y-84491319D01*
X178641034Y-84429996D01*
X178638200Y-84403638D01*
X178638200Y-82829962D01*
X178657885Y-82762923D01*
X178674519Y-82742281D01*
X178852319Y-82564481D01*
X179070000Y-82346800D01*
X179070000Y-80413400D01*
X179089685Y-80346361D01*
X179142489Y-80300606D01*
X179194000Y-80289400D01*
X186765638Y-80289400D01*
X186832677Y-80309085D01*
G37*
%TD.AperFunction*%
%TD*%
%TA.AperFunction,Conductor*%
%TO.N,GND*%
G36*
X202775430Y-64478645D02*
G01*
X202788433Y-64489955D01*
X205188181Y-66889703D01*
X205221666Y-66951026D01*
X205224500Y-66977384D01*
X205224500Y-71636327D01*
X205217542Y-71677281D01*
X205208631Y-71702747D01*
X205188435Y-71881996D01*
X205188435Y-71882003D01*
X205205900Y-72037017D01*
X205193845Y-72105839D01*
X205146496Y-72157218D01*
X205082680Y-72174900D01*
X204550449Y-72174900D01*
X204550424Y-72174901D01*
X204514975Y-72177690D01*
X204514965Y-72177692D01*
X204484021Y-72186682D01*
X204462687Y-72190894D01*
X204406202Y-72196967D01*
X204354693Y-72208173D01*
X204354690Y-72208174D01*
X204283040Y-72230890D01*
X204283038Y-72230891D01*
X204283037Y-72230891D01*
X204171208Y-72300525D01*
X204170421Y-72299261D01*
X204111010Y-72320943D01*
X204103038Y-72321200D01*
X203708000Y-72321200D01*
X203708000Y-71947959D01*
X204901800Y-70639370D01*
X204901800Y-66675000D01*
X203448780Y-65201800D01*
X201287026Y-65201800D01*
X202641732Y-64468583D01*
X202710057Y-64453986D01*
X202775430Y-64478645D01*
G37*
%TD.AperFunction*%
%TA.AperFunction,Conductor*%
G36*
X208978198Y-65610894D02*
G01*
X209013915Y-65649423D01*
X209031919Y-65679865D01*
X209031923Y-65679869D01*
X209046925Y-65694871D01*
X209059563Y-65709669D01*
X209072033Y-65726833D01*
X209072036Y-65726837D01*
X209107213Y-65755937D01*
X209115854Y-65763800D01*
X209879181Y-66527127D01*
X209912666Y-66588450D01*
X209915500Y-66614808D01*
X209915500Y-72197200D01*
X209895815Y-72264239D01*
X209843011Y-72309994D01*
X209791500Y-72321200D01*
X206863171Y-72321200D01*
X206796132Y-72301515D01*
X206750377Y-72248711D01*
X206740433Y-72179553D01*
X206746130Y-72156245D01*
X206779366Y-72061262D01*
X206779369Y-72061249D01*
X206799565Y-71882003D01*
X206799565Y-71881996D01*
X206779369Y-71702751D01*
X206778609Y-71699420D01*
X206775500Y-71671826D01*
X206775500Y-66517422D01*
X206774720Y-66510498D01*
X206776146Y-66510337D01*
X206779937Y-66448417D01*
X206821232Y-66392057D01*
X206886442Y-66366969D01*
X206937862Y-66373638D01*
X207149506Y-66448417D01*
X207158829Y-66451711D01*
X207393790Y-66491999D01*
X207393798Y-66491999D01*
X207393800Y-66492000D01*
X207393801Y-66492000D01*
X207572496Y-66492000D01*
X207572497Y-66492000D01*
X207572498Y-66491999D01*
X207572515Y-66491999D01*
X207750536Y-66476847D01*
X207750539Y-66476846D01*
X207750541Y-66476846D01*
X207981249Y-66416775D01*
X208113973Y-66356779D01*
X208198480Y-66318580D01*
X208198481Y-66318578D01*
X208198486Y-66318577D01*
X208355821Y-66212237D01*
X208395993Y-66185086D01*
X208395994Y-66185084D01*
X208396003Y-66185079D01*
X208568118Y-66020121D01*
X208709879Y-65828447D01*
X208796462Y-65656718D01*
X208844219Y-65605721D01*
X208911968Y-65588637D01*
X208978198Y-65610894D01*
G37*
%TD.AperFunction*%
%TA.AperFunction,Conductor*%
G36*
X200221320Y-66225317D02*
G01*
X200219895Y-66214280D01*
X200219892Y-66214263D01*
X200219889Y-66214236D01*
X200212705Y-66174398D01*
X200212704Y-66174395D01*
X200211896Y-66172402D01*
X200211417Y-66169951D01*
X200210919Y-66168229D01*
X200211073Y-66168184D01*
X200202800Y-66125787D01*
X200202800Y-65862507D01*
X200222485Y-65795468D01*
X200267774Y-65753457D01*
X201274207Y-65208738D01*
X200221320Y-66225317D01*
G37*
%TD.AperFunction*%
%TD*%
%TA.AperFunction,Conductor*%
%TO.N,/ESP32-S3/GND3*%
G36*
X158257677Y-63773685D02*
G01*
X158278319Y-63790319D01*
X160551697Y-66063697D01*
X160556475Y-66068751D01*
X160733334Y-66266656D01*
X160733336Y-66266658D01*
X160733339Y-66266661D01*
X160847577Y-66368750D01*
X160931247Y-66443522D01*
X160936301Y-66448301D01*
X161507681Y-67019681D01*
X161541166Y-67081004D01*
X161544000Y-67107362D01*
X161544000Y-70008500D01*
X161524315Y-70075539D01*
X161471511Y-70121294D01*
X161420000Y-70132500D01*
X160286481Y-70132500D01*
X160192540Y-70147378D01*
X160123246Y-70138421D01*
X160107172Y-70129898D01*
X160048421Y-70092982D01*
X159878152Y-70033402D01*
X159878147Y-70033401D01*
X159698902Y-70013206D01*
X159698894Y-70013206D01*
X159519648Y-70033401D01*
X159519643Y-70033402D01*
X159349374Y-70092982D01*
X159196632Y-70188957D01*
X159196631Y-70188957D01*
X159161503Y-70224086D01*
X159100180Y-70257571D01*
X159030488Y-70252585D01*
X159004515Y-70237883D01*
X159004158Y-70238453D01*
X158981293Y-70224086D01*
X158925383Y-70188955D01*
X158845523Y-70138775D01*
X158675254Y-70079195D01*
X158675249Y-70079194D01*
X158496004Y-70058999D01*
X158495996Y-70058999D01*
X158316750Y-70079194D01*
X158316745Y-70079195D01*
X158146476Y-70138775D01*
X157993737Y-70234748D01*
X157866184Y-70362301D01*
X157770211Y-70515040D01*
X157710631Y-70685309D01*
X157710630Y-70685313D01*
X157699944Y-70780160D01*
X157672877Y-70844574D01*
X157617678Y-70883317D01*
X157576619Y-70897684D01*
X157459190Y-70938774D01*
X157306449Y-71034748D01*
X157178896Y-71162301D01*
X157082923Y-71315040D01*
X157023343Y-71485309D01*
X157023342Y-71485314D01*
X157003147Y-71664560D01*
X157003147Y-71664567D01*
X157023342Y-71843813D01*
X157023343Y-71843818D01*
X157082923Y-72014087D01*
X157139961Y-72104862D01*
X157178896Y-72166826D01*
X157306450Y-72294380D01*
X157363216Y-72330048D01*
X157459189Y-72390353D01*
X157493453Y-72402342D01*
X157550230Y-72443063D01*
X157575978Y-72508016D01*
X157576500Y-72519384D01*
X157576500Y-74020138D01*
X157556815Y-74087177D01*
X157540181Y-74107819D01*
X156906719Y-74741281D01*
X156845396Y-74774766D01*
X156819038Y-74777600D01*
X155270762Y-74777600D01*
X155203723Y-74757915D01*
X155183081Y-74741281D01*
X154816916Y-74375116D01*
X155414688Y-74375116D01*
X155414689Y-74375117D01*
X155499102Y-74400724D01*
X155499104Y-74400725D01*
X155702000Y-74420707D01*
X155904896Y-74400724D01*
X155989309Y-74375117D01*
X155989310Y-74375116D01*
X155702001Y-74087807D01*
X155702000Y-74087807D01*
X155414688Y-74375116D01*
X154816916Y-74375116D01*
X154198524Y-73756724D01*
X154165039Y-73695401D01*
X154167544Y-73633049D01*
X154182517Y-73583693D01*
X154202510Y-73380700D01*
X154661992Y-73380700D01*
X154681974Y-73583593D01*
X154707582Y-73668010D01*
X154962995Y-73412598D01*
X155317051Y-73412598D01*
X155348266Y-73535862D01*
X155417813Y-73642312D01*
X155518157Y-73720413D01*
X155638422Y-73761700D01*
X155733569Y-73761700D01*
X155827421Y-73746039D01*
X155939251Y-73685520D01*
X156025371Y-73591969D01*
X156076448Y-73475523D01*
X156084306Y-73380701D01*
X156409107Y-73380701D01*
X156696416Y-73668010D01*
X156696417Y-73668009D01*
X156722024Y-73583596D01*
X156742007Y-73380700D01*
X156722025Y-73177804D01*
X156722024Y-73177802D01*
X156696417Y-73093389D01*
X156696416Y-73093388D01*
X156409107Y-73380699D01*
X156409107Y-73380701D01*
X156084306Y-73380701D01*
X156086949Y-73348802D01*
X156055734Y-73225538D01*
X155986187Y-73119088D01*
X155885843Y-73040987D01*
X155765578Y-72999700D01*
X155670431Y-72999700D01*
X155576579Y-73015361D01*
X155464749Y-73075880D01*
X155378629Y-73169431D01*
X155327552Y-73285877D01*
X155317051Y-73412598D01*
X154962995Y-73412598D01*
X154994893Y-73380700D01*
X154707582Y-73093389D01*
X154681974Y-73177806D01*
X154661992Y-73380700D01*
X154202510Y-73380700D01*
X154182517Y-73177707D01*
X154123306Y-72982514D01*
X154123304Y-72982511D01*
X154123304Y-72982509D01*
X154027155Y-72802629D01*
X154027154Y-72802627D01*
X154027152Y-72802624D01*
X153952947Y-72712204D01*
X153897752Y-72644947D01*
X153815797Y-72577690D01*
X153740076Y-72515548D01*
X153740072Y-72515546D01*
X153740070Y-72515544D01*
X153560190Y-72419395D01*
X153451031Y-72386282D01*
X155414689Y-72386282D01*
X155702000Y-72673593D01*
X155702001Y-72673593D01*
X155989310Y-72386282D01*
X155904893Y-72360674D01*
X155702000Y-72340692D01*
X155499106Y-72360674D01*
X155414689Y-72386282D01*
X153451031Y-72386282D01*
X153364991Y-72360182D01*
X153162000Y-72340190D01*
X152959008Y-72360182D01*
X152909650Y-72375155D01*
X152839783Y-72375778D01*
X152785975Y-72344175D01*
X150241000Y-69799200D01*
X143918640Y-69799200D01*
X143851601Y-69779515D01*
X143830959Y-69762881D01*
X143758262Y-69690184D01*
X143605523Y-69594211D01*
X143435254Y-69534631D01*
X143435250Y-69534630D01*
X143321694Y-69521836D01*
X143257280Y-69494769D01*
X143247897Y-69486297D01*
X142784319Y-69022719D01*
X142750834Y-68961396D01*
X142748000Y-68935038D01*
X142748000Y-67030700D01*
X143232054Y-67030700D01*
X143251816Y-67332206D01*
X143251817Y-67332218D01*
X143310761Y-67628547D01*
X143310763Y-67628555D01*
X143407889Y-67914681D01*
X143541525Y-68185669D01*
X143596959Y-68268632D01*
X144072720Y-67792870D01*
X144202183Y-68004134D01*
X144370957Y-68201743D01*
X144568566Y-68370517D01*
X144779827Y-68499978D01*
X144304066Y-68975739D01*
X144387031Y-69031174D01*
X144387030Y-69031174D01*
X144658018Y-69164810D01*
X144944144Y-69261936D01*
X144944152Y-69261938D01*
X145240481Y-69320882D01*
X145240493Y-69320883D01*
X145542000Y-69340645D01*
X145843506Y-69320883D01*
X145843518Y-69320882D01*
X146139847Y-69261938D01*
X146139855Y-69261936D01*
X146425981Y-69164810D01*
X146696966Y-69031175D01*
X146696982Y-69031166D01*
X146779931Y-68975739D01*
X146779932Y-68975739D01*
X146304171Y-68499978D01*
X146515434Y-68370517D01*
X146713043Y-68201743D01*
X146881817Y-68004134D01*
X147011278Y-67792871D01*
X147487039Y-68268632D01*
X147487039Y-68268631D01*
X147542466Y-68185682D01*
X147542475Y-68185666D01*
X147676110Y-67914681D01*
X147773236Y-67628555D01*
X147773238Y-67628547D01*
X147826496Y-67360803D01*
X150070435Y-67360803D01*
X150090630Y-67540049D01*
X150090631Y-67540054D01*
X150150211Y-67710323D01*
X150246184Y-67863062D01*
X150373738Y-67990616D01*
X150526478Y-68086589D01*
X150696745Y-68146168D01*
X150696750Y-68146169D01*
X150875996Y-68166365D01*
X150876000Y-68166365D01*
X150876004Y-68166365D01*
X151055249Y-68146169D01*
X151055252Y-68146168D01*
X151055255Y-68146168D01*
X151225522Y-68086589D01*
X151378262Y-67990616D01*
X151505816Y-67863062D01*
X151601789Y-67710322D01*
X151661368Y-67540055D01*
X151681565Y-67360800D01*
X151678343Y-67332206D01*
X151661369Y-67181550D01*
X151661368Y-67181545D01*
X151661365Y-67181537D01*
X151608585Y-67030700D01*
X154662054Y-67030700D01*
X154681816Y-67332206D01*
X154681817Y-67332218D01*
X154740761Y-67628547D01*
X154740763Y-67628555D01*
X154837889Y-67914681D01*
X154971525Y-68185669D01*
X155026959Y-68268632D01*
X155502720Y-67792870D01*
X155632183Y-68004134D01*
X155800957Y-68201743D01*
X155998566Y-68370517D01*
X156209827Y-68499978D01*
X155734066Y-68975739D01*
X155817031Y-69031174D01*
X155817030Y-69031174D01*
X156088018Y-69164810D01*
X156374144Y-69261936D01*
X156374152Y-69261938D01*
X156670481Y-69320882D01*
X156670493Y-69320883D01*
X156972000Y-69340645D01*
X157273506Y-69320883D01*
X157273518Y-69320882D01*
X157569847Y-69261938D01*
X157569855Y-69261936D01*
X157855981Y-69164810D01*
X158126966Y-69031175D01*
X158126982Y-69031166D01*
X158209931Y-68975739D01*
X158209932Y-68975739D01*
X157734171Y-68499978D01*
X157945434Y-68370517D01*
X158143043Y-68201743D01*
X158311817Y-68004134D01*
X158441278Y-67792871D01*
X158917039Y-68268632D01*
X158917039Y-68268631D01*
X158972466Y-68185682D01*
X158972475Y-68185666D01*
X159106110Y-67914681D01*
X159203236Y-67628555D01*
X159203238Y-67628547D01*
X159262182Y-67332218D01*
X159262183Y-67332206D01*
X159281945Y-67030700D01*
X159262183Y-66729193D01*
X159262182Y-66729181D01*
X159203238Y-66432852D01*
X159203236Y-66432844D01*
X159106110Y-66146718D01*
X158972474Y-65875730D01*
X158917039Y-65792766D01*
X158441277Y-66268527D01*
X158311817Y-66057266D01*
X158143043Y-65859657D01*
X157945434Y-65690883D01*
X157734171Y-65561421D01*
X158209932Y-65085659D01*
X158126969Y-65030225D01*
X157855981Y-64896589D01*
X157569855Y-64799463D01*
X157569847Y-64799461D01*
X157273518Y-64740517D01*
X157273506Y-64740516D01*
X156972000Y-64720754D01*
X156670493Y-64740516D01*
X156670481Y-64740517D01*
X156374152Y-64799461D01*
X156374144Y-64799463D01*
X156088018Y-64896589D01*
X155817026Y-65030228D01*
X155734067Y-65085660D01*
X156209828Y-65561421D01*
X155998566Y-65690883D01*
X155800957Y-65859657D01*
X155632183Y-66057266D01*
X155502721Y-66268528D01*
X155026960Y-65792767D01*
X154971528Y-65875726D01*
X154837889Y-66146718D01*
X154740763Y-66432844D01*
X154740761Y-66432852D01*
X154681817Y-66729181D01*
X154681816Y-66729193D01*
X154662054Y-67030700D01*
X151608585Y-67030700D01*
X151601789Y-67011278D01*
X151601787Y-67011275D01*
X151601787Y-67011274D01*
X151600309Y-67008204D01*
X151599949Y-67006020D01*
X151599489Y-67004705D01*
X151599719Y-67004624D01*
X151588955Y-66939263D01*
X151600309Y-66900596D01*
X151601787Y-66897525D01*
X151601786Y-66897525D01*
X151601789Y-66897522D01*
X151661368Y-66727255D01*
X151681565Y-66548000D01*
X151678290Y-66518935D01*
X151661369Y-66368750D01*
X151661368Y-66368745D01*
X151625647Y-66266661D01*
X151601789Y-66198478D01*
X151505816Y-66045738D01*
X151378262Y-65918184D01*
X151310691Y-65875726D01*
X151225523Y-65822211D01*
X151055254Y-65762631D01*
X151055249Y-65762630D01*
X150876004Y-65742435D01*
X150875996Y-65742435D01*
X150696750Y-65762630D01*
X150696745Y-65762631D01*
X150526476Y-65822211D01*
X150373737Y-65918184D01*
X150246184Y-66045737D01*
X150150211Y-66198476D01*
X150090631Y-66368745D01*
X150090630Y-66368750D01*
X150070435Y-66547996D01*
X150070435Y-66548003D01*
X150090630Y-66727249D01*
X150090633Y-66727262D01*
X150150209Y-66897518D01*
X150151693Y-66900600D01*
X150152053Y-66902789D01*
X150152510Y-66904094D01*
X150152281Y-66904173D01*
X150163044Y-66969542D01*
X150151693Y-67008200D01*
X150150209Y-67011281D01*
X150090633Y-67181537D01*
X150090630Y-67181550D01*
X150070435Y-67360796D01*
X150070435Y-67360803D01*
X147826496Y-67360803D01*
X147832182Y-67332218D01*
X147832183Y-67332206D01*
X147851945Y-67030700D01*
X147832183Y-66729193D01*
X147832182Y-66729181D01*
X147773238Y-66432852D01*
X147773236Y-66432844D01*
X147676110Y-66146718D01*
X147542474Y-65875730D01*
X147487039Y-65792766D01*
X147011277Y-66268527D01*
X146881817Y-66057266D01*
X146713043Y-65859657D01*
X146515434Y-65690883D01*
X146304171Y-65561421D01*
X146779932Y-65085659D01*
X146696969Y-65030225D01*
X146425981Y-64896589D01*
X146139855Y-64799463D01*
X146139847Y-64799461D01*
X145843518Y-64740517D01*
X145843506Y-64740516D01*
X145542000Y-64720754D01*
X145240493Y-64740516D01*
X145240481Y-64740517D01*
X144944152Y-64799461D01*
X144944144Y-64799463D01*
X144658018Y-64896589D01*
X144387026Y-65030228D01*
X144304067Y-65085660D01*
X144779828Y-65561421D01*
X144568566Y-65690883D01*
X144370957Y-65859657D01*
X144202183Y-66057266D01*
X144072721Y-66268528D01*
X143596960Y-65792767D01*
X143541528Y-65875726D01*
X143407889Y-66146718D01*
X143310763Y-66432844D01*
X143310761Y-66432852D01*
X143251817Y-66729181D01*
X143251816Y-66729193D01*
X143232054Y-67030700D01*
X142748000Y-67030700D01*
X142748000Y-64518434D01*
X142767685Y-64451395D01*
X142786592Y-64428537D01*
X143460737Y-63788099D01*
X143522898Y-63756198D01*
X143546142Y-63754000D01*
X158190638Y-63754000D01*
X158257677Y-63773685D01*
G37*
%TD.AperFunction*%
%TD*%
%TA.AperFunction,Conductor*%
%TO.N,GND*%
G36*
X131455131Y-81934685D02*
G01*
X131475773Y-81951319D01*
X131484881Y-81960427D01*
X131518366Y-82021750D01*
X131521200Y-82048108D01*
X131521200Y-86998159D01*
X131501515Y-87065198D01*
X131448711Y-87110953D01*
X131397236Y-87122159D01*
X126412836Y-87123594D01*
X126345791Y-87103929D01*
X126300020Y-87051138D01*
X126288800Y-86999594D01*
X126288800Y-82039000D01*
X126308485Y-81971961D01*
X126361289Y-81926206D01*
X126412800Y-81915000D01*
X131388092Y-81915000D01*
X131455131Y-81934685D01*
G37*
%TD.AperFunction*%
%TD*%
M02*
