%TF.GenerationSoftware,KiCad,Pcbnew,7.0.10*%
%TF.CreationDate,2025-01-30T01:06:36+01:00*%
%TF.ProjectId,BugWiperPCB,42756757-6970-4657-9250-43422e6b6963,rev?*%
%TF.SameCoordinates,Original*%
%TF.FileFunction,Legend,Top*%
%TF.FilePolarity,Positive*%
%FSLAX46Y46*%
G04 Gerber Fmt 4.6, Leading zero omitted, Abs format (unit mm)*
G04 Created by KiCad (PCBNEW 7.0.10) date 2025-01-30 01:06:36*
%MOMM*%
%LPD*%
G01*
G04 APERTURE LIST*
%ADD10C,0.200000*%
%ADD11C,0.150000*%
%ADD12C,0.254000*%
%ADD13C,0.127000*%
%ADD14C,0.152400*%
%ADD15C,0.508000*%
%ADD16C,0.120000*%
%ADD17C,0.400000*%
%ADD18C,0.250000*%
G04 APERTURE END LIST*
D10*
X129468571Y-61048447D02*
X129325714Y-60986542D01*
X129325714Y-60986542D02*
X129278095Y-60924638D01*
X129278095Y-60924638D02*
X129230476Y-60800828D01*
X129230476Y-60800828D02*
X129230476Y-60615114D01*
X129230476Y-60615114D02*
X129278095Y-60491304D01*
X129278095Y-60491304D02*
X129325714Y-60429400D01*
X129325714Y-60429400D02*
X129420952Y-60367495D01*
X129420952Y-60367495D02*
X129801904Y-60367495D01*
X129801904Y-60367495D02*
X129801904Y-61667495D01*
X129801904Y-61667495D02*
X129468571Y-61667495D01*
X129468571Y-61667495D02*
X129373333Y-61605590D01*
X129373333Y-61605590D02*
X129325714Y-61543685D01*
X129325714Y-61543685D02*
X129278095Y-61419876D01*
X129278095Y-61419876D02*
X129278095Y-61296066D01*
X129278095Y-61296066D02*
X129325714Y-61172257D01*
X129325714Y-61172257D02*
X129373333Y-61110352D01*
X129373333Y-61110352D02*
X129468571Y-61048447D01*
X129468571Y-61048447D02*
X129801904Y-61048447D01*
X115641476Y-60367495D02*
X115974809Y-60986542D01*
X116212904Y-60367495D02*
X116212904Y-61667495D01*
X116212904Y-61667495D02*
X115831952Y-61667495D01*
X115831952Y-61667495D02*
X115736714Y-61605590D01*
X115736714Y-61605590D02*
X115689095Y-61543685D01*
X115689095Y-61543685D02*
X115641476Y-61419876D01*
X115641476Y-61419876D02*
X115641476Y-61234161D01*
X115641476Y-61234161D02*
X115689095Y-61110352D01*
X115689095Y-61110352D02*
X115736714Y-61048447D01*
X115736714Y-61048447D02*
X115831952Y-60986542D01*
X115831952Y-60986542D02*
X116212904Y-60986542D01*
D11*
X137055266Y-62599219D02*
X137055266Y-63313504D01*
X137055266Y-63313504D02*
X137007647Y-63456361D01*
X137007647Y-63456361D02*
X136912409Y-63551600D01*
X136912409Y-63551600D02*
X136769552Y-63599219D01*
X136769552Y-63599219D02*
X136674314Y-63599219D01*
X138055266Y-63599219D02*
X137483838Y-63599219D01*
X137769552Y-63599219D02*
X137769552Y-62599219D01*
X137769552Y-62599219D02*
X137674314Y-62742076D01*
X137674314Y-62742076D02*
X137579076Y-62837314D01*
X137579076Y-62837314D02*
X137483838Y-62884933D01*
X215124820Y-75999933D02*
X215839105Y-75999933D01*
X215839105Y-75999933D02*
X215981962Y-76047552D01*
X215981962Y-76047552D02*
X216077201Y-76142790D01*
X216077201Y-76142790D02*
X216124820Y-76285647D01*
X216124820Y-76285647D02*
X216124820Y-76380885D01*
X215220058Y-75571361D02*
X215172439Y-75523742D01*
X215172439Y-75523742D02*
X215124820Y-75428504D01*
X215124820Y-75428504D02*
X215124820Y-75190409D01*
X215124820Y-75190409D02*
X215172439Y-75095171D01*
X215172439Y-75095171D02*
X215220058Y-75047552D01*
X215220058Y-75047552D02*
X215315296Y-74999933D01*
X215315296Y-74999933D02*
X215410534Y-74999933D01*
X215410534Y-74999933D02*
X215553391Y-75047552D01*
X215553391Y-75047552D02*
X216124820Y-75618980D01*
X216124820Y-75618980D02*
X216124820Y-74999933D01*
X146665151Y-82665219D02*
X146665151Y-82903314D01*
X146427056Y-82808076D02*
X146665151Y-82903314D01*
X146665151Y-82903314D02*
X146903246Y-82808076D01*
X146522294Y-83093790D02*
X146665151Y-82903314D01*
X146665151Y-82903314D02*
X146808008Y-83093790D01*
X141449466Y-73032209D02*
X141116133Y-73032209D01*
X141116133Y-73556019D02*
X141116133Y-72556019D01*
X141116133Y-72556019D02*
X141592323Y-72556019D01*
X142497085Y-73556019D02*
X141925657Y-73556019D01*
X142211371Y-73556019D02*
X142211371Y-72556019D01*
X142211371Y-72556019D02*
X142116133Y-72698876D01*
X142116133Y-72698876D02*
X142020895Y-72794114D01*
X142020895Y-72794114D02*
X141925657Y-72841733D01*
D12*
X213223118Y-88662932D02*
X214130261Y-88662932D01*
X214130261Y-88662932D02*
X214311689Y-88723409D01*
X214311689Y-88723409D02*
X214432642Y-88844361D01*
X214432642Y-88844361D02*
X214493118Y-89025790D01*
X214493118Y-89025790D02*
X214493118Y-89146742D01*
X213223118Y-87513885D02*
X213223118Y-87755790D01*
X213223118Y-87755790D02*
X213283594Y-87876742D01*
X213283594Y-87876742D02*
X213344070Y-87937218D01*
X213344070Y-87937218D02*
X213525499Y-88058171D01*
X213525499Y-88058171D02*
X213767403Y-88118647D01*
X213767403Y-88118647D02*
X214251213Y-88118647D01*
X214251213Y-88118647D02*
X214372165Y-88058171D01*
X214372165Y-88058171D02*
X214432642Y-87997694D01*
X214432642Y-87997694D02*
X214493118Y-87876742D01*
X214493118Y-87876742D02*
X214493118Y-87634837D01*
X214493118Y-87634837D02*
X214432642Y-87513885D01*
X214432642Y-87513885D02*
X214372165Y-87453409D01*
X214372165Y-87453409D02*
X214251213Y-87392932D01*
X214251213Y-87392932D02*
X213948832Y-87392932D01*
X213948832Y-87392932D02*
X213827880Y-87453409D01*
X213827880Y-87453409D02*
X213767403Y-87513885D01*
X213767403Y-87513885D02*
X213706927Y-87634837D01*
X213706927Y-87634837D02*
X213706927Y-87876742D01*
X213706927Y-87876742D02*
X213767403Y-87997694D01*
X213767403Y-87997694D02*
X213827880Y-88058171D01*
X213827880Y-88058171D02*
X213948832Y-88118647D01*
D11*
X187825142Y-98403580D02*
X187777523Y-98451200D01*
X187777523Y-98451200D02*
X187634666Y-98498819D01*
X187634666Y-98498819D02*
X187539428Y-98498819D01*
X187539428Y-98498819D02*
X187396571Y-98451200D01*
X187396571Y-98451200D02*
X187301333Y-98355961D01*
X187301333Y-98355961D02*
X187253714Y-98260723D01*
X187253714Y-98260723D02*
X187206095Y-98070247D01*
X187206095Y-98070247D02*
X187206095Y-97927390D01*
X187206095Y-97927390D02*
X187253714Y-97736914D01*
X187253714Y-97736914D02*
X187301333Y-97641676D01*
X187301333Y-97641676D02*
X187396571Y-97546438D01*
X187396571Y-97546438D02*
X187539428Y-97498819D01*
X187539428Y-97498819D02*
X187634666Y-97498819D01*
X187634666Y-97498819D02*
X187777523Y-97546438D01*
X187777523Y-97546438D02*
X187825142Y-97594057D01*
X188206095Y-97594057D02*
X188253714Y-97546438D01*
X188253714Y-97546438D02*
X188348952Y-97498819D01*
X188348952Y-97498819D02*
X188587047Y-97498819D01*
X188587047Y-97498819D02*
X188682285Y-97546438D01*
X188682285Y-97546438D02*
X188729904Y-97594057D01*
X188729904Y-97594057D02*
X188777523Y-97689295D01*
X188777523Y-97689295D02*
X188777523Y-97784533D01*
X188777523Y-97784533D02*
X188729904Y-97927390D01*
X188729904Y-97927390D02*
X188158476Y-98498819D01*
X188158476Y-98498819D02*
X188777523Y-98498819D01*
X189396571Y-97498819D02*
X189491809Y-97498819D01*
X189491809Y-97498819D02*
X189587047Y-97546438D01*
X189587047Y-97546438D02*
X189634666Y-97594057D01*
X189634666Y-97594057D02*
X189682285Y-97689295D01*
X189682285Y-97689295D02*
X189729904Y-97879771D01*
X189729904Y-97879771D02*
X189729904Y-98117866D01*
X189729904Y-98117866D02*
X189682285Y-98308342D01*
X189682285Y-98308342D02*
X189634666Y-98403580D01*
X189634666Y-98403580D02*
X189587047Y-98451200D01*
X189587047Y-98451200D02*
X189491809Y-98498819D01*
X189491809Y-98498819D02*
X189396571Y-98498819D01*
X189396571Y-98498819D02*
X189301333Y-98451200D01*
X189301333Y-98451200D02*
X189253714Y-98403580D01*
X189253714Y-98403580D02*
X189206095Y-98308342D01*
X189206095Y-98308342D02*
X189158476Y-98117866D01*
X189158476Y-98117866D02*
X189158476Y-97879771D01*
X189158476Y-97879771D02*
X189206095Y-97689295D01*
X189206095Y-97689295D02*
X189253714Y-97594057D01*
X189253714Y-97594057D02*
X189301333Y-97546438D01*
X189301333Y-97546438D02*
X189396571Y-97498819D01*
X112559180Y-78279666D02*
X111844895Y-78279666D01*
X111844895Y-78279666D02*
X111702038Y-78232047D01*
X111702038Y-78232047D02*
X111606800Y-78136809D01*
X111606800Y-78136809D02*
X111559180Y-77993952D01*
X111559180Y-77993952D02*
X111559180Y-77898714D01*
X112559180Y-79232047D02*
X112559180Y-78755857D01*
X112559180Y-78755857D02*
X112082990Y-78708238D01*
X112082990Y-78708238D02*
X112130609Y-78755857D01*
X112130609Y-78755857D02*
X112178228Y-78851095D01*
X112178228Y-78851095D02*
X112178228Y-79089190D01*
X112178228Y-79089190D02*
X112130609Y-79184428D01*
X112130609Y-79184428D02*
X112082990Y-79232047D01*
X112082990Y-79232047D02*
X111987752Y-79279666D01*
X111987752Y-79279666D02*
X111749657Y-79279666D01*
X111749657Y-79279666D02*
X111654419Y-79232047D01*
X111654419Y-79232047D02*
X111606800Y-79184428D01*
X111606800Y-79184428D02*
X111559180Y-79089190D01*
X111559180Y-79089190D02*
X111559180Y-78851095D01*
X111559180Y-78851095D02*
X111606800Y-78755857D01*
X111606800Y-78755857D02*
X111654419Y-78708238D01*
X126589295Y-100416819D02*
X126589295Y-101226342D01*
X126589295Y-101226342D02*
X126636914Y-101321580D01*
X126636914Y-101321580D02*
X126684533Y-101369200D01*
X126684533Y-101369200D02*
X126779771Y-101416819D01*
X126779771Y-101416819D02*
X126970247Y-101416819D01*
X126970247Y-101416819D02*
X127065485Y-101369200D01*
X127065485Y-101369200D02*
X127113104Y-101321580D01*
X127113104Y-101321580D02*
X127160723Y-101226342D01*
X127160723Y-101226342D02*
X127160723Y-100416819D01*
X128160723Y-101416819D02*
X127589295Y-101416819D01*
X127875009Y-101416819D02*
X127875009Y-100416819D01*
X127875009Y-100416819D02*
X127779771Y-100559676D01*
X127779771Y-100559676D02*
X127684533Y-100654914D01*
X127684533Y-100654914D02*
X127589295Y-100702533D01*
X122589294Y-96831104D02*
X123065484Y-96831104D01*
X122494056Y-97116819D02*
X122827389Y-96116819D01*
X122827389Y-96116819D02*
X123160722Y-97116819D01*
X123494056Y-96450152D02*
X123494056Y-97116819D01*
X123494056Y-96545390D02*
X123541675Y-96497771D01*
X123541675Y-96497771D02*
X123636913Y-96450152D01*
X123636913Y-96450152D02*
X123779770Y-96450152D01*
X123779770Y-96450152D02*
X123875008Y-96497771D01*
X123875008Y-96497771D02*
X123922627Y-96593009D01*
X123922627Y-96593009D02*
X123922627Y-97116819D01*
X124255961Y-96450152D02*
X124636913Y-96450152D01*
X124398818Y-96116819D02*
X124398818Y-96973961D01*
X124398818Y-96973961D02*
X124446437Y-97069200D01*
X124446437Y-97069200D02*
X124541675Y-97116819D01*
X124541675Y-97116819D02*
X124636913Y-97116819D01*
X125351199Y-97069200D02*
X125255961Y-97116819D01*
X125255961Y-97116819D02*
X125065485Y-97116819D01*
X125065485Y-97116819D02*
X124970247Y-97069200D01*
X124970247Y-97069200D02*
X124922628Y-96973961D01*
X124922628Y-96973961D02*
X124922628Y-96593009D01*
X124922628Y-96593009D02*
X124970247Y-96497771D01*
X124970247Y-96497771D02*
X125065485Y-96450152D01*
X125065485Y-96450152D02*
X125255961Y-96450152D01*
X125255961Y-96450152D02*
X125351199Y-96497771D01*
X125351199Y-96497771D02*
X125398818Y-96593009D01*
X125398818Y-96593009D02*
X125398818Y-96688247D01*
X125398818Y-96688247D02*
X124922628Y-96783485D01*
X125827390Y-96450152D02*
X125827390Y-97116819D01*
X125827390Y-96545390D02*
X125875009Y-96497771D01*
X125875009Y-96497771D02*
X125970247Y-96450152D01*
X125970247Y-96450152D02*
X126113104Y-96450152D01*
X126113104Y-96450152D02*
X126208342Y-96497771D01*
X126208342Y-96497771D02*
X126255961Y-96593009D01*
X126255961Y-96593009D02*
X126255961Y-97116819D01*
X126732152Y-96450152D02*
X126732152Y-97116819D01*
X126732152Y-96545390D02*
X126779771Y-96497771D01*
X126779771Y-96497771D02*
X126875009Y-96450152D01*
X126875009Y-96450152D02*
X127017866Y-96450152D01*
X127017866Y-96450152D02*
X127113104Y-96497771D01*
X127113104Y-96497771D02*
X127160723Y-96593009D01*
X127160723Y-96593009D02*
X127160723Y-97116819D01*
X128065485Y-97116819D02*
X128065485Y-96593009D01*
X128065485Y-96593009D02*
X128017866Y-96497771D01*
X128017866Y-96497771D02*
X127922628Y-96450152D01*
X127922628Y-96450152D02*
X127732152Y-96450152D01*
X127732152Y-96450152D02*
X127636914Y-96497771D01*
X128065485Y-97069200D02*
X127970247Y-97116819D01*
X127970247Y-97116819D02*
X127732152Y-97116819D01*
X127732152Y-97116819D02*
X127636914Y-97069200D01*
X127636914Y-97069200D02*
X127589295Y-96973961D01*
X127589295Y-96973961D02*
X127589295Y-96878723D01*
X127589295Y-96878723D02*
X127636914Y-96783485D01*
X127636914Y-96783485D02*
X127732152Y-96735866D01*
X127732152Y-96735866D02*
X127970247Y-96735866D01*
X127970247Y-96735866D02*
X128065485Y-96688247D01*
X129255962Y-96831104D02*
X129732152Y-96831104D01*
X129160724Y-97116819D02*
X129494057Y-96116819D01*
X129494057Y-96116819D02*
X129827390Y-97116819D01*
X130160724Y-97116819D02*
X130160724Y-96450152D01*
X130160724Y-96640628D02*
X130208343Y-96545390D01*
X130208343Y-96545390D02*
X130255962Y-96497771D01*
X130255962Y-96497771D02*
X130351200Y-96450152D01*
X130351200Y-96450152D02*
X130446438Y-96450152D01*
X131160724Y-97069200D02*
X131065486Y-97116819D01*
X131065486Y-97116819D02*
X130875010Y-97116819D01*
X130875010Y-97116819D02*
X130779772Y-97069200D01*
X130779772Y-97069200D02*
X130732153Y-96973961D01*
X130732153Y-96973961D02*
X130732153Y-96593009D01*
X130732153Y-96593009D02*
X130779772Y-96497771D01*
X130779772Y-96497771D02*
X130875010Y-96450152D01*
X130875010Y-96450152D02*
X131065486Y-96450152D01*
X131065486Y-96450152D02*
X131160724Y-96497771D01*
X131160724Y-96497771D02*
X131208343Y-96593009D01*
X131208343Y-96593009D02*
X131208343Y-96688247D01*
X131208343Y-96688247D02*
X130732153Y-96783485D01*
X132065486Y-97116819D02*
X132065486Y-96593009D01*
X132065486Y-96593009D02*
X132017867Y-96497771D01*
X132017867Y-96497771D02*
X131922629Y-96450152D01*
X131922629Y-96450152D02*
X131732153Y-96450152D01*
X131732153Y-96450152D02*
X131636915Y-96497771D01*
X132065486Y-97069200D02*
X131970248Y-97116819D01*
X131970248Y-97116819D02*
X131732153Y-97116819D01*
X131732153Y-97116819D02*
X131636915Y-97069200D01*
X131636915Y-97069200D02*
X131589296Y-96973961D01*
X131589296Y-96973961D02*
X131589296Y-96878723D01*
X131589296Y-96878723D02*
X131636915Y-96783485D01*
X131636915Y-96783485D02*
X131732153Y-96735866D01*
X131732153Y-96735866D02*
X131970248Y-96735866D01*
X131970248Y-96735866D02*
X132065486Y-96688247D01*
X151590333Y-68921880D02*
X151590333Y-68207595D01*
X151590333Y-68207595D02*
X151637952Y-68064738D01*
X151637952Y-68064738D02*
X151733190Y-67969500D01*
X151733190Y-67969500D02*
X151876047Y-67921880D01*
X151876047Y-67921880D02*
X151971285Y-67921880D01*
X150685571Y-68588547D02*
X150685571Y-67921880D01*
X150923666Y-68969500D02*
X151161761Y-68255214D01*
X151161761Y-68255214D02*
X150542714Y-68255214D01*
X152539300Y-82665219D02*
X152539300Y-82903314D01*
X152301205Y-82808076D02*
X152539300Y-82903314D01*
X152539300Y-82903314D02*
X152777395Y-82808076D01*
X152396443Y-83093790D02*
X152539300Y-82903314D01*
X152539300Y-82903314D02*
X152682157Y-83093790D01*
X169029142Y-98530580D02*
X168981523Y-98578200D01*
X168981523Y-98578200D02*
X168838666Y-98625819D01*
X168838666Y-98625819D02*
X168743428Y-98625819D01*
X168743428Y-98625819D02*
X168600571Y-98578200D01*
X168600571Y-98578200D02*
X168505333Y-98482961D01*
X168505333Y-98482961D02*
X168457714Y-98387723D01*
X168457714Y-98387723D02*
X168410095Y-98197247D01*
X168410095Y-98197247D02*
X168410095Y-98054390D01*
X168410095Y-98054390D02*
X168457714Y-97863914D01*
X168457714Y-97863914D02*
X168505333Y-97768676D01*
X168505333Y-97768676D02*
X168600571Y-97673438D01*
X168600571Y-97673438D02*
X168743428Y-97625819D01*
X168743428Y-97625819D02*
X168838666Y-97625819D01*
X168838666Y-97625819D02*
X168981523Y-97673438D01*
X168981523Y-97673438D02*
X169029142Y-97721057D01*
X169410095Y-97721057D02*
X169457714Y-97673438D01*
X169457714Y-97673438D02*
X169552952Y-97625819D01*
X169552952Y-97625819D02*
X169791047Y-97625819D01*
X169791047Y-97625819D02*
X169886285Y-97673438D01*
X169886285Y-97673438D02*
X169933904Y-97721057D01*
X169933904Y-97721057D02*
X169981523Y-97816295D01*
X169981523Y-97816295D02*
X169981523Y-97911533D01*
X169981523Y-97911533D02*
X169933904Y-98054390D01*
X169933904Y-98054390D02*
X169362476Y-98625819D01*
X169362476Y-98625819D02*
X169981523Y-98625819D01*
X170552952Y-98054390D02*
X170457714Y-98006771D01*
X170457714Y-98006771D02*
X170410095Y-97959152D01*
X170410095Y-97959152D02*
X170362476Y-97863914D01*
X170362476Y-97863914D02*
X170362476Y-97816295D01*
X170362476Y-97816295D02*
X170410095Y-97721057D01*
X170410095Y-97721057D02*
X170457714Y-97673438D01*
X170457714Y-97673438D02*
X170552952Y-97625819D01*
X170552952Y-97625819D02*
X170743428Y-97625819D01*
X170743428Y-97625819D02*
X170838666Y-97673438D01*
X170838666Y-97673438D02*
X170886285Y-97721057D01*
X170886285Y-97721057D02*
X170933904Y-97816295D01*
X170933904Y-97816295D02*
X170933904Y-97863914D01*
X170933904Y-97863914D02*
X170886285Y-97959152D01*
X170886285Y-97959152D02*
X170838666Y-98006771D01*
X170838666Y-98006771D02*
X170743428Y-98054390D01*
X170743428Y-98054390D02*
X170552952Y-98054390D01*
X170552952Y-98054390D02*
X170457714Y-98102009D01*
X170457714Y-98102009D02*
X170410095Y-98149628D01*
X170410095Y-98149628D02*
X170362476Y-98244866D01*
X170362476Y-98244866D02*
X170362476Y-98435342D01*
X170362476Y-98435342D02*
X170410095Y-98530580D01*
X170410095Y-98530580D02*
X170457714Y-98578200D01*
X170457714Y-98578200D02*
X170552952Y-98625819D01*
X170552952Y-98625819D02*
X170743428Y-98625819D01*
X170743428Y-98625819D02*
X170838666Y-98578200D01*
X170838666Y-98578200D02*
X170886285Y-98530580D01*
X170886285Y-98530580D02*
X170933904Y-98435342D01*
X170933904Y-98435342D02*
X170933904Y-98244866D01*
X170933904Y-98244866D02*
X170886285Y-98149628D01*
X170886285Y-98149628D02*
X170838666Y-98102009D01*
X170838666Y-98102009D02*
X170743428Y-98054390D01*
X158413450Y-82665219D02*
X158413450Y-82903314D01*
X158175355Y-82808076D02*
X158413450Y-82903314D01*
X158413450Y-82903314D02*
X158651545Y-82808076D01*
X158270593Y-83093790D02*
X158413450Y-82903314D01*
X158413450Y-82903314D02*
X158556307Y-83093790D01*
X188634666Y-75237180D02*
X189110856Y-75237180D01*
X189110856Y-75237180D02*
X189110856Y-76237180D01*
X187777523Y-75237180D02*
X188348951Y-75237180D01*
X188063237Y-75237180D02*
X188063237Y-76237180D01*
X188063237Y-76237180D02*
X188158475Y-76094323D01*
X188158475Y-76094323D02*
X188253713Y-75999085D01*
X188253713Y-75999085D02*
X188348951Y-75951466D01*
X199666266Y-63412019D02*
X199666266Y-64126304D01*
X199666266Y-64126304D02*
X199618647Y-64269161D01*
X199618647Y-64269161D02*
X199523409Y-64364400D01*
X199523409Y-64364400D02*
X199380552Y-64412019D01*
X199380552Y-64412019D02*
X199285314Y-64412019D01*
X200047219Y-63412019D02*
X200666266Y-63412019D01*
X200666266Y-63412019D02*
X200332933Y-63792971D01*
X200332933Y-63792971D02*
X200475790Y-63792971D01*
X200475790Y-63792971D02*
X200571028Y-63840590D01*
X200571028Y-63840590D02*
X200618647Y-63888209D01*
X200618647Y-63888209D02*
X200666266Y-63983447D01*
X200666266Y-63983447D02*
X200666266Y-64221542D01*
X200666266Y-64221542D02*
X200618647Y-64316780D01*
X200618647Y-64316780D02*
X200571028Y-64364400D01*
X200571028Y-64364400D02*
X200475790Y-64412019D01*
X200475790Y-64412019D02*
X200190076Y-64412019D01*
X200190076Y-64412019D02*
X200094838Y-64364400D01*
X200094838Y-64364400D02*
X200047219Y-64316780D01*
X187825142Y-89005580D02*
X187777523Y-89053200D01*
X187777523Y-89053200D02*
X187634666Y-89100819D01*
X187634666Y-89100819D02*
X187539428Y-89100819D01*
X187539428Y-89100819D02*
X187396571Y-89053200D01*
X187396571Y-89053200D02*
X187301333Y-88957961D01*
X187301333Y-88957961D02*
X187253714Y-88862723D01*
X187253714Y-88862723D02*
X187206095Y-88672247D01*
X187206095Y-88672247D02*
X187206095Y-88529390D01*
X187206095Y-88529390D02*
X187253714Y-88338914D01*
X187253714Y-88338914D02*
X187301333Y-88243676D01*
X187301333Y-88243676D02*
X187396571Y-88148438D01*
X187396571Y-88148438D02*
X187539428Y-88100819D01*
X187539428Y-88100819D02*
X187634666Y-88100819D01*
X187634666Y-88100819D02*
X187777523Y-88148438D01*
X187777523Y-88148438D02*
X187825142Y-88196057D01*
X188777523Y-89100819D02*
X188206095Y-89100819D01*
X188491809Y-89100819D02*
X188491809Y-88100819D01*
X188491809Y-88100819D02*
X188396571Y-88243676D01*
X188396571Y-88243676D02*
X188301333Y-88338914D01*
X188301333Y-88338914D02*
X188206095Y-88386533D01*
X189253714Y-89100819D02*
X189444190Y-89100819D01*
X189444190Y-89100819D02*
X189539428Y-89053200D01*
X189539428Y-89053200D02*
X189587047Y-89005580D01*
X189587047Y-89005580D02*
X189682285Y-88862723D01*
X189682285Y-88862723D02*
X189729904Y-88672247D01*
X189729904Y-88672247D02*
X189729904Y-88291295D01*
X189729904Y-88291295D02*
X189682285Y-88196057D01*
X189682285Y-88196057D02*
X189634666Y-88148438D01*
X189634666Y-88148438D02*
X189539428Y-88100819D01*
X189539428Y-88100819D02*
X189348952Y-88100819D01*
X189348952Y-88100819D02*
X189253714Y-88148438D01*
X189253714Y-88148438D02*
X189206095Y-88196057D01*
X189206095Y-88196057D02*
X189158476Y-88291295D01*
X189158476Y-88291295D02*
X189158476Y-88529390D01*
X189158476Y-88529390D02*
X189206095Y-88624628D01*
X189206095Y-88624628D02*
X189253714Y-88672247D01*
X189253714Y-88672247D02*
X189348952Y-88719866D01*
X189348952Y-88719866D02*
X189539428Y-88719866D01*
X189539428Y-88719866D02*
X189634666Y-88672247D01*
X189634666Y-88672247D02*
X189682285Y-88624628D01*
X189682285Y-88624628D02*
X189729904Y-88529390D01*
X182697333Y-64426180D02*
X182697333Y-63711895D01*
X182697333Y-63711895D02*
X182744952Y-63569038D01*
X182744952Y-63569038D02*
X182840190Y-63473800D01*
X182840190Y-63473800D02*
X182983047Y-63426180D01*
X182983047Y-63426180D02*
X183078285Y-63426180D01*
X182221142Y-63426180D02*
X182221142Y-64426180D01*
X182221142Y-64426180D02*
X181840190Y-64426180D01*
X181840190Y-64426180D02*
X181744952Y-64378561D01*
X181744952Y-64378561D02*
X181697333Y-64330942D01*
X181697333Y-64330942D02*
X181649714Y-64235704D01*
X181649714Y-64235704D02*
X181649714Y-64092847D01*
X181649714Y-64092847D02*
X181697333Y-63997609D01*
X181697333Y-63997609D02*
X181744952Y-63949990D01*
X181744952Y-63949990D02*
X181840190Y-63902371D01*
X181840190Y-63902371D02*
X182221142Y-63902371D01*
X180697333Y-63426180D02*
X181268761Y-63426180D01*
X180983047Y-63426180D02*
X180983047Y-64426180D01*
X180983047Y-64426180D02*
X181078285Y-64283323D01*
X181078285Y-64283323D02*
X181173523Y-64188085D01*
X181173523Y-64188085D02*
X181268761Y-64140466D01*
X179546285Y-60124180D02*
X180117713Y-60124180D01*
X179831999Y-60124180D02*
X179831999Y-61124180D01*
X179831999Y-61124180D02*
X179927237Y-60981323D01*
X179927237Y-60981323D02*
X180022475Y-60886085D01*
X180022475Y-60886085D02*
X180117713Y-60838466D01*
X169029142Y-89513580D02*
X168981523Y-89561200D01*
X168981523Y-89561200D02*
X168838666Y-89608819D01*
X168838666Y-89608819D02*
X168743428Y-89608819D01*
X168743428Y-89608819D02*
X168600571Y-89561200D01*
X168600571Y-89561200D02*
X168505333Y-89465961D01*
X168505333Y-89465961D02*
X168457714Y-89370723D01*
X168457714Y-89370723D02*
X168410095Y-89180247D01*
X168410095Y-89180247D02*
X168410095Y-89037390D01*
X168410095Y-89037390D02*
X168457714Y-88846914D01*
X168457714Y-88846914D02*
X168505333Y-88751676D01*
X168505333Y-88751676D02*
X168600571Y-88656438D01*
X168600571Y-88656438D02*
X168743428Y-88608819D01*
X168743428Y-88608819D02*
X168838666Y-88608819D01*
X168838666Y-88608819D02*
X168981523Y-88656438D01*
X168981523Y-88656438D02*
X169029142Y-88704057D01*
X169981523Y-89608819D02*
X169410095Y-89608819D01*
X169695809Y-89608819D02*
X169695809Y-88608819D01*
X169695809Y-88608819D02*
X169600571Y-88751676D01*
X169600571Y-88751676D02*
X169505333Y-88846914D01*
X169505333Y-88846914D02*
X169410095Y-88894533D01*
X170552952Y-89037390D02*
X170457714Y-88989771D01*
X170457714Y-88989771D02*
X170410095Y-88942152D01*
X170410095Y-88942152D02*
X170362476Y-88846914D01*
X170362476Y-88846914D02*
X170362476Y-88799295D01*
X170362476Y-88799295D02*
X170410095Y-88704057D01*
X170410095Y-88704057D02*
X170457714Y-88656438D01*
X170457714Y-88656438D02*
X170552952Y-88608819D01*
X170552952Y-88608819D02*
X170743428Y-88608819D01*
X170743428Y-88608819D02*
X170838666Y-88656438D01*
X170838666Y-88656438D02*
X170886285Y-88704057D01*
X170886285Y-88704057D02*
X170933904Y-88799295D01*
X170933904Y-88799295D02*
X170933904Y-88846914D01*
X170933904Y-88846914D02*
X170886285Y-88942152D01*
X170886285Y-88942152D02*
X170838666Y-88989771D01*
X170838666Y-88989771D02*
X170743428Y-89037390D01*
X170743428Y-89037390D02*
X170552952Y-89037390D01*
X170552952Y-89037390D02*
X170457714Y-89085009D01*
X170457714Y-89085009D02*
X170410095Y-89132628D01*
X170410095Y-89132628D02*
X170362476Y-89227866D01*
X170362476Y-89227866D02*
X170362476Y-89418342D01*
X170362476Y-89418342D02*
X170410095Y-89513580D01*
X170410095Y-89513580D02*
X170457714Y-89561200D01*
X170457714Y-89561200D02*
X170552952Y-89608819D01*
X170552952Y-89608819D02*
X170743428Y-89608819D01*
X170743428Y-89608819D02*
X170838666Y-89561200D01*
X170838666Y-89561200D02*
X170886285Y-89513580D01*
X170886285Y-89513580D02*
X170933904Y-89418342D01*
X170933904Y-89418342D02*
X170933904Y-89227866D01*
X170933904Y-89227866D02*
X170886285Y-89132628D01*
X170886285Y-89132628D02*
X170838666Y-89085009D01*
X170838666Y-89085009D02*
X170743428Y-89037390D01*
X158619866Y-89091419D02*
X158619866Y-89805704D01*
X158619866Y-89805704D02*
X158572247Y-89948561D01*
X158572247Y-89948561D02*
X158477009Y-90043800D01*
X158477009Y-90043800D02*
X158334152Y-90091419D01*
X158334152Y-90091419D02*
X158238914Y-90091419D01*
X159000819Y-89091419D02*
X159667485Y-89091419D01*
X159667485Y-89091419D02*
X159238914Y-90091419D01*
X181609999Y-71766780D02*
X181609999Y-71528685D01*
X181848094Y-71623923D02*
X181609999Y-71528685D01*
X181609999Y-71528685D02*
X181371904Y-71623923D01*
X181752856Y-71338209D02*
X181609999Y-71528685D01*
X181609999Y-71528685D02*
X181467142Y-71338209D01*
X181610000Y-70676419D02*
X181610000Y-70914514D01*
X181371905Y-70819276D02*
X181610000Y-70914514D01*
X181610000Y-70914514D02*
X181848095Y-70819276D01*
X181467143Y-71104990D02*
X181610000Y-70914514D01*
X181610000Y-70914514D02*
X181752857Y-71104990D01*
X171729495Y-64351819D02*
X171729495Y-65161342D01*
X171729495Y-65161342D02*
X171777114Y-65256580D01*
X171777114Y-65256580D02*
X171824733Y-65304200D01*
X171824733Y-65304200D02*
X171919971Y-65351819D01*
X171919971Y-65351819D02*
X172110447Y-65351819D01*
X172110447Y-65351819D02*
X172205685Y-65304200D01*
X172205685Y-65304200D02*
X172253304Y-65256580D01*
X172253304Y-65256580D02*
X172300923Y-65161342D01*
X172300923Y-65161342D02*
X172300923Y-64351819D01*
X173205685Y-64351819D02*
X173015209Y-64351819D01*
X173015209Y-64351819D02*
X172919971Y-64399438D01*
X172919971Y-64399438D02*
X172872352Y-64447057D01*
X172872352Y-64447057D02*
X172777114Y-64589914D01*
X172777114Y-64589914D02*
X172729495Y-64780390D01*
X172729495Y-64780390D02*
X172729495Y-65161342D01*
X172729495Y-65161342D02*
X172777114Y-65256580D01*
X172777114Y-65256580D02*
X172824733Y-65304200D01*
X172824733Y-65304200D02*
X172919971Y-65351819D01*
X172919971Y-65351819D02*
X173110447Y-65351819D01*
X173110447Y-65351819D02*
X173205685Y-65304200D01*
X173205685Y-65304200D02*
X173253304Y-65256580D01*
X173253304Y-65256580D02*
X173300923Y-65161342D01*
X173300923Y-65161342D02*
X173300923Y-64923247D01*
X173300923Y-64923247D02*
X173253304Y-64828009D01*
X173253304Y-64828009D02*
X173205685Y-64780390D01*
X173205685Y-64780390D02*
X173110447Y-64732771D01*
X173110447Y-64732771D02*
X172919971Y-64732771D01*
X172919971Y-64732771D02*
X172824733Y-64780390D01*
X172824733Y-64780390D02*
X172777114Y-64828009D01*
X172777114Y-64828009D02*
X172729495Y-64923247D01*
D13*
%TO.C,J1*%
X141786800Y-64206800D02*
X141786800Y-62936800D01*
X141786800Y-59990400D02*
X141786400Y-58872800D01*
X132846400Y-64206800D02*
X132846000Y-62936800D01*
X132846000Y-59990400D02*
X132846400Y-58872800D01*
D10*
X140616400Y-67372800D02*
G75*
G03*
X140416400Y-67372800I-100000J0D01*
G01*
X140416400Y-67372800D02*
G75*
G03*
X140616400Y-67372800I100000J0D01*
G01*
D14*
%TO.C,U7*%
X127050800Y-65468500D02*
X127050800Y-67119500D01*
X128064260Y-65468500D02*
X127050800Y-65468500D01*
X128331041Y-67119500D02*
X129021759Y-67119500D01*
X130302000Y-65468500D02*
X129288540Y-65468500D01*
X130302000Y-67119500D02*
X130302000Y-65468500D01*
X127795100Y-68656200D02*
G75*
G03*
X127642700Y-68656200I-76200J0D01*
G01*
X127642700Y-68656200D02*
G75*
G03*
X127795100Y-68656200I76200J0D01*
G01*
D13*
%TO.C,RN8*%
X116114400Y-75338200D02*
X114314400Y-75338200D01*
X114314400Y-71880200D02*
X116114400Y-71880200D01*
D10*
X117464400Y-75009200D02*
G75*
G03*
X117264400Y-75009200I-100000J0D01*
G01*
X117264400Y-75009200D02*
G75*
G03*
X117464400Y-75009200I100000J0D01*
G01*
D13*
%TO.C,RN7*%
X161749000Y-80278400D02*
X161749000Y-82078400D01*
X158291000Y-82078400D02*
X158291000Y-80278400D01*
D10*
X161520000Y-79028400D02*
G75*
G03*
X161320000Y-79028400I-100000J0D01*
G01*
X161320000Y-79028400D02*
G75*
G03*
X161520000Y-79028400I100000J0D01*
G01*
D13*
%TO.C,RN6*%
X150166600Y-80278400D02*
X150166600Y-82078400D01*
X146708600Y-82078400D02*
X146708600Y-80278400D01*
D10*
X149937600Y-79028400D02*
G75*
G03*
X149737600Y-79028400I-100000J0D01*
G01*
X149737600Y-79028400D02*
G75*
G03*
X149937600Y-79028400I100000J0D01*
G01*
D13*
%TO.C,RN5*%
X141870000Y-82628000D02*
X140070000Y-82628000D01*
X140070000Y-79170000D02*
X141870000Y-79170000D01*
D10*
X143220000Y-82299000D02*
G75*
G03*
X143020000Y-82299000I-100000J0D01*
G01*
X143020000Y-82299000D02*
G75*
G03*
X143220000Y-82299000I100000J0D01*
G01*
D13*
%TO.C,RN4*%
X124157000Y-66359200D02*
X124157000Y-68159200D01*
X120699000Y-68159200D02*
X120699000Y-66359200D01*
D10*
X123928000Y-65109200D02*
G75*
G03*
X123728000Y-65109200I-100000J0D01*
G01*
X123728000Y-65109200D02*
G75*
G03*
X123928000Y-65109200I100000J0D01*
G01*
D13*
%TO.C,RN3*%
X155907000Y-80278400D02*
X155907000Y-82078400D01*
X152449000Y-82078400D02*
X152449000Y-80278400D01*
D10*
X155678000Y-79028400D02*
G75*
G03*
X155478000Y-79028400I-100000J0D01*
G01*
X155478000Y-79028400D02*
G75*
G03*
X155678000Y-79028400I100000J0D01*
G01*
D13*
%TO.C,RN2*%
X138447200Y-85520000D02*
X140247200Y-85520000D01*
X140247200Y-88978000D02*
X138447200Y-88978000D01*
D10*
X137297200Y-85849000D02*
G75*
G03*
X137097200Y-85849000I-100000J0D01*
G01*
X137097200Y-85849000D02*
G75*
G03*
X137297200Y-85849000I100000J0D01*
G01*
D13*
%TO.C,RN1*%
X128268200Y-71766000D02*
X128268200Y-69966000D01*
X131726200Y-69966000D02*
X131726200Y-71766000D01*
D10*
X128697200Y-73016000D02*
G75*
G03*
X128497200Y-73016000I-100000J0D01*
G01*
X128497200Y-73016000D02*
G75*
G03*
X128697200Y-73016000I100000J0D01*
G01*
D14*
%TO.C,J2*%
X210693000Y-83616800D02*
X221107000Y-83616800D01*
X221107000Y-83616800D02*
X221107000Y-67716400D01*
X210693000Y-67716400D02*
X210693000Y-83616800D01*
X212431754Y-67716400D02*
X210693000Y-67716400D01*
X217431754Y-67716400D02*
X213908248Y-67716400D01*
X221107000Y-67716400D02*
X218908248Y-67716400D01*
D15*
X213551001Y-84251800D02*
G75*
G03*
X212789001Y-84251800I-381000J0D01*
G01*
X212789001Y-84251800D02*
G75*
G03*
X213551001Y-84251800I381000J0D01*
G01*
D16*
%TO.C,C22*%
X160323620Y-94892400D02*
X160604780Y-94892400D01*
X160323620Y-95912400D02*
X160604780Y-95912400D01*
%TO.C,C11*%
X153261600Y-97981380D02*
X153261600Y-97700220D01*
X154281600Y-97981380D02*
X154281600Y-97700220D01*
%TO.C,R12*%
X149464500Y-98039458D02*
X149464500Y-97564942D01*
X150509500Y-98039458D02*
X150509500Y-97564942D01*
%TO.C,R15*%
X150181542Y-87717100D02*
X150656058Y-87717100D01*
X150181542Y-88762100D02*
X150656058Y-88762100D01*
%TO.C,R21*%
X174360100Y-71644742D02*
X174360100Y-72119258D01*
X173315100Y-71644742D02*
X173315100Y-72119258D01*
D14*
%TO.C,CR1*%
X147293801Y-86664800D02*
X149249601Y-86664800D01*
X149249601Y-83312000D02*
X147293801Y-83312000D01*
D16*
%TO.C,D3*%
X188840000Y-62634000D02*
X184540000Y-62634000D01*
X188840000Y-62634000D02*
X188840000Y-68444000D01*
X184540000Y-62634000D02*
X184540000Y-68444000D01*
%TO.C,F1*%
X142642000Y-75345936D02*
X142642000Y-76800064D01*
X140822000Y-75345936D02*
X140822000Y-76800064D01*
%TO.C,C24*%
X168550000Y-75234748D02*
X168550000Y-76657252D01*
X166730000Y-75234748D02*
X166730000Y-76657252D01*
%TO.C,C15*%
X197916748Y-70776000D02*
X199339252Y-70776000D01*
X197916748Y-73496000D02*
X199339252Y-73496000D01*
%TO.C,C13*%
X159954000Y-92330380D02*
X159954000Y-92049220D01*
X160974000Y-92330380D02*
X160974000Y-92049220D01*
%TO.C,D1*%
X127631600Y-62396000D02*
X127631600Y-64096000D01*
X127631600Y-62396000D02*
X130891600Y-62396000D01*
X127631600Y-64096000D02*
X130891600Y-64096000D01*
%TO.C,C4*%
X118680620Y-62228000D02*
X118961780Y-62228000D01*
X118680620Y-63248000D02*
X118961780Y-63248000D01*
%TO.C,C33*%
X125589420Y-70965600D02*
X125870580Y-70965600D01*
X125589420Y-71985600D02*
X125870580Y-71985600D01*
%TO.C,C8*%
X203059420Y-83945000D02*
X203340580Y-83945000D01*
X203059420Y-84965000D02*
X203340580Y-84965000D01*
%TO.C,U4*%
X177510000Y-94742000D02*
X177510000Y-96542000D01*
X177510000Y-94742000D02*
X177510000Y-93942000D01*
X180630000Y-94742000D02*
X180630000Y-95542000D01*
X180630000Y-94742000D02*
X180630000Y-93942000D01*
D10*
%TO.C,J6*%
X208646000Y-91988000D02*
X217346000Y-91988000D01*
X222646000Y-89888000D02*
X222646000Y-84288000D01*
X208646000Y-84288000D02*
X208646000Y-91988000D01*
X222646000Y-84288000D02*
X208646000Y-84288000D01*
D16*
%TO.C,U5*%
X139053150Y-69867100D02*
X139053150Y-68067100D01*
X139053150Y-69867100D02*
X139053150Y-70667100D01*
X135933150Y-69867100D02*
X135933150Y-69067100D01*
X135933150Y-69867100D02*
X135933150Y-70667100D01*
%TO.C,R14*%
X154110458Y-88711300D02*
X153635942Y-88711300D01*
X154110458Y-87666300D02*
X153635942Y-87666300D01*
%TO.C,C37*%
X138940000Y-83171420D02*
X138940000Y-83452580D01*
X137920000Y-83171420D02*
X137920000Y-83452580D01*
%TO.C,R19*%
X158354500Y-92427058D02*
X158354500Y-91952542D01*
X159399500Y-92427058D02*
X159399500Y-91952542D01*
%TO.C,F3*%
X208132000Y-73371064D02*
X208132000Y-71916936D01*
X209952000Y-73371064D02*
X209952000Y-71916936D01*
D10*
%TO.C,L2*%
X160368000Y-74083000D02*
X160368000Y-72983000D01*
X165768000Y-74083000D02*
X165768000Y-72983000D01*
D17*
X163268000Y-77533000D02*
G75*
G03*
X162868000Y-77533000I-200000J0D01*
G01*
X162868000Y-77533000D02*
G75*
G03*
X163268000Y-77533000I200000J0D01*
G01*
D16*
%TO.C,C3*%
X123330580Y-63248000D02*
X123049420Y-63248000D01*
X123330580Y-62228000D02*
X123049420Y-62228000D01*
%TO.C,R7*%
X203470742Y-98029500D02*
X203945258Y-98029500D01*
X203470742Y-99074500D02*
X203945258Y-99074500D01*
%TO.C,R3*%
X133952700Y-70049342D02*
X133952700Y-70523858D01*
X132907700Y-70049342D02*
X132907700Y-70523858D01*
%TO.C,R2*%
X142080700Y-69562742D02*
X142080700Y-70037258D01*
X141035700Y-69562742D02*
X141035700Y-70037258D01*
%TO.C,R25*%
X178092263Y-89069000D02*
X179539737Y-89069000D01*
X178092263Y-91779000D02*
X179539737Y-91779000D01*
%TO.C,C20*%
X194068000Y-97506000D02*
X193068000Y-97506000D01*
X193568000Y-98006000D02*
X193568000Y-97006000D01*
X192828000Y-98291563D02*
X192828000Y-96506000D01*
X192828000Y-98291563D02*
X191763563Y-99356000D01*
X192828000Y-91700437D02*
X192828000Y-93486000D01*
X192828000Y-91700437D02*
X191763563Y-90636000D01*
X191763563Y-99356000D02*
X184108000Y-99356000D01*
X191763563Y-90636000D02*
X184108000Y-90636000D01*
X184108000Y-99356000D02*
X184108000Y-96506000D01*
X184108000Y-90636000D02*
X184108000Y-93486000D01*
%TO.C,R10*%
X155818100Y-97603542D02*
X155818100Y-98078058D01*
X154773100Y-97603542D02*
X154773100Y-98078058D01*
%TO.C,J5*%
X114808000Y-84905000D02*
X114173000Y-84905000D01*
X114808000Y-84270000D02*
X114808000Y-84905000D01*
%TO.C,U1*%
X136351200Y-99662000D02*
X136351200Y-92912000D01*
X136351200Y-99662000D02*
X118351200Y-99662000D01*
X136351200Y-74912000D02*
X136351200Y-74162000D01*
X136351200Y-74162000D02*
X135351200Y-74162000D01*
X118351200Y-99662000D02*
X118351200Y-92912000D01*
X118351200Y-93722000D02*
X136351200Y-93722000D01*
X118351200Y-74912000D02*
X118351200Y-74162000D01*
X118351200Y-74162000D02*
X119351200Y-74162000D01*
D14*
%TO.C,J4*%
X159156400Y-77469900D02*
X159156400Y-63782372D01*
X159156400Y-62811028D02*
X159156400Y-59283500D01*
X159156400Y-59283500D02*
X143357600Y-59283500D01*
X143357600Y-77469900D02*
X159156400Y-77469900D01*
X143357600Y-63782372D02*
X143357600Y-77469900D01*
X143357600Y-59283500D02*
X143357600Y-62811028D01*
D16*
%TO.C,R22*%
X114926342Y-69378300D02*
X115400858Y-69378300D01*
X114926342Y-70423300D02*
X115400858Y-70423300D01*
D14*
%TO.C,CR3*%
X153167950Y-86664800D02*
X155123750Y-86664800D01*
X155123750Y-83312000D02*
X153167950Y-83312000D01*
D16*
%TO.C,C9*%
X204204180Y-73560400D02*
X203923020Y-73560400D01*
X204204180Y-72540400D02*
X203923020Y-72540400D01*
%TO.C,R11*%
X148985500Y-97564942D02*
X148985500Y-98039458D01*
X147940500Y-97564942D02*
X147940500Y-98039458D01*
%TO.C,R18*%
X114977142Y-76693500D02*
X115451658Y-76693500D01*
X114977142Y-77738500D02*
X115451658Y-77738500D01*
%TO.C,C31*%
X141008980Y-92648200D02*
X140727820Y-92648200D01*
X141008980Y-91628200D02*
X140727820Y-91628200D01*
%TO.C,C39*%
X139078580Y-77980000D02*
X138797420Y-77980000D01*
X139078580Y-76960000D02*
X138797420Y-76960000D01*
D10*
%TO.C,U2*%
X197268000Y-89218000D02*
X207068000Y-89218000D01*
X197268000Y-97218000D02*
X197268000Y-89218000D01*
X197268000Y-97218000D02*
X207068000Y-97218000D01*
X207068000Y-97218000D02*
X207068000Y-89218000D01*
D18*
X196743000Y-90518000D02*
G75*
G03*
X196493000Y-90518000I-125000J0D01*
G01*
X196493000Y-90518000D02*
G75*
G03*
X196743000Y-90518000I125000J0D01*
G01*
D16*
%TO.C,C28*%
X175272000Y-97506000D02*
X174272000Y-97506000D01*
X174772000Y-98006000D02*
X174772000Y-97006000D01*
X174032000Y-98291563D02*
X174032000Y-96506000D01*
X174032000Y-98291563D02*
X172967563Y-99356000D01*
X174032000Y-91700437D02*
X174032000Y-93486000D01*
X174032000Y-91700437D02*
X172967563Y-90636000D01*
X172967563Y-99356000D02*
X165312000Y-99356000D01*
X172967563Y-90636000D02*
X165312000Y-90636000D01*
X165312000Y-99356000D02*
X165312000Y-96506000D01*
X165312000Y-90636000D02*
X165312000Y-93486000D01*
D14*
%TO.C,CR2*%
X159042100Y-86664800D02*
X160997900Y-86664800D01*
X160997900Y-83312000D02*
X159042100Y-83312000D01*
D16*
%TO.C,TH1*%
X209564500Y-97425742D02*
X209564500Y-97900258D01*
X208519500Y-97425742D02*
X208519500Y-97900258D01*
%TO.C,C35*%
X120536580Y-70461600D02*
X120255420Y-70461600D01*
X120536580Y-69441600D02*
X120255420Y-69441600D01*
%TO.C,C21*%
X183986000Y-66852748D02*
X183986000Y-68275252D01*
X181266000Y-66852748D02*
X181266000Y-68275252D01*
%TO.C,C14*%
X172823600Y-71741420D02*
X172823600Y-72022580D01*
X171803600Y-71741420D02*
X171803600Y-72022580D01*
%TO.C,R6*%
X118583942Y-63841100D02*
X119058458Y-63841100D01*
X118583942Y-64886100D02*
X119058458Y-64886100D01*
%TO.C,C25*%
X171090000Y-75234748D02*
X171090000Y-76657252D01*
X169270000Y-75234748D02*
X169270000Y-76657252D01*
%TO.C,C7*%
X198424748Y-83875200D02*
X199847252Y-83875200D01*
X198424748Y-85695200D02*
X199847252Y-85695200D01*
D10*
%TO.C,U3*%
X197268000Y-74740000D02*
X207068000Y-74740000D01*
X197268000Y-82740000D02*
X197268000Y-74740000D01*
X197268000Y-82740000D02*
X207068000Y-82740000D01*
X207068000Y-82740000D02*
X207068000Y-74740000D01*
D18*
X196743000Y-76040000D02*
G75*
G03*
X196493000Y-76040000I-125000J0D01*
G01*
X196493000Y-76040000D02*
G75*
G03*
X196743000Y-76040000I125000J0D01*
G01*
D16*
%TO.C,F4*%
X161578936Y-67416000D02*
X163033064Y-67416000D01*
X161578936Y-69236000D02*
X163033064Y-69236000D01*
%TO.C,C6*%
X200113020Y-98042000D02*
X200394180Y-98042000D01*
X200113020Y-99062000D02*
X200394180Y-99062000D01*
%TO.C,C32*%
X125589420Y-69441600D02*
X125870580Y-69441600D01*
X125589420Y-70461600D02*
X125870580Y-70461600D01*
%TO.C,R38*%
X140631142Y-90104700D02*
X141105658Y-90104700D01*
X140631142Y-91149700D02*
X141105658Y-91149700D01*
%TO.C,C23*%
X178599000Y-86309252D02*
X178599000Y-84886748D01*
X181319000Y-86309252D02*
X181319000Y-84886748D01*
D14*
%TO.C,L1*%
X194183000Y-80962500D02*
X194183000Y-77650340D01*
X194183000Y-73733660D02*
X194183000Y-70421500D01*
X194183000Y-70421500D02*
X182753000Y-70421500D01*
X182753000Y-80962500D02*
X194183000Y-80962500D01*
X182753000Y-77650340D02*
X182753000Y-80962500D01*
X182753000Y-70421500D02*
X182753000Y-73733660D01*
X195402200Y-75692000D02*
G75*
G03*
X195249800Y-75692000I-76200J0D01*
G01*
X195249800Y-75692000D02*
G75*
G03*
X195402200Y-75692000I76200J0D01*
G01*
D16*
%TO.C,R16*%
X182710858Y-62447700D02*
X182236342Y-62447700D01*
X182710858Y-61402700D02*
X182236342Y-61402700D01*
%TO.C,C40*%
X137970800Y-91529780D02*
X137970800Y-91248620D01*
X138990800Y-91529780D02*
X138990800Y-91248620D01*
%TO.C,C1*%
X135463150Y-70146020D02*
X135463150Y-70427180D01*
X134443150Y-70146020D02*
X134443150Y-70427180D01*
%TO.C,R4*%
X138698500Y-74184742D02*
X138698500Y-74659258D01*
X137653500Y-74184742D02*
X137653500Y-74659258D01*
%TO.C,C34*%
X120536580Y-71985600D02*
X120255420Y-71985600D01*
X120536580Y-70965600D02*
X120255420Y-70965600D01*
%TO.C,C38*%
X137920000Y-80023580D02*
X137920000Y-79742420D01*
X138940000Y-80023580D02*
X138940000Y-79742420D01*
%TO.C,C5*%
X203340580Y-88013000D02*
X203059420Y-88013000D01*
X203340580Y-86993000D02*
X203059420Y-86993000D01*
%TO.C,R8*%
X203437258Y-86501500D02*
X202962742Y-86501500D01*
X203437258Y-85456500D02*
X202962742Y-85456500D01*
%TO.C,C26*%
X169240252Y-72284000D02*
X167817748Y-72284000D01*
X169240252Y-70464000D02*
X167817748Y-70464000D01*
%TO.C,D2*%
X180567000Y-67590936D02*
X180567000Y-68045064D01*
X179097000Y-67590936D02*
X179097000Y-68045064D01*
%TO.C,C29*%
X130706400Y-66688580D02*
X130706400Y-66407420D01*
X131726400Y-66688580D02*
X131726400Y-66407420D01*
%TO.C,R20*%
X162574500Y-91952542D02*
X162574500Y-92427058D01*
X161529500Y-91952542D02*
X161529500Y-92427058D01*
%TO.C,R5*%
X140222500Y-74184742D02*
X140222500Y-74659258D01*
X139177500Y-74184742D02*
X139177500Y-74659258D01*
%TO.C,C30*%
X126646400Y-66407420D02*
X126646400Y-66688580D01*
X125626400Y-66407420D02*
X125626400Y-66688580D01*
%TO.C,C36*%
X140829420Y-83564000D02*
X141110580Y-83564000D01*
X140829420Y-84584000D02*
X141110580Y-84584000D01*
D13*
%TO.C,J3*%
X210033000Y-69541500D02*
X210033000Y-57541500D01*
X210033000Y-57541500D02*
X189763000Y-57541500D01*
X189763000Y-69541500D02*
X210033000Y-69541500D01*
X189763000Y-57541500D02*
X189763000Y-69541500D01*
D10*
X197453000Y-70041500D02*
G75*
G03*
X197253000Y-70041500I-100000J0D01*
G01*
X197253000Y-70041500D02*
G75*
G03*
X197453000Y-70041500I100000J0D01*
G01*
D16*
%TO.C,R13*%
X160701458Y-97448900D02*
X160226942Y-97448900D01*
X160701458Y-96403900D02*
X160226942Y-96403900D01*
%TO.C,C10*%
X198424748Y-86212000D02*
X199847252Y-86212000D01*
X198424748Y-88032000D02*
X199847252Y-88032000D01*
%TO.C,C17*%
X171868000Y-76657252D02*
X171868000Y-75234748D01*
X174588000Y-76657252D02*
X174588000Y-75234748D01*
%TO.C,C19*%
X194068000Y-88362000D02*
X193068000Y-88362000D01*
X193568000Y-88862000D02*
X193568000Y-87862000D01*
X192828000Y-89147563D02*
X192828000Y-87362000D01*
X192828000Y-89147563D02*
X191763563Y-90212000D01*
X192828000Y-82556437D02*
X192828000Y-84342000D01*
X192828000Y-82556437D02*
X191763563Y-81492000D01*
X191763563Y-90212000D02*
X184108000Y-90212000D01*
X191763563Y-81492000D02*
X184108000Y-81492000D01*
X184108000Y-90212000D02*
X184108000Y-87362000D01*
X184108000Y-81492000D02*
X184108000Y-84342000D01*
%TO.C,F2*%
X208233600Y-79727064D02*
X208233600Y-78272936D01*
X210053600Y-79727064D02*
X210053600Y-78272936D01*
%TO.C,JP1*%
X180467000Y-61341000D02*
X180467000Y-64135000D01*
X179197000Y-61341000D02*
X180467000Y-61341000D01*
X180467000Y-64135000D02*
X180213000Y-64135000D01*
X179451000Y-64135000D02*
X179197000Y-64135000D01*
X179197000Y-64135000D02*
X179197000Y-61341000D01*
X180467000Y-64770000D02*
X180467000Y-65659000D01*
X179197000Y-64770000D02*
X179197000Y-65659000D01*
X180467000Y-65659000D02*
X179197000Y-65659000D01*
%TO.C,C18*%
X175272000Y-88362000D02*
X174272000Y-88362000D01*
X174772000Y-88862000D02*
X174772000Y-87862000D01*
X174032000Y-89147563D02*
X174032000Y-87362000D01*
X174032000Y-89147563D02*
X172967563Y-90212000D01*
X174032000Y-82556437D02*
X174032000Y-84342000D01*
X174032000Y-82556437D02*
X172967563Y-81492000D01*
X172967563Y-90212000D02*
X165312000Y-90212000D01*
X172967563Y-81492000D02*
X165312000Y-81492000D01*
X165312000Y-90212000D02*
X165312000Y-87362000D01*
X165312000Y-81492000D02*
X165312000Y-84342000D01*
%TO.C,R9*%
X156297100Y-98078058D02*
X156297100Y-97603542D01*
X157342100Y-98078058D02*
X157342100Y-97603542D01*
%TO.C,J7*%
X157840800Y-96069600D02*
X157840800Y-94819600D01*
X157550800Y-95779600D02*
X157550800Y-89809600D01*
X157550800Y-89809600D02*
X149930800Y-89809600D01*
X157540800Y-95769600D02*
X157540800Y-95019600D01*
X157540800Y-95019600D02*
X155740800Y-95019600D01*
X157540800Y-93519600D02*
X156790800Y-93519600D01*
X156790800Y-93519600D02*
X156790800Y-92179600D01*
X156590800Y-96069600D02*
X157840800Y-96069600D01*
X155740800Y-95769600D02*
X157540800Y-95769600D01*
X155740800Y-95019600D02*
X155740800Y-95769600D01*
X154240800Y-95769600D02*
X154240800Y-95019600D01*
X154240800Y-95019600D02*
X153240800Y-95019600D01*
X153740800Y-90569600D02*
X155730800Y-90569600D01*
X153240800Y-95769600D02*
X154240800Y-95769600D01*
X153240800Y-95019600D02*
X153240800Y-95769600D01*
X151740800Y-95769600D02*
X151740800Y-95019600D01*
X151740800Y-95019600D02*
X149940800Y-95019600D01*
X150690800Y-93519600D02*
X150690800Y-90569600D01*
X150690800Y-90569600D02*
X153740800Y-90569600D01*
X149940800Y-95769600D02*
X151740800Y-95769600D01*
X149940800Y-95019600D02*
X149940800Y-95769600D01*
X149940800Y-93519600D02*
X150690800Y-93519600D01*
X149930800Y-95779600D02*
X157550800Y-95779600D01*
X149930800Y-89809600D02*
X149930800Y-95779600D01*
D14*
%TO.C,Q1*%
X181063900Y-77190600D02*
X181063900Y-72466200D01*
X181063900Y-72466200D02*
X175806100Y-72466200D01*
X180825140Y-77190600D02*
X181063900Y-77190600D01*
X175806100Y-77190600D02*
X176044860Y-77190600D01*
X175806100Y-72466200D02*
X175806100Y-77190600D01*
D16*
%TO.C,R17*%
X161527258Y-78500500D02*
X161052742Y-78500500D01*
X161527258Y-77455500D02*
X161052742Y-77455500D01*
%TO.C,C2*%
X139523150Y-69940580D02*
X139523150Y-69659420D01*
X140543150Y-69940580D02*
X140543150Y-69659420D01*
%TO.C,C12*%
X146429000Y-97942780D02*
X146429000Y-97661620D01*
X147449000Y-97942780D02*
X147449000Y-97661620D01*
D14*
%TO.C,U6*%
X166649400Y-61239400D02*
X166649400Y-69113400D01*
X166649400Y-69113400D02*
X178333400Y-69113400D01*
X178333400Y-61239400D02*
X166649400Y-61239400D01*
X178333400Y-69113400D02*
X178333400Y-61239400D01*
D15*
X166395400Y-66827400D02*
G75*
G03*
X165633400Y-66827400I-381000J0D01*
G01*
X165633400Y-66827400D02*
G75*
G03*
X166395400Y-66827400I381000J0D01*
G01*
D16*
%TO.C,C27*%
X212600000Y-97535420D02*
X212600000Y-97816580D01*
X211580000Y-97535420D02*
X211580000Y-97816580D01*
%TO.C,R27*%
X211088500Y-97438742D02*
X211088500Y-97913258D01*
X210043500Y-97438742D02*
X210043500Y-97913258D01*
%TO.C,C16*%
X177391748Y-80301000D02*
X178814252Y-80301000D01*
X177391748Y-83021000D02*
X178814252Y-83021000D01*
%TD*%
M02*
