%TF.GenerationSoftware,KiCad,Pcbnew,7.0.10*%
%TF.CreationDate,2025-02-04T14:48:45+01:00*%
%TF.ProjectId,BugWiperPCB,42756757-6970-4657-9250-43422e6b6963,rev?*%
%TF.SameCoordinates,Original*%
%TF.FileFunction,Legend,Bot*%
%TF.FilePolarity,Positive*%
%FSLAX46Y46*%
G04 Gerber Fmt 4.6, Leading zero omitted, Abs format (unit mm)*
G04 Created by KiCad (PCBNEW 7.0.10) date 2025-02-04 14:48:45*
%MOMM*%
%LPD*%
G01*
G04 APERTURE LIST*
%ADD10C,0.200000*%
%ADD11C,0.250000*%
%ADD12C,0.125000*%
%ADD13C,0.625000*%
%ADD14C,0.150000*%
%ADD15C,0.508000*%
%ADD16C,0.120000*%
G04 APERTURE END LIST*
D10*
X216176600Y-68136381D02*
X216238504Y-68279238D01*
X216238504Y-68279238D02*
X216238504Y-68517333D01*
X216238504Y-68517333D02*
X216176600Y-68612571D01*
X216176600Y-68612571D02*
X216114695Y-68660190D01*
X216114695Y-68660190D02*
X215990885Y-68707809D01*
X215990885Y-68707809D02*
X215867076Y-68707809D01*
X215867076Y-68707809D02*
X215743266Y-68660190D01*
X215743266Y-68660190D02*
X215681361Y-68612571D01*
X215681361Y-68612571D02*
X215619457Y-68517333D01*
X215619457Y-68517333D02*
X215557552Y-68326857D01*
X215557552Y-68326857D02*
X215495647Y-68231619D01*
X215495647Y-68231619D02*
X215433742Y-68184000D01*
X215433742Y-68184000D02*
X215309933Y-68136381D01*
X215309933Y-68136381D02*
X215186123Y-68136381D01*
X215186123Y-68136381D02*
X215062314Y-68184000D01*
X215062314Y-68184000D02*
X215000409Y-68231619D01*
X215000409Y-68231619D02*
X214938504Y-68326857D01*
X214938504Y-68326857D02*
X214938504Y-68564952D01*
X214938504Y-68564952D02*
X215000409Y-68707809D01*
X216238504Y-69660190D02*
X216238504Y-69088762D01*
X216238504Y-69374476D02*
X214938504Y-69374476D01*
X214938504Y-69374476D02*
X215124219Y-69279238D01*
X215124219Y-69279238D02*
X215248028Y-69184000D01*
X215248028Y-69184000D02*
X215309933Y-69088762D01*
X216671838Y-70326857D02*
X214814695Y-70326857D01*
X215000409Y-71564952D02*
X214938504Y-71469714D01*
X214938504Y-71469714D02*
X214938504Y-71326857D01*
X214938504Y-71326857D02*
X215000409Y-71184000D01*
X215000409Y-71184000D02*
X215124219Y-71088762D01*
X215124219Y-71088762D02*
X215248028Y-71041143D01*
X215248028Y-71041143D02*
X215495647Y-70993524D01*
X215495647Y-70993524D02*
X215681361Y-70993524D01*
X215681361Y-70993524D02*
X215928980Y-71041143D01*
X215928980Y-71041143D02*
X216052790Y-71088762D01*
X216052790Y-71088762D02*
X216176600Y-71184000D01*
X216176600Y-71184000D02*
X216238504Y-71326857D01*
X216238504Y-71326857D02*
X216238504Y-71422095D01*
X216238504Y-71422095D02*
X216176600Y-71564952D01*
X216176600Y-71564952D02*
X216114695Y-71612571D01*
X216114695Y-71612571D02*
X215681361Y-71612571D01*
X215681361Y-71612571D02*
X215681361Y-71422095D01*
X216671838Y-72279238D02*
X214814695Y-72279238D01*
X215557552Y-72993524D02*
X215557552Y-73326857D01*
X216238504Y-73469714D02*
X216238504Y-72993524D01*
X216238504Y-72993524D02*
X214938504Y-72993524D01*
X214938504Y-72993524D02*
X214938504Y-73469714D01*
X216238504Y-74422095D02*
X216238504Y-73850667D01*
X216238504Y-74136381D02*
X214938504Y-74136381D01*
X214938504Y-74136381D02*
X215124219Y-74041143D01*
X215124219Y-74041143D02*
X215248028Y-73945905D01*
X215248028Y-73945905D02*
X215309933Y-73850667D01*
X216671838Y-75088762D02*
X214814695Y-75088762D01*
X215557552Y-75803048D02*
X215557552Y-76136381D01*
X216238504Y-76279238D02*
X216238504Y-75803048D01*
X216238504Y-75803048D02*
X214938504Y-75803048D01*
X214938504Y-75803048D02*
X214938504Y-76279238D01*
X215062314Y-76660191D02*
X215000409Y-76707810D01*
X215000409Y-76707810D02*
X214938504Y-76803048D01*
X214938504Y-76803048D02*
X214938504Y-77041143D01*
X214938504Y-77041143D02*
X215000409Y-77136381D01*
X215000409Y-77136381D02*
X215062314Y-77184000D01*
X215062314Y-77184000D02*
X215186123Y-77231619D01*
X215186123Y-77231619D02*
X215309933Y-77231619D01*
X215309933Y-77231619D02*
X215495647Y-77184000D01*
X215495647Y-77184000D02*
X216238504Y-76612572D01*
X216238504Y-76612572D02*
X216238504Y-77231619D01*
X216671838Y-77898286D02*
X214814695Y-77898286D01*
X215000409Y-79136381D02*
X214938504Y-79041143D01*
X214938504Y-79041143D02*
X214938504Y-78898286D01*
X214938504Y-78898286D02*
X215000409Y-78755429D01*
X215000409Y-78755429D02*
X215124219Y-78660191D01*
X215124219Y-78660191D02*
X215248028Y-78612572D01*
X215248028Y-78612572D02*
X215495647Y-78564953D01*
X215495647Y-78564953D02*
X215681361Y-78564953D01*
X215681361Y-78564953D02*
X215928980Y-78612572D01*
X215928980Y-78612572D02*
X216052790Y-78660191D01*
X216052790Y-78660191D02*
X216176600Y-78755429D01*
X216176600Y-78755429D02*
X216238504Y-78898286D01*
X216238504Y-78898286D02*
X216238504Y-78993524D01*
X216238504Y-78993524D02*
X216176600Y-79136381D01*
X216176600Y-79136381D02*
X216114695Y-79184000D01*
X216114695Y-79184000D02*
X215681361Y-79184000D01*
X215681361Y-79184000D02*
X215681361Y-78993524D01*
X216671838Y-79850667D02*
X214814695Y-79850667D01*
X215743266Y-80564953D02*
X215743266Y-81326858D01*
X216238504Y-80945905D02*
X215248028Y-80945905D01*
X214938504Y-81660191D02*
X216238504Y-81993524D01*
X216238504Y-81993524D02*
X214938504Y-82326857D01*
X211112552Y-74604904D02*
X211112552Y-74938237D01*
X211793504Y-75081094D02*
X211793504Y-74604904D01*
X211793504Y-74604904D02*
X210493504Y-74604904D01*
X210493504Y-74604904D02*
X210493504Y-75081094D01*
X210926838Y-75509666D02*
X211793504Y-75509666D01*
X211050647Y-75509666D02*
X210988742Y-75557285D01*
X210988742Y-75557285D02*
X210926838Y-75652523D01*
X210926838Y-75652523D02*
X210926838Y-75795380D01*
X210926838Y-75795380D02*
X210988742Y-75890618D01*
X210988742Y-75890618D02*
X211112552Y-75938237D01*
X211112552Y-75938237D02*
X211793504Y-75938237D01*
X211731600Y-76842999D02*
X211793504Y-76747761D01*
X211793504Y-76747761D02*
X211793504Y-76557285D01*
X211793504Y-76557285D02*
X211731600Y-76462047D01*
X211731600Y-76462047D02*
X211669695Y-76414428D01*
X211669695Y-76414428D02*
X211545885Y-76366809D01*
X211545885Y-76366809D02*
X211174457Y-76366809D01*
X211174457Y-76366809D02*
X211050647Y-76414428D01*
X211050647Y-76414428D02*
X210988742Y-76462047D01*
X210988742Y-76462047D02*
X210926838Y-76557285D01*
X210926838Y-76557285D02*
X210926838Y-76747761D01*
X210926838Y-76747761D02*
X210988742Y-76842999D01*
X211793504Y-77414428D02*
X211731600Y-77319190D01*
X211731600Y-77319190D02*
X211669695Y-77271571D01*
X211669695Y-77271571D02*
X211545885Y-77223952D01*
X211545885Y-77223952D02*
X211174457Y-77223952D01*
X211174457Y-77223952D02*
X211050647Y-77271571D01*
X211050647Y-77271571D02*
X210988742Y-77319190D01*
X210988742Y-77319190D02*
X210926838Y-77414428D01*
X210926838Y-77414428D02*
X210926838Y-77557285D01*
X210926838Y-77557285D02*
X210988742Y-77652523D01*
X210988742Y-77652523D02*
X211050647Y-77700142D01*
X211050647Y-77700142D02*
X211174457Y-77747761D01*
X211174457Y-77747761D02*
X211545885Y-77747761D01*
X211545885Y-77747761D02*
X211669695Y-77700142D01*
X211669695Y-77700142D02*
X211731600Y-77652523D01*
X211731600Y-77652523D02*
X211793504Y-77557285D01*
X211793504Y-77557285D02*
X211793504Y-77414428D01*
X211793504Y-78604904D02*
X210493504Y-78604904D01*
X211731600Y-78604904D02*
X211793504Y-78509666D01*
X211793504Y-78509666D02*
X211793504Y-78319190D01*
X211793504Y-78319190D02*
X211731600Y-78223952D01*
X211731600Y-78223952D02*
X211669695Y-78176333D01*
X211669695Y-78176333D02*
X211545885Y-78128714D01*
X211545885Y-78128714D02*
X211174457Y-78128714D01*
X211174457Y-78128714D02*
X211050647Y-78176333D01*
X211050647Y-78176333D02*
X210988742Y-78223952D01*
X210988742Y-78223952D02*
X210926838Y-78319190D01*
X210926838Y-78319190D02*
X210926838Y-78509666D01*
X210926838Y-78509666D02*
X210988742Y-78604904D01*
X211731600Y-79462047D02*
X211793504Y-79366809D01*
X211793504Y-79366809D02*
X211793504Y-79176333D01*
X211793504Y-79176333D02*
X211731600Y-79081095D01*
X211731600Y-79081095D02*
X211607790Y-79033476D01*
X211607790Y-79033476D02*
X211112552Y-79033476D01*
X211112552Y-79033476D02*
X210988742Y-79081095D01*
X210988742Y-79081095D02*
X210926838Y-79176333D01*
X210926838Y-79176333D02*
X210926838Y-79366809D01*
X210926838Y-79366809D02*
X210988742Y-79462047D01*
X210988742Y-79462047D02*
X211112552Y-79509666D01*
X211112552Y-79509666D02*
X211236361Y-79509666D01*
X211236361Y-79509666D02*
X211360171Y-79033476D01*
X211793504Y-79938238D02*
X210926838Y-79938238D01*
X211174457Y-79938238D02*
X211050647Y-79985857D01*
X211050647Y-79985857D02*
X210988742Y-80033476D01*
X210988742Y-80033476D02*
X210926838Y-80128714D01*
X210926838Y-80128714D02*
X210926838Y-80223952D01*
D11*
X191015428Y-68104333D02*
X191929714Y-68104333D01*
X191472571Y-67609095D02*
X191472571Y-68599571D01*
X193129713Y-67609095D02*
X192443999Y-67609095D01*
X192786856Y-67609095D02*
X192786856Y-68909095D01*
X192786856Y-68909095D02*
X192672570Y-68723380D01*
X192672570Y-68723380D02*
X192558285Y-68599571D01*
X192558285Y-68599571D02*
X192443999Y-68537666D01*
X193586856Y-68785285D02*
X193643999Y-68847190D01*
X193643999Y-68847190D02*
X193758285Y-68909095D01*
X193758285Y-68909095D02*
X194043999Y-68909095D01*
X194043999Y-68909095D02*
X194158285Y-68847190D01*
X194158285Y-68847190D02*
X194215427Y-68785285D01*
X194215427Y-68785285D02*
X194272570Y-68661476D01*
X194272570Y-68661476D02*
X194272570Y-68537666D01*
X194272570Y-68537666D02*
X194215427Y-68351952D01*
X194215427Y-68351952D02*
X193529713Y-67609095D01*
X193529713Y-67609095D02*
X194272570Y-67609095D01*
X194615427Y-68909095D02*
X195015427Y-67609095D01*
X195015427Y-67609095D02*
X195415427Y-68909095D01*
X199758285Y-67175761D02*
X199758285Y-69032904D01*
X205815429Y-68847190D02*
X205701144Y-68909095D01*
X205701144Y-68909095D02*
X205529715Y-68909095D01*
X205529715Y-68909095D02*
X205358286Y-68847190D01*
X205358286Y-68847190D02*
X205244001Y-68723380D01*
X205244001Y-68723380D02*
X205186858Y-68599571D01*
X205186858Y-68599571D02*
X205129715Y-68351952D01*
X205129715Y-68351952D02*
X205129715Y-68166238D01*
X205129715Y-68166238D02*
X205186858Y-67918619D01*
X205186858Y-67918619D02*
X205244001Y-67794809D01*
X205244001Y-67794809D02*
X205358286Y-67671000D01*
X205358286Y-67671000D02*
X205529715Y-67609095D01*
X205529715Y-67609095D02*
X205644001Y-67609095D01*
X205644001Y-67609095D02*
X205815429Y-67671000D01*
X205815429Y-67671000D02*
X205872572Y-67732904D01*
X205872572Y-67732904D02*
X205872572Y-68166238D01*
X205872572Y-68166238D02*
X205644001Y-68166238D01*
X206386858Y-67609095D02*
X206386858Y-68909095D01*
X206386858Y-68909095D02*
X207072572Y-67609095D01*
X207072572Y-67609095D02*
X207072572Y-68909095D01*
X207644001Y-67609095D02*
X207644001Y-68909095D01*
X207644001Y-68909095D02*
X207929715Y-68909095D01*
X207929715Y-68909095D02*
X208101144Y-68847190D01*
X208101144Y-68847190D02*
X208215429Y-68723380D01*
X208215429Y-68723380D02*
X208272572Y-68599571D01*
X208272572Y-68599571D02*
X208329715Y-68351952D01*
X208329715Y-68351952D02*
X208329715Y-68166238D01*
X208329715Y-68166238D02*
X208272572Y-67918619D01*
X208272572Y-67918619D02*
X208215429Y-67794809D01*
X208215429Y-67794809D02*
X208101144Y-67671000D01*
X208101144Y-67671000D02*
X207929715Y-67609095D01*
X207929715Y-67609095D02*
X207644001Y-67609095D01*
D10*
X118014904Y-62526495D02*
X117681571Y-63145542D01*
X117443476Y-62526495D02*
X117443476Y-63826495D01*
X117443476Y-63826495D02*
X117824428Y-63826495D01*
X117824428Y-63826495D02*
X117919666Y-63764590D01*
X117919666Y-63764590D02*
X117967285Y-63702685D01*
X117967285Y-63702685D02*
X118014904Y-63578876D01*
X118014904Y-63578876D02*
X118014904Y-63393161D01*
X118014904Y-63393161D02*
X117967285Y-63269352D01*
X117967285Y-63269352D02*
X117919666Y-63207447D01*
X117919666Y-63207447D02*
X117824428Y-63145542D01*
X117824428Y-63145542D02*
X117443476Y-63145542D01*
X118824428Y-62588400D02*
X118729190Y-62526495D01*
X118729190Y-62526495D02*
X118538714Y-62526495D01*
X118538714Y-62526495D02*
X118443476Y-62588400D01*
X118443476Y-62588400D02*
X118395857Y-62712209D01*
X118395857Y-62712209D02*
X118395857Y-63207447D01*
X118395857Y-63207447D02*
X118443476Y-63331257D01*
X118443476Y-63331257D02*
X118538714Y-63393161D01*
X118538714Y-63393161D02*
X118729190Y-63393161D01*
X118729190Y-63393161D02*
X118824428Y-63331257D01*
X118824428Y-63331257D02*
X118872047Y-63207447D01*
X118872047Y-63207447D02*
X118872047Y-63083638D01*
X118872047Y-63083638D02*
X118395857Y-62959828D01*
X119253000Y-62588400D02*
X119348238Y-62526495D01*
X119348238Y-62526495D02*
X119538714Y-62526495D01*
X119538714Y-62526495D02*
X119633952Y-62588400D01*
X119633952Y-62588400D02*
X119681571Y-62712209D01*
X119681571Y-62712209D02*
X119681571Y-62774114D01*
X119681571Y-62774114D02*
X119633952Y-62897923D01*
X119633952Y-62897923D02*
X119538714Y-62959828D01*
X119538714Y-62959828D02*
X119395857Y-62959828D01*
X119395857Y-62959828D02*
X119300619Y-63021733D01*
X119300619Y-63021733D02*
X119253000Y-63145542D01*
X119253000Y-63145542D02*
X119253000Y-63207447D01*
X119253000Y-63207447D02*
X119300619Y-63331257D01*
X119300619Y-63331257D02*
X119395857Y-63393161D01*
X119395857Y-63393161D02*
X119538714Y-63393161D01*
X119538714Y-63393161D02*
X119633952Y-63331257D01*
X120491095Y-62588400D02*
X120395857Y-62526495D01*
X120395857Y-62526495D02*
X120205381Y-62526495D01*
X120205381Y-62526495D02*
X120110143Y-62588400D01*
X120110143Y-62588400D02*
X120062524Y-62712209D01*
X120062524Y-62712209D02*
X120062524Y-63207447D01*
X120062524Y-63207447D02*
X120110143Y-63331257D01*
X120110143Y-63331257D02*
X120205381Y-63393161D01*
X120205381Y-63393161D02*
X120395857Y-63393161D01*
X120395857Y-63393161D02*
X120491095Y-63331257D01*
X120491095Y-63331257D02*
X120538714Y-63207447D01*
X120538714Y-63207447D02*
X120538714Y-63083638D01*
X120538714Y-63083638D02*
X120062524Y-62959828D01*
X120824429Y-63393161D02*
X121205381Y-63393161D01*
X120967286Y-63826495D02*
X120967286Y-62712209D01*
X120967286Y-62712209D02*
X121014905Y-62588400D01*
X121014905Y-62588400D02*
X121110143Y-62526495D01*
X121110143Y-62526495D02*
X121205381Y-62526495D01*
D11*
X214584904Y-85811000D02*
X213284904Y-85811000D01*
X213284904Y-85811000D02*
X214213476Y-86211000D01*
X214213476Y-86211000D02*
X213284904Y-86611000D01*
X213284904Y-86611000D02*
X214584904Y-86611000D01*
X214584904Y-87353857D02*
X214523000Y-87239572D01*
X214523000Y-87239572D02*
X214461095Y-87182429D01*
X214461095Y-87182429D02*
X214337285Y-87125286D01*
X214337285Y-87125286D02*
X213965857Y-87125286D01*
X213965857Y-87125286D02*
X213842047Y-87182429D01*
X213842047Y-87182429D02*
X213780142Y-87239572D01*
X213780142Y-87239572D02*
X213718238Y-87353857D01*
X213718238Y-87353857D02*
X213718238Y-87525286D01*
X213718238Y-87525286D02*
X213780142Y-87639572D01*
X213780142Y-87639572D02*
X213842047Y-87696715D01*
X213842047Y-87696715D02*
X213965857Y-87753857D01*
X213965857Y-87753857D02*
X214337285Y-87753857D01*
X214337285Y-87753857D02*
X214461095Y-87696715D01*
X214461095Y-87696715D02*
X214523000Y-87639572D01*
X214523000Y-87639572D02*
X214584904Y-87525286D01*
X214584904Y-87525286D02*
X214584904Y-87353857D01*
X213718238Y-88096714D02*
X213718238Y-88553857D01*
X213284904Y-88268143D02*
X214399190Y-88268143D01*
X214399190Y-88268143D02*
X214523000Y-88325286D01*
X214523000Y-88325286D02*
X214584904Y-88439571D01*
X214584904Y-88439571D02*
X214584904Y-88553857D01*
X214584904Y-89125285D02*
X214523000Y-89011000D01*
X214523000Y-89011000D02*
X214461095Y-88953857D01*
X214461095Y-88953857D02*
X214337285Y-88896714D01*
X214337285Y-88896714D02*
X213965857Y-88896714D01*
X213965857Y-88896714D02*
X213842047Y-88953857D01*
X213842047Y-88953857D02*
X213780142Y-89011000D01*
X213780142Y-89011000D02*
X213718238Y-89125285D01*
X213718238Y-89125285D02*
X213718238Y-89296714D01*
X213718238Y-89296714D02*
X213780142Y-89411000D01*
X213780142Y-89411000D02*
X213842047Y-89468143D01*
X213842047Y-89468143D02*
X213965857Y-89525285D01*
X213965857Y-89525285D02*
X214337285Y-89525285D01*
X214337285Y-89525285D02*
X214461095Y-89468143D01*
X214461095Y-89468143D02*
X214523000Y-89411000D01*
X214523000Y-89411000D02*
X214584904Y-89296714D01*
X214584904Y-89296714D02*
X214584904Y-89125285D01*
X214584904Y-90039571D02*
X213718238Y-90039571D01*
X213965857Y-90039571D02*
X213842047Y-90096714D01*
X213842047Y-90096714D02*
X213780142Y-90153857D01*
X213780142Y-90153857D02*
X213718238Y-90268142D01*
X213718238Y-90268142D02*
X213718238Y-90382428D01*
D10*
X133226657Y-68139895D02*
X133226657Y-69439895D01*
X133226657Y-69439895D02*
X133607609Y-69439895D01*
X133607609Y-69439895D02*
X133702847Y-69377990D01*
X133702847Y-69377990D02*
X133750466Y-69316085D01*
X133750466Y-69316085D02*
X133798085Y-69192276D01*
X133798085Y-69192276D02*
X133798085Y-69006561D01*
X133798085Y-69006561D02*
X133750466Y-68882752D01*
X133750466Y-68882752D02*
X133702847Y-68820847D01*
X133702847Y-68820847D02*
X133607609Y-68758942D01*
X133607609Y-68758942D02*
X133226657Y-68758942D01*
X134369514Y-68139895D02*
X134274276Y-68201800D01*
X134274276Y-68201800D02*
X134226657Y-68263704D01*
X134226657Y-68263704D02*
X134179038Y-68387514D01*
X134179038Y-68387514D02*
X134179038Y-68758942D01*
X134179038Y-68758942D02*
X134226657Y-68882752D01*
X134226657Y-68882752D02*
X134274276Y-68944657D01*
X134274276Y-68944657D02*
X134369514Y-69006561D01*
X134369514Y-69006561D02*
X134512371Y-69006561D01*
X134512371Y-69006561D02*
X134607609Y-68944657D01*
X134607609Y-68944657D02*
X134655228Y-68882752D01*
X134655228Y-68882752D02*
X134702847Y-68758942D01*
X134702847Y-68758942D02*
X134702847Y-68387514D01*
X134702847Y-68387514D02*
X134655228Y-68263704D01*
X134655228Y-68263704D02*
X134607609Y-68201800D01*
X134607609Y-68201800D02*
X134512371Y-68139895D01*
X134512371Y-68139895D02*
X134369514Y-68139895D01*
X135036181Y-69006561D02*
X135226657Y-68139895D01*
X135226657Y-68139895D02*
X135417133Y-68758942D01*
X135417133Y-68758942D02*
X135607609Y-68139895D01*
X135607609Y-68139895D02*
X135798085Y-69006561D01*
X136559990Y-68201800D02*
X136464752Y-68139895D01*
X136464752Y-68139895D02*
X136274276Y-68139895D01*
X136274276Y-68139895D02*
X136179038Y-68201800D01*
X136179038Y-68201800D02*
X136131419Y-68325609D01*
X136131419Y-68325609D02*
X136131419Y-68820847D01*
X136131419Y-68820847D02*
X136179038Y-68944657D01*
X136179038Y-68944657D02*
X136274276Y-69006561D01*
X136274276Y-69006561D02*
X136464752Y-69006561D01*
X136464752Y-69006561D02*
X136559990Y-68944657D01*
X136559990Y-68944657D02*
X136607609Y-68820847D01*
X136607609Y-68820847D02*
X136607609Y-68697038D01*
X136607609Y-68697038D02*
X136131419Y-68573228D01*
X137036181Y-68139895D02*
X137036181Y-69006561D01*
X137036181Y-68758942D02*
X137083800Y-68882752D01*
X137083800Y-68882752D02*
X137131419Y-68944657D01*
X137131419Y-68944657D02*
X137226657Y-69006561D01*
X137226657Y-69006561D02*
X137321895Y-69006561D01*
X138417134Y-69439895D02*
X138417134Y-68387514D01*
X138417134Y-68387514D02*
X138464753Y-68263704D01*
X138464753Y-68263704D02*
X138512372Y-68201800D01*
X138512372Y-68201800D02*
X138607610Y-68139895D01*
X138607610Y-68139895D02*
X138798086Y-68139895D01*
X138798086Y-68139895D02*
X138893324Y-68201800D01*
X138893324Y-68201800D02*
X138940943Y-68263704D01*
X138940943Y-68263704D02*
X138988562Y-68387514D01*
X138988562Y-68387514D02*
X138988562Y-69439895D01*
X139417134Y-68201800D02*
X139559991Y-68139895D01*
X139559991Y-68139895D02*
X139798086Y-68139895D01*
X139798086Y-68139895D02*
X139893324Y-68201800D01*
X139893324Y-68201800D02*
X139940943Y-68263704D01*
X139940943Y-68263704D02*
X139988562Y-68387514D01*
X139988562Y-68387514D02*
X139988562Y-68511323D01*
X139988562Y-68511323D02*
X139940943Y-68635133D01*
X139940943Y-68635133D02*
X139893324Y-68697038D01*
X139893324Y-68697038D02*
X139798086Y-68758942D01*
X139798086Y-68758942D02*
X139607610Y-68820847D01*
X139607610Y-68820847D02*
X139512372Y-68882752D01*
X139512372Y-68882752D02*
X139464753Y-68944657D01*
X139464753Y-68944657D02*
X139417134Y-69068466D01*
X139417134Y-69068466D02*
X139417134Y-69192276D01*
X139417134Y-69192276D02*
X139464753Y-69316085D01*
X139464753Y-69316085D02*
X139512372Y-69377990D01*
X139512372Y-69377990D02*
X139607610Y-69439895D01*
X139607610Y-69439895D02*
X139845705Y-69439895D01*
X139845705Y-69439895D02*
X139988562Y-69377990D01*
X140750467Y-68820847D02*
X140893324Y-68758942D01*
X140893324Y-68758942D02*
X140940943Y-68697038D01*
X140940943Y-68697038D02*
X140988562Y-68573228D01*
X140988562Y-68573228D02*
X140988562Y-68387514D01*
X140988562Y-68387514D02*
X140940943Y-68263704D01*
X140940943Y-68263704D02*
X140893324Y-68201800D01*
X140893324Y-68201800D02*
X140798086Y-68139895D01*
X140798086Y-68139895D02*
X140417134Y-68139895D01*
X140417134Y-68139895D02*
X140417134Y-69439895D01*
X140417134Y-69439895D02*
X140750467Y-69439895D01*
X140750467Y-69439895D02*
X140845705Y-69377990D01*
X140845705Y-69377990D02*
X140893324Y-69316085D01*
X140893324Y-69316085D02*
X140940943Y-69192276D01*
X140940943Y-69192276D02*
X140940943Y-69068466D01*
X140940943Y-69068466D02*
X140893324Y-68944657D01*
X140893324Y-68944657D02*
X140845705Y-68882752D01*
X140845705Y-68882752D02*
X140750467Y-68820847D01*
X140750467Y-68820847D02*
X140417134Y-68820847D01*
D11*
X207642143Y-96881000D02*
X207813572Y-96819095D01*
X207813572Y-96819095D02*
X208099286Y-96819095D01*
X208099286Y-96819095D02*
X208213572Y-96881000D01*
X208213572Y-96881000D02*
X208270714Y-96942904D01*
X208270714Y-96942904D02*
X208327857Y-97066714D01*
X208327857Y-97066714D02*
X208327857Y-97190523D01*
X208327857Y-97190523D02*
X208270714Y-97314333D01*
X208270714Y-97314333D02*
X208213572Y-97376238D01*
X208213572Y-97376238D02*
X208099286Y-97438142D01*
X208099286Y-97438142D02*
X207870714Y-97500047D01*
X207870714Y-97500047D02*
X207756429Y-97561952D01*
X207756429Y-97561952D02*
X207699286Y-97623857D01*
X207699286Y-97623857D02*
X207642143Y-97747666D01*
X207642143Y-97747666D02*
X207642143Y-97871476D01*
X207642143Y-97871476D02*
X207699286Y-97995285D01*
X207699286Y-97995285D02*
X207756429Y-98057190D01*
X207756429Y-98057190D02*
X207870714Y-98119095D01*
X207870714Y-98119095D02*
X208156429Y-98119095D01*
X208156429Y-98119095D02*
X208327857Y-98057190D01*
X208842143Y-96819095D02*
X208842143Y-98119095D01*
X209356429Y-96819095D02*
X209356429Y-97500047D01*
X209356429Y-97500047D02*
X209299286Y-97623857D01*
X209299286Y-97623857D02*
X209185000Y-97685761D01*
X209185000Y-97685761D02*
X209013571Y-97685761D01*
X209013571Y-97685761D02*
X208899286Y-97623857D01*
X208899286Y-97623857D02*
X208842143Y-97561952D01*
X209927857Y-96819095D02*
X209927857Y-97685761D01*
X209927857Y-98119095D02*
X209870714Y-98057190D01*
X209870714Y-98057190D02*
X209927857Y-97995285D01*
X209927857Y-97995285D02*
X209985000Y-98057190D01*
X209985000Y-98057190D02*
X209927857Y-98119095D01*
X209927857Y-98119095D02*
X209927857Y-97995285D01*
X210956429Y-96881000D02*
X210842143Y-96819095D01*
X210842143Y-96819095D02*
X210613572Y-96819095D01*
X210613572Y-96819095D02*
X210499286Y-96881000D01*
X210499286Y-96881000D02*
X210442143Y-97004809D01*
X210442143Y-97004809D02*
X210442143Y-97500047D01*
X210442143Y-97500047D02*
X210499286Y-97623857D01*
X210499286Y-97623857D02*
X210613572Y-97685761D01*
X210613572Y-97685761D02*
X210842143Y-97685761D01*
X210842143Y-97685761D02*
X210956429Y-97623857D01*
X210956429Y-97623857D02*
X211013572Y-97500047D01*
X211013572Y-97500047D02*
X211013572Y-97376238D01*
X211013572Y-97376238D02*
X210442143Y-97252428D01*
X211699285Y-96819095D02*
X211585000Y-96881000D01*
X211585000Y-96881000D02*
X211527857Y-97004809D01*
X211527857Y-97004809D02*
X211527857Y-98119095D01*
X212670714Y-96819095D02*
X212670714Y-98119095D01*
X212670714Y-96881000D02*
X212556428Y-96819095D01*
X212556428Y-96819095D02*
X212327856Y-96819095D01*
X212327856Y-96819095D02*
X212213571Y-96881000D01*
X212213571Y-96881000D02*
X212156428Y-96942904D01*
X212156428Y-96942904D02*
X212099285Y-97066714D01*
X212099285Y-97066714D02*
X212099285Y-97438142D01*
X212099285Y-97438142D02*
X212156428Y-97561952D01*
X212156428Y-97561952D02*
X212213571Y-97623857D01*
X212213571Y-97623857D02*
X212327856Y-97685761D01*
X212327856Y-97685761D02*
X212556428Y-97685761D01*
X212556428Y-97685761D02*
X212670714Y-97623857D01*
D12*
X147775283Y-65662500D02*
X148156236Y-65662500D01*
X147965759Y-65319642D02*
X147965759Y-66005357D01*
X148322903Y-66219642D02*
X148489569Y-65319642D01*
X148489569Y-65319642D02*
X148656236Y-66219642D01*
X148941950Y-65019642D02*
X148941950Y-66305357D01*
X149299092Y-65319642D02*
X149299092Y-66219642D01*
X149537187Y-65319642D02*
X149537187Y-66219642D01*
X149537187Y-66219642D02*
X149822901Y-65319642D01*
X149822901Y-65319642D02*
X149822901Y-66219642D01*
X150013378Y-66219642D02*
X150322902Y-66219642D01*
X150322902Y-66219642D02*
X150156235Y-65876785D01*
X150156235Y-65876785D02*
X150227664Y-65876785D01*
X150227664Y-65876785D02*
X150275283Y-65833928D01*
X150275283Y-65833928D02*
X150299092Y-65791071D01*
X150299092Y-65791071D02*
X150322902Y-65705357D01*
X150322902Y-65705357D02*
X150322902Y-65491071D01*
X150322902Y-65491071D02*
X150299092Y-65405357D01*
X150299092Y-65405357D02*
X150275283Y-65362500D01*
X150275283Y-65362500D02*
X150227664Y-65319642D01*
X150227664Y-65319642D02*
X150084807Y-65319642D01*
X150084807Y-65319642D02*
X150037188Y-65362500D01*
X150037188Y-65362500D02*
X150013378Y-65405357D01*
X150656235Y-65019642D02*
X150656235Y-66305357D01*
X151013377Y-65319642D02*
X151013377Y-66219642D01*
X151251472Y-65319642D02*
X151251472Y-66219642D01*
X151251472Y-66219642D02*
X151537186Y-65319642D01*
X151537186Y-65319642D02*
X151537186Y-66219642D01*
X152037187Y-65319642D02*
X151751473Y-65319642D01*
X151894330Y-65319642D02*
X151894330Y-66219642D01*
X151894330Y-66219642D02*
X151846711Y-66091071D01*
X151846711Y-66091071D02*
X151799092Y-66005357D01*
X151799092Y-66005357D02*
X151751473Y-65962500D01*
X152370520Y-65019642D02*
X152370520Y-66305357D01*
X152822900Y-66219642D02*
X152918138Y-66219642D01*
X152918138Y-66219642D02*
X152965757Y-66176785D01*
X152965757Y-66176785D02*
X153013376Y-66091071D01*
X153013376Y-66091071D02*
X153037186Y-65919642D01*
X153037186Y-65919642D02*
X153037186Y-65619642D01*
X153037186Y-65619642D02*
X153013376Y-65448214D01*
X153013376Y-65448214D02*
X152965757Y-65362500D01*
X152965757Y-65362500D02*
X152918138Y-65319642D01*
X152918138Y-65319642D02*
X152822900Y-65319642D01*
X152822900Y-65319642D02*
X152775281Y-65362500D01*
X152775281Y-65362500D02*
X152727662Y-65448214D01*
X152727662Y-65448214D02*
X152703853Y-65619642D01*
X152703853Y-65619642D02*
X152703853Y-65919642D01*
X152703853Y-65919642D02*
X152727662Y-66091071D01*
X152727662Y-66091071D02*
X152775281Y-66176785D01*
X152775281Y-66176785D02*
X152822900Y-66219642D01*
X153251472Y-66219642D02*
X153251472Y-65491071D01*
X153251472Y-65491071D02*
X153275282Y-65405357D01*
X153275282Y-65405357D02*
X153299091Y-65362500D01*
X153299091Y-65362500D02*
X153346710Y-65319642D01*
X153346710Y-65319642D02*
X153441948Y-65319642D01*
X153441948Y-65319642D02*
X153489567Y-65362500D01*
X153489567Y-65362500D02*
X153513377Y-65405357D01*
X153513377Y-65405357D02*
X153537186Y-65491071D01*
X153537186Y-65491071D02*
X153537186Y-66219642D01*
X153703854Y-66219642D02*
X153989568Y-66219642D01*
X153846711Y-65319642D02*
X153846711Y-66219642D01*
X154418139Y-65319642D02*
X154132425Y-65319642D01*
X154275282Y-65319642D02*
X154275282Y-66219642D01*
X154275282Y-66219642D02*
X154227663Y-66091071D01*
X154227663Y-66091071D02*
X154180044Y-66005357D01*
X154180044Y-66005357D02*
X154132425Y-65962500D01*
X148156235Y-63870642D02*
X148156235Y-64770642D01*
X148394330Y-63870642D02*
X148394330Y-64770642D01*
X148394330Y-64770642D02*
X148680044Y-63870642D01*
X148680044Y-63870642D02*
X148680044Y-64770642D01*
X149132426Y-64470642D02*
X149132426Y-63870642D01*
X149013378Y-64813500D02*
X148894331Y-64170642D01*
X148894331Y-64170642D02*
X149203854Y-64170642D01*
X149513378Y-63570642D02*
X149513378Y-64856357D01*
X149870520Y-63870642D02*
X149870520Y-64770642D01*
X150108615Y-63870642D02*
X150108615Y-64770642D01*
X150108615Y-64770642D02*
X150394329Y-63870642D01*
X150394329Y-63870642D02*
X150394329Y-64770642D01*
X150608616Y-64684928D02*
X150632425Y-64727785D01*
X150632425Y-64727785D02*
X150680044Y-64770642D01*
X150680044Y-64770642D02*
X150799092Y-64770642D01*
X150799092Y-64770642D02*
X150846711Y-64727785D01*
X150846711Y-64727785D02*
X150870520Y-64684928D01*
X150870520Y-64684928D02*
X150894330Y-64599214D01*
X150894330Y-64599214D02*
X150894330Y-64513500D01*
X150894330Y-64513500D02*
X150870520Y-64384928D01*
X150870520Y-64384928D02*
X150584806Y-63870642D01*
X150584806Y-63870642D02*
X150894330Y-63870642D01*
X151227663Y-63570642D02*
X151227663Y-64856357D01*
X151680043Y-64770642D02*
X151775281Y-64770642D01*
X151775281Y-64770642D02*
X151822900Y-64727785D01*
X151822900Y-64727785D02*
X151870519Y-64642071D01*
X151870519Y-64642071D02*
X151894329Y-64470642D01*
X151894329Y-64470642D02*
X151894329Y-64170642D01*
X151894329Y-64170642D02*
X151870519Y-63999214D01*
X151870519Y-63999214D02*
X151822900Y-63913500D01*
X151822900Y-63913500D02*
X151775281Y-63870642D01*
X151775281Y-63870642D02*
X151680043Y-63870642D01*
X151680043Y-63870642D02*
X151632424Y-63913500D01*
X151632424Y-63913500D02*
X151584805Y-63999214D01*
X151584805Y-63999214D02*
X151560996Y-64170642D01*
X151560996Y-64170642D02*
X151560996Y-64470642D01*
X151560996Y-64470642D02*
X151584805Y-64642071D01*
X151584805Y-64642071D02*
X151632424Y-64727785D01*
X151632424Y-64727785D02*
X151680043Y-64770642D01*
X152108615Y-64770642D02*
X152108615Y-64042071D01*
X152108615Y-64042071D02*
X152132425Y-63956357D01*
X152132425Y-63956357D02*
X152156234Y-63913500D01*
X152156234Y-63913500D02*
X152203853Y-63870642D01*
X152203853Y-63870642D02*
X152299091Y-63870642D01*
X152299091Y-63870642D02*
X152346710Y-63913500D01*
X152346710Y-63913500D02*
X152370520Y-63956357D01*
X152370520Y-63956357D02*
X152394329Y-64042071D01*
X152394329Y-64042071D02*
X152394329Y-64770642D01*
X152560997Y-64770642D02*
X152846711Y-64770642D01*
X152703854Y-63870642D02*
X152703854Y-64770642D01*
X152989568Y-64684928D02*
X153013377Y-64727785D01*
X153013377Y-64727785D02*
X153060996Y-64770642D01*
X153060996Y-64770642D02*
X153180044Y-64770642D01*
X153180044Y-64770642D02*
X153227663Y-64727785D01*
X153227663Y-64727785D02*
X153251472Y-64684928D01*
X153251472Y-64684928D02*
X153275282Y-64599214D01*
X153275282Y-64599214D02*
X153275282Y-64513500D01*
X153275282Y-64513500D02*
X153251472Y-64384928D01*
X153251472Y-64384928D02*
X152965758Y-63870642D01*
X152965758Y-63870642D02*
X153275282Y-63870642D01*
X153608615Y-63570642D02*
X153608615Y-64856357D01*
X154227662Y-64727785D02*
X154180043Y-64770642D01*
X154180043Y-64770642D02*
X154108614Y-64770642D01*
X154108614Y-64770642D02*
X154037186Y-64727785D01*
X154037186Y-64727785D02*
X153989567Y-64642071D01*
X153989567Y-64642071D02*
X153965757Y-64556357D01*
X153965757Y-64556357D02*
X153941948Y-64384928D01*
X153941948Y-64384928D02*
X153941948Y-64256357D01*
X153941948Y-64256357D02*
X153965757Y-64084928D01*
X153965757Y-64084928D02*
X153989567Y-63999214D01*
X153989567Y-63999214D02*
X154037186Y-63913500D01*
X154037186Y-63913500D02*
X154108614Y-63870642D01*
X154108614Y-63870642D02*
X154156233Y-63870642D01*
X154156233Y-63870642D02*
X154227662Y-63913500D01*
X154227662Y-63913500D02*
X154251471Y-63956357D01*
X154251471Y-63956357D02*
X154251471Y-64256357D01*
X154251471Y-64256357D02*
X154156233Y-64256357D01*
X154465757Y-63870642D02*
X154465757Y-64770642D01*
X154465757Y-64770642D02*
X154751471Y-63870642D01*
X154751471Y-63870642D02*
X154751471Y-64770642D01*
X154989567Y-63870642D02*
X154989567Y-64770642D01*
X154989567Y-64770642D02*
X155108615Y-64770642D01*
X155108615Y-64770642D02*
X155180043Y-64727785D01*
X155180043Y-64727785D02*
X155227662Y-64642071D01*
X155227662Y-64642071D02*
X155251472Y-64556357D01*
X155251472Y-64556357D02*
X155275281Y-64384928D01*
X155275281Y-64384928D02*
X155275281Y-64256357D01*
X155275281Y-64256357D02*
X155251472Y-64084928D01*
X155251472Y-64084928D02*
X155227662Y-63999214D01*
X155227662Y-63999214D02*
X155180043Y-63913500D01*
X155180043Y-63913500D02*
X155108615Y-63870642D01*
X155108615Y-63870642D02*
X154989567Y-63870642D01*
D10*
X170623457Y-68139895D02*
X170623457Y-69439895D01*
X170623457Y-69439895D02*
X171004409Y-69439895D01*
X171004409Y-69439895D02*
X171099647Y-69377990D01*
X171099647Y-69377990D02*
X171147266Y-69316085D01*
X171147266Y-69316085D02*
X171194885Y-69192276D01*
X171194885Y-69192276D02*
X171194885Y-69006561D01*
X171194885Y-69006561D02*
X171147266Y-68882752D01*
X171147266Y-68882752D02*
X171099647Y-68820847D01*
X171099647Y-68820847D02*
X171004409Y-68758942D01*
X171004409Y-68758942D02*
X170623457Y-68758942D01*
X171766314Y-68139895D02*
X171671076Y-68201800D01*
X171671076Y-68201800D02*
X171623457Y-68263704D01*
X171623457Y-68263704D02*
X171575838Y-68387514D01*
X171575838Y-68387514D02*
X171575838Y-68758942D01*
X171575838Y-68758942D02*
X171623457Y-68882752D01*
X171623457Y-68882752D02*
X171671076Y-68944657D01*
X171671076Y-68944657D02*
X171766314Y-69006561D01*
X171766314Y-69006561D02*
X171909171Y-69006561D01*
X171909171Y-69006561D02*
X172004409Y-68944657D01*
X172004409Y-68944657D02*
X172052028Y-68882752D01*
X172052028Y-68882752D02*
X172099647Y-68758942D01*
X172099647Y-68758942D02*
X172099647Y-68387514D01*
X172099647Y-68387514D02*
X172052028Y-68263704D01*
X172052028Y-68263704D02*
X172004409Y-68201800D01*
X172004409Y-68201800D02*
X171909171Y-68139895D01*
X171909171Y-68139895D02*
X171766314Y-68139895D01*
X172432981Y-69006561D02*
X172623457Y-68139895D01*
X172623457Y-68139895D02*
X172813933Y-68758942D01*
X172813933Y-68758942D02*
X173004409Y-68139895D01*
X173004409Y-68139895D02*
X173194885Y-69006561D01*
X173956790Y-68201800D02*
X173861552Y-68139895D01*
X173861552Y-68139895D02*
X173671076Y-68139895D01*
X173671076Y-68139895D02*
X173575838Y-68201800D01*
X173575838Y-68201800D02*
X173528219Y-68325609D01*
X173528219Y-68325609D02*
X173528219Y-68820847D01*
X173528219Y-68820847D02*
X173575838Y-68944657D01*
X173575838Y-68944657D02*
X173671076Y-69006561D01*
X173671076Y-69006561D02*
X173861552Y-69006561D01*
X173861552Y-69006561D02*
X173956790Y-68944657D01*
X173956790Y-68944657D02*
X174004409Y-68820847D01*
X174004409Y-68820847D02*
X174004409Y-68697038D01*
X174004409Y-68697038D02*
X173528219Y-68573228D01*
X174432981Y-68139895D02*
X174432981Y-69006561D01*
X174432981Y-68758942D02*
X174480600Y-68882752D01*
X174480600Y-68882752D02*
X174528219Y-68944657D01*
X174528219Y-68944657D02*
X174623457Y-69006561D01*
X174623457Y-69006561D02*
X174718695Y-69006561D01*
X175813934Y-68635133D02*
X176575839Y-68635133D01*
X176194886Y-68139895D02*
X176194886Y-69130371D01*
X177575838Y-68139895D02*
X177004410Y-68139895D01*
X177290124Y-68139895D02*
X177290124Y-69439895D01*
X177290124Y-69439895D02*
X177194886Y-69254180D01*
X177194886Y-69254180D02*
X177099648Y-69130371D01*
X177099648Y-69130371D02*
X177004410Y-69068466D01*
X177956791Y-69316085D02*
X178004410Y-69377990D01*
X178004410Y-69377990D02*
X178099648Y-69439895D01*
X178099648Y-69439895D02*
X178337743Y-69439895D01*
X178337743Y-69439895D02*
X178432981Y-69377990D01*
X178432981Y-69377990D02*
X178480600Y-69316085D01*
X178480600Y-69316085D02*
X178528219Y-69192276D01*
X178528219Y-69192276D02*
X178528219Y-69068466D01*
X178528219Y-69068466D02*
X178480600Y-68882752D01*
X178480600Y-68882752D02*
X177909172Y-68139895D01*
X177909172Y-68139895D02*
X178528219Y-68139895D01*
X178813934Y-69439895D02*
X179147267Y-68139895D01*
X179147267Y-68139895D02*
X179480600Y-69439895D01*
X125118952Y-63207447D02*
X125261809Y-63145542D01*
X125261809Y-63145542D02*
X125309428Y-63083638D01*
X125309428Y-63083638D02*
X125357047Y-62959828D01*
X125357047Y-62959828D02*
X125357047Y-62774114D01*
X125357047Y-62774114D02*
X125309428Y-62650304D01*
X125309428Y-62650304D02*
X125261809Y-62588400D01*
X125261809Y-62588400D02*
X125166571Y-62526495D01*
X125166571Y-62526495D02*
X124785619Y-62526495D01*
X124785619Y-62526495D02*
X124785619Y-63826495D01*
X124785619Y-63826495D02*
X125118952Y-63826495D01*
X125118952Y-63826495D02*
X125214190Y-63764590D01*
X125214190Y-63764590D02*
X125261809Y-63702685D01*
X125261809Y-63702685D02*
X125309428Y-63578876D01*
X125309428Y-63578876D02*
X125309428Y-63455066D01*
X125309428Y-63455066D02*
X125261809Y-63331257D01*
X125261809Y-63331257D02*
X125214190Y-63269352D01*
X125214190Y-63269352D02*
X125118952Y-63207447D01*
X125118952Y-63207447D02*
X124785619Y-63207447D01*
X125928476Y-62526495D02*
X125833238Y-62588400D01*
X125833238Y-62588400D02*
X125785619Y-62650304D01*
X125785619Y-62650304D02*
X125738000Y-62774114D01*
X125738000Y-62774114D02*
X125738000Y-63145542D01*
X125738000Y-63145542D02*
X125785619Y-63269352D01*
X125785619Y-63269352D02*
X125833238Y-63331257D01*
X125833238Y-63331257D02*
X125928476Y-63393161D01*
X125928476Y-63393161D02*
X126071333Y-63393161D01*
X126071333Y-63393161D02*
X126166571Y-63331257D01*
X126166571Y-63331257D02*
X126214190Y-63269352D01*
X126214190Y-63269352D02*
X126261809Y-63145542D01*
X126261809Y-63145542D02*
X126261809Y-62774114D01*
X126261809Y-62774114D02*
X126214190Y-62650304D01*
X126214190Y-62650304D02*
X126166571Y-62588400D01*
X126166571Y-62588400D02*
X126071333Y-62526495D01*
X126071333Y-62526495D02*
X125928476Y-62526495D01*
X126833238Y-62526495D02*
X126738000Y-62588400D01*
X126738000Y-62588400D02*
X126690381Y-62650304D01*
X126690381Y-62650304D02*
X126642762Y-62774114D01*
X126642762Y-62774114D02*
X126642762Y-63145542D01*
X126642762Y-63145542D02*
X126690381Y-63269352D01*
X126690381Y-63269352D02*
X126738000Y-63331257D01*
X126738000Y-63331257D02*
X126833238Y-63393161D01*
X126833238Y-63393161D02*
X126976095Y-63393161D01*
X126976095Y-63393161D02*
X127071333Y-63331257D01*
X127071333Y-63331257D02*
X127118952Y-63269352D01*
X127118952Y-63269352D02*
X127166571Y-63145542D01*
X127166571Y-63145542D02*
X127166571Y-62774114D01*
X127166571Y-62774114D02*
X127118952Y-62650304D01*
X127118952Y-62650304D02*
X127071333Y-62588400D01*
X127071333Y-62588400D02*
X126976095Y-62526495D01*
X126976095Y-62526495D02*
X126833238Y-62526495D01*
X127452286Y-63393161D02*
X127833238Y-63393161D01*
X127595143Y-63826495D02*
X127595143Y-62712209D01*
X127595143Y-62712209D02*
X127642762Y-62588400D01*
X127642762Y-62588400D02*
X127738000Y-62526495D01*
X127738000Y-62526495D02*
X127833238Y-62526495D01*
D13*
X167151755Y-95973071D02*
X167508898Y-95830214D01*
X167508898Y-95830214D02*
X167627945Y-95687357D01*
X167627945Y-95687357D02*
X167746993Y-95401642D01*
X167746993Y-95401642D02*
X167746993Y-94973071D01*
X167746993Y-94973071D02*
X167627945Y-94687357D01*
X167627945Y-94687357D02*
X167508898Y-94544500D01*
X167508898Y-94544500D02*
X167270803Y-94401642D01*
X167270803Y-94401642D02*
X166318422Y-94401642D01*
X166318422Y-94401642D02*
X166318422Y-97401642D01*
X166318422Y-97401642D02*
X167151755Y-97401642D01*
X167151755Y-97401642D02*
X167389850Y-97258785D01*
X167389850Y-97258785D02*
X167508898Y-97115928D01*
X167508898Y-97115928D02*
X167627945Y-96830214D01*
X167627945Y-96830214D02*
X167627945Y-96544500D01*
X167627945Y-96544500D02*
X167508898Y-96258785D01*
X167508898Y-96258785D02*
X167389850Y-96115928D01*
X167389850Y-96115928D02*
X167151755Y-95973071D01*
X167151755Y-95973071D02*
X166318422Y-95973071D01*
X169889850Y-96401642D02*
X169889850Y-94401642D01*
X168818422Y-96401642D02*
X168818422Y-94830214D01*
X168818422Y-94830214D02*
X168937469Y-94544500D01*
X168937469Y-94544500D02*
X169175564Y-94401642D01*
X169175564Y-94401642D02*
X169532707Y-94401642D01*
X169532707Y-94401642D02*
X169770803Y-94544500D01*
X169770803Y-94544500D02*
X169889850Y-94687357D01*
X172151755Y-96401642D02*
X172151755Y-93973071D01*
X172151755Y-93973071D02*
X172032708Y-93687357D01*
X172032708Y-93687357D02*
X171913660Y-93544500D01*
X171913660Y-93544500D02*
X171675565Y-93401642D01*
X171675565Y-93401642D02*
X171318422Y-93401642D01*
X171318422Y-93401642D02*
X171080327Y-93544500D01*
X172151755Y-94544500D02*
X171913660Y-94401642D01*
X171913660Y-94401642D02*
X171437469Y-94401642D01*
X171437469Y-94401642D02*
X171199374Y-94544500D01*
X171199374Y-94544500D02*
X171080327Y-94687357D01*
X171080327Y-94687357D02*
X170961279Y-94973071D01*
X170961279Y-94973071D02*
X170961279Y-95830214D01*
X170961279Y-95830214D02*
X171080327Y-96115928D01*
X171080327Y-96115928D02*
X171199374Y-96258785D01*
X171199374Y-96258785D02*
X171437469Y-96401642D01*
X171437469Y-96401642D02*
X171913660Y-96401642D01*
X171913660Y-96401642D02*
X172151755Y-96258785D01*
X173104136Y-97401642D02*
X173699374Y-94401642D01*
X173699374Y-94401642D02*
X174175565Y-96544500D01*
X174175565Y-96544500D02*
X174651755Y-94401642D01*
X174651755Y-94401642D02*
X175246994Y-97401642D01*
X176199375Y-94401642D02*
X176199375Y-96401642D01*
X176199375Y-97401642D02*
X176080327Y-97258785D01*
X176080327Y-97258785D02*
X176199375Y-97115928D01*
X176199375Y-97115928D02*
X176318422Y-97258785D01*
X176318422Y-97258785D02*
X176199375Y-97401642D01*
X176199375Y-97401642D02*
X176199375Y-97115928D01*
X177389851Y-96401642D02*
X177389851Y-93401642D01*
X177389851Y-96258785D02*
X177627946Y-96401642D01*
X177627946Y-96401642D02*
X178104136Y-96401642D01*
X178104136Y-96401642D02*
X178342232Y-96258785D01*
X178342232Y-96258785D02*
X178461279Y-96115928D01*
X178461279Y-96115928D02*
X178580327Y-95830214D01*
X178580327Y-95830214D02*
X178580327Y-94973071D01*
X178580327Y-94973071D02*
X178461279Y-94687357D01*
X178461279Y-94687357D02*
X178342232Y-94544500D01*
X178342232Y-94544500D02*
X178104136Y-94401642D01*
X178104136Y-94401642D02*
X177627946Y-94401642D01*
X177627946Y-94401642D02*
X177389851Y-94544500D01*
X180604137Y-94544500D02*
X180366041Y-94401642D01*
X180366041Y-94401642D02*
X179889851Y-94401642D01*
X179889851Y-94401642D02*
X179651756Y-94544500D01*
X179651756Y-94544500D02*
X179532708Y-94830214D01*
X179532708Y-94830214D02*
X179532708Y-95973071D01*
X179532708Y-95973071D02*
X179651756Y-96258785D01*
X179651756Y-96258785D02*
X179889851Y-96401642D01*
X179889851Y-96401642D02*
X180366041Y-96401642D01*
X180366041Y-96401642D02*
X180604137Y-96258785D01*
X180604137Y-96258785D02*
X180723184Y-95973071D01*
X180723184Y-95973071D02*
X180723184Y-95687357D01*
X180723184Y-95687357D02*
X179532708Y-95401642D01*
X181794613Y-94401642D02*
X181794613Y-96401642D01*
X181794613Y-95830214D02*
X181913660Y-96115928D01*
X181913660Y-96115928D02*
X182032708Y-96258785D01*
X182032708Y-96258785D02*
X182270803Y-96401642D01*
X182270803Y-96401642D02*
X182508898Y-96401642D01*
X185127946Y-97115928D02*
X185246994Y-97258785D01*
X185246994Y-97258785D02*
X185485089Y-97401642D01*
X185485089Y-97401642D02*
X186080327Y-97401642D01*
X186080327Y-97401642D02*
X186318422Y-97258785D01*
X186318422Y-97258785D02*
X186437470Y-97115928D01*
X186437470Y-97115928D02*
X186556517Y-96830214D01*
X186556517Y-96830214D02*
X186556517Y-96544500D01*
X186556517Y-96544500D02*
X186437470Y-96115928D01*
X186437470Y-96115928D02*
X185008898Y-94401642D01*
X185008898Y-94401642D02*
X186556517Y-94401642D01*
X187627946Y-94687357D02*
X187746993Y-94544500D01*
X187746993Y-94544500D02*
X187627946Y-94401642D01*
X187627946Y-94401642D02*
X187508898Y-94544500D01*
X187508898Y-94544500D02*
X187627946Y-94687357D01*
X187627946Y-94687357D02*
X187627946Y-94401642D01*
X189294612Y-97401642D02*
X189532707Y-97401642D01*
X189532707Y-97401642D02*
X189770803Y-97258785D01*
X189770803Y-97258785D02*
X189889850Y-97115928D01*
X189889850Y-97115928D02*
X190008898Y-96830214D01*
X190008898Y-96830214D02*
X190127945Y-96258785D01*
X190127945Y-96258785D02*
X190127945Y-95544500D01*
X190127945Y-95544500D02*
X190008898Y-94973071D01*
X190008898Y-94973071D02*
X189889850Y-94687357D01*
X189889850Y-94687357D02*
X189770803Y-94544500D01*
X189770803Y-94544500D02*
X189532707Y-94401642D01*
X189532707Y-94401642D02*
X189294612Y-94401642D01*
X189294612Y-94401642D02*
X189056517Y-94544500D01*
X189056517Y-94544500D02*
X188937469Y-94687357D01*
X188937469Y-94687357D02*
X188818422Y-94973071D01*
X188818422Y-94973071D02*
X188699374Y-95544500D01*
X188699374Y-95544500D02*
X188699374Y-96258785D01*
X188699374Y-96258785D02*
X188818422Y-96830214D01*
X188818422Y-96830214D02*
X188937469Y-97115928D01*
X188937469Y-97115928D02*
X189056517Y-97258785D01*
X189056517Y-97258785D02*
X189294612Y-97401642D01*
X167746993Y-89857357D02*
X167627945Y-89714500D01*
X167627945Y-89714500D02*
X167270803Y-89571642D01*
X167270803Y-89571642D02*
X167032707Y-89571642D01*
X167032707Y-89571642D02*
X166675564Y-89714500D01*
X166675564Y-89714500D02*
X166437469Y-90000214D01*
X166437469Y-90000214D02*
X166318422Y-90285928D01*
X166318422Y-90285928D02*
X166199374Y-90857357D01*
X166199374Y-90857357D02*
X166199374Y-91285928D01*
X166199374Y-91285928D02*
X166318422Y-91857357D01*
X166318422Y-91857357D02*
X166437469Y-92143071D01*
X166437469Y-92143071D02*
X166675564Y-92428785D01*
X166675564Y-92428785D02*
X167032707Y-92571642D01*
X167032707Y-92571642D02*
X167270803Y-92571642D01*
X167270803Y-92571642D02*
X167627945Y-92428785D01*
X167627945Y-92428785D02*
X167746993Y-92285928D01*
X169175564Y-89571642D02*
X168937469Y-89714500D01*
X168937469Y-89714500D02*
X168818422Y-89857357D01*
X168818422Y-89857357D02*
X168699374Y-90143071D01*
X168699374Y-90143071D02*
X168699374Y-91000214D01*
X168699374Y-91000214D02*
X168818422Y-91285928D01*
X168818422Y-91285928D02*
X168937469Y-91428785D01*
X168937469Y-91428785D02*
X169175564Y-91571642D01*
X169175564Y-91571642D02*
X169532707Y-91571642D01*
X169532707Y-91571642D02*
X169770803Y-91428785D01*
X169770803Y-91428785D02*
X169889850Y-91285928D01*
X169889850Y-91285928D02*
X170008898Y-91000214D01*
X170008898Y-91000214D02*
X170008898Y-90143071D01*
X170008898Y-90143071D02*
X169889850Y-89857357D01*
X169889850Y-89857357D02*
X169770803Y-89714500D01*
X169770803Y-89714500D02*
X169532707Y-89571642D01*
X169532707Y-89571642D02*
X169175564Y-89571642D01*
X171080327Y-91571642D02*
X171080327Y-89571642D01*
X171080327Y-91285928D02*
X171199374Y-91428785D01*
X171199374Y-91428785D02*
X171437469Y-91571642D01*
X171437469Y-91571642D02*
X171794612Y-91571642D01*
X171794612Y-91571642D02*
X172032708Y-91428785D01*
X172032708Y-91428785D02*
X172151755Y-91143071D01*
X172151755Y-91143071D02*
X172151755Y-89571642D01*
X172985089Y-91571642D02*
X173937470Y-91571642D01*
X173342232Y-92571642D02*
X173342232Y-90000214D01*
X173342232Y-90000214D02*
X173461279Y-89714500D01*
X173461279Y-89714500D02*
X173699374Y-89571642D01*
X173699374Y-89571642D02*
X173937470Y-89571642D01*
X174770803Y-89571642D02*
X174770803Y-91571642D01*
X174770803Y-91000214D02*
X174889850Y-91285928D01*
X174889850Y-91285928D02*
X175008898Y-91428785D01*
X175008898Y-91428785D02*
X175246993Y-91571642D01*
X175246993Y-91571642D02*
X175485088Y-91571642D01*
X176675564Y-89571642D02*
X176437469Y-89714500D01*
X176437469Y-89714500D02*
X176318422Y-89857357D01*
X176318422Y-89857357D02*
X176199374Y-90143071D01*
X176199374Y-90143071D02*
X176199374Y-91000214D01*
X176199374Y-91000214D02*
X176318422Y-91285928D01*
X176318422Y-91285928D02*
X176437469Y-91428785D01*
X176437469Y-91428785D02*
X176675564Y-91571642D01*
X176675564Y-91571642D02*
X177032707Y-91571642D01*
X177032707Y-91571642D02*
X177270803Y-91428785D01*
X177270803Y-91428785D02*
X177389850Y-91285928D01*
X177389850Y-91285928D02*
X177508898Y-91000214D01*
X177508898Y-91000214D02*
X177508898Y-90143071D01*
X177508898Y-90143071D02*
X177389850Y-89857357D01*
X177389850Y-89857357D02*
X177270803Y-89714500D01*
X177270803Y-89714500D02*
X177032707Y-89571642D01*
X177032707Y-89571642D02*
X176675564Y-89571642D01*
X178937469Y-89571642D02*
X178699374Y-89714500D01*
X178699374Y-89714500D02*
X178580327Y-90000214D01*
X178580327Y-90000214D02*
X178580327Y-92571642D01*
X180246993Y-89571642D02*
X180008898Y-89714500D01*
X180008898Y-89714500D02*
X179889851Y-90000214D01*
X179889851Y-90000214D02*
X179889851Y-92571642D01*
X182151756Y-89714500D02*
X181913660Y-89571642D01*
X181913660Y-89571642D02*
X181437470Y-89571642D01*
X181437470Y-89571642D02*
X181199375Y-89714500D01*
X181199375Y-89714500D02*
X181080327Y-90000214D01*
X181080327Y-90000214D02*
X181080327Y-91143071D01*
X181080327Y-91143071D02*
X181199375Y-91428785D01*
X181199375Y-91428785D02*
X181437470Y-91571642D01*
X181437470Y-91571642D02*
X181913660Y-91571642D01*
X181913660Y-91571642D02*
X182151756Y-91428785D01*
X182151756Y-91428785D02*
X182270803Y-91143071D01*
X182270803Y-91143071D02*
X182270803Y-90857357D01*
X182270803Y-90857357D02*
X181080327Y-90571642D01*
X183342232Y-89571642D02*
X183342232Y-91571642D01*
X183342232Y-91000214D02*
X183461279Y-91285928D01*
X183461279Y-91285928D02*
X183580327Y-91428785D01*
X183580327Y-91428785D02*
X183818422Y-91571642D01*
X183818422Y-91571642D02*
X184056517Y-91571642D01*
X186794613Y-89571642D02*
X186794613Y-92571642D01*
X186794613Y-92571642D02*
X187746994Y-92571642D01*
X187746994Y-92571642D02*
X187985089Y-92428785D01*
X187985089Y-92428785D02*
X188104136Y-92285928D01*
X188104136Y-92285928D02*
X188223184Y-92000214D01*
X188223184Y-92000214D02*
X188223184Y-91571642D01*
X188223184Y-91571642D02*
X188104136Y-91285928D01*
X188104136Y-91285928D02*
X187985089Y-91143071D01*
X187985089Y-91143071D02*
X187746994Y-91000214D01*
X187746994Y-91000214D02*
X186794613Y-91000214D01*
X190723184Y-89857357D02*
X190604136Y-89714500D01*
X190604136Y-89714500D02*
X190246994Y-89571642D01*
X190246994Y-89571642D02*
X190008898Y-89571642D01*
X190008898Y-89571642D02*
X189651755Y-89714500D01*
X189651755Y-89714500D02*
X189413660Y-90000214D01*
X189413660Y-90000214D02*
X189294613Y-90285928D01*
X189294613Y-90285928D02*
X189175565Y-90857357D01*
X189175565Y-90857357D02*
X189175565Y-91285928D01*
X189175565Y-91285928D02*
X189294613Y-91857357D01*
X189294613Y-91857357D02*
X189413660Y-92143071D01*
X189413660Y-92143071D02*
X189651755Y-92428785D01*
X189651755Y-92428785D02*
X190008898Y-92571642D01*
X190008898Y-92571642D02*
X190246994Y-92571642D01*
X190246994Y-92571642D02*
X190604136Y-92428785D01*
X190604136Y-92428785D02*
X190723184Y-92285928D01*
X192627946Y-91143071D02*
X192985089Y-91000214D01*
X192985089Y-91000214D02*
X193104136Y-90857357D01*
X193104136Y-90857357D02*
X193223184Y-90571642D01*
X193223184Y-90571642D02*
X193223184Y-90143071D01*
X193223184Y-90143071D02*
X193104136Y-89857357D01*
X193104136Y-89857357D02*
X192985089Y-89714500D01*
X192985089Y-89714500D02*
X192746994Y-89571642D01*
X192746994Y-89571642D02*
X191794613Y-89571642D01*
X191794613Y-89571642D02*
X191794613Y-92571642D01*
X191794613Y-92571642D02*
X192627946Y-92571642D01*
X192627946Y-92571642D02*
X192866041Y-92428785D01*
X192866041Y-92428785D02*
X192985089Y-92285928D01*
X192985089Y-92285928D02*
X193104136Y-92000214D01*
X193104136Y-92000214D02*
X193104136Y-91714500D01*
X193104136Y-91714500D02*
X192985089Y-91428785D01*
X192985089Y-91428785D02*
X192866041Y-91285928D01*
X192866041Y-91285928D02*
X192627946Y-91143071D01*
X192627946Y-91143071D02*
X191794613Y-91143071D01*
X166199374Y-84884500D02*
X166556517Y-84741642D01*
X166556517Y-84741642D02*
X167151755Y-84741642D01*
X167151755Y-84741642D02*
X167389850Y-84884500D01*
X167389850Y-84884500D02*
X167508898Y-85027357D01*
X167508898Y-85027357D02*
X167627945Y-85313071D01*
X167627945Y-85313071D02*
X167627945Y-85598785D01*
X167627945Y-85598785D02*
X167508898Y-85884500D01*
X167508898Y-85884500D02*
X167389850Y-86027357D01*
X167389850Y-86027357D02*
X167151755Y-86170214D01*
X167151755Y-86170214D02*
X166675564Y-86313071D01*
X166675564Y-86313071D02*
X166437469Y-86455928D01*
X166437469Y-86455928D02*
X166318422Y-86598785D01*
X166318422Y-86598785D02*
X166199374Y-86884500D01*
X166199374Y-86884500D02*
X166199374Y-87170214D01*
X166199374Y-87170214D02*
X166318422Y-87455928D01*
X166318422Y-87455928D02*
X166437469Y-87598785D01*
X166437469Y-87598785D02*
X166675564Y-87741642D01*
X166675564Y-87741642D02*
X167270803Y-87741642D01*
X167270803Y-87741642D02*
X167627945Y-87598785D01*
X169770802Y-84884500D02*
X169532707Y-84741642D01*
X169532707Y-84741642D02*
X169056516Y-84741642D01*
X169056516Y-84741642D02*
X168818421Y-84884500D01*
X168818421Y-84884500D02*
X168699374Y-85027357D01*
X168699374Y-85027357D02*
X168580326Y-85313071D01*
X168580326Y-85313071D02*
X168580326Y-86170214D01*
X168580326Y-86170214D02*
X168699374Y-86455928D01*
X168699374Y-86455928D02*
X168818421Y-86598785D01*
X168818421Y-86598785D02*
X169056516Y-86741642D01*
X169056516Y-86741642D02*
X169532707Y-86741642D01*
X169532707Y-86741642D02*
X169770802Y-86598785D01*
X170842231Y-84741642D02*
X170842231Y-87741642D01*
X171913659Y-84741642D02*
X171913659Y-86313071D01*
X171913659Y-86313071D02*
X171794612Y-86598785D01*
X171794612Y-86598785D02*
X171556516Y-86741642D01*
X171556516Y-86741642D02*
X171199373Y-86741642D01*
X171199373Y-86741642D02*
X170961278Y-86598785D01*
X170961278Y-86598785D02*
X170842231Y-86455928D01*
X173461278Y-84741642D02*
X173223183Y-84884500D01*
X173223183Y-84884500D02*
X173104136Y-85027357D01*
X173104136Y-85027357D02*
X172985088Y-85313071D01*
X172985088Y-85313071D02*
X172985088Y-86170214D01*
X172985088Y-86170214D02*
X173104136Y-86455928D01*
X173104136Y-86455928D02*
X173223183Y-86598785D01*
X173223183Y-86598785D02*
X173461278Y-86741642D01*
X173461278Y-86741642D02*
X173818421Y-86741642D01*
X173818421Y-86741642D02*
X174056517Y-86598785D01*
X174056517Y-86598785D02*
X174175564Y-86455928D01*
X174175564Y-86455928D02*
X174294612Y-86170214D01*
X174294612Y-86170214D02*
X174294612Y-85313071D01*
X174294612Y-85313071D02*
X174175564Y-85027357D01*
X174175564Y-85027357D02*
X174056517Y-84884500D01*
X174056517Y-84884500D02*
X173818421Y-84741642D01*
X173818421Y-84741642D02*
X173461278Y-84741642D01*
X175723183Y-84741642D02*
X175485088Y-84884500D01*
X175485088Y-84884500D02*
X175366041Y-85170214D01*
X175366041Y-85170214D02*
X175366041Y-87741642D01*
X177032707Y-84741642D02*
X176794612Y-84884500D01*
X176794612Y-84884500D02*
X176675565Y-85170214D01*
X176675565Y-85170214D02*
X176675565Y-87741642D01*
X177985089Y-84741642D02*
X177985089Y-86741642D01*
X177985089Y-87741642D02*
X177866041Y-87598785D01*
X177866041Y-87598785D02*
X177985089Y-87455928D01*
X177985089Y-87455928D02*
X178104136Y-87598785D01*
X178104136Y-87598785D02*
X177985089Y-87741642D01*
X177985089Y-87741642D02*
X177985089Y-87455928D01*
D11*
X194304286Y-69768095D02*
X194304286Y-71068095D01*
X194304286Y-71068095D02*
X194761429Y-71068095D01*
X194761429Y-71068095D02*
X194875714Y-71006190D01*
X194875714Y-71006190D02*
X194932857Y-70944285D01*
X194932857Y-70944285D02*
X194990000Y-70820476D01*
X194990000Y-70820476D02*
X194990000Y-70634761D01*
X194990000Y-70634761D02*
X194932857Y-70510952D01*
X194932857Y-70510952D02*
X194875714Y-70449047D01*
X194875714Y-70449047D02*
X194761429Y-70387142D01*
X194761429Y-70387142D02*
X194304286Y-70387142D01*
X195675714Y-69768095D02*
X195561429Y-69830000D01*
X195561429Y-69830000D02*
X195504286Y-69891904D01*
X195504286Y-69891904D02*
X195447143Y-70015714D01*
X195447143Y-70015714D02*
X195447143Y-70387142D01*
X195447143Y-70387142D02*
X195504286Y-70510952D01*
X195504286Y-70510952D02*
X195561429Y-70572857D01*
X195561429Y-70572857D02*
X195675714Y-70634761D01*
X195675714Y-70634761D02*
X195847143Y-70634761D01*
X195847143Y-70634761D02*
X195961429Y-70572857D01*
X195961429Y-70572857D02*
X196018572Y-70510952D01*
X196018572Y-70510952D02*
X196075714Y-70387142D01*
X196075714Y-70387142D02*
X196075714Y-70015714D01*
X196075714Y-70015714D02*
X196018572Y-69891904D01*
X196018572Y-69891904D02*
X195961429Y-69830000D01*
X195961429Y-69830000D02*
X195847143Y-69768095D01*
X195847143Y-69768095D02*
X195675714Y-69768095D01*
X196475714Y-70634761D02*
X196704286Y-69768095D01*
X196704286Y-69768095D02*
X196932857Y-70387142D01*
X196932857Y-70387142D02*
X197161428Y-69768095D01*
X197161428Y-69768095D02*
X197390000Y-70634761D01*
X198304286Y-69830000D02*
X198190000Y-69768095D01*
X198190000Y-69768095D02*
X197961429Y-69768095D01*
X197961429Y-69768095D02*
X197847143Y-69830000D01*
X197847143Y-69830000D02*
X197790000Y-69953809D01*
X197790000Y-69953809D02*
X197790000Y-70449047D01*
X197790000Y-70449047D02*
X197847143Y-70572857D01*
X197847143Y-70572857D02*
X197961429Y-70634761D01*
X197961429Y-70634761D02*
X198190000Y-70634761D01*
X198190000Y-70634761D02*
X198304286Y-70572857D01*
X198304286Y-70572857D02*
X198361429Y-70449047D01*
X198361429Y-70449047D02*
X198361429Y-70325238D01*
X198361429Y-70325238D02*
X197790000Y-70201428D01*
X198875714Y-69768095D02*
X198875714Y-70634761D01*
X198875714Y-70387142D02*
X198932857Y-70510952D01*
X198932857Y-70510952D02*
X198990000Y-70572857D01*
X198990000Y-70572857D02*
X199104285Y-70634761D01*
X199104285Y-70634761D02*
X199218571Y-70634761D01*
X200532857Y-69768095D02*
X200532857Y-71068095D01*
X201104286Y-70634761D02*
X201104286Y-69768095D01*
X201104286Y-70510952D02*
X201161429Y-70572857D01*
X201161429Y-70572857D02*
X201275714Y-70634761D01*
X201275714Y-70634761D02*
X201447143Y-70634761D01*
X201447143Y-70634761D02*
X201561429Y-70572857D01*
X201561429Y-70572857D02*
X201618572Y-70449047D01*
X201618572Y-70449047D02*
X201618572Y-69768095D01*
X202190000Y-70634761D02*
X202190000Y-69334761D01*
X202190000Y-70572857D02*
X202304286Y-70634761D01*
X202304286Y-70634761D02*
X202532857Y-70634761D01*
X202532857Y-70634761D02*
X202647143Y-70572857D01*
X202647143Y-70572857D02*
X202704286Y-70510952D01*
X202704286Y-70510952D02*
X202761428Y-70387142D01*
X202761428Y-70387142D02*
X202761428Y-70015714D01*
X202761428Y-70015714D02*
X202704286Y-69891904D01*
X202704286Y-69891904D02*
X202647143Y-69830000D01*
X202647143Y-69830000D02*
X202532857Y-69768095D01*
X202532857Y-69768095D02*
X202304286Y-69768095D01*
X202304286Y-69768095D02*
X202190000Y-69830000D01*
X203790000Y-70634761D02*
X203790000Y-69768095D01*
X203275714Y-70634761D02*
X203275714Y-69953809D01*
X203275714Y-69953809D02*
X203332857Y-69830000D01*
X203332857Y-69830000D02*
X203447142Y-69768095D01*
X203447142Y-69768095D02*
X203618571Y-69768095D01*
X203618571Y-69768095D02*
X203732857Y-69830000D01*
X203732857Y-69830000D02*
X203790000Y-69891904D01*
X204189999Y-70634761D02*
X204647142Y-70634761D01*
X204361428Y-71068095D02*
X204361428Y-69953809D01*
X204361428Y-69953809D02*
X204418571Y-69830000D01*
X204418571Y-69830000D02*
X204532856Y-69768095D01*
X204532856Y-69768095D02*
X204647142Y-69768095D01*
D10*
X122241495Y-89415333D02*
X122241495Y-88843905D01*
X120941495Y-89129619D02*
X122241495Y-89129619D01*
X121312923Y-88558190D02*
X121312923Y-88082000D01*
X120941495Y-88653428D02*
X122241495Y-88320095D01*
X122241495Y-88320095D02*
X120941495Y-87986762D01*
X122179590Y-87129619D02*
X122241495Y-87224857D01*
X122241495Y-87224857D02*
X122241495Y-87367714D01*
X122241495Y-87367714D02*
X122179590Y-87510571D01*
X122179590Y-87510571D02*
X122055780Y-87605809D01*
X122055780Y-87605809D02*
X121931971Y-87653428D01*
X121931971Y-87653428D02*
X121684352Y-87701047D01*
X121684352Y-87701047D02*
X121498638Y-87701047D01*
X121498638Y-87701047D02*
X121251019Y-87653428D01*
X121251019Y-87653428D02*
X121127209Y-87605809D01*
X121127209Y-87605809D02*
X121003400Y-87510571D01*
X121003400Y-87510571D02*
X120941495Y-87367714D01*
X120941495Y-87367714D02*
X120941495Y-87272476D01*
X120941495Y-87272476D02*
X121003400Y-87129619D01*
X121003400Y-87129619D02*
X121065304Y-87082000D01*
X121065304Y-87082000D02*
X121498638Y-87082000D01*
X121498638Y-87082000D02*
X121498638Y-87272476D01*
X121436733Y-86653428D02*
X121436733Y-85891524D01*
X121065304Y-84843905D02*
X121003400Y-84891524D01*
X121003400Y-84891524D02*
X120941495Y-85034381D01*
X120941495Y-85034381D02*
X120941495Y-85129619D01*
X120941495Y-85129619D02*
X121003400Y-85272476D01*
X121003400Y-85272476D02*
X121127209Y-85367714D01*
X121127209Y-85367714D02*
X121251019Y-85415333D01*
X121251019Y-85415333D02*
X121498638Y-85462952D01*
X121498638Y-85462952D02*
X121684352Y-85462952D01*
X121684352Y-85462952D02*
X121931971Y-85415333D01*
X121931971Y-85415333D02*
X122055780Y-85367714D01*
X122055780Y-85367714D02*
X122179590Y-85272476D01*
X122179590Y-85272476D02*
X122241495Y-85129619D01*
X122241495Y-85129619D02*
X122241495Y-85034381D01*
X122241495Y-85034381D02*
X122179590Y-84891524D01*
X122179590Y-84891524D02*
X122117685Y-84843905D01*
X120941495Y-84272476D02*
X121003400Y-84367714D01*
X121003400Y-84367714D02*
X121065304Y-84415333D01*
X121065304Y-84415333D02*
X121189114Y-84462952D01*
X121189114Y-84462952D02*
X121560542Y-84462952D01*
X121560542Y-84462952D02*
X121684352Y-84415333D01*
X121684352Y-84415333D02*
X121746257Y-84367714D01*
X121746257Y-84367714D02*
X121808161Y-84272476D01*
X121808161Y-84272476D02*
X121808161Y-84129619D01*
X121808161Y-84129619D02*
X121746257Y-84034381D01*
X121746257Y-84034381D02*
X121684352Y-83986762D01*
X121684352Y-83986762D02*
X121560542Y-83939143D01*
X121560542Y-83939143D02*
X121189114Y-83939143D01*
X121189114Y-83939143D02*
X121065304Y-83986762D01*
X121065304Y-83986762D02*
X121003400Y-84034381D01*
X121003400Y-84034381D02*
X120941495Y-84129619D01*
X120941495Y-84129619D02*
X120941495Y-84272476D01*
X121808161Y-83510571D02*
X120941495Y-83510571D01*
X121684352Y-83510571D02*
X121746257Y-83462952D01*
X121746257Y-83462952D02*
X121808161Y-83367714D01*
X121808161Y-83367714D02*
X121808161Y-83224857D01*
X121808161Y-83224857D02*
X121746257Y-83129619D01*
X121746257Y-83129619D02*
X121622447Y-83082000D01*
X121622447Y-83082000D02*
X120941495Y-83082000D01*
X121808161Y-82605809D02*
X120941495Y-82605809D01*
X121684352Y-82605809D02*
X121746257Y-82558190D01*
X121746257Y-82558190D02*
X121808161Y-82462952D01*
X121808161Y-82462952D02*
X121808161Y-82320095D01*
X121808161Y-82320095D02*
X121746257Y-82224857D01*
X121746257Y-82224857D02*
X121622447Y-82177238D01*
X121622447Y-82177238D02*
X120941495Y-82177238D01*
X121003400Y-81320095D02*
X120941495Y-81415333D01*
X120941495Y-81415333D02*
X120941495Y-81605809D01*
X120941495Y-81605809D02*
X121003400Y-81701047D01*
X121003400Y-81701047D02*
X121127209Y-81748666D01*
X121127209Y-81748666D02*
X121622447Y-81748666D01*
X121622447Y-81748666D02*
X121746257Y-81701047D01*
X121746257Y-81701047D02*
X121808161Y-81605809D01*
X121808161Y-81605809D02*
X121808161Y-81415333D01*
X121808161Y-81415333D02*
X121746257Y-81320095D01*
X121746257Y-81320095D02*
X121622447Y-81272476D01*
X121622447Y-81272476D02*
X121498638Y-81272476D01*
X121498638Y-81272476D02*
X121374828Y-81748666D01*
X121003400Y-80415333D02*
X120941495Y-80510571D01*
X120941495Y-80510571D02*
X120941495Y-80701047D01*
X120941495Y-80701047D02*
X121003400Y-80796285D01*
X121003400Y-80796285D02*
X121065304Y-80843904D01*
X121065304Y-80843904D02*
X121189114Y-80891523D01*
X121189114Y-80891523D02*
X121560542Y-80891523D01*
X121560542Y-80891523D02*
X121684352Y-80843904D01*
X121684352Y-80843904D02*
X121746257Y-80796285D01*
X121746257Y-80796285D02*
X121808161Y-80701047D01*
X121808161Y-80701047D02*
X121808161Y-80510571D01*
X121808161Y-80510571D02*
X121746257Y-80415333D01*
X121808161Y-80129618D02*
X121808161Y-79748666D01*
X122241495Y-79986761D02*
X121127209Y-79986761D01*
X121127209Y-79986761D02*
X121003400Y-79939142D01*
X121003400Y-79939142D02*
X120941495Y-79843904D01*
X120941495Y-79843904D02*
X120941495Y-79748666D01*
X119529447Y-88105809D02*
X119529447Y-87772476D01*
X118848495Y-87629619D02*
X118848495Y-88105809D01*
X118848495Y-88105809D02*
X120148495Y-88105809D01*
X120148495Y-88105809D02*
X120148495Y-87629619D01*
X118910400Y-87248666D02*
X118848495Y-87105809D01*
X118848495Y-87105809D02*
X118848495Y-86867714D01*
X118848495Y-86867714D02*
X118910400Y-86772476D01*
X118910400Y-86772476D02*
X118972304Y-86724857D01*
X118972304Y-86724857D02*
X119096114Y-86677238D01*
X119096114Y-86677238D02*
X119219923Y-86677238D01*
X119219923Y-86677238D02*
X119343733Y-86724857D01*
X119343733Y-86724857D02*
X119405638Y-86772476D01*
X119405638Y-86772476D02*
X119467542Y-86867714D01*
X119467542Y-86867714D02*
X119529447Y-87058190D01*
X119529447Y-87058190D02*
X119591352Y-87153428D01*
X119591352Y-87153428D02*
X119653257Y-87201047D01*
X119653257Y-87201047D02*
X119777066Y-87248666D01*
X119777066Y-87248666D02*
X119900876Y-87248666D01*
X119900876Y-87248666D02*
X120024685Y-87201047D01*
X120024685Y-87201047D02*
X120086590Y-87153428D01*
X120086590Y-87153428D02*
X120148495Y-87058190D01*
X120148495Y-87058190D02*
X120148495Y-86820095D01*
X120148495Y-86820095D02*
X120086590Y-86677238D01*
X118848495Y-86248666D02*
X120148495Y-86248666D01*
X120148495Y-86248666D02*
X120148495Y-85867714D01*
X120148495Y-85867714D02*
X120086590Y-85772476D01*
X120086590Y-85772476D02*
X120024685Y-85724857D01*
X120024685Y-85724857D02*
X119900876Y-85677238D01*
X119900876Y-85677238D02*
X119715161Y-85677238D01*
X119715161Y-85677238D02*
X119591352Y-85724857D01*
X119591352Y-85724857D02*
X119529447Y-85772476D01*
X119529447Y-85772476D02*
X119467542Y-85867714D01*
X119467542Y-85867714D02*
X119467542Y-86248666D01*
X119343733Y-85248666D02*
X119343733Y-84486762D01*
X118848495Y-84010571D02*
X120148495Y-84010571D01*
X120148495Y-84010571D02*
X120148495Y-83629619D01*
X120148495Y-83629619D02*
X120086590Y-83534381D01*
X120086590Y-83534381D02*
X120024685Y-83486762D01*
X120024685Y-83486762D02*
X119900876Y-83439143D01*
X119900876Y-83439143D02*
X119715161Y-83439143D01*
X119715161Y-83439143D02*
X119591352Y-83486762D01*
X119591352Y-83486762D02*
X119529447Y-83534381D01*
X119529447Y-83534381D02*
X119467542Y-83629619D01*
X119467542Y-83629619D02*
X119467542Y-84010571D01*
X118848495Y-83010571D02*
X119715161Y-83010571D01*
X119467542Y-83010571D02*
X119591352Y-82962952D01*
X119591352Y-82962952D02*
X119653257Y-82915333D01*
X119653257Y-82915333D02*
X119715161Y-82820095D01*
X119715161Y-82820095D02*
X119715161Y-82724857D01*
X118848495Y-82248666D02*
X118910400Y-82343904D01*
X118910400Y-82343904D02*
X118972304Y-82391523D01*
X118972304Y-82391523D02*
X119096114Y-82439142D01*
X119096114Y-82439142D02*
X119467542Y-82439142D01*
X119467542Y-82439142D02*
X119591352Y-82391523D01*
X119591352Y-82391523D02*
X119653257Y-82343904D01*
X119653257Y-82343904D02*
X119715161Y-82248666D01*
X119715161Y-82248666D02*
X119715161Y-82105809D01*
X119715161Y-82105809D02*
X119653257Y-82010571D01*
X119653257Y-82010571D02*
X119591352Y-81962952D01*
X119591352Y-81962952D02*
X119467542Y-81915333D01*
X119467542Y-81915333D02*
X119096114Y-81915333D01*
X119096114Y-81915333D02*
X118972304Y-81962952D01*
X118972304Y-81962952D02*
X118910400Y-82010571D01*
X118910400Y-82010571D02*
X118848495Y-82105809D01*
X118848495Y-82105809D02*
X118848495Y-82248666D01*
X119715161Y-81058190D02*
X118662780Y-81058190D01*
X118662780Y-81058190D02*
X118538971Y-81105809D01*
X118538971Y-81105809D02*
X118477066Y-81153428D01*
X118477066Y-81153428D02*
X118415161Y-81248666D01*
X118415161Y-81248666D02*
X118415161Y-81391523D01*
X118415161Y-81391523D02*
X118477066Y-81486761D01*
X118910400Y-81058190D02*
X118848495Y-81153428D01*
X118848495Y-81153428D02*
X118848495Y-81343904D01*
X118848495Y-81343904D02*
X118910400Y-81439142D01*
X118910400Y-81439142D02*
X118972304Y-81486761D01*
X118972304Y-81486761D02*
X119096114Y-81534380D01*
X119096114Y-81534380D02*
X119467542Y-81534380D01*
X119467542Y-81534380D02*
X119591352Y-81486761D01*
X119591352Y-81486761D02*
X119653257Y-81439142D01*
X119653257Y-81439142D02*
X119715161Y-81343904D01*
X119715161Y-81343904D02*
X119715161Y-81153428D01*
X119715161Y-81153428D02*
X119653257Y-81058190D01*
X116755495Y-87486761D02*
X118055495Y-87486761D01*
X118055495Y-87486761D02*
X118055495Y-87105809D01*
X118055495Y-87105809D02*
X117993590Y-87010571D01*
X117993590Y-87010571D02*
X117931685Y-86962952D01*
X117931685Y-86962952D02*
X117807876Y-86915333D01*
X117807876Y-86915333D02*
X117622161Y-86915333D01*
X117622161Y-86915333D02*
X117498352Y-86962952D01*
X117498352Y-86962952D02*
X117436447Y-87010571D01*
X117436447Y-87010571D02*
X117374542Y-87105809D01*
X117374542Y-87105809D02*
X117374542Y-87486761D01*
X116755495Y-86486761D02*
X117622161Y-86486761D01*
X117374542Y-86486761D02*
X117498352Y-86439142D01*
X117498352Y-86439142D02*
X117560257Y-86391523D01*
X117560257Y-86391523D02*
X117622161Y-86296285D01*
X117622161Y-86296285D02*
X117622161Y-86201047D01*
X116755495Y-85724856D02*
X116817400Y-85820094D01*
X116817400Y-85820094D02*
X116879304Y-85867713D01*
X116879304Y-85867713D02*
X117003114Y-85915332D01*
X117003114Y-85915332D02*
X117374542Y-85915332D01*
X117374542Y-85915332D02*
X117498352Y-85867713D01*
X117498352Y-85867713D02*
X117560257Y-85820094D01*
X117560257Y-85820094D02*
X117622161Y-85724856D01*
X117622161Y-85724856D02*
X117622161Y-85581999D01*
X117622161Y-85581999D02*
X117560257Y-85486761D01*
X117560257Y-85486761D02*
X117498352Y-85439142D01*
X117498352Y-85439142D02*
X117374542Y-85391523D01*
X117374542Y-85391523D02*
X117003114Y-85391523D01*
X117003114Y-85391523D02*
X116879304Y-85439142D01*
X116879304Y-85439142D02*
X116817400Y-85486761D01*
X116817400Y-85486761D02*
X116755495Y-85581999D01*
X116755495Y-85581999D02*
X116755495Y-85724856D01*
X117622161Y-84534380D02*
X116569780Y-84534380D01*
X116569780Y-84534380D02*
X116445971Y-84581999D01*
X116445971Y-84581999D02*
X116384066Y-84629618D01*
X116384066Y-84629618D02*
X116322161Y-84724856D01*
X116322161Y-84724856D02*
X116322161Y-84867713D01*
X116322161Y-84867713D02*
X116384066Y-84962951D01*
X116817400Y-84534380D02*
X116755495Y-84629618D01*
X116755495Y-84629618D02*
X116755495Y-84820094D01*
X116755495Y-84820094D02*
X116817400Y-84915332D01*
X116817400Y-84915332D02*
X116879304Y-84962951D01*
X116879304Y-84962951D02*
X117003114Y-85010570D01*
X117003114Y-85010570D02*
X117374542Y-85010570D01*
X117374542Y-85010570D02*
X117498352Y-84962951D01*
X117498352Y-84962951D02*
X117560257Y-84915332D01*
X117560257Y-84915332D02*
X117622161Y-84820094D01*
X117622161Y-84820094D02*
X117622161Y-84629618D01*
X117622161Y-84629618D02*
X117560257Y-84534380D01*
X116755495Y-84058189D02*
X117622161Y-84058189D01*
X117374542Y-84058189D02*
X117498352Y-84010570D01*
X117498352Y-84010570D02*
X117560257Y-83962951D01*
X117560257Y-83962951D02*
X117622161Y-83867713D01*
X117622161Y-83867713D02*
X117622161Y-83772475D01*
X116755495Y-83010570D02*
X117436447Y-83010570D01*
X117436447Y-83010570D02*
X117560257Y-83058189D01*
X117560257Y-83058189D02*
X117622161Y-83153427D01*
X117622161Y-83153427D02*
X117622161Y-83343903D01*
X117622161Y-83343903D02*
X117560257Y-83439141D01*
X116817400Y-83010570D02*
X116755495Y-83105808D01*
X116755495Y-83105808D02*
X116755495Y-83343903D01*
X116755495Y-83343903D02*
X116817400Y-83439141D01*
X116817400Y-83439141D02*
X116941209Y-83486760D01*
X116941209Y-83486760D02*
X117065019Y-83486760D01*
X117065019Y-83486760D02*
X117188828Y-83439141D01*
X117188828Y-83439141D02*
X117250733Y-83343903D01*
X117250733Y-83343903D02*
X117250733Y-83105808D01*
X117250733Y-83105808D02*
X117312638Y-83010570D01*
X116755495Y-82534379D02*
X117622161Y-82534379D01*
X117498352Y-82534379D02*
X117560257Y-82486760D01*
X117560257Y-82486760D02*
X117622161Y-82391522D01*
X117622161Y-82391522D02*
X117622161Y-82248665D01*
X117622161Y-82248665D02*
X117560257Y-82153427D01*
X117560257Y-82153427D02*
X117436447Y-82105808D01*
X117436447Y-82105808D02*
X116755495Y-82105808D01*
X117436447Y-82105808D02*
X117560257Y-82058189D01*
X117560257Y-82058189D02*
X117622161Y-81962951D01*
X117622161Y-81962951D02*
X117622161Y-81820094D01*
X117622161Y-81820094D02*
X117560257Y-81724855D01*
X117560257Y-81724855D02*
X117436447Y-81677236D01*
X117436447Y-81677236D02*
X116755495Y-81677236D01*
X146622046Y-61634304D02*
X146574427Y-61572400D01*
X146574427Y-61572400D02*
X146431570Y-61510495D01*
X146431570Y-61510495D02*
X146336332Y-61510495D01*
X146336332Y-61510495D02*
X146193475Y-61572400D01*
X146193475Y-61572400D02*
X146098237Y-61696209D01*
X146098237Y-61696209D02*
X146050618Y-61820019D01*
X146050618Y-61820019D02*
X146002999Y-62067638D01*
X146002999Y-62067638D02*
X146002999Y-62253352D01*
X146002999Y-62253352D02*
X146050618Y-62500971D01*
X146050618Y-62500971D02*
X146098237Y-62624780D01*
X146098237Y-62624780D02*
X146193475Y-62748590D01*
X146193475Y-62748590D02*
X146336332Y-62810495D01*
X146336332Y-62810495D02*
X146431570Y-62810495D01*
X146431570Y-62810495D02*
X146574427Y-62748590D01*
X146574427Y-62748590D02*
X146622046Y-62686685D01*
X147193475Y-61510495D02*
X147098237Y-61572400D01*
X147098237Y-61572400D02*
X147050618Y-61634304D01*
X147050618Y-61634304D02*
X147002999Y-61758114D01*
X147002999Y-61758114D02*
X147002999Y-62129542D01*
X147002999Y-62129542D02*
X147050618Y-62253352D01*
X147050618Y-62253352D02*
X147098237Y-62315257D01*
X147098237Y-62315257D02*
X147193475Y-62377161D01*
X147193475Y-62377161D02*
X147336332Y-62377161D01*
X147336332Y-62377161D02*
X147431570Y-62315257D01*
X147431570Y-62315257D02*
X147479189Y-62253352D01*
X147479189Y-62253352D02*
X147526808Y-62129542D01*
X147526808Y-62129542D02*
X147526808Y-61758114D01*
X147526808Y-61758114D02*
X147479189Y-61634304D01*
X147479189Y-61634304D02*
X147431570Y-61572400D01*
X147431570Y-61572400D02*
X147336332Y-61510495D01*
X147336332Y-61510495D02*
X147193475Y-61510495D01*
X147955380Y-62377161D02*
X147955380Y-61510495D01*
X147955380Y-62253352D02*
X148002999Y-62315257D01*
X148002999Y-62315257D02*
X148098237Y-62377161D01*
X148098237Y-62377161D02*
X148241094Y-62377161D01*
X148241094Y-62377161D02*
X148336332Y-62315257D01*
X148336332Y-62315257D02*
X148383951Y-62191447D01*
X148383951Y-62191447D02*
X148383951Y-61510495D01*
X148717285Y-62377161D02*
X149098237Y-62377161D01*
X148860142Y-62810495D02*
X148860142Y-61696209D01*
X148860142Y-61696209D02*
X148907761Y-61572400D01*
X148907761Y-61572400D02*
X149002999Y-61510495D01*
X149002999Y-61510495D02*
X149098237Y-61510495D01*
X149431571Y-61510495D02*
X149431571Y-62377161D01*
X149431571Y-62129542D02*
X149479190Y-62253352D01*
X149479190Y-62253352D02*
X149526809Y-62315257D01*
X149526809Y-62315257D02*
X149622047Y-62377161D01*
X149622047Y-62377161D02*
X149717285Y-62377161D01*
X150193476Y-61510495D02*
X150098238Y-61572400D01*
X150098238Y-61572400D02*
X150050619Y-61634304D01*
X150050619Y-61634304D02*
X150003000Y-61758114D01*
X150003000Y-61758114D02*
X150003000Y-62129542D01*
X150003000Y-62129542D02*
X150050619Y-62253352D01*
X150050619Y-62253352D02*
X150098238Y-62315257D01*
X150098238Y-62315257D02*
X150193476Y-62377161D01*
X150193476Y-62377161D02*
X150336333Y-62377161D01*
X150336333Y-62377161D02*
X150431571Y-62315257D01*
X150431571Y-62315257D02*
X150479190Y-62253352D01*
X150479190Y-62253352D02*
X150526809Y-62129542D01*
X150526809Y-62129542D02*
X150526809Y-61758114D01*
X150526809Y-61758114D02*
X150479190Y-61634304D01*
X150479190Y-61634304D02*
X150431571Y-61572400D01*
X150431571Y-61572400D02*
X150336333Y-61510495D01*
X150336333Y-61510495D02*
X150193476Y-61510495D01*
X151098238Y-61510495D02*
X151003000Y-61572400D01*
X151003000Y-61572400D02*
X150955381Y-61696209D01*
X150955381Y-61696209D02*
X150955381Y-62810495D01*
X152241096Y-61510495D02*
X152241096Y-62810495D01*
X152241096Y-62810495D02*
X152622048Y-62810495D01*
X152622048Y-62810495D02*
X152717286Y-62748590D01*
X152717286Y-62748590D02*
X152764905Y-62686685D01*
X152764905Y-62686685D02*
X152812524Y-62562876D01*
X152812524Y-62562876D02*
X152812524Y-62377161D01*
X152812524Y-62377161D02*
X152764905Y-62253352D01*
X152764905Y-62253352D02*
X152717286Y-62191447D01*
X152717286Y-62191447D02*
X152622048Y-62129542D01*
X152622048Y-62129542D02*
X152241096Y-62129542D01*
X153669667Y-61510495D02*
X153669667Y-62191447D01*
X153669667Y-62191447D02*
X153622048Y-62315257D01*
X153622048Y-62315257D02*
X153526810Y-62377161D01*
X153526810Y-62377161D02*
X153336334Y-62377161D01*
X153336334Y-62377161D02*
X153241096Y-62315257D01*
X153669667Y-61572400D02*
X153574429Y-61510495D01*
X153574429Y-61510495D02*
X153336334Y-61510495D01*
X153336334Y-61510495D02*
X153241096Y-61572400D01*
X153241096Y-61572400D02*
X153193477Y-61696209D01*
X153193477Y-61696209D02*
X153193477Y-61820019D01*
X153193477Y-61820019D02*
X153241096Y-61943828D01*
X153241096Y-61943828D02*
X153336334Y-62005733D01*
X153336334Y-62005733D02*
X153574429Y-62005733D01*
X153574429Y-62005733D02*
X153669667Y-62067638D01*
X154145858Y-62377161D02*
X154145858Y-61510495D01*
X154145858Y-62253352D02*
X154193477Y-62315257D01*
X154193477Y-62315257D02*
X154288715Y-62377161D01*
X154288715Y-62377161D02*
X154431572Y-62377161D01*
X154431572Y-62377161D02*
X154526810Y-62315257D01*
X154526810Y-62315257D02*
X154574429Y-62191447D01*
X154574429Y-62191447D02*
X154574429Y-61510495D01*
X155431572Y-61572400D02*
X155336334Y-61510495D01*
X155336334Y-61510495D02*
X155145858Y-61510495D01*
X155145858Y-61510495D02*
X155050620Y-61572400D01*
X155050620Y-61572400D02*
X155003001Y-61696209D01*
X155003001Y-61696209D02*
X155003001Y-62191447D01*
X155003001Y-62191447D02*
X155050620Y-62315257D01*
X155050620Y-62315257D02*
X155145858Y-62377161D01*
X155145858Y-62377161D02*
X155336334Y-62377161D01*
X155336334Y-62377161D02*
X155431572Y-62315257D01*
X155431572Y-62315257D02*
X155479191Y-62191447D01*
X155479191Y-62191447D02*
X155479191Y-62067638D01*
X155479191Y-62067638D02*
X155003001Y-61943828D01*
X156050620Y-61510495D02*
X155955382Y-61572400D01*
X155955382Y-61572400D02*
X155907763Y-61696209D01*
X155907763Y-61696209D02*
X155907763Y-62810495D01*
D14*
X226730152Y-84142856D02*
X227396819Y-84142856D01*
X226349200Y-84380951D02*
X227063485Y-84619046D01*
X227063485Y-84619046D02*
X227063485Y-83999999D01*
X226396819Y-83428570D02*
X226396819Y-83333332D01*
X226396819Y-83333332D02*
X226444438Y-83238094D01*
X226444438Y-83238094D02*
X226492057Y-83190475D01*
X226492057Y-83190475D02*
X226587295Y-83142856D01*
X226587295Y-83142856D02*
X226777771Y-83095237D01*
X226777771Y-83095237D02*
X227015866Y-83095237D01*
X227015866Y-83095237D02*
X227206342Y-83142856D01*
X227206342Y-83142856D02*
X227301580Y-83190475D01*
X227301580Y-83190475D02*
X227349200Y-83238094D01*
X227349200Y-83238094D02*
X227396819Y-83333332D01*
X227396819Y-83333332D02*
X227396819Y-83428570D01*
X227396819Y-83428570D02*
X227349200Y-83523808D01*
X227349200Y-83523808D02*
X227301580Y-83571427D01*
X227301580Y-83571427D02*
X227206342Y-83619046D01*
X227206342Y-83619046D02*
X227015866Y-83666665D01*
X227015866Y-83666665D02*
X226777771Y-83666665D01*
X226777771Y-83666665D02*
X226587295Y-83619046D01*
X226587295Y-83619046D02*
X226492057Y-83571427D01*
X226492057Y-83571427D02*
X226444438Y-83523808D01*
X226444438Y-83523808D02*
X226396819Y-83428570D01*
X227349200Y-82619046D02*
X227396819Y-82619046D01*
X227396819Y-82619046D02*
X227492057Y-82666665D01*
X227492057Y-82666665D02*
X227539676Y-82714284D01*
X226396819Y-81999999D02*
X226396819Y-81904761D01*
X226396819Y-81904761D02*
X226444438Y-81809523D01*
X226444438Y-81809523D02*
X226492057Y-81761904D01*
X226492057Y-81761904D02*
X226587295Y-81714285D01*
X226587295Y-81714285D02*
X226777771Y-81666666D01*
X226777771Y-81666666D02*
X227015866Y-81666666D01*
X227015866Y-81666666D02*
X227206342Y-81714285D01*
X227206342Y-81714285D02*
X227301580Y-81761904D01*
X227301580Y-81761904D02*
X227349200Y-81809523D01*
X227349200Y-81809523D02*
X227396819Y-81904761D01*
X227396819Y-81904761D02*
X227396819Y-81999999D01*
X227396819Y-81999999D02*
X227349200Y-82095237D01*
X227349200Y-82095237D02*
X227301580Y-82142856D01*
X227301580Y-82142856D02*
X227206342Y-82190475D01*
X227206342Y-82190475D02*
X227015866Y-82238094D01*
X227015866Y-82238094D02*
X226777771Y-82238094D01*
X226777771Y-82238094D02*
X226587295Y-82190475D01*
X226587295Y-82190475D02*
X226492057Y-82142856D01*
X226492057Y-82142856D02*
X226444438Y-82095237D01*
X226444438Y-82095237D02*
X226396819Y-81999999D01*
X226396819Y-81047618D02*
X226396819Y-80952380D01*
X226396819Y-80952380D02*
X226444438Y-80857142D01*
X226444438Y-80857142D02*
X226492057Y-80809523D01*
X226492057Y-80809523D02*
X226587295Y-80761904D01*
X226587295Y-80761904D02*
X226777771Y-80714285D01*
X226777771Y-80714285D02*
X227015866Y-80714285D01*
X227015866Y-80714285D02*
X227206342Y-80761904D01*
X227206342Y-80761904D02*
X227301580Y-80809523D01*
X227301580Y-80809523D02*
X227349200Y-80857142D01*
X227349200Y-80857142D02*
X227396819Y-80952380D01*
X227396819Y-80952380D02*
X227396819Y-81047618D01*
X227396819Y-81047618D02*
X227349200Y-81142856D01*
X227349200Y-81142856D02*
X227301580Y-81190475D01*
X227301580Y-81190475D02*
X227206342Y-81238094D01*
X227206342Y-81238094D02*
X227015866Y-81285713D01*
X227015866Y-81285713D02*
X226777771Y-81285713D01*
X226777771Y-81285713D02*
X226587295Y-81238094D01*
X226587295Y-81238094D02*
X226492057Y-81190475D01*
X226492057Y-81190475D02*
X226444438Y-81142856D01*
X226444438Y-81142856D02*
X226396819Y-81047618D01*
X226396819Y-80095237D02*
X226396819Y-79999999D01*
X226396819Y-79999999D02*
X226444438Y-79904761D01*
X226444438Y-79904761D02*
X226492057Y-79857142D01*
X226492057Y-79857142D02*
X226587295Y-79809523D01*
X226587295Y-79809523D02*
X226777771Y-79761904D01*
X226777771Y-79761904D02*
X227015866Y-79761904D01*
X227015866Y-79761904D02*
X227206342Y-79809523D01*
X227206342Y-79809523D02*
X227301580Y-79857142D01*
X227301580Y-79857142D02*
X227349200Y-79904761D01*
X227349200Y-79904761D02*
X227396819Y-79999999D01*
X227396819Y-79999999D02*
X227396819Y-80095237D01*
X227396819Y-80095237D02*
X227349200Y-80190475D01*
X227349200Y-80190475D02*
X227301580Y-80238094D01*
X227301580Y-80238094D02*
X227206342Y-80285713D01*
X227206342Y-80285713D02*
X227015866Y-80333332D01*
X227015866Y-80333332D02*
X226777771Y-80333332D01*
X226777771Y-80333332D02*
X226587295Y-80285713D01*
X226587295Y-80285713D02*
X226492057Y-80238094D01*
X226492057Y-80238094D02*
X226444438Y-80190475D01*
X226444438Y-80190475D02*
X226396819Y-80095237D01*
X226396819Y-79142856D02*
X226396819Y-79047618D01*
X226396819Y-79047618D02*
X226444438Y-78952380D01*
X226444438Y-78952380D02*
X226492057Y-78904761D01*
X226492057Y-78904761D02*
X226587295Y-78857142D01*
X226587295Y-78857142D02*
X226777771Y-78809523D01*
X226777771Y-78809523D02*
X227015866Y-78809523D01*
X227015866Y-78809523D02*
X227206342Y-78857142D01*
X227206342Y-78857142D02*
X227301580Y-78904761D01*
X227301580Y-78904761D02*
X227349200Y-78952380D01*
X227349200Y-78952380D02*
X227396819Y-79047618D01*
X227396819Y-79047618D02*
X227396819Y-79142856D01*
X227396819Y-79142856D02*
X227349200Y-79238094D01*
X227349200Y-79238094D02*
X227301580Y-79285713D01*
X227301580Y-79285713D02*
X227206342Y-79333332D01*
X227206342Y-79333332D02*
X227015866Y-79380951D01*
X227015866Y-79380951D02*
X226777771Y-79380951D01*
X226777771Y-79380951D02*
X226587295Y-79333332D01*
X226587295Y-79333332D02*
X226492057Y-79285713D01*
X226492057Y-79285713D02*
X226444438Y-79238094D01*
X226444438Y-79238094D02*
X226396819Y-79142856D01*
X227396819Y-77619046D02*
X226730152Y-77619046D01*
X226825390Y-77619046D02*
X226777771Y-77571427D01*
X226777771Y-77571427D02*
X226730152Y-77476189D01*
X226730152Y-77476189D02*
X226730152Y-77333332D01*
X226730152Y-77333332D02*
X226777771Y-77238094D01*
X226777771Y-77238094D02*
X226873009Y-77190475D01*
X226873009Y-77190475D02*
X227396819Y-77190475D01*
X226873009Y-77190475D02*
X226777771Y-77142856D01*
X226777771Y-77142856D02*
X226730152Y-77047618D01*
X226730152Y-77047618D02*
X226730152Y-76904761D01*
X226730152Y-76904761D02*
X226777771Y-76809522D01*
X226777771Y-76809522D02*
X226873009Y-76761903D01*
X226873009Y-76761903D02*
X227396819Y-76761903D01*
X227396819Y-76285713D02*
X226730152Y-76285713D01*
X226825390Y-76285713D02*
X226777771Y-76238094D01*
X226777771Y-76238094D02*
X226730152Y-76142856D01*
X226730152Y-76142856D02*
X226730152Y-75999999D01*
X226730152Y-75999999D02*
X226777771Y-75904761D01*
X226777771Y-75904761D02*
X226873009Y-75857142D01*
X226873009Y-75857142D02*
X227396819Y-75857142D01*
X226873009Y-75857142D02*
X226777771Y-75809523D01*
X226777771Y-75809523D02*
X226730152Y-75714285D01*
X226730152Y-75714285D02*
X226730152Y-75571428D01*
X226730152Y-75571428D02*
X226777771Y-75476189D01*
X226777771Y-75476189D02*
X226873009Y-75428570D01*
X226873009Y-75428570D02*
X227396819Y-75428570D01*
X220500000Y-100000000D02*
X228678420Y-100000000D01*
X220500000Y-60000000D02*
X228678420Y-60000000D01*
X228092000Y-100000000D02*
X228092000Y-60000000D01*
X228092000Y-100000000D02*
X228092000Y-60000000D01*
X228092000Y-100000000D02*
X227505579Y-98873496D01*
X228092000Y-100000000D02*
X228678421Y-98873496D01*
X228092000Y-60000000D02*
X228678421Y-61126504D01*
X228092000Y-60000000D02*
X227505579Y-61126504D01*
X160476190Y-107000818D02*
X159904762Y-107000818D01*
X160190476Y-107000818D02*
X160190476Y-106000818D01*
X160190476Y-106000818D02*
X160095238Y-106143675D01*
X160095238Y-106143675D02*
X160000000Y-106238913D01*
X160000000Y-106238913D02*
X159904762Y-106286532D01*
X161428571Y-107000818D02*
X160857143Y-107000818D01*
X161142857Y-107000818D02*
X161142857Y-106000818D01*
X161142857Y-106000818D02*
X161047619Y-106143675D01*
X161047619Y-106143675D02*
X160952381Y-106238913D01*
X160952381Y-106238913D02*
X160857143Y-106286532D01*
X162047619Y-106000818D02*
X162142857Y-106000818D01*
X162142857Y-106000818D02*
X162238095Y-106048437D01*
X162238095Y-106048437D02*
X162285714Y-106096056D01*
X162285714Y-106096056D02*
X162333333Y-106191294D01*
X162333333Y-106191294D02*
X162380952Y-106381770D01*
X162380952Y-106381770D02*
X162380952Y-106619865D01*
X162380952Y-106619865D02*
X162333333Y-106810341D01*
X162333333Y-106810341D02*
X162285714Y-106905579D01*
X162285714Y-106905579D02*
X162238095Y-106953199D01*
X162238095Y-106953199D02*
X162142857Y-107000818D01*
X162142857Y-107000818D02*
X162047619Y-107000818D01*
X162047619Y-107000818D02*
X161952381Y-106953199D01*
X161952381Y-106953199D02*
X161904762Y-106905579D01*
X161904762Y-106905579D02*
X161857143Y-106810341D01*
X161857143Y-106810341D02*
X161809524Y-106619865D01*
X161809524Y-106619865D02*
X161809524Y-106381770D01*
X161809524Y-106381770D02*
X161857143Y-106191294D01*
X161857143Y-106191294D02*
X161904762Y-106096056D01*
X161904762Y-106096056D02*
X161952381Y-106048437D01*
X161952381Y-106048437D02*
X162047619Y-106000818D01*
X162857143Y-106953199D02*
X162857143Y-107000818D01*
X162857143Y-107000818D02*
X162809524Y-107096056D01*
X162809524Y-107096056D02*
X162761905Y-107143675D01*
X163476190Y-106000818D02*
X163571428Y-106000818D01*
X163571428Y-106000818D02*
X163666666Y-106048437D01*
X163666666Y-106048437D02*
X163714285Y-106096056D01*
X163714285Y-106096056D02*
X163761904Y-106191294D01*
X163761904Y-106191294D02*
X163809523Y-106381770D01*
X163809523Y-106381770D02*
X163809523Y-106619865D01*
X163809523Y-106619865D02*
X163761904Y-106810341D01*
X163761904Y-106810341D02*
X163714285Y-106905579D01*
X163714285Y-106905579D02*
X163666666Y-106953199D01*
X163666666Y-106953199D02*
X163571428Y-107000818D01*
X163571428Y-107000818D02*
X163476190Y-107000818D01*
X163476190Y-107000818D02*
X163380952Y-106953199D01*
X163380952Y-106953199D02*
X163333333Y-106905579D01*
X163333333Y-106905579D02*
X163285714Y-106810341D01*
X163285714Y-106810341D02*
X163238095Y-106619865D01*
X163238095Y-106619865D02*
X163238095Y-106381770D01*
X163238095Y-106381770D02*
X163285714Y-106191294D01*
X163285714Y-106191294D02*
X163333333Y-106096056D01*
X163333333Y-106096056D02*
X163380952Y-106048437D01*
X163380952Y-106048437D02*
X163476190Y-106000818D01*
X164428571Y-106000818D02*
X164523809Y-106000818D01*
X164523809Y-106000818D02*
X164619047Y-106048437D01*
X164619047Y-106048437D02*
X164666666Y-106096056D01*
X164666666Y-106096056D02*
X164714285Y-106191294D01*
X164714285Y-106191294D02*
X164761904Y-106381770D01*
X164761904Y-106381770D02*
X164761904Y-106619865D01*
X164761904Y-106619865D02*
X164714285Y-106810341D01*
X164714285Y-106810341D02*
X164666666Y-106905579D01*
X164666666Y-106905579D02*
X164619047Y-106953199D01*
X164619047Y-106953199D02*
X164523809Y-107000818D01*
X164523809Y-107000818D02*
X164428571Y-107000818D01*
X164428571Y-107000818D02*
X164333333Y-106953199D01*
X164333333Y-106953199D02*
X164285714Y-106905579D01*
X164285714Y-106905579D02*
X164238095Y-106810341D01*
X164238095Y-106810341D02*
X164190476Y-106619865D01*
X164190476Y-106619865D02*
X164190476Y-106381770D01*
X164190476Y-106381770D02*
X164238095Y-106191294D01*
X164238095Y-106191294D02*
X164285714Y-106096056D01*
X164285714Y-106096056D02*
X164333333Y-106048437D01*
X164333333Y-106048437D02*
X164428571Y-106000818D01*
X165380952Y-106000818D02*
X165476190Y-106000818D01*
X165476190Y-106000818D02*
X165571428Y-106048437D01*
X165571428Y-106048437D02*
X165619047Y-106096056D01*
X165619047Y-106096056D02*
X165666666Y-106191294D01*
X165666666Y-106191294D02*
X165714285Y-106381770D01*
X165714285Y-106381770D02*
X165714285Y-106619865D01*
X165714285Y-106619865D02*
X165666666Y-106810341D01*
X165666666Y-106810341D02*
X165619047Y-106905579D01*
X165619047Y-106905579D02*
X165571428Y-106953199D01*
X165571428Y-106953199D02*
X165476190Y-107000818D01*
X165476190Y-107000818D02*
X165380952Y-107000818D01*
X165380952Y-107000818D02*
X165285714Y-106953199D01*
X165285714Y-106953199D02*
X165238095Y-106905579D01*
X165238095Y-106905579D02*
X165190476Y-106810341D01*
X165190476Y-106810341D02*
X165142857Y-106619865D01*
X165142857Y-106619865D02*
X165142857Y-106381770D01*
X165142857Y-106381770D02*
X165190476Y-106191294D01*
X165190476Y-106191294D02*
X165238095Y-106096056D01*
X165238095Y-106096056D02*
X165285714Y-106048437D01*
X165285714Y-106048437D02*
X165380952Y-106000818D01*
X166333333Y-106000818D02*
X166428571Y-106000818D01*
X166428571Y-106000818D02*
X166523809Y-106048437D01*
X166523809Y-106048437D02*
X166571428Y-106096056D01*
X166571428Y-106096056D02*
X166619047Y-106191294D01*
X166619047Y-106191294D02*
X166666666Y-106381770D01*
X166666666Y-106381770D02*
X166666666Y-106619865D01*
X166666666Y-106619865D02*
X166619047Y-106810341D01*
X166619047Y-106810341D02*
X166571428Y-106905579D01*
X166571428Y-106905579D02*
X166523809Y-106953199D01*
X166523809Y-106953199D02*
X166428571Y-107000818D01*
X166428571Y-107000818D02*
X166333333Y-107000818D01*
X166333333Y-107000818D02*
X166238095Y-106953199D01*
X166238095Y-106953199D02*
X166190476Y-106905579D01*
X166190476Y-106905579D02*
X166142857Y-106810341D01*
X166142857Y-106810341D02*
X166095238Y-106619865D01*
X166095238Y-106619865D02*
X166095238Y-106381770D01*
X166095238Y-106381770D02*
X166142857Y-106191294D01*
X166142857Y-106191294D02*
X166190476Y-106096056D01*
X166190476Y-106096056D02*
X166238095Y-106048437D01*
X166238095Y-106048437D02*
X166333333Y-106000818D01*
X167857143Y-107000818D02*
X167857143Y-106334151D01*
X167857143Y-106429389D02*
X167904762Y-106381770D01*
X167904762Y-106381770D02*
X168000000Y-106334151D01*
X168000000Y-106334151D02*
X168142857Y-106334151D01*
X168142857Y-106334151D02*
X168238095Y-106381770D01*
X168238095Y-106381770D02*
X168285714Y-106477008D01*
X168285714Y-106477008D02*
X168285714Y-107000818D01*
X168285714Y-106477008D02*
X168333333Y-106381770D01*
X168333333Y-106381770D02*
X168428571Y-106334151D01*
X168428571Y-106334151D02*
X168571428Y-106334151D01*
X168571428Y-106334151D02*
X168666667Y-106381770D01*
X168666667Y-106381770D02*
X168714286Y-106477008D01*
X168714286Y-106477008D02*
X168714286Y-107000818D01*
X169190476Y-107000818D02*
X169190476Y-106334151D01*
X169190476Y-106429389D02*
X169238095Y-106381770D01*
X169238095Y-106381770D02*
X169333333Y-106334151D01*
X169333333Y-106334151D02*
X169476190Y-106334151D01*
X169476190Y-106334151D02*
X169571428Y-106381770D01*
X169571428Y-106381770D02*
X169619047Y-106477008D01*
X169619047Y-106477008D02*
X169619047Y-107000818D01*
X169619047Y-106477008D02*
X169666666Y-106381770D01*
X169666666Y-106381770D02*
X169761904Y-106334151D01*
X169761904Y-106334151D02*
X169904761Y-106334151D01*
X169904761Y-106334151D02*
X170000000Y-106381770D01*
X170000000Y-106381770D02*
X170047619Y-106477008D01*
X170047619Y-106477008D02*
X170047619Y-107000818D01*
X110000000Y-100500000D02*
X110000000Y-108282419D01*
X220000000Y-100500000D02*
X220000000Y-108282419D01*
X110000000Y-107695999D02*
X220000000Y-107695999D01*
X110000000Y-107695999D02*
X220000000Y-107695999D01*
X110000000Y-107695999D02*
X111126504Y-107109578D01*
X110000000Y-107695999D02*
X111126504Y-108282420D01*
X220000000Y-107695999D02*
X218873496Y-108282420D01*
X220000000Y-107695999D02*
X218873496Y-107109578D01*
X206303666Y-62013180D02*
X206303666Y-61298895D01*
X206303666Y-61298895D02*
X206256047Y-61156038D01*
X206256047Y-61156038D02*
X206160809Y-61060800D01*
X206160809Y-61060800D02*
X206017952Y-61013180D01*
X206017952Y-61013180D02*
X205922714Y-61013180D01*
X206779857Y-61013180D02*
X206779857Y-62013180D01*
X206779857Y-62013180D02*
X207160809Y-62013180D01*
X207160809Y-62013180D02*
X207256047Y-61965561D01*
X207256047Y-61965561D02*
X207303666Y-61917942D01*
X207303666Y-61917942D02*
X207351285Y-61822704D01*
X207351285Y-61822704D02*
X207351285Y-61679847D01*
X207351285Y-61679847D02*
X207303666Y-61584609D01*
X207303666Y-61584609D02*
X207256047Y-61536990D01*
X207256047Y-61536990D02*
X207160809Y-61489371D01*
X207160809Y-61489371D02*
X206779857Y-61489371D01*
X207684619Y-62013180D02*
X208303666Y-62013180D01*
X208303666Y-62013180D02*
X207970333Y-61632228D01*
X207970333Y-61632228D02*
X208113190Y-61632228D01*
X208113190Y-61632228D02*
X208208428Y-61584609D01*
X208208428Y-61584609D02*
X208256047Y-61536990D01*
X208256047Y-61536990D02*
X208303666Y-61441752D01*
X208303666Y-61441752D02*
X208303666Y-61203657D01*
X208303666Y-61203657D02*
X208256047Y-61108419D01*
X208256047Y-61108419D02*
X208208428Y-61060800D01*
X208208428Y-61060800D02*
X208113190Y-61013180D01*
X208113190Y-61013180D02*
X207827476Y-61013180D01*
X207827476Y-61013180D02*
X207732238Y-61060800D01*
X207732238Y-61060800D02*
X207684619Y-61108419D01*
X136580666Y-66508980D02*
X136580666Y-65794695D01*
X136580666Y-65794695D02*
X136533047Y-65651838D01*
X136533047Y-65651838D02*
X136437809Y-65556600D01*
X136437809Y-65556600D02*
X136294952Y-65508980D01*
X136294952Y-65508980D02*
X136199714Y-65508980D01*
X137056857Y-65508980D02*
X137056857Y-66508980D01*
X137056857Y-66508980D02*
X137437809Y-66508980D01*
X137437809Y-66508980D02*
X137533047Y-66461361D01*
X137533047Y-66461361D02*
X137580666Y-66413742D01*
X137580666Y-66413742D02*
X137628285Y-66318504D01*
X137628285Y-66318504D02*
X137628285Y-66175647D01*
X137628285Y-66175647D02*
X137580666Y-66080409D01*
X137580666Y-66080409D02*
X137533047Y-66032790D01*
X137533047Y-66032790D02*
X137437809Y-65985171D01*
X137437809Y-65985171D02*
X137056857Y-65985171D01*
X138533047Y-66508980D02*
X138056857Y-66508980D01*
X138056857Y-66508980D02*
X138009238Y-66032790D01*
X138009238Y-66032790D02*
X138056857Y-66080409D01*
X138056857Y-66080409D02*
X138152095Y-66128028D01*
X138152095Y-66128028D02*
X138390190Y-66128028D01*
X138390190Y-66128028D02*
X138485428Y-66080409D01*
X138485428Y-66080409D02*
X138533047Y-66032790D01*
X138533047Y-66032790D02*
X138580666Y-65937552D01*
X138580666Y-65937552D02*
X138580666Y-65699457D01*
X138580666Y-65699457D02*
X138533047Y-65604219D01*
X138533047Y-65604219D02*
X138485428Y-65556600D01*
X138485428Y-65556600D02*
X138390190Y-65508980D01*
X138390190Y-65508980D02*
X138152095Y-65508980D01*
X138152095Y-65508980D02*
X138056857Y-65556600D01*
X138056857Y-65556600D02*
X138009238Y-65604219D01*
X176738066Y-66686780D02*
X176738066Y-65972495D01*
X176738066Y-65972495D02*
X176690447Y-65829638D01*
X176690447Y-65829638D02*
X176595209Y-65734400D01*
X176595209Y-65734400D02*
X176452352Y-65686780D01*
X176452352Y-65686780D02*
X176357114Y-65686780D01*
X177214257Y-65686780D02*
X177214257Y-66686780D01*
X177214257Y-66686780D02*
X177595209Y-66686780D01*
X177595209Y-66686780D02*
X177690447Y-66639161D01*
X177690447Y-66639161D02*
X177738066Y-66591542D01*
X177738066Y-66591542D02*
X177785685Y-66496304D01*
X177785685Y-66496304D02*
X177785685Y-66353447D01*
X177785685Y-66353447D02*
X177738066Y-66258209D01*
X177738066Y-66258209D02*
X177690447Y-66210590D01*
X177690447Y-66210590D02*
X177595209Y-66162971D01*
X177595209Y-66162971D02*
X177214257Y-66162971D01*
X178642828Y-66686780D02*
X178452352Y-66686780D01*
X178452352Y-66686780D02*
X178357114Y-66639161D01*
X178357114Y-66639161D02*
X178309495Y-66591542D01*
X178309495Y-66591542D02*
X178214257Y-66448685D01*
X178214257Y-66448685D02*
X178166638Y-66258209D01*
X178166638Y-66258209D02*
X178166638Y-65877257D01*
X178166638Y-65877257D02*
X178214257Y-65782019D01*
X178214257Y-65782019D02*
X178261876Y-65734400D01*
X178261876Y-65734400D02*
X178357114Y-65686780D01*
X178357114Y-65686780D02*
X178547590Y-65686780D01*
X178547590Y-65686780D02*
X178642828Y-65734400D01*
X178642828Y-65734400D02*
X178690447Y-65782019D01*
X178690447Y-65782019D02*
X178738066Y-65877257D01*
X178738066Y-65877257D02*
X178738066Y-66115352D01*
X178738066Y-66115352D02*
X178690447Y-66210590D01*
X178690447Y-66210590D02*
X178642828Y-66258209D01*
X178642828Y-66258209D02*
X178547590Y-66305828D01*
X178547590Y-66305828D02*
X178357114Y-66305828D01*
X178357114Y-66305828D02*
X178261876Y-66258209D01*
X178261876Y-66258209D02*
X178214257Y-66210590D01*
X178214257Y-66210590D02*
X178166638Y-66115352D01*
X152709666Y-70395180D02*
X152709666Y-69680895D01*
X152709666Y-69680895D02*
X152662047Y-69538038D01*
X152662047Y-69538038D02*
X152566809Y-69442800D01*
X152566809Y-69442800D02*
X152423952Y-69395180D01*
X152423952Y-69395180D02*
X152328714Y-69395180D01*
X153185857Y-69395180D02*
X153185857Y-70395180D01*
X153185857Y-70395180D02*
X153566809Y-70395180D01*
X153566809Y-70395180D02*
X153662047Y-70347561D01*
X153662047Y-70347561D02*
X153709666Y-70299942D01*
X153709666Y-70299942D02*
X153757285Y-70204704D01*
X153757285Y-70204704D02*
X153757285Y-70061847D01*
X153757285Y-70061847D02*
X153709666Y-69966609D01*
X153709666Y-69966609D02*
X153662047Y-69918990D01*
X153662047Y-69918990D02*
X153566809Y-69871371D01*
X153566809Y-69871371D02*
X153185857Y-69871371D01*
X154614428Y-70061847D02*
X154614428Y-69395180D01*
X154376333Y-70442800D02*
X154138238Y-69728514D01*
X154138238Y-69728514D02*
X154757285Y-69728514D01*
X149891714Y-71300180D02*
X149320286Y-71300180D01*
X149606000Y-71300180D02*
X149606000Y-72300180D01*
X149606000Y-72300180D02*
X149510762Y-72157323D01*
X149510762Y-72157323D02*
X149415524Y-72062085D01*
X149415524Y-72062085D02*
X149320286Y-72014466D01*
X196905666Y-61886180D02*
X196905666Y-61171895D01*
X196905666Y-61171895D02*
X196858047Y-61029038D01*
X196858047Y-61029038D02*
X196762809Y-60933800D01*
X196762809Y-60933800D02*
X196619952Y-60886180D01*
X196619952Y-60886180D02*
X196524714Y-60886180D01*
X197381857Y-60886180D02*
X197381857Y-61886180D01*
X197381857Y-61886180D02*
X197762809Y-61886180D01*
X197762809Y-61886180D02*
X197858047Y-61838561D01*
X197858047Y-61838561D02*
X197905666Y-61790942D01*
X197905666Y-61790942D02*
X197953285Y-61695704D01*
X197953285Y-61695704D02*
X197953285Y-61552847D01*
X197953285Y-61552847D02*
X197905666Y-61457609D01*
X197905666Y-61457609D02*
X197858047Y-61409990D01*
X197858047Y-61409990D02*
X197762809Y-61362371D01*
X197762809Y-61362371D02*
X197381857Y-61362371D01*
X198334238Y-61790942D02*
X198381857Y-61838561D01*
X198381857Y-61838561D02*
X198477095Y-61886180D01*
X198477095Y-61886180D02*
X198715190Y-61886180D01*
X198715190Y-61886180D02*
X198810428Y-61838561D01*
X198810428Y-61838561D02*
X198858047Y-61790942D01*
X198858047Y-61790942D02*
X198905666Y-61695704D01*
X198905666Y-61695704D02*
X198905666Y-61600466D01*
X198905666Y-61600466D02*
X198858047Y-61457609D01*
X198858047Y-61457609D02*
X198286619Y-60886180D01*
X198286619Y-60886180D02*
X198905666Y-60886180D01*
D15*
%TO.C,J2*%
X213551001Y-84251800D02*
G75*
G03*
X212789001Y-84251800I-381000J0D01*
G01*
X212789001Y-84251800D02*
G75*
G03*
X213551001Y-84251800I381000J0D01*
G01*
%TO.C,J4*%
X157911800Y-72567900D02*
G75*
G03*
X157149800Y-72567900I-381000J0D01*
G01*
X157149800Y-72567900D02*
G75*
G03*
X157911800Y-72567900I381000J0D01*
G01*
%TO.C,U6*%
X166395400Y-66827400D02*
G75*
G03*
X165633400Y-66827400I-381000J0D01*
G01*
X165633400Y-66827400D02*
G75*
G03*
X166395400Y-66827400I381000J0D01*
G01*
D16*
%TO.C,JP3*%
X205105000Y-62103000D02*
X205105000Y-60833000D01*
X205105000Y-60833000D02*
X202311000Y-60833000D01*
X202311000Y-62103000D02*
X205105000Y-62103000D01*
X202311000Y-60833000D02*
X202311000Y-62103000D01*
%TO.C,JP5*%
X136039400Y-62652400D02*
X136039400Y-64652400D01*
X136039400Y-64652400D02*
X138839400Y-64652400D01*
X138839400Y-62652400D02*
X136039400Y-62652400D01*
X138839400Y-64652400D02*
X138839400Y-62652400D01*
%TO.C,JP6*%
X173860000Y-62246000D02*
X173860000Y-64246000D01*
X173860000Y-64246000D02*
X176660000Y-64246000D01*
X176660000Y-62246000D02*
X173860000Y-62246000D01*
X176660000Y-64246000D02*
X176660000Y-62246000D01*
%TO.C,JP4*%
X150241000Y-72136000D02*
X151511000Y-72136000D01*
X151511000Y-72136000D02*
X151511000Y-69342000D01*
X150241000Y-69342000D02*
X150241000Y-72136000D01*
X150495000Y-69342000D02*
X150241000Y-69342000D01*
X151511000Y-69342000D02*
X151257000Y-69342000D01*
X150241000Y-68707000D02*
X150241000Y-67818000D01*
X151511000Y-68707000D02*
X151511000Y-67818000D01*
X151511000Y-67818000D02*
X150241000Y-67818000D01*
%TO.C,J8*%
X122320000Y-66930000D02*
X122320000Y-69610000D01*
X121600000Y-66930000D02*
X122320000Y-66930000D01*
X117900000Y-66930000D02*
X120200000Y-66930000D01*
X112050000Y-66930000D02*
X116500000Y-66930000D01*
X110680000Y-68410000D02*
X110680000Y-69270000D01*
X122320000Y-71910000D02*
X122320000Y-75580000D01*
X122320000Y-77880000D02*
X122320000Y-79110000D01*
X122320000Y-79110000D02*
X112500000Y-79110000D01*
%TO.C,C41*%
X169588548Y-62993600D02*
X170111052Y-62993600D01*
X169588548Y-64463600D02*
X170111052Y-64463600D01*
%TO.C,JP2*%
X199263000Y-63627000D02*
X199263000Y-62357000D01*
X199263000Y-62357000D02*
X196469000Y-62357000D01*
X196469000Y-63627000D02*
X199263000Y-63627000D01*
X196469000Y-62357000D02*
X196469000Y-63627000D01*
%TD*%
M02*
