%TF.GenerationSoftware,KiCad,Pcbnew,7.0.10*%
%TF.CreationDate,2025-01-28T22:59:33+01:00*%
%TF.ProjectId,BugWiperPCB,42756757-6970-4657-9250-43422e6b6963,rev?*%
%TF.SameCoordinates,Original*%
%TF.FileFunction,Copper,L4,Bot*%
%TF.FilePolarity,Positive*%
%FSLAX46Y46*%
G04 Gerber Fmt 4.6, Leading zero omitted, Abs format (unit mm)*
G04 Created by KiCad (PCBNEW 7.0.10) date 2025-01-28 22:59:33*
%MOMM*%
%LPD*%
G01*
G04 APERTURE LIST*
G04 Aperture macros list*
%AMRoundRect*
0 Rectangle with rounded corners*
0 $1 Rounding radius*
0 $2 $3 $4 $5 $6 $7 $8 $9 X,Y pos of 4 corners*
0 Add a 4 corners polygon primitive as box body*
4,1,4,$2,$3,$4,$5,$6,$7,$8,$9,$2,$3,0*
0 Add four circle primitives for the rounded corners*
1,1,$1+$1,$2,$3*
1,1,$1+$1,$4,$5*
1,1,$1+$1,$6,$7*
1,1,$1+$1,$8,$9*
0 Add four rect primitives between the rounded corners*
20,1,$1+$1,$2,$3,$4,$5,0*
20,1,$1+$1,$4,$5,$6,$7,0*
20,1,$1+$1,$6,$7,$8,$9,0*
20,1,$1+$1,$8,$9,$2,$3,0*%
G04 Aperture macros list end*
%TA.AperFunction,EtchedComponent*%
%ADD10C,0.400000*%
%TD*%
%TA.AperFunction,SMDPad,CuDef*%
%ADD11R,1.000000X0.800000*%
%TD*%
%TA.AperFunction,SMDPad,CuDef*%
%ADD12R,0.800000X1.000000*%
%TD*%
%TA.AperFunction,ComponentPad*%
%ADD13C,5.600000*%
%TD*%
%TA.AperFunction,ComponentPad*%
%ADD14C,1.701800*%
%TD*%
%TA.AperFunction,ComponentPad*%
%ADD15R,2.025000X2.025000*%
%TD*%
%TA.AperFunction,ComponentPad*%
%ADD16C,2.025000*%
%TD*%
%TA.AperFunction,ComponentPad*%
%ADD17C,1.270000*%
%TD*%
%TA.AperFunction,ComponentPad*%
%ADD18C,3.810000*%
%TD*%
%TA.AperFunction,ComponentPad*%
%ADD19O,1.000000X2.100000*%
%TD*%
%TA.AperFunction,ComponentPad*%
%ADD20O,1.000000X1.800000*%
%TD*%
%TA.AperFunction,ComponentPad*%
%ADD21R,2.100000X2.100000*%
%TD*%
%TA.AperFunction,ComponentPad*%
%ADD22C,2.100000*%
%TD*%
%TA.AperFunction,ComponentPad*%
%ADD23C,3.600000*%
%TD*%
%TA.AperFunction,ConnectorPad*%
%ADD24C,5.600000*%
%TD*%
%TA.AperFunction,ComponentPad*%
%ADD25RoundRect,0.250000X0.600000X0.750000X-0.600000X0.750000X-0.600000X-0.750000X0.600000X-0.750000X0*%
%TD*%
%TA.AperFunction,ComponentPad*%
%ADD26O,1.700000X2.000000*%
%TD*%
%TA.AperFunction,ComponentPad*%
%ADD27C,1.524000*%
%TD*%
%TA.AperFunction,ComponentPad*%
%ADD28C,0.750000*%
%TD*%
%TA.AperFunction,SMDPad,CuDef*%
%ADD29R,1.100000X0.850000*%
%TD*%
%TA.AperFunction,SMDPad,CuDef*%
%ADD30R,1.100000X0.750000*%
%TD*%
%TA.AperFunction,SMDPad,CuDef*%
%ADD31R,1.000000X1.200000*%
%TD*%
%TA.AperFunction,SMDPad,CuDef*%
%ADD32R,1.350000X1.550000*%
%TD*%
%TA.AperFunction,SMDPad,CuDef*%
%ADD33R,1.350000X1.900000*%
%TD*%
%TA.AperFunction,SMDPad,CuDef*%
%ADD34R,1.800000X1.170000*%
%TD*%
%TA.AperFunction,ViaPad*%
%ADD35C,0.800000*%
%TD*%
%TA.AperFunction,ViaPad*%
%ADD36C,0.500000*%
%TD*%
%TA.AperFunction,ViaPad*%
%ADD37C,0.600000*%
%TD*%
%TA.AperFunction,Conductor*%
%ADD38C,0.500000*%
%TD*%
%TA.AperFunction,Conductor*%
%ADD39C,0.750000*%
%TD*%
G04 APERTURE END LIST*
D10*
%TO.C,JP4*%
X150876000Y-71501000D02*
X150876000Y-70231000D01*
%TA.AperFunction,EtchedComponent*%
%TO.C,JP2*%
G36*
X198366000Y-63195200D02*
G01*
X197459600Y-63195200D01*
X197459600Y-62795200D01*
X198366000Y-62795200D01*
X198366000Y-63195200D01*
G37*
%TD.AperFunction*%
%TA.AperFunction,EtchedComponent*%
%TO.C,JP3*%
G36*
X204208000Y-61671200D02*
G01*
X203301600Y-61671200D01*
X203301600Y-61271200D01*
X204208000Y-61271200D01*
X204208000Y-61671200D01*
G37*
%TD.AperFunction*%
%TD*%
D11*
%TO.P,JP4,1,A*%
%TO.N,+12V*%
X150876000Y-71577000D03*
%TO.P,JP4,2,C*%
%TO.N,Net-(JP4-C)*%
X150876000Y-69977000D03*
%TO.P,JP4,3,B*%
%TO.N,+3.3V*%
X150876000Y-68377000D03*
%TD*%
D12*
%TO.P,JP2,1,A*%
%TO.N,EN_C1*%
X198704000Y-62992000D03*
%TO.P,JP2,2,A*%
%TO.N,Enc_1*%
X197104000Y-62992000D03*
%TD*%
%TO.P,JP3,1,A*%
%TO.N,EN_C2*%
X204546000Y-61468000D03*
%TO.P,JP3,2,A*%
%TO.N,Enc_2*%
X202946000Y-61468000D03*
%TD*%
D13*
%TO.P,H2,1*%
%TO.N,N/C*%
X163000000Y-64000000D03*
%TD*%
D14*
%TO.P,J2,1,1*%
%TO.N,Net-(F2-Pad1)*%
X213170001Y-81141601D03*
%TO.P,J2,2,2*%
X218170001Y-81141601D03*
%TO.P,J2,3,3*%
%TO.N,/GND2*%
X213170001Y-78641601D03*
%TO.P,J2,4,4*%
X218170001Y-78641601D03*
%TO.P,J2,5,5*%
%TO.N,EN_C2*%
X213170001Y-76141600D03*
%TO.P,J2,6,6*%
X218170001Y-76141600D03*
%TO.P,J2,7,7*%
%TO.N,EN_C1*%
X213170001Y-73641600D03*
%TO.P,J2,8,8*%
X218170001Y-73641600D03*
%TO.P,J2,9,9*%
%TO.N,/GND2*%
X213170001Y-71141600D03*
%TO.P,J2,10,10*%
X218170001Y-71141600D03*
%TO.P,J2,11,11*%
%TO.N,sw_1*%
X213170001Y-68641600D03*
%TO.P,J2,12,12*%
X218170001Y-68641600D03*
%TD*%
D15*
%TO.P,J6,1,1*%
%TO.N,/Power/Motor+*%
X217346000Y-89888000D03*
D16*
%TO.P,J6,2,2*%
X210346000Y-89888000D03*
%TO.P,J6,3,3*%
%TO.N,/Power/Motor-*%
X217346000Y-86388000D03*
%TO.P,J6,4,4*%
X210346000Y-86388000D03*
%TD*%
D17*
%TO.P,J4,1*%
%TO.N,/ESP32-S3/GND3*%
X155702000Y-73380700D03*
%TO.P,J4,2*%
%TO.N,Net-(RN3C-R3.1)*%
X154432000Y-75920700D03*
%TO.P,J4,3*%
%TO.N,Net-(RN3D-R4.1)*%
X153162000Y-73380700D03*
%TO.P,J4,4*%
%TO.N,Net-(RN6-R1.1)*%
X151892000Y-75920700D03*
%TO.P,J4,5*%
%TO.N,Net-(RN6-R2.1)*%
X150622000Y-73380700D03*
%TO.P,J4,6*%
%TO.N,Net-(RN6-R3.1)*%
X149352000Y-75920700D03*
%TO.P,J4,7*%
%TO.N,Net-(RN6-R4.1)*%
X148082000Y-73380700D03*
%TO.P,J4,8*%
%TO.N,Net-(F1-Pad2)*%
X146812000Y-75920700D03*
D18*
%TO.P,J4,SH*%
%TO.N,/ESP32-S3/GND3*%
X156972000Y-67030700D03*
X145542000Y-67030700D03*
%TD*%
D13*
%TO.P,H3,1*%
%TO.N,N/C*%
X216000000Y-64000000D03*
%TD*%
%TO.P,H4,1*%
%TO.N,N/C*%
X114000000Y-90000000D03*
%TD*%
D19*
%TO.P,J1,SH1,SHIELD*%
%TO.N,GND*%
X141636400Y-65652800D03*
%TO.P,J1,SH2,SHIELD*%
X132996400Y-65652800D03*
D20*
%TO.P,J1,SH3,SHIELD*%
X141636400Y-61472800D03*
%TO.P,J1,SH4,SHIELD*%
X132996400Y-61472800D03*
%TD*%
D21*
%TO.P,J3,1,1*%
%TO.N,/Power/+VBat*%
X197353000Y-67591500D03*
D22*
%TO.P,J3,2,2*%
%TO.N,GND*%
X202433000Y-67591500D03*
%TD*%
D23*
%TO.P,H5,1,1*%
%TO.N,Net-(C27-Pad1)*%
X216000000Y-96000000D03*
D24*
X216000000Y-96000000D03*
%TD*%
D25*
%TO.P,J7,1,Pin_1*%
%TO.N,GND*%
X154990800Y-93319600D03*
D26*
%TO.P,J7,2,Pin_2*%
%TO.N,sw_2*%
X152490800Y-93319600D03*
%TD*%
D27*
%TO.P,U6,1,+VIN*%
%TO.N,Net-(U6-+VIN)*%
X170078400Y-66827400D03*
%TO.P,U6,2,GND*%
%TO.N,GND*%
X172618400Y-66827400D03*
%TO.P,U6,3,+VOUT*%
%TO.N,+3.3V*%
X175158400Y-66827400D03*
%TD*%
D28*
%TO.P,S1,S1,SHIELD__1*%
%TO.N,GND*%
X128336400Y-60694800D03*
%TO.P,S1,S2,SHIELD__2*%
X123936400Y-60694800D03*
%TD*%
D13*
%TO.P,H1,1*%
%TO.N,N/C*%
X114000000Y-64000000D03*
%TD*%
D28*
%TO.P,S2,S1,SHIELD__1*%
%TO.N,GND*%
X121453000Y-60694800D03*
%TO.P,S2,S2,SHIELD__2*%
X117053000Y-60694800D03*
%TD*%
D29*
%TO.P,J8,1,DAT2*%
%TO.N,DAT2*%
X111050000Y-69895000D03*
%TO.P,J8,2,DAT3/CD*%
%TO.N,SD_CS*%
X111050000Y-70995000D03*
%TO.P,J8,3,CMD*%
%TO.N,MOSI*%
X111050000Y-72095000D03*
%TO.P,J8,4,VDD*%
%TO.N,+3.3V*%
X111050000Y-73195000D03*
%TO.P,J8,5,CLK*%
%TO.N,CLK*%
X111050000Y-74295000D03*
%TO.P,J8,6,VSS*%
%TO.N,GND*%
X111050000Y-75395000D03*
%TO.P,J8,7,DAT0*%
%TO.N,MISO*%
X111050000Y-76495000D03*
D30*
%TO.P,J8,8,DAT1*%
%TO.N,DAT1*%
X111050000Y-77545000D03*
D31*
%TO.P,J8,9,DET_B*%
%TO.N,SD_DET*%
X117200000Y-67260000D03*
%TO.P,J8,10,DET_A*%
%TO.N,GND*%
X120900000Y-67260000D03*
D32*
%TO.P,J8,11,SHIELD*%
X111175000Y-67435000D03*
D33*
X121875000Y-70760000D03*
X121875000Y-76730000D03*
D34*
X111400000Y-78755000D03*
%TD*%
D35*
%TO.N,Boot*%
X111760000Y-81534000D03*
X118745000Y-65659000D03*
X124104400Y-62105000D03*
%TO.N,EN*%
X120523000Y-86487000D03*
X114808000Y-86106000D03*
%TO.N,sw_1*%
X157808712Y-71664564D03*
X212128000Y-66294000D03*
%TO.N,GND*%
X129387600Y-90525600D03*
D36*
X165354000Y-88214200D03*
X187985400Y-95097600D03*
X188620400Y-95097600D03*
X191389000Y-67411600D03*
X128168400Y-82397600D03*
X164084000Y-92659200D03*
X208534000Y-69850000D03*
D35*
X141732000Y-85039200D03*
D36*
X171272200Y-73507600D03*
D35*
X126847600Y-67310000D03*
D36*
X192024000Y-68046600D03*
X128168400Y-85140800D03*
X137500000Y-67750000D03*
X199593200Y-89077800D03*
X164084000Y-88214200D03*
X167259000Y-92659200D03*
X180771800Y-82194400D03*
X181406800Y-80924400D03*
X185242200Y-83540600D03*
X201955400Y-71501000D03*
X187985400Y-94462600D03*
X189484000Y-68681600D03*
X171907200Y-73507600D03*
D35*
X205943200Y-97688400D03*
D36*
X183337200Y-83540600D03*
X187985400Y-93827600D03*
X201955400Y-72136000D03*
X191389000Y-68681600D03*
D35*
X156236060Y-96405800D03*
D36*
X167894000Y-92659200D03*
X164719000Y-93294200D03*
X183972200Y-83540600D03*
X190119000Y-68046600D03*
X187350400Y-95732600D03*
D35*
X113225413Y-75152957D03*
D36*
X111556800Y-79705200D03*
X189484000Y-68046600D03*
X188620400Y-94462600D03*
X198882000Y-89916000D03*
X166624000Y-88214200D03*
X172542200Y-73507600D03*
X129540000Y-85140800D03*
X180771800Y-80924400D03*
X201955400Y-70866000D03*
X192024000Y-67411600D03*
X164719000Y-87579200D03*
X165354000Y-93294200D03*
X129540000Y-83769200D03*
X198805800Y-74726800D03*
X165100000Y-67310000D03*
X198805800Y-75361800D03*
X128117600Y-86614000D03*
X185877200Y-84175600D03*
X198170800Y-74726800D03*
X167894000Y-87579200D03*
X141558200Y-72136000D03*
X187985400Y-96367600D03*
D35*
X141478000Y-67665600D03*
D36*
X164719000Y-88214200D03*
X133451600Y-72136000D03*
X173177200Y-73507600D03*
X151982400Y-84559971D03*
X180771800Y-82829400D03*
X166624000Y-87579200D03*
X139827000Y-76327000D03*
X164719000Y-87579200D03*
X167259000Y-93294200D03*
X201320400Y-73406000D03*
D35*
X147966901Y-86639400D03*
D36*
X167259000Y-87579200D03*
X190754000Y-68681600D03*
X188620400Y-95732600D03*
X164719000Y-92659200D03*
X170840400Y-71374000D03*
X187350400Y-94462600D03*
X184607200Y-84175600D03*
X121875000Y-72593200D03*
X129540000Y-86614000D03*
D37*
X183997600Y-61366400D03*
D36*
X187350400Y-93827600D03*
D35*
X130454400Y-65735200D03*
D36*
X164084000Y-92659200D03*
X207772000Y-69850000D03*
X167894000Y-88214200D03*
X164084000Y-93294200D03*
D35*
X213233000Y-98552000D03*
D36*
X183870600Y-65176400D03*
X201955400Y-72771000D03*
X185140600Y-65176400D03*
X190754000Y-68046600D03*
D35*
X139082131Y-84503949D03*
D36*
X129540000Y-82397600D03*
D35*
X159715200Y-91414800D03*
X120680000Y-92172000D03*
X126542800Y-72694800D03*
D36*
X201320400Y-72136000D03*
X181406800Y-81559400D03*
X198170800Y-75361800D03*
X166624000Y-93294200D03*
X191389000Y-68046600D03*
X167894000Y-93294200D03*
X198882000Y-89077800D03*
X181406800Y-82829400D03*
X164719000Y-92659200D03*
X169367200Y-73507600D03*
X197459600Y-89941400D03*
X198170800Y-89103200D03*
X170840400Y-72009000D03*
X198170800Y-89941400D03*
X187350400Y-96367600D03*
X188620400Y-93827600D03*
X164084000Y-87579200D03*
X184505600Y-65176400D03*
X164719000Y-88214200D03*
X201422000Y-87884000D03*
X165354000Y-92659200D03*
X165989000Y-88214200D03*
X165862000Y-68199000D03*
D35*
X119037000Y-71995036D03*
X122682000Y-61305000D03*
D36*
X187985400Y-95732600D03*
X170002200Y-73507600D03*
X190119000Y-68681600D03*
X189484000Y-67411600D03*
X190119000Y-67411600D03*
D35*
X152845086Y-96355000D03*
D36*
X201422000Y-86004400D03*
X167259000Y-88214200D03*
D35*
X146608800Y-96113600D03*
D36*
X183235600Y-65176400D03*
X201955400Y-73406000D03*
X187350400Y-95097600D03*
X201320400Y-70866000D03*
X165354000Y-87579200D03*
X128168400Y-83769200D03*
X196799200Y-89941400D03*
X201422000Y-85344000D03*
X199593200Y-89916000D03*
X165989000Y-92659200D03*
X185242200Y-84175600D03*
X180771800Y-81559400D03*
X196799200Y-89103200D03*
X130962400Y-85140800D03*
D35*
X122174000Y-92202000D03*
D36*
X168732200Y-73507600D03*
X201422000Y-86664800D03*
X183337200Y-84175600D03*
X185877200Y-83540600D03*
D35*
X130403600Y-90525600D03*
D36*
X192024000Y-68681600D03*
X166624000Y-92659200D03*
X201320400Y-72771000D03*
X126746000Y-85140800D03*
X181406800Y-82194400D03*
D35*
X159715200Y-86614000D03*
X164338000Y-80556000D03*
D36*
X164084000Y-87579200D03*
X201320400Y-71501000D03*
X197459600Y-89103200D03*
X121869200Y-78079600D03*
X170637200Y-73507600D03*
D35*
X111760000Y-82804000D03*
D36*
X165989000Y-93294200D03*
X188620400Y-96367600D03*
D35*
X149456138Y-96551264D03*
D36*
X170840400Y-70739000D03*
D35*
X162115200Y-95402400D03*
D36*
X183972200Y-84175600D03*
X209296000Y-69850000D03*
D35*
X110998000Y-66395600D03*
D36*
X201422000Y-87274400D03*
X173812200Y-73507600D03*
X130962400Y-83769200D03*
X126746000Y-83769200D03*
X164973000Y-68199000D03*
X165989000Y-87579200D03*
D35*
X128473200Y-90518400D03*
D36*
X184607200Y-83540600D03*
X190754000Y-67411600D03*
X164719000Y-93294200D03*
%TO.N,+12V*%
X178917600Y-77825600D03*
X178917600Y-74015600D03*
X176199800Y-91465400D03*
X176199800Y-90830400D03*
X175564800Y-89560400D03*
X175615600Y-82092800D03*
X177647600Y-77825600D03*
X171729400Y-93268800D03*
X172364400Y-87579200D03*
X176199800Y-89560400D03*
X175133000Y-76327000D03*
X175133000Y-78232000D03*
X175615600Y-81457800D03*
X175133000Y-77597000D03*
D35*
X171958000Y-91364800D03*
D36*
X175615600Y-80822800D03*
X177647600Y-76555600D03*
D35*
X178562000Y-67564000D03*
D36*
X175564800Y-90830400D03*
X173634400Y-93268800D03*
X178917600Y-75285600D03*
X172999400Y-93268800D03*
X171729400Y-87579200D03*
X175133000Y-76962000D03*
X176199800Y-90195400D03*
X178917600Y-76555600D03*
D35*
X162891200Y-91364800D03*
X163525200Y-76606400D03*
D36*
X172364400Y-93268800D03*
X172999400Y-87579200D03*
X175564800Y-91465400D03*
X175564800Y-90195400D03*
X175768000Y-76327000D03*
X177647600Y-74015600D03*
X175768000Y-76962000D03*
X175768000Y-78232000D03*
D35*
X164338000Y-77419200D03*
D36*
X173634400Y-87579200D03*
X175768000Y-77597000D03*
X175615600Y-82727800D03*
X177647600Y-75285600D03*
%TO.N,/Power/+VBat*%
X195554600Y-74244200D03*
X195554600Y-76149200D03*
X194919600Y-73609200D03*
X194919600Y-74879200D03*
X194919600Y-75514200D03*
X194919600Y-76149200D03*
X195554600Y-73609200D03*
X195554600Y-75514200D03*
X195554600Y-74879200D03*
X194919600Y-74244200D03*
D35*
%TO.N,/ESP32-S3/ADC_VBat*%
X141122400Y-89458800D03*
X158899935Y-93819400D03*
%TO.N,EN_C1*%
X210820000Y-64262000D03*
%TO.N,Net-(CR1-IO_2)*%
X121557514Y-64509114D03*
X145567400Y-80746600D03*
X133604000Y-78359000D03*
X124764800Y-78613000D03*
%TO.N,EN_C2*%
X208483200Y-61518800D03*
%TO.N,Net-(U2-IS)*%
X196523057Y-94068000D03*
X194596285Y-97619085D03*
D36*
%TO.N,Net-(U3-IS)*%
X194005200Y-88392000D03*
X191439800Y-90906600D03*
D35*
X151256500Y-97055000D03*
X195072000Y-83159600D03*
%TO.N,Net-(CR1-IO_3)*%
X128066800Y-77317600D03*
X123850400Y-64516000D03*
D36*
X148851620Y-83014820D03*
D35*
X133604000Y-77325635D03*
D36*
%TO.N,Net-(CR1-IO_4)*%
X149974300Y-83070700D03*
D35*
X125120400Y-64516000D03*
X133604000Y-80645000D03*
X129082800Y-80113000D03*
D36*
%TO.N,+12V_HighSide*%
X180848000Y-87985600D03*
X182118000Y-90805000D03*
X179578000Y-87985600D03*
X196748400Y-87223600D03*
X182118000Y-90170000D03*
X196748400Y-86614000D03*
X181483000Y-90170000D03*
X197815200Y-97332800D03*
X192176400Y-93268800D03*
X196748400Y-84683600D03*
X192125600Y-84175600D03*
X196748400Y-85344000D03*
X196900800Y-81432400D03*
X182118000Y-89535000D03*
X196900800Y-82092800D03*
X197815200Y-96697800D03*
X196900800Y-80772000D03*
X190855600Y-84175600D03*
X190906400Y-93268800D03*
X181483000Y-87985600D03*
X181483000Y-90805000D03*
X191490600Y-84175600D03*
X182118000Y-91440000D03*
X181483000Y-91440000D03*
X198450200Y-96697800D03*
X198450200Y-97332800D03*
X181483000Y-89535000D03*
X180213000Y-87985600D03*
X196900800Y-82702400D03*
X191541400Y-93268800D03*
X196748400Y-86004400D03*
D35*
%TO.N,+3.3V*%
X176936400Y-93218000D03*
X162610800Y-96355000D03*
X162215600Y-85217118D03*
X111760000Y-84683600D03*
X120973314Y-62299314D03*
X133045200Y-90482000D03*
X130403600Y-67564000D03*
X150575901Y-87015699D03*
X150876000Y-66548000D03*
D36*
X178460400Y-61468000D03*
D35*
X134620003Y-90679000D03*
X150876000Y-67360800D03*
X137922000Y-72136000D03*
X115773200Y-71018400D03*
X112192129Y-73195000D03*
X133200000Y-68300000D03*
X156667200Y-84988400D03*
X133807200Y-90482000D03*
D36*
X177749200Y-61468000D03*
%TO.N,Enc1*%
X139446000Y-82905600D03*
D35*
X134823200Y-83261200D03*
%TO.N,Net-(CR1-IO_1)*%
X133623965Y-79417639D03*
X127152400Y-79413000D03*
D36*
X147144790Y-83139892D03*
D35*
X122682000Y-64516000D03*
%TO.N,IN_1*%
X125425200Y-72724600D03*
X125425200Y-69138800D03*
%TO.N,IN_4*%
X119837000Y-68681600D03*
X119700771Y-72849400D03*
%TO.N,OUT1*%
X152704800Y-87071200D03*
X132791200Y-76301600D03*
D36*
%TO.N,OUT2*%
X148183600Y-87782400D03*
D35*
X134366000Y-85902800D03*
%TO.N,/ESP32-S3/M_IS1*%
X150946286Y-92380025D03*
X156667200Y-83413600D03*
%TO.N,/ESP32-S3/M_IS2*%
X155397200Y-86563200D03*
X148132800Y-93954800D03*
X149817434Y-93314063D03*
X145894829Y-91793532D03*
%TO.N,/ESP32-S3/M_INH1*%
X193590566Y-97493434D03*
X195862722Y-93246722D03*
X129370783Y-68985830D03*
X134239000Y-88782000D03*
X130200400Y-81026000D03*
X148956000Y-94754800D03*
%TO.N,/ESP32-S3/M_IN2*%
X130320775Y-68990404D03*
X195580000Y-77520800D03*
%TO.N,/ESP32-S3/M_IN1*%
X145859500Y-97624900D03*
X131533900Y-69050942D03*
X195896681Y-92010681D03*
X142900400Y-91351000D03*
%TO.N,A_INA*%
X129540000Y-91694000D03*
X158600339Y-95554800D03*
%TO.N,/ESP32-S3/ADC_NTC*%
X207289400Y-98272600D03*
X145186400Y-98450400D03*
D36*
%TO.N,Net-(CR2-IO_1)*%
X153779712Y-90230025D03*
X159410400Y-83312000D03*
D35*
%TO.N,sw_2*%
X163017200Y-80975200D03*
D36*
%TO.N,/Power/+VBat\u002A*%
X180040008Y-69959442D03*
X182168800Y-75793600D03*
X183464200Y-69900800D03*
X184099200Y-69900800D03*
X184734200Y-69900800D03*
X182168800Y-76428600D03*
X182168800Y-75158600D03*
X185369200Y-69900800D03*
X178770008Y-69959442D03*
X179405008Y-69959442D03*
X178135008Y-69959442D03*
X182168800Y-74523600D03*
%TO.N,/Power/Motor+*%
X205689200Y-96418400D03*
X203149200Y-96418400D03*
X201879200Y-92608400D03*
X204419200Y-91338400D03*
X204419200Y-96418400D03*
X204419200Y-92608400D03*
X203149200Y-93878400D03*
X201879200Y-90068400D03*
X205689200Y-95148400D03*
X201879200Y-95148400D03*
X203149200Y-92608400D03*
X204419200Y-93878400D03*
X205689200Y-90068400D03*
X201879200Y-93878400D03*
X203149200Y-91338400D03*
X203149200Y-90068400D03*
X205689200Y-91338400D03*
X204419200Y-90068400D03*
X203149200Y-95148400D03*
X205689200Y-93878400D03*
X201879200Y-91338400D03*
X205689200Y-92608400D03*
X204419200Y-95148400D03*
X201879200Y-96418400D03*
%TO.N,/Power/Motor-*%
X205790800Y-79349600D03*
X205790800Y-76809600D03*
X204520800Y-75539600D03*
X204520800Y-76809600D03*
X203250800Y-75539600D03*
X203250800Y-78079600D03*
X204520800Y-80619600D03*
X204520800Y-79349600D03*
X201980800Y-78079600D03*
X201980800Y-79349600D03*
X201980800Y-81889600D03*
X203250800Y-81889600D03*
X201980800Y-80619600D03*
X203250800Y-80619600D03*
X204520800Y-78079600D03*
X204520800Y-81889600D03*
X205790800Y-75539600D03*
X205790800Y-80619600D03*
X201980800Y-76809600D03*
X201980800Y-75539600D03*
X203250800Y-76809600D03*
X205790800Y-81889600D03*
X205790800Y-78079600D03*
X203250800Y-79349600D03*
D35*
%TO.N,Net-(JP4-C)*%
X146024600Y-71602600D03*
%TO.N,Net-(JP1-C)*%
X205994000Y-71882000D03*
X208534000Y-75946000D03*
%TO.N,Enc_1*%
X159698898Y-70818771D03*
%TO.N,Enc_2*%
X158496000Y-70864564D03*
X180882002Y-62293600D03*
%TO.N,SD_CS*%
X120650000Y-82042000D03*
X113241660Y-70848953D03*
%TO.N,MOSI*%
X113454622Y-73095278D03*
X120700800Y-83261200D03*
%TO.N,CLK*%
X116789200Y-80264000D03*
X113388297Y-74042963D03*
%TO.N,MISO*%
X116230400Y-81381600D03*
X113439400Y-77243987D03*
%TO.N,DAT2*%
X113182400Y-69900800D03*
X117195600Y-69900800D03*
%TO.N,DAT1*%
X114503200Y-78202000D03*
%TO.N,/ESP32-S3/M_INH2*%
X195444441Y-78858441D03*
X143256000Y-72136000D03*
X143256000Y-70320000D03*
X128548250Y-68510493D03*
%TO.N,SD_DET*%
X120650000Y-89611200D03*
D36*
%TO.N,/GND2*%
X210312000Y-75184000D03*
X209550000Y-75184000D03*
X210312000Y-74422000D03*
%TO.N,/ESP32-S3/GND3*%
X160020000Y-68072000D03*
X160020000Y-67310000D03*
X160782000Y-67310000D03*
%TD*%
D38*
%TO.N,Boot*%
X118745000Y-65659000D02*
X122299000Y-62105000D01*
X122299000Y-62105000D02*
X124104400Y-62105000D01*
%TO.N,EN*%
X114808000Y-86106000D02*
X115189000Y-86487000D01*
X115189000Y-86487000D02*
X120523000Y-86487000D01*
%TO.N,sw_1*%
X160947200Y-71208800D02*
X168821200Y-71208800D01*
X193700400Y-63296800D02*
X195224400Y-64820800D01*
X157808712Y-71664564D02*
X160491436Y-71664564D01*
X185318400Y-63957200D02*
X185978800Y-63296800D01*
X168821200Y-71208800D02*
X170180000Y-69850000D01*
X206298800Y-67056000D02*
X211366000Y-67056000D01*
X160491436Y-71664564D02*
X160947200Y-71208800D01*
X204063600Y-64820800D02*
X206298800Y-67056000D01*
X170180000Y-69850000D02*
X175102762Y-69850000D01*
X175102762Y-69850000D02*
X180995562Y-63957200D01*
X185978800Y-63296800D02*
X193700400Y-63296800D01*
X195224400Y-64820800D02*
X204063600Y-64820800D01*
X211366000Y-67056000D02*
X212128000Y-66294000D01*
X180995562Y-63957200D02*
X185318400Y-63957200D01*
%TO.N,GND*%
X111400000Y-79548400D02*
X111556800Y-79705200D01*
X111175000Y-66572600D02*
X110998000Y-66395600D01*
X113225413Y-75152957D02*
X112983370Y-75395000D01*
X121463600Y-67260000D02*
X121875000Y-67671400D01*
X121869200Y-76735800D02*
X121875000Y-76730000D01*
X121875000Y-72593200D02*
X121875000Y-70760000D01*
X111400000Y-78755000D02*
X111400000Y-79548400D01*
X121869200Y-78079600D02*
X121869200Y-76735800D01*
X112983370Y-75395000D02*
X111050000Y-75395000D01*
X121875000Y-78073800D02*
X121875000Y-72593200D01*
X111175000Y-67435000D02*
X111175000Y-66572600D01*
X121875000Y-67671400D02*
X121875000Y-70760000D01*
X120900000Y-67260000D02*
X121463600Y-67260000D01*
X121869200Y-78079600D02*
X121875000Y-78073800D01*
D39*
%TO.N,+12V*%
X160451800Y-73533000D02*
X164338000Y-77419200D01*
X154279600Y-71983600D02*
X156819600Y-71983600D01*
X158369000Y-73533000D02*
X160451800Y-73533000D01*
D38*
X178308000Y-67564000D02*
X175154753Y-70717247D01*
X171958000Y-91364800D02*
X162891200Y-91364800D01*
X175154753Y-75494247D02*
X173228000Y-77421000D01*
X178562000Y-67564000D02*
X178308000Y-67564000D01*
X175154753Y-70717247D02*
X175154753Y-75494247D01*
D39*
X150977600Y-71551600D02*
X153847600Y-71551600D01*
X156819600Y-71983600D02*
X158369000Y-73533000D01*
X153847600Y-71551600D02*
X154279600Y-71983600D01*
D38*
%TO.N,/ESP32-S3/ADC_VBat*%
X141318600Y-89655000D02*
X145027000Y-89655000D01*
X145027000Y-89655000D02*
X150276800Y-94904800D01*
X150276800Y-94904800D02*
X157814535Y-94904800D01*
X141122400Y-89458800D02*
X141318600Y-89655000D01*
X157814535Y-94904800D02*
X158899935Y-93819400D01*
%TO.N,EN_C1*%
X210820000Y-64262000D02*
X210566000Y-64262000D01*
X209296000Y-62992000D02*
X198882000Y-62992000D01*
X210566000Y-64262000D02*
X209296000Y-62992000D01*
%TO.N,Net-(CR1-IO_2)*%
X123647200Y-66751200D02*
X123647200Y-77495400D01*
X144068800Y-79248000D02*
X145567400Y-80746600D01*
X123647200Y-77495400D02*
X124764800Y-78613000D01*
X133604000Y-78359000D02*
X133858000Y-78359000D01*
X133858000Y-78359000D02*
X134747000Y-79248000D01*
X134747000Y-79248000D02*
X144068800Y-79248000D01*
X121557514Y-64509114D02*
X121557514Y-64661514D01*
X121557514Y-64661514D02*
X123647200Y-66751200D01*
%TO.N,EN_C2*%
X208483200Y-61518800D02*
X204506400Y-61518800D01*
%TO.N,Net-(U2-IS)*%
X194803229Y-97412141D02*
X194596285Y-97619085D01*
X196523057Y-94068000D02*
X196523057Y-95703943D01*
X196523057Y-95703943D02*
X194720541Y-97506459D01*
%TO.N,Net-(U3-IS)*%
X195072000Y-87325200D02*
X195072000Y-83159600D01*
X155904689Y-97205800D02*
X188701439Y-97205800D01*
X155853889Y-97155000D02*
X155904689Y-97205800D01*
X188701439Y-97205800D02*
X189382400Y-96524839D01*
X189382400Y-96524839D02*
X189382400Y-92964000D01*
X151356500Y-97155000D02*
X155853889Y-97155000D01*
X151256500Y-97055000D02*
X151356500Y-97155000D01*
X189382400Y-92964000D02*
X191439800Y-90906600D01*
X194005200Y-88392000D02*
X195072000Y-87325200D01*
%TO.N,Net-(CR1-IO_3)*%
X143348517Y-77325635D02*
X148851620Y-82828738D01*
X126746000Y-68681600D02*
X125933200Y-67868800D01*
X148851620Y-82828738D02*
X148851620Y-83014820D01*
X126746000Y-70967600D02*
X126746000Y-68681600D01*
X125933200Y-66598800D02*
X123850400Y-64516000D01*
X128066800Y-77317600D02*
X128066800Y-72288400D01*
X125933200Y-67868800D02*
X125933200Y-66598800D01*
X133604000Y-77325635D02*
X143348517Y-77325635D01*
X128066800Y-72288400D02*
X126746000Y-70967600D01*
%TO.N,Net-(CR1-IO_4)*%
X129082800Y-80113000D02*
X129082800Y-71475600D01*
X146618660Y-83989892D02*
X143417284Y-80788516D01*
X133747516Y-80788516D02*
X133604000Y-80645000D01*
X149196598Y-83989892D02*
X146618660Y-83989892D01*
X127508000Y-69900800D02*
X127508000Y-67780971D01*
X149974300Y-83070700D02*
X149974300Y-83212190D01*
X143417284Y-80788516D02*
X133747516Y-80788516D01*
X127508000Y-67780971D02*
X127647600Y-67641371D01*
X125184971Y-64516000D02*
X125120400Y-64516000D01*
X129082800Y-71475600D02*
X127508000Y-69900800D01*
X127647600Y-66978629D02*
X125184971Y-64516000D01*
X127647600Y-67641371D02*
X127647600Y-66978629D01*
X149974300Y-83212190D02*
X149196598Y-83989892D01*
%TO.N,+3.3V*%
X176936400Y-95453200D02*
X176936400Y-93218000D01*
D39*
X150876000Y-66548000D02*
X150876000Y-67360800D01*
D38*
X175971200Y-96418400D02*
X176936400Y-95453200D01*
X162610800Y-96355000D02*
X162674200Y-96418400D01*
X162674200Y-96418400D02*
X175971200Y-96418400D01*
X112192129Y-73195000D02*
X111050000Y-73195000D01*
D39*
X150876000Y-67360800D02*
X150876000Y-68376800D01*
D38*
%TO.N,Enc1*%
X139090400Y-83261200D02*
X139446000Y-82905600D01*
X134823200Y-83261200D02*
X139090400Y-83261200D01*
%TO.N,Net-(CR1-IO_1)*%
X143566718Y-79948000D02*
X146758610Y-83139892D01*
X124561600Y-66395600D02*
X122682000Y-64516000D01*
X124561600Y-76708000D02*
X124561600Y-66395600D01*
X134154326Y-79948000D02*
X143566718Y-79948000D01*
X127152400Y-79413000D02*
X127152400Y-79298800D01*
X146758610Y-83139892D02*
X147144790Y-83139892D01*
X127152400Y-79298800D02*
X124561600Y-76708000D01*
X133623965Y-79417639D02*
X134154326Y-79948000D01*
%TO.N,IN_1*%
X125425200Y-69138800D02*
X125425200Y-72724600D01*
%TO.N,IN_4*%
X119837000Y-68681600D02*
X119837000Y-72713171D01*
X119837000Y-72713171D02*
X119700771Y-72849400D01*
%TO.N,OUT1*%
X132791200Y-76301600D02*
X133465800Y-75627000D01*
X151282400Y-83362800D02*
X151282400Y-85648800D01*
X151282400Y-85648800D02*
X152704800Y-87071200D01*
X133465800Y-75627000D02*
X143546600Y-75627000D01*
X143546600Y-75627000D02*
X151282400Y-83362800D01*
%TO.N,OUT2*%
X134366000Y-85902800D02*
X136245600Y-87782400D01*
X136245600Y-87782400D02*
X148183600Y-87782400D01*
%TO.N,/ESP32-S3/M_IS1*%
X150946286Y-91979314D02*
X155562400Y-87363200D01*
X157073600Y-83413600D02*
X156667200Y-83413600D01*
X157683200Y-84023200D02*
X157073600Y-83413600D01*
X150946286Y-92380025D02*
X150946286Y-91979314D01*
X155728571Y-87363200D02*
X157683200Y-85408571D01*
X155562400Y-87363200D02*
X155728571Y-87363200D01*
X157683200Y-85408571D02*
X157683200Y-84023200D01*
%TO.N,/ESP32-S3/M_IS2*%
X154736800Y-86563200D02*
X155397200Y-86563200D01*
X149817434Y-93314063D02*
X149817434Y-91482566D01*
X149817434Y-91482566D02*
X154736800Y-86563200D01*
X145894829Y-91843629D02*
X145894829Y-91793532D01*
X148006000Y-93954800D02*
X145894829Y-91843629D01*
X148132800Y-93954800D02*
X148006000Y-93954800D01*
%TO.N,/ESP32-S3/M_INH1*%
X195453000Y-95631000D02*
X193590566Y-97493434D01*
X147724726Y-94754800D02*
X143520926Y-90551000D01*
X130200400Y-70561200D02*
X129370783Y-69731583D01*
X148956000Y-94754800D02*
X147724726Y-94754800D01*
X129370783Y-69731583D02*
X129370783Y-68985830D01*
X195862722Y-93246722D02*
X195453000Y-93656444D01*
X130200400Y-81026000D02*
X130200400Y-70561200D01*
X134121000Y-88900000D02*
X134239000Y-88782000D01*
X195453000Y-93656444D02*
X195453000Y-95631000D01*
X135890000Y-90551000D02*
X134239000Y-88900000D01*
X143520926Y-90551000D02*
X135890000Y-90551000D01*
%TO.N,/ESP32-S3/M_IN2*%
X131060237Y-68250942D02*
X131903342Y-68250942D01*
X159613600Y-74726800D02*
X163897800Y-79011000D01*
X163897800Y-79011000D02*
X194089800Y-79011000D01*
X143764000Y-71120000D02*
X147370800Y-74726800D01*
X147370800Y-74726800D02*
X159613600Y-74726800D01*
X130320775Y-68990404D02*
X131060237Y-68250942D01*
X131903342Y-68250942D02*
X134772400Y-71120000D01*
X134772400Y-71120000D02*
X143764000Y-71120000D01*
X194089800Y-79011000D02*
X195580000Y-77520800D01*
%TO.N,/ESP32-S3/M_IN1*%
X195896681Y-92010681D02*
X194590050Y-93317313D01*
X131533900Y-69050942D02*
X131572000Y-69089042D01*
X146090400Y-97855800D02*
X145859500Y-97624900D01*
X142772400Y-91479000D02*
X142900400Y-91351000D01*
X194590050Y-95223950D02*
X191958200Y-97855800D01*
X191958200Y-97855800D02*
X146090400Y-97855800D01*
X131572000Y-78892400D02*
X132029200Y-79349600D01*
X194590050Y-93317313D02*
X194590050Y-95223950D01*
X131572000Y-69089042D02*
X131572000Y-78892400D01*
X132029200Y-79349600D02*
X132029200Y-90881200D01*
X132029200Y-90881200D02*
X132627000Y-91479000D01*
X132627000Y-91479000D02*
X142772400Y-91479000D01*
%TO.N,A_INA*%
X147497800Y-95554800D02*
X158600339Y-95554800D01*
X144145000Y-92202000D02*
X147497800Y-95554800D01*
X129540000Y-91694000D02*
X130048000Y-92202000D01*
X130048000Y-92202000D02*
X144145000Y-92202000D01*
%TO.N,/ESP32-S3/ADC_NTC*%
X145241800Y-98505800D02*
X207056200Y-98505800D01*
X207056200Y-98505800D02*
X207289400Y-98272600D01*
X145186400Y-98450400D02*
X145241800Y-98505800D01*
%TO.N,Net-(CR2-IO_1)*%
X159359600Y-88493600D02*
X160515200Y-87338000D01*
X160515200Y-84416800D02*
X159410400Y-83312000D01*
X153779712Y-90230025D02*
X153965575Y-90230025D01*
X155702000Y-88493600D02*
X159359600Y-88493600D01*
X153965575Y-90230025D02*
X155702000Y-88493600D01*
X160515200Y-87338000D02*
X160515200Y-84416800D01*
%TO.N,sw_2*%
X163017200Y-80975200D02*
X163017200Y-86981429D01*
X152490800Y-92517600D02*
X152490800Y-93319600D01*
X155966400Y-89651600D02*
X154381200Y-91236800D01*
X160347029Y-89651600D02*
X155966400Y-89651600D01*
X154381200Y-91236800D02*
X153771600Y-91236800D01*
X153771600Y-91236800D02*
X152490800Y-92517600D01*
X163017200Y-86981429D02*
X160347029Y-89651600D01*
D39*
%TO.N,Net-(JP4-C)*%
X146024600Y-71602600D02*
X147675600Y-69951600D01*
X147675600Y-69951600D02*
X147777200Y-69951600D01*
X147777200Y-69951600D02*
X150926800Y-69951600D01*
%TO.N,Net-(JP1-C)*%
X208534000Y-75946000D02*
X208534000Y-74422000D01*
X208534000Y-74422000D02*
X205994000Y-71882000D01*
D38*
%TO.N,Enc_1*%
X180939924Y-63093600D02*
X184805561Y-63093600D01*
X175072524Y-68961000D02*
X180939924Y-63093600D01*
X168445117Y-70104000D02*
X169588117Y-68961000D01*
X159698898Y-70818771D02*
X160413669Y-70104000D01*
X160413669Y-70104000D02*
X168445117Y-70104000D01*
X185262761Y-62636400D02*
X196342000Y-62636400D01*
X184805561Y-63093600D02*
X185262761Y-62636400D01*
X196342000Y-62636400D02*
X196799200Y-63093600D01*
X169588117Y-68961000D02*
X175072524Y-68961000D01*
%TO.N,Enc_2*%
X159893000Y-69342000D02*
X166878000Y-69342000D01*
X158496000Y-70864564D02*
X158496000Y-70739000D01*
X158496000Y-70739000D02*
X159893000Y-69342000D01*
X167894000Y-68326000D02*
X167894000Y-65278000D01*
X184597523Y-62382400D02*
X185410323Y-61569600D01*
X170789600Y-62382400D02*
X184597523Y-62382400D01*
X166878000Y-69342000D02*
X167894000Y-68326000D01*
X167894000Y-65278000D02*
X170789600Y-62382400D01*
X185410323Y-61569600D02*
X202793600Y-61569600D01*
%TO.N,SD_CS*%
X113095613Y-70995000D02*
X111050000Y-70995000D01*
X120650000Y-82042000D02*
X118973600Y-80365600D01*
X113241660Y-70848953D02*
X113095613Y-70995000D01*
X118973600Y-76809600D02*
X113241660Y-71077660D01*
X118973600Y-80365600D02*
X118973600Y-76809600D01*
X113241660Y-71077660D02*
X113241660Y-70848953D01*
%TO.N,MOSI*%
X120345200Y-83261200D02*
X120700800Y-83261200D01*
X113454622Y-73095278D02*
X113735278Y-73095278D01*
X113454622Y-73095278D02*
X112495344Y-72136000D01*
X112454344Y-72095000D02*
X111050000Y-72095000D01*
X113454622Y-73095278D02*
X112454344Y-72095000D01*
X118046400Y-80962400D02*
X120345200Y-83261200D01*
X112495344Y-72136000D02*
X112014000Y-72136000D01*
X113735278Y-73095278D02*
X118046400Y-77406400D01*
X118046400Y-77406400D02*
X118046400Y-80962400D01*
%TO.N,CLK*%
X113388297Y-74184469D02*
X116789200Y-77585372D01*
X112242600Y-74295000D02*
X111050000Y-74295000D01*
X113388297Y-74042963D02*
X112494637Y-74042963D01*
X116789200Y-77585372D02*
X116789200Y-80264000D01*
X113388297Y-74042963D02*
X113388297Y-74184469D01*
X112494637Y-74042963D02*
X112242600Y-74295000D01*
%TO.N,MISO*%
X115989200Y-81140400D02*
X116230400Y-81381600D01*
X112690413Y-76495000D02*
X111050000Y-76495000D01*
X113439400Y-77243987D02*
X112690413Y-76495000D01*
X115989200Y-78041600D02*
X115989200Y-81140400D01*
X115191587Y-77243987D02*
X115989200Y-78041600D01*
X113439400Y-77243987D02*
X115191587Y-77243987D01*
%TO.N,DAT2*%
X117189800Y-69895000D02*
X111050000Y-69895000D01*
X117195600Y-69900800D02*
X117189800Y-69895000D01*
%TO.N,DAT1*%
X112343000Y-77545000D02*
X111050000Y-77545000D01*
X114503200Y-78202000D02*
X113000000Y-78202000D01*
X113000000Y-78202000D02*
X112343000Y-77545000D01*
%TO.N,/ESP32-S3/M_INH2*%
X144475200Y-73355200D02*
X144475200Y-75234800D01*
X142456000Y-70320000D02*
X143256000Y-70320000D01*
X141732000Y-69596000D02*
X142456000Y-70320000D01*
X163525200Y-79756000D02*
X169944297Y-79756000D01*
X129959200Y-66535200D02*
X131051200Y-66535200D01*
X128548250Y-68510493D02*
X128548250Y-67946150D01*
X128548250Y-67946150D02*
X129959200Y-66535200D01*
X162610800Y-78841600D02*
X163525200Y-79756000D01*
X195444441Y-78858441D02*
X194546882Y-79756000D01*
X131051200Y-66535200D02*
X132016000Y-67500000D01*
X135890000Y-69596000D02*
X141732000Y-69596000D01*
X132016000Y-67500000D02*
X133794000Y-67500000D01*
X148082000Y-78841600D02*
X162610800Y-78841600D01*
X194546882Y-79756000D02*
X170019249Y-79756000D01*
X143256000Y-72136000D02*
X144475200Y-73355200D01*
X144475200Y-75234800D02*
X148082000Y-78841600D01*
X133794000Y-67500000D02*
X135890000Y-69596000D01*
%TO.N,SD_DET*%
X117200000Y-67466800D02*
X118516400Y-68783200D01*
X117703600Y-71374000D02*
X117703600Y-72898000D01*
X119888000Y-75082400D02*
X119888000Y-79095600D01*
X117703600Y-72898000D02*
X119888000Y-75082400D01*
X118516400Y-70561200D02*
X117703600Y-71374000D01*
X119888000Y-79095600D02*
X122072400Y-81280000D01*
X117200000Y-67260000D02*
X117200000Y-67466800D01*
X118516400Y-68783200D02*
X118516400Y-70561200D01*
X122072400Y-81280000D02*
X122072400Y-88188800D01*
X122072400Y-88188800D02*
X120650000Y-89611200D01*
%TD*%
%TA.AperFunction,Conductor*%
%TO.N,GND*%
G36*
X201056677Y-83839685D02*
G01*
X201077319Y-83856319D01*
X201258681Y-84037681D01*
X201292166Y-84099004D01*
X201295000Y-84125362D01*
X201295000Y-84836000D01*
X201676000Y-85217000D01*
X202513638Y-85217000D01*
X202580677Y-85236685D01*
X202601319Y-85253319D01*
X202909681Y-85561681D01*
X202943166Y-85623004D01*
X202946000Y-85649362D01*
X202946000Y-88594638D01*
X202926315Y-88661677D01*
X202909681Y-88682319D01*
X202474319Y-89117681D01*
X202412996Y-89151166D01*
X202386638Y-89154000D01*
X200913999Y-89154000D01*
X200406000Y-89661999D01*
X200406000Y-90874968D01*
X200386315Y-90942007D01*
X200362698Y-90969116D01*
X199551827Y-91664148D01*
X199488116Y-91692831D01*
X199471129Y-91694000D01*
X196711637Y-91694000D01*
X196644598Y-91674315D01*
X196606645Y-91635974D01*
X196526497Y-91508419D01*
X196398943Y-91380865D01*
X196246204Y-91284892D01*
X196075935Y-91225312D01*
X196075930Y-91225311D01*
X195896685Y-91205116D01*
X195896684Y-91205116D01*
X195896682Y-91205116D01*
X195896681Y-91205116D01*
X195868861Y-91208250D01*
X195844882Y-91210952D01*
X195776060Y-91198896D01*
X195724681Y-91151546D01*
X195707000Y-91087731D01*
X195707000Y-89078362D01*
X195726685Y-89011323D01*
X195743319Y-88990681D01*
X195924681Y-88809319D01*
X195986004Y-88775834D01*
X196012362Y-88773000D01*
X198120000Y-88773000D01*
X198755000Y-88138000D01*
X198755000Y-84760362D01*
X198774685Y-84693323D01*
X198791319Y-84672681D01*
X199607681Y-83856319D01*
X199669004Y-83822834D01*
X199695362Y-83820000D01*
X200989638Y-83820000D01*
X201056677Y-83839685D01*
G37*
%TD.AperFunction*%
%TD*%
%TA.AperFunction,Conductor*%
%TO.N,GND*%
G36*
X184785000Y-66675000D02*
G01*
X181353000Y-66675000D01*
X181285961Y-66655315D01*
X181240206Y-66602511D01*
X181229000Y-66551000D01*
X181229000Y-65656000D01*
X181248685Y-65588961D01*
X181301489Y-65543206D01*
X181353000Y-65532000D01*
X182118000Y-65532000D01*
X183005981Y-64644019D01*
X183067304Y-64610534D01*
X183093662Y-64607700D01*
X184785000Y-64607700D01*
X184785000Y-66675000D01*
G37*
%TD.AperFunction*%
%TA.AperFunction,Conductor*%
G36*
X187706000Y-66675000D02*
G01*
X184785000Y-66675000D01*
X184912000Y-66548000D01*
X187579000Y-66548000D01*
X187706000Y-66675000D01*
G37*
%TD.AperFunction*%
%TD*%
%TA.AperFunction,Conductor*%
%TO.N,/Power/+VBat\u002A*%
G36*
X187594677Y-67202685D02*
G01*
X187615319Y-67219319D01*
X187772181Y-67376181D01*
X187805666Y-67437504D01*
X187808500Y-67463862D01*
X187808500Y-69163638D01*
X187810824Y-69206996D01*
X187813658Y-69233351D01*
X187818299Y-69264835D01*
X187818301Y-69264843D01*
X187825788Y-69285825D01*
X187833000Y-69327497D01*
X187833000Y-75081838D01*
X187813315Y-75148877D01*
X187796681Y-75169519D01*
X185659519Y-77306681D01*
X185598196Y-77340166D01*
X185571838Y-77343000D01*
X182677362Y-77343000D01*
X182610323Y-77323315D01*
X182589681Y-77306681D01*
X181443119Y-76160119D01*
X181409634Y-76098796D01*
X181406800Y-76072438D01*
X181406800Y-73329800D01*
X180594000Y-72517000D01*
X177724362Y-72517000D01*
X177657323Y-72497315D01*
X177636681Y-72480681D01*
X177328319Y-72172319D01*
X177294834Y-72110996D01*
X177292000Y-72084638D01*
X177292000Y-70280032D01*
X177311685Y-70212993D01*
X177325534Y-70195227D01*
X177897215Y-69585380D01*
X177957425Y-69549933D01*
X177987514Y-69546185D01*
X180538285Y-69542762D01*
X181776547Y-68507276D01*
X181840602Y-68479371D01*
X181856093Y-68478400D01*
X184124600Y-68478400D01*
X185383681Y-67219319D01*
X185445004Y-67185834D01*
X185471362Y-67183000D01*
X187527638Y-67183000D01*
X187594677Y-67202685D01*
G37*
%TD.AperFunction*%
%TD*%
%TA.AperFunction,Conductor*%
%TO.N,+12V*%
G36*
X177489039Y-80426185D02*
G01*
X177534794Y-80478989D01*
X177546000Y-80530500D01*
X177546000Y-88392000D01*
X178017681Y-88863681D01*
X178051166Y-88925004D01*
X178054000Y-88951362D01*
X178054000Y-91642637D01*
X178034315Y-91709676D01*
X178017681Y-91730318D01*
X177318692Y-92429306D01*
X177257369Y-92462791D01*
X177190059Y-92458667D01*
X177115655Y-92432632D01*
X177115651Y-92432631D01*
X177115647Y-92432630D01*
X176936404Y-92412435D01*
X176936396Y-92412435D01*
X176757150Y-92432630D01*
X176757145Y-92432631D01*
X176586876Y-92492211D01*
X176434137Y-92588184D01*
X176306584Y-92715737D01*
X176210611Y-92868476D01*
X176151031Y-93038745D01*
X176151030Y-93038750D01*
X176130835Y-93217996D01*
X176130835Y-93218003D01*
X176151030Y-93397249D01*
X176151031Y-93397254D01*
X176210611Y-93567524D01*
X176266893Y-93657094D01*
X176285900Y-93723067D01*
X176285900Y-95132392D01*
X176266215Y-95199431D01*
X176249581Y-95220073D01*
X175738073Y-95731581D01*
X175676750Y-95765066D01*
X175650392Y-95767900D01*
X170202400Y-95767900D01*
X170135361Y-95748215D01*
X170089606Y-95695411D01*
X170078400Y-95643900D01*
X170078400Y-80530500D01*
X170098085Y-80463461D01*
X170150889Y-80417706D01*
X170202400Y-80406500D01*
X177422000Y-80406500D01*
X177489039Y-80426185D01*
G37*
%TD.AperFunction*%
%TA.AperFunction,Conductor*%
G36*
X180355677Y-73171685D02*
G01*
X180376319Y-73188319D01*
X180811681Y-73623681D01*
X180845166Y-73685004D01*
X180848000Y-73711362D01*
X180848000Y-77926638D01*
X180828315Y-77993677D01*
X180811681Y-78014319D01*
X180501819Y-78324181D01*
X180440496Y-78357666D01*
X180414138Y-78360500D01*
X170202400Y-78360500D01*
X170135361Y-78340815D01*
X170089606Y-78288011D01*
X170078400Y-78236500D01*
X170078400Y-78130962D01*
X170098085Y-78063923D01*
X170114719Y-78043281D01*
X171667681Y-76490319D01*
X171729004Y-76456834D01*
X171755362Y-76454000D01*
X174244000Y-76454000D01*
X175514000Y-75184000D01*
X175514000Y-73965362D01*
X175533685Y-73898323D01*
X175550319Y-73877681D01*
X176239681Y-73188319D01*
X176301004Y-73154834D01*
X176327362Y-73152000D01*
X180288638Y-73152000D01*
X180355677Y-73171685D01*
G37*
%TD.AperFunction*%
%TD*%
%TA.AperFunction,Conductor*%
%TO.N,GND*%
G36*
X190073977Y-63966985D02*
G01*
X190094619Y-63983619D01*
X190717681Y-64606681D01*
X190751166Y-64668004D01*
X190754000Y-64694362D01*
X190754000Y-65786000D01*
X191770000Y-66802000D01*
X192607638Y-66802000D01*
X192674677Y-66821685D01*
X192695319Y-66838319D01*
X192749681Y-66892681D01*
X192783166Y-66954004D01*
X192786000Y-66980362D01*
X192786000Y-69544638D01*
X192766315Y-69611677D01*
X192749681Y-69632319D01*
X192568319Y-69813681D01*
X192506996Y-69847166D01*
X192480638Y-69850000D01*
X188900362Y-69850000D01*
X188833323Y-69830315D01*
X188812681Y-69813681D01*
X188250319Y-69251319D01*
X188216834Y-69189996D01*
X188214000Y-69163638D01*
X188214000Y-67183000D01*
X187706000Y-66675000D01*
X187579000Y-66548000D01*
X184912000Y-66548000D01*
X184785000Y-66675000D01*
X184785000Y-64607700D01*
X185232895Y-64607700D01*
X185248905Y-64609467D01*
X185248928Y-64609226D01*
X185256689Y-64609958D01*
X185256696Y-64609960D01*
X185326662Y-64607760D01*
X185330557Y-64607700D01*
X185359325Y-64607700D01*
X185363687Y-64607148D01*
X185375339Y-64606230D01*
X185420969Y-64604797D01*
X185441356Y-64598873D01*
X185460396Y-64594931D01*
X185481458Y-64592271D01*
X185523920Y-64575458D01*
X185534957Y-64571680D01*
X185578798Y-64558944D01*
X185597065Y-64548139D01*
X185614536Y-64539580D01*
X185634271Y-64531768D01*
X185671216Y-64504925D01*
X185680958Y-64498526D01*
X185720265Y-64475281D01*
X185735270Y-64460275D01*
X185750068Y-64447636D01*
X185767237Y-64435163D01*
X185796346Y-64399974D01*
X185804190Y-64391354D01*
X186211927Y-63983619D01*
X186273250Y-63950134D01*
X186299608Y-63947300D01*
X190006938Y-63947300D01*
X190073977Y-63966985D01*
G37*
%TD.AperFunction*%
%TD*%
%TA.AperFunction,Conductor*%
%TO.N,+12V_HighSide*%
G36*
X199409387Y-94609285D02*
G01*
X199455142Y-94662089D01*
X199466348Y-94713565D01*
X199467207Y-97731265D01*
X199447542Y-97798310D01*
X199394751Y-97844080D01*
X199343207Y-97855300D01*
X195591007Y-97855300D01*
X195523968Y-97835615D01*
X195478213Y-97782811D01*
X195468269Y-97713653D01*
X195497294Y-97650097D01*
X195503326Y-97643619D01*
X196199173Y-96947772D01*
X196922570Y-96224374D01*
X196935136Y-96214308D01*
X196934982Y-96214121D01*
X196940990Y-96209148D01*
X196940997Y-96209145D01*
X196974563Y-96173400D01*
X196988922Y-96158110D01*
X196991635Y-96155310D01*
X197011969Y-96134977D01*
X197014664Y-96131502D01*
X197022243Y-96122625D01*
X197053505Y-96089336D01*
X197063731Y-96070732D01*
X197074404Y-96054484D01*
X197087420Y-96037706D01*
X197105548Y-95995813D01*
X197110684Y-95985325D01*
X197132684Y-95945311D01*
X197137961Y-95924751D01*
X197144263Y-95906346D01*
X197152693Y-95886869D01*
X197159836Y-95841763D01*
X197162200Y-95830348D01*
X197173557Y-95786120D01*
X197173557Y-95764898D01*
X197175084Y-95745498D01*
X197178404Y-95724538D01*
X197174107Y-95679079D01*
X197173557Y-95667410D01*
X197173557Y-94713600D01*
X197193242Y-94646561D01*
X197246046Y-94600806D01*
X197297557Y-94589600D01*
X199342348Y-94589600D01*
X199409387Y-94609285D01*
G37*
%TD.AperFunction*%
%TA.AperFunction,Conductor*%
G36*
X199485439Y-80283685D02*
G01*
X199531194Y-80336489D01*
X199542400Y-80388000D01*
X199542400Y-82447838D01*
X199522715Y-82514877D01*
X199506081Y-82535519D01*
X198272400Y-83769199D01*
X198272400Y-87985038D01*
X198252715Y-88052077D01*
X198236081Y-88072719D01*
X197977619Y-88331181D01*
X197916296Y-88364666D01*
X197889938Y-88367500D01*
X196012361Y-88367500D01*
X195969003Y-88369824D01*
X195942648Y-88372658D01*
X195911162Y-88377299D01*
X195824385Y-88408261D01*
X195791668Y-88419935D01*
X195791666Y-88419935D01*
X195791663Y-88419937D01*
X195730350Y-88453416D01*
X195730342Y-88453421D01*
X195641849Y-88519667D01*
X195576385Y-88544084D01*
X195567539Y-88544400D01*
X195351400Y-88544400D01*
X195351400Y-88840086D01*
X195339449Y-88893200D01*
X195337612Y-88897073D01*
X195317925Y-88964119D01*
X195317924Y-88964122D01*
X195301500Y-89078361D01*
X195301500Y-91087738D01*
X195316220Y-91195996D01*
X195333903Y-91259820D01*
X195342033Y-91279531D01*
X195351400Y-91326809D01*
X195351400Y-91372522D01*
X195331715Y-91439561D01*
X195315081Y-91460203D01*
X195266865Y-91508418D01*
X195170891Y-91661159D01*
X195111313Y-91831425D01*
X195111311Y-91831433D01*
X195110496Y-91838669D01*
X195083424Y-91903081D01*
X195074958Y-91912456D01*
X194190537Y-92796879D01*
X194177966Y-92806951D01*
X194178121Y-92807138D01*
X194172109Y-92812111D01*
X194124167Y-92863163D01*
X194121462Y-92865954D01*
X194101143Y-92886274D01*
X194101135Y-92886283D01*
X194098426Y-92889775D01*
X194090855Y-92898636D01*
X194071560Y-92919185D01*
X194059601Y-92931921D01*
X194059598Y-92931925D01*
X194049373Y-92950523D01*
X194038695Y-92966780D01*
X194025687Y-92983550D01*
X194025685Y-92983552D01*
X194007553Y-93025453D01*
X194002419Y-93035932D01*
X193997144Y-93045529D01*
X193980423Y-93075945D01*
X193975145Y-93096501D01*
X193968844Y-93114905D01*
X193960413Y-93134388D01*
X193953272Y-93179475D01*
X193950904Y-93190912D01*
X193939550Y-93235134D01*
X193939550Y-93256357D01*
X193938023Y-93275756D01*
X193934703Y-93296716D01*
X193939000Y-93342171D01*
X193939550Y-93353841D01*
X193939550Y-94903142D01*
X193919865Y-94970181D01*
X193903231Y-94990823D01*
X192537373Y-96356681D01*
X192476050Y-96390166D01*
X192449692Y-96393000D01*
X190156900Y-96393000D01*
X190089861Y-96373315D01*
X190044106Y-96320511D01*
X190032900Y-96269000D01*
X190032900Y-93284807D01*
X190052585Y-93217768D01*
X190069214Y-93197131D01*
X191883226Y-91383118D01*
X191888665Y-91377999D01*
X191930283Y-91341130D01*
X191962937Y-91293819D01*
X191966993Y-91288279D01*
X192004162Y-91240364D01*
X192006591Y-91234749D01*
X192018353Y-91213537D01*
X192020020Y-91211123D01*
X192025757Y-91195996D01*
X192041737Y-91153860D01*
X192043869Y-91148602D01*
X192069435Y-91089526D01*
X192069801Y-91087213D01*
X192074888Y-91068077D01*
X192076034Y-91063423D01*
X192076037Y-91063418D01*
X192083870Y-90998901D01*
X192084482Y-90994526D01*
X192095147Y-90927195D01*
X192095147Y-90927194D01*
X192095392Y-90919398D01*
X192095406Y-90919398D01*
X192095478Y-90914103D01*
X192095078Y-90914103D01*
X192095078Y-90906603D01*
X192091237Y-90874968D01*
X192086790Y-90838344D01*
X192086447Y-90835169D01*
X192079679Y-90763571D01*
X192079678Y-90763568D01*
X192079034Y-90760691D01*
X192077358Y-90755146D01*
X192076038Y-90749792D01*
X192076037Y-90749782D01*
X192060892Y-90709850D01*
X192050328Y-90681993D01*
X192049600Y-90680025D01*
X192024006Y-90608932D01*
X192024004Y-90608930D01*
X192024004Y-90608928D01*
X192022501Y-90605979D01*
X192021097Y-90603636D01*
X191976602Y-90539175D01*
X191976094Y-90538433D01*
X191931625Y-90472998D01*
X191871033Y-90419578D01*
X191870868Y-90419317D01*
X191870811Y-90419382D01*
X191809643Y-90365193D01*
X191808338Y-90364306D01*
X191739300Y-90329129D01*
X191737970Y-90328441D01*
X191672170Y-90293906D01*
X191670641Y-90293326D01*
X191664753Y-90290719D01*
X191661898Y-90289691D01*
X191589910Y-90273599D01*
X191587287Y-90272983D01*
X191518786Y-90256100D01*
X191511340Y-90255196D01*
X191511416Y-90254566D01*
X191509294Y-90254332D01*
X191509272Y-90254574D01*
X191501505Y-90253840D01*
X191501504Y-90253840D01*
X191458360Y-90255196D01*
X191431538Y-90256039D01*
X191427643Y-90256100D01*
X191360815Y-90256100D01*
X191360810Y-90256101D01*
X191353372Y-90257004D01*
X191353351Y-90256838D01*
X191337709Y-90258987D01*
X191337234Y-90259002D01*
X191337231Y-90259002D01*
X191273604Y-90277486D01*
X191268689Y-90278805D01*
X191207434Y-90293903D01*
X191207433Y-90293904D01*
X191206485Y-90294402D01*
X191183480Y-90303671D01*
X191179403Y-90304855D01*
X191179393Y-90304859D01*
X191125605Y-90336670D01*
X191120113Y-90339733D01*
X191067561Y-90367315D01*
X191067557Y-90367318D01*
X191063935Y-90370527D01*
X191044849Y-90384429D01*
X191037935Y-90388518D01*
X190996384Y-90430068D01*
X190990934Y-90435199D01*
X190949317Y-90472069D01*
X190944421Y-90479162D01*
X190930058Y-90496394D01*
X189010107Y-92416345D01*
X188948784Y-92449830D01*
X188879092Y-92444846D01*
X188834745Y-92416345D01*
X188823600Y-92405200D01*
X180569239Y-92405200D01*
X180502200Y-92385515D01*
X180481253Y-92368575D01*
X179766414Y-91648736D01*
X179733143Y-91587297D01*
X179730400Y-91561361D01*
X179730400Y-88747599D01*
X179730399Y-88747598D01*
X179380315Y-88384508D01*
X193349528Y-88384508D01*
X193349922Y-88384508D01*
X193349922Y-88392003D01*
X193358201Y-88460194D01*
X193358554Y-88463466D01*
X193365320Y-88535029D01*
X193365961Y-88537897D01*
X193367632Y-88543423D01*
X193368960Y-88548812D01*
X193394676Y-88616618D01*
X193395403Y-88618586D01*
X193420993Y-88689666D01*
X193422490Y-88692604D01*
X193423909Y-88694971D01*
X193468352Y-88759358D01*
X193468860Y-88760100D01*
X193513372Y-88825598D01*
X193513377Y-88825604D01*
X193574085Y-88879126D01*
X193574309Y-88879324D01*
X193635356Y-88933407D01*
X193636655Y-88934289D01*
X193636656Y-88934289D01*
X193636659Y-88934292D01*
X193705800Y-88969521D01*
X193706921Y-88970101D01*
X193772835Y-89004696D01*
X193772837Y-89004696D01*
X193772840Y-89004698D01*
X193774353Y-89005272D01*
X193780229Y-89007874D01*
X193783095Y-89008905D01*
X193783100Y-89008908D01*
X193847802Y-89023369D01*
X193855055Y-89024991D01*
X193857667Y-89025604D01*
X193926215Y-89042500D01*
X193926217Y-89042500D01*
X193933659Y-89043404D01*
X193933582Y-89044033D01*
X193935705Y-89044267D01*
X193935728Y-89044026D01*
X193943489Y-89044758D01*
X193943496Y-89044760D01*
X194013462Y-89042560D01*
X194017357Y-89042500D01*
X194084187Y-89042500D01*
X194091630Y-89041596D01*
X194091650Y-89041763D01*
X194107317Y-89039611D01*
X194107769Y-89039597D01*
X194171450Y-89021095D01*
X194176215Y-89019816D01*
X194237565Y-89004696D01*
X194238484Y-89004213D01*
X194261530Y-88994925D01*
X194265598Y-88993744D01*
X194319431Y-88961905D01*
X194324864Y-88958876D01*
X194377440Y-88931283D01*
X194381055Y-88928080D01*
X194400164Y-88914161D01*
X194407065Y-88910081D01*
X194448625Y-88868519D01*
X194454066Y-88863398D01*
X194495683Y-88826530D01*
X194500572Y-88819445D01*
X194514939Y-88802206D01*
X195471513Y-87845631D01*
X195484079Y-87835565D01*
X195483925Y-87835378D01*
X195489933Y-87830405D01*
X195489940Y-87830402D01*
X195513227Y-87805602D01*
X195537865Y-87779367D01*
X195540578Y-87776567D01*
X195560911Y-87756235D01*
X195563606Y-87752760D01*
X195571199Y-87743869D01*
X195602448Y-87710593D01*
X195612674Y-87691990D01*
X195623353Y-87675733D01*
X195636362Y-87658964D01*
X195654498Y-87617050D01*
X195659620Y-87606595D01*
X195681627Y-87566568D01*
X195686907Y-87546002D01*
X195693209Y-87527595D01*
X195701635Y-87508126D01*
X195708777Y-87463024D01*
X195711145Y-87451597D01*
X195722499Y-87407379D01*
X195722500Y-87407377D01*
X195722500Y-87386155D01*
X195724027Y-87366755D01*
X195727347Y-87345795D01*
X195723050Y-87300340D01*
X195722500Y-87288670D01*
X195722500Y-83664667D01*
X195741507Y-83598694D01*
X195797788Y-83509124D01*
X195827469Y-83424301D01*
X195857368Y-83338855D01*
X195877565Y-83159600D01*
X195857368Y-82980345D01*
X195797789Y-82810078D01*
X195701816Y-82657338D01*
X195574262Y-82529784D01*
X195540370Y-82508488D01*
X195421523Y-82433811D01*
X195251254Y-82374231D01*
X195251249Y-82374230D01*
X195072004Y-82354035D01*
X195071996Y-82354035D01*
X194892750Y-82374230D01*
X194892745Y-82374231D01*
X194722476Y-82433811D01*
X194569737Y-82529784D01*
X194442184Y-82657337D01*
X194346211Y-82810076D01*
X194286631Y-82980345D01*
X194286630Y-82980350D01*
X194266435Y-83159596D01*
X194266435Y-83159603D01*
X194286630Y-83338849D01*
X194286631Y-83338854D01*
X194346211Y-83509124D01*
X194402493Y-83598694D01*
X194421500Y-83664667D01*
X194421500Y-87004391D01*
X194401815Y-87071430D01*
X194385181Y-87092072D01*
X193561786Y-87915466D01*
X193556334Y-87920599D01*
X193514718Y-87957468D01*
X193514716Y-87957470D01*
X193482064Y-88004775D01*
X193477995Y-88010333D01*
X193440838Y-88058235D01*
X193440833Y-88058243D01*
X193438398Y-88063871D01*
X193426661Y-88085040D01*
X193424982Y-88087471D01*
X193424980Y-88087476D01*
X193403263Y-88144736D01*
X193401125Y-88150005D01*
X193375565Y-88209074D01*
X193375563Y-88209080D01*
X193375196Y-88211400D01*
X193370075Y-88230669D01*
X193368963Y-88235179D01*
X193361129Y-88299691D01*
X193360510Y-88304113D01*
X193349853Y-88371405D01*
X193349853Y-88371406D01*
X193349608Y-88379205D01*
X193349597Y-88379204D01*
X193349528Y-88384508D01*
X179380315Y-88384508D01*
X178608506Y-87584026D01*
X178576144Y-87522102D01*
X178573772Y-87498465D01*
X178570205Y-86611499D01*
X178589620Y-86544381D01*
X178642239Y-86498414D01*
X178694204Y-86487000D01*
X181268856Y-86487000D01*
X181335895Y-86506685D01*
X181354729Y-86521547D01*
X181927534Y-87071430D01*
X182668141Y-87782400D01*
X189230000Y-87782400D01*
X189636400Y-87376000D01*
X189636400Y-83464962D01*
X189656085Y-83397923D01*
X189672719Y-83377281D01*
X192607181Y-80442819D01*
X192668504Y-80409334D01*
X192694862Y-80406500D01*
X194461377Y-80406500D01*
X194477387Y-80408267D01*
X194477410Y-80408026D01*
X194485171Y-80408758D01*
X194485178Y-80408760D01*
X194555144Y-80406560D01*
X194559039Y-80406500D01*
X194587807Y-80406500D01*
X194592169Y-80405948D01*
X194603821Y-80405030D01*
X194649451Y-80403597D01*
X194669838Y-80397673D01*
X194688878Y-80393731D01*
X194709940Y-80391071D01*
X194752402Y-80374258D01*
X194763439Y-80370480D01*
X194807280Y-80357744D01*
X194825547Y-80346939D01*
X194843018Y-80338380D01*
X194862753Y-80330568D01*
X194899698Y-80303725D01*
X194909445Y-80297323D01*
X194917788Y-80292389D01*
X194936599Y-80281266D01*
X194999716Y-80264000D01*
X199418400Y-80264000D01*
X199485439Y-80283685D01*
G37*
%TD.AperFunction*%
%TD*%
%TA.AperFunction,Conductor*%
%TO.N,GND*%
G36*
X204901800Y-66675000D02*
G01*
X204901800Y-70639370D01*
X203708000Y-71947959D01*
X203708000Y-70993000D01*
X203327000Y-70612000D01*
X199263000Y-70612000D01*
X199766950Y-70039948D01*
X200202799Y-69545202D01*
X200202800Y-69545199D01*
X200202800Y-69087043D01*
X200207824Y-69052106D01*
X200210873Y-69041719D01*
X200210872Y-69041719D01*
X200210874Y-69041716D01*
X200216440Y-69003002D01*
X202082157Y-69003002D01*
X202312851Y-69041500D01*
X202553145Y-69041500D01*
X202553151Y-69041499D01*
X202783841Y-69003002D01*
X202433001Y-68652160D01*
X202433000Y-68652160D01*
X202082157Y-69003002D01*
X200216440Y-69003002D01*
X200227300Y-68927470D01*
X200227300Y-67591505D01*
X200978031Y-67591505D01*
X200997874Y-67830976D01*
X201025150Y-67938688D01*
X201287344Y-67676495D01*
X201733000Y-67676495D01*
X201773682Y-67841546D01*
X201852680Y-67992066D01*
X201965405Y-68119306D01*
X202105305Y-68215871D01*
X202264249Y-68276151D01*
X202390660Y-68291500D01*
X202475340Y-68291500D01*
X202601751Y-68276151D01*
X202760695Y-68215871D01*
X202900595Y-68119306D01*
X203013320Y-67992066D01*
X203092318Y-67841546D01*
X203133000Y-67676495D01*
X203133000Y-67591500D01*
X203493660Y-67591500D01*
X203840848Y-67938687D01*
X203840849Y-67938687D01*
X203868122Y-67830991D01*
X203868126Y-67830971D01*
X203887969Y-67591505D01*
X203887969Y-67591494D01*
X203868126Y-67352028D01*
X203868124Y-67352019D01*
X203840848Y-67244311D01*
X203493660Y-67591500D01*
X203133000Y-67591500D01*
X203133000Y-67506505D01*
X203092318Y-67341454D01*
X203013320Y-67190934D01*
X202900595Y-67063694D01*
X202760695Y-66967129D01*
X202601751Y-66906849D01*
X202475340Y-66891500D01*
X202390660Y-66891500D01*
X202264249Y-66906849D01*
X202105305Y-66967129D01*
X201965405Y-67063694D01*
X201852680Y-67190934D01*
X201773682Y-67341454D01*
X201733000Y-67506505D01*
X201733000Y-67676495D01*
X201287344Y-67676495D01*
X201372339Y-67591500D01*
X201372339Y-67591499D01*
X201025150Y-67244310D01*
X200997874Y-67352023D01*
X200978031Y-67591494D01*
X200978031Y-67591505D01*
X200227300Y-67591505D01*
X200227300Y-66297693D01*
X200227099Y-66294578D01*
X200223962Y-66245781D01*
X200223957Y-66245726D01*
X200221320Y-66225317D01*
X200268261Y-66179995D01*
X202082156Y-66179995D01*
X202433000Y-66530839D01*
X202433001Y-66530839D01*
X202783842Y-66179996D01*
X202783842Y-66179995D01*
X202553149Y-66141500D01*
X202312851Y-66141500D01*
X202082156Y-66179995D01*
X200268261Y-66179995D01*
X201002268Y-65471300D01*
X203714588Y-65471300D01*
X204901800Y-66675000D01*
G37*
%TD.AperFunction*%
%TD*%
%TA.AperFunction,Conductor*%
%TO.N,/Power/Motor-*%
G36*
X205401648Y-72612885D02*
G01*
X205420364Y-72627634D01*
X205513911Y-72717200D01*
X207720256Y-74829658D01*
X207755065Y-74890237D01*
X207758500Y-74919222D01*
X207758500Y-75717474D01*
X207751542Y-75758427D01*
X207748631Y-75766745D01*
X207748631Y-75766746D01*
X207728435Y-75945996D01*
X207728435Y-75946003D01*
X207748630Y-76125251D01*
X207765041Y-76172148D01*
X207772000Y-76213103D01*
X207772000Y-81280001D01*
X210261200Y-83870800D01*
X219375500Y-83870800D01*
X219442539Y-83890485D01*
X219488294Y-83943289D01*
X219499500Y-83994800D01*
X219499500Y-87887000D01*
X219479815Y-87954039D01*
X219427011Y-87999794D01*
X219375500Y-88011000D01*
X217698047Y-88011000D01*
X217631008Y-87991315D01*
X217585253Y-87938511D01*
X217575309Y-87869353D01*
X217604334Y-87805797D01*
X217663112Y-87768023D01*
X217677637Y-87764691D01*
X217693940Y-87761970D01*
X217915333Y-87685965D01*
X217929300Y-87678406D01*
X217342531Y-87091636D01*
X217329350Y-87100443D01*
X217326315Y-87110782D01*
X217309681Y-87131424D01*
X216762698Y-87678406D01*
X216776661Y-87685963D01*
X216998059Y-87761970D01*
X217014363Y-87764691D01*
X217077248Y-87795142D01*
X217113687Y-87854756D01*
X217112112Y-87924608D01*
X217073022Y-87982520D01*
X217008828Y-88010105D01*
X216993953Y-88011000D01*
X210698047Y-88011000D01*
X210631008Y-87991315D01*
X210585253Y-87938511D01*
X210575309Y-87869353D01*
X210604334Y-87805797D01*
X210663112Y-87768023D01*
X210677637Y-87764691D01*
X210693940Y-87761970D01*
X210915333Y-87685965D01*
X210929300Y-87678406D01*
X210342531Y-87091636D01*
X210329350Y-87100443D01*
X210326315Y-87110782D01*
X210309681Y-87131424D01*
X209762698Y-87678406D01*
X209776661Y-87685963D01*
X209998059Y-87761970D01*
X210014363Y-87764691D01*
X210077248Y-87795142D01*
X210113687Y-87854756D01*
X210112112Y-87924608D01*
X210073022Y-87982520D01*
X210008828Y-88010105D01*
X209993953Y-88011000D01*
X207112807Y-88011000D01*
X207045768Y-87991315D01*
X207024353Y-87973902D01*
X205638400Y-86563200D01*
X203628800Y-86563200D01*
X203561761Y-86543515D01*
X203516006Y-86490711D01*
X203504800Y-86439200D01*
X203504800Y-86388000D01*
X208928659Y-86388000D01*
X208947989Y-86621283D01*
X209005453Y-86848208D01*
X209058270Y-86968621D01*
X209556932Y-86469960D01*
X209671000Y-86469960D01*
X209710228Y-86629116D01*
X209786406Y-86774260D01*
X209895104Y-86896956D01*
X210030008Y-86990073D01*
X210183275Y-87048200D01*
X210305166Y-87063000D01*
X210386834Y-87063000D01*
X210508725Y-87048200D01*
X210661992Y-86990073D01*
X210796896Y-86896956D01*
X210905594Y-86774260D01*
X210981772Y-86629116D01*
X211021000Y-86469960D01*
X211021000Y-86384531D01*
X211049636Y-86384531D01*
X211633727Y-86968621D01*
X211686546Y-86848207D01*
X211744010Y-86621283D01*
X211763341Y-86388000D01*
X215928659Y-86388000D01*
X215947989Y-86621283D01*
X216005453Y-86848208D01*
X216058270Y-86968621D01*
X216556932Y-86469960D01*
X216671000Y-86469960D01*
X216710228Y-86629116D01*
X216786406Y-86774260D01*
X216895104Y-86896956D01*
X217030008Y-86990073D01*
X217183275Y-87048200D01*
X217305166Y-87063000D01*
X217386834Y-87063000D01*
X217508725Y-87048200D01*
X217661992Y-86990073D01*
X217796896Y-86896956D01*
X217905594Y-86774260D01*
X217981772Y-86629116D01*
X218021000Y-86469960D01*
X218021000Y-86384531D01*
X218049636Y-86384531D01*
X218633727Y-86968621D01*
X218686546Y-86848207D01*
X218744010Y-86621283D01*
X218763341Y-86388000D01*
X218763341Y-86387994D01*
X218744010Y-86154716D01*
X218686545Y-85927789D01*
X218633728Y-85807378D01*
X218633727Y-85807377D01*
X218089423Y-86351681D01*
X218061339Y-86367015D01*
X218049636Y-86384531D01*
X218021000Y-86384531D01*
X218021000Y-86306040D01*
X217981772Y-86146884D01*
X217905594Y-86001740D01*
X217796896Y-85879044D01*
X217661992Y-85785927D01*
X217508725Y-85727800D01*
X217386834Y-85713000D01*
X217305166Y-85713000D01*
X217183275Y-85727800D01*
X217030008Y-85785927D01*
X216895104Y-85879044D01*
X216786406Y-86001740D01*
X216710228Y-86146884D01*
X216671000Y-86306040D01*
X216671000Y-86469960D01*
X216556932Y-86469960D01*
X216638892Y-86388000D01*
X216638893Y-86387999D01*
X216638892Y-86387998D01*
X216058271Y-85807378D01*
X216005453Y-85927791D01*
X215947989Y-86154716D01*
X215928659Y-86387994D01*
X215928659Y-86388000D01*
X211763341Y-86388000D01*
X211763341Y-86387994D01*
X211744010Y-86154716D01*
X211686545Y-85927789D01*
X211633728Y-85807378D01*
X211633727Y-85807377D01*
X211089424Y-86351681D01*
X211061339Y-86367016D01*
X211049636Y-86384531D01*
X211021000Y-86384531D01*
X211021000Y-86306040D01*
X210981772Y-86146884D01*
X210905594Y-86001740D01*
X210796896Y-85879044D01*
X210661992Y-85785927D01*
X210508725Y-85727800D01*
X210386834Y-85713000D01*
X210305166Y-85713000D01*
X210183275Y-85727800D01*
X210030008Y-85785927D01*
X209895104Y-85879044D01*
X209786406Y-86001740D01*
X209710228Y-86146884D01*
X209671000Y-86306040D01*
X209671000Y-86469960D01*
X209556932Y-86469960D01*
X209638892Y-86388000D01*
X209638893Y-86387999D01*
X209638892Y-86387998D01*
X209058271Y-85807378D01*
X209005453Y-85927791D01*
X208947989Y-86154716D01*
X208928659Y-86387994D01*
X208928659Y-86388000D01*
X203504800Y-86388000D01*
X203504800Y-85097592D01*
X209762697Y-85097592D01*
X210345998Y-85680892D01*
X210345999Y-85680893D01*
X210346000Y-85680893D01*
X210346000Y-85680892D01*
X210929301Y-85097592D01*
X216762697Y-85097592D01*
X217345998Y-85680892D01*
X217345999Y-85680893D01*
X217346000Y-85680893D01*
X217346000Y-85680892D01*
X217929301Y-85097592D01*
X217929300Y-85097591D01*
X217915348Y-85090041D01*
X217915338Y-85090036D01*
X217693939Y-85014029D01*
X217463043Y-84975500D01*
X217228957Y-84975500D01*
X216998060Y-85014029D01*
X216776666Y-85090034D01*
X216776655Y-85090039D01*
X216762698Y-85097591D01*
X216762697Y-85097592D01*
X210929301Y-85097592D01*
X210929300Y-85097591D01*
X210915348Y-85090041D01*
X210915338Y-85090036D01*
X210693939Y-85014029D01*
X210463043Y-84975500D01*
X210228957Y-84975500D01*
X209998060Y-85014029D01*
X209776666Y-85090034D01*
X209776655Y-85090039D01*
X209762698Y-85097591D01*
X209762697Y-85097592D01*
X203504800Y-85097592D01*
X203504800Y-82499200D01*
X203454000Y-82448400D01*
X200784000Y-82448400D01*
X200716961Y-82428715D01*
X200671206Y-82375911D01*
X200660000Y-82324400D01*
X200660000Y-76697826D01*
X200679685Y-76630787D01*
X200696319Y-76610145D01*
X200730648Y-76575816D01*
X200910413Y-76396051D01*
X200939423Y-76363754D01*
X200956057Y-76343112D01*
X200975042Y-76317561D01*
X201029389Y-76202923D01*
X201049074Y-76135884D01*
X201065500Y-76021638D01*
X201065500Y-75510300D01*
X201085185Y-75443261D01*
X201137989Y-75397506D01*
X201189500Y-75386300D01*
X201615184Y-75386300D01*
X201623115Y-75385336D01*
X201712230Y-75374516D01*
X201769855Y-75360312D01*
X201861255Y-75325648D01*
X201879950Y-75315835D01*
X201907899Y-75305234D01*
X201936437Y-75298201D01*
X201966104Y-75294600D01*
X201995494Y-75294600D01*
X202025162Y-75298201D01*
X202053698Y-75305234D01*
X202081645Y-75315834D01*
X202100344Y-75325648D01*
X202191745Y-75360312D01*
X202249371Y-75374516D01*
X202335908Y-75385023D01*
X202346416Y-75386300D01*
X202346417Y-75386300D01*
X202885184Y-75386300D01*
X202893115Y-75385336D01*
X202982230Y-75374516D01*
X203039855Y-75360312D01*
X203131255Y-75325648D01*
X203149950Y-75315835D01*
X203177904Y-75305233D01*
X203192145Y-75301724D01*
X203294311Y-75261201D01*
X203352316Y-75228485D01*
X203439839Y-75162023D01*
X203958413Y-74643450D01*
X203987423Y-74611153D01*
X204004057Y-74590511D01*
X204023042Y-74564960D01*
X204066303Y-74473704D01*
X204101510Y-74429502D01*
X204368400Y-74218800D01*
X204368400Y-72717200D01*
X204388085Y-72650161D01*
X204440889Y-72604406D01*
X204492400Y-72593200D01*
X205334609Y-72593200D01*
X205401648Y-72612885D01*
G37*
%TD.AperFunction*%
%TD*%
%TA.AperFunction,Conductor*%
%TO.N,/GND2*%
G36*
X213075381Y-70552005D02*
G01*
X213014179Y-70560063D01*
X212868976Y-70620209D01*
X212744287Y-70715886D01*
X212648610Y-70840574D01*
X212588464Y-70985778D01*
X212580406Y-71046980D01*
X211998402Y-70464976D01*
X211977847Y-70496439D01*
X211887917Y-70701459D01*
X211832958Y-70918490D01*
X211814471Y-71141594D01*
X211814471Y-71141605D01*
X211832958Y-71364709D01*
X211887917Y-71581740D01*
X211977845Y-71786756D01*
X211977846Y-71786758D01*
X211998403Y-71818222D01*
X212580406Y-71236219D01*
X212588464Y-71297422D01*
X212648610Y-71442625D01*
X212744287Y-71567314D01*
X212868976Y-71662991D01*
X213014179Y-71723137D01*
X213075381Y-71731194D01*
X212494504Y-72312070D01*
X212539967Y-72336674D01*
X212589557Y-72385894D01*
X212604665Y-72454110D01*
X212580494Y-72519666D01*
X212546121Y-72550291D01*
X212546345Y-72550611D01*
X212543626Y-72552514D01*
X212542956Y-72553112D01*
X212541913Y-72553714D01*
X212362548Y-72679306D01*
X212362542Y-72679311D01*
X212207712Y-72834141D01*
X212207707Y-72834147D01*
X212082119Y-73013505D01*
X212082117Y-73013509D01*
X211989579Y-73211959D01*
X211989575Y-73211968D01*
X211932906Y-73423461D01*
X211932904Y-73423472D01*
X211913821Y-73641598D01*
X211913821Y-73641601D01*
X211932904Y-73859727D01*
X211932906Y-73859738D01*
X211989575Y-74071231D01*
X211989577Y-74071235D01*
X211989578Y-74071239D01*
X212049702Y-74200175D01*
X212082117Y-74269690D01*
X212082119Y-74269694D01*
X212207707Y-74449052D01*
X212207712Y-74449058D01*
X212362542Y-74603888D01*
X212362548Y-74603893D01*
X212541906Y-74729481D01*
X212541908Y-74729482D01*
X212541911Y-74729484D01*
X212635343Y-74773051D01*
X212648566Y-74779218D01*
X212701005Y-74825390D01*
X212720157Y-74892584D01*
X212699941Y-74959465D01*
X212648566Y-75003982D01*
X212541910Y-75053716D01*
X212541906Y-75053718D01*
X212362548Y-75179306D01*
X212362542Y-75179311D01*
X212207712Y-75334141D01*
X212207707Y-75334147D01*
X212082119Y-75513505D01*
X212082117Y-75513509D01*
X211989579Y-75711959D01*
X211989575Y-75711968D01*
X211932906Y-75923461D01*
X211932904Y-75923472D01*
X211913821Y-76141598D01*
X211913821Y-76141601D01*
X211932904Y-76359727D01*
X211932906Y-76359738D01*
X211989575Y-76571231D01*
X211989577Y-76571235D01*
X211989578Y-76571239D01*
X212052431Y-76706028D01*
X212082117Y-76769690D01*
X212082119Y-76769694D01*
X212207707Y-76949052D01*
X212207711Y-76949057D01*
X212362544Y-77103890D01*
X212541911Y-77229484D01*
X212541917Y-77229486D01*
X212542942Y-77230079D01*
X212543307Y-77230461D01*
X212546345Y-77232589D01*
X212545917Y-77233199D01*
X212591161Y-77280643D01*
X212604388Y-77349249D01*
X212578424Y-77414116D01*
X212539967Y-77446524D01*
X212494504Y-77471127D01*
X212494504Y-77471129D01*
X213075381Y-78052006D01*
X213014179Y-78060064D01*
X212868976Y-78120210D01*
X212744287Y-78215887D01*
X212648610Y-78340575D01*
X212588464Y-78485779D01*
X212580406Y-78546981D01*
X211998402Y-77964977D01*
X211977847Y-77996440D01*
X211887917Y-78201460D01*
X211832958Y-78418491D01*
X211814471Y-78641595D01*
X211814471Y-78641606D01*
X211832958Y-78864710D01*
X211887917Y-79081741D01*
X211977845Y-79286757D01*
X211977846Y-79286759D01*
X211998403Y-79318223D01*
X212580406Y-78736220D01*
X212588464Y-78797423D01*
X212648610Y-78942626D01*
X212744287Y-79067315D01*
X212868976Y-79162992D01*
X213014179Y-79223138D01*
X213075381Y-79231195D01*
X212494504Y-79812071D01*
X212501214Y-79858123D01*
X212491400Y-79927300D01*
X212445744Y-79980189D01*
X212378742Y-80000000D01*
X211944684Y-80000000D01*
X211877645Y-79980315D01*
X211852068Y-79958451D01*
X211778666Y-79876000D01*
X210679747Y-78641600D01*
X209008300Y-76764088D01*
X208978426Y-76700927D01*
X208987441Y-76631642D01*
X209030836Y-76580184D01*
X209030816Y-76580159D01*
X209030942Y-76580058D01*
X209032485Y-76578229D01*
X209034922Y-76576657D01*
X209036262Y-76575816D01*
X209163816Y-76448262D01*
X209259789Y-76295522D01*
X209319368Y-76125255D01*
X209339565Y-75946000D01*
X209337026Y-75923467D01*
X209319368Y-75766746D01*
X209319368Y-75766745D01*
X209316458Y-75758427D01*
X209309500Y-75717474D01*
X209309500Y-74334622D01*
X209301296Y-74298681D01*
X209298969Y-74284982D01*
X209294841Y-74248343D01*
X209282659Y-74213531D01*
X209278815Y-74200186D01*
X209270613Y-74164248D01*
X209254618Y-74131034D01*
X209249296Y-74118186D01*
X209237123Y-74083398D01*
X209237122Y-74083394D01*
X209217508Y-74052179D01*
X209210790Y-74040025D01*
X209194790Y-74006798D01*
X209171796Y-73977965D01*
X209163765Y-73966647D01*
X209144147Y-73935424D01*
X209020576Y-73811853D01*
X209020575Y-73811852D01*
X208826404Y-73617681D01*
X208792919Y-73556358D01*
X208797903Y-73486666D01*
X208839775Y-73430733D01*
X208905239Y-73406316D01*
X208914085Y-73406000D01*
X210058000Y-73406000D01*
X210058000Y-70124000D01*
X210077685Y-70056961D01*
X210130489Y-70011206D01*
X210182000Y-70000000D01*
X212340328Y-70000000D01*
X212523376Y-70000000D01*
X213075381Y-70552005D01*
G37*
%TD.AperFunction*%
%TA.AperFunction,Conductor*%
G36*
X218075381Y-70552005D02*
G01*
X218014179Y-70560063D01*
X217868976Y-70620209D01*
X217744287Y-70715886D01*
X217648610Y-70840574D01*
X217588464Y-70985778D01*
X217580406Y-71046979D01*
X216998402Y-70464976D01*
X216977847Y-70496439D01*
X216887917Y-70701459D01*
X216832958Y-70918490D01*
X216814471Y-71141594D01*
X216814471Y-71141605D01*
X216832958Y-71364709D01*
X216887917Y-71581740D01*
X216977845Y-71786756D01*
X216977846Y-71786758D01*
X216998403Y-71818222D01*
X217580406Y-71236219D01*
X217588464Y-71297422D01*
X217648610Y-71442625D01*
X217744287Y-71567314D01*
X217868976Y-71662991D01*
X218014179Y-71723137D01*
X218075381Y-71731194D01*
X217494504Y-72312070D01*
X217539967Y-72336674D01*
X217589557Y-72385894D01*
X217604665Y-72454110D01*
X217580494Y-72519666D01*
X217546121Y-72550291D01*
X217546345Y-72550611D01*
X217543626Y-72552514D01*
X217542956Y-72553112D01*
X217541913Y-72553714D01*
X217362548Y-72679306D01*
X217362542Y-72679311D01*
X217207712Y-72834141D01*
X217207707Y-72834147D01*
X217082119Y-73013505D01*
X217082117Y-73013509D01*
X216989579Y-73211959D01*
X216989575Y-73211968D01*
X216932906Y-73423461D01*
X216932904Y-73423472D01*
X216913821Y-73641598D01*
X216913821Y-73641601D01*
X216932904Y-73859727D01*
X216932906Y-73859738D01*
X216989575Y-74071231D01*
X216989577Y-74071235D01*
X216989578Y-74071239D01*
X217049702Y-74200175D01*
X217082117Y-74269690D01*
X217082119Y-74269694D01*
X217207707Y-74449052D01*
X217207712Y-74449058D01*
X217362542Y-74603888D01*
X217362548Y-74603893D01*
X217541906Y-74729481D01*
X217541908Y-74729482D01*
X217541911Y-74729484D01*
X217635343Y-74773051D01*
X217648566Y-74779218D01*
X217701005Y-74825390D01*
X217720157Y-74892584D01*
X217699941Y-74959465D01*
X217648566Y-75003982D01*
X217541910Y-75053716D01*
X217541906Y-75053718D01*
X217362548Y-75179306D01*
X217362542Y-75179311D01*
X217207712Y-75334141D01*
X217207707Y-75334147D01*
X217082119Y-75513505D01*
X217082117Y-75513509D01*
X216989579Y-75711959D01*
X216989575Y-75711968D01*
X216932906Y-75923461D01*
X216932904Y-75923472D01*
X216913821Y-76141598D01*
X216913821Y-76141601D01*
X216932904Y-76359727D01*
X216932906Y-76359738D01*
X216989575Y-76571231D01*
X216989577Y-76571235D01*
X216989578Y-76571239D01*
X217052431Y-76706028D01*
X217082117Y-76769690D01*
X217082119Y-76769694D01*
X217207707Y-76949052D01*
X217207711Y-76949057D01*
X217362544Y-77103890D01*
X217541911Y-77229484D01*
X217541917Y-77229486D01*
X217542942Y-77230079D01*
X217543307Y-77230461D01*
X217546345Y-77232589D01*
X217545917Y-77233199D01*
X217591161Y-77280643D01*
X217604388Y-77349249D01*
X217578424Y-77414116D01*
X217539967Y-77446524D01*
X217494504Y-77471127D01*
X217494504Y-77471129D01*
X218075381Y-78052006D01*
X218014179Y-78060064D01*
X217868976Y-78120210D01*
X217744287Y-78215887D01*
X217648610Y-78340575D01*
X217588464Y-78485779D01*
X217580406Y-78546980D01*
X216998402Y-77964977D01*
X216977847Y-77996440D01*
X216887917Y-78201460D01*
X216832958Y-78418491D01*
X216814471Y-78641595D01*
X216814471Y-78641606D01*
X216832958Y-78864710D01*
X216887917Y-79081741D01*
X216977845Y-79286757D01*
X216977846Y-79286759D01*
X216998403Y-79318223D01*
X217580406Y-78736220D01*
X217588464Y-78797423D01*
X217648610Y-78942626D01*
X217744287Y-79067315D01*
X217868976Y-79162992D01*
X218014179Y-79223138D01*
X218075381Y-79231195D01*
X217494504Y-79812071D01*
X217501214Y-79858123D01*
X217491400Y-79927300D01*
X217445744Y-79980189D01*
X217378742Y-80000000D01*
X213961492Y-80000000D01*
X213894453Y-79980315D01*
X213848698Y-79927511D01*
X213838754Y-79858353D01*
X213838787Y-79858123D01*
X213845496Y-79812071D01*
X213264621Y-79231195D01*
X213325823Y-79223138D01*
X213471026Y-79162992D01*
X213595715Y-79067315D01*
X213691392Y-78942627D01*
X213751538Y-78797423D01*
X213759595Y-78736220D01*
X214341597Y-79318222D01*
X214362153Y-79286762D01*
X214452085Y-79081738D01*
X214507043Y-78864710D01*
X214525531Y-78641606D01*
X214525531Y-78641595D01*
X214507043Y-78418491D01*
X214452085Y-78201463D01*
X214362150Y-77996434D01*
X214341598Y-77964978D01*
X214341597Y-77964978D01*
X213759595Y-78546980D01*
X213751538Y-78485779D01*
X213691392Y-78340576D01*
X213595715Y-78215887D01*
X213471026Y-78120210D01*
X213325823Y-78060064D01*
X213264620Y-78052006D01*
X213845496Y-77471129D01*
X213845496Y-77471127D01*
X213800033Y-77446524D01*
X213750443Y-77397305D01*
X213735335Y-77329088D01*
X213759506Y-77263533D01*
X213793883Y-77232912D01*
X213793657Y-77232589D01*
X213796410Y-77230660D01*
X213797074Y-77230070D01*
X213798074Y-77229491D01*
X213798091Y-77229484D01*
X213977458Y-77103890D01*
X214132291Y-76949057D01*
X214257885Y-76769690D01*
X214350424Y-76571239D01*
X214407097Y-76359733D01*
X214426181Y-76141600D01*
X214424750Y-76125249D01*
X214420728Y-76079276D01*
X214407097Y-75923467D01*
X214350424Y-75711961D01*
X214257885Y-75513510D01*
X214257883Y-75513507D01*
X214257882Y-75513505D01*
X214132294Y-75334147D01*
X214132289Y-75334141D01*
X213977459Y-75179311D01*
X213977453Y-75179306D01*
X213798095Y-75053718D01*
X213798087Y-75053714D01*
X213691436Y-75003982D01*
X213638996Y-74957810D01*
X213619844Y-74890616D01*
X213640060Y-74823735D01*
X213691436Y-74779218D01*
X213699998Y-74775225D01*
X213798091Y-74729484D01*
X213977458Y-74603890D01*
X214132291Y-74449057D01*
X214257885Y-74269690D01*
X214350424Y-74071239D01*
X214407097Y-73859733D01*
X214426181Y-73641600D01*
X214407097Y-73423467D01*
X214350424Y-73211961D01*
X214257885Y-73013510D01*
X214257883Y-73013507D01*
X214257882Y-73013505D01*
X214132294Y-72834147D01*
X214132289Y-72834141D01*
X213977459Y-72679311D01*
X213977453Y-72679306D01*
X213798095Y-72553718D01*
X213797053Y-72553117D01*
X213796685Y-72552731D01*
X213793657Y-72550611D01*
X213794083Y-72550002D01*
X213748837Y-72502550D01*
X213735613Y-72433943D01*
X213761581Y-72369078D01*
X213800034Y-72336674D01*
X213845496Y-72312070D01*
X213264621Y-71731194D01*
X213325823Y-71723137D01*
X213471026Y-71662991D01*
X213595715Y-71567314D01*
X213691392Y-71442626D01*
X213751538Y-71297422D01*
X213759595Y-71236219D01*
X214341597Y-71818221D01*
X214362153Y-71786761D01*
X214452085Y-71581737D01*
X214507043Y-71364709D01*
X214525531Y-71141605D01*
X214525531Y-71141594D01*
X214507043Y-70918490D01*
X214452085Y-70701462D01*
X214362150Y-70496433D01*
X214341598Y-70464977D01*
X214341597Y-70464977D01*
X213759595Y-71046979D01*
X213751538Y-70985778D01*
X213691392Y-70840575D01*
X213595715Y-70715886D01*
X213471026Y-70620209D01*
X213325823Y-70560063D01*
X213264620Y-70552005D01*
X213816626Y-70000000D01*
X215537000Y-70000000D01*
X217523376Y-70000000D01*
X218075381Y-70552005D01*
G37*
%TD.AperFunction*%
%TA.AperFunction,Conductor*%
G36*
X219341597Y-79318222D02*
G01*
X219362710Y-79316033D01*
X219431422Y-79328698D01*
X219482379Y-79376501D01*
X219499500Y-79439372D01*
X219499500Y-79876000D01*
X219479815Y-79943039D01*
X219427011Y-79988794D01*
X219375500Y-80000000D01*
X218961492Y-80000000D01*
X218894453Y-79980315D01*
X218848698Y-79927511D01*
X218838754Y-79858353D01*
X218838787Y-79858123D01*
X218845496Y-79812071D01*
X218264621Y-79231195D01*
X218325823Y-79223138D01*
X218471026Y-79162992D01*
X218595715Y-79067315D01*
X218691392Y-78942627D01*
X218751538Y-78797423D01*
X218759595Y-78736220D01*
X219341597Y-79318222D01*
G37*
%TD.AperFunction*%
%TA.AperFunction,Conductor*%
G36*
X219443365Y-76707091D02*
G01*
X219488699Y-76760257D01*
X219499500Y-76810872D01*
X219499500Y-77843828D01*
X219479815Y-77910867D01*
X219427011Y-77956622D01*
X219362711Y-77967167D01*
X219341598Y-77964977D01*
X218759595Y-78546980D01*
X218751538Y-78485779D01*
X218691392Y-78340576D01*
X218595715Y-78215887D01*
X218471026Y-78120210D01*
X218325823Y-78060064D01*
X218264620Y-78052006D01*
X218845496Y-77471129D01*
X218845496Y-77471127D01*
X218800033Y-77446524D01*
X218750443Y-77397305D01*
X218735335Y-77329088D01*
X218759506Y-77263533D01*
X218793883Y-77232912D01*
X218793657Y-77232589D01*
X218796410Y-77230660D01*
X218797074Y-77230070D01*
X218798074Y-77229491D01*
X218798091Y-77229484D01*
X218977458Y-77103890D01*
X219132291Y-76949057D01*
X219257885Y-76769690D01*
X219263118Y-76758468D01*
X219309290Y-76706028D01*
X219376483Y-76686876D01*
X219443365Y-76707091D01*
G37*
%TD.AperFunction*%
%TA.AperFunction,Conductor*%
G36*
X219341597Y-71818221D02*
G01*
X219362710Y-71816032D01*
X219431422Y-71828697D01*
X219482379Y-71876500D01*
X219499500Y-71939371D01*
X219499500Y-72972327D01*
X219479815Y-73039366D01*
X219427011Y-73085121D01*
X219357853Y-73095065D01*
X219294297Y-73066040D01*
X219263119Y-73024734D01*
X219257885Y-73013511D01*
X219257882Y-73013505D01*
X219132294Y-72834147D01*
X219132289Y-72834141D01*
X218977459Y-72679311D01*
X218977453Y-72679306D01*
X218798095Y-72553718D01*
X218797053Y-72553117D01*
X218796685Y-72552731D01*
X218793657Y-72550611D01*
X218794083Y-72550002D01*
X218748837Y-72502550D01*
X218735613Y-72433943D01*
X218761581Y-72369078D01*
X218800034Y-72336674D01*
X218845496Y-72312070D01*
X218264621Y-71731194D01*
X218325823Y-71723137D01*
X218471026Y-71662991D01*
X218595715Y-71567314D01*
X218691392Y-71442626D01*
X218751538Y-71297422D01*
X218759595Y-71236219D01*
X219341597Y-71818221D01*
G37*
%TD.AperFunction*%
%TA.AperFunction,Conductor*%
G36*
X219442539Y-70019685D02*
G01*
X219488294Y-70072489D01*
X219499500Y-70124000D01*
X219499500Y-70343827D01*
X219479815Y-70410866D01*
X219427011Y-70456621D01*
X219362711Y-70467166D01*
X219341598Y-70464976D01*
X218759595Y-71046979D01*
X218751538Y-70985778D01*
X218691392Y-70840575D01*
X218595715Y-70715886D01*
X218471026Y-70620209D01*
X218325823Y-70560063D01*
X218264620Y-70552005D01*
X218816626Y-70000000D01*
X218999674Y-70000000D01*
X219375500Y-70000000D01*
X219442539Y-70019685D01*
G37*
%TD.AperFunction*%
%TD*%
%TA.AperFunction,Conductor*%
%TO.N,/Power/Motor+*%
G36*
X205534156Y-87040085D02*
G01*
X205555571Y-87057498D01*
X206735092Y-88258083D01*
X206748606Y-88270384D01*
X206768530Y-88288520D01*
X206789945Y-88305933D01*
X206789952Y-88305938D01*
X206816884Y-88326042D01*
X206931517Y-88380387D01*
X206931519Y-88380387D01*
X206931522Y-88380389D01*
X206998561Y-88400074D01*
X206998565Y-88400074D01*
X206998567Y-88400075D01*
X207014357Y-88402345D01*
X207112807Y-88416500D01*
X207112810Y-88416500D01*
X209887462Y-88416500D01*
X209954501Y-88436185D01*
X209972682Y-88457166D01*
X209974254Y-88455595D01*
X210346000Y-88827340D01*
X210346001Y-88827340D01*
X210715675Y-88457663D01*
X210721078Y-88448790D01*
X210783909Y-88418228D01*
X210804536Y-88416500D01*
X215927451Y-88416500D01*
X215994490Y-88436185D01*
X216040245Y-88488989D01*
X216050189Y-88558147D01*
X216021164Y-88621703D01*
X216015132Y-88628181D01*
X216005863Y-88637449D01*
X216005860Y-88637453D01*
X215948333Y-88750355D01*
X215933500Y-88844013D01*
X215933500Y-89138000D01*
X218758499Y-89138000D01*
X218758499Y-88844020D01*
X218743664Y-88750350D01*
X218743662Y-88750344D01*
X218686143Y-88637458D01*
X218686136Y-88637449D01*
X218676868Y-88628181D01*
X218643383Y-88566858D01*
X218648367Y-88497166D01*
X218690239Y-88441233D01*
X218755703Y-88416816D01*
X218764549Y-88416500D01*
X219375500Y-88416500D01*
X219442539Y-88436185D01*
X219488294Y-88488989D01*
X219499500Y-88540500D01*
X219499500Y-93398800D01*
X219479815Y-93465839D01*
X219427011Y-93511594D01*
X219375500Y-93522800D01*
X218078370Y-93522800D01*
X218011331Y-93503115D01*
X218001059Y-93495749D01*
X217998618Y-93493802D01*
X217705454Y-93285790D01*
X217390831Y-93111905D01*
X217304086Y-93075974D01*
X217058724Y-92974341D01*
X217058720Y-92974339D01*
X217058718Y-92974339D01*
X216713305Y-92874828D01*
X216713296Y-92874826D01*
X216358914Y-92814614D01*
X216358902Y-92814612D01*
X216000000Y-92794457D01*
X215641097Y-92814612D01*
X215641085Y-92814614D01*
X215286703Y-92874826D01*
X215286694Y-92874828D01*
X214941281Y-92974339D01*
X214609168Y-93111905D01*
X214294545Y-93285790D01*
X214001377Y-93493805D01*
X213733339Y-93733339D01*
X213493805Y-94001377D01*
X213285790Y-94294545D01*
X213111905Y-94609168D01*
X212974339Y-94941281D01*
X212874828Y-95286694D01*
X212874826Y-95286703D01*
X212814614Y-95641085D01*
X212814612Y-95641097D01*
X212794457Y-96000000D01*
X212814612Y-96358902D01*
X212814614Y-96358914D01*
X212874826Y-96713296D01*
X212874828Y-96713305D01*
X212919877Y-96869673D01*
X212919520Y-96939541D01*
X212881447Y-96998126D01*
X212817744Y-97026826D01*
X212800723Y-97028000D01*
X206432512Y-97028000D01*
X206366540Y-97008994D01*
X206292722Y-96962611D01*
X206122454Y-96903031D01*
X206122449Y-96903030D01*
X205943204Y-96882835D01*
X205943196Y-96882835D01*
X205763950Y-96903030D01*
X205763945Y-96903031D01*
X205593677Y-96962611D01*
X205519860Y-97008994D01*
X205453888Y-97028000D01*
X203938717Y-97028000D01*
X203250800Y-97688399D01*
X203250800Y-97731300D01*
X203231115Y-97798339D01*
X203178311Y-97844094D01*
X203126800Y-97855300D01*
X200707800Y-97855300D01*
X200640761Y-97835615D01*
X200595006Y-97782811D01*
X200583800Y-97731300D01*
X200583800Y-97155562D01*
X200603485Y-97088523D01*
X200620119Y-97067881D01*
X200748459Y-96939541D01*
X200914000Y-96774000D01*
X200914000Y-91266922D01*
X210027737Y-91266922D01*
X210228958Y-91300500D01*
X210463042Y-91300500D01*
X210664261Y-91266921D01*
X210346001Y-90948660D01*
X210346000Y-90948660D01*
X210027737Y-91266922D01*
X200914000Y-91266922D01*
X200914000Y-90638000D01*
X215933501Y-90638000D01*
X215933501Y-90931979D01*
X215948335Y-91025649D01*
X215948337Y-91025655D01*
X216005856Y-91138541D01*
X216005863Y-91138550D01*
X216095449Y-91228136D01*
X216095453Y-91228139D01*
X216208355Y-91285666D01*
X216302014Y-91300499D01*
X216595999Y-91300499D01*
X216596000Y-91300498D01*
X216596000Y-90638000D01*
X218096000Y-90638000D01*
X218096000Y-91300499D01*
X218389979Y-91300499D01*
X218483649Y-91285664D01*
X218483655Y-91285662D01*
X218596541Y-91228143D01*
X218596550Y-91228136D01*
X218686136Y-91138550D01*
X218686139Y-91138546D01*
X218743666Y-91025644D01*
X218758500Y-90931986D01*
X218758500Y-90638000D01*
X218096000Y-90638000D01*
X216596000Y-90638000D01*
X215933501Y-90638000D01*
X200914000Y-90638000D01*
X200914000Y-89888005D01*
X208928659Y-89888005D01*
X208947989Y-90121283D01*
X208969017Y-90204322D01*
X209203380Y-89969960D01*
X209671000Y-89969960D01*
X209710228Y-90129116D01*
X209786406Y-90274260D01*
X209895104Y-90396956D01*
X210030008Y-90490073D01*
X210183275Y-90548200D01*
X210305166Y-90563000D01*
X210386834Y-90563000D01*
X210508725Y-90548200D01*
X210661992Y-90490073D01*
X210796896Y-90396956D01*
X210905594Y-90274260D01*
X210981772Y-90129116D01*
X211021000Y-89969960D01*
X211021000Y-89888000D01*
X211406660Y-89888000D01*
X211722982Y-90204322D01*
X211744008Y-90121295D01*
X211744011Y-90121278D01*
X211756550Y-89969960D01*
X216671000Y-89969960D01*
X216710228Y-90129116D01*
X216786406Y-90274260D01*
X216895104Y-90396956D01*
X217030008Y-90490073D01*
X217183275Y-90548200D01*
X217305166Y-90563000D01*
X217386834Y-90563000D01*
X217508725Y-90548200D01*
X217661992Y-90490073D01*
X217796896Y-90396956D01*
X217905594Y-90274260D01*
X217981772Y-90129116D01*
X218021000Y-89969960D01*
X218021000Y-89806040D01*
X217981772Y-89646884D01*
X217905594Y-89501740D01*
X217796896Y-89379044D01*
X217661992Y-89285927D01*
X217508725Y-89227800D01*
X217386834Y-89213000D01*
X217305166Y-89213000D01*
X217183275Y-89227800D01*
X217030008Y-89285927D01*
X216895104Y-89379044D01*
X216786406Y-89501740D01*
X216710228Y-89646884D01*
X216671000Y-89806040D01*
X216671000Y-89969960D01*
X211756550Y-89969960D01*
X211763341Y-89888005D01*
X211763341Y-89887994D01*
X211744011Y-89654721D01*
X211744007Y-89654701D01*
X211722982Y-89571676D01*
X211406660Y-89887999D01*
X211406660Y-89888000D01*
X211021000Y-89888000D01*
X211021000Y-89806040D01*
X210981772Y-89646884D01*
X210905594Y-89501740D01*
X210796896Y-89379044D01*
X210661992Y-89285927D01*
X210508725Y-89227800D01*
X210386834Y-89213000D01*
X210305166Y-89213000D01*
X210183275Y-89227800D01*
X210030008Y-89285927D01*
X209895104Y-89379044D01*
X209786406Y-89501740D01*
X209710228Y-89646884D01*
X209671000Y-89806040D01*
X209671000Y-89969960D01*
X209203380Y-89969960D01*
X209285340Y-89888000D01*
X209285340Y-89887999D01*
X208969017Y-89571676D01*
X208947989Y-89654716D01*
X208928659Y-89887994D01*
X208928659Y-89888005D01*
X200914000Y-89888005D01*
X200914000Y-89786000D01*
X200933685Y-89718961D01*
X200986489Y-89673206D01*
X201038000Y-89662000D01*
X202438000Y-89662000D01*
X202565221Y-89534778D01*
X202603550Y-89510550D01*
X202602882Y-89509059D01*
X202607324Y-89507068D01*
X202607324Y-89507067D01*
X202607332Y-89507065D01*
X202668655Y-89473580D01*
X202761051Y-89404413D01*
X203196413Y-88969051D01*
X203225423Y-88936754D01*
X203242057Y-88916112D01*
X203261042Y-88890561D01*
X203298367Y-88811827D01*
X203322723Y-88777276D01*
X203581000Y-88519000D01*
X203581000Y-87144400D01*
X203600685Y-87077361D01*
X203653489Y-87031606D01*
X203705000Y-87020400D01*
X205467117Y-87020400D01*
X205534156Y-87040085D01*
G37*
%TD.AperFunction*%
%TD*%
%TA.AperFunction,Conductor*%
%TO.N,/Power/+VBat*%
G36*
X198999732Y-65490985D02*
G01*
X199016547Y-65503951D01*
X199781658Y-66206348D01*
X199817730Y-66266186D01*
X199821800Y-66297693D01*
X199821800Y-68927470D01*
X199802115Y-68994509D01*
X199789119Y-69011356D01*
X197815200Y-71160179D01*
X197815200Y-73227638D01*
X197795515Y-73294677D01*
X197778881Y-73315319D01*
X197470519Y-73623681D01*
X197409196Y-73657166D01*
X197382838Y-73660000D01*
X196849999Y-73660000D01*
X196055617Y-74454382D01*
X196068561Y-76421738D01*
X196049318Y-76488906D01*
X196020693Y-76520434D01*
X195786012Y-76702964D01*
X195721009Y-76728584D01*
X195696000Y-76728304D01*
X195580004Y-76715235D01*
X195579996Y-76715235D01*
X195400750Y-76735430D01*
X195400745Y-76735431D01*
X195230476Y-76795011D01*
X195077737Y-76890984D01*
X194950184Y-77018537D01*
X194854210Y-77171278D01*
X194823182Y-77259954D01*
X194782460Y-77316730D01*
X194717508Y-77342478D01*
X194706140Y-77343000D01*
X191296011Y-77343000D01*
X191228972Y-77323315D01*
X191210137Y-77308452D01*
X191159618Y-77259954D01*
X190908143Y-77018537D01*
X190792126Y-76907160D01*
X190757397Y-76846533D01*
X190754000Y-76817708D01*
X190754000Y-72581753D01*
X190773685Y-72514714D01*
X190805993Y-72480802D01*
X192657453Y-71160180D01*
X194640200Y-69745913D01*
X194640200Y-68341500D01*
X195903001Y-68341500D01*
X195903001Y-68672979D01*
X195917835Y-68766649D01*
X195917837Y-68766655D01*
X195975356Y-68879541D01*
X195975363Y-68879550D01*
X196064949Y-68969136D01*
X196064953Y-68969139D01*
X196177855Y-69026666D01*
X196271514Y-69041499D01*
X196602999Y-69041499D01*
X196603000Y-69041498D01*
X196603000Y-68341500D01*
X198103000Y-68341500D01*
X198103000Y-69041499D01*
X198434479Y-69041499D01*
X198528149Y-69026664D01*
X198528155Y-69026662D01*
X198641041Y-68969143D01*
X198641050Y-68969136D01*
X198730636Y-68879550D01*
X198730639Y-68879546D01*
X198788166Y-68766644D01*
X198803000Y-68672986D01*
X198803000Y-68341500D01*
X198103000Y-68341500D01*
X196603000Y-68341500D01*
X195903001Y-68341500D01*
X194640200Y-68341500D01*
X194640200Y-67676495D01*
X196653000Y-67676495D01*
X196693682Y-67841546D01*
X196772680Y-67992066D01*
X196885405Y-68119306D01*
X197025305Y-68215871D01*
X197184249Y-68276151D01*
X197310660Y-68291500D01*
X197395340Y-68291500D01*
X197521751Y-68276151D01*
X197680695Y-68215871D01*
X197820595Y-68119306D01*
X197933320Y-67992066D01*
X198012318Y-67841546D01*
X198053000Y-67676495D01*
X198053000Y-67506505D01*
X198012318Y-67341454D01*
X197933320Y-67190934D01*
X197820595Y-67063694D01*
X197680695Y-66967129D01*
X197521751Y-66906849D01*
X197395340Y-66891500D01*
X197310660Y-66891500D01*
X197184249Y-66906849D01*
X197025305Y-66967129D01*
X196885405Y-67063694D01*
X196772680Y-67190934D01*
X196693682Y-67341454D01*
X196653000Y-67506505D01*
X196653000Y-67676495D01*
X194640200Y-67676495D01*
X194640200Y-66841500D01*
X195903000Y-66841500D01*
X196603000Y-66841500D01*
X196603000Y-66141500D01*
X198103000Y-66141500D01*
X198103000Y-66841500D01*
X198802999Y-66841500D01*
X198802999Y-66510020D01*
X198788164Y-66416350D01*
X198788162Y-66416344D01*
X198730643Y-66303458D01*
X198730636Y-66303449D01*
X198641050Y-66213863D01*
X198641046Y-66213860D01*
X198528144Y-66156333D01*
X198434486Y-66141500D01*
X198103000Y-66141500D01*
X196603000Y-66141500D01*
X196271520Y-66141500D01*
X196177850Y-66156335D01*
X196177844Y-66156337D01*
X196064958Y-66213856D01*
X196064949Y-66213863D01*
X195975363Y-66303449D01*
X195975360Y-66303453D01*
X195917833Y-66416355D01*
X195903000Y-66510013D01*
X195903000Y-66841500D01*
X194640200Y-66841500D01*
X194640200Y-66420066D01*
X194659885Y-66353027D01*
X194688497Y-66321857D01*
X194712366Y-66303458D01*
X195758465Y-65497090D01*
X195823578Y-65471753D01*
X195834167Y-65471300D01*
X198932693Y-65471300D01*
X198999732Y-65490985D01*
G37*
%TD.AperFunction*%
%TD*%
%TA.AperFunction,Conductor*%
%TO.N,GND*%
G36*
X203708000Y-70993000D02*
G01*
X203708000Y-72321200D01*
X203708000Y-74269037D01*
X203688315Y-74336076D01*
X203671681Y-74356718D01*
X203153107Y-74875291D01*
X203095102Y-74908007D01*
X203018434Y-74926904D01*
X202976937Y-74948684D01*
X202942808Y-74966596D01*
X202885183Y-74980800D01*
X202346417Y-74980800D01*
X202288791Y-74966596D01*
X202213165Y-74926904D01*
X202213164Y-74926903D01*
X202213163Y-74926903D01*
X202059786Y-74889100D01*
X202059785Y-74889100D01*
X201901815Y-74889100D01*
X201901814Y-74889100D01*
X201748436Y-74926903D01*
X201708808Y-74947701D01*
X201672808Y-74966596D01*
X201615183Y-74980800D01*
X200736199Y-74980800D01*
X200660000Y-75056999D01*
X200660000Y-76021638D01*
X200640315Y-76088677D01*
X200623681Y-76109319D01*
X199553319Y-77179681D01*
X199491996Y-77213166D01*
X199465638Y-77216000D01*
X197228000Y-77216000D01*
X197160961Y-77196315D01*
X197115206Y-77143511D01*
X197104000Y-77092000D01*
X197104000Y-74730547D01*
X197123685Y-74663508D01*
X197144206Y-74639143D01*
X198628000Y-73279000D01*
X198628000Y-71298362D01*
X198647685Y-71231323D01*
X198664319Y-71210681D01*
X199262998Y-70612002D01*
X199263000Y-70612000D01*
X203327000Y-70612000D01*
X203708000Y-70993000D01*
G37*
%TD.AperFunction*%
%TD*%
%TA.AperFunction,Conductor*%
%TO.N,GND*%
G36*
X186949777Y-80426185D02*
G01*
X186970419Y-80442819D01*
X189092081Y-82564481D01*
X189125566Y-82625804D01*
X189128400Y-82652162D01*
X189128400Y-86511838D01*
X189108715Y-86578877D01*
X189092081Y-86599519D01*
X188453519Y-87238081D01*
X188392196Y-87271566D01*
X188365838Y-87274400D01*
X182829762Y-87274400D01*
X182762723Y-87254715D01*
X182742081Y-87238081D01*
X181646319Y-86142319D01*
X181612834Y-86080996D01*
X181610000Y-86054638D01*
X181610000Y-85699600D01*
X180670200Y-84759800D01*
X178994362Y-84759800D01*
X178927323Y-84740115D01*
X178906681Y-84723481D01*
X178674519Y-84491319D01*
X178641034Y-84429996D01*
X178638200Y-84403638D01*
X178638200Y-82829962D01*
X178657885Y-82762923D01*
X178674519Y-82742281D01*
X178852319Y-82564481D01*
X179070000Y-82346800D01*
X179070000Y-80530500D01*
X179089685Y-80463461D01*
X179142489Y-80417706D01*
X179194000Y-80406500D01*
X186882738Y-80406500D01*
X186949777Y-80426185D01*
G37*
%TD.AperFunction*%
%TD*%
%TA.AperFunction,Conductor*%
%TO.N,GND*%
G36*
X219442539Y-60520185D02*
G01*
X219488294Y-60572989D01*
X219499500Y-60624500D01*
X219499500Y-67972327D01*
X219479815Y-68039366D01*
X219427011Y-68085121D01*
X219357853Y-68095065D01*
X219294297Y-68066040D01*
X219263119Y-68024734D01*
X219257885Y-68013511D01*
X219257882Y-68013505D01*
X219132294Y-67834147D01*
X219132289Y-67834141D01*
X218977459Y-67679311D01*
X218977453Y-67679306D01*
X218798095Y-67553718D01*
X218798091Y-67553716D01*
X218779213Y-67544913D01*
X218599640Y-67461177D01*
X218599636Y-67461176D01*
X218599632Y-67461174D01*
X218388139Y-67404505D01*
X218388135Y-67404504D01*
X218388134Y-67404504D01*
X218388133Y-67404503D01*
X218388128Y-67404503D01*
X218170003Y-67385420D01*
X218169999Y-67385420D01*
X217951873Y-67404503D01*
X217951862Y-67404505D01*
X217740369Y-67461174D01*
X217740360Y-67461178D01*
X217541910Y-67553716D01*
X217541906Y-67553718D01*
X217362548Y-67679306D01*
X217362542Y-67679311D01*
X217207712Y-67834141D01*
X217207707Y-67834147D01*
X217082119Y-68013505D01*
X217082117Y-68013509D01*
X216989579Y-68211959D01*
X216989575Y-68211968D01*
X216932906Y-68423461D01*
X216932904Y-68423472D01*
X216913821Y-68641598D01*
X216913821Y-68641601D01*
X216932904Y-68859727D01*
X216932906Y-68859738D01*
X216989575Y-69071231D01*
X216989577Y-69071235D01*
X216989578Y-69071239D01*
X217069292Y-69242187D01*
X217082117Y-69269690D01*
X217082119Y-69269694D01*
X217172924Y-69399377D01*
X217195251Y-69465583D01*
X217178241Y-69533350D01*
X217127293Y-69581163D01*
X217071349Y-69594500D01*
X214268653Y-69594500D01*
X214201614Y-69574815D01*
X214155859Y-69522011D01*
X214145915Y-69452853D01*
X214167078Y-69399377D01*
X214257882Y-69269694D01*
X214257881Y-69269694D01*
X214257885Y-69269690D01*
X214350424Y-69071239D01*
X214407097Y-68859733D01*
X214426181Y-68641600D01*
X214407097Y-68423467D01*
X214350424Y-68211961D01*
X214257885Y-68013510D01*
X214257883Y-68013507D01*
X214257882Y-68013505D01*
X214132294Y-67834147D01*
X214132289Y-67834141D01*
X213977459Y-67679311D01*
X213977453Y-67679306D01*
X213798095Y-67553718D01*
X213798091Y-67553716D01*
X213779213Y-67544913D01*
X213599640Y-67461177D01*
X213599636Y-67461176D01*
X213599632Y-67461174D01*
X213388139Y-67404505D01*
X213388135Y-67404504D01*
X213388134Y-67404504D01*
X213388133Y-67404503D01*
X213388128Y-67404503D01*
X213170003Y-67385420D01*
X213169999Y-67385420D01*
X212951873Y-67404503D01*
X212951862Y-67404505D01*
X212740369Y-67461174D01*
X212740360Y-67461178D01*
X212541910Y-67553716D01*
X212541906Y-67553718D01*
X212362548Y-67679306D01*
X212362542Y-67679311D01*
X212207712Y-67834141D01*
X212207707Y-67834147D01*
X212082119Y-68013505D01*
X212082117Y-68013509D01*
X211989579Y-68211959D01*
X211989575Y-68211968D01*
X211932906Y-68423461D01*
X211932904Y-68423472D01*
X211913821Y-68641598D01*
X211913821Y-68641601D01*
X211932904Y-68859727D01*
X211932906Y-68859738D01*
X211989575Y-69071231D01*
X211989577Y-69071235D01*
X211989578Y-69071239D01*
X212069292Y-69242187D01*
X212082117Y-69269690D01*
X212082119Y-69269694D01*
X212172924Y-69399377D01*
X212195251Y-69465583D01*
X212178241Y-69533350D01*
X212127293Y-69581163D01*
X212071349Y-69594500D01*
X210181991Y-69594500D01*
X210095802Y-69603767D01*
X210044293Y-69614973D01*
X210044290Y-69614974D01*
X209972640Y-69637690D01*
X209972638Y-69637691D01*
X209972637Y-69637691D01*
X209864940Y-69704751D01*
X209864940Y-69704752D01*
X209812145Y-69750498D01*
X209742956Y-69828079D01*
X209688611Y-69942712D01*
X209668926Y-70009752D01*
X209668924Y-70009760D01*
X209652500Y-70123999D01*
X209652500Y-72197200D01*
X209632815Y-72264239D01*
X209580011Y-72309994D01*
X209528500Y-72321200D01*
X207581284Y-72321200D01*
X207514245Y-72301515D01*
X207493603Y-72284881D01*
X206693470Y-71484748D01*
X206676157Y-71463039D01*
X206623816Y-71379738D01*
X206496262Y-71252184D01*
X206343523Y-71156211D01*
X206173254Y-71096631D01*
X206173249Y-71096630D01*
X205994004Y-71076435D01*
X205993996Y-71076435D01*
X205814750Y-71096630D01*
X205814745Y-71096631D01*
X205644476Y-71156211D01*
X205491737Y-71252184D01*
X205364184Y-71379737D01*
X205268211Y-71532476D01*
X205208631Y-71702745D01*
X205208630Y-71702750D01*
X205188435Y-71881996D01*
X205188435Y-71882002D01*
X205207343Y-72049816D01*
X205195289Y-72118638D01*
X205147940Y-72170018D01*
X205084123Y-72187700D01*
X204492391Y-72187700D01*
X204406202Y-72196967D01*
X204354693Y-72208173D01*
X204354690Y-72208174D01*
X204283040Y-72230890D01*
X204283038Y-72230891D01*
X204283037Y-72230891D01*
X204171208Y-72300525D01*
X204170421Y-72299261D01*
X204111010Y-72320943D01*
X204103038Y-72321200D01*
X203708000Y-72321200D01*
X203708000Y-71947959D01*
X204901800Y-70639370D01*
X204901800Y-66675000D01*
X203714588Y-65471300D01*
X203742792Y-65471300D01*
X203809831Y-65490985D01*
X203830473Y-65507619D01*
X205778364Y-67455510D01*
X205788435Y-67468080D01*
X205788622Y-67467926D01*
X205793595Y-67473937D01*
X205793597Y-67473939D01*
X205793598Y-67473940D01*
X205815260Y-67494282D01*
X205844632Y-67521864D01*
X205847429Y-67524575D01*
X205867767Y-67544913D01*
X205871250Y-67547615D01*
X205880126Y-67555196D01*
X205900236Y-67574080D01*
X205913407Y-67586448D01*
X205913409Y-67586449D01*
X205932005Y-67596672D01*
X205948270Y-67607357D01*
X205965032Y-67620360D01*
X205965035Y-67620361D01*
X205965036Y-67620362D01*
X206006940Y-67638495D01*
X206017412Y-67643625D01*
X206057432Y-67665627D01*
X206073140Y-67669659D01*
X206077986Y-67670904D01*
X206096398Y-67677207D01*
X206115873Y-67685635D01*
X206160979Y-67692778D01*
X206172374Y-67695138D01*
X206216623Y-67706500D01*
X206237851Y-67706500D01*
X206257248Y-67708026D01*
X206278203Y-67711345D01*
X206278204Y-67711346D01*
X206278204Y-67711345D01*
X206278205Y-67711346D01*
X206323652Y-67707050D01*
X206335321Y-67706500D01*
X211280495Y-67706500D01*
X211296505Y-67708267D01*
X211296528Y-67708026D01*
X211304289Y-67708758D01*
X211304296Y-67708760D01*
X211374262Y-67706560D01*
X211378157Y-67706500D01*
X211406925Y-67706500D01*
X211411287Y-67705948D01*
X211422939Y-67705030D01*
X211468569Y-67703597D01*
X211488956Y-67697673D01*
X211507996Y-67693731D01*
X211529058Y-67691071D01*
X211571520Y-67674258D01*
X211582557Y-67670480D01*
X211626398Y-67657744D01*
X211644665Y-67646939D01*
X211662136Y-67638380D01*
X211681871Y-67630568D01*
X211718816Y-67603725D01*
X211728548Y-67597332D01*
X211767865Y-67574081D01*
X211782872Y-67559072D01*
X211797661Y-67546440D01*
X211814837Y-67533963D01*
X211843947Y-67498772D01*
X211851790Y-67490154D01*
X212226224Y-67115720D01*
X212287545Y-67082237D01*
X212300019Y-67080183D01*
X212307255Y-67079368D01*
X212477522Y-67019789D01*
X212630262Y-66923816D01*
X212757816Y-66796262D01*
X212853789Y-66643522D01*
X212913368Y-66473255D01*
X212921002Y-66405500D01*
X212933565Y-66294003D01*
X212933565Y-66293996D01*
X212913369Y-66114750D01*
X212913368Y-66114745D01*
X212910397Y-66106255D01*
X212853789Y-65944478D01*
X212757816Y-65791738D01*
X212630262Y-65664184D01*
X212552900Y-65615574D01*
X212477523Y-65568211D01*
X212307254Y-65508631D01*
X212307249Y-65508630D01*
X212128004Y-65488435D01*
X212127996Y-65488435D01*
X211948750Y-65508630D01*
X211948745Y-65508631D01*
X211778476Y-65568211D01*
X211625737Y-65664184D01*
X211498184Y-65791737D01*
X211402210Y-65944478D01*
X211342632Y-66114744D01*
X211342630Y-66114752D01*
X211341815Y-66121988D01*
X211314743Y-66186400D01*
X211306278Y-66195775D01*
X211132871Y-66369182D01*
X211071551Y-66402666D01*
X211045192Y-66405500D01*
X208473971Y-66405500D01*
X208406932Y-66385815D01*
X208361177Y-66333011D01*
X208351233Y-66263853D01*
X208380258Y-66200297D01*
X208392219Y-66188743D01*
X208392200Y-66188723D01*
X208395999Y-66185081D01*
X208396003Y-66185079D01*
X208568118Y-66020121D01*
X208709879Y-65828447D01*
X208817207Y-65615574D01*
X208887016Y-65387623D01*
X208917298Y-65151154D01*
X208907180Y-64912968D01*
X208902621Y-64891816D01*
X208856954Y-64679919D01*
X208829470Y-64611523D01*
X208768064Y-64458710D01*
X208643069Y-64255705D01*
X208485564Y-64076745D01*
X208300080Y-63926977D01*
X208300077Y-63926975D01*
X208300073Y-63926972D01*
X208206597Y-63874753D01*
X208157671Y-63824873D01*
X208143479Y-63756460D01*
X208168527Y-63691235D01*
X208224862Y-63649905D01*
X208267072Y-63642500D01*
X208975192Y-63642500D01*
X209042231Y-63662185D01*
X209062873Y-63678819D01*
X210045564Y-64661510D01*
X210055635Y-64674080D01*
X210055822Y-64673926D01*
X210060795Y-64679937D01*
X210111832Y-64727864D01*
X210114629Y-64730575D01*
X210134967Y-64750913D01*
X210138450Y-64753615D01*
X210147326Y-64761196D01*
X210166957Y-64779630D01*
X210180607Y-64792448D01*
X210180610Y-64792450D01*
X210180612Y-64792451D01*
X210199207Y-64802674D01*
X210215468Y-64813356D01*
X210232231Y-64826359D01*
X210232242Y-64826365D01*
X210245865Y-64832260D01*
X210284304Y-64858382D01*
X210317738Y-64891816D01*
X210470478Y-64987789D01*
X210596386Y-65031846D01*
X210640745Y-65047368D01*
X210640750Y-65047369D01*
X210819996Y-65067565D01*
X210820000Y-65067565D01*
X210820004Y-65067565D01*
X210999249Y-65047369D01*
X210999252Y-65047368D01*
X210999255Y-65047368D01*
X211169522Y-64987789D01*
X211322262Y-64891816D01*
X211449816Y-64764262D01*
X211545789Y-64611522D01*
X211605368Y-64441255D01*
X211607618Y-64421288D01*
X211625565Y-64262003D01*
X211625565Y-64261996D01*
X211605369Y-64082750D01*
X211605368Y-64082745D01*
X211576414Y-64000000D01*
X212794457Y-64000000D01*
X212814612Y-64358902D01*
X212814614Y-64358914D01*
X212874826Y-64713296D01*
X212874828Y-64713305D01*
X212974339Y-65058718D01*
X212974341Y-65058724D01*
X213012627Y-65151154D01*
X213110575Y-65387621D01*
X213111906Y-65390833D01*
X213167258Y-65490985D01*
X213285790Y-65705454D01*
X213453538Y-65941871D01*
X213493806Y-65998623D01*
X213733339Y-66266661D01*
X214001377Y-66506194D01*
X214294548Y-66714211D01*
X214609167Y-66888094D01*
X214941276Y-67025659D01*
X215286700Y-67125173D01*
X215641093Y-67185387D01*
X216000000Y-67205543D01*
X216358907Y-67185387D01*
X216713300Y-67125173D01*
X217058724Y-67025659D01*
X217390833Y-66888094D01*
X217705452Y-66714211D01*
X217998623Y-66506194D01*
X218266661Y-66266661D01*
X218506194Y-65998623D01*
X218714211Y-65705452D01*
X218888094Y-65390833D01*
X219025659Y-65058724D01*
X219125173Y-64713300D01*
X219185387Y-64358907D01*
X219205543Y-64000000D01*
X219185387Y-63641093D01*
X219125173Y-63286700D01*
X219025659Y-62941276D01*
X218888094Y-62609167D01*
X218714211Y-62294548D01*
X218696091Y-62269011D01*
X218506194Y-62001377D01*
X218266661Y-61733339D01*
X217998623Y-61493806D01*
X217998622Y-61493805D01*
X217705454Y-61285790D01*
X217390831Y-61111905D01*
X217304086Y-61075974D01*
X217058724Y-60974341D01*
X217058720Y-60974339D01*
X217058718Y-60974339D01*
X216713305Y-60874828D01*
X216713296Y-60874826D01*
X216358914Y-60814614D01*
X216358902Y-60814612D01*
X216000000Y-60794457D01*
X215641097Y-60814612D01*
X215641085Y-60814614D01*
X215286703Y-60874826D01*
X215286694Y-60874828D01*
X214941281Y-60974339D01*
X214609168Y-61111905D01*
X214294545Y-61285790D01*
X214001377Y-61493805D01*
X213733339Y-61733339D01*
X213493805Y-62001377D01*
X213285790Y-62294545D01*
X213111905Y-62609168D01*
X212974339Y-62941281D01*
X212874828Y-63286694D01*
X212874826Y-63286703D01*
X212814614Y-63641085D01*
X212814612Y-63641097D01*
X212794457Y-64000000D01*
X211576414Y-64000000D01*
X211545789Y-63912478D01*
X211449816Y-63759738D01*
X211322262Y-63632184D01*
X211273631Y-63601627D01*
X211169523Y-63536211D01*
X210999254Y-63476631D01*
X210999249Y-63476630D01*
X210820004Y-63456435D01*
X210819997Y-63456435D01*
X210753858Y-63463887D01*
X210685037Y-63451832D01*
X210652294Y-63428348D01*
X209816434Y-62592488D01*
X209806361Y-62579914D01*
X209806174Y-62580070D01*
X209801198Y-62574054D01*
X209750167Y-62526134D01*
X209747369Y-62523423D01*
X209727035Y-62503089D01*
X209723548Y-62500384D01*
X209714669Y-62492800D01*
X209681396Y-62461554D01*
X209681388Y-62461548D01*
X209662792Y-62451325D01*
X209646531Y-62440644D01*
X209629763Y-62427637D01*
X209613409Y-62420560D01*
X209587853Y-62409501D01*
X209577394Y-62404377D01*
X209537368Y-62382373D01*
X209537365Y-62382372D01*
X209516801Y-62377092D01*
X209498396Y-62370790D01*
X209478927Y-62362365D01*
X209478921Y-62362363D01*
X209433837Y-62355223D01*
X209422398Y-62352854D01*
X209378180Y-62341500D01*
X209378177Y-62341500D01*
X209356955Y-62341500D01*
X209337555Y-62339973D01*
X209316596Y-62336653D01*
X209316595Y-62336653D01*
X209281475Y-62339973D01*
X209271140Y-62340950D01*
X209259470Y-62341500D01*
X209091940Y-62341500D01*
X209024901Y-62321815D01*
X208979146Y-62269011D01*
X208969202Y-62199853D01*
X208998227Y-62136297D01*
X209004259Y-62129819D01*
X209040774Y-62093304D01*
X209113016Y-62021062D01*
X209208989Y-61868322D01*
X209268568Y-61698055D01*
X209268569Y-61698049D01*
X209288765Y-61518803D01*
X209288765Y-61518796D01*
X209268569Y-61339550D01*
X209268568Y-61339545D01*
X209208988Y-61169275D01*
X209159759Y-61090929D01*
X209140758Y-61023692D01*
X209161125Y-60956857D01*
X209205727Y-60915905D01*
X209839307Y-60572989D01*
X209945621Y-60515448D01*
X210004644Y-60500500D01*
X219375500Y-60500500D01*
X219442539Y-60520185D01*
G37*
%TD.AperFunction*%
%TA.AperFunction,Conductor*%
G36*
X200221320Y-66225317D02*
G01*
X200219895Y-66214280D01*
X200219892Y-66214263D01*
X200219889Y-66214236D01*
X200212705Y-66174398D01*
X200212704Y-66174395D01*
X200211896Y-66172402D01*
X200211417Y-66169951D01*
X200210919Y-66168229D01*
X200211073Y-66168184D01*
X200202800Y-66125787D01*
X200202800Y-65862507D01*
X200222485Y-65795468D01*
X200267774Y-65753457D01*
X200761476Y-65486247D01*
X200820498Y-65471300D01*
X201002268Y-65471300D01*
X200221320Y-66225317D01*
G37*
%TD.AperFunction*%
%TD*%
%TA.AperFunction,Conductor*%
%TO.N,/ESP32-S3/GND3*%
G36*
X158257677Y-63773685D02*
G01*
X158278319Y-63790319D01*
X160551697Y-66063697D01*
X160556475Y-66068751D01*
X160733334Y-66266656D01*
X160733336Y-66266658D01*
X160733339Y-66266661D01*
X160847577Y-66368750D01*
X160931247Y-66443522D01*
X160936301Y-66448301D01*
X161507681Y-67019681D01*
X161541166Y-67081004D01*
X161544000Y-67107362D01*
X161544000Y-68567500D01*
X161524315Y-68634539D01*
X161471511Y-68680294D01*
X161420000Y-68691500D01*
X159978504Y-68691500D01*
X159962493Y-68689732D01*
X159962471Y-68689974D01*
X159954704Y-68689240D01*
X159954703Y-68689240D01*
X159884737Y-68691439D01*
X159880842Y-68691500D01*
X159852075Y-68691500D01*
X159852072Y-68691500D01*
X159852057Y-68691501D01*
X159847687Y-68692053D01*
X159836059Y-68692968D01*
X159790434Y-68694402D01*
X159790424Y-68694404D01*
X159770048Y-68700323D01*
X159751008Y-68704266D01*
X159729947Y-68706927D01*
X159729938Y-68706929D01*
X159687491Y-68723735D01*
X159676442Y-68727518D01*
X159632602Y-68740255D01*
X159614332Y-68751060D01*
X159596863Y-68759618D01*
X159577128Y-68767432D01*
X159577126Y-68767433D01*
X159540201Y-68794260D01*
X159530442Y-68800671D01*
X159491132Y-68823920D01*
X159476126Y-68838926D01*
X159461336Y-68851558D01*
X159444167Y-68864032D01*
X159444165Y-68864034D01*
X159415056Y-68899219D01*
X159407196Y-68907856D01*
X158212331Y-70102721D01*
X158165609Y-70132080D01*
X158146478Y-70138775D01*
X158146475Y-70138776D01*
X157993737Y-70234748D01*
X157866184Y-70362301D01*
X157770211Y-70515040D01*
X157710631Y-70685309D01*
X157710630Y-70685313D01*
X157699944Y-70780160D01*
X157672877Y-70844574D01*
X157617678Y-70883317D01*
X157576619Y-70897684D01*
X157459190Y-70938774D01*
X157306449Y-71034748D01*
X157178893Y-71162304D01*
X157166904Y-71181385D01*
X157114568Y-71227674D01*
X157045515Y-71238321D01*
X157020959Y-71232452D01*
X156993260Y-71222760D01*
X156993259Y-71222759D01*
X156993257Y-71222759D01*
X156970962Y-71220246D01*
X156956617Y-71218630D01*
X156942912Y-71216301D01*
X156906983Y-71208100D01*
X156906978Y-71208100D01*
X156863152Y-71208100D01*
X154652184Y-71208100D01*
X154585145Y-71188415D01*
X154564503Y-71171781D01*
X154464817Y-71072095D01*
X154464815Y-71072092D01*
X154334178Y-70941455D01*
X154334176Y-70941453D01*
X154315359Y-70929629D01*
X154302959Y-70921837D01*
X154291622Y-70913793D01*
X154290639Y-70913009D01*
X154262802Y-70890810D01*
X154262799Y-70890808D01*
X154262796Y-70890806D01*
X154229580Y-70874810D01*
X154217411Y-70868085D01*
X154186208Y-70848479D01*
X154186209Y-70848479D01*
X154175049Y-70844574D01*
X154151411Y-70836302D01*
X154138572Y-70830984D01*
X154105353Y-70814987D01*
X154105352Y-70814986D01*
X154069417Y-70806784D01*
X154056062Y-70802937D01*
X154036802Y-70796198D01*
X154021257Y-70790759D01*
X153998962Y-70788246D01*
X153984617Y-70786630D01*
X153970912Y-70784301D01*
X153934983Y-70776100D01*
X153934978Y-70776100D01*
X153891152Y-70776100D01*
X151824489Y-70776100D01*
X151757450Y-70756415D01*
X151711695Y-70703611D01*
X151701751Y-70634453D01*
X151714002Y-70595808D01*
X151761646Y-70502304D01*
X151761646Y-70502302D01*
X151761647Y-70502301D01*
X151776499Y-70408524D01*
X151776500Y-70408519D01*
X151776499Y-69545482D01*
X151761646Y-69451696D01*
X151704050Y-69338658D01*
X151704046Y-69338654D01*
X151704045Y-69338652D01*
X151630074Y-69264681D01*
X151596589Y-69203358D01*
X151601573Y-69133666D01*
X151630074Y-69089319D01*
X151704045Y-69015347D01*
X151704050Y-69015342D01*
X151761646Y-68902304D01*
X151761646Y-68902302D01*
X151761647Y-68902301D01*
X151774061Y-68823919D01*
X151776500Y-68808519D01*
X151776499Y-67945482D01*
X151761646Y-67851696D01*
X151704050Y-67738658D01*
X151704046Y-67738654D01*
X151704045Y-67738652D01*
X151687819Y-67722426D01*
X151654334Y-67661103D01*
X151651500Y-67634745D01*
X151651500Y-67589323D01*
X151658459Y-67548367D01*
X151661368Y-67540055D01*
X151681565Y-67360800D01*
X151678343Y-67332206D01*
X151661368Y-67181546D01*
X151661368Y-67181545D01*
X151658458Y-67173227D01*
X151651500Y-67132274D01*
X151651500Y-67030700D01*
X154662054Y-67030700D01*
X154681816Y-67332206D01*
X154681817Y-67332218D01*
X154740761Y-67628547D01*
X154740763Y-67628555D01*
X154837889Y-67914681D01*
X154971525Y-68185669D01*
X155026959Y-68268632D01*
X155502720Y-67792870D01*
X155632183Y-68004134D01*
X155800957Y-68201743D01*
X155998566Y-68370517D01*
X156209827Y-68499978D01*
X155734066Y-68975739D01*
X155817031Y-69031174D01*
X155817030Y-69031174D01*
X156088018Y-69164810D01*
X156374144Y-69261936D01*
X156374152Y-69261938D01*
X156670481Y-69320882D01*
X156670493Y-69320883D01*
X156972000Y-69340645D01*
X157273506Y-69320883D01*
X157273518Y-69320882D01*
X157569847Y-69261938D01*
X157569855Y-69261936D01*
X157855981Y-69164810D01*
X158126966Y-69031175D01*
X158126982Y-69031166D01*
X158209931Y-68975739D01*
X158209932Y-68975739D01*
X157734171Y-68499978D01*
X157945434Y-68370517D01*
X158143043Y-68201743D01*
X158311817Y-68004134D01*
X158441278Y-67792871D01*
X158917039Y-68268632D01*
X158917039Y-68268631D01*
X158972466Y-68185682D01*
X158972475Y-68185666D01*
X159106110Y-67914681D01*
X159203236Y-67628555D01*
X159203238Y-67628547D01*
X159262182Y-67332218D01*
X159262183Y-67332206D01*
X159281945Y-67030700D01*
X159262183Y-66729193D01*
X159262182Y-66729181D01*
X159203238Y-66432852D01*
X159203236Y-66432844D01*
X159106110Y-66146718D01*
X158972474Y-65875730D01*
X158917039Y-65792766D01*
X158441277Y-66268527D01*
X158311817Y-66057266D01*
X158143043Y-65859657D01*
X157945434Y-65690883D01*
X157734171Y-65561421D01*
X158209932Y-65085659D01*
X158126969Y-65030225D01*
X157855981Y-64896589D01*
X157569855Y-64799463D01*
X157569847Y-64799461D01*
X157273518Y-64740517D01*
X157273506Y-64740516D01*
X156972000Y-64720754D01*
X156670493Y-64740516D01*
X156670481Y-64740517D01*
X156374152Y-64799461D01*
X156374144Y-64799463D01*
X156088018Y-64896589D01*
X155817026Y-65030228D01*
X155734067Y-65085660D01*
X156209828Y-65561421D01*
X155998566Y-65690883D01*
X155800957Y-65859657D01*
X155632183Y-66057266D01*
X155502721Y-66268528D01*
X155026960Y-65792767D01*
X154971528Y-65875726D01*
X154837889Y-66146718D01*
X154740763Y-66432844D01*
X154740761Y-66432852D01*
X154681817Y-66729181D01*
X154681816Y-66729193D01*
X154662054Y-67030700D01*
X151651500Y-67030700D01*
X151651500Y-66776523D01*
X151658459Y-66735567D01*
X151661368Y-66727255D01*
X151681565Y-66548000D01*
X151678290Y-66518935D01*
X151661369Y-66368750D01*
X151661368Y-66368745D01*
X151625647Y-66266661D01*
X151601789Y-66198478D01*
X151505816Y-66045738D01*
X151378262Y-65918184D01*
X151310691Y-65875726D01*
X151225523Y-65822211D01*
X151055254Y-65762631D01*
X151055249Y-65762630D01*
X150876004Y-65742435D01*
X150875996Y-65742435D01*
X150696750Y-65762630D01*
X150696745Y-65762631D01*
X150526476Y-65822211D01*
X150373737Y-65918184D01*
X150246184Y-66045737D01*
X150150211Y-66198476D01*
X150090631Y-66368745D01*
X150090630Y-66368750D01*
X150070435Y-66547996D01*
X150070435Y-66548003D01*
X150090630Y-66727246D01*
X150090631Y-66727253D01*
X150093541Y-66735567D01*
X150100500Y-66776523D01*
X150100500Y-67132274D01*
X150093542Y-67173227D01*
X150090631Y-67181545D01*
X150090631Y-67181546D01*
X150070435Y-67360796D01*
X150070435Y-67360803D01*
X150090630Y-67540046D01*
X150090631Y-67540053D01*
X150093541Y-67548367D01*
X150100500Y-67589323D01*
X150100500Y-67634745D01*
X150080815Y-67701784D01*
X150064181Y-67722426D01*
X150047954Y-67738652D01*
X150047951Y-67738657D01*
X149990352Y-67851698D01*
X149975500Y-67945475D01*
X149975500Y-68808517D01*
X149986292Y-68876657D01*
X149990354Y-68902304D01*
X150037996Y-68995807D01*
X150050892Y-69064474D01*
X150024616Y-69129215D01*
X149967509Y-69169472D01*
X149927511Y-69176100D01*
X147770590Y-69176100D01*
X147770574Y-69176099D01*
X147762978Y-69176099D01*
X147588222Y-69176099D01*
X147588220Y-69176099D01*
X147588213Y-69176100D01*
X147552277Y-69184302D01*
X147538571Y-69186631D01*
X147501945Y-69190758D01*
X147501944Y-69190758D01*
X147467140Y-69202936D01*
X147453784Y-69206784D01*
X147417849Y-69214986D01*
X147417848Y-69214987D01*
X147384628Y-69230983D01*
X147371791Y-69236300D01*
X147337000Y-69248474D01*
X147336993Y-69248478D01*
X147305784Y-69268088D01*
X147293617Y-69274812D01*
X147260397Y-69290810D01*
X147231569Y-69313799D01*
X147220235Y-69321841D01*
X147189024Y-69341452D01*
X147189021Y-69341455D01*
X146767596Y-69762881D01*
X146706273Y-69796366D01*
X146679915Y-69799200D01*
X143918640Y-69799200D01*
X143851601Y-69779515D01*
X143830959Y-69762881D01*
X143758262Y-69690184D01*
X143605523Y-69594211D01*
X143435254Y-69534631D01*
X143435250Y-69534630D01*
X143321694Y-69521836D01*
X143257280Y-69494769D01*
X143247897Y-69486297D01*
X142784319Y-69022719D01*
X142750834Y-68961396D01*
X142748000Y-68935038D01*
X142748000Y-67030700D01*
X143232054Y-67030700D01*
X143251816Y-67332206D01*
X143251817Y-67332218D01*
X143310761Y-67628547D01*
X143310763Y-67628555D01*
X143407889Y-67914681D01*
X143541525Y-68185669D01*
X143596959Y-68268632D01*
X144072720Y-67792870D01*
X144202183Y-68004134D01*
X144370957Y-68201743D01*
X144568566Y-68370517D01*
X144779827Y-68499978D01*
X144304066Y-68975739D01*
X144387031Y-69031174D01*
X144387030Y-69031174D01*
X144658018Y-69164810D01*
X144944144Y-69261936D01*
X144944152Y-69261938D01*
X145240481Y-69320882D01*
X145240493Y-69320883D01*
X145542000Y-69340645D01*
X145843506Y-69320883D01*
X145843518Y-69320882D01*
X146139847Y-69261938D01*
X146139855Y-69261936D01*
X146425981Y-69164810D01*
X146696966Y-69031175D01*
X146696982Y-69031166D01*
X146779931Y-68975739D01*
X146779932Y-68975739D01*
X146304171Y-68499978D01*
X146515434Y-68370517D01*
X146713043Y-68201743D01*
X146881817Y-68004134D01*
X147011278Y-67792871D01*
X147487039Y-68268632D01*
X147487039Y-68268631D01*
X147542466Y-68185682D01*
X147542475Y-68185666D01*
X147676110Y-67914681D01*
X147773236Y-67628555D01*
X147773238Y-67628547D01*
X147832182Y-67332218D01*
X147832183Y-67332206D01*
X147851945Y-67030700D01*
X147832183Y-66729193D01*
X147832182Y-66729181D01*
X147773238Y-66432852D01*
X147773236Y-66432844D01*
X147676110Y-66146718D01*
X147542474Y-65875730D01*
X147487039Y-65792766D01*
X147011277Y-66268527D01*
X146881817Y-66057266D01*
X146713043Y-65859657D01*
X146515434Y-65690883D01*
X146304171Y-65561421D01*
X146779932Y-65085659D01*
X146696969Y-65030225D01*
X146425981Y-64896589D01*
X146139855Y-64799463D01*
X146139847Y-64799461D01*
X145843518Y-64740517D01*
X145843506Y-64740516D01*
X145542000Y-64720754D01*
X145240493Y-64740516D01*
X145240481Y-64740517D01*
X144944152Y-64799461D01*
X144944144Y-64799463D01*
X144658018Y-64896589D01*
X144387026Y-65030228D01*
X144304067Y-65085660D01*
X144779828Y-65561421D01*
X144568566Y-65690883D01*
X144370957Y-65859657D01*
X144202183Y-66057266D01*
X144072721Y-66268528D01*
X143596960Y-65792767D01*
X143541528Y-65875726D01*
X143407889Y-66146718D01*
X143310763Y-66432844D01*
X143310761Y-66432852D01*
X143251817Y-66729181D01*
X143251816Y-66729193D01*
X143232054Y-67030700D01*
X142748000Y-67030700D01*
X142748000Y-64518434D01*
X142767685Y-64451395D01*
X142786592Y-64428537D01*
X143460737Y-63788099D01*
X143522898Y-63756198D01*
X143546142Y-63754000D01*
X158190638Y-63754000D01*
X158257677Y-63773685D01*
G37*
%TD.AperFunction*%
%TD*%
%TA.AperFunction,Conductor*%
%TO.N,GND*%
G36*
X131321739Y-81934685D02*
G01*
X131367494Y-81987489D01*
X131378700Y-82039000D01*
X131378700Y-86998200D01*
X131359015Y-87065239D01*
X131306211Y-87110994D01*
X131254736Y-87122200D01*
X126412836Y-87123594D01*
X126345791Y-87103929D01*
X126300020Y-87051138D01*
X126288800Y-86999594D01*
X126288800Y-82039000D01*
X126308485Y-81971961D01*
X126361289Y-81926206D01*
X126412800Y-81915000D01*
X131254700Y-81915000D01*
X131321739Y-81934685D01*
G37*
%TD.AperFunction*%
%TD*%
M02*
