%TF.GenerationSoftware,KiCad,Pcbnew,7.0.10*%
%TF.CreationDate,2025-01-30T01:06:36+01:00*%
%TF.ProjectId,BugWiperPCB,42756757-6970-4657-9250-43422e6b6963,rev?*%
%TF.SameCoordinates,Original*%
%TF.FileFunction,Soldermask,Bot*%
%TF.FilePolarity,Negative*%
%FSLAX46Y46*%
G04 Gerber Fmt 4.6, Leading zero omitted, Abs format (unit mm)*
G04 Created by KiCad (PCBNEW 7.0.10) date 2025-01-30 01:06:36*
%MOMM*%
%LPD*%
G01*
G04 APERTURE LIST*
G04 Aperture macros list*
%AMRoundRect*
0 Rectangle with rounded corners*
0 $1 Rounding radius*
0 $2 $3 $4 $5 $6 $7 $8 $9 X,Y pos of 4 corners*
0 Add a 4 corners polygon primitive as box body*
4,1,4,$2,$3,$4,$5,$6,$7,$8,$9,$2,$3,0*
0 Add four circle primitives for the rounded corners*
1,1,$1+$1,$2,$3*
1,1,$1+$1,$4,$5*
1,1,$1+$1,$6,$7*
1,1,$1+$1,$8,$9*
0 Add four rect primitives between the rounded corners*
20,1,$1+$1,$2,$3,$4,$5,0*
20,1,$1+$1,$4,$5,$6,$7,0*
20,1,$1+$1,$6,$7,$8,$9,0*
20,1,$1+$1,$8,$9,$2,$3,0*%
%AMFreePoly0*
4,1,6,1.000000,0.000000,0.500000,-0.750000,-0.500000,-0.750000,-0.500000,0.750000,0.500000,0.750000,1.000000,0.000000,1.000000,0.000000,$1*%
%AMFreePoly1*
4,1,6,0.500000,-0.750000,-0.650000,-0.750000,-0.150000,0.000000,-0.650000,0.750000,0.500000,0.750000,0.500000,-0.750000,0.500000,-0.750000,$1*%
G04 Aperture macros list end*
%ADD10C,0.750000*%
%ADD11O,1.204000X2.304000*%
%ADD12O,1.204000X2.004000*%
%ADD13C,1.701800*%
%ADD14RoundRect,0.250000X-0.337500X-0.475000X0.337500X-0.475000X0.337500X0.475000X-0.337500X0.475000X0*%
%ADD15C,5.600000*%
%ADD16R,2.025000X2.025000*%
%ADD17C,2.025000*%
%ADD18C,0.990600*%
%ADD19C,1.270000*%
%ADD20C,3.810000*%
%ADD21C,2.400000*%
%ADD22RoundRect,0.102000X1.050000X1.050000X-1.050000X1.050000X-1.050000X-1.050000X1.050000X-1.050000X0*%
%ADD23C,2.304000*%
%ADD24C,3.600000*%
%ADD25C,1.200000*%
%ADD26RoundRect,0.250000X0.600000X0.750000X-0.600000X0.750000X-0.600000X-0.750000X0.600000X-0.750000X0*%
%ADD27O,1.700000X2.000000*%
%ADD28C,1.524000*%
%ADD29C,0.954000*%
%ADD30R,0.800000X1.000000*%
%ADD31FreePoly0,0.000000*%
%ADD32FreePoly1,0.000000*%
%ADD33R,1.000000X0.800000*%
%ADD34R,1.100000X0.850000*%
%ADD35R,1.100000X0.750000*%
%ADD36R,1.000000X1.200000*%
%ADD37R,1.350000X1.550000*%
%ADD38R,1.350000X1.900000*%
%ADD39R,1.800000X1.170000*%
G04 APERTURE END LIST*
D10*
%TO.C,J1*%
X140206400Y-65152800D03*
X134426400Y-65152800D03*
D11*
X141636400Y-65652800D03*
X132996400Y-65652800D03*
D12*
X141636400Y-61472800D03*
X132996400Y-61472800D03*
%TD*%
D13*
%TO.C,J2*%
X213170001Y-81141601D03*
X218170001Y-81141601D03*
X213170001Y-78641601D03*
X218170001Y-78641601D03*
X213170001Y-76141600D03*
X218170001Y-76141600D03*
X213170001Y-73641600D03*
X218170001Y-73641600D03*
X213170001Y-71141600D03*
X218170001Y-71141600D03*
X213170001Y-68641600D03*
X218170001Y-68641600D03*
%TD*%
D14*
%TO.C,C41*%
X168812300Y-63728600D03*
X170887300Y-63728600D03*
%TD*%
D15*
%TO.C,H2*%
X163000000Y-64000000D03*
%TD*%
D16*
%TO.C,J6*%
X217346000Y-89888000D03*
D17*
X210346000Y-89888000D03*
X217346000Y-86388000D03*
X210346000Y-86388000D03*
%TD*%
D18*
%TO.C,J5*%
X113538000Y-85540000D03*
X112522000Y-80460000D03*
X114554000Y-80460000D03*
%TD*%
D19*
%TO.C,J4*%
X155702000Y-73380700D03*
X154432000Y-75920700D03*
X153162000Y-73380700D03*
X151892000Y-75920700D03*
X150622000Y-73380700D03*
X149352000Y-75920700D03*
X148082000Y-73380700D03*
X146812000Y-75920700D03*
D20*
X156972000Y-67030700D03*
X145542000Y-67030700D03*
%TD*%
D15*
%TO.C,H3*%
X216000000Y-64000000D03*
%TD*%
%TO.C,H4*%
X114000000Y-90000000D03*
%TD*%
D21*
%TO.C,J3*%
X207513000Y-65091500D03*
X192273000Y-65091500D03*
D22*
X197353000Y-67591500D03*
D23*
X202433000Y-67591500D03*
%TD*%
D24*
%TO.C,H5*%
X216000000Y-96000000D03*
D15*
X216000000Y-96000000D03*
%TD*%
D25*
%TO.C,J7*%
X156590800Y-91319600D03*
D26*
X154990800Y-93319600D03*
D27*
X152490800Y-93319600D03*
%TD*%
D28*
%TO.C,U6*%
X170078400Y-66827400D03*
X172618400Y-66827400D03*
X175158400Y-66827400D03*
%TD*%
D29*
%TO.C,S1*%
X128336400Y-60694800D03*
X123936400Y-60694800D03*
%TD*%
D15*
%TO.C,H1*%
X114000000Y-64000000D03*
%TD*%
D29*
%TO.C,S2*%
X121453000Y-60694800D03*
X117053000Y-60694800D03*
%TD*%
D30*
%TO.C,JP3*%
X204546000Y-61468000D03*
X202946000Y-61468000D03*
%TD*%
D31*
%TO.C,JP5*%
X136714400Y-63652400D03*
D32*
X138164400Y-63652400D03*
%TD*%
D31*
%TO.C,JP6*%
X174535000Y-63246000D03*
D32*
X175985000Y-63246000D03*
%TD*%
D33*
%TO.C,JP4*%
X150876000Y-71577000D03*
X150876000Y-69977000D03*
X150876000Y-68377000D03*
%TD*%
D34*
%TO.C,J8*%
X111050000Y-69895000D03*
X111050000Y-70995000D03*
X111050000Y-72095000D03*
X111050000Y-73195000D03*
X111050000Y-74295000D03*
X111050000Y-75395000D03*
X111050000Y-76495000D03*
D35*
X111050000Y-77545000D03*
D36*
X117200000Y-67260000D03*
X120900000Y-67260000D03*
D37*
X111175000Y-67435000D03*
D38*
X121875000Y-70760000D03*
X121875000Y-76730000D03*
D39*
X111400000Y-78755000D03*
%TD*%
D30*
%TO.C,JP2*%
X198704000Y-62992000D03*
X197104000Y-62992000D03*
%TD*%
M02*
