%TF.GenerationSoftware,KiCad,Pcbnew,7.0.10*%
%TF.CreationDate,2025-01-29T22:34:49+01:00*%
%TF.ProjectId,BugWiperPCB,42756757-6970-4657-9250-43422e6b6963,rev?*%
%TF.SameCoordinates,Original*%
%TF.FileFunction,Soldermask,Top*%
%TF.FilePolarity,Negative*%
%FSLAX46Y46*%
G04 Gerber Fmt 4.6, Leading zero omitted, Abs format (unit mm)*
G04 Created by KiCad (PCBNEW 7.0.10) date 2025-01-29 22:34:49*
%MOMM*%
%LPD*%
G01*
G04 APERTURE LIST*
G04 Aperture macros list*
%AMRoundRect*
0 Rectangle with rounded corners*
0 $1 Rounding radius*
0 $2 $3 $4 $5 $6 $7 $8 $9 X,Y pos of 4 corners*
0 Add a 4 corners polygon primitive as box body*
4,1,4,$2,$3,$4,$5,$6,$7,$8,$9,$2,$3,0*
0 Add four circle primitives for the rounded corners*
1,1,$1+$1,$2,$3*
1,1,$1+$1,$4,$5*
1,1,$1+$1,$6,$7*
1,1,$1+$1,$8,$9*
0 Add four rect primitives between the rounded corners*
20,1,$1+$1,$2,$3,$4,$5,0*
20,1,$1+$1,$4,$5,$6,$7,0*
20,1,$1+$1,$6,$7,$8,$9,0*
20,1,$1+$1,$8,$9,$2,$3,0*%
G04 Aperture macros list end*
%ADD10C,0.010000*%
%ADD11C,1.270000*%
%ADD12C,3.810000*%
%ADD13RoundRect,0.102000X2.750000X-1.075000X2.750000X1.075000X-2.750000X1.075000X-2.750000X-1.075000X0*%
%ADD14R,0.558800X1.168400*%
%ADD15C,1.701800*%
%ADD16RoundRect,0.150000X-0.150000X0.512500X-0.150000X-0.512500X0.150000X-0.512500X0.150000X0.512500X0*%
%ADD17C,1.200000*%
%ADD18RoundRect,0.250000X0.600000X0.750000X-0.600000X0.750000X-0.600000X-0.750000X0.600000X-0.750000X0*%
%ADD19O,1.700000X2.000000*%
%ADD20RoundRect,0.225000X-0.225000X-0.250000X0.225000X-0.250000X0.225000X0.250000X-0.225000X0.250000X0*%
%ADD21RoundRect,0.225000X0.250000X-0.225000X0.250000X0.225000X-0.250000X0.225000X-0.250000X-0.225000X0*%
%ADD22RoundRect,0.200000X0.275000X-0.200000X0.275000X0.200000X-0.275000X0.200000X-0.275000X-0.200000X0*%
%ADD23RoundRect,0.200000X-0.200000X-0.275000X0.200000X-0.275000X0.200000X0.275000X-0.200000X0.275000X0*%
%ADD24RoundRect,0.200000X-0.275000X0.200000X-0.275000X-0.200000X0.275000X-0.200000X0.275000X0.200000X0*%
%ADD25R,1.003300X0.558800*%
%ADD26RoundRect,0.250000X-0.900000X1.000000X-0.900000X-1.000000X0.900000X-1.000000X0.900000X1.000000X0*%
%ADD27RoundRect,0.250000X-0.625000X0.312500X-0.625000X-0.312500X0.625000X-0.312500X0.625000X0.312500X0*%
%ADD28RoundRect,0.250000X-0.650000X0.325000X-0.650000X-0.325000X0.650000X-0.325000X0.650000X0.325000X0*%
%ADD29RoundRect,0.250000X-0.325000X-1.100000X0.325000X-1.100000X0.325000X1.100000X-0.325000X1.100000X0*%
%ADD30RoundRect,0.250000X-0.250000X-0.250000X0.250000X-0.250000X0.250000X0.250000X-0.250000X0.250000X0*%
%ADD31C,5.600000*%
%ADD32RoundRect,0.150000X0.150000X-0.512500X0.150000X0.512500X-0.150000X0.512500X-0.150000X-0.512500X0*%
%ADD33R,2.025000X2.025000*%
%ADD34C,2.025000*%
%ADD35RoundRect,0.200000X0.200000X0.275000X-0.200000X0.275000X-0.200000X-0.275000X0.200000X-0.275000X0*%
%ADD36RoundRect,0.225000X-0.250000X0.225000X-0.250000X-0.225000X0.250000X-0.225000X0.250000X0.225000X0*%
%ADD37RoundRect,0.250000X0.625000X-0.312500X0.625000X0.312500X-0.625000X0.312500X-0.625000X-0.312500X0*%
%ADD38RoundRect,0.225000X0.225000X0.250000X-0.225000X0.250000X-0.225000X-0.250000X0.225000X-0.250000X0*%
%ADD39RoundRect,0.250000X-0.312500X-1.075000X0.312500X-1.075000X0.312500X1.075000X-0.312500X1.075000X0*%
%ADD40RoundRect,0.250000X1.950000X1.000000X-1.950000X1.000000X-1.950000X-1.000000X1.950000X-1.000000X0*%
%ADD41C,0.990600*%
%ADD42C,0.787400*%
%ADD43R,1.500000X0.900000*%
%ADD44R,0.900000X1.500000*%
%ADD45R,0.900000X0.900000*%
%ADD46R,1.750000X0.500000*%
%ADD47RoundRect,0.250000X-1.100000X0.325000X-1.100000X-0.325000X1.100000X-0.325000X1.100000X0.325000X0*%
%ADD48RoundRect,0.250000X-0.325000X-0.650000X0.325000X-0.650000X0.325000X0.650000X-0.325000X0.650000X0*%
%ADD49RoundRect,0.250000X-0.312500X-0.625000X0.312500X-0.625000X0.312500X0.625000X-0.312500X0.625000X0*%
%ADD50R,1.100000X0.965200*%
%ADD51R,0.650000X0.965200*%
%ADD52RoundRect,0.250000X1.100000X-0.325000X1.100000X0.325000X-1.100000X0.325000X-1.100000X-0.325000X0*%
%ADD53R,2.921000X3.251200*%
%ADD54C,0.750000*%
%ADD55RoundRect,0.050000X0.300000X0.550000X-0.300000X0.550000X-0.300000X-0.550000X0.300000X-0.550000X0*%
%ADD56RoundRect,0.050000X0.150000X0.575000X-0.150000X0.575000X-0.150000X-0.575000X0.150000X-0.575000X0*%
%ADD57O,1.204000X2.304000*%
%ADD58RoundRect,0.325000X-0.325000X1.025000X-0.325000X-1.025000X0.325000X-1.025000X0.325000X1.025000X0*%
%ADD59O,1.204000X2.004000*%
%ADD60R,0.965200X1.100000*%
%ADD61R,0.965200X0.650000*%
%ADD62RoundRect,0.250000X0.325000X0.650000X-0.325000X0.650000X-0.325000X-0.650000X0.325000X-0.650000X0*%
%ADD63RoundRect,0.250000X-0.450000X0.262500X-0.450000X-0.262500X0.450000X-0.262500X0.450000X0.262500X0*%
%ADD64C,2.400000*%
%ADD65RoundRect,0.102000X1.050000X1.050000X-1.050000X1.050000X-1.050000X-1.050000X1.050000X-1.050000X0*%
%ADD66C,2.304000*%
%ADD67R,1.000000X0.800000*%
%ADD68C,3.600000*%
%ADD69R,0.533400X1.524000*%
%ADD70R,4.114800X4.902200*%
%ADD71C,1.524000*%
%ADD72RoundRect,0.102000X0.300000X0.200000X-0.300000X0.200000X-0.300000X-0.200000X0.300000X-0.200000X0*%
%ADD73RoundRect,0.102000X0.500000X0.175000X-0.500000X0.175000X-0.500000X-0.175000X0.500000X-0.175000X0*%
%ADD74C,0.954000*%
%ADD75R,0.950000X0.640000*%
G04 APERTURE END LIST*
%TO.C,U2*%
G36*
X206730500Y-96768000D02*
G01*
X205480500Y-96768000D01*
X205480500Y-96218000D01*
X203630500Y-96218000D01*
X203630500Y-96518000D01*
X200930500Y-96518000D01*
X200930500Y-89918000D01*
X203630500Y-89918000D01*
X203630500Y-90218000D01*
X205480500Y-90218000D01*
X205480500Y-89668000D01*
X206730500Y-89668000D01*
X206730500Y-96768000D01*
G37*
%TO.C,U3*%
G36*
X206730500Y-82290000D02*
G01*
X205480500Y-82290000D01*
X205480500Y-81740000D01*
X203630500Y-81740000D01*
X203630500Y-82040000D01*
X200930500Y-82040000D01*
X200930500Y-75440000D01*
X203630500Y-75440000D01*
X203630500Y-75740000D01*
X205480500Y-75740000D01*
X205480500Y-75190000D01*
X206730500Y-75190000D01*
X206730500Y-82290000D01*
G37*
%TO.C,S1*%
D10*
X128536400Y-60259800D02*
X128550400Y-60266800D01*
X128567400Y-60274800D01*
X128583400Y-60283800D01*
X128598400Y-60293800D01*
X128614400Y-60304800D01*
X128629400Y-60315800D01*
X128643400Y-60326800D01*
X128657400Y-60338800D01*
X128671400Y-60351800D01*
X128684400Y-60364800D01*
X128696400Y-60378800D01*
X128708400Y-60392800D01*
X128719400Y-60407800D01*
X128730400Y-60422800D01*
X128740400Y-60438800D01*
X128750400Y-60453800D01*
X128759400Y-60470800D01*
X128767400Y-60486800D01*
X128774400Y-60503800D01*
X128781400Y-60521800D01*
X128787400Y-60538800D01*
X128793400Y-60556800D01*
X128798400Y-60574800D01*
X128802400Y-60592800D01*
X128805400Y-60610800D01*
X128808400Y-60628800D01*
X128810400Y-60647800D01*
X128811400Y-60665800D01*
X128811400Y-60684800D01*
X128811400Y-60704800D01*
X128808400Y-60744800D01*
X128801400Y-60784800D01*
X128791400Y-60824800D01*
X128778400Y-60862800D01*
X128761400Y-60900800D01*
X128741400Y-60935800D01*
X128719400Y-60969800D01*
X128693400Y-61001800D01*
X128665400Y-61031800D01*
X128634400Y-61058800D01*
X128602400Y-61082800D01*
X128567400Y-61103800D01*
X128530400Y-61122800D01*
X128493400Y-61137800D01*
X128454400Y-61149800D01*
X128414400Y-61157800D01*
X128373400Y-61162800D01*
X128332400Y-61164800D01*
X128292400Y-61162800D01*
X128251400Y-61157800D01*
X128211400Y-61148800D01*
X128172400Y-61136800D01*
X128135400Y-61120800D01*
X128098400Y-61102800D01*
X128064400Y-61080800D01*
X128031400Y-61055800D01*
X128001400Y-61028800D01*
X127973400Y-60998800D01*
X127948400Y-60966800D01*
X127926400Y-60934800D01*
X127386400Y-60934800D01*
X127386400Y-60094800D01*
X128536400Y-60094800D01*
X128536400Y-60259800D01*
G36*
X128536400Y-60259800D02*
G01*
X128550400Y-60266800D01*
X128567400Y-60274800D01*
X128583400Y-60283800D01*
X128598400Y-60293800D01*
X128614400Y-60304800D01*
X128629400Y-60315800D01*
X128643400Y-60326800D01*
X128657400Y-60338800D01*
X128671400Y-60351800D01*
X128684400Y-60364800D01*
X128696400Y-60378800D01*
X128708400Y-60392800D01*
X128719400Y-60407800D01*
X128730400Y-60422800D01*
X128740400Y-60438800D01*
X128750400Y-60453800D01*
X128759400Y-60470800D01*
X128767400Y-60486800D01*
X128774400Y-60503800D01*
X128781400Y-60521800D01*
X128787400Y-60538800D01*
X128793400Y-60556800D01*
X128798400Y-60574800D01*
X128802400Y-60592800D01*
X128805400Y-60610800D01*
X128808400Y-60628800D01*
X128810400Y-60647800D01*
X128811400Y-60665800D01*
X128811400Y-60684800D01*
X128811400Y-60704800D01*
X128808400Y-60744800D01*
X128801400Y-60784800D01*
X128791400Y-60824800D01*
X128778400Y-60862800D01*
X128761400Y-60900800D01*
X128741400Y-60935800D01*
X128719400Y-60969800D01*
X128693400Y-61001800D01*
X128665400Y-61031800D01*
X128634400Y-61058800D01*
X128602400Y-61082800D01*
X128567400Y-61103800D01*
X128530400Y-61122800D01*
X128493400Y-61137800D01*
X128454400Y-61149800D01*
X128414400Y-61157800D01*
X128373400Y-61162800D01*
X128332400Y-61164800D01*
X128292400Y-61162800D01*
X128251400Y-61157800D01*
X128211400Y-61148800D01*
X128172400Y-61136800D01*
X128135400Y-61120800D01*
X128098400Y-61102800D01*
X128064400Y-61080800D01*
X128031400Y-61055800D01*
X128001400Y-61028800D01*
X127973400Y-60998800D01*
X127948400Y-60966800D01*
X127926400Y-60934800D01*
X127386400Y-60934800D01*
X127386400Y-60094800D01*
X128536400Y-60094800D01*
X128536400Y-60259800D01*
G37*
X124886400Y-60934800D02*
X124341400Y-60934800D01*
X124318400Y-60970800D01*
X124292400Y-61001800D01*
X124264400Y-61031800D01*
X124234400Y-61058800D01*
X124201400Y-61083800D01*
X124167400Y-61104800D01*
X124130400Y-61123800D01*
X124093400Y-61138800D01*
X124054400Y-61150800D01*
X124014400Y-61158800D01*
X123973400Y-61164800D01*
X123933400Y-61165800D01*
X123892400Y-61163800D01*
X123852400Y-61158800D01*
X123812400Y-61149800D01*
X123773400Y-61137800D01*
X123735400Y-61121800D01*
X123699400Y-61103800D01*
X123665400Y-61081800D01*
X123632400Y-61056800D01*
X123602400Y-61029800D01*
X123574400Y-60999800D01*
X123549400Y-60967800D01*
X123527400Y-60933800D01*
X123508400Y-60897800D01*
X123492400Y-60859800D01*
X123479400Y-60821800D01*
X123469400Y-60781800D01*
X123463400Y-60741800D01*
X123461400Y-60704800D01*
X123462400Y-60682800D01*
X123463400Y-60664800D01*
X123465400Y-60645800D01*
X123468400Y-60627800D01*
X123471400Y-60610800D01*
X123475400Y-60592800D01*
X123479400Y-60574800D01*
X123484400Y-60557800D01*
X123490400Y-60539800D01*
X123497400Y-60522800D01*
X123504400Y-60505800D01*
X123511400Y-60489800D01*
X123520400Y-60473800D01*
X123528400Y-60457800D01*
X123538400Y-60441800D01*
X123548400Y-60426800D01*
X123558400Y-60411800D01*
X123569400Y-60396800D01*
X123581400Y-60382800D01*
X123593400Y-60368800D01*
X123605400Y-60355800D01*
X123618400Y-60342800D01*
X123632400Y-60330800D01*
X123646400Y-60318800D01*
X123660400Y-60307800D01*
X123675400Y-60296800D01*
X123690400Y-60286800D01*
X123705400Y-60276800D01*
X123721400Y-60267800D01*
X123736400Y-60259800D01*
X123736400Y-60094800D01*
X124886400Y-60094800D01*
X124886400Y-60934800D01*
G36*
X124886400Y-60934800D02*
G01*
X124341400Y-60934800D01*
X124318400Y-60970800D01*
X124292400Y-61001800D01*
X124264400Y-61031800D01*
X124234400Y-61058800D01*
X124201400Y-61083800D01*
X124167400Y-61104800D01*
X124130400Y-61123800D01*
X124093400Y-61138800D01*
X124054400Y-61150800D01*
X124014400Y-61158800D01*
X123973400Y-61164800D01*
X123933400Y-61165800D01*
X123892400Y-61163800D01*
X123852400Y-61158800D01*
X123812400Y-61149800D01*
X123773400Y-61137800D01*
X123735400Y-61121800D01*
X123699400Y-61103800D01*
X123665400Y-61081800D01*
X123632400Y-61056800D01*
X123602400Y-61029800D01*
X123574400Y-60999800D01*
X123549400Y-60967800D01*
X123527400Y-60933800D01*
X123508400Y-60897800D01*
X123492400Y-60859800D01*
X123479400Y-60821800D01*
X123469400Y-60781800D01*
X123463400Y-60741800D01*
X123461400Y-60704800D01*
X123462400Y-60682800D01*
X123463400Y-60664800D01*
X123465400Y-60645800D01*
X123468400Y-60627800D01*
X123471400Y-60610800D01*
X123475400Y-60592800D01*
X123479400Y-60574800D01*
X123484400Y-60557800D01*
X123490400Y-60539800D01*
X123497400Y-60522800D01*
X123504400Y-60505800D01*
X123511400Y-60489800D01*
X123520400Y-60473800D01*
X123528400Y-60457800D01*
X123538400Y-60441800D01*
X123548400Y-60426800D01*
X123558400Y-60411800D01*
X123569400Y-60396800D01*
X123581400Y-60382800D01*
X123593400Y-60368800D01*
X123605400Y-60355800D01*
X123618400Y-60342800D01*
X123632400Y-60330800D01*
X123646400Y-60318800D01*
X123660400Y-60307800D01*
X123675400Y-60296800D01*
X123690400Y-60286800D01*
X123705400Y-60276800D01*
X123721400Y-60267800D01*
X123736400Y-60259800D01*
X123736400Y-60094800D01*
X124886400Y-60094800D01*
X124886400Y-60934800D01*
G37*
%TO.C,S2*%
X121653000Y-60259800D02*
X121667000Y-60266800D01*
X121684000Y-60274800D01*
X121700000Y-60283800D01*
X121715000Y-60293800D01*
X121731000Y-60304800D01*
X121746000Y-60315800D01*
X121760000Y-60326800D01*
X121774000Y-60338800D01*
X121788000Y-60351800D01*
X121801000Y-60364800D01*
X121813000Y-60378800D01*
X121825000Y-60392800D01*
X121836000Y-60407800D01*
X121847000Y-60422800D01*
X121857000Y-60438800D01*
X121867000Y-60453800D01*
X121876000Y-60470800D01*
X121884000Y-60486800D01*
X121891000Y-60503800D01*
X121898000Y-60521800D01*
X121904000Y-60538800D01*
X121910000Y-60556800D01*
X121915000Y-60574800D01*
X121919000Y-60592800D01*
X121922000Y-60610800D01*
X121925000Y-60628800D01*
X121927000Y-60647800D01*
X121928000Y-60665800D01*
X121928000Y-60684800D01*
X121928000Y-60704800D01*
X121925000Y-60744800D01*
X121918000Y-60784800D01*
X121908000Y-60824800D01*
X121895000Y-60862800D01*
X121878000Y-60900800D01*
X121858000Y-60935800D01*
X121836000Y-60969800D01*
X121810000Y-61001800D01*
X121782000Y-61031800D01*
X121751000Y-61058800D01*
X121719000Y-61082800D01*
X121684000Y-61103800D01*
X121647000Y-61122800D01*
X121610000Y-61137800D01*
X121571000Y-61149800D01*
X121531000Y-61157800D01*
X121490000Y-61162800D01*
X121449000Y-61164800D01*
X121409000Y-61162800D01*
X121368000Y-61157800D01*
X121328000Y-61148800D01*
X121289000Y-61136800D01*
X121252000Y-61120800D01*
X121215000Y-61102800D01*
X121181000Y-61080800D01*
X121148000Y-61055800D01*
X121118000Y-61028800D01*
X121090000Y-60998800D01*
X121065000Y-60966800D01*
X121043000Y-60934800D01*
X120503000Y-60934800D01*
X120503000Y-60094800D01*
X121653000Y-60094800D01*
X121653000Y-60259800D01*
G36*
X121653000Y-60259800D02*
G01*
X121667000Y-60266800D01*
X121684000Y-60274800D01*
X121700000Y-60283800D01*
X121715000Y-60293800D01*
X121731000Y-60304800D01*
X121746000Y-60315800D01*
X121760000Y-60326800D01*
X121774000Y-60338800D01*
X121788000Y-60351800D01*
X121801000Y-60364800D01*
X121813000Y-60378800D01*
X121825000Y-60392800D01*
X121836000Y-60407800D01*
X121847000Y-60422800D01*
X121857000Y-60438800D01*
X121867000Y-60453800D01*
X121876000Y-60470800D01*
X121884000Y-60486800D01*
X121891000Y-60503800D01*
X121898000Y-60521800D01*
X121904000Y-60538800D01*
X121910000Y-60556800D01*
X121915000Y-60574800D01*
X121919000Y-60592800D01*
X121922000Y-60610800D01*
X121925000Y-60628800D01*
X121927000Y-60647800D01*
X121928000Y-60665800D01*
X121928000Y-60684800D01*
X121928000Y-60704800D01*
X121925000Y-60744800D01*
X121918000Y-60784800D01*
X121908000Y-60824800D01*
X121895000Y-60862800D01*
X121878000Y-60900800D01*
X121858000Y-60935800D01*
X121836000Y-60969800D01*
X121810000Y-61001800D01*
X121782000Y-61031800D01*
X121751000Y-61058800D01*
X121719000Y-61082800D01*
X121684000Y-61103800D01*
X121647000Y-61122800D01*
X121610000Y-61137800D01*
X121571000Y-61149800D01*
X121531000Y-61157800D01*
X121490000Y-61162800D01*
X121449000Y-61164800D01*
X121409000Y-61162800D01*
X121368000Y-61157800D01*
X121328000Y-61148800D01*
X121289000Y-61136800D01*
X121252000Y-61120800D01*
X121215000Y-61102800D01*
X121181000Y-61080800D01*
X121148000Y-61055800D01*
X121118000Y-61028800D01*
X121090000Y-60998800D01*
X121065000Y-60966800D01*
X121043000Y-60934800D01*
X120503000Y-60934800D01*
X120503000Y-60094800D01*
X121653000Y-60094800D01*
X121653000Y-60259800D01*
G37*
X118003000Y-60934800D02*
X117458000Y-60934800D01*
X117435000Y-60970800D01*
X117409000Y-61001800D01*
X117381000Y-61031800D01*
X117351000Y-61058800D01*
X117318000Y-61083800D01*
X117284000Y-61104800D01*
X117247000Y-61123800D01*
X117210000Y-61138800D01*
X117171000Y-61150800D01*
X117131000Y-61158800D01*
X117090000Y-61164800D01*
X117050000Y-61165800D01*
X117009000Y-61163800D01*
X116969000Y-61158800D01*
X116929000Y-61149800D01*
X116890000Y-61137800D01*
X116852000Y-61121800D01*
X116816000Y-61103800D01*
X116782000Y-61081800D01*
X116749000Y-61056800D01*
X116719000Y-61029800D01*
X116691000Y-60999800D01*
X116666000Y-60967800D01*
X116644000Y-60933800D01*
X116625000Y-60897800D01*
X116609000Y-60859800D01*
X116596000Y-60821800D01*
X116586000Y-60781800D01*
X116580000Y-60741800D01*
X116578000Y-60704800D01*
X116579000Y-60682800D01*
X116580000Y-60664800D01*
X116582000Y-60645800D01*
X116585000Y-60627800D01*
X116588000Y-60610800D01*
X116592000Y-60592800D01*
X116596000Y-60574800D01*
X116601000Y-60557800D01*
X116607000Y-60539800D01*
X116614000Y-60522800D01*
X116621000Y-60505800D01*
X116628000Y-60489800D01*
X116637000Y-60473800D01*
X116645000Y-60457800D01*
X116655000Y-60441800D01*
X116665000Y-60426800D01*
X116675000Y-60411800D01*
X116686000Y-60396800D01*
X116698000Y-60382800D01*
X116710000Y-60368800D01*
X116722000Y-60355800D01*
X116735000Y-60342800D01*
X116749000Y-60330800D01*
X116763000Y-60318800D01*
X116777000Y-60307800D01*
X116792000Y-60296800D01*
X116807000Y-60286800D01*
X116822000Y-60276800D01*
X116838000Y-60267800D01*
X116853000Y-60259800D01*
X116853000Y-60094800D01*
X118003000Y-60094800D01*
X118003000Y-60934800D01*
G36*
X118003000Y-60934800D02*
G01*
X117458000Y-60934800D01*
X117435000Y-60970800D01*
X117409000Y-61001800D01*
X117381000Y-61031800D01*
X117351000Y-61058800D01*
X117318000Y-61083800D01*
X117284000Y-61104800D01*
X117247000Y-61123800D01*
X117210000Y-61138800D01*
X117171000Y-61150800D01*
X117131000Y-61158800D01*
X117090000Y-61164800D01*
X117050000Y-61165800D01*
X117009000Y-61163800D01*
X116969000Y-61158800D01*
X116929000Y-61149800D01*
X116890000Y-61137800D01*
X116852000Y-61121800D01*
X116816000Y-61103800D01*
X116782000Y-61081800D01*
X116749000Y-61056800D01*
X116719000Y-61029800D01*
X116691000Y-60999800D01*
X116666000Y-60967800D01*
X116644000Y-60933800D01*
X116625000Y-60897800D01*
X116609000Y-60859800D01*
X116596000Y-60821800D01*
X116586000Y-60781800D01*
X116580000Y-60741800D01*
X116578000Y-60704800D01*
X116579000Y-60682800D01*
X116580000Y-60664800D01*
X116582000Y-60645800D01*
X116585000Y-60627800D01*
X116588000Y-60610800D01*
X116592000Y-60592800D01*
X116596000Y-60574800D01*
X116601000Y-60557800D01*
X116607000Y-60539800D01*
X116614000Y-60522800D01*
X116621000Y-60505800D01*
X116628000Y-60489800D01*
X116637000Y-60473800D01*
X116645000Y-60457800D01*
X116655000Y-60441800D01*
X116665000Y-60426800D01*
X116675000Y-60411800D01*
X116686000Y-60396800D01*
X116698000Y-60382800D01*
X116710000Y-60368800D01*
X116722000Y-60355800D01*
X116735000Y-60342800D01*
X116749000Y-60330800D01*
X116763000Y-60318800D01*
X116777000Y-60307800D01*
X116792000Y-60296800D01*
X116807000Y-60286800D01*
X116822000Y-60276800D01*
X116838000Y-60267800D01*
X116853000Y-60259800D01*
X116853000Y-60094800D01*
X118003000Y-60094800D01*
X118003000Y-60934800D01*
G37*
%TD*%
D11*
%TO.C,J4*%
X155702000Y-73380700D03*
X154432000Y-75920700D03*
X153162000Y-73380700D03*
X151892000Y-75920700D03*
X150622000Y-73380700D03*
X149352000Y-75920700D03*
X148082000Y-73380700D03*
X146812000Y-75920700D03*
D12*
X156972000Y-67030700D03*
X145542000Y-67030700D03*
%TD*%
D13*
%TO.C,L2*%
X163068000Y-75458000D03*
X163068000Y-71608000D03*
%TD*%
D14*
%TO.C,U7*%
X127718901Y-67310000D03*
X129633899Y-67310000D03*
X128676400Y-65278000D03*
%TD*%
D15*
%TO.C,J2*%
X213170001Y-81141601D03*
X218170001Y-81141601D03*
X213170001Y-78641601D03*
X218170001Y-78641601D03*
X213170001Y-76141600D03*
X218170001Y-76141600D03*
X213170001Y-73641600D03*
X218170001Y-73641600D03*
X213170001Y-71141600D03*
X218170001Y-71141600D03*
X213170001Y-68641600D03*
X218170001Y-68641600D03*
%TD*%
D16*
%TO.C,U5*%
X138443150Y-68729600D03*
X137493150Y-68729600D03*
X136543150Y-68729600D03*
X136543150Y-71004600D03*
X137493150Y-71004600D03*
X138443150Y-71004600D03*
%TD*%
D17*
%TO.C,J7*%
X156590800Y-91319600D03*
D18*
X154990800Y-93319600D03*
D19*
X152490800Y-93319600D03*
%TD*%
D20*
%TO.C,C22*%
X159689200Y-95402400D03*
X161239200Y-95402400D03*
%TD*%
D21*
%TO.C,C11*%
X153771600Y-98615800D03*
X153771600Y-97065800D03*
%TD*%
D22*
%TO.C,R12*%
X149987000Y-98627200D03*
X149987000Y-96977200D03*
%TD*%
D23*
%TO.C,R15*%
X149593800Y-88239600D03*
X151243800Y-88239600D03*
%TD*%
D24*
%TO.C,R21*%
X173837600Y-71057000D03*
X173837600Y-72707000D03*
%TD*%
D25*
%TO.C,CR1*%
X146919151Y-84038399D03*
X146919151Y-84988400D03*
X146919151Y-85938401D03*
X149624251Y-85938401D03*
X149624251Y-84988400D03*
X149624251Y-84038399D03*
%TD*%
D26*
%TO.C,D3*%
X186690000Y-64144000D03*
X186690000Y-68444000D03*
%TD*%
D27*
%TO.C,F1*%
X141732000Y-74610500D03*
X141732000Y-77535500D03*
%TD*%
D28*
%TO.C,C24*%
X167640000Y-74471000D03*
X167640000Y-77421000D03*
%TD*%
D29*
%TO.C,C15*%
X197153000Y-72136000D03*
X200103000Y-72136000D03*
%TD*%
D21*
%TO.C,C13*%
X160464000Y-92964800D03*
X160464000Y-91414800D03*
%TD*%
D30*
%TO.C,D1*%
X128391600Y-63246000D03*
X130891600Y-63246000D03*
%TD*%
D20*
%TO.C,C4*%
X118046200Y-62738000D03*
X119596200Y-62738000D03*
%TD*%
D31*
%TO.C,H2*%
X163000000Y-64000000D03*
%TD*%
D20*
%TO.C,C33*%
X124955000Y-71475600D03*
X126505000Y-71475600D03*
%TD*%
%TO.C,C8*%
X202425000Y-84455000D03*
X203975000Y-84455000D03*
%TD*%
D32*
%TO.C,U4*%
X178120000Y-95879500D03*
X179070000Y-95879500D03*
X180020000Y-95879500D03*
X180020000Y-93604500D03*
X178120000Y-93604500D03*
%TD*%
D33*
%TO.C,J6*%
X217346000Y-89888000D03*
D34*
X210346000Y-89888000D03*
X217346000Y-86388000D03*
X210346000Y-86388000D03*
%TD*%
D35*
%TO.C,R14*%
X154698200Y-88188800D03*
X153048200Y-88188800D03*
%TD*%
D36*
%TO.C,C37*%
X138430000Y-82537000D03*
X138430000Y-84087000D03*
%TD*%
D22*
%TO.C,R19*%
X158877000Y-93014800D03*
X158877000Y-91364800D03*
%TD*%
D37*
%TO.C,F3*%
X209042000Y-74106500D03*
X209042000Y-71181500D03*
%TD*%
D38*
%TO.C,C3*%
X123965000Y-62738000D03*
X122415000Y-62738000D03*
%TD*%
D23*
%TO.C,R7*%
X202883000Y-98552000D03*
X204533000Y-98552000D03*
%TD*%
D24*
%TO.C,R3*%
X133430200Y-69461600D03*
X133430200Y-71111600D03*
%TD*%
%TO.C,R2*%
X141558200Y-68975000D03*
X141558200Y-70625000D03*
%TD*%
D39*
%TO.C,R25*%
X177353500Y-90424000D03*
X180278500Y-90424000D03*
%TD*%
D40*
%TO.C,C20*%
X192168000Y-94996000D03*
X184768000Y-94996000D03*
%TD*%
D24*
%TO.C,R10*%
X155295600Y-97015800D03*
X155295600Y-98665800D03*
%TD*%
D41*
%TO.C,J5*%
X113538000Y-85540000D03*
X112522000Y-80460000D03*
X114554000Y-80460000D03*
D42*
X114173000Y-84270000D03*
X112903000Y-84270000D03*
X114173000Y-83000000D03*
X112903000Y-83000000D03*
X114173000Y-81730000D03*
X112903000Y-81730000D03*
%TD*%
D43*
%TO.C,U1*%
X136101200Y-92172000D03*
X136101200Y-90902000D03*
X136101200Y-89632000D03*
X136101200Y-88362000D03*
X136101200Y-87092000D03*
X136101200Y-85822000D03*
X136101200Y-84552000D03*
X136101200Y-83282000D03*
X136101200Y-82012000D03*
X136101200Y-80742000D03*
X136101200Y-79472000D03*
X136101200Y-78202000D03*
X136101200Y-76932000D03*
X136101200Y-75662000D03*
D44*
X134336200Y-74412000D03*
X133066200Y-74412000D03*
X131796200Y-74412000D03*
X130526200Y-74412000D03*
X129256200Y-74412000D03*
X127986200Y-74412000D03*
X126716200Y-74412000D03*
X125446200Y-74412000D03*
X124176200Y-74412000D03*
X122906200Y-74412000D03*
X121636200Y-74412000D03*
X120366200Y-74412000D03*
D43*
X118601200Y-75662000D03*
X118601200Y-76932000D03*
X118601200Y-78202000D03*
X118601200Y-79472000D03*
X118601200Y-80742000D03*
X118601200Y-82012000D03*
X118601200Y-83282000D03*
X118601200Y-84552000D03*
X118601200Y-85822000D03*
X118601200Y-87092000D03*
X118601200Y-88362000D03*
X118601200Y-89632000D03*
X118601200Y-90902000D03*
X118601200Y-92172000D03*
D45*
X130251200Y-85852000D03*
X130251200Y-84452000D03*
X130251200Y-83052000D03*
X130251200Y-83052000D03*
X128851200Y-85852000D03*
X128851200Y-85852000D03*
X128851200Y-84452000D03*
X128851200Y-83052000D03*
X127451200Y-85852000D03*
X127451200Y-84452000D03*
X127451200Y-83052000D03*
%TD*%
D23*
%TO.C,R22*%
X114338600Y-69900800D03*
X115988600Y-69900800D03*
%TD*%
D25*
%TO.C,CR3*%
X152793300Y-84038399D03*
X152793300Y-84988400D03*
X152793300Y-85938401D03*
X155498400Y-85938401D03*
X155498400Y-84988400D03*
X155498400Y-84038399D03*
%TD*%
D38*
%TO.C,C9*%
X204838600Y-73050400D03*
X203288600Y-73050400D03*
%TD*%
D24*
%TO.C,R11*%
X148463000Y-96977200D03*
X148463000Y-98627200D03*
%TD*%
D23*
%TO.C,R18*%
X114389400Y-77216000D03*
X116039400Y-77216000D03*
%TD*%
D38*
%TO.C,C31*%
X141643400Y-92138200D03*
X140093400Y-92138200D03*
%TD*%
D31*
%TO.C,H3*%
X216000000Y-64000000D03*
%TD*%
D38*
%TO.C,C39*%
X139713000Y-77470000D03*
X138163000Y-77470000D03*
%TD*%
D46*
%TO.C,U2*%
X198505500Y-90518000D03*
X198505500Y-91418000D03*
X198505500Y-92318000D03*
X198505500Y-93218000D03*
X198505500Y-94118000D03*
X198505500Y-95018000D03*
X198505500Y-95918000D03*
%TD*%
D40*
%TO.C,C28*%
X173372000Y-94996000D03*
X165972000Y-94996000D03*
%TD*%
D25*
%TO.C,CR2*%
X158667450Y-84038399D03*
X158667450Y-84988400D03*
X158667450Y-85938401D03*
X161372550Y-85938401D03*
X161372550Y-84988400D03*
X161372550Y-84038399D03*
%TD*%
D24*
%TO.C,TH1*%
X209042000Y-96838000D03*
X209042000Y-98488000D03*
%TD*%
D38*
%TO.C,C35*%
X121171000Y-69951600D03*
X119621000Y-69951600D03*
%TD*%
D47*
%TO.C,C21*%
X182626000Y-66089000D03*
X182626000Y-69039000D03*
%TD*%
D36*
%TO.C,C14*%
X172313600Y-71107000D03*
X172313600Y-72657000D03*
%TD*%
D23*
%TO.C,R6*%
X117996200Y-64363600D03*
X119646200Y-64363600D03*
%TD*%
D28*
%TO.C,C25*%
X170180000Y-74471000D03*
X170180000Y-77421000D03*
%TD*%
D48*
%TO.C,C7*%
X197661000Y-84785200D03*
X200611000Y-84785200D03*
%TD*%
D46*
%TO.C,U3*%
X198505500Y-76040000D03*
X198505500Y-76940000D03*
X198505500Y-77840000D03*
X198505500Y-78740000D03*
X198505500Y-79640000D03*
X198505500Y-80540000D03*
X198505500Y-81440000D03*
%TD*%
D49*
%TO.C,F4*%
X160843500Y-68326000D03*
X163768500Y-68326000D03*
%TD*%
D31*
%TO.C,H4*%
X114000000Y-90000000D03*
%TD*%
D20*
%TO.C,C6*%
X199478600Y-98552000D03*
X201028600Y-98552000D03*
%TD*%
%TO.C,C32*%
X124955000Y-69951600D03*
X126505000Y-69951600D03*
%TD*%
D23*
%TO.C,R38*%
X140043400Y-90627200D03*
X141693400Y-90627200D03*
%TD*%
D50*
%TO.C,RN3*%
X155714700Y-80302100D03*
D51*
X154593290Y-80302100D03*
X153763980Y-80302100D03*
D50*
X152641300Y-80302100D03*
X152641300Y-82054700D03*
D51*
X153762710Y-82054700D03*
X154592020Y-82054700D03*
D50*
X155714700Y-82054700D03*
%TD*%
D52*
%TO.C,C23*%
X179959000Y-87073000D03*
X179959000Y-84123000D03*
%TD*%
D53*
%TO.C,L1*%
X192747900Y-75692000D03*
X184188100Y-75692000D03*
%TD*%
D35*
%TO.C,R16*%
X183298600Y-61925200D03*
X181648600Y-61925200D03*
%TD*%
D54*
%TO.C,J1*%
X140206400Y-65152800D03*
X134426400Y-65152800D03*
D55*
X140516400Y-66242800D03*
X139716400Y-66232800D03*
D56*
X138566400Y-66217800D03*
X137566400Y-66217800D03*
X137066400Y-66217800D03*
X136066400Y-66217800D03*
D55*
X134116400Y-66232800D03*
X134916400Y-66232800D03*
D56*
X135566400Y-66217800D03*
X136566400Y-66217800D03*
X138066400Y-66217800D03*
X139066400Y-66217800D03*
D57*
X141636400Y-65652800D03*
D58*
X141636400Y-65652800D03*
D57*
X132996400Y-65652800D03*
D58*
X132996400Y-65652800D03*
D59*
X141636400Y-61472800D03*
D58*
X141636400Y-61472800D03*
D59*
X132996400Y-61472800D03*
D58*
X132996400Y-61472800D03*
%TD*%
D21*
%TO.C,C40*%
X138480800Y-92164200D03*
X138480800Y-90614200D03*
%TD*%
D50*
%TO.C,RN1*%
X128460500Y-71742300D03*
D51*
X129581910Y-71742300D03*
X130411220Y-71742300D03*
D50*
X131533900Y-71742300D03*
X131533900Y-69989700D03*
D51*
X130412490Y-69989700D03*
X129583180Y-69989700D03*
D50*
X128460500Y-69989700D03*
%TD*%
D36*
%TO.C,C1*%
X134953150Y-69511600D03*
X134953150Y-71061600D03*
%TD*%
D24*
%TO.C,R4*%
X138176000Y-73597000D03*
X138176000Y-75247000D03*
%TD*%
D38*
%TO.C,C34*%
X121171000Y-71475600D03*
X119621000Y-71475600D03*
%TD*%
D60*
%TO.C,RN8*%
X116090700Y-75145900D03*
D61*
X116090700Y-74024490D03*
X116090700Y-73195180D03*
D60*
X116090700Y-72072500D03*
X114338100Y-72072500D03*
D61*
X114338100Y-73193910D03*
X114338100Y-74023220D03*
D60*
X114338100Y-75145900D03*
%TD*%
D21*
%TO.C,C38*%
X138430000Y-80658000D03*
X138430000Y-79108000D03*
%TD*%
D38*
%TO.C,C5*%
X203975000Y-87503000D03*
X202425000Y-87503000D03*
%TD*%
D50*
%TO.C,RN6*%
X149974300Y-80302100D03*
D51*
X148852890Y-80302100D03*
X148023580Y-80302100D03*
D50*
X146900900Y-80302100D03*
X146900900Y-82054700D03*
D51*
X148022310Y-82054700D03*
X148851620Y-82054700D03*
D50*
X149974300Y-82054700D03*
%TD*%
D35*
%TO.C,R8*%
X204025000Y-85979000D03*
X202375000Y-85979000D03*
%TD*%
D62*
%TO.C,C26*%
X170004000Y-71374000D03*
X167054000Y-71374000D03*
%TD*%
D50*
%TO.C,RN7*%
X161556700Y-80302100D03*
D51*
X160435290Y-80302100D03*
X159605980Y-80302100D03*
D50*
X158483300Y-80302100D03*
X158483300Y-82054700D03*
D51*
X159604710Y-82054700D03*
X160434020Y-82054700D03*
D50*
X161556700Y-82054700D03*
%TD*%
D63*
%TO.C,D2*%
X179832000Y-66905500D03*
X179832000Y-68730500D03*
%TD*%
D21*
%TO.C,C29*%
X131216400Y-67323000D03*
X131216400Y-65773000D03*
%TD*%
D24*
%TO.C,R20*%
X162052000Y-91364800D03*
X162052000Y-93014800D03*
%TD*%
D60*
%TO.C,RN2*%
X138470900Y-85712300D03*
D61*
X138470900Y-86833710D03*
X138470900Y-87663020D03*
D60*
X138470900Y-88785700D03*
X140223500Y-88785700D03*
D61*
X140223500Y-87664290D03*
X140223500Y-86834980D03*
D60*
X140223500Y-85712300D03*
%TD*%
D24*
%TO.C,R5*%
X139700000Y-73597000D03*
X139700000Y-75247000D03*
%TD*%
D50*
%TO.C,RN4*%
X123964700Y-66382900D03*
D51*
X122843290Y-66382900D03*
X122013980Y-66382900D03*
D50*
X120891300Y-66382900D03*
X120891300Y-68135500D03*
D51*
X122012710Y-68135500D03*
X122842020Y-68135500D03*
D50*
X123964700Y-68135500D03*
%TD*%
D36*
%TO.C,C30*%
X126136400Y-65773000D03*
X126136400Y-67323000D03*
%TD*%
D20*
%TO.C,C36*%
X140195000Y-84074000D03*
X141745000Y-84074000D03*
%TD*%
D64*
%TO.C,J3*%
X207513000Y-65091500D03*
X192273000Y-65091500D03*
D65*
X197353000Y-67591500D03*
D66*
X202433000Y-67591500D03*
%TD*%
D35*
%TO.C,R13*%
X161289200Y-96926400D03*
X159639200Y-96926400D03*
%TD*%
D48*
%TO.C,C10*%
X197661000Y-87122000D03*
X200611000Y-87122000D03*
%TD*%
D52*
%TO.C,C17*%
X173228000Y-77421000D03*
X173228000Y-74471000D03*
%TD*%
D40*
%TO.C,C19*%
X192168000Y-85852000D03*
X184768000Y-85852000D03*
%TD*%
D37*
%TO.C,F2*%
X209143600Y-80462500D03*
X209143600Y-77537500D03*
%TD*%
D67*
%TO.C,JP1*%
X179832000Y-61900000D03*
X179832000Y-63500000D03*
X179832000Y-65100000D03*
%TD*%
D40*
%TO.C,C18*%
X173372000Y-85852000D03*
X165972000Y-85852000D03*
%TD*%
D22*
%TO.C,R9*%
X156819600Y-98665800D03*
X156819600Y-97015800D03*
%TD*%
D68*
%TO.C,H5*%
X216000000Y-96000000D03*
D31*
X216000000Y-96000000D03*
%TD*%
D69*
%TO.C,Q1*%
X180340000Y-71120000D03*
X179070000Y-71120000D03*
X177800000Y-71120000D03*
X176530000Y-71120000D03*
D70*
X178435000Y-75857100D03*
%TD*%
D35*
%TO.C,R17*%
X162115000Y-77978000D03*
X160465000Y-77978000D03*
%TD*%
D60*
%TO.C,RN5*%
X141846300Y-82435700D03*
D61*
X141846300Y-81314290D03*
X141846300Y-80484980D03*
D60*
X141846300Y-79362300D03*
X140093700Y-79362300D03*
D61*
X140093700Y-80483710D03*
X140093700Y-81313020D03*
D60*
X140093700Y-82435700D03*
%TD*%
D21*
%TO.C,C2*%
X140033150Y-70575000D03*
X140033150Y-69025000D03*
%TD*%
%TO.C,C12*%
X146939000Y-98577200D03*
X146939000Y-97027200D03*
%TD*%
D71*
%TO.C,U6*%
X170078400Y-66827400D03*
X172618400Y-66827400D03*
X175158400Y-66827400D03*
%TD*%
D36*
%TO.C,C27*%
X212090000Y-96901000D03*
X212090000Y-98451000D03*
%TD*%
D24*
%TO.C,R27*%
X210566000Y-96851000D03*
X210566000Y-98501000D03*
%TD*%
D72*
%TO.C,S1*%
X124736400Y-61334800D03*
X127536400Y-61334800D03*
D73*
X126136400Y-61219800D03*
D74*
X128336400Y-60694800D03*
D75*
X127961400Y-60514800D03*
X124304400Y-60513800D03*
D74*
X123936400Y-60694800D03*
%TD*%
D29*
%TO.C,C16*%
X176628000Y-81661000D03*
X179578000Y-81661000D03*
%TD*%
D31*
%TO.C,H1*%
X114000000Y-64000000D03*
%TD*%
D72*
%TO.C,S2*%
X117853000Y-61334800D03*
X120653000Y-61334800D03*
D73*
X119253000Y-61219800D03*
D74*
X121453000Y-60694800D03*
D75*
X121078000Y-60514800D03*
X117421000Y-60513800D03*
D74*
X117053000Y-60694800D03*
%TD*%
M02*
