M48
; DRILL file {KiCad 7.0.10} date Tuesday, January 28, 2025 at 10:59:28 PM
; FORMAT={-:-/ absolute / inch / decimal}
; #@! TF.CreationDate,2025-01-28T22:59:28+01:00
; #@! TF.GenerationSoftware,Kicad,Pcbnew,7.0.10
; #@! TF.FileFunction,Plated,1,4,PTH
FMAT,2
INCH
; #@! TA.AperFunction,Plated,PTH,ViaDrill
T1C0.0118
; #@! TA.AperFunction,Plated,PTH,ViaDrill
T2C0.0157
; #@! TA.AperFunction,Plated,PTH,ComponentDrill
T3C0.0217
; #@! TA.AperFunction,Plated,PTH,ComponentDrill
T4C0.0236
; #@! TA.AperFunction,Plated,PTH,ComponentDrill
T5C0.0300
; #@! TA.AperFunction,Plated,PTH,ComponentDrill
T6C0.0394
; #@! TA.AperFunction,Plated,PTH,ComponentDrill
T7C0.0400
; #@! TA.AperFunction,Plated,PTH,ComponentDrill
T8C0.0470
; #@! TA.AperFunction,Plated,PTH,ComponentDrill
T9C0.0531
; #@! TA.AperFunction,Plated,PTH,ComponentDrill
T10C0.0551
; #@! TA.AperFunction,Plated,PTH,ComponentDrill
T11C0.1260
; #@! TA.AperFunction,Plated,PTH,ComponentDrill
T12C0.1300
%
G90
G05
T1
X4.392Y-3.138
X4.798Y-3.074
X4.7982Y-2.858
X4.99Y-3.298
X4.99Y-3.352
X5.044Y-3.41
X5.046Y-3.244
X5.046Y-3.298
X5.046Y-3.352
X5.1Y-3.244
X5.1Y-3.298
X5.1Y-3.352
X5.1Y-3.41
X5.156Y-3.298
X5.156Y-3.352
X5.254Y-2.84
X5.4134Y-2.6673
X5.49Y-3.264
X5.505Y-3.005
X5.5732Y-2.84
X5.7931Y-3.2732
X5.834Y-3.456
X5.8603Y-3.2683
X5.9045Y-3.2705
X5.9836Y-3.3291
X6.0543Y-3.5524
X6.276Y-3.28
X6.3Y-2.65
X6.3Y-2.68
X6.33Y-2.65
X6.46Y-3.448
X6.46Y-3.448
X6.46Y-3.473
X6.46Y-3.648
X6.46Y-3.648
X6.46Y-3.673
X6.485Y-3.448
X6.485Y-3.448
X6.485Y-3.473
X6.485Y-3.473
X6.485Y-3.648
X6.485Y-3.648
X6.485Y-3.673
X6.485Y-3.673
X6.495Y-2.685
X6.5Y-2.65
X6.51Y-3.448
X6.51Y-3.473
X6.51Y-3.648
X6.51Y-3.673
X6.53Y-2.685
X6.535Y-3.448
X6.535Y-3.473
X6.535Y-3.648
X6.535Y-3.673
X6.56Y-3.448
X6.56Y-3.473
X6.56Y-3.648
X6.56Y-3.673
X6.585Y-3.448
X6.585Y-3.473
X6.585Y-3.648
X6.585Y-3.673
X6.61Y-3.448
X6.61Y-3.473
X6.61Y-3.648
X6.61Y-3.673
X6.643Y-2.894
X6.668Y-2.894
X6.693Y-2.894
X6.718Y-2.894
X6.726Y-2.785
X6.726Y-2.81
X6.726Y-2.835
X6.743Y-2.894
X6.761Y-3.448
X6.761Y-3.672
X6.768Y-2.894
X6.786Y-3.448
X6.786Y-3.672
X6.793Y-2.894
X6.811Y-3.448
X6.811Y-3.672
X6.818Y-2.894
X6.836Y-3.448
X6.836Y-3.672
X6.843Y-2.894
X6.895Y-3.005
X6.895Y-3.03
X6.895Y-3.055
X6.895Y-3.08
X6.912Y-3.526
X6.912Y-3.551
X6.912Y-3.576
X6.912Y-3.601
X6.914Y-3.182
X6.914Y-3.207
X6.914Y-3.232
X6.914Y-3.257
X6.92Y-3.005
X6.92Y-3.03
X6.92Y-3.055
X6.92Y-3.08
X6.937Y-3.526
X6.937Y-3.551
X6.937Y-3.576
X6.937Y-3.601
X6.994Y-2.914
X6.994Y-2.964
X6.994Y-3.014
X6.994Y-3.064
X6.998Y-2.42
X7.0132Y-2.7543
X7.026Y-2.42
X7.0382Y-2.7543
X7.044Y-2.914
X7.044Y-2.964
X7.044Y-3.014
X7.044Y-3.064
X7.0632Y-2.7543
X7.07Y-3.464
X7.0882Y-2.7543
X7.095Y-3.464
X7.117Y-3.186
X7.117Y-3.211
X7.117Y-3.236
X7.117Y-3.261
X7.12Y-3.464
X7.142Y-3.186
X7.142Y-3.211
X7.142Y-3.236
X7.142Y-3.261
X7.145Y-3.464
X7.145Y-3.525
X7.145Y-3.55
X7.145Y-3.575
X7.145Y-3.6
X7.17Y-3.525
X7.17Y-3.55
X7.17Y-3.575
X7.17Y-3.6
X7.172Y-2.934
X7.172Y-2.959
X7.172Y-2.984
X7.172Y-3.009
X7.214Y-2.566
X7.218Y-3.289
X7.218Y-3.314
X7.223Y-2.752
X7.239Y-2.566
X7.243Y-3.289
X7.243Y-3.314
X7.248Y-2.752
X7.264Y-2.566
X7.268Y-3.289
X7.268Y-3.314
X7.273Y-2.752
X7.289Y-2.566
X7.293Y-3.289
X7.293Y-3.314
X7.298Y-2.752
X7.318Y-3.289
X7.318Y-3.314
X7.376Y-3.694
X7.376Y-3.719
X7.376Y-3.744
X7.376Y-3.769
X7.376Y-3.794
X7.401Y-3.694
X7.401Y-3.719
X7.401Y-3.744
X7.401Y-3.769
X7.401Y-3.794
X7.426Y-3.694
X7.426Y-3.719
X7.426Y-3.744
X7.426Y-3.769
X7.426Y-3.794
X7.46Y-2.654
X7.46Y-2.679
X7.46Y-2.704
X7.485Y-2.654
X7.485Y-2.679
X7.485Y-2.704
X7.51Y-2.654
X7.51Y-2.679
X7.51Y-2.704
X7.514Y-3.314
X7.516Y-3.672
X7.535Y-2.654
X7.535Y-2.679
X7.535Y-2.704
X7.537Y-3.579
X7.539Y-3.314
X7.541Y-3.672
X7.56Y-2.654
X7.56Y-2.679
X7.56Y-2.704
X7.564Y-3.314
X7.566Y-3.672
X7.638Y-3.48
X7.674Y-2.898
X7.674Y-2.923
X7.674Y-2.948
X7.674Y-2.973
X7.674Y-2.998
X7.699Y-2.898
X7.699Y-2.923
X7.699Y-2.948
X7.699Y-2.973
X7.699Y-2.998
X7.746Y-3.334
X7.746Y-3.36
X7.746Y-3.386
X7.746Y-3.41
X7.746Y-3.434
X7.748Y-3.508
X7.748Y-3.541
X7.752Y-3.18
X7.752Y-3.206
X7.752Y-3.232
X7.752Y-3.256
X7.774Y-3.508
X7.774Y-3.541
X7.788Y-3.807
X7.788Y-3.832
X7.802Y-2.942
X7.802Y-2.967
X7.802Y-3.508
X7.802Y-3.541
X7.813Y-3.807
X7.813Y-3.832
X7.827Y-2.942
X7.827Y-2.967
X7.83Y-3.507
X7.83Y-3.54
X7.858Y-3.507
X7.858Y-3.54
X7.926Y-2.79
X7.926Y-2.815
X7.926Y-2.84
X7.926Y-2.865
X7.926Y-2.89
X7.93Y-3.36
X7.93Y-3.386
X7.93Y-3.412
X7.93Y-3.436
X7.93Y-3.46
X7.948Y-3.546
X7.948Y-3.596
X7.948Y-3.646
X7.948Y-3.696
X7.948Y-3.746
X7.948Y-3.796
X7.951Y-2.79
X7.951Y-2.815
X7.951Y-2.84
X7.951Y-2.865
X7.951Y-2.89
X7.952Y-2.974
X7.952Y-3.024
X7.952Y-3.074
X7.952Y-3.124
X7.952Y-3.174
X7.952Y-3.224
X7.998Y-3.546
X7.998Y-3.596
X7.998Y-3.646
X7.998Y-3.696
X7.998Y-3.746
X7.998Y-3.796
X8.002Y-2.974
X8.002Y-3.024
X8.002Y-3.074
X8.002Y-3.124
X8.002Y-3.174
X8.002Y-3.224
X8.048Y-3.546
X8.048Y-3.596
X8.048Y-3.646
X8.048Y-3.696
X8.048Y-3.746
X8.048Y-3.796
X8.052Y-2.974
X8.052Y-3.024
X8.052Y-3.074
X8.052Y-3.124
X8.052Y-3.174
X8.052Y-3.224
X8.098Y-3.546
X8.098Y-3.596
X8.098Y-3.646
X8.098Y-3.696
X8.098Y-3.746
X8.098Y-3.796
X8.102Y-2.974
X8.102Y-3.024
X8.102Y-3.074
X8.102Y-3.124
X8.102Y-3.174
X8.102Y-3.224
X8.18Y-2.75
X8.21Y-2.75
X8.24Y-2.75
X8.25Y-2.96
X8.28Y-2.93
X8.28Y-2.96
T2
X4.37Y-2.614
X4.4Y-3.21
X4.4Y-3.26
X4.4Y-3.334
X4.417Y-2.8817
X4.456Y-2.752
X4.4577Y-2.9588
X4.4583Y-2.7893
X4.4641Y-2.9151
X4.4661Y-3.0411
X4.4667Y-2.8778
X4.508Y-3.0788
X4.52Y-3.39
X4.558Y-2.796
X4.576Y-3.204
X4.598Y-3.16
X4.614Y-2.752
X4.675Y-2.585
X4.6865Y-2.8345
X4.7126Y-2.8681
X4.718Y-2.704
X4.745Y-3.405
X4.75Y-3.23
X4.75Y-3.528
X4.7512Y-3.6288
X4.752Y-3.278
X4.7627Y-2.4527
X4.7857Y-2.5397
X4.81Y-3.63
X4.83Y-2.4136
X4.83Y-2.54
X4.876Y-2.54
X4.886Y-2.4451
X4.912Y-3.095
X4.926Y-2.54
X4.938Y-2.722
X4.938Y-2.8632
X4.982Y-2.862
X4.994Y-2.65
X5.006Y-3.1265
X5.042Y-3.044
X5.058Y-3.5637
X5.061Y-2.6973
X5.082Y-3.1541
X5.0933Y-2.716
X5.094Y-3.564
X5.1Y-3.61
X5.126Y-3.19
X5.1307Y-2.7162
X5.134Y-2.66
X5.134Y-3.564
X5.136Y-2.588
X5.1785Y-2.7185
X5.228Y-3.004
X5.238Y-3.5623
X5.2441Y-2.689
X5.26Y-3.0443
X5.26Y-3.085
X5.26Y-3.175
X5.2608Y-3.1267
X5.268Y-3.5623
X5.285Y-3.4954
X5.29Y-3.382
X5.3Y-3.57
X5.308Y-3.278
X5.43Y-2.84
X5.4757Y-3.3269
X5.556Y-3.522
X5.57Y-2.664
X5.58Y-3.348
X5.626Y-3.5965
X5.64Y-2.7685
X5.64Y-2.84
X5.716Y-3.876
X5.731Y-3.179
X5.7425Y-3.8435
X5.7439Y-3.6139
X5.749Y-2.819
X5.772Y-3.784
X5.8255Y-3.411
X5.832Y-3.699
X5.8644Y-3.7305
X5.8841Y-3.8012
X5.8983Y-3.6738
X5.9282Y-3.4258
X5.94Y-2.62
X5.94Y-2.652
X5.9428Y-3.637
X5.955Y-3.8211
X6.012Y-3.428
X6.0175Y-3.7935
X6.118Y-3.408
X6.151Y-3.7955
X6.168Y-3.284
X6.168Y-3.346
X6.2129Y-2.8214
X6.24Y-2.7899
X6.2441Y-3.762
X6.2559Y-3.6937
X6.2874Y-2.7881
X6.288Y-3.41
X6.288Y-3.599
X6.3825Y-3.756
X6.3864Y-3.355
X6.402Y-3.7935
X6.413Y-3.597
X6.418Y-3.188
X6.438Y-3.016
X6.47Y-3.048
X6.47Y-3.1715
X6.77Y-3.597
X6.966Y-3.67
X7.03Y-2.66
X7.1213Y-2.4525
X7.244Y-2.416
X7.6217Y-3.8383
X7.6613Y-3.8433
X7.68Y-3.274
X7.6947Y-3.1047
X7.7Y-3.052
X7.7111Y-3.6711
X7.7125Y-3.6225
X7.7371Y-3.7035
X8.108Y-3.846
X8.11Y-2.83
X8.161Y-3.869
X8.208Y-2.422
X8.21Y-2.99
X8.3Y-2.53
X8.3515Y-2.61
X8.395Y-3.88
T3
X4.6084Y-2.3896
X4.7816Y-2.3896
X4.8794Y-2.3896
X5.0526Y-2.3896
T5
X5.78Y-2.989
X5.83Y-2.889
X5.88Y-2.989
X5.93Y-2.889
X5.98Y-2.989
X6.03Y-2.889
X6.08Y-2.989
X6.13Y-2.889
T6
X6.0036Y-3.674
X6.102Y-3.674
T7
X6.696Y-2.631
X6.796Y-2.631
X6.896Y-2.631
T8
X8.3925Y-2.7024
X8.3925Y-2.8009
X8.3925Y-2.8993
X8.3925Y-2.9977
X8.3925Y-3.0961
X8.3925Y-3.1946
X8.5894Y-2.7024
X8.5894Y-2.8009
X8.5894Y-2.8993
X8.5894Y-2.9977
X8.5894Y-3.0961
X8.5894Y-3.1946
T9
X8.2813Y-3.4011
X8.2813Y-3.5389
X8.5569Y-3.4011
X8.5569Y-3.5389
T10
X7.7698Y-2.6611
X7.9698Y-2.6611
T11
X4.4882Y-2.5197
X4.4882Y-3.5433
X6.4173Y-2.5197
X8.5039Y-2.5197
X8.5039Y-3.7795
T12
X5.73Y-2.639
X6.18Y-2.639
T4
G00X5.2361Y-2.4359
M15
G01X5.2361Y-2.4044
M16
G05
G00X5.2361Y-2.6064
M15
G01X5.2361Y-2.5631
M16
G05
G00X5.5762Y-2.4359
M15
G01X5.5762Y-2.4044
M16
G05
G00X5.5762Y-2.6064
M15
G01X5.5762Y-2.5631
M16
G05
M30
