%TF.GenerationSoftware,KiCad,Pcbnew,7.0.10*%
%TF.CreationDate,2025-02-04T22:51:35+01:00*%
%TF.ProjectId,BugWiperPCB,42756757-6970-4657-9250-43422e6b6963,rev?*%
%TF.SameCoordinates,Original*%
%TF.FileFunction,Paste,Top*%
%TF.FilePolarity,Positive*%
%FSLAX46Y46*%
G04 Gerber Fmt 4.6, Leading zero omitted, Abs format (unit mm)*
G04 Created by KiCad (PCBNEW 7.0.10) date 2025-02-04 22:51:35*
%MOMM*%
%LPD*%
G01*
G04 APERTURE LIST*
G04 Aperture macros list*
%AMRoundRect*
0 Rectangle with rounded corners*
0 $1 Rounding radius*
0 $2 $3 $4 $5 $6 $7 $8 $9 X,Y pos of 4 corners*
0 Add a 4 corners polygon primitive as box body*
4,1,4,$2,$3,$4,$5,$6,$7,$8,$9,$2,$3,0*
0 Add four circle primitives for the rounded corners*
1,1,$1+$1,$2,$3*
1,1,$1+$1,$4,$5*
1,1,$1+$1,$6,$7*
1,1,$1+$1,$8,$9*
0 Add four rect primitives between the rounded corners*
20,1,$1+$1,$2,$3,$4,$5,0*
20,1,$1+$1,$4,$5,$6,$7,0*
20,1,$1+$1,$6,$7,$8,$9,0*
20,1,$1+$1,$8,$9,$2,$3,0*%
G04 Aperture macros list end*
%ADD10R,0.600000X1.100000*%
%ADD11R,0.300000X1.150000*%
%ADD12RoundRect,0.300000X-0.300000X1.000000X-0.300000X-1.000000X0.300000X-1.000000X0.300000X1.000000X0*%
%ADD13RoundRect,0.300000X-0.300000X0.800000X-0.300000X-0.800000X0.300000X-0.800000X0.300000X0.800000X0*%
%ADD14R,1.840000X1.200000*%
%ADD15R,0.558800X1.168400*%
%ADD16RoundRect,0.225000X-0.225000X-0.250000X0.225000X-0.250000X0.225000X0.250000X-0.225000X0.250000X0*%
%ADD17RoundRect,0.225000X0.250000X-0.225000X0.250000X0.225000X-0.250000X0.225000X-0.250000X-0.225000X0*%
%ADD18RoundRect,0.200000X0.275000X-0.200000X0.275000X0.200000X-0.275000X0.200000X-0.275000X-0.200000X0*%
%ADD19RoundRect,0.200000X-0.200000X-0.275000X0.200000X-0.275000X0.200000X0.275000X-0.200000X0.275000X0*%
%ADD20RoundRect,0.200000X-0.275000X0.200000X-0.275000X-0.200000X0.275000X-0.200000X0.275000X0.200000X0*%
%ADD21R,1.003300X0.558800*%
%ADD22RoundRect,0.250000X-0.900000X1.000000X-0.900000X-1.000000X0.900000X-1.000000X0.900000X1.000000X0*%
%ADD23RoundRect,0.250000X-0.625000X0.312500X-0.625000X-0.312500X0.625000X-0.312500X0.625000X0.312500X0*%
%ADD24RoundRect,0.250000X-0.650000X0.325000X-0.650000X-0.325000X0.650000X-0.325000X0.650000X0.325000X0*%
%ADD25RoundRect,0.250000X-0.325000X-1.100000X0.325000X-1.100000X0.325000X1.100000X-0.325000X1.100000X0*%
%ADD26RoundRect,0.250000X0.250000X-0.250000X0.250000X0.250000X-0.250000X0.250000X-0.250000X-0.250000X0*%
%ADD27RoundRect,0.225000X0.225000X0.250000X-0.225000X0.250000X-0.225000X-0.250000X0.225000X-0.250000X0*%
%ADD28RoundRect,0.150000X0.150000X-0.512500X0.150000X0.512500X-0.150000X0.512500X-0.150000X-0.512500X0*%
%ADD29RoundRect,0.200000X0.200000X0.275000X-0.200000X0.275000X-0.200000X-0.275000X0.200000X-0.275000X0*%
%ADD30RoundRect,0.225000X-0.250000X0.225000X-0.250000X-0.225000X0.250000X-0.225000X0.250000X0.225000X0*%
%ADD31RoundRect,0.250000X0.625000X-0.312500X0.625000X0.312500X-0.625000X0.312500X-0.625000X-0.312500X0*%
%ADD32R,5.500000X2.150000*%
%ADD33RoundRect,0.250000X-0.312500X-1.075000X0.312500X-1.075000X0.312500X1.075000X-0.312500X1.075000X0*%
%ADD34RoundRect,0.250000X1.950000X1.000000X-1.950000X1.000000X-1.950000X-1.000000X1.950000X-1.000000X0*%
%ADD35R,1.500000X0.900000*%
%ADD36R,0.900000X1.500000*%
%ADD37R,0.900000X0.900000*%
%ADD38RoundRect,0.250000X0.250000X0.475000X-0.250000X0.475000X-0.250000X-0.475000X0.250000X-0.475000X0*%
%ADD39RoundRect,0.250000X-1.100000X0.325000X-1.100000X-0.325000X1.100000X-0.325000X1.100000X0.325000X0*%
%ADD40RoundRect,0.250000X-0.325000X-0.650000X0.325000X-0.650000X0.325000X0.650000X-0.325000X0.650000X0*%
%ADD41RoundRect,0.250000X-0.312500X-0.625000X0.312500X-0.625000X0.312500X0.625000X-0.312500X0.625000X0*%
%ADD42RoundRect,0.107500X-0.107500X0.392500X-0.107500X-0.392500X0.107500X-0.392500X0.107500X0.392500X0*%
%ADD43RoundRect,0.250000X1.100000X-0.325000X1.100000X0.325000X-1.100000X0.325000X-1.100000X-0.325000X0*%
%ADD44R,2.921000X3.251200*%
%ADD45R,0.558800X1.003300*%
%ADD46RoundRect,0.250000X0.475000X-0.250000X0.475000X0.250000X-0.475000X0.250000X-0.475000X-0.250000X0*%
%ADD47RoundRect,0.107500X0.107500X-0.392500X0.107500X0.392500X-0.107500X0.392500X-0.107500X-0.392500X0*%
%ADD48RoundRect,0.107500X0.392500X0.107500X-0.392500X0.107500X-0.392500X-0.107500X0.392500X-0.107500X0*%
%ADD49RoundRect,0.250000X0.325000X0.650000X-0.325000X0.650000X-0.325000X-0.650000X0.325000X-0.650000X0*%
%ADD50RoundRect,0.250000X-0.250000X0.250000X-0.250000X-0.250000X0.250000X-0.250000X0.250000X0.250000X0*%
%ADD51RoundRect,0.107500X-0.392500X-0.107500X0.392500X-0.107500X0.392500X0.107500X-0.392500X0.107500X0*%
%ADD52R,1.000000X0.800000*%
%ADD53R,0.533400X1.524000*%
%ADD54R,4.114800X4.902200*%
G04 APERTURE END LIST*
%TO.C,U2*%
G36*
X199305500Y-90318010D02*
G01*
X199305500Y-90718000D01*
X197705500Y-90718000D01*
X197705500Y-90318000D01*
X199305500Y-90318010D01*
G37*
G36*
X199305500Y-91218010D02*
G01*
X199305500Y-91618000D01*
X197705500Y-91618000D01*
X197705500Y-91218000D01*
X199305500Y-91218010D01*
G37*
G36*
X199305500Y-92518000D02*
G01*
X197705500Y-92518000D01*
X197705500Y-92118000D01*
X199305500Y-92118000D01*
X199305500Y-92518000D01*
G37*
G36*
X199305500Y-93418000D02*
G01*
X197705500Y-93418000D01*
X197705500Y-93018000D01*
X199305500Y-93018000D01*
X199305500Y-93418000D01*
G37*
G36*
X199305500Y-93918010D02*
G01*
X199305500Y-94318000D01*
X197705500Y-94318000D01*
X197705500Y-93918000D01*
X199305500Y-93918010D01*
G37*
G36*
X199305500Y-94818010D02*
G01*
X199305500Y-95218000D01*
X197705500Y-95218000D01*
X197705500Y-94818000D01*
X199305500Y-94818010D01*
G37*
G36*
X199305500Y-96118000D02*
G01*
X197705500Y-96118000D01*
X197705500Y-95718000D01*
X199305500Y-95718000D01*
X199305500Y-96118000D01*
G37*
G36*
X202105500Y-93018000D02*
G01*
X201105500Y-93018000D01*
X201105500Y-90018000D01*
X202105500Y-90018000D01*
X202105500Y-93018000D01*
G37*
G36*
X202105500Y-96418000D02*
G01*
X201105500Y-96418000D01*
X201105500Y-93418000D01*
X202105500Y-93418000D01*
X202105500Y-96418000D01*
G37*
G36*
X203605500Y-93018000D02*
G01*
X202605500Y-93018000D01*
X202605500Y-90018000D01*
X203605500Y-90018000D01*
X203605500Y-93018000D01*
G37*
G36*
X203605500Y-96418000D02*
G01*
X202605500Y-96418000D01*
X202605500Y-93418000D01*
X203605500Y-93418000D01*
X203605500Y-96418000D01*
G37*
G36*
X205105500Y-96117750D02*
G01*
X204105500Y-96118000D01*
X204105500Y-93418000D01*
X205105500Y-93418000D01*
X205105500Y-96117750D01*
G37*
G36*
X205105500Y-90318250D02*
G01*
X205105520Y-93018000D01*
X204105500Y-93018000D01*
X204105500Y-90318000D01*
X205105500Y-90318250D01*
G37*
G36*
X206605500Y-93018000D02*
G01*
X205605500Y-93018000D01*
X205605500Y-89768000D01*
X206605500Y-89768000D01*
X206605500Y-93018000D01*
G37*
G36*
X206605500Y-96668000D02*
G01*
X205605500Y-96668000D01*
X205605500Y-93418000D01*
X206605500Y-93418000D01*
X206605500Y-96668000D01*
G37*
%TO.C,U3*%
G36*
X199305500Y-75840010D02*
G01*
X199305500Y-76240000D01*
X197705500Y-76240000D01*
X197705500Y-75840000D01*
X199305500Y-75840010D01*
G37*
G36*
X199305500Y-76740010D02*
G01*
X199305500Y-77140000D01*
X197705500Y-77140000D01*
X197705500Y-76740000D01*
X199305500Y-76740010D01*
G37*
G36*
X199305500Y-78040000D02*
G01*
X197705500Y-78040000D01*
X197705500Y-77640000D01*
X199305500Y-77640000D01*
X199305500Y-78040000D01*
G37*
G36*
X199305500Y-78940000D02*
G01*
X197705500Y-78940000D01*
X197705500Y-78540000D01*
X199305500Y-78540000D01*
X199305500Y-78940000D01*
G37*
G36*
X199305500Y-79440010D02*
G01*
X199305500Y-79840000D01*
X197705500Y-79840000D01*
X197705500Y-79440000D01*
X199305500Y-79440010D01*
G37*
G36*
X199305500Y-80340010D02*
G01*
X199305500Y-80740000D01*
X197705500Y-80740000D01*
X197705500Y-80340000D01*
X199305500Y-80340010D01*
G37*
G36*
X199305500Y-81640000D02*
G01*
X197705500Y-81640000D01*
X197705500Y-81240000D01*
X199305500Y-81240000D01*
X199305500Y-81640000D01*
G37*
G36*
X202105500Y-78540000D02*
G01*
X201105500Y-78540000D01*
X201105500Y-75540000D01*
X202105500Y-75540000D01*
X202105500Y-78540000D01*
G37*
G36*
X202105500Y-81940000D02*
G01*
X201105500Y-81940000D01*
X201105500Y-78940000D01*
X202105500Y-78940000D01*
X202105500Y-81940000D01*
G37*
G36*
X203605500Y-78540000D02*
G01*
X202605500Y-78540000D01*
X202605500Y-75540000D01*
X203605500Y-75540000D01*
X203605500Y-78540000D01*
G37*
G36*
X203605500Y-81940000D02*
G01*
X202605500Y-81940000D01*
X202605500Y-78940000D01*
X203605500Y-78940000D01*
X203605500Y-81940000D01*
G37*
G36*
X205105500Y-81639750D02*
G01*
X204105500Y-81640000D01*
X204105500Y-78940000D01*
X205105500Y-78940000D01*
X205105500Y-81639750D01*
G37*
G36*
X205105500Y-75840250D02*
G01*
X205105520Y-78540000D01*
X204105500Y-78540000D01*
X204105500Y-75840000D01*
X205105500Y-75840250D01*
G37*
G36*
X206605500Y-78540000D02*
G01*
X205605500Y-78540000D01*
X205605500Y-75290000D01*
X206605500Y-75290000D01*
X206605500Y-78540000D01*
G37*
G36*
X206605500Y-82190000D02*
G01*
X205605500Y-82190000D01*
X205605500Y-78940000D01*
X206605500Y-78940000D01*
X206605500Y-82190000D01*
G37*
%TD*%
D10*
%TO.C,J1*%
X140516400Y-66301900D03*
X139716400Y-66291900D03*
D11*
X138566400Y-66276900D03*
X137566400Y-66276900D03*
X137066400Y-66276900D03*
X136066400Y-66276900D03*
D10*
X134116400Y-66291900D03*
X134916400Y-66291900D03*
D11*
X135566400Y-66276900D03*
X136566400Y-66276900D03*
X138066400Y-66276900D03*
X139066400Y-66276900D03*
D12*
X141636400Y-65711900D03*
X132996400Y-65711900D03*
D13*
X141636400Y-61631900D03*
X132996400Y-61631900D03*
%TD*%
D14*
%TO.C,SW2*%
X118259700Y-62714700D03*
X122309700Y-62714700D03*
X118259700Y-61114700D03*
X122309700Y-61114700D03*
%TD*%
%TO.C,SW1*%
X125930500Y-62714700D03*
X129980500Y-62714700D03*
X125930500Y-61114700D03*
X129980500Y-61114700D03*
%TD*%
D15*
%TO.C,U7*%
X127718901Y-67564000D03*
X129633899Y-67564000D03*
X128676400Y-65532000D03*
%TD*%
D16*
%TO.C,C22*%
X159689200Y-95402400D03*
X161239200Y-95402400D03*
%TD*%
D17*
%TO.C,C11*%
X153771600Y-98615800D03*
X153771600Y-97065800D03*
%TD*%
D18*
%TO.C,R12*%
X149987000Y-98627200D03*
X149987000Y-96977200D03*
%TD*%
D19*
%TO.C,R15*%
X149593800Y-88239600D03*
X151243800Y-88239600D03*
%TD*%
D20*
%TO.C,R21*%
X173837600Y-71057000D03*
X173837600Y-72707000D03*
%TD*%
D21*
%TO.C,CR1*%
X146919151Y-84038399D03*
X146919151Y-84988400D03*
X146919151Y-85938401D03*
X149624251Y-85938401D03*
X149624251Y-84988400D03*
X149624251Y-84038399D03*
%TD*%
D22*
%TO.C,D3*%
X186690000Y-64144000D03*
X186690000Y-68444000D03*
%TD*%
D23*
%TO.C,F1*%
X141732000Y-74610500D03*
X141732000Y-77535500D03*
%TD*%
D24*
%TO.C,C24*%
X167640000Y-74471000D03*
X167640000Y-77421000D03*
%TD*%
D25*
%TO.C,C15*%
X197153000Y-72136000D03*
X200103000Y-72136000D03*
%TD*%
D17*
%TO.C,C13*%
X160464000Y-92964800D03*
X160464000Y-91414800D03*
%TD*%
D26*
%TO.C,D1*%
X125679200Y-68102800D03*
X125679200Y-65602800D03*
%TD*%
D27*
%TO.C,C4*%
X112890600Y-68376800D03*
X111340600Y-68376800D03*
%TD*%
D16*
%TO.C,C33*%
X123431000Y-71475600D03*
X124981000Y-71475600D03*
%TD*%
%TO.C,C8*%
X202475000Y-84201000D03*
X204025000Y-84201000D03*
%TD*%
D28*
%TO.C,U4*%
X178120000Y-95879500D03*
X179070000Y-95879500D03*
X180020000Y-95879500D03*
X180020000Y-93604500D03*
X178120000Y-93604500D03*
%TD*%
D29*
%TO.C,R14*%
X154698200Y-88188800D03*
X153048200Y-88188800D03*
%TD*%
D30*
%TO.C,C37*%
X138430000Y-82537000D03*
X138430000Y-84087000D03*
%TD*%
D18*
%TO.C,R19*%
X158877000Y-93014800D03*
X158877000Y-91364800D03*
%TD*%
D31*
%TO.C,F3*%
X209042000Y-74106500D03*
X209042000Y-71181500D03*
%TD*%
D32*
%TO.C,L2*%
X163068000Y-75458000D03*
X163068000Y-71608000D03*
%TD*%
D30*
%TO.C,C3*%
X119126000Y-66535000D03*
X119126000Y-68085000D03*
%TD*%
D19*
%TO.C,R7*%
X202883000Y-98552000D03*
X204533000Y-98552000D03*
%TD*%
D20*
%TO.C,R3*%
X133223000Y-69461600D03*
X133223000Y-71111600D03*
%TD*%
%TO.C,R2*%
X141733050Y-68975000D03*
X141733050Y-70625000D03*
%TD*%
D33*
%TO.C,R25*%
X177353500Y-90424000D03*
X180278500Y-90424000D03*
%TD*%
D34*
%TO.C,C20*%
X192168000Y-94996000D03*
X184768000Y-94996000D03*
%TD*%
D20*
%TO.C,R10*%
X155295600Y-97015800D03*
X155295600Y-98665800D03*
%TD*%
D35*
%TO.C,U1*%
X136101200Y-92172000D03*
X136101200Y-90902000D03*
X136101200Y-89632000D03*
X136101200Y-88362000D03*
X136101200Y-87092000D03*
X136101200Y-85822000D03*
X136101200Y-84552000D03*
X136101200Y-83282000D03*
X136101200Y-82012000D03*
X136101200Y-80742000D03*
X136101200Y-79472000D03*
X136101200Y-78202000D03*
X136101200Y-76932000D03*
X136101200Y-75662000D03*
D36*
X134336200Y-74412000D03*
X133066200Y-74412000D03*
X131796200Y-74412000D03*
X130526200Y-74412000D03*
X129256200Y-74412000D03*
X127986200Y-74412000D03*
X126716200Y-74412000D03*
X125446200Y-74412000D03*
X124176200Y-74412000D03*
X122906200Y-74412000D03*
X121636200Y-74412000D03*
X120366200Y-74412000D03*
D35*
X118601200Y-75662000D03*
X118601200Y-76932000D03*
X118601200Y-78202000D03*
X118601200Y-79472000D03*
X118601200Y-80742000D03*
X118601200Y-82012000D03*
X118601200Y-83282000D03*
X118601200Y-84552000D03*
X118601200Y-85822000D03*
X118601200Y-87092000D03*
X118601200Y-88362000D03*
X118601200Y-89632000D03*
X118601200Y-90902000D03*
X118601200Y-92172000D03*
D37*
X130251200Y-85852000D03*
X130251200Y-84452000D03*
X130251200Y-83052000D03*
X130251200Y-83052000D03*
X128851200Y-85852000D03*
X128851200Y-85852000D03*
X128851200Y-84452000D03*
X128851200Y-83052000D03*
X127451200Y-85852000D03*
X127451200Y-84452000D03*
X127451200Y-83052000D03*
%TD*%
D19*
%TO.C,R22*%
X114338600Y-69900800D03*
X115988600Y-69900800D03*
%TD*%
D21*
%TO.C,CR3*%
X152793300Y-84038399D03*
X152793300Y-84988400D03*
X152793300Y-85938401D03*
X155498400Y-85938401D03*
X155498400Y-84988400D03*
X155498400Y-84038399D03*
%TD*%
D38*
%TO.C,C9*%
X205200000Y-73050400D03*
X203300000Y-73050400D03*
%TD*%
D20*
%TO.C,R11*%
X148463000Y-96977200D03*
X148463000Y-98627200D03*
%TD*%
D19*
%TO.C,R18*%
X114389400Y-77216000D03*
X116039400Y-77216000D03*
%TD*%
D27*
%TO.C,C31*%
X142275000Y-92138200D03*
X140725000Y-92138200D03*
%TD*%
%TO.C,C39*%
X139713000Y-77470000D03*
X138163000Y-77470000D03*
%TD*%
D34*
%TO.C,C28*%
X173372000Y-94996000D03*
X165972000Y-94996000D03*
%TD*%
D21*
%TO.C,CR2*%
X158667450Y-84038399D03*
X158667450Y-84988400D03*
X158667450Y-85938401D03*
X161372550Y-85938401D03*
X161372550Y-84988400D03*
X161372550Y-84038399D03*
%TD*%
D20*
%TO.C,TH1*%
X209042000Y-96838000D03*
X209042000Y-98488000D03*
%TD*%
D27*
%TO.C,C35*%
X120917000Y-69951600D03*
X119367000Y-69951600D03*
%TD*%
D39*
%TO.C,C21*%
X182626000Y-66089000D03*
X182626000Y-69039000D03*
%TD*%
D30*
%TO.C,C14*%
X172313600Y-71107000D03*
X172313600Y-72657000D03*
%TD*%
D19*
%TO.C,R6*%
X115988600Y-68376800D03*
X114338600Y-68376800D03*
%TD*%
D24*
%TO.C,C25*%
X170180000Y-74471000D03*
X170180000Y-77421000D03*
%TD*%
D40*
%TO.C,C7*%
X197661000Y-84785200D03*
X200611000Y-84785200D03*
%TD*%
D41*
%TO.C,F4*%
X160843500Y-68326000D03*
X163768500Y-68326000D03*
%TD*%
D16*
%TO.C,C6*%
X199478600Y-98552000D03*
X201028600Y-98552000D03*
%TD*%
%TO.C,C32*%
X123431000Y-69951600D03*
X124981000Y-69951600D03*
%TD*%
D19*
%TO.C,R38*%
X140675000Y-90627200D03*
X142325000Y-90627200D03*
%TD*%
D42*
%TO.C,RN3*%
X155378000Y-80323400D03*
X154578000Y-80323400D03*
X153778000Y-80323400D03*
X152978000Y-80323400D03*
X152978000Y-82033400D03*
X153778000Y-82033400D03*
X154578000Y-82033400D03*
X155378000Y-82033400D03*
%TD*%
D43*
%TO.C,C23*%
X179959000Y-87073000D03*
X179959000Y-84123000D03*
%TD*%
D44*
%TO.C,L1*%
X192747900Y-75692000D03*
X184188100Y-75692000D03*
%TD*%
D29*
%TO.C,R16*%
X183298600Y-61925200D03*
X181648600Y-61925200D03*
%TD*%
D45*
%TO.C,CR4*%
X138450001Y-68647450D03*
X137500000Y-68647450D03*
X136549999Y-68647450D03*
X136549999Y-71352550D03*
X137500000Y-71352550D03*
X138450001Y-71352550D03*
%TD*%
D46*
%TO.C,C40*%
X138750000Y-92339200D03*
X138750000Y-90439200D03*
%TD*%
D47*
%TO.C,RN1*%
X128797200Y-71721000D03*
X129597200Y-71721000D03*
X130397200Y-71721000D03*
X131197200Y-71721000D03*
X131197200Y-70011000D03*
X130397200Y-70011000D03*
X129597200Y-70011000D03*
X128797200Y-70011000D03*
%TD*%
D30*
%TO.C,C1*%
X134745950Y-69511600D03*
X134745950Y-71061600D03*
%TD*%
D20*
%TO.C,R4*%
X138176000Y-73597000D03*
X138176000Y-75247000D03*
%TD*%
D27*
%TO.C,C34*%
X120917000Y-71475600D03*
X119367000Y-71475600D03*
%TD*%
D48*
%TO.C,RN8*%
X116069400Y-74809200D03*
X116069400Y-74009200D03*
X116069400Y-73209200D03*
X116069400Y-72409200D03*
X114359400Y-72409200D03*
X114359400Y-73209200D03*
X114359400Y-74009200D03*
X114359400Y-74809200D03*
%TD*%
D17*
%TO.C,C38*%
X138430000Y-80658000D03*
X138430000Y-79108000D03*
%TD*%
D38*
%TO.C,C5*%
X204404000Y-87503000D03*
X202504000Y-87503000D03*
%TD*%
D42*
%TO.C,RN6*%
X149637600Y-80323400D03*
X148837600Y-80323400D03*
X148037600Y-80323400D03*
X147237600Y-80323400D03*
X147237600Y-82033400D03*
X148037600Y-82033400D03*
X148837600Y-82033400D03*
X149637600Y-82033400D03*
%TD*%
D29*
%TO.C,R8*%
X204075000Y-85725000D03*
X202425000Y-85725000D03*
%TD*%
D49*
%TO.C,C26*%
X170004000Y-71374000D03*
X167054000Y-71374000D03*
%TD*%
D42*
%TO.C,RN7*%
X161220000Y-80323400D03*
X160420000Y-80323400D03*
X159620000Y-80323400D03*
X158820000Y-80323400D03*
X158820000Y-82033400D03*
X159620000Y-82033400D03*
X160420000Y-82033400D03*
X161220000Y-82033400D03*
%TD*%
D50*
%TO.C,D2*%
X179832000Y-66500000D03*
X179832000Y-69000000D03*
%TD*%
D17*
%TO.C,C29*%
X131216400Y-67577000D03*
X131216400Y-66027000D03*
%TD*%
D20*
%TO.C,R20*%
X162052000Y-91364800D03*
X162052000Y-93014800D03*
%TD*%
D51*
%TO.C,RN2*%
X138492200Y-86049000D03*
X138492200Y-86849000D03*
X138492200Y-87649000D03*
X138492200Y-88449000D03*
X140202200Y-88449000D03*
X140202200Y-87649000D03*
X140202200Y-86849000D03*
X140202200Y-86049000D03*
%TD*%
D20*
%TO.C,R5*%
X139700000Y-73597000D03*
X139700000Y-75247000D03*
%TD*%
D42*
%TO.C,RN4*%
X123374000Y-66404200D03*
X122574000Y-66404200D03*
X121774000Y-66404200D03*
X120974000Y-66404200D03*
X120974000Y-68114200D03*
X121774000Y-68114200D03*
X122574000Y-68114200D03*
X123374000Y-68114200D03*
%TD*%
D30*
%TO.C,C30*%
X127000000Y-70091000D03*
X127000000Y-71641000D03*
%TD*%
D16*
%TO.C,C36*%
X140195000Y-84074000D03*
X141745000Y-84074000D03*
%TD*%
D29*
%TO.C,R13*%
X161289200Y-96926400D03*
X159639200Y-96926400D03*
%TD*%
D40*
%TO.C,C10*%
X197661000Y-87122000D03*
X200611000Y-87122000D03*
%TD*%
D43*
%TO.C,C17*%
X173228000Y-77421000D03*
X173228000Y-74471000D03*
%TD*%
D34*
%TO.C,C19*%
X192168000Y-85852000D03*
X184768000Y-85852000D03*
%TD*%
D31*
%TO.C,F2*%
X209143600Y-80462500D03*
X209143600Y-77537500D03*
%TD*%
D52*
%TO.C,JP1*%
X179832000Y-61650000D03*
X179832000Y-63250000D03*
%TD*%
D34*
%TO.C,C18*%
X173372000Y-85852000D03*
X165972000Y-85852000D03*
%TD*%
D18*
%TO.C,R9*%
X156819600Y-98665800D03*
X156819600Y-97015800D03*
%TD*%
D53*
%TO.C,Q1*%
X180340000Y-71221600D03*
X179070000Y-71221600D03*
X177800000Y-71221600D03*
X176530000Y-71221600D03*
D54*
X178435000Y-75958700D03*
%TD*%
D29*
%TO.C,R17*%
X162115000Y-77978000D03*
X160465000Y-77978000D03*
%TD*%
D48*
%TO.C,RN5*%
X141825000Y-82099000D03*
X141825000Y-81299000D03*
X141825000Y-80499000D03*
X141825000Y-79699000D03*
X140115000Y-79699000D03*
X140115000Y-80499000D03*
X140115000Y-81299000D03*
X140115000Y-82099000D03*
%TD*%
D17*
%TO.C,C2*%
X140208000Y-70575000D03*
X140208000Y-69025000D03*
%TD*%
%TO.C,C12*%
X146939000Y-98577200D03*
X146939000Y-97027200D03*
%TD*%
D30*
%TO.C,C27*%
X212090000Y-96901000D03*
X212090000Y-98451000D03*
%TD*%
D20*
%TO.C,R27*%
X210566000Y-96851000D03*
X210566000Y-98501000D03*
%TD*%
D25*
%TO.C,C16*%
X176628000Y-81661000D03*
X179578000Y-81661000D03*
%TD*%
M02*
