%TF.GenerationSoftware,KiCad,Pcbnew,7.0.10*%
%TF.CreationDate,2025-01-28T22:59:33+01:00*%
%TF.ProjectId,BugWiperPCB,42756757-6970-4657-9250-43422e6b6963,rev?*%
%TF.SameCoordinates,Original*%
%TF.FileFunction,Legend,Bot*%
%TF.FilePolarity,Positive*%
%FSLAX46Y46*%
G04 Gerber Fmt 4.6, Leading zero omitted, Abs format (unit mm)*
G04 Created by KiCad (PCBNEW 7.0.10) date 2025-01-28 22:59:33*
%MOMM*%
%LPD*%
G01*
G04 APERTURE LIST*
%ADD10C,0.150000*%
%ADD11C,0.120000*%
%ADD12C,0.508000*%
G04 APERTURE END LIST*
D10*
X226730152Y-84142856D02*
X227396819Y-84142856D01*
X226349200Y-84380951D02*
X227063485Y-84619046D01*
X227063485Y-84619046D02*
X227063485Y-83999999D01*
X226396819Y-83428570D02*
X226396819Y-83333332D01*
X226396819Y-83333332D02*
X226444438Y-83238094D01*
X226444438Y-83238094D02*
X226492057Y-83190475D01*
X226492057Y-83190475D02*
X226587295Y-83142856D01*
X226587295Y-83142856D02*
X226777771Y-83095237D01*
X226777771Y-83095237D02*
X227015866Y-83095237D01*
X227015866Y-83095237D02*
X227206342Y-83142856D01*
X227206342Y-83142856D02*
X227301580Y-83190475D01*
X227301580Y-83190475D02*
X227349200Y-83238094D01*
X227349200Y-83238094D02*
X227396819Y-83333332D01*
X227396819Y-83333332D02*
X227396819Y-83428570D01*
X227396819Y-83428570D02*
X227349200Y-83523808D01*
X227349200Y-83523808D02*
X227301580Y-83571427D01*
X227301580Y-83571427D02*
X227206342Y-83619046D01*
X227206342Y-83619046D02*
X227015866Y-83666665D01*
X227015866Y-83666665D02*
X226777771Y-83666665D01*
X226777771Y-83666665D02*
X226587295Y-83619046D01*
X226587295Y-83619046D02*
X226492057Y-83571427D01*
X226492057Y-83571427D02*
X226444438Y-83523808D01*
X226444438Y-83523808D02*
X226396819Y-83428570D01*
X227301580Y-82666665D02*
X227349200Y-82619046D01*
X227349200Y-82619046D02*
X227396819Y-82666665D01*
X227396819Y-82666665D02*
X227349200Y-82714284D01*
X227349200Y-82714284D02*
X227301580Y-82666665D01*
X227301580Y-82666665D02*
X227396819Y-82666665D01*
X226396819Y-81999999D02*
X226396819Y-81904761D01*
X226396819Y-81904761D02*
X226444438Y-81809523D01*
X226444438Y-81809523D02*
X226492057Y-81761904D01*
X226492057Y-81761904D02*
X226587295Y-81714285D01*
X226587295Y-81714285D02*
X226777771Y-81666666D01*
X226777771Y-81666666D02*
X227015866Y-81666666D01*
X227015866Y-81666666D02*
X227206342Y-81714285D01*
X227206342Y-81714285D02*
X227301580Y-81761904D01*
X227301580Y-81761904D02*
X227349200Y-81809523D01*
X227349200Y-81809523D02*
X227396819Y-81904761D01*
X227396819Y-81904761D02*
X227396819Y-81999999D01*
X227396819Y-81999999D02*
X227349200Y-82095237D01*
X227349200Y-82095237D02*
X227301580Y-82142856D01*
X227301580Y-82142856D02*
X227206342Y-82190475D01*
X227206342Y-82190475D02*
X227015866Y-82238094D01*
X227015866Y-82238094D02*
X226777771Y-82238094D01*
X226777771Y-82238094D02*
X226587295Y-82190475D01*
X226587295Y-82190475D02*
X226492057Y-82142856D01*
X226492057Y-82142856D02*
X226444438Y-82095237D01*
X226444438Y-82095237D02*
X226396819Y-81999999D01*
X226396819Y-81047618D02*
X226396819Y-80952380D01*
X226396819Y-80952380D02*
X226444438Y-80857142D01*
X226444438Y-80857142D02*
X226492057Y-80809523D01*
X226492057Y-80809523D02*
X226587295Y-80761904D01*
X226587295Y-80761904D02*
X226777771Y-80714285D01*
X226777771Y-80714285D02*
X227015866Y-80714285D01*
X227015866Y-80714285D02*
X227206342Y-80761904D01*
X227206342Y-80761904D02*
X227301580Y-80809523D01*
X227301580Y-80809523D02*
X227349200Y-80857142D01*
X227349200Y-80857142D02*
X227396819Y-80952380D01*
X227396819Y-80952380D02*
X227396819Y-81047618D01*
X227396819Y-81047618D02*
X227349200Y-81142856D01*
X227349200Y-81142856D02*
X227301580Y-81190475D01*
X227301580Y-81190475D02*
X227206342Y-81238094D01*
X227206342Y-81238094D02*
X227015866Y-81285713D01*
X227015866Y-81285713D02*
X226777771Y-81285713D01*
X226777771Y-81285713D02*
X226587295Y-81238094D01*
X226587295Y-81238094D02*
X226492057Y-81190475D01*
X226492057Y-81190475D02*
X226444438Y-81142856D01*
X226444438Y-81142856D02*
X226396819Y-81047618D01*
X226396819Y-80095237D02*
X226396819Y-79999999D01*
X226396819Y-79999999D02*
X226444438Y-79904761D01*
X226444438Y-79904761D02*
X226492057Y-79857142D01*
X226492057Y-79857142D02*
X226587295Y-79809523D01*
X226587295Y-79809523D02*
X226777771Y-79761904D01*
X226777771Y-79761904D02*
X227015866Y-79761904D01*
X227015866Y-79761904D02*
X227206342Y-79809523D01*
X227206342Y-79809523D02*
X227301580Y-79857142D01*
X227301580Y-79857142D02*
X227349200Y-79904761D01*
X227349200Y-79904761D02*
X227396819Y-79999999D01*
X227396819Y-79999999D02*
X227396819Y-80095237D01*
X227396819Y-80095237D02*
X227349200Y-80190475D01*
X227349200Y-80190475D02*
X227301580Y-80238094D01*
X227301580Y-80238094D02*
X227206342Y-80285713D01*
X227206342Y-80285713D02*
X227015866Y-80333332D01*
X227015866Y-80333332D02*
X226777771Y-80333332D01*
X226777771Y-80333332D02*
X226587295Y-80285713D01*
X226587295Y-80285713D02*
X226492057Y-80238094D01*
X226492057Y-80238094D02*
X226444438Y-80190475D01*
X226444438Y-80190475D02*
X226396819Y-80095237D01*
X226396819Y-79142856D02*
X226396819Y-79047618D01*
X226396819Y-79047618D02*
X226444438Y-78952380D01*
X226444438Y-78952380D02*
X226492057Y-78904761D01*
X226492057Y-78904761D02*
X226587295Y-78857142D01*
X226587295Y-78857142D02*
X226777771Y-78809523D01*
X226777771Y-78809523D02*
X227015866Y-78809523D01*
X227015866Y-78809523D02*
X227206342Y-78857142D01*
X227206342Y-78857142D02*
X227301580Y-78904761D01*
X227301580Y-78904761D02*
X227349200Y-78952380D01*
X227349200Y-78952380D02*
X227396819Y-79047618D01*
X227396819Y-79047618D02*
X227396819Y-79142856D01*
X227396819Y-79142856D02*
X227349200Y-79238094D01*
X227349200Y-79238094D02*
X227301580Y-79285713D01*
X227301580Y-79285713D02*
X227206342Y-79333332D01*
X227206342Y-79333332D02*
X227015866Y-79380951D01*
X227015866Y-79380951D02*
X226777771Y-79380951D01*
X226777771Y-79380951D02*
X226587295Y-79333332D01*
X226587295Y-79333332D02*
X226492057Y-79285713D01*
X226492057Y-79285713D02*
X226444438Y-79238094D01*
X226444438Y-79238094D02*
X226396819Y-79142856D01*
X227396819Y-77619046D02*
X226730152Y-77619046D01*
X226825390Y-77619046D02*
X226777771Y-77571427D01*
X226777771Y-77571427D02*
X226730152Y-77476189D01*
X226730152Y-77476189D02*
X226730152Y-77333332D01*
X226730152Y-77333332D02*
X226777771Y-77238094D01*
X226777771Y-77238094D02*
X226873009Y-77190475D01*
X226873009Y-77190475D02*
X227396819Y-77190475D01*
X226873009Y-77190475D02*
X226777771Y-77142856D01*
X226777771Y-77142856D02*
X226730152Y-77047618D01*
X226730152Y-77047618D02*
X226730152Y-76904761D01*
X226730152Y-76904761D02*
X226777771Y-76809522D01*
X226777771Y-76809522D02*
X226873009Y-76761903D01*
X226873009Y-76761903D02*
X227396819Y-76761903D01*
X227396819Y-76285713D02*
X226730152Y-76285713D01*
X226825390Y-76285713D02*
X226777771Y-76238094D01*
X226777771Y-76238094D02*
X226730152Y-76142856D01*
X226730152Y-76142856D02*
X226730152Y-75999999D01*
X226730152Y-75999999D02*
X226777771Y-75904761D01*
X226777771Y-75904761D02*
X226873009Y-75857142D01*
X226873009Y-75857142D02*
X227396819Y-75857142D01*
X226873009Y-75857142D02*
X226777771Y-75809523D01*
X226777771Y-75809523D02*
X226730152Y-75714285D01*
X226730152Y-75714285D02*
X226730152Y-75571428D01*
X226730152Y-75571428D02*
X226777771Y-75476189D01*
X226777771Y-75476189D02*
X226873009Y-75428570D01*
X226873009Y-75428570D02*
X227396819Y-75428570D01*
X220500000Y-100000000D02*
X228678420Y-100000000D01*
X220500000Y-60000000D02*
X228678420Y-60000000D01*
X228092000Y-100000000D02*
X228092000Y-60000000D01*
X228092000Y-100000000D02*
X228092000Y-60000000D01*
X228092000Y-100000000D02*
X227505579Y-98873496D01*
X228092000Y-100000000D02*
X228678421Y-98873496D01*
X228092000Y-60000000D02*
X228678421Y-61126504D01*
X228092000Y-60000000D02*
X227505579Y-61126504D01*
X160476190Y-107000818D02*
X159904762Y-107000818D01*
X160190476Y-107000818D02*
X160190476Y-106000818D01*
X160190476Y-106000818D02*
X160095238Y-106143675D01*
X160095238Y-106143675D02*
X160000000Y-106238913D01*
X160000000Y-106238913D02*
X159904762Y-106286532D01*
X161428571Y-107000818D02*
X160857143Y-107000818D01*
X161142857Y-107000818D02*
X161142857Y-106000818D01*
X161142857Y-106000818D02*
X161047619Y-106143675D01*
X161047619Y-106143675D02*
X160952381Y-106238913D01*
X160952381Y-106238913D02*
X160857143Y-106286532D01*
X162047619Y-106000818D02*
X162142857Y-106000818D01*
X162142857Y-106000818D02*
X162238095Y-106048437D01*
X162238095Y-106048437D02*
X162285714Y-106096056D01*
X162285714Y-106096056D02*
X162333333Y-106191294D01*
X162333333Y-106191294D02*
X162380952Y-106381770D01*
X162380952Y-106381770D02*
X162380952Y-106619865D01*
X162380952Y-106619865D02*
X162333333Y-106810341D01*
X162333333Y-106810341D02*
X162285714Y-106905579D01*
X162285714Y-106905579D02*
X162238095Y-106953199D01*
X162238095Y-106953199D02*
X162142857Y-107000818D01*
X162142857Y-107000818D02*
X162047619Y-107000818D01*
X162047619Y-107000818D02*
X161952381Y-106953199D01*
X161952381Y-106953199D02*
X161904762Y-106905579D01*
X161904762Y-106905579D02*
X161857143Y-106810341D01*
X161857143Y-106810341D02*
X161809524Y-106619865D01*
X161809524Y-106619865D02*
X161809524Y-106381770D01*
X161809524Y-106381770D02*
X161857143Y-106191294D01*
X161857143Y-106191294D02*
X161904762Y-106096056D01*
X161904762Y-106096056D02*
X161952381Y-106048437D01*
X161952381Y-106048437D02*
X162047619Y-106000818D01*
X162809524Y-106905579D02*
X162857143Y-106953199D01*
X162857143Y-106953199D02*
X162809524Y-107000818D01*
X162809524Y-107000818D02*
X162761905Y-106953199D01*
X162761905Y-106953199D02*
X162809524Y-106905579D01*
X162809524Y-106905579D02*
X162809524Y-107000818D01*
X163476190Y-106000818D02*
X163571428Y-106000818D01*
X163571428Y-106000818D02*
X163666666Y-106048437D01*
X163666666Y-106048437D02*
X163714285Y-106096056D01*
X163714285Y-106096056D02*
X163761904Y-106191294D01*
X163761904Y-106191294D02*
X163809523Y-106381770D01*
X163809523Y-106381770D02*
X163809523Y-106619865D01*
X163809523Y-106619865D02*
X163761904Y-106810341D01*
X163761904Y-106810341D02*
X163714285Y-106905579D01*
X163714285Y-106905579D02*
X163666666Y-106953199D01*
X163666666Y-106953199D02*
X163571428Y-107000818D01*
X163571428Y-107000818D02*
X163476190Y-107000818D01*
X163476190Y-107000818D02*
X163380952Y-106953199D01*
X163380952Y-106953199D02*
X163333333Y-106905579D01*
X163333333Y-106905579D02*
X163285714Y-106810341D01*
X163285714Y-106810341D02*
X163238095Y-106619865D01*
X163238095Y-106619865D02*
X163238095Y-106381770D01*
X163238095Y-106381770D02*
X163285714Y-106191294D01*
X163285714Y-106191294D02*
X163333333Y-106096056D01*
X163333333Y-106096056D02*
X163380952Y-106048437D01*
X163380952Y-106048437D02*
X163476190Y-106000818D01*
X164428571Y-106000818D02*
X164523809Y-106000818D01*
X164523809Y-106000818D02*
X164619047Y-106048437D01*
X164619047Y-106048437D02*
X164666666Y-106096056D01*
X164666666Y-106096056D02*
X164714285Y-106191294D01*
X164714285Y-106191294D02*
X164761904Y-106381770D01*
X164761904Y-106381770D02*
X164761904Y-106619865D01*
X164761904Y-106619865D02*
X164714285Y-106810341D01*
X164714285Y-106810341D02*
X164666666Y-106905579D01*
X164666666Y-106905579D02*
X164619047Y-106953199D01*
X164619047Y-106953199D02*
X164523809Y-107000818D01*
X164523809Y-107000818D02*
X164428571Y-107000818D01*
X164428571Y-107000818D02*
X164333333Y-106953199D01*
X164333333Y-106953199D02*
X164285714Y-106905579D01*
X164285714Y-106905579D02*
X164238095Y-106810341D01*
X164238095Y-106810341D02*
X164190476Y-106619865D01*
X164190476Y-106619865D02*
X164190476Y-106381770D01*
X164190476Y-106381770D02*
X164238095Y-106191294D01*
X164238095Y-106191294D02*
X164285714Y-106096056D01*
X164285714Y-106096056D02*
X164333333Y-106048437D01*
X164333333Y-106048437D02*
X164428571Y-106000818D01*
X165380952Y-106000818D02*
X165476190Y-106000818D01*
X165476190Y-106000818D02*
X165571428Y-106048437D01*
X165571428Y-106048437D02*
X165619047Y-106096056D01*
X165619047Y-106096056D02*
X165666666Y-106191294D01*
X165666666Y-106191294D02*
X165714285Y-106381770D01*
X165714285Y-106381770D02*
X165714285Y-106619865D01*
X165714285Y-106619865D02*
X165666666Y-106810341D01*
X165666666Y-106810341D02*
X165619047Y-106905579D01*
X165619047Y-106905579D02*
X165571428Y-106953199D01*
X165571428Y-106953199D02*
X165476190Y-107000818D01*
X165476190Y-107000818D02*
X165380952Y-107000818D01*
X165380952Y-107000818D02*
X165285714Y-106953199D01*
X165285714Y-106953199D02*
X165238095Y-106905579D01*
X165238095Y-106905579D02*
X165190476Y-106810341D01*
X165190476Y-106810341D02*
X165142857Y-106619865D01*
X165142857Y-106619865D02*
X165142857Y-106381770D01*
X165142857Y-106381770D02*
X165190476Y-106191294D01*
X165190476Y-106191294D02*
X165238095Y-106096056D01*
X165238095Y-106096056D02*
X165285714Y-106048437D01*
X165285714Y-106048437D02*
X165380952Y-106000818D01*
X166333333Y-106000818D02*
X166428571Y-106000818D01*
X166428571Y-106000818D02*
X166523809Y-106048437D01*
X166523809Y-106048437D02*
X166571428Y-106096056D01*
X166571428Y-106096056D02*
X166619047Y-106191294D01*
X166619047Y-106191294D02*
X166666666Y-106381770D01*
X166666666Y-106381770D02*
X166666666Y-106619865D01*
X166666666Y-106619865D02*
X166619047Y-106810341D01*
X166619047Y-106810341D02*
X166571428Y-106905579D01*
X166571428Y-106905579D02*
X166523809Y-106953199D01*
X166523809Y-106953199D02*
X166428571Y-107000818D01*
X166428571Y-107000818D02*
X166333333Y-107000818D01*
X166333333Y-107000818D02*
X166238095Y-106953199D01*
X166238095Y-106953199D02*
X166190476Y-106905579D01*
X166190476Y-106905579D02*
X166142857Y-106810341D01*
X166142857Y-106810341D02*
X166095238Y-106619865D01*
X166095238Y-106619865D02*
X166095238Y-106381770D01*
X166095238Y-106381770D02*
X166142857Y-106191294D01*
X166142857Y-106191294D02*
X166190476Y-106096056D01*
X166190476Y-106096056D02*
X166238095Y-106048437D01*
X166238095Y-106048437D02*
X166333333Y-106000818D01*
X167857143Y-107000818D02*
X167857143Y-106334151D01*
X167857143Y-106429389D02*
X167904762Y-106381770D01*
X167904762Y-106381770D02*
X168000000Y-106334151D01*
X168000000Y-106334151D02*
X168142857Y-106334151D01*
X168142857Y-106334151D02*
X168238095Y-106381770D01*
X168238095Y-106381770D02*
X168285714Y-106477008D01*
X168285714Y-106477008D02*
X168285714Y-107000818D01*
X168285714Y-106477008D02*
X168333333Y-106381770D01*
X168333333Y-106381770D02*
X168428571Y-106334151D01*
X168428571Y-106334151D02*
X168571428Y-106334151D01*
X168571428Y-106334151D02*
X168666667Y-106381770D01*
X168666667Y-106381770D02*
X168714286Y-106477008D01*
X168714286Y-106477008D02*
X168714286Y-107000818D01*
X169190476Y-107000818D02*
X169190476Y-106334151D01*
X169190476Y-106429389D02*
X169238095Y-106381770D01*
X169238095Y-106381770D02*
X169333333Y-106334151D01*
X169333333Y-106334151D02*
X169476190Y-106334151D01*
X169476190Y-106334151D02*
X169571428Y-106381770D01*
X169571428Y-106381770D02*
X169619047Y-106477008D01*
X169619047Y-106477008D02*
X169619047Y-107000818D01*
X169619047Y-106477008D02*
X169666666Y-106381770D01*
X169666666Y-106381770D02*
X169761904Y-106334151D01*
X169761904Y-106334151D02*
X169904761Y-106334151D01*
X169904761Y-106334151D02*
X170000000Y-106381770D01*
X170000000Y-106381770D02*
X170047619Y-106477008D01*
X170047619Y-106477008D02*
X170047619Y-107000818D01*
X110000000Y-100500000D02*
X110000000Y-108282419D01*
X220000000Y-100500000D02*
X220000000Y-108282419D01*
X110000000Y-107695999D02*
X220000000Y-107695999D01*
X110000000Y-107695999D02*
X220000000Y-107695999D01*
X110000000Y-107695999D02*
X111126504Y-107109578D01*
X110000000Y-107695999D02*
X111126504Y-108282420D01*
X220000000Y-107695999D02*
X218873496Y-108282420D01*
X220000000Y-107695999D02*
X218873496Y-107109578D01*
X154376333Y-69304819D02*
X154376333Y-70019104D01*
X154376333Y-70019104D02*
X154423952Y-70161961D01*
X154423952Y-70161961D02*
X154519190Y-70257200D01*
X154519190Y-70257200D02*
X154662047Y-70304819D01*
X154662047Y-70304819D02*
X154757285Y-70304819D01*
X153900142Y-70304819D02*
X153900142Y-69304819D01*
X153900142Y-69304819D02*
X153519190Y-69304819D01*
X153519190Y-69304819D02*
X153423952Y-69352438D01*
X153423952Y-69352438D02*
X153376333Y-69400057D01*
X153376333Y-69400057D02*
X153328714Y-69495295D01*
X153328714Y-69495295D02*
X153328714Y-69638152D01*
X153328714Y-69638152D02*
X153376333Y-69733390D01*
X153376333Y-69733390D02*
X153423952Y-69781009D01*
X153423952Y-69781009D02*
X153519190Y-69828628D01*
X153519190Y-69828628D02*
X153900142Y-69828628D01*
X152471571Y-69638152D02*
X152471571Y-70304819D01*
X152709666Y-69257200D02*
X152947761Y-69971485D01*
X152947761Y-69971485D02*
X152328714Y-69971485D01*
X151330819Y-73183714D02*
X151330819Y-72612286D01*
X151330819Y-72898000D02*
X150330819Y-72898000D01*
X150330819Y-72898000D02*
X150473676Y-72802762D01*
X150473676Y-72802762D02*
X150568914Y-72707524D01*
X150568914Y-72707524D02*
X150616533Y-72612286D01*
X198826333Y-60795819D02*
X198826333Y-61510104D01*
X198826333Y-61510104D02*
X198873952Y-61652961D01*
X198873952Y-61652961D02*
X198969190Y-61748200D01*
X198969190Y-61748200D02*
X199112047Y-61795819D01*
X199112047Y-61795819D02*
X199207285Y-61795819D01*
X198350142Y-61795819D02*
X198350142Y-60795819D01*
X198350142Y-60795819D02*
X197969190Y-60795819D01*
X197969190Y-60795819D02*
X197873952Y-60843438D01*
X197873952Y-60843438D02*
X197826333Y-60891057D01*
X197826333Y-60891057D02*
X197778714Y-60986295D01*
X197778714Y-60986295D02*
X197778714Y-61129152D01*
X197778714Y-61129152D02*
X197826333Y-61224390D01*
X197826333Y-61224390D02*
X197873952Y-61272009D01*
X197873952Y-61272009D02*
X197969190Y-61319628D01*
X197969190Y-61319628D02*
X198350142Y-61319628D01*
X197397761Y-60891057D02*
X197350142Y-60843438D01*
X197350142Y-60843438D02*
X197254904Y-60795819D01*
X197254904Y-60795819D02*
X197016809Y-60795819D01*
X197016809Y-60795819D02*
X196921571Y-60843438D01*
X196921571Y-60843438D02*
X196873952Y-60891057D01*
X196873952Y-60891057D02*
X196826333Y-60986295D01*
X196826333Y-60986295D02*
X196826333Y-61081533D01*
X196826333Y-61081533D02*
X196873952Y-61224390D01*
X196873952Y-61224390D02*
X197445380Y-61795819D01*
X197445380Y-61795819D02*
X196826333Y-61795819D01*
X204795333Y-62573819D02*
X204795333Y-63288104D01*
X204795333Y-63288104D02*
X204842952Y-63430961D01*
X204842952Y-63430961D02*
X204938190Y-63526200D01*
X204938190Y-63526200D02*
X205081047Y-63573819D01*
X205081047Y-63573819D02*
X205176285Y-63573819D01*
X204319142Y-63573819D02*
X204319142Y-62573819D01*
X204319142Y-62573819D02*
X203938190Y-62573819D01*
X203938190Y-62573819D02*
X203842952Y-62621438D01*
X203842952Y-62621438D02*
X203795333Y-62669057D01*
X203795333Y-62669057D02*
X203747714Y-62764295D01*
X203747714Y-62764295D02*
X203747714Y-62907152D01*
X203747714Y-62907152D02*
X203795333Y-63002390D01*
X203795333Y-63002390D02*
X203842952Y-63050009D01*
X203842952Y-63050009D02*
X203938190Y-63097628D01*
X203938190Y-63097628D02*
X204319142Y-63097628D01*
X203414380Y-62573819D02*
X202795333Y-62573819D01*
X202795333Y-62573819D02*
X203128666Y-62954771D01*
X203128666Y-62954771D02*
X202985809Y-62954771D01*
X202985809Y-62954771D02*
X202890571Y-63002390D01*
X202890571Y-63002390D02*
X202842952Y-63050009D01*
X202842952Y-63050009D02*
X202795333Y-63145247D01*
X202795333Y-63145247D02*
X202795333Y-63383342D01*
X202795333Y-63383342D02*
X202842952Y-63478580D01*
X202842952Y-63478580D02*
X202890571Y-63526200D01*
X202890571Y-63526200D02*
X202985809Y-63573819D01*
X202985809Y-63573819D02*
X203271523Y-63573819D01*
X203271523Y-63573819D02*
X203366761Y-63526200D01*
X203366761Y-63526200D02*
X203414380Y-63478580D01*
D11*
%TO.C,JP4*%
X151511000Y-72136000D02*
X151511000Y-69342000D01*
X150241000Y-72136000D02*
X151511000Y-72136000D01*
X151511000Y-69342000D02*
X151257000Y-69342000D01*
X150495000Y-69342000D02*
X150241000Y-69342000D01*
X150241000Y-69342000D02*
X150241000Y-72136000D01*
X151511000Y-68707000D02*
X151511000Y-67818000D01*
X150241000Y-68707000D02*
X150241000Y-67818000D01*
X151511000Y-67818000D02*
X150241000Y-67818000D01*
%TO.C,JP2*%
X199263000Y-62357000D02*
X196469000Y-62357000D01*
X199263000Y-63627000D02*
X199263000Y-62357000D01*
X196469000Y-62357000D02*
X196469000Y-63627000D01*
X196469000Y-63627000D02*
X199263000Y-63627000D01*
%TO.C,JP3*%
X205105000Y-60833000D02*
X202311000Y-60833000D01*
X205105000Y-62103000D02*
X205105000Y-60833000D01*
X202311000Y-60833000D02*
X202311000Y-62103000D01*
X202311000Y-62103000D02*
X205105000Y-62103000D01*
D12*
%TO.C,J2*%
X213551001Y-84251800D02*
G75*
G03*
X212789001Y-84251800I-381000J0D01*
G01*
X212789001Y-84251800D02*
G75*
G03*
X213551001Y-84251800I381000J0D01*
G01*
%TO.C,J4*%
X161671000Y-73126700D02*
G75*
G03*
X160909000Y-73126700I-381000J0D01*
G01*
X160909000Y-73126700D02*
G75*
G03*
X161671000Y-73126700I381000J0D01*
G01*
%TO.C,U6*%
X166395400Y-66827400D02*
G75*
G03*
X165633400Y-66827400I-381000J0D01*
G01*
X165633400Y-66827400D02*
G75*
G03*
X166395400Y-66827400I381000J0D01*
G01*
D11*
%TO.C,J8*%
X122320000Y-66930000D02*
X122320000Y-69610000D01*
X121600000Y-66930000D02*
X122320000Y-66930000D01*
X117900000Y-66930000D02*
X120200000Y-66930000D01*
X112050000Y-66930000D02*
X116500000Y-66930000D01*
X110680000Y-68410000D02*
X110680000Y-69270000D01*
X122320000Y-71910000D02*
X122320000Y-75580000D01*
X122320000Y-77880000D02*
X122320000Y-79110000D01*
X122320000Y-79110000D02*
X112500000Y-79110000D01*
%TD*%
M02*
